<?xml version="1.0" encoding="utf-8"?>
<svg version="1.1" xmlns:xlink="http://www.w3.org/1999/xlink" width="172px" height="16px" viewBox="1482 406  172 16" xmlns="http://www.w3.org/2000/svg">
  <g transform="matrix(0.996194698091744 -0.0871557427476581 0.0871557427476683 0.996194698091741 -30.1157641053887 138.235599618347 )">
    <path d="M 1345.81697008464 329.919011542548  C 1345.0257616631 329.309242581596  1344.23654380157 328.696895111141  1343.44932908892 328.08197889877  L 1342.8337442814 328.870049545825  C 1343.6226722596 329.486304039535  1344.41360774626 330.099984200824  1345.20653812511 330.711080240826  L 1345.81697008464 329.919011542548  Z M 1348.99236609468 332.344293898959  C 1348.19588510941 331.741428248789  1347.40137218647 331.135966876934  1346.60883999919 330.52791944114  L 1346.00013143663 331.321313344485  C 1346.79438846222 331.930684112663  1347.59063053427 332.537463188697  1348.38884495187 333.141640893801  L 1348.99236609468 332.344293898959  Z M 1352.18873201375 334.741871685043  C 1351.38703869448 334.145954934237  1350.58729079104 333.54742544585  1349.78950106025 332.946292767059  L 1349.18771477308 333.744949930405  C 1349.98724078449 334.347390892554  1350.78872923027 334.947222998819  1351.5921673258 335.544436681227  L 1352.18873201375 334.741871685043  Z M 1355.40582613329 337.111563596441  C 1354.59898110393 336.522640808121  1353.79405869672 335.931088463854  1352.99107175116 335.336915999616  L 1352.39625324632 336.140776028666  C 1353.20098778357 336.736241628319  1354.00766199468 337.32908140563  1354.81626301231 337.919285904161  L 1355.40582613329 337.111563596441  Z M 1358.64340517727 339.453190437521  C 1357.83146945122 338.871306145866  1357.02143340845 338.286775678882  1356.21330996976 337.699608360355  L 1355.62550422733 338.508610467372  C 1356.43538643653 339.097055675538  1357.24718541242 339.682858293468  1358.06088820591 340.266008976975  L 1358.64340517727 339.453190437521  Z M 1361.90122432061 341.766575134922  C 1361.08425929636 341.191773341953  1360.26917087266 340.614308954239  1359.45597205104 340.034191182945  L 1358.87522352076 340.848274191351  C 1359.69019215878 341.429654509904  1360.50705451141 342.008375670206  1361.32579754869 342.584428440933  L 1361.90122432061 341.766575134922  Z M 1365.17903720768 344.051542750953  C 1364.35710466393 343.483866923051  1363.53702549617 342.91351228238  1362.71881278554 342.340487926696  L 1362.1451653835 343.159590275694  C 1362.9651588226 343.7338617408  1363.78702278092 344.305457680633  1364.61074414885 344.874368977615  L 1365.17903720768 344.051542750953  Z M 1368.4765959709 346.307920496812  C 1367.64975806206 345.747413561528  1366.82475016442 345.184211797975  1366.00158543787 344.618324189904  L 1365.43508254318 345.442383939135  C 1366.26003877558 346.009503124471  1367.08684219049 346.573930619922  1367.91547959937 347.13565742217  L 1368.4765959709 346.307920496812  Z M 1371.79365124954 348.535537745662  C 1370.9619705009 347.982242088403  1370.13209626036 347.426235791205  1369.30404176543 346.867527723041  L 1368.74472621692 347.696482557271  C 1369.57458285962 348.25640657741  1370.40626320836 348.813622946554  1371.23975399682 349.368122776412  L 1371.79365124954 348.535537745662  Z M 1375.12995220853 350.734226045525  C 1374.29349151162 350.188183506401  1373.45881368311 349.639414720644  1372.62593203712 349.08792844178  L 1372.07384613012 349.921715675608  C 1372.90854042954 350.47440218922  1373.74503482057 351.024365295438  1374.58331596022 351.571596221753  L 1375.12995220853 350.734226045525  Z M 1378.48524655745 352.903819132029  C 1377.64406916525 352.365071002653  1376.80465086698 351.823581226152  1375.96700505225 351.279358439858  L 1375.4221905354 352.117915022459  C 1376.26165937209 352.663322235485  1377.10290454991 353.205990490704  1377.94591265008 353.745911131967  L 1378.48524655745 352.903819132029  Z M 1381.85928056961 355.044152940972  C 1381.0134500918 354.512739961387  1380.16935480038 353.978570141463  1379.32700815954 353.441652001772  L 1378.7895062316 354.284914521662  C 1379.63368612513 354.823001190531  1380.4796184749 355.358333558256  1381.3272897875 355.890903085789  L 1381.85928056961 355.044152940972  Z M 1385.25179910122 357.155065620735  C 1384.40137949934 356.631027976284  1383.55267104508 356.104218506754  1382.70568727623 355.57464561531  L 1382.17553858298 356.422550305145  C 1383.02436569658 356.95327573982  1383.87492124915 357.48123173838  1384.7271916734 358.006409879353  L 1385.25179910122 357.155065620735  Z M 1388.6625456107 359.236397544518  C 1387.80760119334 358.719774862838  1386.95434375536 358.200365580903  1386.10278690726 357.678177983917  L 1385.58003153844 358.530660725311  C 1386.43344168401 359.053984792455  1387.28855612049 359.574524497894  1388.1453612079 360.092271538452  L 1388.6625456107 359.236397544518  Z M 1392.09126217808 361.287991322413  C 1391.23185759594 360.778822670396  1390.37411569745 360.266852853709  1389.51805016463 359.752090038891  L 1389.0027276509 360.609086367268  C 1389.86065629372 361.124969493218  1390.72026495054 361.638053542425  1391.58153990966 362.148330330642  L 1392.09126217808 361.287991322413  Z M 1395.53768952448 363.309691813304  C 1394.67388976554 362.808015694169  1393.81172826886 362.303524057814  1392.95121878681 361.796224951412  L 1392.44336809677 362.657670060879  C 1393.30575036044 363.166073234655  1394.16978823415 363.671662828317  1395.03546793555 364.174430777161  L 1395.53768952448 363.309691813304  Z M 1399.00156703176 365.3013461366  C 1398.13343741641 364.807200487009  1397.26692151797 364.310225180517  1396.40203315826 363.810428144403  L 1395.90169269547 364.676256892651  C 1396.76846336683 365.177141668906  1397.63686511906 365.675198574437  1398.50688410021 366.170419664696  L 1399.00156703176 365.3013461366  Z M 1402.48263276217 367.262803683794  C 1401.61023893821 366.776225870944  1400.73943416376 366.286804475489  1399.8702323291 365.794547304216  L 1399.3774399292 366.664694217446  C 1400.24853346321 367.158022719371  1401.1212334256 367.648509273808  1401.99552589584 368.13614605696  L 1402.48263276217 367.262803683794  Z M 1405.98062347823 369.193916129854  C 1405.10403141589 368.714942948663  1404.22900361553 368.233112474194  1403.35555403477 367.748432392152  L 1402.87034696264 368.622831670027  C 1403.74569748738 369.10856659222  1404.62262966652 369.591445705064  1405.50112951202 370.071461306113  L 1405.98062347823 369.193916129854  Z M 1409.49527466255 371.09453744444  C 1408.61455064953 370.623205114752  1407.73536599274 370.14900199722  1406.85773471595 369.671935655808  L 1406.38014966284 370.550521176427  C 1407.25969098448 371.028625787708  1408.14078906693 371.503860943738  1409.02342985572 371.976219063999  L 1409.49527466255 371.09453744444  Z M 1413.02693831997 372.961851088944  C 1412.29489845464 372.579542823718  1411.56401599318 372.19502244954  1410.8343009546 371.808295237449  C 1410.6816580568 371.727253471526  1410.52906089365 371.646125592809  1410.37650953842 371.564911640247  L 1409.90658261922 372.447616965147  C 1410.05957547551 372.529065960171  1410.21261430524 372.610428570448  1410.36569903472 372.691704756793  C 1411.09730407623 373.079434463108  1411.83007974199 373.464951283967  1412.5640159841 373.848249933116  L 1413.02693831997 372.961851088944  Z M 1416.57717201545 374.793992060886  C 1415.6873868518 374.340286511003  1414.79926341808 373.883329404792  1413.91281952082 373.423129904057  L 1413.45205901676 374.31065441521  C 1414.34066611899 374.771976949053  1415.23095685628 375.230049175904  1416.12291337865 375.68486191159  L 1416.57717201545 374.793992060886  Z M 1420.14509893522 376.591433945571  C 1419.25093278243 376.146424670703  1418.35839658054 375.698147793497  1417.46750822439 375.246612301654  L 1417.01542229104 376.138586689663  C 1417.90848469802 376.591224071666  1418.8031989721 377.040594887016  1419.69954717459 377.486690126  L 1420.14509893522 376.591433945571  Z M 1423.73037994931 378.3540058969  C 1422.83191779755 377.917735195015  1421.93505366258 377.478181155298  1421.03980552615 377.035352590629  L 1420.59643713409 377.931692073703  C 1421.49386996065 378.375601280884  1422.39292272924 378.816227972203  1423.29357741435 379.25356331333  L 1423.73037994931 378.3540058969  Z M 1427.33267427826 380.081540383148  C 1426.43000152597 379.654049721582  1425.52889470452 379.223260298804  1424.62937188076 378.789180751967  L 1424.19476317196 379.689800133414  C 1425.09648111743 380.124938972366  1425.99978692605 380.556779658316  1426.90466248688 380.985313533023  L 1427.33267427826 380.081540383148  Z M 1430.95163952552 381.773873202886  C 1430.04484197135 381.355203214447  1429.13957811326 380.933219354962  1428.23586610142 380.507930085037  L 1427.81005838527 381.412743761361  C 1428.71597574176 381.839070872332  1429.62344873152 382.262084506614  1430.53245916004 382.681776182946  L 1430.95163952552 381.773873202886  Z M 1434.58693170994 383.430843500588  C 1433.67609554463 383.021033979684  1432.76676069485 382.607895792881  1431.85894539238 382.191437223433  L 1431.44197914171 383.100359192475  C 1432.35200980217 383.51783405325  1433.26356371813 383.931980428596  1434.1766226133 384.342790015036  L 1434.58693170994 383.430843500588  Z M 1438.23820529854 385.052293781922  C 1437.32341709668 384.651383680775  1436.41009768709 384.247130435266  1435.49826538146 383.839542150509  L 1435.09018022875 384.752486019615  C 1436.00423769514 385.161068949385  1436.91978589449 385.566308701355  1437.83680647043 385.968197150623  L 1438.23820529854 385.052293781922  Z M 1441.90511323927 386.638069928718  C 1440.9864599511 386.246097353665  1440.06924279234 385.850767473551  1439.15348015283 385.452088214581  L 1438.7543148864 386.36896720882  C 1439.67231227793 386.768619371947  1440.59176773821 387.164913982673  1441.5126628325 387.557843095441  L 1441.90511323927 386.638069928718  Z M 1445.58730699409 388.188021213617  C 1444.66487593722 387.805023421488  1443.7438482104 387.418654482709  1442.82424227986 387.028922143822  L 1442.4340348402 387.949649114228  C 1443.35588490161 388.340332523943  1444.27916022895 388.727644325787  1445.2038423109 389.111576754308  L 1445.58730699409 388.188021213617  Z M 1449.28443657202 389.702000314399  C 1448.35831542313 389.328013708974  1447.43356467154 388.950642435735  1446.51020285813 388.569894060826  L 1446.1289903343 389.494381492688  C 1447.05460544412 389.876059014695  1447.9816128816 390.254351193835  1448.90999406056 390.629250445492  L 1449.28443657202 389.702000314399  Z M 1452.99615056244 391.179863327986  C 1452.06642734896 390.814923456533  1451.13804146978 390.446585717817  1450.21101153865 390.07485749686  L 1449.83883016473 391.003017518034  C 1450.76812234365 391.375652874046  1451.69877377958 391.744889473966  1452.63076581332 392.110719914742  L 1452.99615056244 391.179863327986  Z M 1456.72209616849 392.621469784116  C 1455.78885926022 392.265611334019  1454.85692649613 391.906342140172  1453.9263165611 391.543669405779  L 1453.56320171277 392.475413795044  C 1454.49608263195 392.838971566225  1455.43028960831 393.199117491143  1456.36580391137 393.555844349008  L 1456.72209616849 392.621469784116  Z M 1460.4619192406 394.0266826587  C 1459.52525734132 393.679939454154  1458.58986627215 393.329772953564  1457.65576478729 392.976190177626  L 1457.30175097847 393.911430373068  C 1458.23813196797 394.265876003406  1459.17580568878 394.616897021601  1460.11475334092 394.964486389817  L 1460.4619192406 394.0266826587  Z M 1464.21526431016 395.395368386843  C 1463.27526644917 395.057773385637  1462.33650598348 394.7167428615  1461.39900173473 394.372283651903  L 1461.05412261429 395.310930759333  C 1461.99391467148 395.656230558918  1462.93496601125 395.998093305991  1463.87725776589 396.336512146333  L 1464.21526431016 395.395368386843  Z M 1467.98177462329 396.72739687554  C 1467.03853014703 396.398982165955  1466.09648951353 396.067120033044  1465.15567161031 395.731817130509  L 1464.81995995887 396.673781931913  C 1465.76307375692 397.009903080144  1466.70741326911 397.342575062183  1467.6529595618 397.671791208084  L 1467.98177462329 396.72739687554  Z M 1471.76109217476 398.022641516042  C 1470.81469073821 397.703438313748  1469.86945947751 397.380776115438  1468.92541734415 397.054661390357  L 1468.59890507095 397.999854352375  C 1469.54525096728 398.326764901078  1470.49278889282 398.650214497751  1471.4414998498 398.970196657352  L 1471.76109217476 398.022641516042  Z M 1475.55285774202 399.280979195887  C 1474.60338930024 398.971017841016  1473.65505725617 398.657586246213  1472.70788062349 398.340690695654  L 1472.39059876339 399.289021978092  C 1473.34008680822 399.606690854556  1474.29073308402 399.920887322114  1475.2425185307 400.231605081246  L 1475.55285774202 399.280979195887  Z M 1479.35671091935 400.502290310607  C 1478.40426571891 400.201600264856  1477.45292303003 399.897429065102  1476.50270192677 399.589782809853  L 1476.19468063728 400.54116227422  C 1477.14722058219 400.849559284159  1478.10088484968 401.154472758344  1479.05565431928 401.455896583422  L 1479.35671091935 400.502290310607  Z M 1483.17229015209 401.686458775092  C 1482.21695872251 401.395068618924  1481.26269581356 401.100186725563  1480.30952055782 400.801819007273  L 1480.01078911623 401.756156225349  C 1480.96629042266 402.055252055741  1481.92288203654 402.350853554686  1482.88054477857 402.642954795486  L 1483.17229015209 401.686458775092  Z M 1486.99906679588 402.832181833554  C 1486.64665667965 402.728815947713  1486.29438568095 402.624976351585  1485.94225475471 402.520663326661  C 1485.33707647798 402.340734801964  1484.73231483808 402.159407903632  1484.12797468013 401.976684084381  L 1483.83856148074 402.933888346813  C 1484.44453495778 403.117106004341  1485.05093116622 403.298922598934  1485.65774524542 403.479336673221  C 1486.01089416005 403.583951725196  1486.36418361575 403.688091766072  1486.71761265413 403.791756513343  L 1486.99906679588 402.832181833554  Z M 1490.83810843001 403.937921027496  C 1489.87700701967 403.666166648501  1488.91690236045 403.390899371531  1487.95781370205 403.112124715586  L 1487.6786992076 404.07238254502  C 1488.64012834728 404.351837499766  1489.60257596716 404.627776516419  1490.56602277054 404.900194062507  L 1490.83810843001 403.937921027496  Z M 1494.68774771096 405.006180003671  C 1493.72404258309 404.743808530405  1492.76129991095 404.477914608567  1491.79953899714 404.208503569225  L 1491.52979953395 405.171436911673  C 1492.4939074502 405.441505399615  1493.45899952059 405.708048187169  1494.42505639539 405.971059930254  L 1494.68774771096 405.006180003671  Z M 1498.54761873213 406.036857224509  C 1497.5814014865 405.783893595271  1496.61611230973 405.527398301672  1495.65177055547 405.267376486338  L 1495.39143176216 406.232893815391  C 1496.35812681696 406.493550166638  1497.32577160621 406.750671390299  1498.29434672916 407.004252331232  L 1498.54761873213 406.036857224509  Z M 1502.41735461439 407.029854724573  C 1501.44871708955 406.786322983451  1500.48097315848 406.539250697859  1499.51414222405 406.288642821499  L 1499.26322884572 407.256652365138  C 1500.23241915505 407.507871804401  1501.20252468903 407.755547024931  1502.17352599742 407.999673060936  L 1502.41735461439 407.029854724573  Z M 1506.29658754097 407.985078119866  C 1505.32562180551 407.751001414449  1504.35551510379 407.513375620983  1503.38628688608 407.27220550377  L 1503.14482277194 408.242615253094  C 1504.11641621469 408.484373902077  1505.08889028522 408.722579578037  1506.06222548581 408.957227505043  L 1506.29658754097 407.985078119866  Z M 1510.18494879241 408.902436616805  C 1509.21174713621 408.677837195987  1508.23936987209 408.449680480878  1507.26783649581 408.21797104593  L 1507.03584459693 409.190688763899  C 1508.00974882358 409.422963643549  1508.98449899736 409.651677133579  1509.96007557507 409.876824648404  L 1510.18494879241 408.902436616805  Z M 1514.0820687816 409.781843020849  C 1513.10672370707 409.56674223271  1512.13216830459 409.348076282159  1511.1584221136 409.125849553361  L 1510.9359244807 410.100782783563  C 1511.91204692201 410.32355181624  1512.88898054956 410.54275138124  1513.86670577619 410.758377083696  L 1514.0820687816 409.781843020849  Z M 1517.98757708891 410.623213744788  C 1517.0101813022 410.417632034568  1516.03354039245 410.208477632682  1515.05767394091 409.995754732592  L 1514.8446917223 410.972810808032  C 1515.82293959826 411.186052819636  1516.80196382238 411.395717624769  1517.78174476559 411.60180101973  L 1517.98757708891 410.623213744788  Z M 1521.90110249742 411.426468816688  C 1520.92174889958 411.230425724841  1519.94311531187 411.030802751659  1518.96522135548 410.827603899499  L 1518.76177479503 411.806689951406  C 1519.74205512363 412.010384673381  1520.72307688843 412.210494790083  1521.70482042047 412.407016289413  L 1521.90110249742 411.426468816688  Z M 1525.82227302818 412.191531887489  C 1524.84105470637 412.005046047831  1523.8605214594 411.814973477431  1522.88069294657 411.621317987167  L 1522.68680138179 412.602340953823  C 1523.66902098774 412.796469025059  1524.65194704762 412.987005432969  1525.63555985413 413.173946357371  L 1525.82227302818 412.191531887489  Z M 1529.75071597557 412.918330238268  C 1528.76772619417 412.741419376199  1527.78538648722 412.5609152749  1526.80371655025 412.376821553405  L 1526.61939841045 413.359688188988  C 1527.60346393421 413.544231157698  1528.5882008624 413.7251757464  1529.57358945142 413.902518327224  L 1529.75071597557 412.918330238268  Z M 1533.68605794274 413.606794787146  C 1532.70139013452 413.439475717969  1531.71733733857 413.26855724261  1530.73391928476 413.094042787916  L 1530.55919208931 414.078659671363  C 1531.54500999586 414.253599996816  1532.53146419353 414.424935567603  1533.5185349043 414.59266294851  L 1533.68605794274 413.606794787146  Z M 1537.62792487708 414.256860095856  C 1536.64167263432 414.099148723183  1535.65600028313 413.937832119485  1534.67092758598 413.772913519121  L 1534.50580794262 414.759187063011  C 1535.49328453042 414.924508117207  1536.48136223547 415.086218384695  1537.47002124733 415.244314623272  L 1537.62792487708 414.256860095856  Z M 1541.57594210578 414.868464375963  C 1540.58819917131 414.720375690185  1539.60100095271 414.568676291241  1538.61436724293 414.413369220643  L 1538.45887084622 415.401205680088  C 1539.44791225597 415.556891749321  1540.43751955212 415.708961343034  1541.42767289342 415.857411412292  L 1541.57594210578 414.868464375963  Z M 1545.52973437147 415.441549494736  C 1544.54059462986 415.303097571625  1543.55196437659 415.161029796391  1542.56386343331 415.015349017435  L 1542.41800506311 416.004654498994  C 1543.40851728687 416.150690785372  1544.39956011231 416.293105251151  1545.39111366941 416.431895040977  L 1545.52973437147 415.441549494736  Z M 1549.48892586785 415.976060980674  C 1548.49848333641 415.847258980028  1547.50851501736 415.714836331986  1546.51904075917 415.578795691569  L 1546.38283427926 416.56947616217  C 1547.37472316926 416.705848785006  1548.36710732579 416.838594586416  1549.35996685193 416.967710904898  L 1549.48892586785 415.976060980674  Z M 1553.45314027542 416.471948028686  C 1552.46148909531 416.352808193081  1551.47027680655 416.230043258948  1550.47952328257 416.103655687676  L 1550.35298163931 417.095616983555  C 1551.34615291692 417.222312980688  1552.33978407884 417.345377500296  1553.33385520315 417.464808074982  L 1553.45314027542 416.471948028686  Z M 1557.42200079727 416.929163504915  C 1556.42923522451 416.819697158541  1555.43687318036 416.706601607074  1554.44493456128 416.589879118032  L 1554.32806978242 417.583026953684  C 1555.32242904712 417.700034282713  1556.31721277021 417.813405823287  1557.31240100664 417.923139302352  L 1557.42200079727 416.929163504915  Z M 1561.39513019487 417.347663951221  C 1560.40134459141 417.24788149881  1559.40792711546 417.144466079692  1558.41489768464 417.037419767304  L 1558.30772087812 418.031659744444  C 1559.30317361649 418.13896728387  1560.29901534696 418.242635069494  1561.29522610328 418.342661022816  L 1561.39513019487 417.347663951221  Z M 1565.37215082393 417.727409589312  C 1564.37743964867 417.637320515144  1563.38306116484 417.543595057968  1562.38903530932 417.446235096942  L 1562.29155666224 418.441472713475  C 1563.28800825691 418.539070263763  1564.28481334043 418.633024440857  1565.28195192724 418.723333361011  L 1565.37215082393 417.727409589312  Z M 1569.35288573974 418.067435443191  C 1568.35723166386 417.986801001528  1567.36184318381 417.902919946356  1566.36673617725 417.81579361568  L 1566.27951511458 418.81198259686  C 1567.27678783596 418.899298546125  1568.27434264335 418.98336215698  1569.27216362467 419.064172088518  L 1569.35288573974 418.067435443191  Z M 1573.33685070272 418.37265258346  C 1572.34053308476 418.300679281445  1571.3444528205 418.22545717909  1570.34862579848 418.146987476268  L 1570.27007077596 419.143897255756  C 1571.2680650798 419.222537737193  1572.26631317703 419.297923550203  1573.26479914451 419.370053492302  L 1573.33685070272 418.37265258346  Z M 1577.32331916476 418.643214092238  C 1576.3264133461 418.57990737248  1575.32971662097 418.513349911219  1574.33324488775 418.443542770117  L 1574.26336184571 419.441097961791  C 1575.26200226387 419.511057028622  1576.26086816361 419.577759343129  1577.25994361194 419.641203841336  L 1577.32331916476 418.643214092238  Z M 1581.31198966992 418.879099509719  C 1580.31457103637 418.824464159458  1579.31733322039 418.766576372353  1578.32029212897 418.705437071773  L 1578.25908635195 419.703562240707  C 1579.25829736743 419.764834602643  1580.25770553564 419.822848374629  1581.25729491493 419.877602631284  L 1581.31198966992 418.879099509719  Z M 1585.30256059572 419.080290998292  C 1584.30470457188 419.034331149044  1583.30700107597 418.985117413557  1582.3094660224 418.932650576842  L 1582.25694213877 419.931270245008  C 1583.25664819144 419.983851268643  1584.25652305308 420.03317211112  1585.25655077457 420.079231985717  L 1585.30256059572 419.080290998292  Z M 1589.29473017597 419.246773343897  C 1588.29651221955 419.209492471138  1587.29841848979 419.1689565088  1586.3004649075 419.125166103482  L 1586.25662688911 420.124204755459  C 1587.2567523814 420.168090464627  1588.25701832611 420.208714647962  1589.25740876792 420.246076657462  L 1589.29473017597 419.246773343897  Z M 1593.28819652361 419.378533957173  C 1592.28969211959 419.349934880072  1591.29128363175 419.318079756209  1590.29298698574 419.282969093708  L 1590.2578381476 420.28235118239  C 1591.25830745022 420.317538258463  1592.2588888381 420.349462710663  1593.25956635088 420.378124029758  L 1593.28819652361 419.378533957173  Z M 1597.28265765349 419.475562874408  C 1596.28394230861 419.455647755623  1595.28529456208 419.432475879111  1594.28673034337 419.406047614489  L 1594.26027334343 420.4056975668  C 1595.26101080106 420.432183348937  1596.2618319684 420.455405655882  1597.2627208811 420.475364117209  L 1597.28265765349 419.475562874408  Z M 1601.27781150526 419.537852758294  C 1600.27896074217 419.526623103802  1599.28014925449 419.512136226894  1598.28139297432 419.494392358652  L 1598.26362981326 420.494234581259  C 1599.26455975038 420.512017066613  1600.26554501517 420.526535472235  1601.26656964082 420.537789566539  L 1601.27781150526 419.537852758294  Z M 1605.27335596616 419.565398898482  C 1604.27444531777 419.562855557468  1603.27554561888 419.557054775659  1602.27667280298 419.547996645583  L 1602.26760482405 420.547955530617  C 1603.26865155051 420.557033374479  1604.26972521849 420.562846780899  1605.27080985979 420.565395657148  L 1605.27335596616 419.565398898482  Z M 1609.26898889393 419.55819921194  C 1608.27009389765 419.56434237673  1607.27118152414 419.567228128674  1606.27226770709 419.566856421739  L 1606.271895596 420.566856352506  C 1607.27298341285 420.56722886841  1608.27406978303 420.564336836021  1609.27513873815 420.558180301469  L 1609.26898889393 419.55819921194  Z M 1613.26440813957 419.516254243105  C 1612.26560433169 419.531083449155  1611.26675482106 419.542655516631  1610.26787554055 419.550970260946  L 1610.27619932544 420.550935617649  C 1611.27725253061 420.542602777426  1612.27827590105 420.531005524922  1613.27925346934 420.516144045125  L 1613.26440813957 419.516254243105  Z M 1617.25931157029 419.439567163848  C 1616.26067448009 419.463081289776  1615.26196336525 419.483338797707  1614.26319415629 419.500339364513  L 1614.28021320772 420.500194529968  C 1615.28115610176 420.483156963746  1616.28204077526 420.462855368109  1617.28285126301 420.43929006689  L 1617.25931157029 419.439567163848  Z M 1621.25339709228 419.328143773231  C 1620.25500223652 419.360341040904  1619.25650503976 419.389282457421  1618.25792142909 419.414967561137  L 1618.28363446009 420.414636926496  C 1619.28439135191 420.388895922652  1620.28506164176 420.359891519085  1621.28562936787 420.327624178447  L 1621.25339709228 419.328143773231  Z M 1625.24636267357 419.181992497069  C 1624.24828555068 419.222870471735  1623.25007777816 419.260493608294  1622.25175527848 419.294861306619  L 1622.28616034462 420.294269277081  C 1623.28665555718 420.259826782145  1624.2870357929 420.222121763955  1625.28728509465 420.181154823948  L 1625.24636267357 419.181992497069  Z M 1629.2379063669 419.001124387292  C 1628.24022245127 419.050679977767  1627.24237958727 419.096981989314  1626.24439369153 419.140029683368  L 1626.28748819112 420.139100683901  C 1627.28764606716 420.095959302407  1628.2876606002 420.04955652084  1629.28751583891 419.999893079376  L 1629.2379063669 419.001124387292  Z M 1633.22772633253 418.78555312111  C 1632.23051106882 418.84378258001  1631.23310857001 418.898759965197  1630.23553474571 418.950484399723  L 1630.28731541994 419.949142880774  C 1631.28706032773 419.897305875065  1632.28663353718 419.842208839091  1633.28601910401 419.783852651708  L 1633.22772633253 418.78555312111  Z M 1637.21552086105 418.535294999981  C 1636.21884965849 418.602193924006  1635.22196294825 418.665842525453  1634.22487663172 418.726239789059  L 1634.28533956495 419.724410232272  C 1635.28459590397 419.663881522253  1636.28365220231 419.600094398297  1637.28249252393 419.533049877881  L 1637.21552086105 418.535294999981  Z M 1638.99065980731 418.412690383384  C 1638.73116127361 418.431118254818  1638.47164713645 418.449325736487  1638.21211767633 418.46731280871  L 1638.28125829636 419.464919732633  C 1639.27995050305 419.395703895472  1640.27841434183 419.323231507106  1641.27663388612 419.247503723548  L 1638.99065980731 418.412690383384  Z M 1342.66278410644 327.466208015182  C 1341.87690807966 326.849581854056  1341.09304496004 326.230394590596  1340.31120725104 325.608656101491  L 1339.68879274896 326.391343898509  C 1340.47233202119 327.014435516709  1341.25790111208 327.63497035688  1342.04548749094 328.252938520818  L 1342.66278410644 327.466208015182  Z M 1639.73564508447 426.478975065894  L 1650 418  L 1638.35741683129 411.542426372098  L 1639.73564508447 426.478975065894  Z " fill-rule="nonzero" fill="#1f8aee" stroke="none" />
  </g>
</svg>