<?xml version="1.0" encoding="utf-8"?>
<svg version="1.1" xmlns:xlink="http://www.w3.org/1999/xlink" width="12px" height="12px" viewBox="1727 320  12 12" xmlns="http://www.w3.org/2000/svg">
  <path d="M 1733 320  C 1736.36 320  1739 322.64  1739 326  C 1739 329.36  1736.36 332  1733 332  C 1729.64 332  1727 329.36  1727 326  C 1727 322.64  1729.64 320  1733 320  Z " fill-rule="nonzero" fill="#ffffff" stroke="none" />
  <path d="M 1733 320.5  C 1736.08 320.5  1738.5 322.92  1738.5 326  C 1738.5 329.08  1736.08 331.5  1733 331.5  C 1729.92 331.5  1727.5 329.08  1727.5 326  C 1727.5 322.92  1729.92 320.5  1733 320.5  Z " stroke-width="1" stroke="#797979" fill="none" />
  <path d="M 1733 329  C 1731.32 329  1730 327.68  1730 326  C 1730 324.32  1731.32 323  1733 323  C 1734.68 323  1736 324.32  1736 326  C 1736 327.68  1734.68 329  1733 329  " fill-rule="nonzero" fill="#797979" stroke="none" />
</svg>