<?xml version="1.0" encoding="utf-8"?>
<svg version="1.1" xmlns:xlink="http://www.w3.org/1999/xlink" width="12px" height="12px" viewBox="1794 320  12 12" xmlns="http://www.w3.org/2000/svg">
  <path d="M 1800 320  C 1803.36 320  1806 322.64  1806 326  C 1806 329.36  1803.36 332  1800 332  C 1796.64 332  1794 329.36  1794 326  C 1794 322.64  1796.64 320  1800 320  Z " fill-rule="nonzero" fill="#ffffff" stroke="none" />
  <path d="M 1800 320.5  C 1803.08 320.5  1805.5 322.92  1805.5 326  C 1805.5 329.08  1803.08 331.5  1800 331.5  C 1796.92 331.5  1794.5 329.08  1794.5 326  C 1794.5 322.92  1796.92 320.5  1800 320.5  Z " stroke-width="1" stroke="#797979" fill="none" />
  <path d="M 1800 329  C 1798.32 329  1797 327.68  1797 326  C 1797 324.32  1798.32 323  1800 323  C 1801.68 323  1803 324.32  1803 326  C 1803 327.68  1801.68 329  1800 329  " fill-rule="nonzero" fill="#797979" stroke="none" />
</svg>