<?xml version="1.0" encoding="utf-8"?>
<svg version="1.1" xmlns:xlink="http://www.w3.org/1999/xlink" width="12px" height="12px" viewBox="1779 430  12 12" xmlns="http://www.w3.org/2000/svg">
  <path d="M 1785 430  C 1788.36 430  1791 432.64  1791 436  C 1791 439.36  1788.36 442  1785 442  C 1781.64 442  1779 439.36  1779 436  C 1779 432.64  1781.64 430  1785 430  Z " fill-rule="nonzero" fill="#ffffff" stroke="none" />
  <path d="M 1785 430.5  C 1788.08 430.5  1790.5 432.92  1790.5 436  C 1790.5 439.08  1788.08 441.5  1785 441.5  C 1781.92 441.5  1779.5 439.08  1779.5 436  C 1779.5 432.92  1781.92 430.5  1785 430.5  Z " stroke-width="1" stroke="#797979" fill="none" />
  <path d="M 1785 439  C 1783.32 439  1782 437.68  1782 436  C 1782 434.32  1783.32 433  1785 433  C 1786.68 433  1788 434.32  1788 436  C 1788 437.68  1786.68 439  1785 439  " fill-rule="nonzero" fill="#797979" stroke="none" />
</svg>