<?xml version="1.0" encoding="utf-8"?>
<svg version="1.1" xmlns:xlink="http://www.w3.org/1999/xlink" width="416px" height="8px" viewBox="890 464  416 8" xmlns="http://www.w3.org/2000/svg">
  <g transform="matrix(0.933580426497203 -0.358367949545301 0.358367949545298 0.933580426497203 -94.7875086811282 424.572369000049 )">
    <path d="M 914.708160524725 396.061694054538  L 911.910620830564 394.978286624439  L 911.549485020531 395.910799855826  L 914.347024714692 396.994207285925  L 914.708160524725 396.061694054538  Z M 918.438213450273 397.50623729467  L 915.640673756112 396.422829864571  L 915.279537946079 397.355343095958  L 918.07707764024 398.438750526057  L 918.438213450273 397.50623729467  Z M 922.168266375821 398.950780534802  L 919.37072668166 397.867373104703  L 919.009590871627 398.79988633609  L 921.807130565788 399.883293766189  L 922.168266375821 398.950780534802  Z M 925.898319301369 400.395323774934  L 923.100779607208 399.311916344835  L 922.739643797175 400.244429576222  L 925.537183491336 401.327837006321  L 925.898319301369 400.395323774934  Z M 929.628372226917 401.839867015066  L 926.830832532756 400.756459584967  L 926.469696722723 401.688972816354  L 929.267236416884 402.772380246453  L 929.628372226917 401.839867015066  Z M 933.358425152465 403.284410255199  L 930.560885458304 402.201002825099  L 930.199749648271 403.133516056486  L 932.997289342432 404.216923486586  L 933.358425152465 403.284410255199  Z M 937.088478078013 404.728953495331  L 934.290938383852 403.645546065232  L 933.929802573819 404.578059296619  L 936.72734226798 405.661466726718  L 937.088478078013 404.728953495331  Z M 940.818531003561 406.173496735463  L 938.0209913094 405.090089305364  L 937.659855499367 406.022602536751  L 940.457395193528 407.10600996685  L 940.818531003561 406.173496735463  Z M 944.548583929109 407.618039975595  L 941.751044234948 406.534632545496  L 941.389908424915 407.467145776883  L 944.187448119076 408.550553206982  L 944.548583929109 407.618039975595  Z M 948.278636854656 409.062583215727  L 945.481097160496 407.979175785628  L 945.119961350462 408.911689017015  L 947.917501044623 409.995096447114  L 948.278636854656 409.062583215727  Z M 952.008689780204 410.507126455859  L 949.211150086043 409.42371902576  L 948.85001427601 410.356232257147  L 951.647553970171 411.439639687246  L 952.008689780204 410.507126455859  Z M 955.738742705752 411.951669695992  L 952.941203011591 410.868262265892  L 952.580067201558 411.800775497279  L 955.377606895719 412.884182927379  L 955.738742705752 411.951669695992  Z M 959.468913071398 413.39562792164  L 956.773021145859 412.352216283469  L 956.671255937139 412.312805506025  L 956.310120127106 413.245318737412  L 956.41202758791 413.284784593945  L 959.107966933525 414.328214585471  L 959.468913071398 413.39562792164  Z M 963.199259726721 414.839412473129  L 960.401499735228 413.756574059512  L 960.040553597356 414.689160723343  L 962.838313588849 415.771999136959  L 963.199259726721 414.839412473129  Z M 966.929606382044 416.283197024617  L 964.131846390552 415.200358611001  L 963.77090025268 416.132945274832  L 966.568660244172 417.215783688448  L 966.929606382044 416.283197024617  Z M 970.659953037368 417.726981576106  L 967.862193045875 416.64414316249  L 967.501246908003 417.576729826321  L 970.299006899496 418.659568239937  L 970.659953037368 417.726981576106  Z M 974.390299692691 419.170766127595  L 971.592539701199 418.087927713978  L 971.231593563326 419.020514377809  L 974.029353554819 420.103352791426  L 974.390299692691 419.170766127595  Z M 978.120646348014 420.614550679084  L 975.322886356522 419.531712265467  L 974.96194021865 420.464298929298  L 977.759700210142 421.547137342915  L 978.120646348014 420.614550679084  Z M 981.850993003338 422.058335230573  L 979.053233011845 420.975496816956  L 978.692286873973 421.908083480787  L 981.490046865466 422.990921894404  L 981.850993003338 422.058335230573  Z M 985.581339658661 423.502119782061  L 982.783579667169 422.419281368445  L 982.422633529296 423.351868032276  L 985.220393520789 424.434706445892  L 985.581339658661 423.502119782061  Z M 989.311686313985 424.94590433355  L 986.513926322492 423.863065919934  L 986.15298018462 424.795652583764  L 988.950740176112 425.878490997381  L 989.311686313985 424.94590433355  Z M 993.042032969308 426.389688885039  L 990.244272977815 425.306850471422  L 989.883326839943 426.239437135253  L 992.681086831436 427.32227554887  L 993.042032969308 426.389688885039  Z M 996.772379624631 427.833473436528  L 993.974619633139 426.750635022911  L 993.613673495267 427.683221686742  L 996.411433486759 428.766060100359  L 996.772379624631 427.833473436528  Z M 1000.50272627995 429.277257988017  L 997.704966288462 428.1944195744  L 997.34402015059 429.127006238231  L 1000.14178014208 430.209844651848  L 1000.50272627995 429.277257988017  Z M 1004.23307293528 430.721042539505  L 1001.43531294379 429.638204125889  L 1001.07436680591 430.57079078972  L 1003.87212679741 431.653629203336  L 1004.23307293528 430.721042539505  Z M 1007.9635541226 432.164194051615  L 1005.16557120243 431.081931801324  L 1004.804817119 432.014592774716  L 1007.60280003917 433.096855025007  L 1007.9635541226 432.164194051615  Z M 1011.69419801617 433.607210385338  L 1008.896215096 432.524948135046  L 1008.53546101257 433.457609108438  L 1011.33344393274 434.539871358729  L 1011.69419801617 433.607210385338  Z M 1015.42484190974 435.05022671906  L 1012.62685898956 433.967964468768  L 1012.26610490613 434.90062544216  L 1015.06408782631 435.982887692452  L 1015.42484190974 435.05022671906  Z M 1019.15548580331 436.493243052782  L 1016.35750288313 435.41098080249  L 1015.9967487997 436.343641775882  L 1018.79473171988 437.425904026174  L 1019.15548580331 436.493243052782  Z M 1022.88612969687 437.936259386504  L 1020.0881467767 436.853997136213  L 1019.72739269327 437.786658109604  L 1022.52537561344 438.868920359896  L 1022.88612969687 437.936259386504  Z M 1026.61677359044 439.379275720226  L 1023.81879067026 438.297013469935  L 1023.45803658683 439.229674443327  L 1026.25601950701 440.311936693618  L 1026.61677359044 439.379275720226  Z M 1030.34741748401 440.822292053949  L 1027.54943456383 439.740029803657  L 1027.1886804804 440.672690777049  L 1029.98666340058 441.75495302734  L 1030.34741748401 440.822292053949  Z M 1034.07806137758 442.265308387671  L 1031.2800784574 441.183046137379  L 1030.91932437397 442.115707110771  L 1033.71730729414 443.197969361063  L 1034.07806137758 442.265308387671  Z M 1037.80870527114 443.708324721393  L 1035.01072235097 442.626062471101  L 1034.64996826754 443.558723444493  L 1037.44795118771 444.640985694785  L 1037.80870527114 443.708324721393  Z M 1041.53934916471 445.151341055115  L 1038.74136624453 444.069078804823  L 1038.3806121611 445.001739778215  L 1041.17859508128 446.084002028507  L 1041.53934916471 445.151341055115  Z M 1045.26999305828 446.594357388837  L 1042.4720101381 445.512095138546  L 1042.11125605467 446.444756111938  L 1044.90923897485 447.527018362229  L 1045.26999305828 446.594357388837  Z M 1049.00063695184 448.037373722559  L 1046.20265403167 446.955111472268  L 1045.84189994824 447.88777244566  L 1048.63988286841 448.970034695951  L 1049.00063695184 448.037373722559  Z M 1052.73128084541 449.480390056282  L 1049.93329792524 448.39812780599  L 1049.57254384181 449.330788779382  L 1052.37052676198 450.413051029674  L 1052.73128084541 449.480390056282  Z M 1056.46210091539 450.922661701236  L 1053.66389238787 449.840982896528  L 1053.3033327863 450.773719072366  L 1056.10154131382 451.855397877073  L 1056.46210091539 450.922661701236  Z M 1060.19304561874 452.364900107512  L 1057.39483709122 451.283221302805  L 1057.03427748965 452.215957478642  L 1059.83248601717 453.29763628335  L 1060.19304561874 452.364900107512  Z M 1063.92399032209 453.807138513788  L 1061.12578179457 452.725459709081  L 1060.76522219301 453.658195884919  L 1063.56343072052 454.739874689626  L 1063.92399032209 453.807138513788  Z M 1067.65493502544 455.249376920064  L 1064.85672649793 454.167698115357  L 1064.49616689636 455.100434291195  L 1067.29437542387 456.182113095902  L 1067.65493502544 455.249376920064  Z M 1071.38587972879 456.691615326341  L 1068.58767120128 455.609936521634  L 1068.22711159971 456.542672697471  L 1071.02532012722 457.624351502178  L 1071.38587972879 456.691615326341  Z M 1075.11682443214 458.133853732617  L 1072.31861590463 457.05217492791  L 1071.95805630306 457.984911103748  L 1074.75626483057 459.066589908455  L 1075.11682443214 458.133853732617  Z M 1078.84776913549 459.576092138893  L 1076.04956060798 458.494413334186  L 1075.68900100641 459.427149510024  L 1078.48720953392 460.508828314731  L 1078.84776913549 459.576092138893  Z M 1082.57871383884 461.01833054517  L 1079.78050531133 459.936651740462  L 1079.41994570976 460.8693879163  L 1082.21815423727 461.951066721007  L 1082.57871383884 461.01833054517  Z M 1086.30965854219 462.460568951446  L 1083.51145001468 461.378890146739  L 1083.15089041311 462.311626322576  L 1085.94909894062 463.393305127284  L 1086.30965854219 462.460568951446  Z M 1090.04060324554 463.902807357722  L 1087.24239471803 462.821128553015  L 1086.88183511646 463.753864728853  L 1089.68004364397 464.83554353356  L 1090.04060324554 463.902807357722  Z M 1093.77154794889 465.345045763998  L 1090.97333942138 464.263366959291  L 1090.61277981981 465.196103135129  L 1093.41098834733 466.277781939836  L 1093.77154794889 465.345045763998  Z M 1097.50249265225 466.787284170275  L 1094.70428412473 465.705605365568  L 1094.34372452316 466.638341541405  L 1097.14193305068 467.720020346112  L 1097.50249265225 466.787284170275  Z M 1101.23337616942 468.229388020401  L 1100.77633516915 468.052824625573  L 1098.43522882808 467.147843771844  L 1098.07466922651 468.080579947682  L 1100.4159232822 468.985617890199  L 1100.87301352341 469.162200307716  L 1101.23337616942 468.229388020401  Z M 1104.96462531868 469.670838604408  L 1102.16618845673 468.589750666403  L 1101.80582581073 469.522562953718  L 1104.60426267268 470.603650891723  L 1104.96462531868 469.670838604408  Z M 1108.69587446794 471.112289188415  L 1105.89743760599 470.03120125041  L 1105.53707495999 470.964013537725  L 1108.33551182194 472.045101475731  L 1108.69587446794 471.112289188415  Z M 1112.4271236172 472.553739772422  L 1109.62868675525 471.472651834417  L 1109.26832410925 472.405464121732  L 1112.0667609712 473.486552059738  L 1112.4271236172 472.553739772422  Z M 1116.15837276646 473.99519035643  L 1113.35993590452 472.914102418424  L 1112.99957325851 473.84691470574  L 1115.79801012046 474.928002643745  L 1116.15837276646 473.99519035643  Z M 1119.88962191572 475.436640940437  L 1117.09118505378 474.355553002431  L 1116.73082240778 475.288365289747  L 1119.52925926972 476.369453227752  L 1119.88962191572 475.436640940437  Z M 1123.62087106499 476.878091524444  L 1120.82243420304 475.797003586439  L 1120.46207155704 476.729815873754  L 1123.26050841898 477.810903811759  L 1123.62087106499 476.878091524444  Z M 1127.35212021425 478.319542108451  L 1124.5536833523 477.238454170446  L 1124.1933207063 478.171266457761  L 1126.99175756825 479.252354395767  L 1127.35212021425 478.319542108451  Z M 1131.08336936351 479.760992692458  L 1128.28493250156 478.679904754453  L 1127.92456985556 479.612717041768  L 1130.72300671751 480.693804979774  L 1131.08336936351 479.760992692458  Z M 1134.81461851277 481.202443276466  L 1132.01618165082 480.12135533846  L 1131.65581900482 481.054167625776  L 1134.45425586677 482.135255563781  L 1134.81461851277 481.202443276466  Z M 1138.54586766203 482.643893860473  L 1135.74743080009 481.562805922467  L 1135.38706815408 482.495618209783  L 1138.18550501603 483.576706147788  L 1138.54586766203 482.643893860473  Z M 1142.27711681129 484.08534444448  L 1139.47867994935 483.004256506475  L 1139.11831730335 483.93706879379  L 1141.91675416529 485.018156731796  L 1142.27711681129 484.08534444448  Z M 1146.00836596055 485.526795028487  L 1143.20992909861 484.445707090482  L 1142.84956645261 485.378519377797  L 1145.64800331455 486.459607315803  L 1146.00836596055 485.526795028487  Z M 1149.73964366222 486.967874902813  L 1148.18609120001 486.368090594229  L 1146.94117824787 485.887157674489  L 1146.58081560187 486.819969961804  L 1147.82587815951 487.300960664662  L 1149.37948049296 487.900764227176  L 1149.73964366222 486.967874902813  Z M 1153.47120095967 488.40852757985  L 1150.67253298658 487.328038072073  L 1150.31236981732 488.260927396435  L 1153.11103779041 489.341416904213  L 1153.47120095967 488.40852757985  Z M 1157.20275825712 489.849180256887  L 1154.40409028403 488.768690749109  L 1154.04392711477 489.701580073472  L 1156.84259508786 490.782069581249  L 1157.20275825712 489.849180256887  Z M 1160.93431555457 491.289832933924  L 1158.13564758148 490.209343426146  L 1157.77548441222 491.142232750508  L 1160.57415238531 492.222722258286  L 1160.93431555457 491.289832933924  Z M 1164.66587285202 492.73048561096  L 1161.86720487893 491.649996103183  L 1161.50704170967 492.582885427545  L 1164.30570968276 493.663374935323  L 1164.66587285202 492.73048561096  Z M 1168.39743014947 494.171138287997  L 1165.59876217638 493.09064878022  L 1165.23859900712 494.023538104582  L 1168.03726698021 495.10402761236  L 1168.39743014947 494.171138287997  Z M 1172.12898744692 495.611790965034  L 1169.33031947383 494.531301457256  L 1168.97015630457 495.464190781619  L 1171.76882427766 496.544680289396  L 1172.12898744692 495.611790965034  Z M 1175.86054474436 497.052443642071  L 1173.06187677128 495.971954134293  L 1172.70171360202 496.904843458656  L 1175.50038157511 497.985332966433  L 1175.86054474436 497.052443642071  Z M 1179.59210204181 498.493096319108  L 1176.79343406873 497.41260681133  L 1176.43327089947 498.345496135692  L 1179.23193887255 499.42598564347  L 1179.59210204181 498.493096319108  Z M 1183.32365933926 499.933748996144  L 1180.52499136618 498.853259488367  L 1180.16482819692 499.786148812729  L 1182.96349617 500.866638320507  L 1183.32365933926 499.933748996144  Z M 1187.05521663671 501.374401673181  L 1184.25654866363 500.293912165404  L 1183.89638549437 501.226801489766  L 1186.69505346745 502.307290997543  L 1187.05521663671 501.374401673181  Z M 1190.78677393416 502.815054350218  L 1187.98810596107 501.73456484244  L 1187.62794279182 502.667454166803  L 1190.4266107649 503.74794367458  L 1190.78677393416 502.815054350218  Z M 1194.51833123161 504.255707027255  L 1191.71966325852 503.175217519477  L 1191.35950008926 504.108106843839  L 1194.15816806235 505.188596351617  L 1194.51833123161 504.255707027255  Z M 1198.25003406195 505.695681882425  L 1195.45113215019 504.615798514475  L 1195.09117102754 505.548765818393  L 1197.8900729393 506.628649186343  L 1198.25003406195 505.695681882425  Z M 1201.98190327762 507.135526373025  L 1199.18300136587 506.055643005075  L 1198.82304024322 506.988610308993  L 1201.62194215497 508.068493676943  L 1201.98190327762 507.135526373025  Z M 1205.71377249329 508.575370863625  L 1202.91487058154 507.495487495675  L 1202.55490945889 508.428454799593  L 1205.35381137064 509.508338167544  L 1205.71377249329 508.575370863625  Z M 1209.44564170897 510.015215354225  L 1206.64673979721 508.935331986275  L 1206.28677867456 509.868299290194  L 1209.08568058632 510.948182658144  L 1209.44564170897 510.015215354225  Z M 1213.17751092464 511.455059844826  L 1210.37860901288 510.375176476875  L 1210.01864789023 511.308143780794  L 1212.81754980199 512.388027148744  L 1213.17751092464 511.455059844826  Z M 1216.90938014031 512.894904335426  L 1214.11047822856 511.815020967476  L 1213.75051710591 512.747988271394  L 1216.54941901766 513.827871639344  L 1216.90938014031 512.894904335426  Z M 1220.64124935599 514.334748826026  L 1217.84234744423 513.254865458076  L 1217.48238632158 514.187832761994  L 1220.28128823334 515.267716129944  L 1220.64124935599 514.334748826026  Z M 1224.37311857166 515.774593316626  L 1221.5742166599 514.694709948676  L 1221.21425553725 515.627677252594  L 1224.01315744901 516.707560620545  L 1224.37311857166 515.774593316626  Z M 1228.10498778733 517.214437807227  L 1225.30608587558 516.134554439276  L 1224.94612475293 517.067521743195  L 1227.74502666468 518.147405111145  L 1228.10498778733 517.214437807227  Z M 1231.836857003 518.654282297827  L 1229.03795509125 517.574398929877  L 1228.6779939686 518.507366233795  L 1231.47689588035 519.587249601745  L 1231.836857003 518.654282297827  Z M 1235.56872621868 520.094126788427  L 1232.76982430692 519.014243420477  L 1232.40986318427 519.947210724395  L 1235.20876509603 521.027094092345  L 1235.56872621868 520.094126788427  Z M 1239.30059543435 521.533971279027  L 1236.5016935226 520.454087911077  L 1236.14173239995 521.387055214995  L 1238.9406343117 522.466938582946  L 1239.30059543435 521.533971279027  Z M 1243.03243963295 522.973575842162  L 1242.11858015119 522.621217262947  L 1240.23356273827 521.893932401677  L 1239.87360161562 522.826899705596  L 1241.75877252607 523.554243776994  L 1242.67268317673 523.9066220855  L 1243.03243963295 522.973575842162  Z M 1246.7646246063 524.41260166705  L 1243.96548587629 523.333332298384  L 1243.60572942007 524.266378541722  L 1246.40486815008 525.345647910388  L 1246.7646246063 524.41260166705  Z M 1250.49680957965 525.851627491938  L 1247.69767084964 524.772358123272  L 1247.33791439342 525.70540436661  L 1250.13705312343 526.784673735276  L 1250.49680957965 525.851627491938  Z M 1254.22899455301 527.290653316826  L 1251.42985582299 526.21138394816  L 1251.07009936677 527.144430191498  L 1253.86923809678 528.223699560164  L 1254.22899455301 527.290653316826  Z M 1257.96117952636 528.729679141715  L 1255.16204079634 527.650409773049  L 1254.80228434012 528.583456016386  L 1257.60142307013 529.662725385052  L 1257.96117952636 528.729679141715  Z M 1261.69336449971 530.168704966603  L 1258.89422576969 529.089435597937  L 1258.53446931347 530.022481841274  L 1261.33360804349 531.10175120994  L 1261.69336449971 530.168704966603  Z M 1265.42554947306 531.607730791491  L 1262.62641074304 530.528461422825  L 1262.26665428682 531.461507666162  L 1265.06579301684 532.540777034828  L 1265.42554947306 531.607730791491  Z M 1269.15773444641 533.046756616379  L 1266.3585957164 531.967487247713  L 1265.99883926017 532.900533491051  L 1268.79797799019 533.979802859717  L 1269.15773444641 533.046756616379  Z M 1272.88991941976 534.485782441267  L 1270.09078068975 533.406513072601  L 1269.73102423352 534.339559315939  L 1272.53016296354 535.418828684605  L 1272.88991941976 534.485782441267  Z M 1276.62210439311 535.924808266155  L 1273.8229656631 534.845538897489  L 1273.46320920688 535.778585140827  L 1276.26234793689 536.857854509493  L 1276.62210439311 535.924808266155  Z M 1280.35428936646 537.363834091043  L 1277.55515063645 536.284564722377  L 1277.19539418023 537.217610965715  L 1279.99453291024 538.296880334381  L 1280.35428936646 537.363834091043  Z M 1284.08647433981 538.802859915931  L 1281.2873356098 537.723590547265  L 1280.92757915358 538.656636790603  L 1283.72671788359 539.735906159269  L 1284.08647433981 538.802859915931  Z M 1287.81865931316 540.241885740819  L 1285.01952058315 539.162616372153  L 1284.65976412693 540.095662615491  L 1287.45890285694 541.174931984157  L 1287.81865931316 540.241885740819  Z M 1291.55098981539 541.680225086756  L 1288.75161133419 540.601577730594  L 1288.39206221547 541.534703890997  L 1291.19144069667 542.613351247158  L 1291.55098981539 541.680225086756  Z M 1295.283494457 543.118421561638  L 1292.4841159758 542.039774205476  L 1292.12456685708 542.972900365879  L 1294.92394533828 544.05154772204  L 1295.283494457 543.118421561638  Z M 1299.01599909861 544.55661803652  L 1296.21662061741 543.477970680358  L 1295.85707149868 544.411096840761  L 1298.65644997989 545.489744196922  L 1299.01599909861 544.55661803652  Z M 1302.74850374022 545.994814511402  L 1299.94912525901 544.91616715524  L 1299.58957614029 545.849293315643  L 1302.3889546215 546.927940671804  L 1302.74850374022 545.994814511402  Z M 1306.48100838183 547.433010986284  L 1303.68162990062 546.354363630122  L 1303.3220807819 547.287489790525  L 1306.12145926311 548.366137146686  L 1306.48100838183 547.433010986284  Z M 1310.21351302344 548.871207461166  L 1307.41413454223 547.792560105004  L 1307.05458542351 548.725686265407  L 1309.85396390472 549.804333621568  L 1310.21351302344 548.871207461166  Z M 1313.94601766505 550.309403936048  L 1311.14663918384 549.230756579886  L 1310.78709006512 550.163882740289  L 1313.58646854633 551.24253009645  L 1313.94601766505 550.309403936048  Z M 1317.67852230666 551.74760041093  L 1314.87914382545 550.668953054769  L 1314.51959470673 551.602079215171  L 1317.31897318794 552.680726571333  L 1317.67852230666 551.74760041093  Z M 1321.41102694827 553.185796885812  L 1318.61164846706 552.107149529651  L 1318.25209934834 553.040275690053  L 1321.05147782955 554.118923046215  L 1321.41102694827 553.185796885812  Z M 1325.14353158988 554.623993360694  L 1322.34415310867 553.545346004533  L 1321.98460398995 554.478472164935  L 1324.78398247116 555.557119521097  L 1325.14353158988 554.623993360694  Z M 1328.87603623149 556.062189835576  L 1326.07665775028 554.983542479415  L 1325.71710863156 555.916668639817  L 1328.51648711277 556.995315995979  L 1328.87603623149 556.062189835576  Z M 1332.6085408731 557.500386310458  L 1329.80916239189 556.421738954297  L 1329.44961327317 557.354865114699  L 1332.24899175438 558.433512470861  L 1332.6085408731 557.500386310458  Z M 1336.34106817305 558.938210830741  L 1334.86837145185 558.371136847948  L 1333.5416670335 557.859935429179  L 1333.18211791478 558.793061589581  L 1334.50897987637 559.304323698819  L 1335.9817291155 559.871417904076  L 1336.34106817305 558.938210830741  Z M 1340.07389646639 560.375567060925  L 1337.27427524638 559.297549888287  L 1336.91493618884 560.230756961622  L 1339.71455740884 561.308774134259  L 1340.07389646639 560.375567060925  Z M 1343.80672475973 561.812923291109  L 1341.00710353972 560.734906118471  L 1340.64776448218 561.668113191806  L 1343.44738570218 562.746130364444  L 1343.80672475973 561.812923291109  Z M 1347.53955305306 563.250279521293  L 1344.73993183306 562.172262348655  L 1344.38059277551 563.105469421989  L 1347.18021399552 564.183486594628  L 1347.53955305306 563.250279521293  Z M 1351.2723813464 564.687635751477  L 1348.4727601264 563.609618578839  L 1348.11342106885 564.542825652174  L 1350.91304228886 565.620842824811  L 1351.2723813464 564.687635751477  Z M 1355.00520963974 566.124991981661  L 1352.20558841974 565.046974809023  L 1351.84624936219 565.980181882358  L 1354.6458705822 567.058199054995  L 1355.00520963974 566.124991981661  Z M 1358.73803793308 567.562348211845  L 1355.93841671308 566.484331039207  L 1355.57907765553 567.417538112541  L 1358.37869887554 568.49555528518  L 1358.73803793308 567.562348211845  Z M 1362.47086622642 568.999704442029  L 1359.67124500642 567.921687269391  L 1359.31190594887 568.854894342726  L 1362.11152716887 569.932911515363  L 1362.47086622642 568.999704442029  Z M 1366.20369451976 570.437060672213  L 1363.40407329975 569.359043499575  L 1363.04473424221 570.29225057291  L 1365.84435546221 571.370267745547  L 1366.20369451976 570.437060672213  Z M 1369.9365228131 571.874416902397  L 1367.13690159309 570.796399729759  L 1366.77756253555 571.729606803093  L 1369.57718375555 572.807623975732  L 1369.9365228131 571.874416902397  Z M 1373.66935110644 573.311773132581  L 1370.86972988643 572.233755959943  L 1370.51039082889 573.166963033278  L 1373.31001204889 574.244980205915  L 1373.66935110644 573.311773132581  Z M 1377.40217939978 574.749129362765  L 1374.60255817977 573.671112190127  L 1374.24321912223 574.604319263462  L 1377.04284034223 575.682336436099  L 1377.40217939978 574.749129362765  Z M 1381.13493069659 576.186368191669  L 1380.79975541705 576.057393961133  L 1378.33538647311 575.108468420311  L 1377.97604741556 576.041675493645  L 1380.44057598648 576.990662486214  L 1380.77580447788 577.119657192481  L 1381.13493069659 576.186368191669  Z M 1384.86808669984 577.622873066508  L 1382.0682196974 576.545494410379  L 1381.70909347869 577.47878341119  L 1384.50896048113 578.556162067319  L 1384.86808669984 577.622873066508  Z M 1388.60124270308 579.059377941346  L 1385.80137570065 577.981999285218  L 1385.44224948194 578.915288286029  L 1388.24211648437 579.992666942158  L 1388.60124270308 579.059377941346  Z M 1392.33439870633 580.495882816185  L 1389.53453170389 579.418504160056  L 1389.17540548518 580.351793160867  L 1391.97527248762 581.429171816996  L 1392.33439870633 580.495882816185  Z M 1396.06755470957 581.932387691024  L 1393.26768770714 580.855009034895  L 1392.90856148843 581.788298035706  L 1395.70842849086 582.865676691835  L 1396.06755470957 581.932387691024  Z M 1399.80071071282 583.368892565862  L 1397.00084371038 582.291513909733  L 1396.64171749167 583.224802910545  L 1399.44158449411 584.302181566673  L 1399.80071071282 583.368892565862  Z M 1403.53386671606 584.805397440701  L 1400.73399971363 583.728018784572  L 1400.37487349492 584.661307785383  L 1403.17474049735 585.738686441512  L 1403.53386671606 584.805397440701  Z M 1407.26702271931 586.241902315539  L 1404.46715571687 585.16452365941  L 1404.10802949816 586.097812660222  L 1406.9078965006 587.175191316351  L 1407.26702271931 586.241902315539  Z M 1411.00017872255 587.678407190378  L 1408.20031172012 586.601028534249  L 1407.84118550141 587.53431753506  L 1410.64105250384 588.611696191189  L 1411.00017872255 587.678407190378  Z M 1414.7333347258 589.114912065216  L 1411.93346772336 588.037533409087  L 1411.57434150465 588.970822409899  L 1414.37420850709 590.048201066028  L 1414.7333347258 589.114912065216  Z M 1418.46649072904 590.551416940055  L 1415.66662372661 589.474038283926  L 1415.3074975079 590.407327284737  L 1418.10736451033 591.484705940866  L 1418.46649072904 590.551416940055  Z M 1422.19964673229 591.987921814894  L 1419.39977972985 590.910543158765  L 1419.04065351114 591.843832159576  L 1421.84052051358 592.921210815705  L 1422.19964673229 591.987921814894  Z M 1425.93280273553 593.424426689732  L 1423.1329357331 592.347048033603  L 1422.77380951439 593.280337034415  L 1425.57367651682 594.357715690543  L 1425.93280273553 593.424426689732  Z M 1429.66613805566 594.860143580427  L 1426.86602216973 593.783411940066  L 1426.50711162294 594.716783902043  L 1429.30722750887 595.793515542405  L 1429.66613805566 594.860143580427  Z M 1433.39962590357 596.295785767576  L 1430.59951001764 595.219054127214  L 1430.24059947085 596.152426089192  L 1433.04071535678 597.229157729553  L 1433.39962590357 596.295785767576  Z M 1437.13311375148 597.731427954725  L 1434.33299786555 596.654696314363  L 1433.97408731876 597.58806827634  L 1436.77420320469 598.664799916702  L 1437.13311375148 597.731427954725  Z M 1440.86660159938 599.167070141873  L 1438.06648571345 598.090338501512  L 1437.70757516667 599.023710463489  L 1440.5076910526 600.10044210385  L 1440.86660159938 599.167070141873  Z M 1444.60008944729 600.602712329022  L 1441.79997356136 599.52598068866  L 1441.44106301457 600.459352650638  L 1444.24117890051 601.536084290999  L 1444.60008944729 600.602712329022  Z M 1448.3335772952 602.038354516171  L 1445.53346140927 600.961622875809  L 1445.17455086248 601.894994837786  L 1447.97466674841 602.971726478148  L 1448.3335772952 602.038354516171  Z M 1452.06706514311 603.473996703319  L 1449.26694925718 602.397265062958  L 1448.90803871039 603.330637024935  L 1451.70815459632 604.407368665296  L 1452.06706514311 603.473996703319  Z M 1455.80055299102 604.909638890468  L 1453.00043710509 603.832907250106  L 1452.6415265583 604.766279212084  L 1455.44164244423 605.843010852445  L 1455.80055299102 604.909638890468  Z M 1459.53404083893 606.345281077617  L 1456.733924953 605.268549437255  L 1456.37501440621 606.201921399232  L 1459.17513029214 607.278653039594  L 1459.53404083893 606.345281077617  Z M 1463.26752868683 607.780923264765  L 1460.4674128009 606.704191624404  L 1460.10850225412 607.637563586381  L 1462.90861814005 608.714295226742  L 1463.26752868683 607.780923264765  Z M 1467.00101653474 609.216565451914  L 1464.20090064881 608.139833811552  L 1463.84199010202 609.07320577353  L 1466.64210598796 610.149937413891  L 1467.00101653474 609.216565451914  Z M 1470.73450438265 610.652207639063  L 1467.93438849672 609.575475998701  L 1467.57547794993 610.508847960678  L 1470.37559383586 611.58557960104  L 1470.73450438265 610.652207639063  Z M 1474.46812529583 612.087177360336  L 1471.77549983859 611.052502781001  L 1471.66787634463 611.01111818585  L 1471.30896579784 611.944490147827  L 1471.41675321041 611.985937760094  L 1474.10943331096 613.020633336796  L 1474.46812529583 612.087177360336  Z M 1478.20194920167 613.521945299819  L 1475.40158127229 612.445869345206  L 1475.04288928742 613.379325321667  L 1477.8432572168 614.455401276279  L 1478.20194920167 613.521945299819  Z M 1481.93577310751 614.956713239302  L 1479.13540517813 613.88063728469  L 1478.77671319326 614.81409326115  L 1481.57708112264 615.890169215763  L 1481.93577310751 614.956713239302  Z M 1485.66959701335 616.391481178786  L 1482.86922908397 615.315405224173  L 1482.5105370991 616.248861200633  L 1485.31090502848 617.324937155246  L 1485.66959701335 616.391481178786  Z M 1489.4034209192 617.826249118269  L 1486.60305298981 616.750173163657  L 1486.24436100494 617.683629140117  L 1489.04472893432 618.759705094729  L 1489.4034209192 617.826249118269  Z M 1493.13724482504 619.261017057752  L 1490.33687689566 618.18494110314  L 1489.97818491078 619.1183970796  L 1492.77855284017 620.194473034213  L 1493.13724482504 619.261017057752  Z M 1496.87106873088 620.695784997236  L 1494.0707008015 619.619709042623  L 1493.71200881663 620.553165019084  L 1496.51237674601 621.629240973696  L 1496.87106873088 620.695784997236  Z M 1500.60489263672 622.130552936719  L 1497.80452470734 621.054476982107  L 1497.44583272247 621.987932958567  L 1500.24620065185 623.064008913179  L 1500.60489263672 622.130552936719  Z M 1504.33871654256 623.565320876203  L 1501.53834861318 622.48924492159  L 1501.17965662831 623.42270089805  L 1503.98002455769 624.498776852663  L 1504.33871654256 623.565320876203  Z M 1508.0725404484 625.000088815686  L 1505.27217251902 623.924012861073  L 1504.91348053415 624.857468837534  L 1507.71384846353 625.933544792146  L 1508.0725404484 625.000088815686  Z M 1511.80636435424 626.434856755169  L 1509.00599642486 625.358780800557  L 1508.64730443999 626.292236777017  L 1511.44767236937 627.368312731629  L 1511.80636435424 626.434856755169  Z M 1515.54018826008 627.869624694653  L 1512.7398203307 626.79354874004  L 1512.38112834583 627.7270047165  L 1515.18149627521 628.803080671113  L 1515.54018826008 627.869624694653  Z M 1519.27412510558 629.303767742921  L 1516.81986023726 628.361354467806  L 1516.47364423654 628.228316679523  L 1516.11495225167 629.161772655984  L 1516.46133438283 629.294874266858  L 1518.91565463106 630.237308807308  L 1519.27412510558 629.303767742921  Z M 1523.00828936313 630.737649640999  L 1520.20766616997 629.66223821744  L 1519.84919569545 630.595779281828  L 1522.64981888861 631.671190705387  L 1523.00828936313 630.737649640999  Z M 1526.74245362068 632.171531539077  L 1523.94183042752 631.096120115519  L 1523.583359953 632.029661179906  L 1526.38398314616 633.105072603465  L 1526.74245362068 632.171531539077  Z M 1530.47661787823 633.605413437156  L 1527.67599468507 632.530002013597  L 1527.31752421055 633.463543077984  L 1530.11814740371 634.538954501543  L 1530.47661787823 633.605413437156  Z M 1534.21078213578 635.039295335234  L 1531.41015894262 633.963883911675  L 1531.0516884681 634.897424976063  L 1533.85231166126 635.972836399621  L 1534.21078213578 635.039295335234  Z M 1537.94494639333 636.473177233312  L 1535.14432320017 635.397765809753  L 1534.78585272565 636.331306874141  L 1537.58647591881 637.4067182977  L 1537.94494639333 636.473177233312  Z M 1541.67911065088 637.90705913139  L 1538.87848745772 636.831647707832  L 1538.5200169832 637.765188772219  L 1541.32064017636 638.840600195778  L 1541.67911065088 637.90705913139  Z M 1545.41327490843 639.340941029469  L 1542.61265171527 638.26552960591  L 1542.25418124075 639.199070670298  L 1545.05480443391 640.274482093856  L 1545.41327490843 639.340941029469  Z M 1549.14743916598 640.774822927547  L 1546.34681597282 639.699411503988  L 1545.9883454983 640.632952568376  L 1548.78896869146 641.708363991935  L 1549.14743916598 640.774822927547  Z M 1552.88160342353 642.208704825625  L 1550.08098023037 641.133293402067  L 1549.72250975585 642.066834466454  L 1552.52313294901 643.142245890013  L 1552.88160342353 642.208704825625  Z M 1556.61576768108 643.642586723704  L 1553.81514448792 642.567175300145  L 1553.4566740134 643.500716364532  L 1556.25729720656 644.576127788091  L 1556.61576768108 643.642586723704  Z M 1560.34993193863 645.076468621782  L 1557.54930874547 644.001057198223  L 1557.19083827095 644.934598262611  L 1559.99146146411 646.010009686169  L 1560.34993193863 645.076468621782  Z M 1564.08421615526 646.509702460152  L 1561.56854605478 645.544404325518  L 1561.28347300302 645.434939096301  L 1560.9250025285 646.368480160689  L 1561.21024396664 646.478010033111  L 1563.72597019956 647.443329706551  L 1564.08421615526 646.509702460152  Z M 1567.81872514086 647.942686282979  L 1565.01784340166 646.867948415859  L 1564.65959744596 647.801575662258  L 1567.46047918516 648.876313529379  L 1567.81872514086 647.942686282979  Z M 1571.55323412646 649.375670105807  L 1568.75235238726 648.300932238686  L 1568.39410643155 649.234559485086  L 1571.19498817075 650.309297352206  L 1571.55323412646 649.375670105807  Z M 1575.28774311206 650.808653928635  L 1572.48686137286 649.733916061514  L 1572.12861541715 650.667543307913  L 1574.92949715635 651.742281175034  L 1575.28774311206 650.808653928635  Z M 1579.02225209766 652.241637751462  L 1576.22137035846 651.166899884342  L 1575.86312440275 652.100527130741  L 1578.66400614195 653.175264997862  L 1579.02225209766 652.241637751462  Z M 1582.75676108326 653.67462157429  L 1579.95587934406 652.599883707169  L 1579.59763338835 653.533510953569  L 1582.39851512755 654.60824882069  L 1582.75676108326 653.67462157429  Z M 1586.49127006885 655.107605397118  L 1583.69038832965 654.032867529997  L 1583.33214237395 654.966494776397  L 1586.13302411315 656.041232643517  L 1586.49127006885 655.107605397118  Z M 1590.22577905445 656.540589219945  L 1587.42489731525 655.465851352825  L 1587.06665135955 656.399478599224  L 1589.86753309874 657.474216466345  L 1590.22577905445 656.540589219945  Z M 1593.96028804005 657.973573042773  L 1591.15940630085 656.898835175652  L 1590.80116034514 657.832462422052  L 1593.60204208434 658.907200289173  L 1593.96028804005 657.973573042773  Z M 1597.69479702565 659.406556865601  L 1594.89391528645 658.33181899848  L 1594.53566933074 659.26544624488  L 1597.33655106994 660.340184112  L 1597.69479702565 659.406556865601  Z M 1601.42930601125 660.839540688429  L 1598.62842427205 659.764802821308  L 1598.27017831634 660.698430067707  L 1601.07106005554 661.773167934828  L 1601.42930601125 660.839540688429  Z M 1605.16381499684 662.272524511256  L 1602.36293325765 661.197786644135  L 1602.00468730194 662.131413890535  L 1604.80556904114 663.206151757656  L 1605.16381499684 662.272524511256  Z M 1608.89847916464 663.704763447999  L 1606.09733553363 662.630708347698  L 1605.73931716687 663.564422891366  L 1608.54046079787 664.638477991667  L 1608.89847916464 663.704763447999  Z M 1612.63333733931 665.136836915067  L 1609.83219370831 664.062781814766  L 1609.47417534154 664.996496358434  L 1612.27531897254 666.070551458735  L 1612.63333733931 665.136836915067  Z M 1616.36819551398 666.568910382135  L 1613.56705188298 665.494855281834  L 1613.20903351621 666.428569825502  L 1616.01017714722 667.502624925803  L 1616.36819551398 666.568910382135  Z M 1620.10305368866 668.000983849203  L 1617.30191005765 666.926928748902  L 1616.94389169089 667.86064329257  L 1619.74503532189 668.934698392871  L 1620.10305368866 668.000983849203  Z M 1623.83791186333 669.433057316271  L 1621.03676823232 668.35900221597  L 1620.67874986556 669.292716759638  L 1623.47989349656 670.366771859939  L 1623.83791186333 669.433057316271  Z M 1627.572770038 670.865130783339  L 1624.771626407 669.791075683038  L 1624.41360804023 670.724790226706  L 1627.21475167124 671.798845327007  L 1627.572770038 670.865130783339  Z M 1631.30762821267 672.297204250407  L 1628.50648458167 671.223149150106  L 1628.1484662149 672.156863693774  L 1630.94960984591 673.230918794075  L 1631.30762821267 672.297204250407  Z M 1635.04248638735 673.729277717475  L 1632.24134275634 672.655222617174  L 1631.88332438958 673.588937160843  L 1634.68446802058 674.662992261144  L 1635.04248638735 673.729277717475  Z M 1638.77734456202 675.161351184543  L 1635.97620093102 674.087296084242  L 1635.61818256425 675.021010627911  L 1638.41932619525 676.095065728212  L 1638.77734456202 675.161351184543  Z M 1639.90814920303 675.594940693729  L 1639.71105910569 675.51936955131  L 1639.35304073892 676.453084094979  L 1642.15418436993 677.52713919528  L 1639.90814920303 675.594940693729  Z M 910.978107599177 394.617150814406  L 908.180567905017 393.533743384306  L 907.819432094983 394.466256615694  L 910.616971789144 395.549664045793  L 910.978107599177 394.617150814406  Z M 1637.04437970032 683.066252215735  L 1650 680  L 1642.41293071932 669.059872956398  L 1637.04437970032 683.066252215735  Z " fill-rule="nonzero" fill="#1f8aee" stroke="none" />
  </g>
</svg>