<?xml version="1.0" encoding="utf-8"?>
<svg version="1.1" xmlns:xlink="http://www.w3.org/1999/xlink" width="12px" height="12px" viewBox="358 993  12 12" xmlns="http://www.w3.org/2000/svg">
  <path d="M 364 993  C 367.36 993  370 995.64  370 999  C 370 1002.36  367.36 1005  364 1005  C 360.64 1005  358 1002.36  358 999  C 358 995.64  360.64 993  364 993  Z " fill-rule="nonzero" fill="#ffffff" stroke="none" />
  <path d="M 364 993.5  C 367.08 993.5  369.5 995.92  369.5 999  C 369.5 1002.08  367.08 1004.5  364 1004.5  C 360.92 1004.5  358.5 1002.08  358.5 999  C 358.5 995.92  360.92 993.5  364 993.5  Z " stroke-width="1" stroke="#797979" fill="none" />
  <path d="M 364 1002  C 362.32 1002  361 1000.68  361 999  C 361 997.32  362.32 996  364 996  C 365.68 996  367 997.32  367 999  C 367 1000.68  365.68 1002  364 1002  " fill-rule="nonzero" fill="#797979" stroke="none" />
</svg>