<?xml version="1.0" encoding="utf-8"?>
<svg version="1.1" xmlns:xlink="http://www.w3.org/1999/xlink" width="12px" height="12px" viewBox="410 1076  12 12" xmlns="http://www.w3.org/2000/svg">
  <path d="M 416 1076  C 419.36 1076  422 1078.64  422 1082  C 422 1085.36  419.36 1088  416 1088  C 412.64 1088  410 1085.36  410 1082  C 410 1078.64  412.64 1076  416 1076  Z " fill-rule="nonzero" fill="#ffffff" stroke="none" />
  <path d="M 416 1076.5  C 419.08 1076.5  421.5 1078.92  421.5 1082  C 421.5 1085.08  419.08 1087.5  416 1087.5  C 412.92 1087.5  410.5 1085.08  410.5 1082  C 410.5 1078.92  412.92 1076.5  416 1076.5  Z " stroke-width="1" stroke="#797979" fill="none" />
  <path d="M 416 1085  C 414.32 1085  413 1083.68  413 1082  C 413 1080.32  414.32 1079  416 1079  C 417.68 1079  419 1080.32  419 1082  C 419 1083.68  417.68 1085  416 1085  " fill-rule="nonzero" fill="#797979" stroke="none" />
</svg>