<?xml version="1.0" encoding="utf-8"?>
<svg version="1.1" xmlns:xlink="http://www.w3.org/1999/xlink" width="12px" height="12px" viewBox="410 1103  12 12" xmlns="http://www.w3.org/2000/svg">
  <path d="M 416 1103  C 419.36 1103  422 1105.64  422 1109  C 422 1112.36  419.36 1115  416 1115  C 412.64 1115  410 1112.36  410 1109  C 410 1105.64  412.64 1103  416 1103  Z " fill-rule="nonzero" fill="#ffffff" stroke="none" />
  <path d="M 416 1103.5  C 419.08 1103.5  421.5 1105.92  421.5 1109  C 421.5 1112.08  419.08 1114.5  416 1114.5  C 412.92 1114.5  410.5 1112.08  410.5 1109  C 410.5 1105.92  412.92 1103.5  416 1103.5  Z " stroke-width="1" stroke="#797979" fill="none" />
  <path d="M 416 1112  C 414.32 1112  413 1110.68  413 1109  C 413 1107.32  414.32 1106  416 1106  C 417.68 1106  419 1107.32  419 1109  C 419 1110.68  417.68 1112  416 1112  " fill-rule="nonzero" fill="#797979" stroke="none" />
</svg>