<?xml version="1.0" encoding="utf-8"?>
<svg version="1.1" xmlns:xlink="http://www.w3.org/1999/xlink" width="12px" height="12px" viewBox="581 1076  12 12" xmlns="http://www.w3.org/2000/svg">
  <path d="M 587 1076  C 590.36 1076  593 1078.64  593 1082  C 593 1085.36  590.36 1088  587 1088  C 583.64 1088  581 1085.36  581 1082  C 581 1078.64  583.64 1076  587 1076  Z " fill-rule="nonzero" fill="#ffffff" stroke="none" />
  <path d="M 587 1076.5  C 590.08 1076.5  592.5 1078.92  592.5 1082  C 592.5 1085.08  590.08 1087.5  587 1087.5  C 583.92 1087.5  581.5 1085.08  581.5 1082  C 581.5 1078.92  583.92 1076.5  587 1076.5  Z " stroke-width="1" stroke="#797979" fill="none" />
  <path d="M 587 1085  C 585.32 1085  584 1083.68  584 1082  C 584 1080.32  585.32 1079  587 1079  C 588.68 1079  590 1080.32  590 1082  C 590 1083.68  588.68 1085  587 1085  " fill-rule="nonzero" fill="#797979" stroke="none" />
</svg>