<?xml version="1.0" encoding="utf-8"?>
<svg version="1.1" xmlns:xlink="http://www.w3.org/1999/xlink" width="12px" height="12px" viewBox="581 1103  12 12" xmlns="http://www.w3.org/2000/svg">
  <path d="M 587 1103  C 590.36 1103  593 1105.64  593 1109  C 593 1112.36  590.36 1115  587 1115  C 583.64 1115  581 1112.36  581 1109  C 581 1105.64  583.64 1103  587 1103  Z " fill-rule="nonzero" fill="#ffffff" stroke="none" />
  <path d="M 587 1103.5  C 590.08 1103.5  592.5 1105.92  592.5 1109  C 592.5 1112.08  590.08 1114.5  587 1114.5  C 583.92 1114.5  581.5 1112.08  581.5 1109  C 581.5 1105.92  583.92 1103.5  587 1103.5  Z " stroke-width="1" stroke="#797979" fill="none" />
  <path d="M 587 1112  C 585.32 1112  584 1110.68  584 1109  C 584 1107.32  585.32 1106  587 1106  C 588.68 1106  590 1107.32  590 1109  C 590 1110.68  588.68 1112  587 1112  " fill-rule="nonzero" fill="#797979" stroke="none" />
</svg>