<?xml version="1.0" encoding="utf-8"?>
<svg version="1.1" xmlns:xlink="http://www.w3.org/1999/xlink" width="86px" height="10px" viewBox="498 896  86 10" xmlns="http://www.w3.org/2000/svg">
  <g transform="matrix(-0.0348994967024962 -0.99939082701909 0.999390827019095 -0.034899496702501 -340.570507428154 1473.11488394628 )">
    <path d="M 573.433596822802 794.033953682484  C 573.987303766052 793.204119958887  574.546977076029 792.378282832784  575.112573252052 791.556506492477  L 574.288823888258 790.989552362367  C 573.720506907672 791.815281863801  573.158141285115 792.645091685481  572.601770730544 793.478917330306  L 573.433596822802 794.033953682484  Z M 571.250772256627 797.374327411942  C 571.78844879528 796.534018345227  572.332167314858 795.697590617196  572.881885554765 794.865109239306  L 572.047405451394 794.314071167048  C 571.495042787845 795.150557202738  570.948708706339 795.991008572493  570.408445670736 796.835359952162  L 571.250772256627 797.374327411942  Z M 569.132467246429 800.755984346482  C 569.65391526299 799.905509565053  570.181478648384 799.058799433343  570.715116397678 798.215919762008  L 569.870213035338 797.681000788418  C 569.334008217728 798.527935138609  568.803906984782 799.378718375644  568.279950538704 800.233284372261  L 569.132467246429 800.755984346482  Z M 567.079462323354 804.177678448091  C 567.584489680048 803.317351326105  568.095703540147 802.460670777728  568.613064169505 801.607703388536  L 567.758048869459 801.089100615032  C 567.238199472993 801.946171210115  566.724526414848 802.80697282659  566.217069620345 803.671438558516  L 567.079462323354 804.177678448091  Z M 565.09251395745 807.638148926275  C 565.580934567004 806.768286468199  566.075610535024 805.90195116392  566.576503412737 805.039210349501  L 565.711691222189 804.537114865475  C 565.208388795599 805.404005900936  564.711333185204 806.274508717553  564.220563024711 807.148555655391  L 565.09251395745 807.638148926275  Z M 563.172354278923 811.136120702621  C 563.643988173165 810.257043426369  564.121943975998 809.381372584506  564.606184538242 808.509176238665  L 563.731894114254 808.023773051074  C 563.245324109225 808.900165103849  562.765069096483 809.780048366746  562.291166403925 810.663354450698  L 563.172354278923 811.136120702621  Z M 561.319690808375 814.670304880625  C 561.774364204518 813.782336699516  562.235423729952 812.897652978203  562.702833548764 812.016322478844  L 561.81938704084 811.547790444041  C 561.349728743652 812.433360590257  560.886451287987 813.322300089104  560.429590682124 814.214539847688  L 561.319690808375 814.670304880625  Z M 559.535206196102 818.23939922061  C 559.97275156079 817.342867323987  560.416744922374 816.449496702342  560.867151771413 815.559356793024  L 559.974874702796 815.107868550852  C 559.522301168296 816.002290484753  559.076171973381 816.899958672342  558.636521793497 817.80080334225  L 559.535206196102 818.23939922061  Z M 557.81955797056 821.842088619566  C 558.239814081596 820.937323352241  558.666577681245 820.035595010241  559.099815599248 819.136973680522  L 558.199036746974 818.702695590704  C 557.763714734778 819.605639744942  557.334898185696 820.51170585776  556.912620429545 821.420823505061  L 557.81955797056 821.842088619566  Z M 556.173378296083 825.47704559572  C 556.57619030184 824.564380336246  556.985566890105 823.654626533448  557.401476242042 822.747854898026  L 556.492527515797 822.330946978866  C 556.074617428865 823.242080645907  555.663271531508 824.156210826073  555.258521795635 825.073266468488  L 556.173378296083 825.47704559572  Z M 554.597273739952 829.142930777678  C 554.982493216421 828.222701815526  555.374331950451 827.305257768601  555.772759486338 826.390669945327  L 554.855975806159 825.991285814749  C 554.455631631681 826.910273269471  554.061907954536 827.83213068774  553.674835376943 828.75678641808  L 554.597273739952 829.142930777678  Z M 553.091825048891 832.838393397938  C 553.459310054379 831.91093980957  553.833466553485 830.986143568822  554.21426546486 830.064076555569  L 553.289984637726 829.682363374511  C 552.907353890386 830.608865997917  552.53139750869 831.53811097778  552.16214471388 832.470026088459  L 553.091825048891 832.838393397938  Z M 551.657586935082 836.56207179061  C 552.007202062508 835.62773531455  552.363538461373 834.695927639332  552.726568435384 833.766721189833  L 551.795131030747 833.402819608026  C 551.430354698374 834.336496011988  551.072304140643 835.272786154877  550.721007187074 836.21161726343  L 551.657586935082 836.56207179061  Z M 550.295087871769 840.312593893148  C 550.626704298565 839.371718804041  550.965089298029 838.433243037232  551.310216569145 837.497239535875  L 550.371965793436 837.151283640013  C 550.025178285043 838.091789793101  549.685165482051 839.034780104486  549.351953811994 839.980181280131  L 550.295087871769 840.312593893148  Z M 549.004829898531 844.088577751912  C 549.318325434103 843.141510733686  549.638634349554 842.196712675154  549.965731748844 841.254257010832  L 549.021013319017 840.92637427517  C 548.692342415281 841.8733636294  548.370492651437 842.822706645939  548.055489043284 843.774329537025  L 549.004829898531 844.088577751912  Z M 547.787288436296 847.888632031379  C 548.082547567045 846.935722049517  548.384662374371 845.984949828665  548.693609376361 845.036389267719  L 547.742771392503 844.7267005071  C 547.432338198687 845.679824125605  547.128770065859 846.635170043215  546.832090588889 847.592664005556  L 547.787288436296 847.888632031379  Z M 546.642912112166 851.711356526804  C 546.919826044058 850.752954699727  547.203635423112 849.796558647292  547.494318190204 848.842242705512  L 546.537711007273 848.550862030852  C 546.245629908589 849.509768716499  545.960455262435 850.470765519162  545.682209234034 851.433777745287  L 546.642912112166 851.711356526804  Z M 545.572122594105 855.555342680157  C 545.830589292757 854.591802149868  546.095988668389 853.630134668789  546.368300092801 852.670414982653  L 545.40627619153 852.397449758893  C 545.132654811007 853.36178618364  544.865978729727 854.328079773206  544.606268675119 855.296255422306  L 545.572122594105 855.555342680157  Z M 544.575314435574 859.419174099129  C 544.815238663846 858.450849901089  545.062130244437 857.484265336665  545.315969987668 856.51949553377  L 544.348883844685 856.265046340314  C 544.093823003501 857.234457175446  543.845743749146 858.205691502023  543.604665363609 859.178673830742  L 544.575314435574 859.419174099129  Z M 543.671502608101 863.301720752335  C 543.838938478346 862.53835828579  544.010677759971 861.775946090029  544.186712261038 861.014520532008  C 544.236723030661 860.805624494584  544.287057546288 860.596806096216  544.33771562653 860.388066089423  L 543.365923583747 860.152226683083  C 543.31471587155 860.363231485096  543.263837200636 860.574316004732  543.213287756566 860.785479472133  C 543.036099956767 861.551828486352  542.863242293706 862.319172233346  542.694723039938 863.087473989885  L 543.671502608101 863.301720752335  Z M 542.854033501765 867.207429906808  C 543.04902366481 866.229066873906  543.25105402661 865.252120147807  543.460108884336 864.276665661787  L 542.48231240511 864.067108878997  C 542.272251887453 865.047255795999  542.069249657113 866.028902131506  541.873321492453 867.011971586977  L 542.854033501765 867.207429906808  Z M 542.111683837749 871.128110551223  C 542.287858711813 870.146184993164  542.47109967314 869.165540346596  542.661392479303 868.186252832255  L 541.679753768935 867.995503147307  C 541.488545557827 868.979501531448  541.30442311451 869.964863576285  541.127400749917 870.951512694473  L 542.111683837749 871.128110551223  Z M 541.444727149386 875.062318033678  C 541.602021819372 874.077191760241  541.766405861488 873.093210531026  541.937866498963 872.110450826104  L 540.952747261545 871.938578524472  C 540.780461811412 872.926065802186  540.615286998653 873.914780480338  540.457235661499 874.904645710962  L 541.444727149386 875.062318033678  Z M 540.853409189989 879.008602718042  C 540.991765697583 878.020638718374  541.137232249952 877.033683473762  541.289797540695 876.047813695396  L 540.301560762785 875.89488210681  C 540.148261555591 876.885494418987  540.002095235298 877.877197419084  539.863073162708 878.869914026829  L 540.853409189989 879.008602718042  Z M 540.337947842289 882.965510518103  C 540.457315207313 881.975072826984  540.583810669926 880.985507230023  540.717424398253 879.996890641338  L 539.726434215131 879.86295611645  C 539.592177736981 880.856328452516  539.465073767016 881.850654362043  539.345132184404 882.84585656097  L 540.337947842289 882.965510518103  Z M 539.898533038159 886.931583433351  C 539.99886727736 885.939036997024  540.106345040475 884.947225672635  540.22095797378 883.956226548851  L 539.227579535272 883.841338438471  C 539.112415255608 884.837104770833  539.004420469923 885.833687210889  538.903603572126 886.831008299151  L 539.898533038159 886.931583433351  Z M 539.535326688627 890.905360086211  C 539.616590831882 889.911070627927  539.705011293201 888.917379028513  539.800581200096 887.924362522744  L 538.805180536025 887.828563159656  C 538.709150889391 888.826356578627  538.620305080791 889.824828338798  538.538650015778 890.823900833831  L 539.535326688627 890.905360086211  Z M 539.248462624217 894.885376260513  C 539.310626728152 893.889710145785  539.379957307419 892.89450441655  539.45644897329 891.899836425265  L 538.459392858611 891.82316110863  C 538.382533229019 892.822613957599  538.31286913449 893.822607131324  538.250405989675 894.823062905216  L 539.248462624217 894.885376260513  Z M 539.038046545634 898.870165441013  C 539.081087704664 897.873489542606  539.131302855663 896.877136386675  539.188688095652 895.881183414861  L 538.190343915301 895.823660397205  C 538.132682623194 896.824404408106  538.082225911841 897.825550528245  538.038977702999 898.827020943381  L 539.038046545634 898.870165441013  Z M 538.904155984823 902.858259353758  C 538.928058339586 901.860940916518  538.959139559556 900.863807459796  538.997397228943 899.866936485921  L 537.998132842471 899.828586962734  C 537.959691134284 900.830253391764  537.928460397876 901.83218356631  537.90444306066 902.834299611231  L 538.904155984823 902.858259353758  Z M 538.846840276394 906.848188507104  C 538.851595019596 905.850595012613  538.863530856051 904.853048668561  538.882646858045 903.85562700933  L 537.88283046407 903.836465111247  C 537.863622504408 904.838684874702  537.851629250524 905.841029922788  537.846851634594 906.843422348119  L 538.846840276394 906.848188507104  Z M 538.866120539446 910.838482733175  C 538.85172591911 909.840981764384  538.844511974056 908.843390098559  538.84447926499 907.845785273609  L 537.844479265527 907.845818061208  C 537.844512131941 908.848221871503  537.851760779731 909.850612459382  537.866224645494 910.852911913917  L 538.866120539446 910.838482733175  Z M 538.961989669789 914.827671729575  C 538.928450989895 913.830630835336  538.902089921452 912.833361430012  538.882908513378 911.835941026462  L 537.883093378097 911.855168487661  C 537.902367058476 912.857386989389  537.928854937033 913.859453766545  537.962554954993 914.861290933329  L 538.961989669789 914.827671729575  Z M 539.134412342554 918.814285601155  C 539.081741961089 917.818072160796  539.036243482512 916.821492479501  538.997920443196 915.824624016517  L 537.99865857365 915.863039066581  C 538.037165966228 916.864702972628  538.082883315572 917.866076707833  538.135807068294 918.867082440264  L 539.134412342554 918.814285601155  Z M 539.383325025218 922.796855401618  C 539.31154234962 921.801836489591  539.246923225715 920.806313741683  539.189472676038 919.810364535071  L 538.191132269917 919.867953019219  C 538.248859185887 920.868693246824  538.313789160561 921.869004964217  538.385917147249 922.868810422048  L 539.383325025218 922.796855401618  Z M 539.708636001005 926.773913674788  C 539.617767481012 925.780455925361  539.53405152197 924.786356930818  539.457494630714 923.791693957634  L 538.460443546178 923.868434656256  C 538.537368714923 924.867882462991  538.621487390201 925.866763578056  538.712793033878 926.865000363296  L 539.708636001005 926.773913674788  Z M 540.031179970058 930.019375051891  C 539.950661763366 929.269053544236  539.87422982333 928.518299158681  539.801887549265 927.767145285069  L 538.806493169396 927.863009921546  C 538.902588246324 928.860797041208  539.005864627026 929.857879496551  539.116314284333 930.854179789222  L 540.031179970058 930.019375051891  Z M 575.680136640309 790.736093984511  C 576.24966996394 789.91704137259  576.825091841678 789.102099144349  577.406357548781 788.29133064128  L 576.593642451219 787.70866935872  C 576.009580561159 788.523338069633  575.43139061224 789.342200583465  574.859117544369 790.165193253997  L 575.680136640309 790.736093984511  Z M 531.946099160748 931.239012365903  L 541 941  L 546.778972526287 929.006106697973  L 531.946099160748 931.239012365903  Z " fill-rule="nonzero" fill="#1f8aee" stroke="none" />
  </g>
</svg>