<?xml version="1.0" encoding="utf-8"?>
<svg version="1.1" xmlns:xlink="http://www.w3.org/1999/xlink" width="76px" height="10px" viewBox="2096 428  76 10" xmlns="http://www.w3.org/2000/svg">
  <g transform="matrix(0.961261695938327 0.275637355817002 -0.275637355816983 0.961261695938326 202.018515936364 -571.436431654777 )">
    <path d="M 2106.89012979494 439.72188456565  C 2105.90151590004 439.852637960488  2104.91182767916 439.975135965682  2103.92116858851 440.089365776004  L 2104.03571648849 441.082783502145  C 2105.03190438893 440.967916182008  2106.02711600121 440.844734522695  2107.02124729178 440.713251400894  L 2106.89012979494 439.72188456565  Z M 2110.83841449678 439.154902956033  C 2109.85295610574 439.307630304531  2108.86623989156 439.45212822319  2107.87836899977 439.588381607045  L 2108.01500180115 440.579003370175  C 2109.00838594195 440.441989564245  2110.00060896094 440.296685211251  2110.99156713697 440.143105500455  L 2110.83841449678 439.154902956033  Z M 2114.77309999245 438.500173788716  C 2113.79128545931 438.674799405266  2112.80803022919 438.841225629962  2111.82343708584 438.999435065584  L 2111.98208707883 439.986769952907  C 2112.97217517827 439.827677559783  2113.96091789766 439.660322520173  2114.94821187964 439.484722328387  L 2114.77309999245 438.500173788716  Z M 2118.69223640812 437.758021521468  C 2117.71455228115 437.95445886855  2116.73524529734 438.142730925058  2115.75441782767 438.322818010135  L 2115.93500639164 439.306376737697  C 2116.92130780139 439.125284597252  2117.90608023956 438.935961805533  2118.8892207638 438.738428153238  L 2118.69223640812 437.758021521468  Z M 2122.59388157545 436.928813935473  C 2121.62081235608 437.146965666542  2120.6459389242 437.356990254706  2119.66936318736 437.558865745233  L 2119.87180082979 438.538160900397  C 2120.85382677805 438.335158754701  2121.83414092088 438.123962031732  2122.812640782 437.904592808759  L 2122.59388157545 436.928813935473  Z M 2126.47610199407 436.012961953075  C 2125.50812989675 436.252719960795  2124.53817312536 436.484393000776  2123.56633307349 436.707956855276  L 2123.79051947433 437.682503138262  C 2124.76778330804 437.457691587115  2125.74315335078 437.224725593604  2126.71652764312 436.983629510625  L 2126.47610199407 436.012961953075  Z M 2130.33697378974 435.010919434136  C 2129.374578503 435.272164903964  2128.41001906415 435.525371587803  2127.44339630258 435.770513016912  L 2127.68922036394 436.739827481292  C 2128.66123778996 436.493317932368  2129.63118037798 436.238698117007  2130.59894673589 435.975994651665  L 2130.33697378974 435.010919434136  Z M 2134.17458366777 433.923182951128  C 2133.21824211648 434.205786420186  2132.25955800751 434.480401268708  2131.29863155608 434.74699879007  L 2131.56597145733 435.710601082098  C 2132.53226078244 435.442515695741  2133.49629525071 435.166368237992  2134.45797408763 434.882187575691  L 2134.17458366777 433.923182951128  Z M 2137.98702986113 432.750291543045  C 2137.03721597017 433.05411296428  2136.08488227686 433.349999889273  2135.13012833254 433.637921387747  L 2135.41885159065 434.595333984401  C 2136.37893396023 434.305805613078  2137.33658257157 434.008267360656  2138.29169731766 433.702750330044  L 2137.98702986113 432.750291543045  Z M 2141.77242307292 431.492826448281  C 2140.82960753234 431.817715259861  2139.88409619341 432.134727631524  2138.93598789436 432.443830424649  L 2139.24595142953 433.394578870276  C 2140.19935106491 433.083750992749  2141.1501392467 432.764969393791  2142.09821658503 432.438267396973  L 2141.77242307292 431.492826448281  Z M 2145.52888741262 430.151410816589  C 2144.59353744435 430.497206016526  2143.65531701768 430.835186736117  2142.7143242087 431.165317644828  L 2143.04537441533 432.108930786263  C 2143.99161884952 431.776957436478  2144.93507542888 431.437090466488  2145.87564553 431.089365403994  L 2145.52888741262 430.151410816589  Z M 2149.25456132572 428.726709400275  C 2148.32714045205 429.093239626203  2147.39667588241 429.452021203901  2146.46326488216 429.803016628433  L 2146.81523770492 430.739026848484  C 2147.75385801675 430.386072539249  2148.6895154541 430.025288622794  2149.62211220881 429.656712813356  L 2149.25456132572 428.726709400275  Z M 2152.94759851622 427.219428224769  C 2152.02856633008 427.60651183887  2151.10631871878 427.985916476771  2150.18095208866 428.357602477736  L 2150.55367310379 429.285545926917  C 2151.48420415033 428.91178556837  2152.411598771 428.530263495626  2153.33576002139 428.141019590774  L 2152.94759851622 427.219428224769  Z M 2156.60616886156 425.630314238751  C 2155.69598079882 426.03775941776  2154.78240717512 426.437599097998  2153.86554349008 426.829791482577  L 2154.25882799186 427.749208308974  C 2155.18080863888 427.354827121899  2156.09948086293 426.952755960056  2157.01474863141 426.543036853607  L 2156.60616886156 425.630314238751  Z M 2160.22845931962 423.960154943993  C 2159.32756643332 424.387759774259  2158.42311952802 424.807836352178  2157.5152131493 425.220340765399  L 2157.92886624154 426.130775342553  C 2158.84183959206 425.715968766602  2159.75133416203 425.293547766157  2160.65725487823 424.863556498625  L 2160.22845931962 423.960154943993  Z M 2163.81267482712 422.209778005099  C 2162.92152356399 422.657330582658  2162.02665158505 423.097435884984  2161.12815243498 423.53004790605  L 2161.56196912765 424.431049058747  C 2162.46548274832 423.996022655588  2163.36534895485 423.553461151596  2164.26147368045 423.103410809582  L 2163.81267482712 422.209778005099  Z M 2167.34831130365 420.371877054297  C 2166.92232916634 420.602080135263  2166.49541565594 420.830555561771  2166.06758129403 421.057297702895  C 2165.61358298268 421.293396728284  2165.15857534909 421.527549824617  2164.70257091793 421.759750546529  L 2165.15633622871 422.650871774387  C 2165.61604204276 422.416786281799  2166.07474042861 422.180727606302  2166.53241869624 421.942702278528  C 2166.96379238 421.714096318773  2167.39423516352 421.483738079324  2167.82373638163 421.251633267816  L 2167.34831130365 420.371877054297  Z M 2170.8361461922 418.43656622071  C 2169.96960384818 418.930082430627  2169.09895664759 419.416356003794  2168.22429560283 419.895336107996  L 2168.70460949737 420.772432774684  C 2169.58415197368 420.290779510851  2170.45965820478 419.801792073647  2171.33103667037 419.305521578953  L 2170.8361461922 418.43656622071  Z M 2174.28003722427 416.424096396927  C 2173.42469516644 416.93677938626  2172.56508804948 417.442312906723  2171.7013057317 417.940644112789  L 2172.20102461408 418.806831759084  C 2173.06962764989 418.30571939603  2173.93403218329 417.797364522908  2174.79414785456 417.281820280134  L 2174.28003722427 416.424096396927  Z M 2177.67827774425 414.335464883057  C 2176.83455984616 414.867060586483  2175.98641879998 415.391603531903  2175.13394326539 415.909038886683  L 2175.65281949478 416.763888264394  C 2176.5100526449 416.24356513351  2177.36292711609 415.716094744938  2178.21135375386 415.18153223734  L 2177.67827774425 414.335464883057  Z M 2181.02918371914 412.171706721914  C 2180.19750809387 412.721951701714  2179.36125342347 413.265244129452  2178.52050712507 413.801527212534  L 2179.05828356703 414.644614692264  C 2179.90372202077 414.105338645022  2180.74464377903 413.55901413438  2181.58096093676 413.0056982699  L 2181.02918371914 412.171706721914  Z M 2184.33109457301 409.933894186097  C 2183.51187336597 410.502515762717  2182.68791948595 411.064288438622  2181.85931906423 411.619153489413  L 2182.4157292181 412.450061270495  C 2183.24895400976 411.892099550684  2184.07750632765 411.3271916547  2184.90129955978 410.755396634701  L 2184.33109457301 409.933894186097  Z M 2187.58237401002 407.623136246611  C 2186.7760131947 408.209852633777  2185.96476842386 408.78982716564  2185.14872450027 409.362999215052  L 2185.7234926313 410.181315532595  C 2186.54409084775 409.60494464388  2187.35986312766 409.021733308467  2188.17072419499 408.431742491851  L 2187.58237401002 407.623136246611  Z M 2190.78141082521 405.240578023305  C 2189.988310002 405.845098467685  2189.19017636104 406.442987443154  2188.38709333453 407.034182449893  L 2188.97993461045 407.839501778834  C 2189.78749959581 407.245007347741  2190.59008757343 406.643781589257  2191.38761464541 406.035887352044  L 2190.78141082521 405.240578023305  Z M 2193.92661970301 402.787400217397  C 2193.14717190117 403.409425142676  2192.36254491342 404.024932271715  2191.57282076005 404.633857263022  L 2192.18344139228 405.42578051909  C 2192.97757294943 404.813457153428  2193.76657889399 404.194514915512  2194.5503767479 403.569018505923  L 2193.92661970301 402.787400217397  Z M 2197.01644200284 400.264818526366  C 2196.25103348575 400.904039681687  2195.48030198116 401.536859943432  2194.70432805685 402.163213160259  L 2195.33242544605 402.941347897743  C 2196.11273003493 402.311499040663  2196.88776294644 401.675147046479  2197.65744316319 401.0323584357  L 2197.01644200284 400.264818526366  Z M 2200.04934653148 397.674083041497  C 2199.29835660518 398.330183654262  2198.54190252771 398.980003448099  2197.78006337429 399.623474494684  L 2198.42532626035 400.387435100918  C 2199.19141719302 399.740372880483  2199.95209299594 399.086926480825  2200.70727415259 398.42716420935  L 2200.04934653148 397.674083041497  Z M 2203.02383030192 395.016477628392  C 2202.28763112722 395.689132561173  2201.5458293454 396.35562986227  2200.79850250014 397.0158998599  L 2201.4606111164 397.765307746351  C 2202.21210874858 397.101352820916  2202.95805048225 396.431135837826  2203.698358341 395.754726857648  L 2203.02383030192 395.016477628392  Z M 2205.93841927816 392.29331929073  C 2205.21737568609 392.982195202497  2204.4905938075 393.665039721196  2203.75814961585 394.34178146632  L 2204.43677584758 395.076265256208  C 2205.17330776693 394.395746655443  2205.9041457722 393.70909122187  2206.6292134659 393.016370734396  L 2205.93841927816 392.29331929073  Z M 2208.79166910567 389.505957517617  C 2208.08613841683 390.210713028792  2207.37473660562 390.909566374548  2206.65753803787 391.602444500801  L 2207.35234558486 392.321640213134  C 2208.07354679541 391.624895175036  2208.78891889802 390.922141570121  2209.49838711191 390.213452860117  L 2208.79166910567 389.505957517617  Z M 2211.58216582717 386.655773614832  C 2210.89249767452 387.376059476604  2210.19682847322 388.090575325405  2209.49523094446 388.799246469936  L 2210.2058754877 389.502797699885  C 2210.91138859076 388.790171503624  2211.61094028073 388.07166798413  2212.30445743054 387.347362249577  L 2211.58216582717 386.655773614832  Z M 2212.30552510063 385.895859666534  C 2212.29362591844 385.908433678109  2212.28172491398 385.921005965221  2212.26982208775 385.933576527321  L 2212.99595146003 386.621134622843  C 2213.68542683135 385.892980417637  2214.3688114386 385.159083045406  2215.04603384479 384.419519223437  L 2212.30552510063 385.895859666534  Z M 2102.93020250001 440.200837644001  C 2101.93892301903 440.309552288993  2100.94675324162 440.409989675573  2099.95379688341 440.502139304607  L 2100.04620311659 441.497860695393  C 2101.04470110551 441.40519678473  2102.04240812374 441.304198863037  2103.03921987687 441.194877488043  L 2102.93020250001 440.200837644001  Z M 2218.55932002056 391.235348170594  L 2220 378  L 2207.15308052572 381.493803088511  L 2218.55932002056 391.235348170594  Z " fill-rule="nonzero" fill="#1f8aee" stroke="none" />
  </g>
</svg>