<?xml version="1.0" encoding="utf-8"?>
<svg version="1.1" xmlns:xlink="http://www.w3.org/1999/xlink" width="12px" height="12px" viewBox="540 296  12 12" xmlns="http://www.w3.org/2000/svg">
  <path d="M 546 296  C 549.36 296  552 298.64  552 302  C 552 305.36  549.36 308  546 308  C 542.64 308  540 305.36  540 302  C 540 298.64  542.64 296  546 296  Z " fill-rule="nonzero" fill="#ffffff" stroke="none" />
  <path d="M 546 296.5  C 549.08 296.5  551.5 298.92  551.5 302  C 551.5 305.08  549.08 307.5  546 307.5  C 542.92 307.5  540.5 305.08  540.5 302  C 540.5 298.92  542.92 296.5  546 296.5  Z " stroke-width="1" stroke="#797979" fill="none" />
  <path d="M 546 305  C 544.32 305  543 303.68  543 302  C 543 300.32  544.32 299  546 299  C 547.68 299  549 300.32  549 302  C 549 303.68  547.68 305  546 305  " fill-rule="nonzero" fill="#797979" stroke="none" />
</svg>