<?xml version="1.0" encoding="utf-8"?>
<svg version="1.1" xmlns:xlink="http://www.w3.org/1999/xlink" width="12px" height="12px" viewBox="540 213  12 12" xmlns="http://www.w3.org/2000/svg">
  <path d="M 546 213  C 549.36 213  552 215.64  552 219  C 552 222.36  549.36 225  546 225  C 542.64 225  540 222.36  540 219  C 540 215.64  542.64 213  546 213  Z " fill-rule="nonzero" fill="#ffffff" stroke="none" />
  <path d="M 546 213.5  C 549.08 213.5  551.5 215.92  551.5 219  C 551.5 222.08  549.08 224.5  546 224.5  C 542.92 224.5  540.5 222.08  540.5 219  C 540.5 215.92  542.92 213.5  546 213.5  Z " stroke-width="1" stroke="#797979" fill="none" />
  <path d="M 546 222  C 544.32 222  543 220.68  543 219  C 543 217.32  544.32 216  546 216  C 547.68 216  549 217.32  549 219  C 549 220.68  547.68 222  546 222  " fill-rule="nonzero" fill="#797979" stroke="none" />
</svg>