<?xml version="1.0" encoding="utf-8"?>
<svg version="1.1" xmlns:xlink="http://www.w3.org/1999/xlink" width="12px" height="12px" viewBox="540 254  12 12" xmlns="http://www.w3.org/2000/svg">
  <path d="M 546 254  C 549.36 254  552 256.64  552 260  C 552 263.36  549.36 266  546 266  C 542.64 266  540 263.36  540 260  C 540 256.64  542.64 254  546 254  Z " fill-rule="nonzero" fill="#ffffff" stroke="none" />
  <path d="M 546 254.5  C 549.08 254.5  551.5 256.92  551.5 260  C 551.5 263.08  549.08 265.5  546 265.5  C 542.92 265.5  540.5 263.08  540.5 260  C 540.5 256.92  542.92 254.5  546 254.5  Z " stroke-width="1" stroke="#797979" fill="none" />
  <path d="M 546 263  C 544.32 263  543 261.68  543 260  C 543 258.32  544.32 257  546 257  C 547.68 257  549 258.32  549 260  C 549 261.68  547.68 263  546 263  " fill-rule="nonzero" fill="#797979" stroke="none" />
</svg>