<?xml version="1.0" encoding="utf-8"?>
<svg version="1.1" xmlns:xlink="http://www.w3.org/1999/xlink" width="12px" height="12px" viewBox="540 337  12 12" xmlns="http://www.w3.org/2000/svg">
  <path d="M 546 337  C 549.36 337  552 339.64  552 343  C 552 346.36  549.36 349  546 349  C 542.64 349  540 346.36  540 343  C 540 339.64  542.64 337  546 337  Z " fill-rule="nonzero" fill="#ffffff" stroke="none" />
  <path d="M 546 337.5  C 549.08 337.5  551.5 339.92  551.5 343  C 551.5 346.08  549.08 348.5  546 348.5  C 542.92 348.5  540.5 346.08  540.5 343  C 540.5 339.92  542.92 337.5  546 337.5  Z " stroke-width="1" stroke="#797979" fill="none" />
  <path d="M 546 346  C 544.32 346  543 344.68  543 343  C 543 341.32  544.32 340  546 340  C 547.68 340  549 341.32  549 343  C 549 344.68  547.68 346  546 346  " fill-rule="nonzero" fill="#797979" stroke="none" />
</svg>