<?xml version="1.0" encoding="utf-8"?>
<svg version="1.1" xmlns:xlink="http://www.w3.org/1999/xlink" width="50px" height="50px" xmlns="http://www.w3.org/2000/svg">
  <g transform="matrix(1 0 0 1 -60 -3 )">
    <path d="M 60 3  L 110 3  L 110 53  L 60 53  L 60 3  " fill-rule="nonzero" fill="#cccccc" stroke="none" />
    <path d="M 64 7  L 106 7  L 106 49  L 64 49  L 64 7  " fill-rule="nonzero" fill="#ffffff" stroke="none" />
    <path d="M 89.75 18  C 87.65 18  86 16.35  86 14.25  C 86 12.15  87.65 10.5  89.75 10.5  C 91.85 10.5  93.5 12.15  93.5 14.25  C 93.5 16.35  91.85 18  89.75 18  " fill-rule="nonzero" fill="#cccccc" stroke="none" />
    <path d="M 66 48  L 66 26.55  L 75.75 16.8  L 89.4 24.6  L 97.2 22.65  L 105 24.6  L 105 48  L 66 48  " fill-rule="nonzero" fill="#169bd5" stroke="none" />
  </g>
</svg>