<?xml version="1.0" encoding="utf-8"?>
<svg version="1.1" xmlns:xlink="http://www.w3.org/1999/xlink" width="128px" height="12px" viewBox="1406 344  128 12" xmlns="http://www.w3.org/2000/svg">
  <g transform="matrix(0.927183854566787 -0.374606593415912 0.374606593415914 0.927183854566787 -24.0725739087477 576.157343223015 )">
    <path d="M 1421.18449863059 327.30579329399  C 1420.33425056439 326.782204200132  1419.48631414449 326.254870507033  1418.6407140744 325.723807577863  L 1418.10887070763 326.570650321953  C 1418.95695886703 327.103275847963  1419.80739025075 327.632161165048  1420.6601400825 328.15729086477  L 1421.18449863059 327.30579329399  Z M 1424.59771368239 329.380113608499  C 1423.74137110305 328.866552803843  1422.88729600375 328.349220492008  1422.03551326689 327.828131744825  L 1421.51365873992 328.681166241595  C 1422.36794775796 329.203788237649  1423.22453588346 329.722642745431  1424.08339816083 330.237714648778  L 1424.59771368239 329.380113608499  Z M 1428.03507047851 331.414178507437  C 1427.17275165957 330.910716922291  1426.3126558412 330.403457442927  1425.45480808131 329.892414847758  L 1424.94301446994 330.751523280586  C 1425.8033863567 331.26406956488  1426.6660129166 331.772821601939  1427.53086901804 332.277764569884  L 1428.03507047851 331.414178507437  Z M 1431.4960942694 333.407707056495  C 1430.62791830973 332.914414226296  1429.76192056426 332.417297639446  1428.89812626271 331.916371778776  L 1428.39646425317 332.78143549214  C 1429.26280017864 333.283835274493  1430.13134603148 333.78241457467  1431.00207650765 334.277158867162  L 1431.4960942694 333.407707056495  Z M 1434.9803070367 335.360423920032  C 1434.10639384422 334.877367975802  1433.23461377863 334.390462940544  1432.36499223816 333.899722999631  L 1431.87353111735 334.770622515497  C 1432.7457114278 335.262806407108  1433.6200566146 335.751144109249  1434.4965412048 336.235621394824  L 1434.9803070367 335.360423920032  Z M 1438.48722755935 337.272059399102  C 1437.60769783432 336.799307057972  1436.73025585428 336.322680823074  1435.85492718243 335.84219458032  L 1435.37373482837 336.718809614642  C 1436.25163906284 337.200709637659  1437.13166282368 337.678738295163  1438.01378047248 338.152881660364  L 1438.48722755935 337.272059399102  Z M 1442.01637147998 339.142349468702  C 1441.13134669841 338.67996602473  1440.24836399159 338.213684419291  1439.36744908411 337.743518236921  L 1438.89659195656 338.625727716259  C 1439.78009886356 339.097277313205  1440.66567965418 339.564930903253  1441.55330852816 340.028674861912  L 1442.01637147998 339.142349468702  Z M 1445.56725137187 340.97103581424  C 1444.6768537687 340.51908512938  1443.78845228802 340.063212553767  1442.90207281224 339.603431368646  L 1442.44161594349 340.491113446882  C 1443.33060349771 340.952247489811  1444.22161900638 341.409461422568  1445.1146365109 341.862741924812  L 1445.56725137187 340.97103581424  Z M 1449.13937680623 342.75786586721  C 1448.24372935848 342.316410362511  1447.35003180525 341.871009779426  1446.45831018323 341.42167709411  L 1446.00831716915 342.314709169281  C 1446.90266258832 342.765363968792  1447.79898975268 343.212075096285  1448.69727254889 343.654829537402  L 1449.13937680623 342.75786586721  Z M 1452.73225441995 344.502592840075  C 1451.83148082974 344.071693487048  1450.93261063672 343.636826412856  1450.03567002834 343.19800428681  L 1449.59620301961 344.09626301804  C 1450.49578278145 344.536376332071  1451.39729780552 344.972522956915  1452.30072182735 345.404690186  L 1452.73225441995 344.502592840075  Z M 1456.34538798373 346.204975760355  C 1455.43961266114 345.784692072538  1454.53569397556 345.360418568797  1453.63365826153 344.932167609811  L 1453.20477795499 345.835528934345  C 1454.1094678143 346.265039976767  1455.0160461856 346.690561860694  1455.92448665687 347.112082189089  L 1456.34538798373 346.204975760355  Z M 1459.97827847064 347.864779503906  C 1459.06762651658 347.455169528664  1458.15878418291 347.04154819379  1457.25177794764 346.623927549627  L 1456.83354357798 347.532266699966  C 1457.74321858378 347.951116148982  1458.65473509047 348.365954521154  1459.56806654219 348.776769730697  L 1459.97827847064 347.864779503906  Z M 1463.63042412502 349.481774827397  C 1462.71502131392 349.082895137898  1461.80138085668 348.679983099087  1460.88952937108 348.273050449305  L 1460.48199870263 349.18624197044  C 1461.39653321541 349.59437197678  1462.31286196362 349.998469541901  1463.23095825129 350.398522892968  L 1463.63042412502 349.481774827397  Z M 1467.30132053178 351.055738399968  C 1466.38129329426 350.667644087368  1465.46298090064 350.275496992704  1464.54641010483 349.879308540694  L 1464.14963942357 350.797226307432  C 1465.06890713262 351.194580502323  1465.98992156392 351.58788144859  1466.91265588489 351.977117687915  L 1467.30132053178 351.055738399968  Z M 1470.990184308 352.585929434671  C 1470.84819880099 352.528142021238  1470.70625715612 352.470246895572  1470.564359496 352.412244107685  C 1469.78234170981 352.091902855229  1469.0015214731 351.768645896089  1468.22191507981 351.442479975904  L 1467.83595918562 352.364997210289  C 1468.61797396522 352.692170733214  1469.40120651593 353.016425881243  1470.18564048873 353.337755885952  C 1470.32812114142 353.39599718437  1470.47064599532 353.454130290979  1470.61321492717 353.512155155497  L 1470.990184308 352.585929434671  Z M 1474.69879555858 354.066912789836  C 1473.76921510754 353.702779601327  1472.84143950164 353.334055604997  1471.91550271542 352.960754303282  L 1471.54158633773 353.888216724349  C 1472.47057816736 354.262749699436  1473.40141488369 354.632690266738  1474.33406240008 354.998024879271  L 1474.69879555858 354.066912789836  Z M 1478.42659761718 355.49890473048  C 1477.49230021217 355.147050850404  1476.55974700939 354.790582781229  1475.62897215831 354.429513576587  L 1475.26730803211 355.361822034027  C 1476.20115388934 355.72408255336  1477.13678396581 356.081726756201  1478.07416399932 356.434741545849  L 1478.42659761718 355.49890473048  Z M 1482.17294333091 356.881656660316  C 1481.23409116758 356.542143171118  1480.29692226076 356.197992912574  1479.36147092896 355.849218487245  L 1479.01212183976 356.786211130692  C 1479.95065960734 357.136136305216  1480.89092061693 357.481422055941  1481.83287043677 357.822055738726  L 1482.17294333091 356.881656660316  Z M 1485.93718232764 358.214928531212  C 1484.99393839234 357.887814373018  1484.05231647566 357.556041670195  1483.11235105909 357.219622572019  L 1482.77537765451 358.161136737925  C 1483.71844440066 358.498665820027  1484.66317311241 358.831533176423  1485.60952919447 359.159726617749  L 1485.93718232764 358.214928531212  Z M 1489.71866112895 359.498488884856  C 1488.7711891705 359.18383084526  1487.8252777111 358.864493294458  1486.88096138942 358.540487926384  L 1486.55642216862 359.486360166255  C 1487.5038541753 359.811434560293  1488.45288658271 360.131825736026  1489.4034846379 360.447521960934  L 1489.71866112895 359.498488884856  Z M 1493.51672326356 360.732114892944  C 1492.56518776472 360.429967597124  1491.6151509745 360.123120635904  1490.66664768265 359.811585245821  L 1490.3545989862 360.761651354597  C 1491.30623177758 361.074214627096  1492.25940312696 361.382074001693  1493.21407812982 361.685218204775  L 1493.51672326356 360.732114892944  Z M 1497.3307093813 361.915592395862  C 1496.37527553028 361.626008297112  1495.42127833728 361.331705194638  1494.46875273707 361.032693865632  L 1494.16924873717 361.986788910186  C 1495.12491710815 362.286786799624  1496.08206192728 362.582060928156  1497.04064814459 362.872600483056  L 1497.3307093813 361.915592395862  Z M 1501.15995736756 363.04871593986  C 1500.20079102934 362.771745310486  1499.2429990491 362.490037158282  1498.28661650064 362.20360179924  L 1497.99970919171 363.161560147018  C 1498.95924723659 363.448940573233  1499.9201993635 363.731578195614  1500.882530383 364.009462664154  L 1501.15995736756 363.04871593986  Z M 1505.00380245824 364.131288812727  C 1504.04107014574 363.866979735303  1503.07964965266 363.597915438406  1502.1195761856 363.324105774997  L 1501.84531537524 364.285761122768  C 1502.80855651655 364.560474196023  1503.77314912828 364.830426245864  1504.73905788765 365.095607386822  L 1505.00380245824 364.131288812727  Z M 1508.86157735516 365.163123077932  C 1507.8954462004 364.911521436977  1506.93056409873 364.655147705409  1505.96696638349 364.394011271469  L 1505.70539968385 365.359196674196  C 1506.67217670127 365.621194703824  1507.64024234286 365.878414316981  1508.60956115866 366.130846094451  L 1508.86157735516 365.163123077932  Z M 1512.73261234192 366.144039607257  C 1511.76325006694 365.905189081252  1510.79507386187 365.661550421938  1509.8281191807 365.413132551206  L 1509.57929200021 366.381680451028  C 1510.54943705957 366.630917953717  1511.52080767314 366.875360476419  1512.49336826995 367.114999067805  L 1512.73261234192 366.144039607257  Z M 1516.61623540012 367.073868111892  C 1515.64381028789 366.847810165702  1514.6725080565 366.616948874736  1513.70236427441 366.381292692984  L 1513.4663198099 367.353034948305  C 1514.43966449233 367.589468655992  1515.41417144626 367.821091652593  1516.38980498587 368.047895456221  L 1516.61623540012 367.073868111892  Z M 1520.51177232606 367.952447171993  C 1519.53645319127 367.739221049671  1518.56219355331 367.521177204972  1517.58902908893 367.298323622523  L 1517.36580831814 368.273091537202  C 1518.34218364932 368.496680404586  1519.31965776751 368.715443664931  1520.29819487824 368.929373307267  L 1520.51177232606 367.952447171993  Z M 1524.41854684777 368.779624264712  C 1523.4405030075 368.579266982679  1522.46345509616 368.374078437044  1521.48743889253 368.164066141663  L 1521.27708056697 369.141690494299  C 1522.25631704644 369.352395705964  1523.23658863769 369.558261252373  1524.2178594438 369.759279594859  L 1524.41854684777 368.779624264712  Z M 1528.3354391518 369.554922635602  C 1528.25496527047 369.53962182786  1528.17449759568 369.524288395911  1528.09403614698 369.50892234348  C 1527.19419905221 369.336149369131  1526.29515006418 369.159296754937  1525.39691691449 368.978369956002  L 1525.19945755272 369.95868102931  C 1526.10081677449 370.140237497964  1527.00299482064 370.317704865644  1527.90596385302 370.491077656314  C 1527.98685350608 370.506525621739  1528.06774943112 370.521940726978  1528.14865160823 370.53732296824  L 1528.3354391518 369.554922635602  Z M 1532.26336897762 370.274975681994  C 1531.28021280936 370.101433921167  1530.2979201065 369.923035473207  1529.3165268399 369.739786870937  L 1529.13297630509 370.722797146147  C 1530.11760758865 370.906650360354  1531.10314127612 371.085637417618  1532.08954127789 371.25975176355  L 1532.26336897762 370.274975681994  Z M 1536.20044492559 370.943213728055  C 1535.21508759403 370.782640619838  1534.23052966355 370.617199869446  1533.246807188 370.446897535211  L 1533.07622425235 371.432240857137  C 1534.06319242988 371.603105088288  1535.05099881887 371.769091695247  1536.03960724647 371.930194599691  L 1536.20044492559 370.943213728055  Z M 1540.14598351247 371.5595207665  C 1539.15859607736 371.411944186662  1538.17194384023 371.259489854643  1537.18606293166 371.102163353222  L 1537.02847720867 372.089668664554  C 1538.01761094078 372.247514250322  1539.00751854637 372.400471591412  1539.99816377567 372.548535086625  L 1540.14598351247 371.5595207665  Z M 1544.09929978593 372.123789805359  C 1543.11005365943 371.98923537345  1542.12147840021 371.849793926141  1541.13361020925 371.705470569687  L 1540.98904905606 372.694966437789  C 1541.98017662742 372.839765975906  1542.97201359995 372.979667497469  1543.96452365321 373.114665879371  L 1544.09929978593 372.123789805359  Z M 1548.0597074434 372.635922886546  C 1547.06877436037 372.51441396145  1546.07844769743 372.388009606128  1545.0887637197 372.256714449427  L 1544.9572522324 373.248029096099  C 1545.95020158154 373.379757449115  1546.94379573638 373.506578864002  1547.93799831214 373.628488696641  L 1548.0597074434 372.635922886546  Z M 1552.02651895124 373.095831102872  C 1551.03407093937 372.987388778748  1550.04216479514 372.874043459428  1549.05083684152 372.755799295547  L 1548.93239785071 373.748760626846  C 1549.9269965999 373.867394926491  1550.92217544739 373.981114218285  1551.91789795035 374.089914337901  L 1552.02651895124 373.095831102872  Z M 1555.9990456641 373.503434613471  C 1555.00525501409 373.408077716095  1554.01194158519 373.307811109722  1553.01914175192 373.202638466052  L 1552.91379581883 374.197074102169  C 1553.909871304 374.302593753321  1554.90646207936 374.403191180156  1555.90353165038 374.498862698861  L 1555.9990456641 373.503434613471  Z M 1559.97659794444 373.858662657667  C 1558.98163718007 373.776407741161  1557.98708890745 373.689237254192  1556.99298954629 373.597154388887  L 1556.90075495915 374.592891694071  C 1557.89813425988 374.685278378336  1558.89596395321 374.772736476324  1559.89420749928 374.855262785375  L 1559.97659794444 373.858662657667  Z M 1563.95848528228 374.161453567255  C 1562.96252713047 374.092314911216  1561.96691666942 374.018255676598  1560.97169035776 373.939278575403  L 1560.89258312866 374.936144687929  C 1561.89109309816 375.015382366819  1562.88998848451 375.089685953082  1563.88923270881 375.159052725769  L 1563.95848528228 374.161453567255  Z M 1567.94401641508 374.411754777208  C 1566.94723377588 374.355744384226  1565.95073396612 374.294809258771  1564.95455347697 374.228951632248  L 1564.88858733906 375.22677349443  C 1565.88805463427 375.292848412146  1566.88784230366 375.353984587453  1567.88791373566 375.410179781584  L 1567.94401641508 374.411754777208  Z M 1571.93249944772 374.609522834802  C 1570.93506536433 374.566650428379  1569.93784919994 374.51884999053  1568.94088747197 374.466123271677  L 1568.88807387708 375.464727659908  C 1569.88832498874 375.517628345729  1570.88883137631 375.565586496734  1571.88955640187 375.608600356726  L 1571.93249944772 374.609522834802  Z M 1575.92324197261 374.754723407157  C 1574.92532960133 374.724996430017  1573.92757020077 374.690338978014  1572.93000030825 374.650752320281  L 1572.89034842492 375.649965875107  C 1573.89120970771 375.689683145383  1574.8922611238 375.724454946467  1575.89346601533 375.754280005039  L 1575.92324197261 374.754723407157  Z M 1579.91555118994 374.847331287205  C 1578.91733377008 374.830754900002  1577.91920434612 374.809246450438  1576.92119946892 374.782806726137  L 1576.89471618078 375.782455982351  C 1577.89601388344 375.808982942095  1578.89743654379 375.830562356814  1579.89894749038 375.847193436284  L 1579.91555118994 374.847331287205  Z M 1583.90873402789 374.887330398054  C 1582.91038485173 374.883907478479  1581.91205868137 374.875551765258  1580.91379207487 374.862263564372  L 1580.90048197946 375.862174981128  C 1581.90204227499 375.875507025214  1582.90366233087 375.883890307343  1583.90530546849 375.887324520527  L 1583.90873402789 374.887330398054  Z M 1587.90173100799 374.874693910788  C 1587.89115175103 374.874804779144  1587.88057248883 374.874915153501  1587.86999322155 374.875025033858  C 1586.88238599627 374.884547246187  1585.89473812552 374.889241971365  1584.90708500509 374.88910904114  L 1584.90695041308 375.889109032082  C 1585.89798631807 375.889242417603  1586.88901695403 375.884531005901  1587.88000679498 375.874974965869  C 1587.89074127417 375.874863485146  1587.90147575063 375.874751497287  1587.91221021924 375.874639002346  L 1587.90173100799 374.874693910788  Z M 1591.89529767068 374.809371115279  C 1590.89701184198 374.831568356131  1589.89863303487 374.849365928007  1588.90019033577 374.862763312399  L 1588.91360740865 375.862673299425  C 1589.91498792044 375.849236494639  1590.91630435225 375.831386555278  1591.91752753208 375.809124001377  L 1591.89529767068 374.809371115279  Z M 1595.88782087346 374.697120359088  C 1594.88986484615 374.731047941185  1593.89176414184 374.760577250819  1592.89354783888 374.785707427694  L 1592.91871494647 375.785390685879  C 1593.91986839597 375.7601865661  1594.92090590671 375.730570369575  1595.92179831473 375.696542959134  L 1595.88782087346 374.697120359088  Z M 1599.87874919009 374.537957145697  C 1598.88126079658 374.58361038314  1597.88357604748 374.6248673521  1596.88572400903 374.66172685061  L 1596.92263767539 375.661045308978  C 1597.92342578858 375.624077355268  1598.9240461202 375.582698992013  1599.92446951846 375.536911424717  L 1599.87874919009 374.537957145697  Z M 1603.86753141462 374.331903457889  C 1602.87064842274 374.389276045293  1601.87351742381 374.442254975384  1600.87616746791 374.490838704691  L 1600.92482259473 375.489654342652  C 1601.92510714803 375.440927660828  1602.92517210014 375.387792845803  1603.92498831543 375.330251445591  L 1603.86753141462 374.331903457889  Z M 1607.8536166375 374.078987754711  C 1606.85747673149 374.148071768078  1605.86103720116 374.212765342131  1604.86432707655 374.273066592105  L 1604.92471694383 375.271241458514  C 1605.92435978324 375.210762778449  1606.92373123211 375.145878850356  1607.92280217511 375.07659156454  L 1607.8536166375 374.078987754711  Z M 1611.83645432168 373.779244967547  C 1610.84119508309 373.860030865357  1609.8455846444 373.936430148235  1608.84965201138 374.008440590388  L 1608.92176827839 375.005836822601  C 1609.92063133849 374.933614497292  1610.91917125627 374.856990417553  1611.91735894055 374.77596681573  L 1611.83645432168 373.779244967547  Z M 1615.81549437864 373.432716495287  C 1614.82125326746 373.525193119818  1613.8266094288 373.613287559658  1612.83159184037 373.696997248285  L 1612.91542454679 374.693477091199  C 1613.91336986989 374.609521095611  1614.91094034349 374.521167447142  1615.90810690465 374.428418719863  L 1615.81549437864 373.432716495287  Z M 1619.79018724437 373.039450198614  C 1618.79710157991 373.143604777484  1617.80356171627 373.243382207145  1616.80959659899 373.338779580707  L 1616.90513416629 374.334205405786  C 1617.90202392146 374.238527335479  1618.89848717172 374.138456321219  1619.89449488637 374.033995278448  L 1619.79018724437 373.039450198614  Z M 1623.75998395527 372.599500393395  C 1622.76819089729 372.715318541322  1621.77589223115 372.826765180073  1620.78311686623 372.933837062788  L 1620.89034609927 373.928071387071  C 1621.88604260136 373.820684456594  1622.88126100201 373.708909897824  1623.87597230683 373.59275096717  L 1623.75998395527 372.599500393395  Z M 1627.72433622398 372.112927843175  C 1626.73397275368 372.240393563969  1625.74305233611 372.363494019384  1624.75160384044 372.482225623052  L 1624.87050992928 373.475131128141  C 1625.86487565794 373.35605016921  1626.85871175469 373.232587503642  1627.8519892654 373.104746728362  L 1627.72433622398 372.112927843175  Z M 1631.68269651507 371.579799750784  C 1630.69389941625 371.718895439551  1629.70449410792 371.853632709652  1628.71450941515 371.984007635685  L 1628.84507593711 372.975447186713  C 1629.83797355579 372.844688646163  1630.83029008524 372.709554925808  1631.82199661559 372.570049962596  L 1631.68269651507 371.579799750784  Z M 1635.63451812072 371.000189749063  C 1634.6474239608 371.150896194643  1633.65967041318 371.297251670222  1632.67128625475 371.439251911928  L 1632.81349517668 372.429088576497  C 1633.8047875516 372.286670514006  1634.79544746023 372.139884402821  1635.78544604095 371.988734519366  L 1635.63451812072 371.000189749063  Z M 1639.07771502207 370.456409104713  C 1638.25941974899 370.589946420945  1637.4406385495 370.720488823614  1636.62138787012 370.848033690566  L 1636.77521955086 371.83613075766  C 1637.76476976995 371.68207284326  1638.75363623304 371.523654614567  1639.74179013076 371.360880686893  L 1639.07771502207 370.456409104713  Z M 1417.79589673838 325.191504058082  C 1416.9518606171 324.65795899039  1416.11017998909 324.120696748561  1415.27087937559 323.57973298502  L 1414.72912062441 324.42026701498  C 1415.57089079173 324.962822507525  1416.41504797656 325.501665587052  1417.26156758539 326.036780555014  L 1417.79589673838 325.191504058082  Z M 1640.62674781639 378.454741852768  L 1650 369  L 1637.77460939579 363.728394497441  L 1640.62674781639 378.454741852768  Z " fill-rule="nonzero" fill="#1f8aee" stroke="none" />
  </g>
</svg>