<?xml version="1.0" encoding="utf-8"?>
<svg version="1.1" xmlns:xlink="http://www.w3.org/1999/xlink" width="138px" height="14px" viewBox="1390 344  138 14" xmlns="http://www.w3.org/2000/svg">
  <g transform="matrix(0.927183854566791 -0.374606593415912 0.374606593415901 0.927183854566789 -25.2481581019299 572.109486840873 )">
    <path d="M 1406.2191648478 327.240779962265  C 1405.36369590252 326.725600215469  1404.51036927892 326.206871429043  1403.65920703463 325.684607011599  L 1403.13621968577 326.536947455869  C 1403.98974077805 327.060659238222  1404.84543224784 327.580825591184  1405.70327197637 328.097433068959  L 1406.2191648478 327.240779962265  Z M 1409.65237173702 329.282514101323  C 1408.79125230256 328.776835737695  1407.93223577158 328.267584836951  1407.07534434877 327.75477456271  L 1406.56182422978 328.612852115959  C 1407.42109037799 329.127083554605  1408.28248752374 329.637745755561  1409.14599340081 330.144825518746  L 1409.65237173702 329.282514101323  Z M 1413.10796973138 331.286118438539  C 1412.24130533178 330.790003425351  1411.37670415976 330.290292815352  1410.51418856437 329.786999525551  L 1410.01019860346 330.650709036502  C 1410.87510451068 331.155397116041  1411.74210177433 331.656492586999  1412.61116798344 332.153982496582  L 1413.10796973138 331.286118438539  Z M 1416.58553537203 333.251347446505  C 1415.71343221083 332.764856579117  1414.84335234845 332.274747495817  1413.97531827562 331.781032865462  L 1413.48092023317 332.650268492681  C 1414.35135991135 333.145351367199  1415.22385104855 333.636818702473  1416.09837109186 334.124657794623  L 1416.58553537203 333.251347446505  Z M 1420.08464250812 335.177960300437  C 1419.20720745533 334.701153194825  1418.33175552468 334.220705697606  1417.45830934578 333.736630227894  L 1416.97356380674 334.61128545276  C 1417.84943058969 335.096702453373  1418.72730868293 335.578481427175  1419.60717539423 336.056609920682  L 1420.08464250812 335.177960300437  Z M 1423.60486234905 337.065720907683  C 1422.72220292806 336.598655993148  1421.84148620956 336.127928957433  1420.96273495916 335.653551968351  L 1420.48770132564 336.53351960811  C 1421.36888788215 337.009211250436  1422.25204535371 337.48124282418  1423.13715091163 337.949602127818  L 1423.60486234905 337.065720907683  Z M 1427.14576351701 338.914397936658  C 1426.25798789146 338.457132448683  1425.3721143106 337.996183558685  1424.48816567342 337.531563181759  L 1424.02290215739 338.41673540266  C 1424.90930050435 338.882643394084  1425.79762912959 339.34486972367  1426.68786507076 339.803402443349  L 1427.14576351701 338.914397936658  Z M 1430.70691209985 340.723764845192  C 1429.81412906029 340.276354818391  1428.92320717457 339.825240560118  1428.0341694722 339.370433731252  L 1427.57873308839 340.260702061758  C 1428.470234604 340.716769308583  1429.36362552459 341.169133751474  1430.25888275695 341.617783697284  L 1430.70691209985 340.723764845192  Z M 1434.28787170423 342.493599908286  C 1433.39019065483 342.056100169559  1432.4943296404 341.614875823855  1431.60031181805 341.169938276371  L 1431.15475837693 342.065193620455  C 1432.05125381406 342.511364234901  1432.9495975513 342.953811357054  1433.84976636748 343.392523550151  L 1434.28787170423 342.493599908286  Z M 1437.88820350912 344.22368624529  C 1436.98573445429 343.796150407112  1436.0850440925 343.364870042857  1435.18615570568 342.929856300683  L 1434.75053980665 343.829988951193  C 1435.65191930616 344.266208258226  1436.55510577448 344.698683840926  1437.46007586519 345.127404520253  L 1437.88820350912 344.22368624529  Z M 1441.50746631955 345.913811846473  C 1440.60031985043 345.496292300304  1439.69491051448 345.07500876784  1438.79126171553 344.649972138798  L 1438.36563674021 345.554871790905  C 1439.27178984447 345.981086334962  1440.17970836482 346.403537381414  1441.08936883244 346.822214010313  L 1441.50746631955 345.913811846473  Z M 1445.14521662071 347.563769599011  C 1444.23350390165 347.1563175089  1443.32348654293 346.745082433494  1442.41518806758 346.3300750028  L 1441.99960617327 347.239630767511  C 1442.91042183973 347.655788319059  1443.82296115311 348.068163060872  1444.73720052528 348.476744333526  L 1445.14521662071 347.563769599011  Z M 1448.80100863228 349.17335731236  C 1447.88484138713 348.776022608647  1446.97032752181 348.374886384232  1446.05749067555 347.969959008078  L 1445.65200278884 348.884059425828  C 1446.5673694035 349.29010898771  1447.48441768481 349.692356891345  1448.40312392797 350.090792739015  L 1448.80100863228 349.17335731236  Z M 1452.47439436303 350.742377743036  C 1451.55388486156 350.355209116253  1450.63498655678 349.96422089921  1449.71772320124 349.569423198555  L 1449.32237901178 350.487956252864  C 1450.24218440301 350.883848066614  1451.1636292745 351.275919839441  1452.08668980779 351.66416143667  L 1452.47439436303 350.742377743036  Z M 1456.16492366577 352.270638618789  C 1455.24018470987 351.893683513691  1454.31701457002 351.512891216825  1453.3954371093 351.128271571313  L 1453.01028506369 352.051124702513  C 1453.93441651593 352.436810254421  1454.86014506107 352.818657850834  1455.78744677002 353.19665762139  L 1456.16492366577 352.270638618789  Z M 1459.87189220628 353.757302765155  C 1459.68426142068 353.6834347064  1459.4967001084 353.609390301183  1459.30920851817 353.53516964769  C 1458.56855355099 353.241334999217  1457.82887389461 352.945047858165  1457.09018172213 352.646313100613  L 1456.71526901802 353.573373219641  C 1457.45612337751 353.872982387994  1458.19796826481 354.170136394225  1458.94079146736 354.464830346467  C 1459.12898100024 354.53932753947  1459.31724055782 354.613647719548  1459.50556989023 354.687790788055  L 1459.87189220628 353.757302765155  Z M 1463.59705336203 355.197220978859  C 1462.66353950365 354.843024490534  1461.73167916728 354.484485250887  1460.80150262965 354.121614909083  L 1460.43806912491 355.053235050361  C 1461.37113623307 355.417233030065  1462.3058923725 355.776886448507  1463.24230717231 356.132183620293  L 1463.59705336203 355.197220978859  Z M 1467.33979787482 356.590796814757  C 1466.40196011973 356.248213071334  1465.46572186316 355.901266389844  1464.53111352407 355.549968042802  L 1464.17926997346 356.486026863545  C 1465.11678265512 356.838416887928  1466.05593031936 357.186441723753  1466.9966824526 357.530090063448  L 1467.33979787482 356.590796814757  Z M 1471.09954925379 357.937815621879  C 1470.15753205612 357.606897391159  1469.21706008711 357.271596707646  1468.27816390327 356.931924465469  L 1467.93796450086 357.872277785555  C 1468.87977835198 358.21300557637  1469.82317288511 358.549348223683  1470.76811744877 358.881294799509  L 1471.09954925379 357.937815621879  Z M 1474.87572838853 359.238069920385  C 1473.92967684617 358.918868173343  1472.98511602458 358.595265133806  1472.04207661316 358.26727131584  L 1471.71357375949 359.211774293669  C 1472.65954371347 359.540787368977  1473.60703980551 359.865396021303  1474.55603125079 360.185589703883  L 1474.87572838853 359.238069920385  Z M 1478.66775363828 360.491359433519  C 1477.7178134705 360.183923336453  1476.76930928603 359.872067785116  1475.82227190235 359.555802911891  L 1475.50551619636 360.504310066699  C 1476.4554965465 360.821557748978  1477.40694825563 361.134382407191  1478.35984041042 361.442773877444  L 1478.66775363828 360.491359433519  Z M 1482.4750409215 361.697491118462  C 1481.52135844657 361.401868025419  1480.56905699627 361.101807997053  1479.61816751147 360.797320782505  L 1479.3132077427 361.749686016766  C 1480.26705216456 362.0551194407  1481.22231293971 362.356111920758  1482.17895903106 362.652653677482  L 1482.4750409215 361.697491118462  Z M 1486.29700380589 362.856279196062  C 1485.33972591848 362.572514641546  1484.38377388431 362.284296354071  1483.42917876287 361.991633698033  L 1483.13606190393 362.947710319967  C 1484.09362347789 363.241282439978  1485.05254618128 363.530396380337  1486.01279885804 363.815042747527  L 1486.29700380589 362.856279196062  Z M 1490.13305359866 363.967545179453  C 1489.17232774723 363.695682871409  1488.21287237345 363.419350718775  1487.25471865061 363.138557699757  L 1486.97348984998 364.098198445921  C 1487.93462108388 364.37986404342  1488.89705801368 364.657054912167  1489.86076936918 364.929762046057  L 1490.13305359866 363.967545179453  Z M 1493.98259943723 365.031117901544  C 1493.01857360136 364.771199714631  1492.0557626718 364.506796259971  1491.09419793095 364.237916128221  L 1490.824900506 365.200973186196  C 1491.78945335783 365.470688876529  1492.75525627095 365.735913978271  1493.72227786576 365.99663987407  L 1493.98259943723 365.031117901544  Z M 1497.84504838024 366.046833541386  C 1496.87787104776 365.798899510513  1495.9118528632 365.546465479618  1494.94702521308 365.289539650442  L 1494.6897006434 366.255864681597  C 1495.65752654414 366.513588920757  1496.62654667898 366.766807403146  1497.59672956384 367.015511901535  L 1497.84504838024 366.046833541386  Z M 1501.7198054989 367.014535649406  C 1500.7496256431 366.778623963588  1499.78054899821 366.538198238583  1498.81260705021 366.293266285994  L 1498.56729497122 367.262710448336  C 1499.53824484769 367.508403539335  1500.51033294715 367.74957639941  1501.48352768583 367.986221192704  L 1501.7198054989 367.014535649406  Z M 1505.60627396857 367.934075171498  C 1504.63324102517 367.71022216795  1503.66125518583 367.481841781361  1502.69034803096 367.248941431954  L 1502.45708622781 368.221355403054  C 1503.43101052567 368.454979502053  1504.40601686008 368.684069592222  1505.38207355246 368.908618230279  L 1505.60627396857 367.934075171498  Z M 1509.50385516074 368.805310471993  C 1508.52811900497 368.593550630551  1507.55337368507 368.377250759554  1506.57965087112 368.156417886721  L 1506.35847527287 369.131651886713  C 1507.33522397962 369.353171008846  1508.31299836981 369.57014304261  1509.29176667493 369.782560938448  L 1509.50385516074 368.805310471993  Z M 1513.41194873523 369.628107355463  C 1512.43365965866 369.428473293267  1511.45630499716 369.224287254296  1510.4799165056 369.015555872683  L 1510.27086117969 369.993459687334  C 1511.25028384778 370.202839712252  1512.23067568823 370.407660269646  1513.21200484748 370.607914704768  L 1513.41194873523 369.628107355463  Z M 1517.32995273264 370.402339087402  C 1516.34926142007 370.214861553868  1515.36944795785 370.022820797476  1514.39054418073 369.826223057751  L 1514.19364132773 370.806646061602  C 1515.17558709774 371.003854738724  1516.15844537978 371.196492271465  1517.14218424009 371.384552400896  L 1517.32995273264 370.402339087402  Z M 1521.25689395749 371.127134984661  C 1521.03407961645 371.087627742631  1520.81130701004 371.04788548474  1520.58857651004 371.007908277314  C 1519.82886065112 370.870769544264  1519.06964074769 370.730897404785  1518.31093154678 370.588294575741  L 1518.12621149542 371.571085755302  C 1518.88744125278 371.714162334341  1519.6491835184 371.854498565751  1520.41142348992 371.992091722484  C 1520.63500914851 372.032222775042  1520.85863710615 372.072117803803  1521.0823069895 372.111776742159  L 1521.25689395749 371.127134984661  Z M 1525.19357667148 371.799979177479  C 1524.20837302061 371.637877226681  1523.22392914396 371.471190914725  1522.24027702673 371.299925657355  L 1522.06874597126 372.28510437059  C 1523.0554548371 372.456901843391  1524.04295792281 372.624106141479  1525.03122314374 372.78671183227  L 1525.19357667148 371.799979177479  Z M 1529.13830660381 372.423914958928  C 1528.15116704548 372.27405246029  1527.16473030817 372.119596524302  1526.17902844185 371.960552169336  L 1526.01973725523 372.947783812805  C 1527.00850223986 373.107322406133  1527.99800437912 373.262258321738  1528.98821152346 373.412586525655  L 1529.13830660381 372.423914958928  Z M 1533.09047615203 372.998846224859  C 1532.10155273426 372.861246261538  1531.11327507608 372.719044492198  1530.12567528725 372.572245537066  L 1529.97864850492 373.561378048552  C 1530.96931730995 373.708633188848  1531.96066609084 373.851276857364  1532.95266263806 373.989304419517  L 1533.09047615203 372.998846224859  Z M 1537.04947656776 373.524684419234  C 1536.05892161335 373.399368185603  1535.06895525762 373.269442486095  1534.07960966521 373.134911542079  L 1533.94486993356 374.125792566579  C 1534.93728996734 374.260741572295  1535.93033269349 374.391071022472  1536.92396584743 374.516776682625  L 1537.04947656776 373.524684419234  Z M 1541.01469805048 374.001348547769  C 1540.02266413354 373.888335346152  1539.03116156368 373.770705728788  1538.04022255552 373.648463517544  L 1537.91779062835 374.640940430732  C 1538.9118090295 374.763562515817  1539.90639274365 374.881557673155  1540.90150945606 374.994922069  L 1541.01469805048 374.001348547769  Z M 1544.98552984143 374.428765190406  C 1543.99216976384 374.328072428101  1542.99928369997 374.222757011248  1542.0069039093 374.112822361609  L 1541.89679864467 375.106742293345  C 1542.89226230562 375.217018570455  1543.88823381308 375.322661260285  1544.88468080724 375.42366693043  L 1544.98552984143 374.428765190406  Z M 1548.96136031772 374.806868512625  C 1547.96682708568 374.718511699232  1546.97271046089 374.625526704503  1545.97904274291 374.527916549587  L 1545.88128110022 375.523126407465  C 1546.87803669081 375.621039890866  1547.87524258316 375.714313841157  1548.87286637743 375.80294522781  L 1548.96136031772 374.806868512625  Z M 1552.94157708649 375.135600275583  C 1551.94602388685 375.059593020603  1550.95082982391 374.978952770381  1549.95602723215 374.89368214497  L 1549.87062426951 375.890028637899  C 1550.86851826053 375.975564246082  1551.86680493928 376.056455089954  1552.86545187073 376.132698541315  L 1552.94157708649 375.135600275583  Z M 1556.9255670793 375.414909845084  C 1555.92914725605 375.351263855833  1554.93302904359 375.282980771045  1553.93724480643 375.210062809283  L 1553.86421367836 376.207392471097  C 1554.86309236531 376.280537029106  1555.8623060654 376.349032307027  1556.86182231355 376.412876079402  L 1556.9255670793 375.414909845084  Z M 1560.9127166465 375.644754199379  C 1559.91558367709 375.593479279179  1558.91869474611 375.537563877395  1557.92208224311 375.477009810755  L 1557.86143419854 376.475169023852  C 1558.8611437252 376.53591126531  1559.86113053885 376.592000427028  1560.8613621493 376.643434686631  L 1560.9127166465 375.644754199379  Z M 1564.90241165178 375.825097935792  C 1563.90471912353 375.786201982463  1562.90721302375 375.742662876272  1561.90992576205 375.694482031832  L 1561.86167014251 376.693317050833  C 1562.8620565247 376.741647619679  1563.86266242507 376.785322025841  1564.86345533321 376.824338850308  L 1564.90241165178 375.825097935792  Z M 1568.89403756677 375.955913276174  C 1567.89593915316 375.929402280818  1566.89796952935 375.8982461765  1565.90016112002 375.862445975502  L 1565.86430535828 376.861802950937  C 1566.86521450761 376.897714402867  1567.8662853724 376.928967326351  1568.86748542721 376.955560705964  L 1568.89403756677 375.955913276174  Z M 1572.88697956565 376.03718007118  C 1571.88862900271 376.023058117256  1570.89034957104 376.004289813753  1569.89217370544 375.980875770464  L 1569.86872332432 376.980600772464  C 1570.87000107182 377.004087576075  1571.8713827072 377.022914203029  1572.87283569492 377.037080041637  L 1572.88697956565 376.03718007118  Z M 1576.88062261993 376.068885803374  C 1575.8821736825 376.067155066072  1574.88373820688 376.060777454244  1573.88534863293 376.049753175103  L 1573.87430724447 377.049692217116  C 1574.87579936443 377.06075075476  1575.87733752867 377.067148185339  1576.87888919658 377.068884300994  L 1576.88062261993 376.068885803374  Z M 1580.8743515931 376.051025589156  C 1579.87595807119 376.061686335059  1578.87752033955 376.067700397244  1577.87907083811 376.06906758031  L 1577.880440143 377.069066642811  C 1578.88199237667 377.067695211155  1579.88353280394 377.061662459969  1580.88502888414 377.050968585259  L 1580.8743515931 376.051025589156  Z M 1584.86729579908 375.983142613139  C 1584.61635012996 375.989060758274  1584.36539835357 375.994717047924  1584.11444088013 376.000111472843  C 1583.36724952232 376.015616065629  1582.62000641888 376.028517656668  1581.8727251723 376.038816011105  L 1581.88650495963 377.038721065329  C 1582.63623251013 377.028388998143  1583.38592178595 377.015444740039  1584.13555913549 376.999888526726  C 1584.38733615121 376.994476744574  1584.63910744855 376.988802113026  1584.89087261584 376.982864641361  L 1584.86729579908 375.983142613139  Z M 1588.86004764706 375.866864845494  C 1587.86202934421 375.901458992836  1586.86387173236 375.931909975027  1585.86560061286 375.958217004941  L 1585.89194405762 376.957869956179  C 1586.89298171173 376.931490020912  1587.89390554366 376.900954649124  1588.89468968048 376.866264630125  L 1588.86004764706 375.866864845494  Z M 1592.85126768896 375.706395484209  C 1591.85369348428 375.752035313372  1590.85593411538 375.793533773356  1589.85801537332 375.830889791469  L 1589.89542310056 376.8301898775  C 1590.89610740068 376.792730333687  1591.89663188599 376.751116867945  1592.89697069391 376.705350555941  L 1592.85126768896 375.706395484209  Z M 1596.84046682925 375.501754193659  C 1595.84345896835 375.558434111807  1594.84622011066 375.610974964245  1593.84877603387 375.659375392843  L 1593.89724345954 376.658200156577  C 1594.89745177897 376.609665594617  1595.89745431052 376.556979134354  1596.89722520516 376.500142137679  L 1596.84046682925 375.501754193659  Z M 1600.82715622008 375.252966051173  C 1599.83083687913 375.320679112588  1598.8342407372 375.384255918972  1597.8373935553 375.443694826928  L 1597.89691474007 376.44192186952  C 1598.8965245104 376.382318236978  1599.89588254503 376.318565238544  1600.8949630116 376.250664522167  L 1600.82715622008 375.252966051173  Z M 1604.81084732111 374.960061543962  C 1603.81533859195 375.03879945089  1602.81950729148 375.113404420338  1601.823379161 375.183874523838  L 1601.89394681097 376.181381519692  C 1602.89283553716 376.110716120568  1603.89142661071 376.035904396435  1604.88969421901 375.956948281104  L 1604.81084732111 374.960061543962  Z M 1608.79105195944 374.623076565381  C 1607.79647583455 374.712829669055  1606.80153140757 374.79845365926  1605.8062443969 374.879946322696  L 1605.88784986451 375.87661103445  C 1606.88589513987 375.794892528283  1607.88359688211 375.709031246097  1608.88092930159 375.61902940732  L 1608.79105195944 374.623076565381  Z M 1612.7672823894 374.242052410534  C 1611.77376074699 374.342809712352  1610.77982511685 374.439442230705  1609.78550119129 374.531947467733  L 1609.87813447637 375.527647761243  C 1610.87521399759 375.434886162053  1611.87190414729 375.337985843499  1612.86817916199 375.23694931036  L 1612.7672823894 374.242052410534  Z M 1616.73905135235 373.817035771212  C 1615.74670594139 373.928784924085  1614.7539009078 374.036414128961  1613.76066191466 374.139920603725  L 1613.86431166566 375.134534463027  C 1614.86030324777 375.030741138087  1615.85585966767 374.922813657608  1616.85095519119 374.810754811411  L 1616.73905135235 373.817035771212  Z M 1620.70587213636 373.348078730169  C 1619.71482456169 373.470806040038  1618.72327178584 373.589418742243  1617.73123943945 373.703913770765  L 1617.84589295484 374.697319313032  C 1618.84067454617 374.582506981472  1619.83497523794 374.46356556481  1620.82876932843 374.340498137568  L 1620.70587213636 373.348078730169  Z M 1624.66725863585 372.835238754742  C 1623.67763034329 372.96892918225  1622.68745133288 373.098510846647  1621.69674719973 373.223980398377  L 1621.82239042954 374.216055888853  C 1622.81584012672 374.090238620102  1623.80876324588 373.960297842682  1624.80113412098 373.826236915427  L 1624.66725863585 372.835238754742  Z M 1628.6227254112 372.278578689809  C 1627.63463767264 372.423215852147  1626.645953767 372.563750599431  1625.65669925083 372.70017929897  L 1625.79331679837 373.690803165886  C 1626.78531286122 373.553996377956  1627.77673673218 373.413072163086  1628.7675627839 373.268034164031  L 1628.6227254112 372.278578689809  Z M 1632.57178774818 371.678166750086  C 1631.5853616467 371.833732923007  1630.59829400204 371.985203531641  1629.6106103289 372.132574660629  L 1629.75818545267 373.121625510102  C 1630.74860631916 372.973845967687  1631.73840944998 372.821955584627  1632.72756925967 372.665958287141  L 1632.57178774818 371.678166750086  Z M 1636.51396171741 371.034076511771  C 1635.5293181325 371.200552631746  1634.54398770687 371.362940540097  1633.55799591037 371.52123603925  L 1633.71651052609 372.50859267016  C 1634.70523482723 372.349858482585  1635.69329592457 372.187020544421  1636.68066827778 372.020083064858  L 1636.51396171741 371.034076511771  Z M 1639.09645975786 370.587794750665  C 1638.56397322805 370.681806546763  1638.03127605344 370.77462131436  1637.49837227131 370.866238350018  L 1637.66780695415 371.851779768858  C 1638.6547135288 371.682110387869  1639.64091151289 371.508344849219  1640.62637541415 371.33048764458  L 1639.09645975786 370.587794750665  Z M 1402.80876977873 325.161166221306  C 1401.95905615424 324.636548222942  1401.11152400711 324.108405117344  1400.26619524518 323.576750556473  L 1399.73380475482 324.423249443527  C 1400.58147619825 324.956377392455  1401.4313571332 325.485984154736  1402.28342559107 326.012056040549  L 1402.80876977873 325.161166221306  Z M 1640.73232888015 378.558256745575  L 1650 369  L 1637.71681766979 363.864493029624  L 1640.73232888015 378.558256745575  Z " fill-rule="nonzero" fill="#1f8aee" stroke="none" />
  </g>
</svg>