<?xml version="1.0" encoding="utf-8"?>
<svg version="1.1" xmlns:xlink="http://www.w3.org/1999/xlink" width="344px" height="26px" viewBox="1322 408  344 26" xmlns="http://www.w3.org/2000/svg">
  <g transform="matrix(0.994521895368273 -0.104528463267653 0.104528463267657 0.994521895368271 -35.8221947158838 158.471806171832 )">
    <path d="M 1011.0237483526 501.395777531554  C 1010.12907437775 501.843693014908  1009.23511926899 502.293042936646  1008.34188647465 502.743825563446  L 1008.79242817078 503.636580949904  C 1009.68470653207 503.186279991308  1010.57770643581 502.737410206993  1011.47142443769 502.289973328255  L 1011.0237483526 501.395777531554  Z M 1014.60626345489 499.611773301817  C 1013.70968222456 500.055858765102  1012.81381371932 500.501381727903  1011.91866139545 500.948340471386  L 1012.36538125207 501.84301436153  C 1013.25957709184 501.396533200373  1014.15448834756 500.951486285828  1015.050111567 500.507875334725  L 1014.60626345489 499.611773301817  Z M 1018.19637479769 497.843105414345  C 1017.29790270756 498.28335273661  1016.40013718907 498.725040592961  1015.50308170524 499.168167279634  L 1015.94597155313 500.064743312461  C 1016.84206851921 499.622090113548  1017.73887476139 499.180874207491  1018.63638682011 498.741097296339  L 1018.19637479769 497.843105414345  Z M 1021.79401672822 496.089806212967  C 1020.89367020886 496.526207343314  1019.99402409446 496.964052016111  1019.09508185532 497.403338542419  L 1019.5341335953 498.301800322141  C 1020.43211530076 497.862983180276  1021.33080012921 497.425606351363  1022.2301846144 496.989671522368  L 1021.79401672822 496.089806212967  Z M 1025.399123456 494.351907760465  C 1024.49691897223 494.784454718332  1023.59540871367 495.21844820075  1022.69459615838 495.653886533366  L 1023.12980176146 496.55421762971  C 1024.02965178471 496.119244569638  1024.93019876526 495.685714816136  1025.83143922969 495.253630041335  L 1025.399123456 494.351907760465  Z M 1029.01162905402 492.629441837986  C 1028.10758310447 493.058126713383  1027.20422518797 493.488261068843  1026.30155878968 493.919843244901  L 1026.73291029721 494.822027193411  C 1027.6346121825 494.390906169578  1028.53700484694 493.961231419407  1029.44008480942 493.533004600425  L 1029.01162905402 492.629441837986  Z M 1032.63146746 490.92243994446  C 1031.72559657696 491.347254898021  1030.8204075225 491.773522260519  1029.91590378829 492.201240387673  L 1030.3433933121 493.105260690007  C 1031.24693057 492.677999586327  1032.15115241598 492.252187697088  1033.05605536188 491.827826664914  L 1032.63146746 490.92243994446  Z M 1036.25857247753 489.230933296023  C 1035.35089322686 489.651870559065  1034.44388958755 490.074263133491  1033.53756505827 490.498109389965  L 1033.96118478081 491.403949514202  C 1034.86654088823 490.980556144048  1035.77257538014 490.55861490261  1036.67928476141 490.138127417583  L 1036.25857247753 489.230933296023  Z M 1039.89287777732 487.554952825452  C 1038.98340675787 487.972004700248  1038.07460512019 488.390514762259  1037.1664763699 488.810481397129  L 1037.58621854438 489.718124778067  C 1038.49337694497 489.298606884082  1039.40120751407 488.880544006533  1040.30970674959 488.463937758155  L 1039.89287777732 487.554952825452  Z M 1043.53431689844 485.894529181591  C 1042.62307074179 486.307688041464  1041.7124877251 486.722307937722  1040.80257136086 487.138387271009  L 1041.21842831141 488.047817310472  C 1042.12737241586 487.632182564426  1043.03698246053 487.21800569593  1043.94725493649 486.805288302726  L 1043.53431689844 485.894529181591  Z M 1047.18282324945 484.249692728795  C 1046.26981861967 484.658951018264  1045.35747087591 485.069673166566  1044.44578353746 485.481857589381  L 1044.85774765926 486.393057656517  C 1045.76846084561 485.981313659171  1046.67983373172 485.571030373827  1047.59186280185 485.162209383208  L 1047.18282324945 484.249692728795  Z M 1050.83833010973 482.620473546377  C 1049.92358370304 483.025823781289  1049.00948791641 483.432640670711  1048.09604627588 483.840922645391  L 1048.50411003529 484.753876076981  C 1049.41657564922 484.346030357944  1050.32969471038 483.939648158649  1051.24346369631 483.534731046771  L 1050.83833010973 482.620473546377  Z M 1054.50077063059 481.006901428052  C 1053.58429917505 481.40833619572  1052.66847206173 481.811240386758  1051.75329282334 482.215612447003  L 1052.15744875806 483.130302547765  C 1053.0716501132 482.726362565357  1053.98649865111 482.323888883669  1054.90199084263 481.922883055296  L 1054.50077063059 481.006901428052  Z M 1058.17007783657 479.409005881398  C 1057.25189809181 479.806517840739  1056.33435639963 480.205501965437  1055.41745629935 480.60595671645  L 1055.81769701853 481.52236675934  C 1056.73361739679 481.122339900459  1057.6501786815 480.72378209646  1058.56737733691 480.326694884832  L 1058.17007783657 479.409005881398  Z M 1061.84618462663 477.826816127311  C 1060.92631338351 478.220398008979  1060.00707389166 478.615454771069  1059.08846969695 479.011984889688  L 1059.48478788134 479.930098116213  C 1060.40241053327 479.533991696154  1061.32066780334 479.139357058397  1062.23955614982 478.746195725052  L 1061.84618462663 477.826816127311  Z M 1065.52902377539 476.260361099475  C 1064.60747785569 476.650005705994  1063.68655737441 477.041127881028  1062.7662658839 477.433726115862  L 1063.15865428598 478.353525736381  C 1064.07796243072 477.961346998869  1064.99789889425 477.570642743919  1065.91846012779 477.181414478724  L 1065.52902377539 476.260361099475  Z M 1069.21852793435 474.709669443832  C 1068.29532419049 475.095369649727  1067.37273956075 475.482550085209  1066.45077760391 475.871209256769  L 1066.83922904804 476.792678450802  C 1067.76020587419 476.404434567613  1068.68180470801 476.017667840405  1069.6040219943 475.632379761181  L 1069.21852793435 474.709669443832  Z M 1072.91462963313 473.174769518057  C 1071.98978494784 473.556518269983  1071.06555304106 473.9397498855  1070.14193747791 474.324462886333  L 1070.52644486043 475.247584802867  C 1071.44907352598 474.863282873861  1072.3723178767 474.480460747242  1073.29617435105 474.099119899797  L 1072.91462963313 473.174769518057  Z M 1076.6172612807 471.655689391037  C 1075.69079256672 472.033479707912  1074.76493028442 472.412755495266  1073.83967800523 472.79351529008  L 1074.22023429461 473.71827304788  C 1075.14449792735 473.337920100831  1076.0693709115 472.959049575513  1076.99484967924 472.581662933469  L 1076.6172612807 471.655689391037  Z M 1080.3263551666 470.152456842366  C 1079.39827936638 470.526281815495  1078.47080363992 470.901594838825  1077.54393156487 471.278394464623  L 1077.92052980184 472.204771152539  C 1078.84641149965 471.828374143004  1079.77289620397 471.453462147435  1080.69998034077 471.080036612105  L 1080.3263551666 470.152456842366  Z M 1084.04184346223 468.665099361826  C 1083.11217754758 469.03495215503  1082.18310533782 469.406295550944  1081.25463041673 469.779128117149  L 1081.62726371439 470.707106794425  C 1082.55474654557 470.334672605618  1083.48282602734 469.963725995857  1084.41149857949 469.594268396117  L 1084.04184346223 468.665099361826  Z M 1087.76365822202 467.193644148894  C 1086.83241919386 467.559517998633  1085.90176749083 467.926884976332  1084.97170670284 468.295743664911  L 1085.34036824679 469.225307361496  C 1086.26943525036 468.856842804165  1087.19909253768 468.489868363754  1088.12933652245 468.124385455916  L 1087.76365822202 467.193644148894  Z M 1091.49173138473 465.738118112237  C 1090.55893627272 466.100006327734  1089.62672209537 466.463390169137  1088.69509244859 466.828268234731  L 1089.05977549709 467.759399951587  C 1089.9904096831 467.394911763884  1090.92162777521 467.031916203726  1091.85342618112 466.670414671418  L 1091.49173138473 465.738118112237  Z M 1095.22599477465 464.298547869227  C 1094.29166063693 464.656443832591  1093.35790103276 465.015837892456  1092.42471956402 465.376728662497  L 1092.78541744806 466.309411371914  C 1093.71760179789 465.948906219276  1094.6503636655 465.589896177513  1095.58369945266 465.232382631554  L 1095.22599477465 464.298547869227  Z M 1098.96638010289 462.874959745447  C 1098.03052402573 463.228856911794  1097.09523607051 463.584254617841  1096.160519845 463.941151492679  L 1096.51722596847 464.875368138581  C 1097.45094343524 464.51885261357  1098.38523202065 464.163834655533  1099.32008812113 463.810315633778  L 1098.96638010289 462.874959745447  Z M 1102.71281896859 461.467379774216  C 1101.7754580661 461.817271671788  1100.83865886355 462.168666524819  1099.90242497453 462.52156297784  L 1100.25513281429 463.457296476102  C 1101.19036632283 463.104777098432  1102.12616454098 462.753757716227  1103.06252385876 462.404239683591  L 1102.71281896859 461.467379774216  Z M 1106.46524286021 460.075833696108  C 1105.52639427411 460.421713926357  1104.58810095538 460.769099500446  1103.65036652397 461.117989078157  L 1103.99906963002 462.055222316913  C 1104.9358020777 461.706705533108  1105.87309281534 461.359691145941  1106.81093822721 461.014180494064  L 1106.46524286021 460.075833696108  Z M 1110.22358315674 458.700346958485  C 1109.28326405567 459.04220919633  1108.34349377982 459.385579138655  1107.40427595428 459.730455460944  L 1107.74896794984 460.669171300904  C 1108.68718220663 460.324663484296  1109.62594832323 459.981660438128  1110.5652626788 459.640163485367  L 1110.22358315674 458.700346958485  Z M 1113.98777112898 457.340944715029  C 1113.04599870885 457.678782708727  1112.10476866119 458.018130740183  1111.16408461729 458.358987500187  L 1111.50475919895 459.299168774948  C 1112.44443810741 458.95867622566  1113.38466243604 458.619690792886  1114.32542855778 458.282213784305  L 1113.98777112898 457.340944715029  Z M 1117.7577379408 455.997651825283  C 1116.81452942372 456.331459396822  1115.87185681702 456.666779311574  1114.92972375696 457.003610276076  L 1115.26637469476 457.945239792436  C 1116.20750107099 457.60876873706  1117.14916641745 457.273807116814  1118.09136710155 456.94035622386  L 1117.7577379408 455.997651825283  Z M 1121.53341465039 454.670492854198  C 1120.58878728502 455.000263899165  1119.64468935784 455.331549565249  1118.70112451062 455.664348574549  L 1119.03374564818 456.607409112821  C 1119.97630228168 456.274965704441  1120.91939142565 455.944034022206  1121.86300944198 455.614615342731  L 1121.53341465039 454.670492854198  Z M 1125.31473221151 453.359492071679  C 1124.36870327236 453.685220559515  1123.42319728954 454.012465918672  1122.47821791023 454.341226886836  L 1122.80680316488 455.285701201166  C 1123.75077281901 454.957291519212  1124.6952685141 454.630395826773  1125.64028660661 454.305015384895  L 1125.31473221151 453.359492071679  Z M 1129.1016214748 452.064673452148  C 1128.154208262 452.386353426218  1127.2073115141 452.709552494076  1126.26093488365 453.034269409014  L 1126.58547824651 453.980140227693  C 1127.5308436588 453.65577027783  1128.47672863291 453.332916553166  1129.42312951994 453.011580299154  L 1129.1016214748 452.064673452148  Z M 1132.89401318897 450.786060674099  C 1131.94523302807 451.103686251772  1130.99696283091 451.422833118019  1130.04920625592 451.743500041564  L 1130.36970179202 452.690750067343  C 1131.31644567446 452.370425781362  1132.26370263008 452.051619928536  1133.21146900471 451.734333738702  L 1132.89401318897 450.786060674099  Z M 1136.69183800212 449.52367711967  C 1135.74170824348 449.837242492525  1134.79208193838 450.152331320818  1133.84296275048 450.46894238893  L 1134.15940459888 451.417554299342  C 1135.10750963836 451.101281535017  1136.05612125271 450.786529384132  1137.00523578311 450.473299060692  L 1136.69183800212 449.52367711967  Z M 1140.49502646299 448.277545874212  C 1139.54356448165 448.587045308075  1138.59259943473 448.898070336285  1137.64213499047 449.210619759095  L 1137.95451736437 450.160576206766  C 1138.90396622259 449.848360747877  1139.85391514868 449.537668054712  1140.80436047809 449.22849932581  L 1140.49502646299 448.277545874212  Z M 1144.30350902226 447.04768972587  C 1143.3507322178 447.353117560856  1142.39844581927 447.660073101299  1141.4466535 447.968555163147  L 1141.75497068683 448.919838776114  C 1142.7057460013 448.611686332117  1143.65701486692 448.305058778473  1144.60877361464 447.999957297848  L 1144.30350902226 447.04768972587  Z M 1148.11721603377 445.834131165161  C 1147.16314182973 446.135481815878  1146.20955149415 446.438362255222  1145.2564487054 446.742771314861  L 1145.56069506694 447.695364696894  C 1146.51277945052 447.391280903072  1147.46535086011 447.088724096154  1148.41840562101 446.787695443296  L 1148.11721603377 445.834131165161  Z M 1151.93607775582 444.63689238457  C 1150.98072359946 444.934160340184  1150.02584676525 445.23296013962  1149.07145093653 445.533290630288  L 1149.37162090898 446.487176361203  C 1150.3249969509 446.187166778337  1151.27885348447 445.888686251101  1152.23318683004 445.591735930922  L 1151.93607775582 444.63689238457  Z M 1155.76002435245 443.455995278138  C 1154.80340771444 443.749175102477  1153.84726184355 444.043888797819  1152.891590428 444.340135227337  L 1153.18767852211 445.295295863317  C 1154.14232878788 444.999365977719  1155.09745300215 444.70496718851  1156.05304748039 444.412100631376  L 1155.76002435245 443.455995278138  Z M 1159.58898589472 442.291461441065  C 1158.63112426883 442.580547772715  1157.67372684639 442.871169974501  1156.71679732049 443.163326925377  L 1157.00879812166 444.119744999292  C 1157.96470515349 443.827900222663  1158.92107958199 443.537588555187  1159.87791771783 443.248811116781  L 1159.58898589472 442.291461441065  Z M 1163.42289236197 441.143312169314  C 1162.46380326471 441.42829972172  1161.50517179878 441.714825115308  1160.54700166199 442.002887244835  L 1160.83490983039 442.960545266558  C 1161.79205614748 442.672790935898  1162.74966330089 442.386571699117  1163.70772759652 442.101888660345  L 1163.42289236197 441.143312169314  Z M 1167.26305919254 440.014248214082  C 1166.3023759203 440.294046603637  1165.34219646972 440.575571965453  1164.38252549647 440.858822934486  L 1164.66560674005 441.817918867921  C 1165.6241281503 441.535007197297  1166.58315742882 441.253819066825  1167.54268992545 440.97435583993  L 1167.26305919254 440.014248214082  Z M 1171.10845942738 438.904270946792  C 1170.14644574726 439.179460277286  1169.18492760332 439.456378975685  1168.2239096577 439.735025699283  L 1168.50238941474 440.695467797965  C 1169.46225618385 440.417154857479  1170.42262255215 440.140567872231  1171.38348386301 439.865708183334  L 1171.10845942738 438.904270946792  Z M 1174.95913707706 437.812742597033  C 1173.99581510175 438.083316543007  1173.03298036574 438.355622212781  1172.07063753757 438.629658286016  L 1172.34450940697 439.591424473377  C 1173.30569947159 439.317716660286  1174.26738085485 439.045737177845  1175.22954889372 438.775487344828  L 1174.95913707706 437.812742597033  Z M 1178.81500363051 436.7396882545  C 1177.85039550267 437.005640596614  1176.88626630636 437.273326978533  1175.92262071579 437.542746102482  L 1176.19187840238 438.50581427152  C 1177.15436966886 438.2367178772  1178.11734396182 437.969352149298  1179.08079661258 437.703718384053  L 1178.81500363051 436.7396882545  Z M 1182.67597045741 435.685132584249  C 1181.71009834947 435.946457209336  1180.74469685398 436.20951815046  1179.77977065131 436.474314132271  L 1180.04440796597 437.438662146055  C 1181.00817831054 437.174183355941  1181.97242337863 436.911437528148  1182.9371384954 436.650425936517  L 1182.67597045741 435.685132584249  Z M 1186.54194881018 434.649099826126  C 1185.57483492363 434.905790727394  1184.60818331932 435.1642201811  1183.6419986843 435.424386934188  L 1183.90200954412 436.389992626371  C 1184.8670368137 436.130137519729  1185.83253049294 435.872017631478  1186.79848590093 435.615634213031  L 1186.54194881018 434.649099826126  Z M 1190.41284982608 433.631613794215  C 1189.44451639074 433.883665071434  1188.47663689711 434.13745709745  1187.50921603819 434.392988641691  L 1187.76459446661 435.359829817014  C 1188.73085647915 435.104604366859  1189.69757657705 434.851116351201  1190.66475007287 434.599366999153  L 1190.41284982608 433.631613794215  Z M 1194.2885845292 432.632697876284  C 1193.31905380302 432.880103735846  1192.34996866759 433.129252500549  1191.38133382177 433.380142962336  L 1191.63207394869 434.348197397144  C 1192.59954849394 434.09760747002  1193.56747278943 433.848757153642  1194.53584214189 433.601647654636  L 1194.2885845292 432.632697876284  Z M 1198.16906383252 431.652375033256  C 1197.19835810098 431.895129788328  1196.22808959899 432.139629564825  1195.25826303114 432.385873177231  L 1195.50435909309 433.355118619979  C 1196.47302393294 433.10916997588  1197.44213017727 432.864963078867  1198.41167312769 432.622499112897  L 1198.16906383252 431.652375033256  Z M 1202.05419853997 430.690667798673  C 1201.08234011555 430.928765869334  1200.11091054943 431.168611037592  1199.13991455183 431.4102021405  L 1199.3813608921 432.38061631227  C 1200.35119376077 432.139314604583  1201.32145967862 431.899756740133  1202.29215394103 431.661943880488  L 1202.05419853997 430.690667798673  Z M 1205.94389934846 429.747598278184  C 1204.97091057015 429.98103419155  1203.99834226903 430.216219238526  1203.02619916084 430.453152278762  L 1203.26299022957 431.424712873769  C 1204.23396883484 431.188063648966  1205.20537212343 430.953160323618  1206.17719538581 430.720004036576  L 1205.94389934846 429.747598278184  Z M 1209.83807684995 428.823188149033  C 1208.86398008272 429.051956539383  1207.8902954019 429.282476059152  1206.91702752864 429.514745590611  L 1207.14915788299 430.487430276719  C 1208.1212599059 430.255438974431  1209.09377823712 430.025195587537  1210.0667081611 429.796701232439  L 1209.83807684995 428.823188149033  Z M 1213.73664153352 427.917458659562  C 1212.76145916779 428.141554268463  1211.78668048822 428.367402962341  1210.81231022128 428.595003646113  L 1211.03977452554 429.568790065348  C 1212.01297762161 429.341462018065  1212.9865886411 429.115883862011  1213.96060286317 428.892056690969  L 1213.73664153352 427.917458659562  Z M 1217.63950378737 427.030430628725  C 1216.66325823853 427.249848305151  1215.68740796633 427.471020981815  1214.71195770241 427.693947586308  L 1214.93475072813 428.668813355371  C 1215.90903252757 428.446153788396  1216.88371385587 428.225246048332  1217.85878998759 428.006091206177  L 1217.63950378737 427.030430628725  Z M 1221.54657390095 426.162124445604  C 1220.56928760882 426.376859146056  1219.59238817472 426.593350721667  1218.61588033538 426.811598122725  L 1218.83399696146 427.78752083351  C 1219.80933506939 427.569534864906  1220.78506430302 427.353302618489  1221.76117993125 427.138825142725  L 1221.54657390095 426.162124445604  Z M 1225.45776206696 425.312560068947  C 1224.47945749529 425.522606857568  1223.50153135414 425.734412355884  1222.52398838523 425.947975536908  L 1222.73742359809 426.924932757011  C 1223.71379559574 426.711625397324  1224.69055030635 426.500073614923  1225.66768299446 426.290278435451  L 1225.45776206696 425.312560068947  Z M 1229.37297838347 424.481757026704  C 1228.39367801941 424.687111075391  1227.41474764966 424.894225627887  1226.43619202082 425.103099679947  L 1226.64494091447 426.081068953187  C 1227.62232435901 425.872445105487  1228.60008209528 425.665578649754  1229.57820938294 425.460470588914  L 1229.37297838347 424.481757026704  Z M 1233.29213285593 423.669734415579  C 1232.31185920952 423.870391004098  1231.33194711273 424.072809850071  1230.35240131688 424.276989972022  L 1230.55645909304 425.255948818954  C 1231.53483151839 425.052013278657  1232.51356980594 424.849836904549  1233.49266920999 424.649420676942  L 1233.29213285593 423.669734415579  Z M 1237.21513539931 422.876510900594  C 1236.23391100286 423.072465416705  1235.25303970331 423.270183903347  1234.27252625604 423.469665401959  L 1234.47188822428 424.449591320392  C 1235.45122714193 424.250348775086  1236.43092348323 424.052867129879  1237.41097249844 423.8571473422  L 1237.21513539931 422.876510900594  Z M 1241.14189584008 422.102104714658  C 1240.15974324807 422.293352654141  1239.17793529151 422.486366236809  1238.19647673094 422.68114452679  L 1238.39113830876 423.662014992305  C 1239.37142120758 423.467470021787  1240.3520530839 423.274687644683  1241.33302918281 423.083668795755  L 1241.14189584008 422.102104714658  Z M 1245.07232391837 421.346533658147  C 1244.08926570629 421.533070625027  1243.1065436606 421.721374867101  1242.12416254628 421.911445471329  L 1242.31411925922 422.893237937796  C 1243.29532360669 422.703395013825  1244.27686847717 422.515316336127  1245.25874911134 422.329002816659  L 1245.07232391837 421.346533658147  Z M 1249.00632928999 420.609815098494  C 1248.02238805415 420.791636805083  1247.03877450824 420.975227378193  1246.05549342092 421.160585927756  L 1246.24074090266 422.143277827849  C 1247.22284414498 421.958141314125  1248.20527944798 421.774770658981  1249.18804204805 421.593166751545  L 1249.00632928999 420.609815098494  Z M 1252.94382152852 419.891965969796  C 1251.95901988585 420.069068236731  1250.97453744848 420.24794092097  1249.99037898991 420.428583155207  L 1250.17091298238 421.412151900929  C 1251.15389254507 421.231726052969  1252.13719569851 421.053067635307  1253.12081767486 420.876177514222  L 1252.94382152852 419.891965969796  Z M 1256.88471012739 419.193002772416  C 1255.89907071418 419.365381528889  1254.91374201491 419.539532212645  1253.9287288066 419.71545397938  L 1254.10454516008 420.699876962578  C 1255.08837844854 420.524165927622  1256.07252685036 420.350223854055  1257.0569855936 420.178051585289  L 1256.88471012739 419.193002772416  Z M 1260.82890450198 418.512941572611  C 1259.84244997418 418.680592856316  1258.85629766122 418.85001753666  1257.87045234472 419.021214792148  L 1258.04154701792 420.006469385033  C 1259.02621141801 419.835477201929  1260.01118244653 419.666255470698  1260.99645532817 419.498805011756  L 1260.82890450198 418.512941572611  Z M 1264.77631399167 417.851798002157  C 1263.78906702366 418.014717959507  1262.80211376475 418.179412742035  1261.81545900044 418.345881551181  L 1261.98182806061 419.331945106849  C 1262.96730093879 419.165675706032  1263.95307195404 419.001178206769  1264.93913632654 418.838453406677  L 1264.77631399167 417.851798002157  Z M 1268.72684786194 417.209587257995  C 1267.73883114642 417.367772144137  1266.75109962751 417.527733243202  1265.76365809447 417.68946977958  L 1265.92529771748 418.676319632534  C 1266.91155642194 418.514776835827  1267.89810476493 418.355007349681  1268.88493796288 418.197011948786  L 1268.72684786194 417.209587257995  Z M 1272.68041530645 416.586324101877  C 1271.69165155381 416.7397702808  1270.70316447874 416.894994019562  1269.71495887415 417.051994565522  L 1269.87186534457 418.039608032188  C 1270.85888720532 417.882795552788  1271.84619019941 417.727757752195  1272.83376953963 417.574495382155  L 1272.68041530645 416.586324101877  Z M 1276.63692544913 415.982022860031  C 1275.64743738684 416.130726804661  1274.65821747701 416.281209615139  1273.66927051551 416.433470561909  L 1273.82144022672 417.421824941163  C 1274.80920255623 417.269746383537  1275.79723750744 417.11944383217  1276.78554028957 416.970918015849  L 1276.63692544913 415.982022860031  Z M 1280.59628734628 415.396697422828  C 1279.60609771865 415.540655715063  1278.61616771192 415.686394138317  1277.62650212538 415.833911986034  L 1277.77393157962 416.822984559722  C 1278.76241167345 416.675643419507  1279.75115587076 416.530079572227  1280.74015937795 416.386293723601  L 1280.59628734628 415.396697422828  Z M 1284.55840998864 414.830361244463  C 1283.56754155602 414.969570575302  1282.57692420675 415.110561261412  1281.58656274347 415.253332619254  L 1281.72924855196 416.243100652712  C 1282.71842368896 416.100500316684  1283.70785440545 415.959678519367  1284.69753590452 415.82063594349  L 1284.55840998864 414.830361244463  Z M 1288.5232023035 414.283027342651  C 1287.53167784192 414.417484512236  1286.54039592009 414.55372422044  1285.54936134445 414.691745806674  L 1285.68730022744 415.682186549254  C 1286.67714767049 415.544330295215  1287.66724216348 415.40825378474  1288.65757890566 415.273957677636  L 1288.5232023035 414.283027342651  Z M 1292.49057315678 413.754708298318  C 1291.49841545717 413.884410216053  1290.50649174841 414.015895814739  1289.51480684009 414.149164456838  L 1289.64799562693 415.140255142426  C 1290.63849262375 415.007146139091  1291.62922813468 414.875818043347  1292.62019735645 414.746271491897  L 1292.49057315678 413.754708298318  Z M 1296.46043135513 413.245416255324  C 1295.46766322306 413.3703599399  1294.47512052759 413.497088406761  1293.48280808128 413.625601041433  L 1293.61124371051 414.617318888979  C 1294.60236749361 414.488960195983  1295.5937212498 414.362383533629  1296.5853001728 414.237589515582  L 1296.46043135513 413.245416255324  Z M 1300.43268564802 412.755162920171  C 1299.43932990301 412.875345499667  1298.44619103544 412.997313921717  1297.45327386019 413.121067595003  L 1297.57695337962 414.113389809041  C 1298.56868116718 413.989784376817  1299.56063038151 413.867962057323  1300.55279621348 413.747923441175  L 1300.43268564802 412.755162920171  Z M 1304.40724472986 412.283959561745  C 1303.41332420522 412.399378273638  1302.41961199329 412.516583847381  1301.42611291232 412.635575714675  L 1301.54503347907 413.628479485845  C 1302.5373424754 413.509630155567  1303.5298643471 413.392564979121  1304.52259428227 413.277284524061  L 1304.40724472986 412.283959561745  Z M 1308.38401724208 411.831817011051  C 1307.3895547838 411.942469202357  1306.39529206902 412.054909233699  1305.40123391865 412.169136559885  L 1305.51539279923 413.162599065461  C 1306.50826019526 413.048508568981  1307.50133191039 412.936203226425  1308.49460313002 412.825683582271  L 1308.38401724208 411.831817011051  Z M 1312.36291177521 411.398745660963  C 1311.36793024185 411.50462878825  1310.37313987818 411.612300692663  1309.37854550767 411.72176085213  L 1309.48794007804 412.715759256542  C 1310.48134305179 412.606430216337  1311.47494178395 412.498887289081  1312.46873145678 412.39313099623  L 1312.36291177521 411.398745660963  Z M 1316.34383687103 410.984755465992  C 1315.34835913308 411.085867095446  1314.35306398661 411.188768398001  1313.35795625754 411.293458874716  L 1313.46258400318 412.287970330076  C 1314.45649972065 412.183405259143  1315.45060263074 412.080627219197  1316.44488791387 411.979636708524  L 1316.34383687103 410.984755465992  Z M 1320.32670102463 410.589855942049  C 1319.33074996397 410.686193749535  1318.3349729124 410.784322084959  1317.33937469816 410.884240472523  L 1317.43923321411 411.879242119151  C 1318.43363882921 411.779443421017  1319.42822306715 411.681432630797  1320.422981106 411.585210223665  L 1320.32670102463 410.589855942049  Z M 1324.31141268653 410.214056166231  C 1323.31501119595 410.305617937343  1322.31877512804 410.398971050074  1321.3227093133 410.494115051779  L 1321.41779630423 411.489584018727  C 1322.41266895971 411.394553987349  1323.40771166413 411.301312699716  1324.40291959336 411.209860607878  L 1324.31141268653 410.214056166231  Z M 1328.29851731711 409.858951048767  C 1327.75093052308 409.906076215361  1327.20339040086 409.953742137148  1326.65589775128 410.001948744413  C 1326.2065220214 410.041965428784  1325.75717880395 410.08234638722  1325.30786854265 410.123091579845  L 1325.3981818229 411.119004985423  C 1325.8467892198 411.078323531261  1326.29542950909 411.038005608098  1326.74410224839 410.99805125569  C 1327.29077441376 410.949917219573  1327.83749396617 410.902322896049  1328.38426010627 410.855268354704  L 1328.29851731711 409.858951048767  Z M 1332.28698227059 409.525334779736  C 1331.28966773903 409.606348442182  1330.29249966659 409.689155096313  1329.29548288828 409.773754340621  L 1329.38003144029 410.770173701309  C 1330.3758539201 410.685675796068  1331.37182751284 410.602968333708  1332.36794738923 410.522051715261  L 1332.28698227059 409.525334779736  Z M 1336.27700085517 409.210844406651  C 1335.27930937853 409.287075671898  1334.28175576311 409.365100610398  1333.2843448458 409.444918843829  L 1333.36411525173 410.441732107353  C 1334.36033139852 410.362009485942  1335.3566900722 410.284078011346  1336.35318644224 410.207938061391  L 1336.27700085517 409.210844406651  Z M 1340.26848135692 408.915487158339  C 1339.27043586798 408.986934274147  1338.27251963919 409.060175703548  1337.2747375092 409.135211091412  L 1337.34972793547 410.132395345183  C 1338.34631485017 410.057449840109  1339.34303570306 409.984296144565  1340.33988566125 409.912934613258  L 1340.26848135692 408.915487158339  Z M 1344.26133202833 408.639269823833  C 1343.26295546799 408.70593114793  1342.26469956378 408.774387384716  1341.26656915597 408.844638202262  L 1341.33677787886 409.842170525162  C 1342.33371265429 409.772003859096  1343.33077277552 409.703629624134  1344.32795340862 409.637048151764  L 1344.26133202833 408.639269823833  Z M 1348.25546109037 408.382198752221  C 1347.25677640716 408.444072752341  1346.25820377326 408.507742222986  1345.2597480305 408.573206855441  L 1345.32517343621 409.571064318353  C 1346.32243315678 409.505678104149  1347.31980962849 409.442084901378  1348.31729801526 409.380285018392  L 1348.25546109037 408.382198752221  Z M 1352.25077673462 408.144279852496  C 1351.25180688415 408.201365106413  1350.2529404736 408.260246347423  1349.25418234623 408.320923290027  L 1349.31482293089 409.319082956359  C 1350.31238467386 409.258478696967  1351.31005457031 409.199667988146  1352.30782778275 409.142651115057  L 1352.25077673462 408.144279852496  Z M 1356.2471871254 407.925518593425  C 1355.24795506983 407.977813788987  1354.24881784242 408.031905446926  1353.24978028773 408.087793304968  L 1353.30563465747 409.086232231183  C 1354.30347549314 409.030411319636  1355.30141588185 408.976384456589  1356.29945098541 408.924151903974  L 1356.2471871254 407.925518593425  Z M 1360.24460040187 407.725920003419  C 1359.24512910938 407.773423938576  1358.24574403112 407.822724770103  1357.24645001282 407.873822258954  L 1357.29751688379 408.872517495094  C 1358.29561387585 408.82148121449  1359.29380181853 408.772239439058  1360.29207587243 408.724792407531  L 1360.24460040187 407.725920003419  Z M 1364.24292468013 407.545488670419  C 1363.24323712442 407.588200253253  1362.24362716699 407.632709125147  1361.24409965471 407.679015070288  L 1361.29037785309 408.677943660506  C 1362.28870805944 408.631693183956  1363.28712061189 408.587237628002  1364.28561066996 408.544577208173  L 1364.24292468013 407.545488670419  Z M 1368.24206805534 407.384228741789  C 1367.24218721505 407.42214699054  1366.24237535535 407.461862879727  1365.24263732406 407.503376216777  L 1365.2841257861 408.50251519986  C 1366.28266625918 408.461051590475  1367.28128047227 408.421383275839  1368.27996358328 408.383510448298  L 1368.24206805534 407.384228741789  Z M 1372.24193860383 407.242143924227  C 1371.24188746207 407.275267967311  1370.2418966816 407.310189960887  1369.24197111112 407.346909735627  L 1369.27866888318 408.346236145529  C 1370.2773966708 408.309560356378  1371.27618959033 408.27468019488  1372.27504279881 408.24159583016  L 1372.24193860383 407.242143924227  Z M 1376.24244438521 407.119237483669  C 1375.242245929 407.147566559702  1374.24209921339 407.177693854957  1373.24200908785 407.209619223353  L 1373.2739153264 408.209110089715  C 1374.27280747197 408.177222963824  1375.27175613984 408.147131757213  1376.27075648632 408.118836615787  L 1376.24244438521 407.119237483669  Z M 1380.24349344452 407.015512245223  C 1379.24317066425 407.039045703039  1378.24289100272 407.06437760747  1377.24265931002 407.091507835691  L 1377.26977328166 408.091140184378  C 1378.26880682481 408.064042454699  1379.26788827936 408.038740894646  1380.26701280096 408.015235626901  L 1380.24349344452 407.015512245223  Z M 1384.24499381427 406.930970593103  C 1383.2445697032 406.949707891764  1382.24418008801 406.970243823097  1381.24382981932 406.992578287531  L 1381.26615090083 407.992329141154  C 1382.26530287792 407.970021430551  1383.26449415442 407.949510098634  1384.26371988544 407.930795244858  L 1384.24499381427 406.930970593103  Z M 1388.24685351662 406.865614470567  C 1387.24635107034 406.879555179381  1386.24587449629 406.895294665581  1385.2454286455 406.912832852851  L 1385.2629563238 407.912679231298  C 1386.2622037685 407.895162052532  1387.26148189969 407.879441420221  1388.26078587208 407.865517410592  L 1388.24685351662 406.865614470567  Z M 1392.24898056546 406.819445379882  C 1391.24842278137 406.82858917841  1390.24788224524 406.839531857691  1389.24736380845 406.852273364668  L 1389.26009768065 407.852192285631  C 1390.25941762441 407.839466041349  1391.25875964105 407.828536469996  1392.25811888498 407.819403624569  L 1392.24898056546 406.819445379882  Z M 1396.25128296856 406.792464382283  C 1395.2506928453 406.796811060347  1394.25011134537 406.802956681183  1393.24954332033 406.810901214992  L 1393.25748309373 407.810869694494  C 1394.25685256634 407.80293467722  1395.25623549772 407.796796418051  1396.25562704207 407.792454946751  L 1396.25128296856 406.792464382283  Z M 1400.25366872962 406.78467209795  C 1399.25306926661 406.784221555639  1398.25246980208 406.785569976767  1397.25187518768 406.788717354797  L 1397.25502067978 407.788712407724  C 1398.2544167099 407.78556879985  1399.25381758436 407.784221993958  1400.25321845727 407.784671996578  L 1400.25366872962 406.78467209795  Z M 1404.25604585045 406.796068705997  C 1403.2554600473 406.790820953665  1402.25486561779 406.787372144091  1401.25426741354 406.785722293996  L 1401.25261855204 407.785720934623  C 1402.25201816771 407.787368808409  1403.25141401319 407.790813486751  1404.2508012426 407.796054952946  L 1404.25604585045 406.796068705997  Z M 1408.25832233306 406.826653944461  C 1407.25777318908 406.816609102734  1406.25720679409 406.808363141732  1405.25662799957 406.801916101436  L 1405.25018482238 407.801895343954  C 1406.24956505156 407.808334661521  1407.24893289609 407.816570744918  1408.24828351025 407.82660355421  L 1408.25832233306 406.826653944461  Z M 1412.26040618176 406.876427110317  C 1411.2599166953 406.861585410082  1410.2594013339 406.848542487194  1409.25886494816 406.837298404886  L 1409.24762760337 407.837235263933  C 1410.24696547446 407.848465877268  1411.24628234675 407.861493176408  1412.24557337475 407.876317098184  L 1412.26040618176 406.876427110317  Z M 1416.26220540529 406.945387059486  C 1415.26179857366 406.925748841894  1414.26135724311 406.907909256917  1413.26088626453 406.891868391055  L 1413.24485501044 407.891739882244  C 1414.24412755293 407.907761533204  1415.24337048263 407.925579748638  1416.24257895502 407.94519444216  L 1416.26220540529 406.945387059486  Z M 1420.26362801894 407.033532206865  C 1419.26332683722 407.009097923317  1418.26298253372 406.986462086312  1417.26259995885 406.965624805606  L 1417.24177516396 407.965407946051  C 1418.24095940863 407.986220266363  1419.24010542751 408.008828988528  1420.23920837654 408.033234002934  L 1420.26362801894 407.033532206865  Z M 1424.26458204665 407.140860526364  C 1423.2644095076 407.111630738502  1422.26418522491 407.084199169773  1421.26391404839 407.058565953187  L 1421.23829619136 408.058237762032  C 1422.23736917113 408.083840273309  1423.23639531297 408.111238982524  1424.23536977343 408.140433756845  L 1424.26458204665 407.140860526364  Z M 1428.26497552314 407.267369550953  C 1427.26495461657 407.233344930648  1426.26487334567 407.201118260732  1425.26473655958 407.170689697466  L 1425.23432622926 408.170227196417  C 1426.23326497949 408.200619310159  1427.23214828105 408.23280737665  1428.23097129056 408.266791239814  L 1428.26497552314 407.267369550953  Z M 1432.264716496 407.413056372714  C 1431.26487020823 407.37423770205  1430.26495493684 407.337216671706  1429.26497553015 407.301993461185  L 1429.22977342556 408.301373675034  C 1430.2285549849 408.336554692656  1431.22727248581 408.373531376546  1432.22592108569 408.41230354741  L 1432.264716496 407.413056372714  Z M 1436.26371302784 407.577917642914  C 1435.26406434117 407.534305814172  1434.26433805317 407.492491274357  1433.26453901126 407.452474226218  L 1433.22454594154 408.451674183371  C 1434.22314735216 408.491643296208  1435.22167609605 408.533407747557  1436.22012733153 408.57696733491  L 1436.26371302784 407.577917642914  Z M 1440.26187319836 407.761949572079  C 1439.26244509045 407.713545587707  1438.2629307656 407.666938499574  1437.26333506957 407.622128533637  L 1437.218551954 408.621125266645  C 1438.21695026232 408.665881555977  1439.21526729696 408.712432814785  1440.21349821791 408.760778817379  L 1440.26187319836 407.761949572079  Z M 1444.25910510648 407.965147930079  C 1443.25992055024 407.911952902694  1442.26064116281 407.860554337527  1441.26127178942 407.810952483796  L 1441.21169965738 408.80972302988  C 1442.20987191426 408.859265466943  1443.20795429271 408.910602463199  1444.20594195383 408.963733769755  L 1444.25910510648 407.965147930079  Z M 1448.25531687249 408.187508046231  C 1447.25639883481 408.129523198554  1446.25737735447 408.073334337813  1445.25825727486 408.018941736418  L 1445.2038972658 409.017463137999  C 1446.20182052733 409.071790584013  1447.19964530802 409.127912137703  1448.19736676964 409.185827526948  L 1448.25531687249 408.187508046231  Z M 1452.2504166401 408.4290248094  C 1451.25178808215 408.366251474273  1450.25304747185 408.305273609483  1449.25419965183 408.246091510695  L 1449.19505301527 409.24434081592  C 1450.19270434343 409.303452022128  1451.19024859033 409.364356843243  1452.18768091908 409.427054983948  L 1452.2504166401 408.4290248094  Z M 1456.24431257859 408.68969266812  C 1455.24599645458 408.622132288436  1454.24755967141 408.556366821236  1453.24900707025 408.492396585399  L 1453.18507516571 409.490350848671  C 1454.18243162865 409.554244456352  1455.17967241237 409.619931144942  1456.17679268143 409.687410595938  L 1456.24431257859 408.68969266812  Z M 1460.23691288491 408.969505630723  C 1459.23893214197 408.897159759413  1458.24082213585 408.826608201477  1457.2425877061 408.757851299002  L 1457.17387200312 409.755487581503  C 1458.17091067577 409.82416212201  1459.16782507389 409.894629168211  1460.16461036362 409.966888378426  L 1460.23691288491 408.969505630723  Z M 1464.22812578578 409.268457265472  C 1463.23050336335 409.191327565467  1462.23274307666 409.115991538483  1461.23484976359 409.042449549803  L 1461.16135184166 410.039744920028  C 1462.15804980635 410.113198814824  1463.15461490374 410.188444598877  1464.15104230229 410.265481907381  L 1464.22812578578 409.268457265472  Z M 1468.21785953984 409.586540700713  C 1467.220618369 409.504628944896  1466.22323073631 409.424510180541  1465.22570147723 409.346184796074  L 1465.14742302575 410.34311633035  C 1466.14375737234 410.421347891022  1467.13995026253 410.50137068337  1468.13599686598 410.583184319379  L 1468.21785953984 409.586540700713  Z M 1472.2060224397 409.923748625032  C 1471.20918544307 409.837056696229  1470.21219338977 409.752157036068  1469.21505111393 409.669050056204  L 1469.1319939322 410.665594839223  C 1470.12794175931 410.74860226757  1471.12373954356 410.833400228789  1472.11938245715 410.919988311766  L 1472.2060224397 409.923748625032  Z M 1476.19252281409 410.28007328742  C 1475.19611290471 410.188603178311  1474.19953934769 410.09892457385  1473.20280697515 410.011037908865  L 1473.11497297231 411.007173034209  C 1474.11051138704 411.094954422218  1475.10589117651 411.184525603191  1476.10110751434 411.275886142817  L 1476.19252281409 410.28007328742  Z M 1480.17726902996 410.655506497458  C 1479.18130911115 410.559260310559  1478.18517695749 410.464804823136  1477.18887739897 410.372140493178  L 1477.09626859395 411.367843063846  C 1478.09137471312 411.460396393796  1479.08631362798 411.554738735637  1480.08108051427 411.650869631922  L 1480.17726902996 410.655506497458  Z M 1484.16016949456 411.050039625497  C 1483.16468245929 410.949019573107  1482.16901460593 410.849789373861  1481.17317076221 410.752349508899  L 1481.07578928372 411.747596637831  C 1482.07044023407 411.844919782315  1483.0649154046 411.944031116466  1484.05920997391 412.044930159772  L 1484.16016949456 411.050039625497  Z M 1488.14113265759 411.463663602862  C 1487.14614138797 411.357872007013  1486.15096072117 411.253869376833  1485.15559548256 411.151656216603  L 1485.05344356898 412.146425027208  C 1486.04761648753 412.248515749164  1487.04160505509 412.352393797486  1488.03540445261 412.458058668554  L 1488.14113265759 411.463663602862  Z M 1492.12041231812 411.896529699542  C 1492.06538648684 411.890371969405  1492.01036010923 411.884219122519  1491.95533318588 411.878071158952  C 1491.01575054407 411.773801707558  1490.07599146673 411.6711283191  1489.13606002063 411.57005143789  L 1489.02914002002 412.564319064573  C 1489.96782242384 412.665261628223  1490.90633271084 412.767798368508  1491.84466682029 412.871928841774  C 1491.89951186766 412.87805650705  1491.95435637161 412.884189028528  1492.00920033297 412.890326406298  L 1492.12041231812 411.896529699542  Z M 1496.09676026353 412.350118243203  C 1495.10291704184 412.234595725013  1494.1088892037 412.120667038274  1493.11468058348 412.008332622454  L 1493.00240620726 413.002009866051  C 1493.9955525001 413.1142242508  1494.98851820414 413.228031202979  1495.98129948888 413.343430283561  L 1496.09676026353 412.350118243203  Z M 1500.07113215499 412.820706830237  C 1499.0777920334 412.700935363056  1498.0842604813 412.582756923272  1497.09054133113 412.466171966744  L 1496.97401868599 413.459360001897  C 1497.96667603179 413.575820385584  1498.95914598008 413.693872549881  1499.95142470229 413.813516039386  L 1500.07113215499 412.820706830237  Z M 1504.04345531271 413.308286854936  C 1503.05063645665 413.184268629052  1502.0576193592 413.06184259734  1501.06440785145 412.94100923212  L 1500.94363906826 413.933689896285  C 1501.93578931427 414.054394149199  1502.92774535721 414.176689366756  1503.91950337108 414.300575077262  L 1504.04345531271 413.308286854936  Z M 1508.01365709437 413.81284940087  C 1507.02137765943 413.684586684192  1506.02889317646 413.557915299421  1505.03620747388 413.432835735177  L 1504.91119476115 414.424990875091  C 1505.90281976362 414.549936789874  1506.89424376159 414.676472824315  1507.88546293052 414.804598490284  L 1508.01365709437 413.81284940087  Z M 1511.98166489644 414.334385241044  C 1510.98994302864 414.201880379141  1509.99800930962 414.07096595774  1509.00586756568 413.941642481829  L 1508.87661320954 414.933253953838  C 1509.8676948347 415.062439245616  1510.85856865701 415.193213782909  1511.84923085467 415.32557706132  L 1511.98166489644 414.334385241044  Z M 1515.94740615551 414.872884838076  C 1514.95625999048 414.736140254064  1513.96489517522 414.600985190107  1512.97331553322 414.467420167469  L 1512.83982189735 415.45846983786  C 1513.83034202108 415.591892144194  1514.82064754772 415.726902792878  1515.81073465765 415.863501263174  L 1515.94740615551 414.872884838076  Z M 1519.91080834961 415.42833834436  C 1518.92025601276 415.287356538932  1517.92947823006 415.14796330396  1516.93847882333 415.01015917714  L 1516.80074834895 416.000628922477  C 1517.79068885739 416.138285803443  1518.78040797874 416.277530094591  1519.769901895 416.418361258766  L 1519.91080834961 415.42833834436  Z M 1523.87179899956 416.000735602256  C 1522.88185860523 415.855519153562  1521.89168597355 415.711890296674  1520.90128492462 415.569849585713  L 1520.75932013042 416.559721293162  C 1521.74866292063 416.701610231442  1522.73777753716 416.84508561862  1523.72666016497 416.990146901309  L 1523.87179899956 416.000735602256  Z M 1527.83030567028 416.590066144269  C 1526.84099532142 416.44061770787  1525.85144594857 416.292755855681  1524.8616613688 416.146481158065  L 1524.71546485091 417.13573672573  C 1525.70419183045 417.281855126556  1526.69268385452 417.429558986073  1527.68093710988 417.578847734492  L 1527.83030567028 416.590066144269  Z M 1531.7862559721 417.196319193246  C 1530.79759376045 417.042641502137  1529.80868574222 416.890549358585  1528.81953573203 416.74004334927  L 1528.66911016395 417.728664686521  C 1529.65720325197 417.879009877824  1530.64505460671 418.030939508573  1531.63266041741 418.184452992678  L 1531.7862559721 417.196319193246  Z M 1535.73957756211 417.819483662568  C 1534.75158156744 417.661579527071  1533.76333298811 417.505259873481  1532.77483563619 417.350525304787  L 1532.62018376878 418.338494332595  C 1533.607624896 418.493063565011  1534.59481751626 418.649216188604  1535.58175782195 418.806951601093  L 1535.73957756211 417.819483662568  Z M 1539.69019814547 418.459548156355  C 1538.70288643537 418.29742046408  1537.71531536715 418.136876159089  1536.72748875027 417.977915860665  L 1536.56861341167 418.965214511927  C 1537.55538452054 419.124004958815  1538.54190035362 419.284377719704  1539.5281571059 419.446332176035  L 1539.69019814547 418.459548156355  Z M 1543.63804547673 419.116500969676  C 1542.65143610629 418.95015268547  1541.66456060901 418.785386664969  1540.67742279166 418.622203543741  L 1540.51432688723 419.608813763615  C 1541.50040993257 419.771822521156  1542.48623093794 419.936412486586  1543.47178610102 420.102583025079  L 1543.63804547673 419.116500969676  Z M 1547.58304736116 419.790330088759  C 1546.59715837261 419.619764254653  1545.61099649337 419.450779531737  1544.62456552745 419.283376571852  L 1544.45725203976 420.269280318084  C 1545.44262898894 420.436504405319  1546.42773713878 420.605308565415  1547.41257268971 420.775692147291  L 1547.58304736116 419.790330088759  Z M 1551.52513165606 420.481023191215  C 1550.53998107837 420.306242926347  1549.55455085143 420.133042591295  1548.56884477582 419.961422854053  L 1548.39731676453 420.94660209731  C 1549.38196959776 421.118038456175  1550.36634687749 421.29105372403  1551.35044480636 421.465647233447  L 1551.52513165606 420.481023191215  Z M 1555.46422627209 421.18856764626  C 1554.47983212102 421.009576146894  1553.49515156664 420.832163366968  1552.51018840726 420.656329990834  L 1552.33444900913 421.64076671503  C 1553.31835972005 421.816412210466  1554.30198812805 421.993635422097  1555.28533043866 422.172435666262  L 1555.46422627209 421.18856764626  Z M 1559.40025917457 421.912950514949  C 1558.41663945175 421.729751054304  1557.43272657711 421.548129073908  1556.44852434599 421.368085274349  L 1556.26857677479 422.351761476979  C 1557.25172737061 422.531612896955  1558.23458891895 422.713040811423  1559.2171576289 422.896044520613  L 1559.40025917457 421.912950514949  Z M 1563.33315838482 422.65415855041  C 1562.35033107782 422.466754478675  1561.36720387584 422.280926619151  1560.3837805712 422.096675688648  L 1560.19962811765 423.079573381113  C 1561.18200061919 423.263627436629  1562.16407733457 423.449256736217  1563.14585447531 423.636460563785  L 1563.33315838482 422.65415855041  Z M 1567.26285198148 423.412178198087  C 1566.28083506326 423.220572942323  1565.2985115127 423.030542601964  1564.31588511841 422.842087909916  L 1564.12753115013 423.824189117854  C 1565.10910759273 424.012442443112  1566.09038151561 424.202269733157  1567.07134913337 424.393670255705  L 1567.26285198148 423.412178198087  Z M 1571.18926810178 424.186995595989  C 1570.20807953071 423.991192660121  1569.22657759523 423.796963313997  1568.2447660808 423.604308306715  L 1568.05221404223 424.585595070329  C 1569.03297647579 424.778044222738  1570.01342966129 424.972066031807  1570.99356981711 425.167659749192  L 1571.18926810178 424.186995595989  Z M 1575.11233494292 424.978596574942  C 1574.13199266219 424.778599539662  1573.15133029043 424.580174739624  1572.17035161045 424.383322940233  L 1571.97360502283 425.363777314622  C 1572.95353551183 425.560418774803  1573.9331500307 425.758631554877  1574.91244480044 425.958414890214  L 1575.11233494292 424.978596574942  Z M 1579.03198076331 425.786966658849  C 1578.05250270046 425.582779181505  1577.07269782611 425.380162556212  1576.09256991975 425.179117564542  L 1575.89163238099 426.158721620024  C 1576.87071300543 426.359551791992  1577.84947094315 426.561951918293  1578.82790241844 426.765921218141  L 1579.03198076331 425.786966658849  Z M 1582.94813388395 426.612091064954  C 1581.96953795091 426.403716879567  1580.99060849157 426.196912134249  1580.01134928264 425.991677626855  L 1579.80622446731 426.9704134493  C 1580.78443732274 427.175428660472  1581.76232078044 427.382012431641  1582.7398710687 427.590163966012  L 1582.94813388395 426.612091064954  Z M 1586.86072268971 427.453954704114  C 1585.88302678207 427.241397621225  1584.90499063973 427.030408537785  1583.92661803595 426.820988267793  L 1583.7173096952 427.798837958948  C 1584.69463689272 428.008034460145  1585.67162798815 428.218798098448  1586.6482792126 428.431128060808  L 1586.86072268971 427.453954704114  Z M 1590.76967563062 428.312542181072  C 1589.79289762752 428.095806087715  1588.81577268784 427.880636524579  1587.83830458073 427.667034321659  L 1587.6248165422 428.643979999475  C 1588.60124020953 428.85735396514  1589.57732107592 429.072293616231  1590.55305537663 429.288798123722  L 1590.76967563062 428.312542181072  Z M 1594.67492122323 429.187837794742  C 1593.69907898721 428.966926654416  1592.72288311879 428.747580546371  1591.74633738352 428.529800316713  L 1591.52867355129 429.505824115673  C 1592.50417583224 429.723371643768  1593.47932862031 429.94248337711  1594.45412815371 430.163158470445  L 1594.67492122323 429.187837794742  Z M 1598.57638805185 430.079825538493  C 1597.60149942827 429.854743391026  1596.6262504829 429.631224749279  1595.65064497767 429.409270475453  L 1595.42880933218 430.3843545469  C 1596.40337238785 430.606071659154  1597.37757926446 430.829351467734  1598.35142620448 431.054193111449  L 1598.57638805185 430.079825538493  Z M 1602.47400476993 430.988489100444  C 1601.50008758677 430.759240061962  1600.52580339875 430.531552973977  1599.55115596467 430.30542871491  L 1599.32515256266 431.279555227371  C 1600.29875857089 431.505437869171  1601.27200172101 431.73288166994  1602.24487825861 431.961885752282  L 1602.47400476993 430.988489100444  Z M 1606.3677001013 431.913811863762  C 1605.3947721685 431.68040012652  1604.42147055508 431.448548756131  1603.44779901544 431.218258646937  L 1603.21763198985 432.191409786448  C 1604.1902631463 432.421453827077  1605.16252477192 432.653057460697  1606.13441311609 432.886219793866  L 1606.3677001013 431.913811863762  Z M 1610.25740284152 432.855776906963  C 1609.28548195123 432.618206739412  1608.31318071107 432.382195326464  1607.34050287161 432.147743578508  L 1607.10617643154 433.119901548945  C 1608.07781494959 433.35410278156  1609.04907727086 433.58986201267  1610.01995964856 433.8271783328  L 1610.25740284152 432.855776906963  Z M 1614.14304185915 433.814367004226  C 1613.17214578488 433.572642750815  1612.20086269878 433.332475611324  1611.22919634687 433.093866512027  L 1610.99071477747 434.065013535426  C 1611.96134288867 434.303367677163  1612.93158814399 434.543278194406  1613.90144680059 434.784744161667  L 1614.14304185915 433.814367004226  Z M 1618.02454609706 434.789564625705  C 1617.05469259391 434.543690706921  1616.08444542343 434.299372232754  1615.11380832824 434.056610145636  L 1614.87117599065 435.026728462521  C 1615.8407759451 435.269231154597  1616.8099863913 435.513288570652  1617.77880359099 435.758899769353  L 1618.02454609706 434.789564625705  Z M 1621.90184457375 435.78135193785  C 1620.93305137744 435.531332849994  1619.9638578658 435.282867509078  1618.99426777738 435.035956873533  L 1618.74748910865 436.00502874324  C 1619.71604317507 436.251675550955  1620.68420108828 436.499875402766  1621.65195911408 436.749627341363  L 1621.90184457375 435.78135193785  Z M 1625.77486638462 436.789710803734  C 1624.80715121168 436.535551118959  1623.83902908243 436.282943454957  1622.87050373189 436.031888786293  L 1622.61958324488 436.999896487295  C 1623.58707371121 437.250682900191  1624.55416138662 437.503020648899  1625.52084254104 437.756908760149  L 1625.77486638462 436.789710803734  Z M 1629.64354070327 437.814622783384  C 1628.67692125023 437.556327149483  1627.70988820792 437.299581781965  1626.74244530659 437.044387671196  L 1626.48738758992 438.011313501426  C 1627.45379676356 438.266234933343  1628.41979651592 438.522705964419  1629.38538312115 438.780725605443  L 1629.64354070327 437.814622783384  Z M 1633.50779678283 438.856069134117  C 1632.54229072655 438.593642274627  1631.57636445504 438.332763898617  1630.61002169486 438.07343501256  L 1630.3508314128 439.039261289736  C 1631.3161416209 439.298313078896  1632.28103578488 439.558912702226  1633.24551018311 439.821059154587  L 1633.50779678283 438.856069134117  Z M 1637.36756395721 439.914030810886  C 1636.40318895381 439.647477524782  1635.4383871175 439.382470911102  1634.47316216989 439.11901199208  L 1634.20984406227 440.083721054025  C 1635.17403765211 440.34689846312  1636.13780858256 440.611621913088  1637.10115313636 440.877890382886  L 1637.36756395721 439.914030810886  Z M 1641.22277164239 440.988488466626  C 1640.25954532762 440.717813628426  1639.29588556974 440.448683623226  1638.33179608598 440.181099489169  L 1638.06435496814 441.144673694141  C 1639.02741430728 441.411971910387  1639.99004437983 441.680814346021  1640.9522414723 441.951199963945  L 1641.22277164239 440.988488466626  Z M 1645.07334933776 442.079422452607  C 1644.11128932614 441.804631012143  1643.14878926946 441.531382537092  1642.18585287986 441.259678081313  L 1641.91429364252 442.22209980832  C 1642.8762011195 442.493513943633  1643.83767273021 442.766470448526  1644.79870476564 443.040968270032  L 1645.07334933776 442.079422452607  Z M 1648.91922662737 443.186812818796  C 1647.9583505124 442.907909801267  1646.99702775786 442.630547853178  1646.03526207195 442.354728044423  L 1645.75958968115 443.315979693551  C 1646.72032770556 443.591504784577  1647.6806232717 443.868570367084  1648.64047267568 444.147175372428  L 1648.91922662737 443.186812818796  Z M 1007.44889500468 503.195085479265  C 1006.55614464641 503.646822791562  1005.6641192818 504.099991455016  1004.77282235173 504.554589721574  L 1005.22717764827 505.445410278426  C 1006.11752221369 504.991297757189  1007.00859443543 504.53861331145  1007.90039087605 504.0873586875  L 1007.44889500468 503.195085479265  Z M 1647.30586711587 451.013600667742  L 1660 447  L 1651.62657706954 436.649358066884  L 1647.30586711587 451.013600667742  Z " fill-rule="nonzero" fill="#1f8aee" stroke="none" />
  </g>
</svg>