<?xml version="1.0" encoding="utf-8"?>
<svg version="1.1" xmlns:xlink="http://www.w3.org/1999/xlink" width="504px" height="34px" viewBox="1152 668  504 34" xmlns="http://www.w3.org/2000/svg">
  <g transform="matrix(0.999390827019096 0.0348994967025008 -0.0348994967024978 0.999390827019096 24.7614341064002 -48.5816098783918 )">
    <path d="M 703.237196643625 508.213946003191  C 702.382160813466 507.696078665267  701.527690345526 507.177278449024  700.673786765552 506.657546280836  L 700.153865532766 507.511760487986  C 701.008390536785 508.031870888653  701.863482841286 508.551048659129  702.71914091948 509.069292872408  L 703.237196643625 508.213946003191  Z M 706.660348701511 510.280436056251  C 705.803809540485 509.765058994119  704.947833024685 509.248747412459  704.092420682549 508.731502233203  L 703.574987343395 509.587225751363  C 704.431022207571 510.104847353203  705.28762165595 510.621534678004  706.144784159052 511.137286803207  L 706.660348701511 510.280436056251  Z M 710.089499580782 512.336956272052  C 709.231464341927 511.824073849842  708.373989026009 511.310255274491  707.517075165207 510.795501464117  L 707.002134101122 511.652727047332  C 707.859671576686 512.167855467209  708.717770915927 512.682047971428  709.576430585622 513.195303641248  L 710.089499580782 512.336956272052  Z M 713.524620244641 514.383489236733  C 712.665096193131 513.873105797133  711.806129338592 513.361784579344  710.947721214803 512.849526496386  L 710.43527678612 513.708246885984  C 711.294309611935 514.220877762085  712.153901575613 514.732571091516  713.014051141261 515.243325959997  L 713.524620244641 514.383489236733  Z M 716.965681605744 516.420017621001  C 716.10467602007 515.912137485964  715.244224899616 515.403317954994  714.384329781882 514.893559937279  L 713.874386327791 515.753767861928  C 714.73490723006 516.263896853589  715.595984539108 516.773086675188  716.457616717455 517.28133641755  L 716.965681605744 516.420017621001  Z M 720.412654526439 518.446524180278  C 719.550174697103 517.94115165024  718.688246597077 517.434838114801  717.826871766497 516.927584478666  L 717.319433605015 517.789272654442  C 718.181435296805 518.296895441865  719.043990660646 518.803577444418  719.90709815535 519.309317756779  L 720.412654526439 518.446524180278  Z M 723.865509819021 520.462991754848  C 723.001563049008 519.960131109016  722.138165268259 519.456327856592  721.275318018461 518.951582897172  L 720.770389446388 519.814744027613  C 721.633864628942 520.319856312644  722.497890743059 520.824026205336  723.362466245998 521.32725280548  L 723.865509819021 520.462991754848  Z M 727.324218245973 522.46940327  C 726.458811851227 521.969058766621  725.593951699975 521.467770062818  724.729639337594 520.965538054317  L 724.22722463048 521.830164830491  C 725.092165992026 522.332762335919  725.957655540519 522.834415849833  726.823691730606 523.335124476517  L 727.324218245973 522.46940327  Z M 730.788750520217 524.465741736174  C 729.921891828504 523.96791761188  729.055576630427 523.469147701635  728.189806473963 522.969432896667  L 727.689909886073 523.835517997229  C 728.556310102424 524.335596467139  729.423255757003 524.834729354663  730.29074530078 525.332915767966  L 730.788750520217 524.465741736174  Z M 734.259077305359 526.451990249107  C 733.390773656741 525.956690719187  732.523010747839 525.460443826107  731.655790128139 524.96325045597  L 731.158415892414 525.83078654723  C 732.026267627569 526.328341747347  732.894662046538 526.824949781593  733.763597598779 527.32060976326  L 734.259077305359 526.451990249107  Z M 737.735169215941 528.428131989972  C 736.865427963076 527.935361248544  735.99622469089 527.441641574461  735.127560951439 526.946973849311  L 734.632713279463 527.815953585288  C 735.502009184591 528.310981302393  736.371845015061 528.805060278472  737.242219217759 529.298189631334  L 737.735169215941 528.428131989972  Z M 741.216996817688 530.394150225523  C 740.345825325226 529.903912445191  739.47518904985 529.412724170741  738.605089546176 528.920586279243  L 738.112772628138 529.791002301736  C 738.98350534236 530.283498344115  739.854775218881 530.775044078347  740.726580702024 531.265638626764  L 741.216996817688 530.394150225523  Z M 744.704530627754 532.350028308237  C 743.831936272639 531.862327640255  742.959874365944 531.373674924439  742.088346465911 530.884071033938  L 741.59856447057 531.755915972583  C 742.470726620839 532.245876169959  743.343423165814 532.734884500115  744.216652547274 533.222940089911  L 744.704530627754 532.350028308237  Z M 748.197741114982 534.295749676452  C 747.323731285842 533.81059025039  746.450251132488 533.324477231145  745.577302215697 532.837411487326  L 745.090059290348 533.710677959657  C 745.963643491514 534.198098163227  746.837759315269 534.684564948563  747.712405200857 535.170077447063  L 748.197741114982 534.295749676452  Z M 751.696598700139 536.231297854512  C 750.82118079759 535.748683778423  749.94628979425 535.265114572175  749.071927252331 534.780591099233  L 748.587227522769 535.655271710749  C 749.46222637746 536.140147793117  750.337754078664 536.624068914609  751.213809062017 537.107034210571  L 751.696598700139 536.231297854512  Z M 755.201073756179 538.156656452902  C 754.324255193302 537.676591813585  753.447960747509 537.195570514622  752.572191984607 536.713593415525  L 752.090039555093 537.589680759751  C 752.966445654499 538.072008615363  753.843377818778 538.553379974944  754.720834482147 539.033793978993  L 755.201073756179 538.156656452902  Z M 758.711136608489 540.07180916839  C 757.832924809499 539.594298030658  756.95523434212 539.11582871249  756.078066773562 538.636402068244  L 755.598465726786 539.513888726792  C 756.47627164964 539.993664271373  757.354600851816 540.472481793167  758.233451765036 540.950340437234  L 758.711136608489 540.07180916839  Z M 762.226757535138 541.976739784162  C 761.347159936595 541.501786191504  760.468080879228 541.025872905435  759.589521932731 540.54900077575  L 759.112476329778 541.427879318384  C 759.991674642959 541.905098489271  760.871393446026 542.381358119023  761.751631167126 542.856657356676  L 762.226757535138 541.976739784162  Z M 765.747906767136 543.871432169962  C 764.866930817331 543.39904014421  763.986470613333 542.925686919904  763.106527728393 542.451373342856  L 762.632041608713 543.331636327555  C 763.512624867672 543.806295083928  764.393725822129 544.279992788648  765.275342897761 544.752728595327  L 765.747906767136 543.871432169962  Z M 769.274554488676 545.755870282227  C 768.392207647028 545.286043823228  767.510373752542 544.815254669259  766.629054379831 544.343503660966  L 766.157131761197 545.225143633984  C 767.039092509477 545.697237956608  767.921568154484 546.168369725197  768.804557119436 546.638538097947  L 769.274554488676 545.755870282227  Z M 772.806670837395 547.630038164225  C 771.922960575659 547.162781250492  771.039760457003 546.694560152942  770.157072059575 546.225375708214  L 769.687716938057 547.108385204145  C 770.57104770772 547.577911095595  771.454890570428 548.046472938487  772.339243948056 548.514069896191  L 772.806670837395 547.630038164225  Z M 776.344225904623 549.493919946187  C 775.459159705552 549.029236534184  774.574600841707 548.563587457971  773.690550893663 548.096973549594  L 773.223767243588 548.981345091437  C 774.108460554546 549.448298575745  774.993663151629 549.914286525717  775.879373453185 550.379308108742  L 776.344225904623 549.493919946187  Z M 779.887189735637 551.347499845443  C 779.000775093649 550.885393869939  778.114864974735 550.422320758011  777.229460961887 549.9582813371  L 776.765252735807 550.84400743632  C 777.651301097167 551.308384559687  778.537855932321 551.771794670539  779.424915658301 552.234236941444  L 779.887189735637 551.347499845443  Z M 783.435532329915 553.190762166557  C 782.547776750844 552.731237540497  781.660522878425 552.270744313986  780.773772298049 551.809283309857  L 780.312143426712 552.69635646645  C 781.199539335373 553.158153296509  782.087438902308 553.618981644636  782.975840541048 554.078840687437  L 783.435532329915 553.190762166557  Z M 786.989223641388 555.023691301457  C 786.100134642424 554.566751915926  785.211544529441 554.108842474122  784.323454890218 553.649963794259  L 783.864409282527 554.538376496813  C 784.753145224713 554.997589123427  785.642382004286 555.455831806322  786.532118033493 555.913103727293  L 786.989223641388 555.023691301457  Z M 790.548233578697 556.846271729569  C 789.657818688137 556.39192145367  788.767899859215 555.93659967417  787.878478680979 555.480307204095  L 787.422020223964 556.370051929856  C 788.312088674 556.826676464486  789.202655136847 557.282329602108  790.093718022377 557.737010529141  L 790.548233578697 556.846271729569  Z M 794.112532005448 558.658488017948  C 793.220798763182 558.206730699047  792.32955875346 557.75400043716  791.438813567688 557.300298040686  L 790.984946126474 558.191367255621  C 791.876339547585 558.645399831737  792.768228152716 559.098459565783  793.660610349374 559.550545648805  L 794.112532005448 558.658488017948  Z M 797.682088740464 560.460324821409  C 796.78904469755 560.011164284915  795.896491053352 559.561029374009  795.004429402734 559.109920893015  L 794.553156820503 560.002307051876  C 795.445867664696 560.453743824897  796.339070859923 560.904206319021  797.232764811343 561.353693729934  L 797.682088740464 560.460324821409  Z M 801.256873558042 562.251766882657  C 800.362526276265 561.805206931804  799.468666555781 561.357671183645  798.575295993784 560.909160437859  L 798.126622091748 561.802855984246  C 799.020642799689 562.251693131476  799.915153022062 562.699554571512  800.810151160586 563.146439504129  L 801.256873558042 562.251766882657  Z M 804.836856188214 564.032799032415  C 803.941213240394 563.588843448417  803.046055012871 563.143910652758  802.151383104045 562.698001439913  L 801.70531168141 563.592998806338  C 802.600634683043 564.039232527283  803.496444357809 564.484489120718  804.392739105105 564.928767791072  L 804.836856188214 564.032799032415  Z M 808.422006316994 565.803406189554  C 807.525075287294 565.362058731758  806.628626132233 564.919732655941  805.732660452518 564.476428751926  L 805.289195286455 565.37272035988  C 806.185813000512 565.816346875995  807.082914542281 566.258994852559  807.980498308852 566.700663498662  L 808.422006316994 565.803406189554  Z M 812.012293586642 567.56357336122  C 811.114082070131 567.124837766885  810.216349577965 566.685122156185  809.319097714257 566.244427314826  L 808.878242559865 567.142005574838  C 809.776147394115 567.583021129656  810.674533206561 568.023056741168  811.573398391995 568.46211162313  L 812.012293586642 567.56357336122  Z M 815.607687595916 569.313285642961  C 814.708203197951 568.877165626958  813.809194971094 568.440064205089  812.910664520621 568.001982157847  L 812.472423110902 568.900839469553  C 813.371607462401 569.339240328807  814.271269937947 569.776659849024  815.17140893117 570.213097249181  L 815.607687595916 569.313285642961  Z M 819.208157900336 571.052528218853  C 818.307408237606 570.619027474177  817.407131888159 570.184543942173  816.507330459536 569.749078398658  L 816.071706505357 570.649207150862  C 816.972162759955 571.084989602242  817.873094280961 571.519789327438  818.774499459738 571.953605550106  L 819.208157900336 571.052528218853  Z M 822.813674012435 572.781286361625  C 821.911666712346 572.350408559092  821.010129863147 571.918546595821  820.109065075749 571.485701243485  L 819.676062265815 572.387093814227  C 820.577782798591 572.820254167597  821.479975736671 573.252430416226  822.382639468046 573.683621787918  L 822.813674012435 572.781286361625  Z M 826.42420540202 574.499545432785  C 825.520948102067 574.071294220732  824.618158387746 573.642057483401  823.715837871087 573.211835987241  L 823.285459871908 574.114484743858  C 824.188437047608 574.545019331464  825.091883762951 574.974568443837  825.995798403684 575.403131313472  L 826.42420540202 574.499545432785  Z M 830.039721496431 576.207290882744  C 829.135221845441 575.781669887623  828.231186909745 575.355062010497  827.327618304719 574.92746801365  L 826.899868760577 575.831365312842  C 827.804094933309 576.259270489163  828.708787775482 576.686188827837  829.613945671742 577.112119566589  L 830.039721496431 576.207290882744  Z M 833.6601916808 577.904508250937  C 832.754457337558 577.481521076663  831.849184835898 577.057545672279  830.944375793407 576.632582795365  L 830.51925832633 577.53772098326  C 831.424725839062 577.962993124775  832.330657148205 578.387277075115  833.23705063507 578.810572076183  L 833.6601916808 577.904508250937  Z M 837.285585298309 579.591183165948  C 836.378623932054 579.170833394135  835.472121530322 578.749494052736  834.56607971177 578.327165894099  L 834.143597921497 579.233537306318  C 835.050299107436 579.656172812153  835.957461211705 580.077818781126  836.865082614543 580.498474460377  L 837.285585298309 579.591183165948  Z M 840.91587165045 581.267301345632  C 840.007690941375 580.84959253582  839.099966314751 580.430892824805  838.192699392545 580.01120296074  L 837.772856856498 580.91879992246  C 838.680784037842 581.338795213806  839.589169256095 581.757799631244  840.498010889311 582.175812426632  L 840.91587165045 581.267301345632  Z M 844.551019997284 582.93284859723  C 843.641627635345 582.51778428634  842.732688470484 582.101727751279  841.824204126841 581.684679735478  L 841.407004400092 582.593494561502  C 842.316149888846 583.01084608199  843.225750529209 583.427205399917  844.135804697065 583.842571771863  L 844.551019997284 582.93284859723  Z M 848.190999557705 584.5878108175  C 847.280403243115 584.175394520058  846.370257236959 583.761984684137  845.460563164404 583.347582047924  L 845.046009779648 584.257607042739  C 845.9563658775 584.67231125839  846.867174237807 585.086021951228  847.778433234297 585.498738382561  L 848.190999557705 584.5878108175  Z M 851.835779509697 586.232173992824  C 850.923986953428 585.822409201192  850.012641812008 585.411649564672  849.101745713874 584.99989581723  L 848.689842181398 585.911123275077  C 849.601401179786 586.323176674327  850.513409547645 586.734235238924  851.42586565656 587.144298234913  L 851.835779509697 586.232173992824  Z M 855.485328990595 587.865924199337  C 854.572347913186 587.458814383167  853.659811353815 587.050708424382  852.747720943049 586.641607052205  L 852.338470750701 587.554029257143  C 853.251224930687 587.963428350791  854.164425583923 588.371831306623  855.07807107873 588.779237394918  L 855.485328990595 587.865924199337  Z M 859.139617097348 589.489047603039  C 858.225455229399 589.084596209506  857.311734979482 588.679147384315  856.398457979143 588.27270185144  L 855.991864592305 589.186311077411  C 856.905806225398 589.593052398983  857.820191430605 589.998796287505  858.735018575265 590.403542018511  L 859.139617097348 589.489047603039  Z M 862.79861288678 591.101530459916  C 861.883277969269 590.699740913849  860.968381765478 590.296952655277  860.05392590905 589.89316640342  L 859.649992770606 590.807954914315  C 860.565114117504 591.212035019507  861.480676132759 591.615116405364  862.396677180473 592.017198351673  L 862.79861288678 591.101530459916  Z M 866.462285375853 592.70335911605  C 865.545785159692 592.30423481974  864.629720748652 591.904110538284  863.714093779604 591.502986986643  L 863.312824309911 592.418947036368  C 864.22911762208 592.820362503744  865.145848693982 593.220777973456  866.063015888766 593.620192730553  L 866.462285375853 592.70335911605  Z M 870.130603541927 594.294520007744  C 869.212945787324 593.898064340664  868.295720926694 593.500607424761  867.378930597841 593.102149969738  L 866.980328194702 594.019273802278  C 867.897785713117 594.418021232714  868.815678079499 594.815767395877  869.734003654928 595.212511581579  L 870.130603541927 594.294520007744  Z M 873.803536323025 595.874999661627  C 872.884728800751 595.481215980983  871.966351256495 595.086429795825  871.048405331262 594.690641811576  L 870.652473369898 595.608921661061  C 871.571087326053 596.004997678194  872.490133214159 596.400071166674  873.409609394377 596.794141421579  L 873.803536323025 595.874999661627  Z M 877.481052618094 597.444784694777  C 876.561103108086 597.053676334903  875.64158065707 596.661564223558  874.722486908097 596.26844906139  L 874.329228741114 597.187877152162  C 875.248991356142 597.581278401999  876.169182984588 597.973675870786  877.089801983427 598.365068857888  L 877.481052618094 597.444784694777  Z M 881.163121287272 599.003861814827  C 880.242037579134 598.615432087405  879.32137800792 598.225997370298  878.401144217566 597.835558358884  L 878.010563174931 598.756126905563  C 878.931466660618 599.146850056927  879.852796237559 599.536568183341  880.774550259553 599.925280588467  L 881.163121287272 599.003861814827  Z M 884.849711152146 600.552217820082  C 883.92750104547 600.166470014274  883.005712149484 599.779715988833  882.084346110144 599.39195643435  L 881.696445499154 600.313657641897  C 882.618482057816 600.70169938637  883.540941781389 601.088734870257  884.463823021652 601.474763402015  L 884.849711152146 600.552217820082  Z M 888.540790996021 602.089839599629  C 887.617462299744 601.706776981807  886.694551884359 601.322706922923  885.772061397823 600.937630108777  L 885.38684450308 601.860456172564  C 886.310006327438 602.245813224429  887.233588386209 602.630162788356  888.157589030312 603.013504178076  L 888.540790996021 602.089839599629  Z M 892.236329564183 603.61671413345  C 891.311890096906 603.236339947326  890.387865976608 602.854957107007  889.464258854379 602.472566293967  L 889.081728937757 603.396509399839  C 890.006008210626 603.779178495954  890.930704784421 604.160838885548  891.855817008073 604.541489887156  L 892.236329564183 603.61671413345  Z M 895.936295564162 605.132828492529  C 895.01075315351 604.755145958894  894.085623152978 604.376453566709  893.160907215633 603.99675199264  L 892.781067516257 604.921804316986  C 893.706456410985 605.30178221697  894.632259670194 605.680750200627  895.558475639692 606.058707590831  L 895.936295564162 605.132828492529  Z M 899.640657665998 606.638169838964  C 898.714020149126 606.263182155895  897.787792102022 605.887183418472  896.861975179719 605.51017429855  L 896.484828913931 606.436328008364  C 897.411319595046 606.81361149486  898.338221699541 607.189883863305  899.265533572409 607.565144441857  L 899.640657665998 606.638169838964  Z M 903.349384502507 608.132725426074  C 902.421659725842 607.76043576883  901.494341475128 607.38713386999  900.567431407344 607.012820396589  L 900.192981768682 607.940067649541  C 901.120566390617 608.314653527694  902.048559492496 608.688227095102  902.976959416212 609.060787684276  L 903.349384502507 608.132725426074  Z M 907.062444669546 609.616482598509  C 906.13364048853 609.246894119427  905.205239886782 608.876292220307  904.277244522062 608.5046775629  L 903.905494681228 609.433010507398  C 904.834165389919 609.804895605507  905.763241630508 610.175767208284  906.692721744105 610.545624653527  L 907.062444669546 609.616482598509  Z M 910.779806726278 611.089428792356  C 909.849931006071 610.722544621128  908.920455913877 610.354645859543  907.99138311053 609.985733164981  L 907.622336215366 610.915143940241  C 908.552085146977 611.284325109242  909.482236659582 611.652491607137  910.412789092371 612.019642776556  L 910.779806726278 611.089428792356  Z M 914.501439195441 612.551551535245  C 913.570499809698 612.187374778436  912.639958097898 611.822182269771  911.709815722781 611.455974661795  L 911.343474898241 612.386455397907  C 912.274294179998 612.752929511708  913.205513088435 613.118387787222  914.137129960838 613.482829571915  L 914.501439195441 612.551551535245  Z M 918.227310563612 614.002838446455  C 917.295315394994 613.641372187705  916.36371494346 613.278889024427  915.432510872485 612.915389603874  L 915.068879220611 613.846932421867  C 916.000760970676 614.2106963773  916.933039389724 614.573443335866  917.86571281315 614.935172649872  L 918.227310563612 614.002838446455  Z M 921.957389281473 615.443277237019  C 921.02434622216 615.084524537243  920.091694918574 614.724753788427  919.159437037223 614.363965633427  L 918.798517637113 615.296562645337  C 919.731453964459 615.657613362107  920.664784000313 616.017645932265  921.59850607703 616.376659712518  L 921.957389281473 615.443277237019  Z M 925.691931170384 616.870760627214  C 924.937247671694 616.583931504627  924.182847779261 616.296356732739  923.428732598145 616.008036732795  C 923.249328194467 615.939292273379  923.069938211611 615.870510189422  922.890562658746 615.801690484441  L 922.532358566533 616.735333793377  C 922.711980387751 616.804247982335  922.891616667684 616.873124474174  923.07126739794 616.941963265678  C 923.826113586439 617.230563013152  924.581244806278 617.518416695759  925.336659950817 617.805523891655  L 925.691931170384 616.870760627214  Z M 929.431769941703 618.285166790698  C 928.496234164353 617.933090631686  927.56112946883 617.579870065397  926.62645795437 617.225505884783  L 926.271949248754 618.160558598614  C 927.207383395232 618.515211917675  928.143251076292 618.868720689322  929.079550190843 619.221084119902  L 929.431769941703 618.285166790698  Z M 933.176203179209 619.687364551584  C 932.239523764988 619.338342364598  931.303271696197 618.988174369844  930.367449075809 618.636861353856  L 930.015992779143 619.573065643279  C 930.952578970972 619.924665308232  931.889594961094 620.275119017496  932.827038645844 620.624425984277  L 933.176203179209 619.687364551584  Z M 936.925191029674 621.077338985822  C 935.98737794758 620.731374485475  935.049988471132 620.384262789499  934.113024704695 620.03600467713  L 933.764624557643 620.973350577817  C 934.702352826429 621.321892846472  935.640507152647 621.669287763359  936.579085430077 622.015534548553  L 936.925191029674 621.077338985822  Z M 940.678693591395 622.455075299461  C 939.739756823073 622.112172168038  938.801239915524 621.768120465117  937.863144975643 621.422920963066  L 937.517804686341 622.361398498538  C 938.456665051536 622.706879661246  939.395947728768 623.051212088319  940.335650609281 623.394395006708  L 940.678693591395 622.455075299461  Z M 944.436670914619 623.820558828802  C 943.49662045348 623.480720715934  942.556986103771 623.139732667923  941.617769974898 622.79759545026  L 941.275493218916 623.737194631994  C 942.215475687921 624.079611011686  943.155876719074 624.420877284103  944.096694201107 624.760992683078  L 944.436670914619 623.820558828802  Z M 948.199083001966 625.173775040558  C 947.257928853273 624.837005563253  946.31718706224 624.499084799399  945.376859740758 624.160013507603  L 945.037650161059 625.100724335138  C 945.978744729335 625.440072287364  946.920254105413 625.778268772916  947.862176175538 626.115313032519  L 948.199083001966 625.173775040558  Z M 951.965889808853 626.514709532007  C 951.023641989618 626.181012274612  950.081802769883 625.846162391517  949.140374264003 625.510160634434  L 948.804235470906 626.451973095477  C 949.746432121881 626.788249008378  950.689039822482 627.123372107668  951.632056455319 627.457341640556  L 951.965889808853 626.514709532007  Z M 955.737051243926 627.843348031145  C 954.793719782799 627.512726545309  953.850793158665 627.18095110689  952.908273488319 626.848022460696  L 952.575209059459 627.790926531229  C 953.518497765415 628.124126825849  954.462193757278 628.456172971775  955.406294916383 628.787064223541  L 955.737051243926 627.843348031145  Z M 959.51252716948 629.159676396838  C 958.568122106648 628.832134201474  957.624118113991 628.503436738925  956.680517310723 628.173584747089  L 956.350530791013 629.117570391476  C 957.294901512026 629.447691521385  958.239675751476 629.776657180011  959.184851388277 630.104466628801  L 959.51252716948 629.159676396838  Z M 963.292277401892 630.463680618974  C 962.346808788966 630.139221200221  961.401737475129 629.813605211975  960.457065581991 629.486833385219  L 960.130160483586 630.431890556314  C 961.07560316841 630.758929007925  962.021445599905 631.08481067796  962.967685654589 631.409534834793  L 963.292277401892 630.463680618974  Z M 967.076261712046 631.755346818608  C 966.129739612153 631.43397362986  965.183611035446 631.111442581423  964.237878107086 630.787754397754  L 963.914057909343 631.733873037002  C 964.860562495322 632.057825329539  965.807463051954 632.380619542519  966.754757453378 632.702254951248  L 967.076261712046 631.755346818608  Z M 970.86443982576 633.034661248118  C 969.916874312652 632.71637770972  968.969698543815 632.396935034161  968.022914645585 632.076333938564  L 967.702182795029 633.023503976118  C 968.649739208206 633.344366661649  969.597687811801 633.664069981971  970.546026477603 633.982613219325  L 970.86443982576 633.034661248118  Z M 974.656771424216 634.301610291339  C 973.708172583338 633.986419790955  972.759959703081 633.670068888074  971.812134912108 633.352558292878  L 971.494494822392 634.300769647696  C 972.443092977614 634.618539311176  973.392079538846 634.935148336131  974.341452375547 635.250596011751  L 974.656771424216 634.301610291339  Z M 978.45321614439 635.55618046372  C 977.503594071991 635.244086356025  976.554354172453 634.930830592848  975.605498576744 634.616413877422  L 975.290953628616 635.565656457381  C 976.240583429643 635.880329716684  977.190597848139 636.1938410765  978.140994751253 636.506189832973  L 978.45321614439 635.55618046372  Z M 982.253733579481 636.798358412462  C 981.303098382698 636.489364019175  980.352841566949 636.179206729785  979.402965265486 635.867887240569  L 979.09151880675 636.81815094257  C 980.042170146362 637.129724448525  980.993202310807 637.440134806398  981.94461316495 637.749381319294  L 982.253733579481 636.798358412462  Z M 986.05828327934 638.028130916656  C 985.106645076093 637.722239526507  984.155381458027 637.415184012009  983.204494560654 637.106965062478  L 982.896149906137 638.058239772554  C 983.847812666241 638.366710208983  984.799852454489 638.674016261113  985.752267133484 638.980157239021  L 986.05828327934 638.028130916656  Z M 989.866824750901 639.245484887434  C 988.914193669787 638.942699756124  987.961933374015 638.638749284611  987.010046001331 638.333634155239  L 986.704806432845 639.285909748663  C 987.657470484583 639.591273832414  988.610507763764 639.895472308043  989.56391613075 640.198504492604  L 989.866824750901 639.245484887434  Z M 993.679317458613 640.4504073681  C 992.725703638796 640.150731718269  991.772456800534 639.849889524785  990.819579083787 639.547881463014  L 990.517447850098 640.501147804405  C 991.471103053956 640.803402285388  992.425127680582 641.104489946832  993.379519588123 641.404410112776  L 993.679317458613 640.4504073681  Z M 997.49572082487 641.642885534268  C 996.541134415974 641.346322555463  995.586911180939 641.04859184197  994.633053261919 640.749694062169  L 994.334033578708 641.703941005603  C 995.288669784621 642.003082666824  996.243671604696 642.30105630951  997.199036894887 642.597861264688  L 997.49572082487 641.642885534268  Z M 1001.31599423044 642.822906694006  C 1000.36044539244 642.529459542644  999.405255916746 642.234843477986  998.450427947675 641.939059161423  L 998.154522997505 642.894276550536  C 999.110130044969 643.190302208134  1000.0660988941 643.48515866063  1001.02242739867 643.77884524605  L 1001.31599423044 642.822906694006  Z M 1005.14009701492 643.990458287962  C 1004.18359591803 643.700130087296  1003.22745036807 643.408631807169  1002.27166251149 643.115964101971  L 1001.97887544377 644.072141770074  C 1002.93544316195 644.365048273351  1003.89236886544 644.656784397404  1004.84965040589 644.947349487264  L 1005.14009701492 643.990458287962  Z M 1008.96798847712 645.145527889502  C 1008.0105453017 644.858321729591  1007.05345385403 644.569944336506  1006.09671628271 644.280396357633  L 1005.80705021368 645.237524127814  C 1006.76456842151 645.52730835927  1007.72244079449 645.815921049836  1008.68066518214 646.103361551557  L 1008.96798847712 645.145527889502  Z M 1012.79962787554 646.288103204844  C 1011.84125281197 646.004022142516  1010.88322565324 645.718768705769  1009.92554855005 645.432343534974  L 1009.63900656271 646.390411220209  C 1010.597465069 646.677070095576  1011.55627391653 646.962556280857  1012.5154309527 647.246869135115  L 1012.79962787554 646.288103204844  Z M 1016.63497442879 647.418172073186  C 1015.67567767737 647.137219132009  1014.71672500418 646.855092687644  1013.75811856198 646.571793373444  L 1013.4747037061 647.530790776706  C 1014.43409230968 647.81432124498  1015.39382742683 648.096677886452  1016.35390690289 648.377860067213  L 1016.63497442879 647.418172073186  Z M 1020.47398731604 648.535722466835  C 1019.51377908687 648.257900637082  1018.55391110566 647.978904187864  1017.59438552722 647.698733745506  L 1017.31410081927 648.658650659873  C 1018.27440930904 648.939049703345  1019.23506048105 649.218273795796  1020.19605217856 649.496322310346  L 1020.47398731604 648.535722466835  Z M 1024.3166256774 649.640742491337  C 1023.3555161903 649.366054729957  1022.39474311725 649.090191245336  1021.43430861512 648.813152656766  L 1021.15715703826 649.773978865528  C 1022.11837519336 650.051243499821  1023.07993219569 650.327332071376  1024.0418258865 650.602243960353  L 1024.3166256774 649.640742491337  Z M 1028.16284861443 650.733220385603  C 1027.2008480988 650.461669616188  1026.23918015974 650.18894203227  1025.27784695613 649.915038246098  L 1025.00383146017 650.876763522868  C 1025.96594905003 651.150890796964  1026.92840164853 651.423840909122  1027.89118709489 651.695613246551  L 1028.16284861443 650.733220385603  Z M 1032.01261519051 651.813144522033  C 1031.04973388523 651.544733634787  1030.08718131551 651.275144854299  1029.12495964221 651.004378785775  L 1028.8540831436 651.966992894596  C 1029.81708992808 652.237979890869  1030.78042787905 652.507788638534  1031.74409483372 652.776418531852  L 1032.01261519051 651.813144522033  Z M 1035.86588443133 652.880503406643  C 1034.90213258466 652.61523525835  1033.93870562904 652.348788150615  1032.97560572728 652.08116268159  L 1032.70787110904 653.044655377046  C 1033.67175683856 653.312499211292  1034.63596988887 653.5791637228  1035.60050809524 653.844648312891  L 1035.86588443133 652.880503406643  Z M 1039.72261532527 653.935285679183  C 1038.75800319475 653.673163093179  1037.79371210729 653.40986049408  1036.82974422766 653.145378472979  L 1036.56515433938 654.109739500302  C 1037.52990875498 654.374437321772  1038.4949866422 654.637954758927  1039.46038583437 654.900291220152  L 1039.72261532527 653.935285679183  Z M 1043.5827668239 654.977480113261  C 1042.6173046762 654.718505879402  1041.65215972017 654.458350591354  1040.6873341225 654.197014833146  L 1040.42589178029 655.162233928327  C 1041.39150461378 655.423782919756  1042.35743706627 655.684150477855  1043.32368696917 655.943336018081  L 1043.5827668239 654.977480113261  Z M 1047.44629784235 656.00707561646  C 1046.4799959532 655.751252491094  1045.51400740096 655.494247283016  1044.5483343542 655.236060569182  L 1044.29004234068 656.202127459079  C 1045.25650331473 656.460524836714  1046.22328005175 656.71773974458  1047.19037038128 656.973771605211  L 1047.44629784235 656.00707561646  Z M 1051.31316725981 657.02406123046  C 1050.34603591388 656.771391936395  1049.37921404676 656.517539543677  1048.41270382888 656.262504622184  L 1048.15756489314 657.22940902463  C 1049.12486372138 657.484652038265  1050.09247445322 657.738711558276  1051.06039491631 657.991587014281  L 1051.31316725981 657.02406123046  Z M 1055.18333391992 658.02842613115  C 1054.2153834107 657.778913357629  1053.2477385189 657.528216482104  1052.28040141679 657.276336067371  L 1052.02841827435 658.244067691288  C 1052.9965446615 658.496153624288  1053.96497908956 658.747055052405  1054.93371938433 658.996771412348  L 1055.18333391992 658.02842613115  Z M 1059.05675663123 659.020159628746  C 1058.08799726094 658.773806031414  1057.11953964341 658.526267341333  1056.15138595276 658.277544114205  L 1055.90256128556 659.246092659709  C 1056.87150492755 659.49501882904  1057.84075274446 659.742759494837  1058.81030256028 659.989314100906  L 1059.05675663123 659.020159628746  Z M 1062.93339416765 659.999251167905  C 1061.9638362471 659.756059368785  1060.99457621146 659.511681498781  1060.02561623663 659.266118106502  L 1059.77995269301 660.235473265013  C 1060.74970327704 660.481237021273  1061.71975416679 660.725814287967  1062.69010318442 660.969204516  L 1062.93339416765 659.999251167905  Z M 1066.81320526884 660.965690327836  C 1065.84285911737 660.725662915297  1064.87280697976 660.484448466364  1063.90305103372 660.242047522544  L 1063.66055122834 661.212198976901  C 1064.63109843305 661.454797704346  1065.60194207106 661.696208968819  1066.57307996276 661.936432228334  L 1066.81320526884 660.965690327836  Z M 1070.69614864071 661.91946682241  C 1069.72502458602 661.682606351142  1068.75419067104 661.444557890605  1067.78364907522 661.205321975198  L 1067.54431558908 662.176259399759  C 1068.51564908461 662.415690516332  1069.48727513788 662.653933209166  1070.45919156752 662.890986943389  L 1070.69614864071 661.91946682241  Z M 1074.58218295583 662.860570500274  C 1073.61029133391 662.62687949126  1072.63868597446 662.391999552746  1071.66736905864 662.155931212017  L 1071.43120443906 663.12764427278  C 1072.40331388719 663.363905230137  1073.37571201438 663.598976815636  1074.34839663754 663.832858501527  L 1074.58218295583 662.860570500274  Z M 1078.47126685386 663.788991344952  C 1077.49861800888 663.558472285443  1076.52625154606 663.326763368856  1075.55416964829 663.093865115358  L 1075.32117640884 664.066343470062  C 1076.2940514631 664.2994317536  1077.26721131467 664.531329729822  1078.24065377873 664.762036878101  L 1078.47126685386 663.788991344952  Z M 1082.36335894202 664.704719474959  C 1081.38996322618 664.477374818445  1080.41684600922 664.248839389938  1079.44400947569 664.019113702482  L 1079.21419009619 664.992347000723  C 1080.18782040194 665.222260129608  1081.16173162023 665.450982028387  1082.13592156454 665.678512183562  L 1082.36335894202 664.704719474959  Z M 1086.25841779549 665.607745143901  C 1085.28428556898 665.383577310084  1084.31042795507 665.158217802035  1083.33684713999 664.931667125668  L 1083.11020406648 665.905645009006  C 1084.08457926107 666.132380536197  1085.05923148042 666.35792392317  1086.03415853636 666.582274663564  L 1086.25841779549 665.607745143901  Z M 1090.15640195789 666.498058740581  C 1089.18154358871 666.277070115353  1088.20695594294 666.054888926337  1087.23264120845 665.831515672311  L 1087.00917685318 666.806227774381  C 1087.984286566 667.029783286657  1088.95966941287 667.252145761293  1089.93532320397 667.473314699067  L 1090.15640195789 666.498058740581  Z M 1094.0572699417 667.3756507891  C 1093.08169580558 667.157843724515  1092.10638850081 666.938843219278  1091.13135021687 666.718649765029  L 1090.91106695823 667.694085711651  C 1091.88690081088 667.914458829639  1092.86300390395 668.13363802526  1093.839374046 668.351622806442  L 1094.0572699417 667.3756507891  Z M 1097.96098022872 668.240511948959  C 1096.98470070902 668.025888763209  1096.00868412575 667.810071272646  1095.03293267 667.593059961763  L 1094.81583285255 668.569209371054  C 1095.79238045891 668.786397749251  1096.76919340919 669.002391333063  1097.74626951037 669.217189637569  L 1097.96098022872 668.240511948959  Z M 1101.86749127047 669.092633015158  C 1100.89051675805 668.881195992548  1099.91380128436 668.668563813675  1098.93734704204 668.454736955881  L 1098.72343297643 669.431589438364  C 1099.70068394279 669.645590765162  1100.67819635374 669.858396438273  1101.65596801472 670.070005979935  L 1101.86749127047 669.092633015158  Z M 1105.77676148868 669.932004918295  C 1104.799102382 669.723756309261  1103.82169841298 669.514311705105  1102.84455177703 669.303671576273  L 1102.63382574002 670.281216734987  C 1103.61176966517 670.492028732701  1104.58997113282 670.701644230152  1105.56842794683 670.91006275674  L 1105.77676148868 669.932004918295  Z M 1109.68874927571 670.75861872466  C 1108.71041597992 670.553560745574  1107.73233391921 670.347305945495  1106.7545052893 670.139854787449  L 1106.54696952372 671.118082218063  C 1107.52559599908 671.325702642951  1108.50447611211 671.532125733735  1109.48360766513 671.737351026983  L 1109.68874927571 670.75861872466  Z M 1113.603412995 671.572465636332  C 1112.62441592301 671.370600469736  1111.64566618025 671.167537668885  1110.66716596394 670.963277689639  L 1110.46282267866 671.942176980558  C 1111.4421212884 672.146603622849  1112.42166962826 672.349832109938  1113.40146549908 672.551861985565  L 1113.603412995 671.572465636332  Z M 1117.5207109815 672.373536991273  C 1116.54106055311 672.174866785684  1115.56165354545 671.974998145325  1114.58249215724 671.773931518885  L 1114.38134352715 672.753492251364  C 1115.36130384827 672.954722935277  1116.34150998931 673.154754655645  1117.32195974963 673.353586963381  L 1117.5207109815 672.373536991273  Z M 1121.44060154214 673.161824263418  C 1120.46030818407 672.966351133348  1119.48025433567 672.769678780748  1118.50044219708 672.571807647131  L 1118.30249036308 673.552019395386  C 1119.28310196554 673.750051979158  1120.26395547511 673.9468848038  1121.24504868969 674.142517427409  L 1121.44060154214 673.161824263418  Z M 1125.36304295623 673.937319062768  C 1124.38211710207 673.745045088701  1123.40142684396 673.551571117108  1122.42097438346 673.356897582323  L 1122.22622145241 674.337749913639  C 1123.20747389924 674.532582289544  1124.18896433779 674.726214123506  1125.17069056454 674.918644980805  L 1125.36304295623 673.937319062768  Z M 1129.28799347594 674.700013135479  C 1128.30644556602 674.51094036385  1127.325129336 674.320666832471  1126.34404698887 674.129192968491  L 1126.15249503358 675.110675443336  C 1127.134377881 675.30230553771  1128.1164948022 675.492734320104  1129.09884359228 675.68196136299  L 1129.28799347594 674.700013135479  Z M 1133.21541132676 675.44989836395  C 1132.23325180779 675.264028807083  1131.25132005074 675.076957741139  1130.26961825875 674.888685585843  L 1130.08126931799 675.870787757979  C 1131.06377211549 676.059213531241  1132.04650506636 676.24643723527  1133.0294659643 676.432458449737  L 1133.21541132676 675.44989836395  Z M 1137.14525470788 676.186966766904  C 1136.16249403393 676.004302403186  1135.17995719965 675.820435793504  1134.19764641198 675.635367350852  L 1134.0125024904 676.618078767444  C 1134.99561478088 676.803298214115  1135.97895330187 676.987314847098  1136.96251584571 677.170128253261  L 1137.14525470788 676.186966766904  Z M 1141.07748179269 676.911210499485  C 1140.09413042299 676.731753272957  1139.11099897017 676.551093076719  1138.12808964127 676.369230316338  L 1137.94615270941 677.352540518068  C 1138.92986402929 677.534551666798  1139.91379765441 677.715359270185  1140.89795137577 677.894962922301  L 1141.07748179269 676.911210499485  Z M 1145.01205072924 677.622621853328  C 1144.02811913012 677.44637367405  1143.04440352212 677.268921814005  1142.06090611363 677.09026667156  L 1141.8821781079 678.074165192735  C 1142.86647798722 678.25296610632  1143.85099624414 678.430562755716  1144.83573066835 678.606954742206  L 1145.01205072924 677.622621853328  Z M 1148.9489196406 678.32119325665  C 1147.96441828436 678.148156000489  1146.98012899121 677.973914365316  1145.99605397079 677.79846874229  L 1145.82053679347 678.782945110958  C 1146.805414756 678.958533886362  1147.79050716617 679.132917691548  1148.77581181238 679.306096135014  L 1148.9489196406 678.32119325665  Z M 1152.88804662539 679.006917274327  C 1151.90298599041 678.837092782976  1150.91813348822 678.666063227185  1149.93349132971 678.493828990904  L 1149.76118684888 679.47887272896  C 1150.74663241224 679.651247497334  1151.732288491 679.822416602287  1152.71815287229 679.992379659533  L 1152.88804662539 679.006917274327  Z M 1156.82938975821 679.679786607975  C 1155.84378032881 679.513176688931  1154.85837509967 679.345361032846  1153.87317628295 679.176340016455  L 1153.7040863325 680.161940639758  C 1154.69008900827 680.33109956646  1155.67629826496 680.499052149371  1156.66271188845 680.665798011425  L 1156.82938975821 679.679786607975  Z M 1160.77294497504 680.336545594361  C 1159.78663555313 680.17413088974  1158.80052519868 680.010509590033  1157.81461612667 679.845682062761  L 1157.64972137558 680.831993231239  C 1158.63643488659 680.996955247272  1159.62334984311 681.160710051344  1160.61046403067 681.323257276016  L 1160.77294497504 680.336545594361  Z M 1164.71923489942 680.979767689386  C 1163.73240086347 680.82057159169  1162.74576195752 680.660168255891  1161.75932039773 680.49855804228  L 1161.59764427247 681.485401915707  C 1162.58489070552 681.647143992922  1163.57233464521 681.807678207503  1164.55997387466 681.967004199038  L 1164.71923489942 680.979767689386  Z M 1168.66760227514 681.610111958139  C 1167.68025412835 681.454136161745  1166.69309717202 681.296952497078  1165.70613362347 681.138561317199  L 1165.5476778448 682.125927392273  C 1166.53544669252 682.28444780923  1167.52340910529 682.441759725634  1168.51156286505 682.597862788308  L 1168.66760227514 681.610111958139  Z M 1172.61800507843 682.227571691661  C 1171.63015332926 682.074817856638  1170.6424888296 681.920855536125  1169.65501379666 681.765685075754  L 1169.49978005108 682.753562843615  C 1170.48806080032 682.90885991313  1171.47653117096 683.062947857036  1172.4651889438 683.215826329393  L 1172.61800507843 682.227571691661  Z M 1176.57040126387 682.832140318126  C 1175.58205642676 682.682610070346  1174.59389489498 682.53187073253  1173.60591888808 682.379922643262  L 1173.4539088278 683.368301589603  C 1174.44269095996 683.5203736588  1175.43165876785 683.671235990198  1176.42081003117 683.820888245102  L 1176.57040126387 682.832140318126  Z M 1180.52474876481 683.423811402912  C 1179.53592135884 683.277506333843  1178.54727331267 683.129991583156  1177.55880684696 682.981267482191  L 1177.41002208986 683.970137087374  C 1178.39929508123 684.118982537729  1179.38874980006 684.266617650883  1180.37838402619 684.413042095566  L 1180.52474876481 683.423811402912  Z M 1184.48100549384 684.00257864867  C 1183.49170604321 683.859500315456  1182.50258200557 683.715211722005  1181.51363560142 683.569713192233  L 1181.36807773107 684.559062931395  C 1182.35783105207 684.704680178636  1183.34776215157 684.849086502338  1184.33786880711 684.992281578297  L 1184.48100549384 684.00257864867  Z M 1188.43912934323 684.568435895393  C 1187.44936837779 684.428585820921  1186.45977887543 684.287524920297  1185.47036305893 684.145253510367  L 1185.32803362455 685.135072853535  C 1186.31825674111 685.277460347842  1187.30865368471 685.418636345066  1188.29922223183 685.55860052826  L 1188.43912934323 684.568435895393  Z M 1192.39907818537 685.121377120475  C 1191.40886623906 684.984756793158  1190.41882180533 684.846925086836  1189.42894710673 684.70788231093  L 1189.28984762318 685.698160723133  C 1190.28052999605 685.837316949028  1191.27138224263 685.975261117195  1192.26240213839 686.111992917938  L 1192.39907818537 685.121377120475  Z M 1196.36080987323 685.661396438784  C 1195.3701574852 685.528007312718  1194.37966865746 685.393406267683  1193.38934561234 685.257593605679  L 1193.2534775601 686.248320547061  C 1194.24460864511 686.38424402346  1195.23590564871 686.518954894382  1196.22736634535 686.652452857394  L 1196.36080987323 685.661396438784  Z M 1200.32428224081 686.188488102717  C 1199.33319995552 686.058331597688  1198.34227727463 685.926962646376  1197.35151642392 685.794381543858  L 1197.21888124908 686.785546469788  C 1198.21045049711 686.918235749985  1199.20218170743 687.049711889946  1200.19407265232 687.179974594336  L 1200.32428224081 686.188488102717  Z M 1204.28945310358 686.702646502264  C 1203.29795146902 686.575724003516  1202.30660548252 686.447588544243  1201.31541737082 686.318240412257  L 1201.18601648505 687.309832773443  C 1202.1780133429 687.439286445237  1203.17016820381 687.567526454785  1204.16247884034 687.694552514179  L 1204.28945310358 686.702646502264  Z M 1208.25628025893 687.203866165072  C 1207.26436982797 687.080179023481  1206.27261108709 686.955278420033  1205.28100626392 686.829164635274  L 1205.15484104449 687.821173877875  C 1206.14725495381 687.947390563421  1207.13982290589 688.07239307771  1208.13254267236 688.196181140102  L 1208.25628025893 687.203866165072  Z M 1212.22472148661 687.692141756494  C 1211.23241281629 687.571691288479  1210.24025187703 687.450026870264  1209.24824089618 687.327148774977  L 1209.1253126859 688.319564340715  C 1210.1181330841 688.442542696648  1211.11110356313 688.564306385235  1212.1042218937 688.684855133107  L 1212.22472148661 687.692141756494  Z M 1216.19473454922 688.167468079654  C 1215.2020382012 688.050255567233  1214.20948562306 687.931828629115  1213.21707904301 687.812187531158  L 1213.09738915025 688.804998857429  C 1214.09060547043 688.92473757485  1215.0839679079 689.043261141764  1216.07747423248 689.160569292078  L 1216.19473454922 688.167468079654  Z M 1220.16627719261 688.629840075498  C 1219.17320373248 688.515866766204  1218.18027007952 688.400678568639  1217.18747846278 688.284275741391  L 1217.07102816144 689.277472261379  C 1218.06462983247 689.39397006587  1219.05837365569 689.509252249626  1220.05225740008 689.623318553832  L 1220.16627719261 688.629840075498  Z M 1224.13930714634 689.079252822851  C 1223.14586714392 688.968519929761  1222.15256298384 688.856571698688  1221.15939689723 688.743408381086  L 1221.04618742673 689.736979523877  C 1222.04016387337 689.850235175513  1223.03427850561 689.962274749126  1224.02852909158 690.073097993179  L 1224.13930714634 689.079252822851  Z M 1228.11378212417 689.515701538466  C 1227.11998615255 689.408210240101  1226.12632205824 689.299503167114  1225.13279207194 689.189580563545  L 1225.02282463719 690.183515754236  C 1226.01716528024 690.293528047601  1227.01164014081 690.402323818596  1228.00624698622 690.509902822968  L 1228.11378212417 689.515701538466  Z M 1232.08965982446 689.939181577077  C 1231.09551846134 689.834933017545  1230.10150500787 689.72946825956  1229.10762169675 689.622787540011  L 1229.00089746818 690.617076199826  C 1229.99559172455 690.723843964023  1230.99041622892 690.829394774451  1231.98536874785 690.933728394144  L 1232.08965982446 689.939181577077  Z M 1236.06689793065 690.349688431446  C 1235.07242175659 690.248683720257  1234.07806952439 690.146462399856  1233.08384346627 690.043024699722  L 1232.98036357978 691.037656246121  C 1233.9754008626 691.141178344785  1234.97056442254 691.243483071236  1235.96585202538 691.344570195792  L 1236.06689793065 690.349688431446  Z M 1240.04545411168 690.747217732416  C 1239.05065371164 690.649457944637  1238.05597328309 690.550481149711  1237.06141506026 690.450287569956  L 1236.96118061722 691.44525141675  C 1237.95655033599 691.545526748062  1238.95204235964 691.644584301673  1239.94765445322 691.742423855189  L 1240.04545411168 690.747217732416  Z M 1244.02528602249 691.131765248952  C 1243.03017198424 691.037251425052  1242.03517394647 690.941520209086  1241.04029414412 690.84457181608  L 1240.94330621136 691.839857373545  C 1241.93899777204 691.936884870242  1242.93480766406 692.03269419671  1243.93073365176 692.127285137849  L 1244.02528602249 691.131765248952  Z M 1248.00635130442 691.50332688819  C 1247.01093421908 691.412060034091  1246.0156291626 691.319575416021  1245.02043836936 691.225873241599  L 1244.92669797915 692.221469916585  C 1245.92270078426 692.315248545972  1246.91881794591 692.407808625567  1247.91504722776 692.499149947566  L 1248.00635130442 691.50332688819  Z M 1251.9886075857 691.861898695477  C 1250.99289804803 691.773879782582  1249.99729656577 691.684642746713  1249.00180537399 691.594187788198  L 1248.91131352404 692.590084984244  C 1249.9076169728 692.680613748204  1250.90403080209 692.76992359578  1251.9005527749 692.858014326463  L 1251.9886075857 691.861898695477  Z M 1255.97201248187 692.207476854416  C 1254.97602108952 692.12270681954  1253.98013377801 692.03671831565  1252.98435278302 691.949511535784  L 1252.89711043646 692.945698653231  C 1253.89370392489 693.032976588237  1254.89040381666 693.119035253239  1255.88720787412 693.203874455028  L 1255.97201248187 692.207476854416  Z M 1259.95652359626 692.540057686907  C 1258.9602609499 692.458537432284  1257.96409840867 692.375798375577  1256.96803820889 692.29184070253  L 1256.88404629429 693.288307138633  C 1257.88091921511 693.37233331574  1258.87789456157 693.455139882252  1259.87497009415 693.536726652159  L 1259.95652359626 692.540057686907  Z M 1263.94209852039 692.859637653183  C 1262.94557522357 692.781368046459  1261.94914805513 692.701879317555  1260.95281925196 692.621171644916  L 1260.87207866325 693.617906793957  C 1261.86922040683 693.698680318882  1262.86646059602 693.778233905497  1263.86379699195 693.856567375201  L 1263.94209852039 692.859637653183  Z M 1267.92869483451 693.166213351849  C 1266.93192149355 693.091195226074  1265.93524030318 693.014957670997  1264.93865350088 692.937500857764  L 1264.86116509741 693.934494111166  C 1265.85856505064 694.012014124191  1266.85605946902 694.088313884231  1267.85364611311 694.163393219985  L 1267.92869483451 693.166213351849  Z M 1271.91627010797 693.459781519921  C 1270.91925733185 693.388015673538  1269.92233272756 693.315030103708  1268.92549853312 693.240824974279  L 1268.85126313964 694.238065720716  C 1269.84891068686 694.312331396772  1270.84664871777 694.385376518152  1271.84447499238 694.457200920864  L 1271.91627010797 693.459781519921  Z M 1275.90478189969 693.740339032857  C 1274.90754030016 693.671826229706  1273.91038289213 693.602093421905  1272.91331191539 693.531140766084  L 1272.842330322 694.528618391598  C 1273.84021484493 694.59962894025  1274.83818586911 694.669418645527  1275.83624115405 694.737987350746  L 1275.90478189969 693.740339032857  Z M 1279.89418775865 694.00788290459  C 1278.89672794925 693.942623873848  1277.89934835139 693.876144570322  1276.90205120408 693.808445143253  L 1276.83432416627 694.806149031362  C 1277.83243504409 694.873903696823  1278.83062843982 694.940437243202  1279.82890211246 695.005749521129  L 1279.89418775865 694.00788290459  Z M 1283.88444522428 694.262410287566  C 1282.88677782174 694.200405723832  1281.88918664864 694.137180632087  1280.89167394575 694.072735154344  L 1280.82720218434 695.070654686161  C 1281.82552879384 695.135152747295  1282.82393393702 695.198429426639  1283.8224153724 695.260484582133  L 1283.88444522428 694.262410287566  Z M 1287.87551182699 694.503918472764  C 1286.87764744937 694.445169035949  1285.87985531956 694.385198828962  1284.88213767752 694.324007986433  L 1284.82092187873 695.322132540774  C 1285.81945359438 695.383373311107  1286.81805985866 695.443392449941  1287.81673842962 695.502189822529  L 1287.87551182699 694.503918472764  Z M 1291.86734508854 694.732404889735  C 1290.86929435645 694.676911205129  1289.87131188975 694.620196521181  1288.8733999276 694.562260965141  L 1288.81544074295 695.56057991864  C 1289.81416693727 695.618562746378  1290.81296369374 695.675323705875  1291.81182877123 695.73086266977  L 1291.86734508854 694.732404889735  Z M 1295.85990252255 694.947867106624  C 1294.86167605898 694.895629764886  1293.86351387642 694.842171207563  1292.86541821568 694.787491554664  L 1292.81071626205 695.785994281886  C 1293.80962630486 695.840718549876  1294.80860292382 695.894220725957  1295.80764387617 695.946500690016  L 1295.85990252255 694.947867106624  Z M 1299.85314163493 695.150302830195  C 1298.85475006412 695.101322387294  1297.85641878988 695.051120525595  1296.85815005339 694.999697357798  L 1296.806705913 695.998373231353  C 1297.80578917277 696.049838357158  1298.80493502138 696.10008118036  1299.80414121569 696.149101588161  L 1299.85314163493 695.150302830195  Z M 1303.84701992432 695.339709905858  C 1302.84847387269 695.293986883119  1301.84998413192 695.247042251341  1300.85155294479 695.198876115969  L 1300.80336716518 696.197714506622  C 1301.80261300834 696.245919942482  1302.80191745237 696.292902878053  1303.80127825375 696.338663207857  L 1303.84701992432 695.339709905858  Z M 1307.84149488257 695.516086317694  C 1306.84280497756 695.473621201742  1305.84416739834 695.429934299569  1304.84558438679 695.385025709251  L 1304.80065748081 696.38401598604  C 1305.80005527207 696.428961218888  1306.79950767558 696.472683766774  1307.79901244751 696.515183531538  L 1307.84149488257 695.516086317694  Z M 1311.83652399519 695.679430188469  C 1310.83770086659 695.640223431291  1309.83892607692 695.599794723663  1308.84020186961 695.558144156394  L 1308.79853431543 696.557275686739  C 1309.79807341786 696.598960238209  1310.79766314337 696.639421933056  1311.79730124779 696.678660680441  L 1311.83652399519 695.679430188469  Z M 1315.83206474176 695.829739779661  C 1314.83311902017 695.79379179854  1313.83421765076 695.75662171577  1312.83536287722 695.718229614841  L 1312.79695511833 696.717491764658  C 1313.79662489352 696.755915191087  1314.79634130205 696.793115602249  1315.7961020995 696.829092914625  L 1315.83206474176 695.829739779661  Z M 1319.82807459646 695.967013491477  C 1318.82901691377 695.934324669012  1317.82999959666 695.900413606727  1316.83102488783 695.86528038075  L 1316.79587733301 696.864662514566  C 1317.79566714114 696.899824407002  1318.79549959239 696.933763138542  1319.79537244208 696.96647863299  L 1319.82807459646 695.967013491477  Z M 1323.82451102843 696.091249862868  C 1322.82535201816 696.061820546984  1321.82622938579 696.031168866095  1320.8271453743 695.999294889013  L 1320.79525839763 696.998786370077  C 1321.79515759761 697.03068635428  1322.79509545005 697.061363044977  1323.79506971 697.090816373296  L 1323.82451102843 696.091249862868  Z M 1327.8213315023 696.202447571544  C 1326.82208179902 696.176278075472  1325.82286448499 696.148886102205  1324.8236818046 696.120271713269  L 1324.79505574548 697.119861903667  C 1325.79505369506 697.148499640115  1326.79508630601 697.175913963467  1327.79515133317 697.202104812174  L 1327.8213315023 696.202447571544  Z M 1331.81849347861 696.300605433993  C 1330.81916371745 696.277696036258  1329.81986235715 696.253564062166  1328.82059164231 696.228209565922  L 1328.7952268054 697.227887826688  C 1329.79531286128 697.253263010581  1330.79542958706 697.277414674808  1331.79557473742 697.300342765147  L 1331.81849347861 696.300605433993  Z M 1335.81595441424 696.385722405489  C 1334.8165552312 696.366073349919  1333.81718046094 696.345201631855  1332.81783234699 696.323107298154  L 1332.79572900227 697.322862989387  C 1333.7958925202 697.344975350647  1334.79608271625 697.365864098696  1335.79629734494 697.385529186635  L 1335.81595441424 696.385722405489  Z M 1339.81367176293 696.457797580103  C 1338.81421379514 696.441409075834  1337.81477625118 696.423797835933  1336.81536137472 696.404963899938  L 1336.79651975743 697.40478638091  C 1337.79675009214 697.423635684186  1338.79700311353 697.441261293738  1339.79727657472 697.457663169972  L 1339.81367176293 696.457797580103  Z M 1343.81160297565 696.516830190717  C 1342.81209686067 696.503702412176  1341.81260718035 696.489351837881  1340.81313617848 696.473778500047  L 1340.79755648916 697.473657129322  C 1341.79784299529 697.489243174001  1342.79814819516 697.503605457446  1343.79846984303 697.516743947412  L 1343.81160297565 696.516830190717  Z M 1347.80970550112 696.562819609026  C 1346.81016187702 696.552952695938  1345.81063069824 696.541862939986  1344.81111420865 696.529550366065  L 1344.79879661313 697.529474501608  C 1345.79912864408 697.541797121799  1346.79947537628 697.552895926282  1347.79983456388 697.562770890138  L 1347.80970550112 696.562819609026  Z M 1351.80793678623 696.59576534555  C 1350.80836629148 696.589159402931  1349.80880425257 696.581330583354  1348.80925291344 696.572278904394  L 1348.80019754282 697.572237903685  C 1349.80056445174 697.581296968234  1350.80094206925 697.589132175627  1351.80132814942 697.595743508271  L 1351.80793678623 696.59576534555  Z M 1355.80625427649 696.615667049637  C 1354.80666754985 696.612322147797  1353.80708528948 696.607754347919  1352.80750973937 696.60196366026  L 1352.80171669001 697.601946880408  C 1353.80210782967 697.607742292898  1354.80250568514 697.612313819808  1355.80290801045 697.615661450873  L 1355.80625427649 696.615667049637  Z M 1359.80461541651 696.622524509467  C 1358.80502309711 696.622440684006  1357.80543125374 696.621133952444  1356.80584213166 696.618604317718  L 1356.80331146524 697.618601115576  C 1357.80371618815 697.621132814323  1358.80412363402 697.622440612094  1359.80453155686 697.622524505951  L 1359.80461541651 696.622524509467  Z M 1363.80297765042 696.616337652054  C 1362.80339037704 696.619514903863  1361.80379959008 696.621469254527  1360.80420753477 696.622200699656  L 1360.80493927822 697.622200431932  C 1361.80534693674 697.62146838999  1362.80575332535 697.619512444702  1363.80615619805 697.616332600459  L 1363.80297765042 696.616337652054  Z M 1367.80129842235 696.597106543246  C 1366.80172683371 696.603544838511  1365.80214774254 696.608760250597  1364.80256339279 696.612752767797  L 1364.80655753831 697.612744791166  C 1365.80695748479 697.608749016328  1366.80735216848 697.603529348799  1367.80773934342 697.597085800298  L 1367.80129842235 696.597106543246  Z M 1371.79953517685 696.564831387726  C 1370.79998991194 696.574530657921  1369.80043315499 696.583007075921  1368.80086714991 696.590260622699  L 1368.808123655 697.590234293919  C 1369.80850524184 697.582974828713  1370.80887757308 697.574491494498  1371.80923840283 697.56478431032  L 1371.79953517685 696.564831387726  Z M 1375.7976453594 696.519512529009  C 1374.7981370567 696.532472670901  1373.79861327258 696.544210004599  1372.79907625087 696.554724503752  L 1372.80959503829 697.554669179777  C 1373.80994761811 697.544146101467  1374.81028694962 697.532399190857  1375.810610787 697.51942847432  L 1375.7976453594 696.519512529009  Z M 1379.7955864168 696.461150449439  C 1378.7961257144 696.47737132509  1377.79664554136 696.49236944956  1376.79714814144 696.50614478918  L 1376.81092909923 697.506049827272  C 1377.81124202494 697.492263247858  1378.81153770979 697.477252885879  1379.81181390803 697.461018775034  L 1379.7955864168 696.461150449439  Z M 1383.79331579766 696.389745770182  C 1382.79391333315 696.409227206948  1381.79448740899 696.42748596256  1380.79504026881 696.444521996031  L 1380.81208325031 697.444376753874  C 1381.81234587526 697.427326820093  1382.81258726696 697.409053166505  1383.81280517979 697.389555834136  L 1383.79331579766 696.389745770182  Z M 1387.79079095283 696.305299251222  C 1386.79145736318 696.328041041755  1385.79209632511 696.349560234176  1384.79271008213 696.369856780178  L 1384.81301490594 697.369650615991  C 1385.81321658401 697.349337509309  1386.81339303667 697.327800758605  1387.81354201844 697.30504041223  L 1387.79079095283 696.305299251222  Z M 1391.78796933588 696.207811791351  C 1390.78871525752 696.233813693597  1389.78942974167 696.258593093801  1388.79011503288 696.282149936306  L 1388.81368148289 697.281872208957  C 1389.8138115684 697.258296145579  1390.81391243722 697.233496526971  1391.81398184283 697.207473408841  L 1391.78796933588 696.207811791351  Z M 1395.78480840354 696.097284428159  C 1394.78564447166 696.126546165376  1393.78644511415 696.15458550962  1392.78721257538 696.181402397909  L 1392.81404040076 697.181042467026  C 1393.81408824941 697.154203697871  1394.81410288918 697.12614147533  1395.81408207496 697.096855862406  L 1395.78480840354 696.097284428159  Z M 1399.78089502643 695.973695261958  C 1399.76511882376 695.974220480441  1399.74934258017 695.974745428142  1399.7335663594 695.97527010294  C 1398.7504017107 696.007235514434  1397.76719893427 696.038017248181  1396.78396016722 696.067615237275  L 1396.81404908243 697.067162463363  C 1397.79821401236 697.03753659441  1398.78234291327 697.006725716583  1399.76643364533 696.974729896877  C 1399.78234523365 696.974200724424  1399.79825684132 696.973671274696  1399.81416841125 696.973141549591  L 1399.78089502643 695.973695261958  Z M 1403.77702680688 695.834835822173  C 1402.77804497626 695.871004214705  1401.77902397559 695.906082487013  1400.77996558875 695.94007057646  L 1400.81396604215 696.939492393896  C 1401.81375148872 696.905479569788  1402.81349952186 696.870375769445  1403.81320835651 696.834181055546  L 1403.77702680688 695.834835822173  Z M 1407.77273759902 695.684348558781  C 1406.77386524491 695.723423752322  1405.77495054878 695.761408944235  1404.77599529428 695.798304066694  L 1404.8129038382 696.797622714266  C 1405.81258607716 696.760700741575  1406.81222772882 696.722687906115  1407.81182700706 696.683584275806  L 1407.77273759902 695.684348558781  Z M 1411.7679935686 695.522234746055  C 1410.76923914911 695.56421640973  1409.77043921595 695.605108199604  1408.77159555259 695.64491004266  L 1408.81141187449 696.644117058504  C 1409.81098244131 696.604286249856  1410.81050924607 696.563364701189  1411.80999050408 696.521352485569  L 1411.7679935686 695.522234746055  Z M 1415.76276088528 695.348495756715  C 1414.7641328579 695.393383535021  1413.76545614436 695.437181576635  1412.76673253039 695.479889803243  L 1412.80945629312 696.478976726437  C 1413.8089067234 696.436237419123  1414.80831021845 696.392407503724  1415.80766499257 696.347487058553  L 1415.76276088528 695.348495756715  Z M 1419.75700572282 695.16313306192  C 1418.75851254273 695.210926574799  1417.7599675069 695.257630497215  1416.76137239833 695.303244745773  L 1416.80700324012 696.302203116416  C 1417.80632507128 696.256555672318  1418.80559679321 696.209817761358  1419.80481662169 696.16198946699  L 1419.75700572282 695.16313306192  Z M 1423.75069425941 694.966148231253  C 1422.75234438212 695.016847073979  1421.75393947807 695.066456481782  1420.75548133124 695.114976366017  L 1420.80401886571 696.113797725293  C 1421.80320363565 696.065242530946  1422.80233512341 696.015597020168  1423.80141154502 695.964861281603  L 1423.75069425941 694.966148231253  Z M 1427.74379267795 694.757542932709  C 1426.74559455671 694.811146676004  1425.74733823939 694.863661149078  1424.74902550848 694.915086258162  L 1424.80046932464 695.913762148418  C 1425.79950857242 695.86229961498  1426.79849136614 695.809746924742  1427.79741592085 695.756104171603  L 1427.74379267795 694.757542932709  Z M 1431.73626716637 694.537318932682  C 1430.73822925375 694.593827122638  1429.74012997562 694.649246216331  1428.74197111418 694.703576114805  L 1428.79632077641 695.702098079618  C 1429.79520604275 695.647728642845  1430.79403168299 695.592269218164  1431.79279591248 695.535719904668  L 1431.73626716637 694.537318932682  Z M 1435.72808391782 694.305478095948  C 1434.73021466486 694.364890254075  1433.73228087746 694.423213499118  1432.73428433753 694.480447726935  L 1432.79153938562 695.478807311187  C 1433.79026221232 695.42153143146  1434.7889222414 695.363165741946  1435.7875176885 695.303710346932  L 1435.72808391782 694.305478095948  Z M 1439.71920913109 694.062022385651  C 1438.72151698757 694.124338008854  1437.72375714062 694.185564911413  1436.72593137308 694.245702983924  L 1436.78609132222 695.24389173387  C 1437.78464325245 695.183709896179  1438.78312921408 695.122438436052  1439.78154742305 695.060077462966  L 1439.71920913109 694.062022385651  Z M 1443.70960901076 693.806953863284  C 1442.71210242458 693.872172423911  1441.71452496716 693.936302465514  1440.71687842103 693.999343873503  L 1440.7799427618 694.997353336846  C 1441.7783153404 694.934266050777  1442.77661877936 694.870089338887  1443.77485129616 694.804823315766  L 1443.70960901076 693.806953863284  Z M 1447.6992497676 693.540274688675  C 1446.70193718527 693.608395634479  1445.70455056451 693.675428272097  1444.70709168749 693.741372481751  L 1444.77305988589 694.739194207712  C 1445.77124465881 694.673202007477  1446.76935712222 694.606120587224  1447.76739549399 694.53795006673  L 1447.6992497676 693.540274688675  Z M 1451.68809761878 693.261987119966  C 1450.69098748498 693.333009874138  1449.69380014679 693.402944540133  1448.6965373848 693.471790993077  L 1448.76540888223 694.469416532466  C 1449.76339739719 694.400519976862  1450.76131043343 694.330534416267  1451.75914620912 694.259459975642  L 1451.68809761878 693.261987119966  Z M 1455.67611878821 692.972093513593  C 1454.67921954651 693.046017474709  1453.68223993388 693.118853576959  1452.68518173178 693.190601690196  L 1452.75695594507 694.188022595485  C 1453.75473975127 694.116222267918  1454.75244491077 694.043333159563  1455.75006964089 693.969355400656  L 1455.67611878821 692.972093513593  Z M 1459.66327950677 692.670596324271  C 1458.66659959814 692.7474208664  1457.66983615396 692.823157788094  1456.67299095407 692.897806954118  L 1456.74766727545 693.895014779511  C 1457.74523792423 693.820311287946  1458.74272675838 693.744519249059  1459.7401319956 693.667638798271  L 1459.66327950677 692.670596324271  Z M 1463.64954601265 692.357498104966  C 1462.65309387681 692.437222577571  1461.6565550409 692.515859677428  1460.65993128434 692.593409264121  L 1460.73750908148 693.590395565627  C 1461.73485812599 693.51278954261  1462.732122188 693.434095215002  1463.72929948687 693.354312723312  L 1463.64954601265 692.357498104966  Z M 1467.63488455159 692.03280150688  C 1466.63866862614 692.115425234883  1465.64236283682 692.196961847032  1464.64596896264 692.277411197734  L 1464.72644757865 693.274167533237  C 1465.72356657348 693.193659635923  1466.7205974193 693.112063685918  1467.71753833589 693.029379828911  L 1467.63488455159 692.03280150688  Z M 1471.61926137721 691.696509279425  C 1470.62329009795 691.782031563182  1469.62722579116 691.866466997235  1468.63107023666 691.949815430713  L 1468.71444899008 692.946333360044  C 1469.71132949179 692.862924270162  1470.70811867934 692.778427388649  1471.7048147717 692.69284286648  L 1471.61926137721 691.696509279425  Z M 1475.60264275127 691.348624270202  C 1474.6069245513 691.437044385575  1473.61111016218 691.524377926495  1472.61520136203 691.610624737019  L 1472.70147954682 692.60689582203  C 1473.69811311461 692.520586245823  1474.69465220261 692.433189148359  1475.6910950315 692.344704685691  L 1475.60264275127 691.348624270202  Z M 1479.58499494394 690.989149424972  C 1478.58953825506 691.080466623217  1477.59398221496 691.170697531567  1476.59832860257 691.259841988795  L 1476.68750548817 692.255857793425  C 1477.6838836827 692.166648461748  1478.68016423325 692.076351888348  1479.67634536094 691.984968234451  L 1479.58499494394 690.989149424972  Z M 1483.56628423411 690.618087787638  C 1482.57109748528 690.712301295532  1481.57580822464 690.805428807234  1480.58041823062 690.89747015634  L 1480.67249306192 691.893222246693  C 1481.66860744601 691.801113914957  1482.66462102337 691.707918630179  1483.66053201437 691.613636558878  L 1483.56628423411 690.618087787638  Z M 1487.5464769097 690.235442500214  C 1486.55156852779 690.33255151999  1485.55655447434 690.428574846475  1484.56143652731 690.523512308088  L 1484.65640852464 691.518992252498  C 1485.65225066397 691.423985700604  1486.64798883345 691.32789249367  1487.64362125515 691.230712803271  L 1487.5464769097 690.235442500214  Z M 1491.52553926789 689.8412168028  C 1490.53091767741 689.941220512176  1489.53618725658 690.040138840352  1488.54134978281 690.137971610576  L 1488.63921814199 691.133170979683  C 1489.63477960373 691.035267012152  1490.6302339346 690.936276696664  1491.62557935595 690.836200210089  L 1491.52553926789 689.8412168028  Z M 1495.50343761542 689.435414033555  C 1494.50911123847 689.538311585736  1493.51467287326 689.640124078  1492.5201242967 689.740851328422  L 1492.620888189 690.735761695242  C 1493.61616054351 690.634961141048  1494.6113226058 690.533074555301  1495.60637259898 690.430102119921  L 1495.50343761542 689.435414033555  Z M 1499.4801382689 689.01803762867  C 1498.48611552488 689.123828152379  1497.49197763625 689.228533946575  1496.49772637814 689.332154824296  L 1496.60138495035 690.326767764291  C 1497.59635976961 690.223071477019  1498.59122113748 690.118289483667  1499.58596727636 690.012421971457  L 1499.4801382689 689.01803762867  Z M 1503.4556075551 688.589091122334  C 1502.46189686122 688.697773721754  1501.46806786675 688.805371931315  1500.47412234627 688.911885558889  L 1500.58067472064 689.906192650042  C 1501.57534357978 689.799601507732  1502.56989582869 689.691924994073  1503.56432969033 689.583163301459  L 1503.4556075551 688.589091122334  Z M 1507.42981181119 688.14857814671  C 1506.43642158184 688.260151901556  1505.44290989691 688.37064161538  1504.44927853042 688.48004709089  L 1504.5587238047 689.47403991377  C 1505.55307828143 689.364554818974  1506.54731298946 689.25398469682  1507.54142615357 689.142329744734  L 1507.42981181119 688.14857814671  Z M 1511.40271738506 687.6965024319  C 1510.4096560319 687.810966397408  1509.4164700692 687.924346679907  1508.42316127041 688.036643076947  L 1508.53549851786 689.030313214787  C 1509.52953019215 688.917935094608  1510.5234389409 688.804472300181  1511.51722298948 688.689925034097  L 1511.40271738506 687.6965024319  Z M 1515.3742906356 687.232867805918  C 1514.38156656751 687.350221012847  1513.38871473698 687.46649090396  1512.39573691687 687.581677271645  L 1512.51096518626 688.575016310409  C 1513.504665641 688.459746116423  1514.49824001442 688.343391610485  1515.49168653247 688.225953000348  L 1515.3742906356 687.232867805918  Z M 1519.34449793297 686.75767819465  C 1518.35211955618 686.877919649272  1517.35961026453 686.997078164517  1516.36697183146 687.115153527466  L 1516.48509014708 688.108153055923  C 1517.47845096778 687.989991764221  1518.47168255306 687.870746531969  1519.46478312823 687.750417572232  L 1519.34449793297 686.75767819465  Z M 1523.31330565893 686.27093762183  C 1522.32128137633 686.394066306008  1521.32912302815 686.516112436346  1520.33683238724 686.637075794764  L 1520.4578397489 687.629727404557  C 1521.45085252435 687.508676015661  1522.44373291075 687.38654106687  1523.43647913404 687.263322776409  L 1523.31330565893 686.27093762183  Z M 1527.28068020704 685.772650208998  C 1526.28901841853 685.89866508015  1525.29721941548 686.023597792087  1524.30528496886 686.147448121727  L 1524.42918035192 687.139743407444  C 1525.42183667365 687.015802946373  1526.41435745382 686.890779315236  1527.40674091902 686.76467273742  L 1527.28068020704 685.772650208998  Z M 1531.24658798304 685.26282017547  C 1530.25529708585 685.391720166523  1529.26386582571 685.519538402224  1528.27229597293 685.646274654341  L 1528.39907832829 686.638205213589  C 1529.39136979085 686.511376729826  1530.38352256048 686.383465474998  1531.37553486444 686.25447167765  L 1531.24658798304 685.26282017547  Z M 1535.21099540506 684.7414518383  C 1534.22008379308 684.873235857775  1533.22902867093 685.003938534924  1532.23783180824 685.133559636362  L 1532.36750006235 686.125117069835  C 1533.35941826359 685.995401637291  1534.35119462109 685.86460384193  1535.34282736402 685.732723917296  L 1535.21099540506 684.7414518383  Z M 1539.17386890396 684.208549612246  C 1538.18334496787 684.343216544244  1537.1926743756 684.476802556097  1536.20185889609 684.609307409272  L 1536.33441195097 685.600483320825  C 1537.32594849147 685.467882037908  1538.31734003925 685.334198809511  1539.30858482417 685.199433874328  L 1539.17386890396 684.208549612246  Z M 1543.13517492357 683.664118009727  C 1542.14504705076 683.801666713939  1541.154769377 683.938134929339  1540.16434367054 684.073522412248  L 1540.29978040378 685.064308408965  C 1541.29092688758 684.928822398494  1542.2819252309 684.792254869041  1543.2727736643 684.65460606445  L 1543.13517492357 683.664118009727  Z M 1547.09487992099 683.108161640793  C 1546.10515649551 683.248590952505  1545.11528012558 683.387940215889  1544.12525257873 683.526209182121  L 1544.26357184349 684.516596874388  C 1545.25431987772 684.378227283639  1546.24491662558 684.238776609476  1547.23536031712 684.098245101065  L 1547.09487992099 683.108161640793  Z M 1551.0529503669 682.540685213077  C 1550.06363976936 682.683993943187  1549.07417308516 682.826223074596  1548.08455208111 682.967372353339  L 1548.22575270617 683.957353354916  C 1549.21609390173 683.816101355523  1550.20628066571 683.673768717524  1551.19631122888 683.530355695235  L 1551.0529503669 682.540685213077  Z M 1555.0093527458 681.961693531764  C 1554.02046335332 682.107880466785  1553.0314147333 682.252988261875  1552.0422086518 682.397016657928  L 1552.18628944152 683.386582586018  C 1553.17621541257 683.242449374051  1554.16598380813 683.097235977437  1555.1555928597 682.950942655639  L 1555.0093527458 681.961693531764  Z M 1558.96405355633 681.371191499543  C 1557.97559374266 681.520255401586  1556.98697156131 681.668240631699  1555.9981887788 681.815146925453  L 1556.14514851315 682.804289400772  C 1557.13465087757 682.657276196669  1558.1239925233 682.509183271115  1559.11317168384 682.360010888534  L 1558.96405355633 681.371191499543  Z M 1562.91701931151 680.769184116569  C 1561.92899744637 680.921123723446  1560.9408100754 681.071985135437  1559.95245896432 681.221768082973  L 1560.1022963989 682.210478729825  C 1561.09136677754 682.0605867785  1562.08027329687 681.909615577881  1563.06901418996 681.757565397717  L 1562.91701931151 680.769184116569  Z M 1566.86821653908 680.155676480421  C 1565.88064098868 680.310490505564  1564.89289679569 680.464226821992  1563.90498572505 680.616885155003  L 1564.05769959109 681.605155601348  C 1565.04632960905 681.452386172001  1566.03479262789 681.298537974746  1567.02308688144 681.143611284474  L 1566.86821653908 680.155676480421  Z M 1570.81761178176 679.530673786057  C 1569.83049090832 679.688360918589  1568.84319825757 679.844970837608  1567.85573559243 680.000503263471  L 1568.01132459681 680.988325140995  C 1568.99950588295 680.83267952719  1569.98751703093 680.675955636095  1570.97535627663 680.518153747544  L 1570.81761178176 679.530673786057  Z M 1574.76517159749 678.894181325772  C 1573.7785137598 679.054740230424  1572.79168101092 679.214222425982  1571.80467511296 679.372627627673  L 1571.9631379382 680.359992571863  C 1572.95086212476 680.201472091581  1573.93841303618 680.041873833662  1574.92578890916 679.881198083073  L 1574.76517159749 678.894181325772  Z M 1578.71086255979 678.246204489151  C 1577.72467611271 678.409633806336  1576.73831162143 678.571986928063  1575.75177084845 678.733263564231  L 1575.91310615276 679.72016321444  C 1576.90036487584 679.558769210009  1577.88744718888 679.39629793662  1578.87435132821 679.23274968457  L 1578.71086255979 678.246204489151  Z M 1582.654651258 677.586748763025  C 1581.66894455178 677.75304710895  1580.6830566711 677.918269781964  1579.69698937636 678.082416487045  L 1579.8611957936 679.068842486569  C 1580.84798069366 678.904576324581  1581.83458604967 678.739233411534  1582.82101009879 678.572814042857  L 1582.654651258 677.586748763025  Z M 1586.59650429754 676.915819731424  C 1585.611285679 677.084985697902  1584.62588275663 677.253076523226  1583.64029729 677.420091907252  L 1583.80737342974 678.406035903396  C 1584.79367615125 678.238898974762  1585.7797961956 678.07068582219  1586.76573180205 677.901396746029  L 1586.59650429754 676.915819731424  Z M 1590.53638830025 676.23342307553  C 1589.55166611206 676.405455230089  1588.56675649164 676.576412784462  1587.58166119889 676.746295433173  L 1587.75160564638 677.731749077323  C 1588.73741783729 677.561742797367  1589.7230442207 677.390660829499  1590.70848303552 677.218503479402  L 1590.53638830025 676.23342307553  Z M 1594.47426990464 675.539564573629  C 1593.49005248485 675.714461459599  1592.50564450665 675.888284295345  1591.52104772901 676.061032770271  L 1591.69385904522 677.045987717966  C 1592.67917235843 676.873113526168  1593.66429673415 676.699164191805  1594.64923041343 676.524140025467  L 1594.47426990464 675.539564573629  Z M 1598.41011576615 674.834250101059  C 1597.42641144857 675.012010237515  1596.44251344858 675.188696882693  1595.45842352305 675.364309721099  L 1595.63410024469 676.3487576321  C 1596.61890633673 676.173016992332  1597.6035203635 675.996201764342  1598.58794056697 675.818312263839  L 1598.41011576615 674.834250101059  Z M 1602.34389255749 674.117485630168  C 1601.36070967216 674.298107511827  1600.37732998088 674.477656470465  1599.39375524078 674.656132185254  L 1599.57229588027 675.640064723616  C 1600.55658641195 675.461459124022  1601.54068175284 675.281779499537  1602.52458014457 675.10102617121  L 1602.34389255749 674.117485630168  Z M 1606.27556696887 673.389277230253  C 1605.29291384083 673.572759327713  1604.31006078555 673.755169079383  1603.32700955923 673.936506159323  L 1603.50841260476 674.919914993466  C 1604.49217924188 674.738445946338  1605.4757475631 674.55590344697  1606.45911581222 674.372287821296  L 1606.27556696887 673.389277230253  Z M 1610.20510570831 672.649631067518  C 1609.2229906583 672.835971827119  1608.24067256147 673.021240827242  1607.25815317304 673.205437736838  L 1607.44241708857 674.188314539615  C 1608.42565150054 674.003983581642  1609.40868447441 673.818579752942  1610.39151425371 673.632103384788  L 1610.20510570831 672.649631067518  Z M 1614.13247550191 671.898553405016  C 1613.15090684613 672.087751248893  1612.16913202565 672.275877928678  1611.18715279474 672.462933108218  L 1611.37427601997 673.445269556988  C 1612.35696988154 673.258078248941  1613.33945918327 673.069814660994  1614.32174217092 672.880479129296  L 1614.13247550191 671.898553405016  Z M 1618.05764309414 671.136050602599  C 1617.07662914395 671.328103928732  1616.09540591354 671.519086695113  1615.11397515498 671.708998560721  L 1615.30395610542 672.690786337417  C 1616.28610109529 672.500736264402  1617.26803840595 672.309614511279  1618.24976628411 672.117421419301  L 1618.05764309414 671.136050602599  Z M 1621.98057524812 670.36212911686  C 1621.00012431059 670.557036298974  1620.01946097848 670.750873534857  1619.03858700287 670.94364047839  L 1619.23142406984 671.924871269592  C 1620.21301187136 671.731964040923  1621.19438887665 671.537985740892  1622.17555333223 671.342936716095  L 1621.98057524812 670.36212911686  Z M 1625.90123874589 669.576795501084  C 1624.92135912312 669.774554888777  1623.94126399321 669.971244952817  1622.96095510624 670.166865341995  L 1623.15664665686 671.147530839001  C 1624.1376689587 670.951768088066  1625.11847734788 670.754934883826  1626.09907007313 670.557031577732  L 1625.90123874589 669.576795501084  Z M 1629.8196003887 668.78005640519  C 1628.84030037795 668.980666323906  1627.86078174934 669.180207550606  1626.88104625189 669.378679728987  L 1627.07959062912 670.358771627878  C 1628.06003912415 670.160155012365  1629.0402705925 669.960468570547  1630.02028328392 669.759712658969  L 1629.8196003887 668.78005640519  Z M 1633.73562699731 667.971918575672  C 1632.75691489093 668.175377326721  1631.77798105781 668.377768026437  1630.79882724594 668.579090313432  L 1631.00022276857 669.558600315149  C 1631.98008915472 669.35713151687  1632.95973540198 669.154593528346  1633.93915976118 668.950986711212  L 1633.73562699731 667.971918575672  Z M 1637.64928541222 667.152388855547  C 1636.6711694976 667.358694716114  1635.69282874923 667.563933175076  1634.71426491405 667.76810386596  L 1634.91850987674 668.747023676371  C 1635.89778585685 668.542704401291  1636.87683858774 668.337316581078  1637.85566632132 668.130860582457  L 1637.64928541222 667.152388855547  Z M 1639.14094049898 666.836901989356  C 1638.96974263088 666.873209784082  1638.79853782974 666.909484872634  1638.62732610171 666.94572725371  L 1638.834418775 667.924048583678  C 1639.81309605691 667.716880561898  1640.79154698118 667.508644649145  1641.76976980077 667.29934121723  L 1639.14094049898 666.836901989356  Z M 699.820072393124 506.137503611155  C 698.966547134141 505.617150382659  698.113589949049 505.095865924627  697.261202361958 504.573651168516  L 696.738797638042 505.426348831484  C 697.5918055461 505.948943626872  698.445383466114 506.470607446815  699.299529873999 506.991339359869  L 699.820072393124 506.137503611155  Z M 1640.84530823822 674.666520508788  L 1650 665  L 1637.65730789549 660.009213327224  L 1640.84530823822 674.666520508788  Z " fill-rule="nonzero" fill="#1f8aee" stroke="none" />
  </g>
</svg>