<?xml version="1.0" encoding="utf-8"?>
<svg version="1.1" xmlns:xlink="http://www.w3.org/1999/xlink" width="126px" height="16px" viewBox="796 864  126 16" xmlns="http://www.w3.org/2000/svg">
  <g transform="matrix(0.258819045102521 -0.965925826289071 0.965925826289069 0.258819045102521 -205.612880267134 1476.04007745291 )">
    <path d="M 872.753483429163 692.643490906463  C 873.131352762947 691.719080024909  873.512941948219 690.796194069624  873.898241708905 689.874855475097  L 872.975666362592 689.489038510236  C 872.589331151463 690.412853100216  872.206716487538 691.338219209243  871.827831671761 692.265114342681  L 872.753483429163 692.643490906463  Z M 871.261884294967 696.349171283932  C 871.6298083731 695.420757268484  872.00146845835 694.493828159108  872.376855516011 693.568406488575  L 871.450191612806 693.19251553298  C 871.073795743995 694.12042417178  870.701136863448 695.049844300428  870.332224030095 695.980753325739  L 871.261884294967 696.349171283932  Z M 869.810151312977 700.070650342868  C 870.168087735177 699.13834018575  870.529775889551 698.207474743455  870.895206983857 697.278076644298  L 869.964561314324 696.912155016379  C 869.598148164426 697.844050769991  869.235488013196 698.777417810064  868.876589676504 699.71223344747  L 869.810151312977 700.070650342868  Z M 868.398451783744 703.807499212739  C 868.746359300699 702.871400355248  869.098033842583 701.936705854693  869.45346686052 701.003438432616  L 868.518946674087 700.647528301897  C 868.162558469271 701.58330377683  867.809938841024 702.520510165284  867.461096361141 703.459124684801  L 868.398451783744 703.807499212739  Z M 867.026948394285 707.559287251768  C 867.364786912461 706.619507571743  867.706407314174 705.681091729  868.051801294955 704.744062535543  L 867.113514287557 704.398204917805  C 866.767192098698 705.337752273462  866.424653630009 706.278690004799  866.085907208224 707.220995238651  L 867.026948394285 707.559287251768  Z M 865.695799199334 711.325582096556  C 866.023529785568 710.382229896023  866.355056678089 709.44020085602  866.690371817845 708.499517876238  L 865.748426119513 708.163752628788  C 865.412209857458 709.106963589893  865.079792023131 710.051524228606  864.751180697245 710.997411583696  L 865.695799199334 711.325582096556  Z M 864.405157603132 715.105949711914  C 864.7227424891 714.159133704652  865.044137666639 713.213600028611  865.369335322987 712.269371668674  L 864.423839485388 711.943737485759  C 864.097767896356 712.890503354833  863.775509004874 713.838578047906  863.457070644699 714.787938518322  L 864.405157603132 715.105949711914  Z M 863.155172341741 718.899954440878  C 863.462574928331 717.949783739841  863.773801352695 717.000854392864  864.088844049213 716.053189467523  L 863.139907033137 715.737723875861  C 862.824017694258 716.687935545754  862.511954883365 717.639415035203  862.203726186362 718.592139214786  L 863.155172341741 718.899954440878  Z M 861.945987465911 722.707159054916  C 862.243172327463 721.753743159587  862.544194132277 720.801527498247  862.849045562843 719.850535218214  L 861.896776725651 719.545274572679  C 861.591106040629 720.498822539137  861.289275273055 721.453597174604  860.991291760102 722.409575269555  L 861.945987465911 722.707159054916  Z M 860.777742324472 726.527124804317  C 861.064675212806 725.570573588259  861.355457707759 724.615181347655  861.650082740683 723.66097130719  L 860.694591823698 723.365950786616  C 860.39917501863 724.322725160881  860.107611077928 725.280684912316  859.819907089235 726.239806753824  L 860.777742324472 726.527124804317  Z M 859.650571548282 730.359411468751  C 859.927219396705 729.399835166749  860.207729071424 728.441376448252  860.492093753555 727.484058612338  L 859.533490869421 727.199312215467  C 859.248361988702 728.159202737036  858.967098475301 729.120237207185  858.689707166425 730.08239226422  L 859.650571548282 730.359411468751  Z M 858.564605034707 734.203577408001  C 858.830935961773 733.24108660353  859.101140489787 732.279671861749  859.375212050375 731.319356553593  L 858.413607670366 731.044917095158  C 858.138799572821 732.007813144319  857.86786890005 732.971811581787  857.600822238122 733.936888973667  L 858.564605034707 734.203577408001  Z M 857.519967932654 738.059179612859  C 857.775951245858 737.09388522527  858.035819488283 736.129625255471  858.299566342778 735.166423143714  L 857.335071284064 734.902322250654  C 857.070615639102 735.868112861432  856.81004902957 736.834964173052  856.553377789557 737.802852682421  L 857.519967932654 738.059179612859  Z M 856.516780628147 741.925773756181  C 856.762386827478 740.957787027863  857.011888836576 739.990792953303  857.265280590281 739.024815039216  L 856.29800600316 738.771083147036  C 856.043933287175 739.739657019804  855.793760769074 740.709249783789  855.547494530278 741.679837869255  L 856.516780628147 741.925773756181  Z M 855.555158730456 745.802914244089  C 855.790359511775 744.832346727727  856.029466534444 743.862729986696  856.272473985999 742.894087591465  L 855.302531341088 742.650753940724  C 855.058870833916 743.621999455135  854.819121237617 744.594221933716  854.583288380242 745.567397742808  L 855.555158730456 745.802914244089  Z M 854.635213058769 749.690154267324  C 854.859981317083 748.717117812993  855.088665798152 747.744990146073  855.321260942907 746.773794897918  L 854.348762018295 746.540887530863  C 854.11554179985 747.514692758681  853.886242754566 748.489432911039  853.660870456452 749.46508429307  L 854.635213058769 749.690154267324  Z M 853.758516672746 753.586547455389  C 853.875030852486 753.052161324789  853.993150367545 752.518126474751  854.112873618462 751.984450136651  C 854.211698047118 751.543949104342  854.311324032815 751.103628280857  854.411751080658 750.663489853511  L 853.436807949025 750.441035610843  C 853.336110708006 750.882358205228  853.236216686771 751.32386368711  853.137126381588 751.765549863124  C 853.016964361645 752.301182012714  852.898411958959 752.837173989062  852.781470778869 753.373518534211  L 853.758516672746 753.586547455389  Z M 852.936509367536 757.493667136368  C 853.134866644444 756.515399714201  853.338586638893 755.538227313208  853.547660163019 754.562194004307  L 852.569842055881 754.352738163252  C 852.360002848266 755.332345968693  852.155536776394 756.313097037891  851.956453061778 757.294947138521  L 852.936509367536 757.493667136368  Z M 852.171718980915 761.412388340516  C 852.355751042028 760.431325162616  852.545161258553 759.451278476316  852.739941087988 758.472292482241  L 851.759164896311 758.277156473673  C 851.56367173074 759.259727777827  851.373567843054 760.243363658713  851.188861807023 761.228019753899  L 852.171718980915 761.412388340516  Z M 851.464309031083 765.341873214414  C 851.633976528904 764.35822403978  851.8090364701 763.375512609915  851.989480959389 762.393783245548  L 851.005956380839 762.213008791079  C 850.824851055287 763.198333512486  850.649149997497 764.184643895945  850.478861131654 765.171895458481  L 851.464309031083 765.341873214414  Z M 850.814430767853 769.281281603283  C 850.969697426134 768.29525674386  851.130369662814 767.310090681838  851.296440231502 766.325827848652  L 850.310377551371 766.159453599285  C 850.143698787586 767.147321067742  849.982438125952 768.136095072906  849.826602839399 769.125731020616  L 850.814430767853 769.281281603283  Z M 850.222223140309 773.229771230621  C 850.363055761816 772.241581506292  850.509305940995 771.254171448342  850.660967081887 770.267585589487  L 849.672577128133 770.115647117344  C 849.520360563343 771.105846119028  849.373574776667 772.096872338212  849.232226388214 773.088681079157  L 850.222223140309 773.229771230621  Z M 849.687812767102 777.186497878283  C 849.814181240715 776.19635457176  849.945978092948 775.206911633971  850.083197379702 774.218213689239  L 849.092691477872 774.08074347996  C 848.954969657178 775.073062302523  848.822690129413 776.06612884655  848.695858860457 777.059898324207  L 849.687812767102 777.186497878283  Z M 849.211313909372 781.150615566987  C 849.323191216516 780.158730378711  849.440506562602 779.16746611174  849.563254656655 778.176867472542  L 848.570844584702 778.053894918341  C 848.447646954107 779.048121396249  848.329901967667 780.043015939604  848.217614935727 781.038533678279  L 849.211313909372 781.150615566987  Z M 848.792828446325 785.121276737186  C 848.890190666752 784.127861740013  848.992999423747 783.13498808396  849.101250080589 782.142700548077  L 848.107148023594 782.034251941452  C 847.998500923725 783.030173501239  847.895315653407 784.026683327692  847.797596866337 785.023736477836  L 848.792828446325 785.121276737186  Z M 848.432445853444 789.097632430288  C 848.515272170344 788.102900024159  848.603552356928 787.10862926322  848.697282431717 786.114864989534  L 847.701700936521 786.020963517651  C 847.607627596981 787.018367223453  847.519024104609 788.016279271364  847.435894455453 789.014654655171  L 848.432445853444 789.097632430288  Z M 848.130243183362 793.078832470164  C 848.198515887818 792.082995336692  848.272248628992 791.087540053779  848.351438081502 790.092511516909  L 847.354590011259 790.013177256641  C 847.275110545669 791.011849855699  847.201107775365 792.010950763623  847.132585037898 793.01043492058  L 848.130243183362 793.078832470164  Z M 847.886285049388 797.064025644927  C 847.939989544159 796.067296701926  847.999159075282 795.070869733209  848.063790974184 794.074789678083  L 847.065889462854 794.010039591719  C 847.001020864551 795.009767559962  846.941634638687 796.009843712291  846.88773346361 797.010222944812  L 847.886285049388 797.064025644927  Z M 847.70062361169 801.052359888927  C 847.739748414331 800.054952244885  847.784342084493 799.057766634288  847.83440261098 798.060848030659  L 846.835661017755 798.010695962276  C 846.785417156153 799.011265550026  846.740660171976 800.01210312256  846.701392083782 801.01316354172  L 847.70062361169 801.052359888927  Z M 847.573298566143 805.042982464928  C 847.597835311465 804.045109373446  847.627843586188 803.047378327097  847.663322036924 802.049834324004  L 846.663953900615 802.01429099651  C 846.628345518248 803.015488274092  846.59822734515 804.016873279936  846.573600739666 805.018400851117  L 847.573298566143 805.042982464928  Z M 847.504337135845 809.035040146431  C 847.514280577698 808.036914960625  847.529697040977 807.038851801271  847.550585830391 806.040895681468  L 846.550804823766 806.019968694306  C 846.529839533986 807.02157959788  846.514366611471 808.023297933016  846.504386754059 809.025078521758  L 847.504337135845 809.035040146431  Z M 847.49375406529 813.027679400099  C 847.489102077689 812.029515526986  847.489923433363 811.031333648382  847.496218095267 810.033178782739  L 846.49623797937 810.026872610262  C 846.489920264721 811.02868298755  846.489095901022 812.030520476693  846.493764925453 813.032339894437  L 847.49375406529 813.027679400099  Z M 847.549004888489 817.018162581728  C 847.52624230859 816.020595963775  847.509995892332 815.022891305178  847.500266679411 814.025112454573  L 846.500314215764 814.034862862114  C 846.510085887259 815.036996049208  846.52640320336 816.039054720554  846.549265119832 817.040974748807  L 847.549004888489 817.018162581728  Z M 847.674800732636 821.007420162755  C 847.634666757068 820.010401328277  847.601045552408 819.013130980565  847.57393927026 818.015672940462  L 846.574308315986 818.042838272335  C 846.601532890752 819.044649248914  846.635300819347 820.046271714003  846.675609940775 821.04764156825  L 847.674800732636 821.007420162755  Z M 847.87005931678 824.99388159208  C 847.812566121506 823.997713019607  847.761580328543 823.001179537596  847.717105200754 822.004344919771  L 846.718099026847 822.048916934478  C 846.762768245413 823.050101768145  846.813976541889 824.05098415183  846.871720639172 825.051500033503  L 847.87005931678 824.99388159208  Z M 848.134721402792 828.976337445245  C 848.059886430269 827.981321355339  847.991551517224 826.985827070316  847.929721036789 825.989918297398  L 846.931642724697 826.051883472549  C 846.993743035182 827.052138420887  847.062376163815 828.05197707251  847.137537718378 829.051335442143  L 848.134721402792 828.976337445245  Z M 848.468706696707 832.953579513014  C 848.376552650589 831.960017776598  848.290889349111 830.965864704565  848.211722274344 829.971183918303  L 847.214874624018 830.050523454719  C 847.294387186246 831.049545057431  847.380424324914 832.048036642972  847.472980534022 833.045934312272  L 848.468706696707 832.953579513014  Z M 848.871913873077 836.924401167924  C 848.762468711332 835.932595214697  848.659503010206 834.940084964753  848.563023359049 833.946933934346  L 847.567708797077 834.043623761764  C 847.664609488295 835.041108932742  847.768024534792 836.03795052683  847.877947318471 837.03408475067  L 848.871913873077 836.924401167924  Z M 849.344220605718 840.887597730358  C 849.217517532142 839.897848457343  849.097280669408 838.907282140183  848.983517712142 837.915962170728  L 847.9900382 838.029972955103  C 848.104297622186 839.025619074311  848.225059202155 840.020508252261  848.352315211703 841.014576820462  L 849.344220605718 840.887597730358  Z M 849.885483604816 844.841966834019  C 849.741561058962 843.854574514279  849.604089512435 842.866252650842  849.473077762803 841.877064491923  L 848.481734705244 842.008361644326  C 848.613318194037 843.001866649713  848.751389670471 843.994501579077  848.895940298585 844.986202908189  L 849.885483604816 844.841966834019  Z M 850.495538660401 848.786308790713  C 850.334440305917 847.80157298225  850.179775782121 846.815795412546  850.031554986855 845.829039166994  L 849.042649140467 845.977582854105  C 849.19151677568 846.968645333184  849.346856260046 847.958724865441  849.508657652528 848.947758090183  L 850.495538660401 848.786308790713  Z M 851.174200692166 852.71942695431  C 850.995975403548 851.737646409187  850.824164825063 850.754712201331  850.658779951826 849.770687234173  L 849.672611333791 849.93643239037  C 849.83871795152 850.924751671675  850.011278316466 851.911975433569  850.190281385531 852.898040498114  L 851.174200692166 852.71942695431  Z M 851.921263805617 856.64012808379  C 851.725965653379 855.661600657491  851.537061144607 854.681808016971  851.354562368352 853.700812864612  L 850.371430165421 853.883709205639  C 850.554725371751 854.868985449949  850.7444542654 855.853053934602  850.940604704569 856.835851683622  L 851.921263805617 856.64012808379  Z M 852.736501354536 860.547222705246  C 852.52418958881 859.572245266318  852.318248460159 858.595891445522  852.118691147904 857.618223725173  L 851.138893625634 857.818215763398  C 851.339321811921 858.800150054685  851.546161673762 859.780764712503  851.759399974333 860.759996981903  L 852.736501354536 860.547222705246  Z M 853.619666009744 864.439525472757  C 853.390405042301 863.468393812737  853.167489772801 862.495775020776  852.950934466833 861.521731340162  L 851.974768879094 861.738758401408  C 852.192269238842 862.717052837544  852.416157317188 863.69391616675  852.646418786295 864.669285874148  L 853.619666009744 864.439525472757  Z M 854.570489834138 868.315855527996  C 854.324349218848 867.34886427168  854.084527437192 866.380275584519  853.851039836701 865.410151451894  L 852.878802335495 865.644147693849  C 853.113308882803 866.618505476973  853.354177253824 867.591321113882  853.601392034062 868.562532348731  L 854.570489834138 868.315855527996  Z M 855.588684363971 872.175036858486  C 855.325738775705 871.212479374548  855.069083239731 870.248214645476  854.818734180877 869.282304379973  L 853.850719726493 869.533198812165  C 854.102161316069 870.503324338726  854.35993690441 871.471797147665  854.624029995025 872.438555261021  L 855.588684363971 872.175036858486  Z M 856.681372576167 876.012795464148  C 856.399859320773 875.055471336144  856.124512667903 874.096344619937  855.855349738383 873.135474953232  L 854.892416799061 873.405215855521  C 855.162737537739 874.370218720295  855.439268599169 875.333471137254  855.72199278887 876.29491321213  L 856.681372576167 876.012795464148  Z M 857.840238338269 879.832224205505  C 857.542330944848 878.879874278245  857.250558297695 877.925616158348  856.964938539004 876.969509180833  L 856.006778515774 877.255742249996  C 856.293626872969 878.215961938788  856.58665458539 879.174324817082  856.885843432796 880.130771294601  L 857.840238338269 879.832224205505  Z M 859.064506403483 883.631194259267  C 858.75029268688 882.684099259119  858.442180051941 881.734991024402  858.14018765687 880.783928569919  L 857.187082988761 881.086569432377  C 857.490374409524 882.041722899025  857.799812396484 882.994913739828  858.115377709012 883.946082686065  L 859.064506403483 883.631194259267  Z M 860.353815891501 887.408585794306  C 860.023388473214 886.467024898638  859.699026673559 885.523346319915  859.380750661098 884.577608735329  L 858.432982296962 884.89656818094  C 858.752627379392 885.846373872687  859.07838442713 886.794111701696  859.410233184876 887.739722738422  L 860.353815891501 887.408585794306  Z M 861.707786749604 891.163285340247  C 861.361243030481 890.227536095126  861.020727678982 889.289565342699  860.686261868083 888.349431405248  L 859.744109183779 888.684615413604  C 860.08001370535 889.628793354015  860.421993789734 890.570798804436  860.770028172867 891.510573191684  L 861.707786749604 891.163285340247  Z M 863.126019864693 894.894186115682  C 862.763461996221 893.964524354056  862.406893467374 893.032537915729  862.05633644929 892.098284750847  L 861.120077165326 892.449594518989  C 861.472142110701 893.387866390588  861.830244425457 894.323861785263  862.194361843093 895.257522503602  L 863.126019864693 894.894186115682  Z M 864.608097180937 898.600188354424  C 864.229632035133 897.676888114831  863.857115435458 896.751160714374  863.490570544687 895.823063714018  L 862.560480644363 896.190395685558  C 862.928602234545 897.122484911779  863.302721221042 898.05219434522  863.682814341447 898.979466177326  L 864.608097180937 898.600188354424  Z M 866.153581823001 902.280199629681  C 865.759320960908 901.363533075459  865.370966097973 900.444337591652  864.988541381798 899.522670333112  L 864.06489502985 899.905916228761  C 864.448964752789 900.831548055517  864.838990131118 901.754697475152  865.234946913369 902.67530708697  L 866.153581823001 902.280199629681  Z M 867.762018224829 905.933135176081  C 867.352077863624 905.02337251513  866.94799921369 904.110979901348  866.549807400319 903.196014066591  L 865.632876862102 903.595060916077  C 866.032781504685 904.513962492749  866.43859830617 905.430279779703  866.850302033177 906.343955801025  L 867.762018224829 905.933135176081  Z M 869.43293226393 909.557918209425  C 869.007433242674 908.655327614572  868.587749916931 907.750006818881  868.173908382281 906.842012114488  L 867.263963943515 907.256742289855  C 867.679585624937 908.168642749727  868.101074226018 909.077857799026  868.528403538933 909.984330903485  L 869.43293226393 909.557918209425  Z M 871.165831401135 913.153480244094  C 870.724899145149 912.258327774036  870.289734854621 911.360345659938  869.860365587707 910.459589737587  L 868.957675474805 910.889880987868  C 869.388891681306 911.794511527942  869.825927838825 912.69635632819  870.268756772802 913.595359312621  L 871.165831401135 913.153480244094  Z M 872.960204825786 916.718761408012  C 872.503969309692 915.831310928915  872.053452328739 914.940932196624  871.608681895736 914.047680574224  L 870.713512196734 914.493406061481  C 871.160195817722 915.390500021734  871.612650705528 916.284708734068  872.070848726866 917.175976597297  L 872.960204825786 916.718761408012  Z M 874.284776820761 688.954036260321  C 874.672547863805 688.033735043556  875.064022173993 687.114998597595  875.459190235017 686.197849255913  L 874.540809764983 685.802150744087  C 874.144579733573 686.721764823022  873.752053379513 687.642970271474  873.36324024475 688.565744695806  L 874.284776820761 688.954036260321  Z M 866.021743772254 921.188685368828  L 878 927  L 879.033990541026 913.726686036974  L 866.021743772254 921.188685368828  Z " fill-rule="nonzero" fill="#1f8aee" stroke="none" />
  </g>
</svg>