<?xml version="1.0" encoding="utf-8"?>
<svg version="1.1" xmlns:xlink="http://www.w3.org/1999/xlink" width="420px" height="30px" viewBox="836 590  420 30" xmlns="http://www.w3.org/2000/svg">
  <g transform="matrix(0.927183854566788 -0.374606593415911 0.37460659341591 0.927183854566785 -150.471300893486 435.892264700138 )">
    <path d="M 866.189165933138 523.30494000083  C 865.341605878789 522.77506530773  864.494741842751 522.244078112083  863.648576014781 521.711979786873  L 863.116244806573 522.558515955485  C 863.963151558927 523.091080199561  864.810757130702 523.622532341133  865.659059330255 524.15287100603  L 866.189165933138 523.30494000083  Z M 869.583108883869 525.418499582751  C 868.733698952483 524.891595412549  867.884981140311 524.363576309882  867.036957641907 523.834443640063  L 866.507593387066 524.682838292154  C 867.356359436477 525.212434284036  868.2058204076 525.740915733689  869.05597410399 526.268281274623  L 869.583108883869 525.418499582751  Z M 872.98443052718 527.520164146352  C 872.133181129604 526.996236957084  871.282619944194 526.471192419426  870.432749169212 525.945031890348  L 869.906358356034 526.795274627337  C 870.75697329937 527.321895875887  871.608279258189 527.847400156144  872.460274031276 528.371786109315  L 872.98443052718 527.520164146352  Z M 876.393089173842 529.609907932007  C 875.540010744 529.088964145546  874.687616609783 528.566900607815  873.835908975247 528.043718668726  L 873.312498055587 528.895799069381  C 874.16495146723 529.419439120029  875.018091979126 529.941959789686  875.87191738638 530.463359727924  L 876.393089173842 529.609907932007  Z M 879.809043044701 531.687705326201  C 878.954146038405 531.169751327529  878.099929403334 530.650675188755  877.246395348256 530.130478252069  L 876.725970737441 530.984385872633  C 877.58025216871 531.505038307027  878.435216777642 532.024568962099  879.290862353564 532.542976494506  L 879.809043044701 531.687705326201  Z M 883.232250271183 533.753530861843  C 882.375545166713 533.238572999403  881.519516500726 532.722490621786  880.66416648668 532.205285063438  L 880.146734563437 533.06100943776  C 881.002833543775 533.578667874488  881.859611770282 534.095202146991  882.717067027596 534.610610919671  L 883.232250271183 533.753530861843  Z M 886.662668895816 535.807359218577  C 885.80416619361 535.295403804092  884.946335988859 534.782321513135  884.089180499675 534.268113672397  L 883.57474760605 535.125644312057  C 884.432653642445 535.640302406298  885.291234985191 536.153833965188  886.150489414263 536.666237660893  L 886.662668895816 535.807359218577  Z M 890.100256872736 537.849165223095  C 889.239967095268 537.340218531487  888.380345865982 536.830142615925  887.521395407621 536.318938795324  L 887.009967848901 537.178265189764  C 887.869670426194 537.68991663347  888.730044361741 538.200439184507  889.591087430883 538.709831522821  L 890.100256872736 537.849165223095  Z M 893.544972068207 539.878923849445  C 892.682905759854 539.372992118757  891.821504042214 538.865928830473  890.960769142637 538.35773529572  L 890.452353187274 539.218846912372  C 891.313841768285 539.727485434347  892.175997751227 540.234992720172  893.03881890683 540.741367457589  L 893.544972068207 539.878923849445  Z M 896.996772261137 541.896610219335  C 896.132939988049 541.393699650658  895.269768340062 540.889655204613  894.407259549101 540.38447818452  L 893.901861428634 541.247364468933  C 894.765125454294 541.752983834911  895.629052917379 542.257469635122  896.49364158404 542.760820565122  L 896.996772261137 541.896610219335  Z M 900.455615143593 543.902199602442  C 899.590027493568 543.402316359836  898.725096494933 542.901296933988  897.860824384162 542.399142620396  L 897.358450293141 543.263792996369  C 898.223479182797 543.766387009191  899.089167536704 544.267845140212  899.955513117536 544.768166093441  L 900.455615143593 543.902199602442  Z M 903.921458321325 545.895667416711  C 903.054125903672 545.398817627132  902.187446155652 544.900829362362  901.321421318259 544.401703910062  L 900.822077414168 545.268107779771  C 901.688860565 545.767670279049  902.556299199901 546.266094595038  903.424391075942 546.763379438967  L 903.921458321325 545.895667416711  Z M 907.394259314277 547.876989228659  C 906.525192759694 547.383178981883  905.656774884986 546.88822798192  904.78900793564 546.39213750858  L 904.292700338826 547.26028425271  C 905.161227127047 547.756809115524  906.030405410584 548.252193507199  906.900232942011 548.746436146824  L 907.394259314277 547.876989228659  Z M 910.873975557115 549.846140753675  C 910.003185517555 549.355376102221  909.133040160159 548.863468433569  908.263541734884 548.370419019656  L 907.770276528475 549.240297997529  C 908.640536308931 549.733779138188  909.511443587422 550.226117533531  910.382996113135 550.717311911134  L 910.873975557115 549.846140753675  Z M 914.360564399749 551.803097856316  C 913.488061548286 551.315384815374  912.616199373377 550.826526507233  911.744980129418 550.336524195942  L 911.254763359254 551.208124745649  C 912.126745465007 551.698556115463  912.999371064661 552.187842480401  913.872637901877 552.675982575322  L 914.360564399749 551.803097856316  Z M 917.853983107849 553.747836550601  C 916.979778138553 553.263181097961  916.106209832347 552.777378142155  915.23328044804 552.290428939334  L 914.746118122597 553.163740377865  C 915.61981186614 553.651115965829  916.494145091023 554.137344303088  917.369115536491 554.622424132404  L 917.853983107849 553.747836550601  Z M 921.354188863374 555.68033300031  C 920.478292491177 555.198741076284  919.603028760804 554.71599942719  918.728399935446 554.232109301265  L 918.244298025762 555.107120924639  C 919.11969269843 555.591434757102  919.995722832037 556.07459910709  920.872386161441 556.55661272529  L 921.354188863374 555.68033300031  Z M 924.861138765097 557.600563519273  C 923.983561725662 557.122041026623  923.10661329903 556.642366601096  922.230295752748 556.161541482998  L 921.749260192351 557.038242566397  C 922.62634506463 557.519488707234  923.504061369659 557.999583147915  924.382406837935 558.478524647066  L 924.861138765097 557.600563519273  Z M 928.374789829128 559.50850457166  C 927.495542878718 559.033057375528  926.616920504385 558.556456052828  925.738924978005 558.078701835922  L 925.260961662838 558.957081633819  C 926.139725984679 559.435254184604  927.019117702797 559.912272831373  927.899134544447 560.388136341296  L 928.374789829128 559.50850457166  Z M 931.895098989445 561.404132772269  C 931.01419290479 560.931766700103  930.133907351831 560.458244321826  929.254244606745 559.983566861836  L 928.779359395095 560.86361460813  C 929.65979239532 561.338707707812  930.540848748749 561.812644714355  931.422526177242 562.285424402303  L 931.895098989445 561.404132772269  Z M 935.422023098414 563.287424886817  C 934.539468676581 562.818145728301  933.657530734457 562.347708098303  932.776211552491 561.876113213243  L 932.30441026492 562.757818121388  C 933.186501152443 563.229825946958  934.06921134191 563.700675504138  934.952538550909 564.170365575455  L 935.422023098414 563.287424886817  Z M 938.95551892733 565.158357832219  C 938.071326985586 564.692171339201  937.18774746401 564.224824223529  936.304782647294 563.756317693632  L 935.836071066562 564.63966895677  C 936.719809029796 565.108585722936  937.604162236124 565.576342059656  938.489128398887 566.042936757459  L 938.95551892733 565.158357832219  Z M 942.495543166933 567.016908676874  C 941.609724542621 566.553820563297  940.724514271426 566.089569690118  939.839914642258 565.624157257761  L 939.374298513258 566.509144048857  C 940.259672720426 566.974964008212  941.1456581043 567.43962139129  942.032252373996 567.903114996632  L 942.495543166933 567.016908676874  Z M 946.042052427952 568.863054640947  C 945.154617978348 568.403070582776  944.267787807356 567.941921642308  943.381564208074 567.479609011946  L 942.919049237757 568.366220483917  C 943.806048837028 568.828937927012  944.693655539124 569.290490661248  945.58186704897 569.750877493193  L 946.042052427952 568.863054640947  Z M 949.595003241625 570.696773096645  C 948.705963843812 570.239898731801  947.8175246427 569.781857376241  946.929687935546 569.322650214335  L 946.470279792852 570.210875500187  C 947.358893912474 570.670484755598  948.248111053598 571.128927183844  949.137928916986 571.586201599536  L 949.595003241625 570.696773096645  Z M 953.154352060242 572.518041568497  C 952.263718610974 572.064282496785  951.373681269138 571.609354340243  950.484242336125 571.153258275191  L 950.027946651916 572.043086488146  C 950.918164400347 572.499581922548  951.808981081568 572.95490842578  952.700394392202 573.40906482051  L 953.154352060242 572.518041568497  Z M 956.720055257671 574.326837733629  C 955.827838673241 573.876199516671  954.936214099667 573.424390135098  954.045183842447 572.971410757165  L 953.592006209435 573.862830990803  C 954.483816675478 574.316207009033  955.376221978257 574.768412006418  956.269219810287 575.219444813694  L 956.720055257671 574.326837733629  Z M 960.292069129897 576.123139422036  C 959.398280346001 575.675627583202  958.50507946913 575.226942514324  957.612468808857 574.777085375577  L 957.162414781538 575.67008670396  C 958.055807034475 576.120337749093  958.949790020802 576.569415698055  959.844361428957 577.017319389671  L 960.292069129897 576.123139422036  Z M 963.870349895557 577.906924616857  C 962.97499986716 577.462544641198  962.080233634753 577.016989384445  961.186053511954 576.57025999868  L 960.739128606538 577.464831476495  C 961.634091696262 577.911952029905  962.529641408791 578.357897426199  963.425775428512 578.8026665123  L 963.870349895557 577.906924616857  Z M 967.454853696475 579.67817145464  C 966.557953397681 579.236928788822  965.661632776683 578.794508805263  964.765894151121 578.350912647941  L 964.322103845465 579.247043310627  C 965.218626802617 579.69102789206  966.115732264799 580.133835269834  967.013417912373 580.575464298986  L 967.454853696475 579.67817145464  Z M 971.045536598201 581.436858225616  C 970.147097021926 580.998758277758  969.249232998709 580.559478990218  968.351946849063 580.119021498305  L 967.911296582604 581.016700362192  C 968.809368418706 581.457543529829  969.708018634922 581.897207461694  970.607244907621 582.33569102095  L 971.045536598201 581.436858225616  Z M 974.642354590549 583.182963373959  C 973.742386749136 582.748011513934  972.842990327872 582.311878306195  971.944167652346 581.874564878461  L 971.506662826035 582.773780940904  C 972.406272533623 583.211477291431  973.306456489321 583.647992388524  974.207212365533 584.083325103492  L 974.642354590549 583.182963373959  Z M 978.245263588138 584.916465498054  C 977.343778512103 584.484667056879  976.44286071686 584.051685274709  975.542512531935 583.617521271114  L 975.108158508169 584.518263510625  C 976.009295060932 584.952807679296  976.911001722761 585.386168591352  977.813276162125 585.818345126257  L 978.245263588138 584.916465498054  Z M 981.854219430929 586.637343350761  C 980.951228169569 586.20870362089  980.048800042693 585.778878571248  979.146937383732 585.347869313242  L 978.71573948629 586.250126689627  C 979.618391839201 586.681513350334  980.521610155149 587.111714765746  981.425392098691 587.540729823498  L 981.854219430929 586.637343350761  Z M 985.46917788477 588.345575839668  C 984.564691505845 587.920100074842  983.660764108192 587.493437025996  982.757398029121 587.065587796362  L 982.329361543097 587.969349250858  C 983.233518632364 588.397573116102  984.138237532263 588.824609762167  985.043515902346 589.250458084338  L 985.46917788477 588.345575839668  Z M 989.090094641933 590.041142027358  C 988.184124231527 589.618835442537  987.278708642332 589.195339623999  986.373850215503 588.770655666788  L 985.948980387244 589.675910122196  C 986.854631131381 590.100965943601  987.760839525171 590.524832585697  988.667603226567 590.947508953024  L 989.090094641933 590.041142027358  Z M 992.716925321666 591.724021131662  C 991.809481984053 591.304888902961  990.902589300787 590.884565505423  989.996249616846 590.46305202589  L 989.574551653885 591.369788386711  C 990.481684951973 591.791670954199  991.38937173359 592.212362397618  992.297609651738 592.63186162919  L 992.716925321666 591.724021131662  Z M 996.349625470727 593.394192525911  C 995.440720328233 592.978239790539  994.532361666476 592.561093965811  993.624551834221 592.14275613035  L 993.206030905214 593.050963282922  C 994.114635638915 593.469667425663  995.023789682671 593.887178513909  995.933490685693 594.303495468106  L 996.349625470727 593.394192525911  Z M 999.988150563933 595.051635739193  C 999.077794756614 594.638867595304  998.167981250289 594.224904456418  997.258712396353 593.809747392416  L 996.843373631015 594.71941420505  C 997.753438663766 595.134934791081  998.664048826367 595.549260406816  999.575201764265 595.962389980936  L 999.988150563933 595.051635739193  Z M 1003.63245600471 596.696330456604  C 1002.72066069097 596.286751963573  1001.8094034907 595.875976584039  1000.89868676016 595.464005380153  L 1000.4865352492 596.37512070327  C 1001.39804942654 596.787452639651  1002.31010454685 597.198587704579  1003.22269825183 597.608524834986  L 1003.63245600471 596.696330456604  Z M 1007.28249712563 598.328256519494  C 1006.36927348095 597.921872697346  1005.45658375618 597.514290112116  1004.5444303113 597.105509817699  L 1004.13547110637 598.018062483964  C 1005.04842325627 598.427200716919  1005.96191215505 598.835140191683  1006.87593544184 599.241879853955  L 1007.28249712563 598.328256519494  Z M 1010.93822918897 599.947393925714  C 1010.02358840652 599.544209755404  1009.10947734389 599.139824960125  1008.19589836472 598.734240585503  L 1007.79013647835 599.648219409967  C 1008.70451541057 600.054158924613  1009.61942689215 600.458897809527  1010.5348685574 600.862435018181  L 1010.93822918897 599.947393925714  Z M 1014.59960738725 601.553722829865  C 1013.68356067757 601.153743253131  1012.76803948113 600.752561204255  1011.85304616521 600.350177720584  L 1011.45048657072 601.265571500814  C 1012.36628107832 601.668307321811  1013.28260392808 602.069840655749  1014.19945275181 602.470170464887  L 1014.59960738725 601.553722829865  Z M 1018.26658684379 603.147223543539  C 1017.34914543447 602.750453462755  1016.43222532593 602.352479077645  1015.51582888793 601.953301416766  L 1015.1164765194 602.870098932989  C 1016.0336753775 603.269626124011  1016.95139836467 603.667948985637  1017.86964310908 604.065066488424  L 1018.26658684379 603.147223543539  Z M 1021.93912261325 604.727876535557  C 1021.02029774955 604.334320814011  1020.10198996663 603.939558970219  1019.18420163899 603.543592024927  L 1018.7880613912 604.461782040163  C 1019.70665335771 604.858095704213  1020.62576523433 605.253203211539  1021.54539464452 605.647103540514  L 1021.93912261325 604.727876535557  Z M 1025.6171696822 606.295662432216  C 1024.69697262575 605.905325893548  1023.77728842433 605.513781429745  1022.85811945599 605.121030053234  L 1022.46519618433 606.040601313437  C 1023.38517000047 606.433696593072  1024.30565950082 606.825583903188  1025.22666230528 607.216262230487  L 1025.6171696822 606.295662432216  Z M 1029.30068296964 607.850562017519  C 1028.37912499909 607.463449445995  1027.45807565153 607.075127161253  1026.53753730853 606.685596167388  L 1026.14783582898 607.606537401582  C 1027.06918021902 607.996409478802  1027.9910360605 608.385071788275  1028.9134009709 608.772523325522  L 1029.30068296964 607.850562017519  Z M 1032.98961732759 609.392556233415  C 1032.06670973808 609.008672373706  1031.14430653385 608.623577027763  1030.22241009883 608.237271190857  L 1029.83593518787 609.159571111273  C 1030.75863885873 609.546215207345  1031.68184974311 609.931647752749  1032.60556545386 610.315867750879  L 1032.98961732759 609.392556233415  Z M 1036.68392754163 610.92162618003  C 1035.7596816454 610.540975737474  1034.83593588942 610.159112050036  1033.91269266224 609.776036105111  L 1033.52944905681 610.69968340733  C 1034.45350069931 611.083094783324  1035.37805531062 611.465292840341  1036.30311050013 611.846276590135  L 1036.68392754163 610.92162618003  Z M 1040.38356833142 612.437753115902  C 1039.45799545655 612.060340755964  1038.53291847135 611.681713407608  1037.6083397678 611.30187204986  L 1037.22833216522 612.226855412945  C 1038.15372045347 612.607029369475  1039.07960745967 612.985988253589  1040.00599078975 613.363731085417  L 1040.38356833142 612.437753115902  Z M 1044.08849435131 613.940918458205  C 1043.16160584235 613.566748806743  1042.23520896638 613.191362438219  1041.30930611881 612.814760323277  L 1040.93253917676 613.741068409918  C 1041.85925276867 614.118000287356  1042.78646082097 614.493715353599  1043.71416093735 614.86821263763  L 1044.08849435131 613.940918458205  Z M 1047.79857849405 615.43015457823  C 1047.46925113714 615.298876426472  1047.13999234085 615.167426346565  1046.81080224025 615.035804392439  C 1046.21218011587 614.795937307551  1045.61376127227 614.555563217936  1045.01554635336 614.314682382235  L 1044.64202468978 615.242303838883  C 1045.24087841159 615.483441898821  1045.83993631511 615.724072574143  1046.43919775535 615.964195605765  C 1046.76882609819 616.095992924242  1047.0985232522 616.227618079535  1047.42828908217 616.359071017663  L 1047.79857849405 615.43015457823  Z M 1051.51531707507 616.903293207862  C 1050.5854106857 616.536832508516  1049.65604419227 616.169003281522  1048.72722061496 615.799806722214  L 1048.35784289373 616.729086066145  C 1049.28757833983 617.098645082681  1050.21785723505 617.466835424533  1051.14867655627 617.833655895188  L 1051.51531707507 616.903293207862  Z M 1055.23780916438 618.361832116083  C 1054.30647156261 617.999024165919  1053.3756684811 617.634845579532  1052.44540294468 617.269297540393  L 1052.07967553392 618.200019550993  C 1053.01085435477 618.565926465441  1053.94257124844 618.930462582684  1054.87482318713 619.293626718086  L 1055.23780916438 618.361832116083  Z M 1058.96599741306 619.805748832566  C 1058.03324294714 619.446599221023  1057.10101761755 619.086076885797  1056.16932445374 618.724182998479  L 1055.80725298786 619.656333336996  C 1056.73986083766 620.018582512174  1057.67300137571 620.379458788745  1058.60667156956 620.738960993967  L 1058.96599741306 619.805748832566  Z M 1062.69982438445 621.235021112251  C 1061.76566742444 620.879535372407  1060.83203420868 620.52267484257  1059.89892777119 620.164440682429  L 1059.54051782829 621.098004988104  C 1060.47454033925 621.456590843182  1061.40909014565 621.813801719403  1062.34416421048 622.169636455934  L 1062.69982438445 621.235021112251  Z M 1066.43923255501 622.649626935694  C 1065.50368749259 622.297810544182  1064.56866077426 621.944617317545  1063.63415543858 621.590048403557  L 1063.27941254034 622.525012293847  C 1064.21483532285 622.879929304433  1065.15077999988 623.233469277093  1066.08724352989 623.585631062924  L 1066.43923255501 622.649626935694  Z M 1070.18416431522 624.049544509401  C 1069.24724556343 623.701402886322  1068.31083974761 623.3518824042  1067.37494991078 623.000984198872  L 1067.02387952239 623.937333269675  C 1067.96068816528 624.288575967897  1068.89801329373 624.63843959034  1069.83585186171 624.986923000049  L 1070.18416431522 624.049544509401  Z M 1073.93456197045 625.434752266166  C 1072.99628396352 625.09029077501  1072.05851347652 624.744448422134  1071.12125355692 624.397226331422  L 1070.77386108698 625.334946157294  C 1071.71204115772 625.682509131889  1072.65073229711 626.028691014098  1073.58993145467 626.37349067893  L 1073.93456197045 625.434752266166  Z M 1077.69036774187 626.805228865406  C 1076.75074493497 626.464452812965  1075.81162422414 626.1222939174  1074.87300866123 625.778753290627  L 1074.5292994617 626.717829425005  C 1075.46883650664 627.061707321399  1076.40887919544 627.404202130077  1077.34942447323 627.74531273803  L 1077.69036774187 626.805228865406  Z M 1081.45152376736 628.160953193484  C 1080.51057063645 627.823867829806  1079.57011416973 627.485397662801  1078.63015742399 627.145543792607  L 1078.29013679006 628.085961768035  C 1079.23101633464 628.426149288426  1080.1723960905 628.76495174708  1081.11427299843 629.102368042986  L 1081.45152376736 628.160953193484  Z M 1085.21797210232 629.501904364038  C 1084.27570314369 629.168514882243  1083.33392541001 628.833738658359  1082.39264196234 628.497576780516  L 1082.0563151324 629.439322108863  C 1082.99852268148 629.775814012339  1083.94122500126 630.11091890129  1084.88441902882 630.44463568693  L 1085.21797210232 629.501904364038  Z M 1088.98965472066 630.828061718303  C 1088.04608445096 630.498373254608  1087.10299995938 630.167296131424  1086.16040431126 629.834831424859  L 1085.82777646678 630.777889597547  C 1086.77129750446 631.110680700027  1087.71530786523 631.44208285677  1088.65980448132 631.772094990815  L 1088.98965472066 630.828061718303  Z M 1092.76651351563 632.139404825427  C 1091.82165647145 631.813422458995  1090.87727975139 631.486049537172  1089.9333864244 631.157287123821  L 1089.60446268985 632.101643612044  C 1090.54928268029 632.430728786565  1091.49458653838 632.758423105431  1092.44037119215 633.084725503733  L 1092.76651351563 632.139404825427  Z M 1096.54849030075 633.435913482788  C 1095.6023610387 633.113642235756  1094.65670663908 632.789978558749  1093.71153017498 632.464923503578  L 1093.38631561778 633.41056375853  C 1094.33242000505 633.735937935187  1095.27900279705 634.059919367701  1096.22606091768 634.382507003226  L 1096.54849030075 633.435913482788  Z M 1100.33552681067 634.717567716304  C 1099.38813990687 634.3990125536  1098.44122239649 634.07906310779  1097.49477735673 633.757720418614  L 1097.17327698716 634.70462987171  C 1098.12065119551 635.026288037772  1099.06849833832 635.346551592658  1100.01681533538 635.665419495604  L 1100.33552681067 634.717567716304  Z M 1104.1275647021 635.984347780741  C 1103.17893475205 635.669513610044  1102.23076871918 635.353283324588  1101.28306968474 635.03565795203  L 1100.96528845584 635.983822015133  C 1101.91391788998 636.301759215116  1102.86301478102 636.618299958376  1103.81257604469 636.933443216247  L 1104.1275647021 635.984347780741  Z M 1107.92454555472 637.236234160018  C 1106.97468717296 636.925125831646  1106.02528722529 636.612619578471  1105.07634879637 636.298716415851  L 1104.7622916039 637.248120481495  C 1105.71216164919 637.562331817242  1106.66249366662 637.875144872233  1107.61328456791 638.186558629916  L 1107.92454555472 637.236234160018  Z M 1111.72641087203 638.473207567505  C 1110.77533869243 638.165829874508  1109.82471945586 637.857052467908  1108.87455625216 637.546876351333  L 1108.56422793451 638.497505792946  C 1109.51532395719 638.807986423701  1110.46687646015 639.117066971208  1111.41888235111 639.424746431045  L 1111.72641087203 638.473207567505  Z M 1115.53310208228 639.695248946325  C 1114.58083075681 639.391606624082  1113.62900687724 639.086562821292  1112.67763353672 638.780118529255  L 1112.37103887482 639.73195870139  C 1113.32334622226 640.038703843872  1114.27610455108 640.344047122183  1115.22931076507 640.647987544047  L 1115.53310208228 639.695248946325  Z M 1119.34456053939 640.902339469642  C 1118.39110473889 640.602437196117  1117.43809087997 640.301131696592  1116.48552205965 639.998423950222  L 1116.1826657769 640.951460188779  C 1117.13616977781 641.254465117254  1118.09011925424 641.556066422235  1119.04451110611 641.856263123605  L 1119.34456053939 640.902339469642  Z M 1123.16072752382 642.094460540955  C 1122.20610193729 641.798302936456  1121.2519127812 641.500740382127  1120.29816315639 641.201773844956  L 1119.99904991863 642.155991467407  C 1120.95373588327 642.455251513766  1121.90886181071 642.753106198931  1122.86442459705 643.04955455496  L 1123.16072752382 642.094460540955  Z M 1126.98154424351 643.271593794382  C 1126.02576357795 642.979185421531  1125.07041382498 642.685370396661  1124.11549808921 642.390149674584  L 1123.82013250458 643.345533980201  C 1124.77598572502 643.641044534028  1125.73227338874 643.935148010611  1126.68899238811 644.2278434542  L 1126.98154424351 643.271593794382  Z M 1130.80695183474 644.433721094946  C 1129.85003081496 644.145066458602  1128.89353518329 643.855003489721  1127.93746804803 643.563533130924  L 1127.64585466696 644.520069401005  C 1128.60286041726 644.811825909648  1129.56029508466 645.102173646676  1130.51815555777 645.391111668542  L 1130.80695183474 644.433721094946  Z M 1134.63689136308 645.580824538851  C 1133.67884473146 645.295928086042  1132.7212179569 645.009621641877  1131.76401415139 644.721906136768  L 1131.47615746648 645.679579634863  C 1132.43430100296 645.967577603506  1133.39286792374 646.254165127866  1134.35185511376 646.539341276616  L 1134.63689136308 645.580824538851  Z M 1138.47130382427 646.71288645376  C 1137.51214634054 646.431752573616  1136.55340317633 646.149207065019  1135.5950774473 645.865250846158  L 1135.31098189329 646.8240468183  C 1136.27024845474 647.10828181003  1137.22993286117 647.391104706538  1138.19003199388 647.672514588733  L 1138.47130382427 646.71288645376  Z M 1142.31013014516 647.829889399067  C 1141.34987658624 647.55252242278  1140.39003180264 647.273742202604  1139.4305989142 646.993549644665  L 1139.15026886788 647.95345331959  C 1140.11064367579 648.233920955469  1141.07143078292 648.512974866941  1142.03262706699 648.790614147164  L 1142.31013014516 647.829889399067  Z M 1146.15331118457 648.931816166163  C 1145.19197634398 648.658220366807  1144.23104472882 648.383209730071  1143.27051946183 648.106785149658  L 1142.99395924199 649.067781739039  C 1143.95542750077 649.344477698166  1144.91730250667 649.619758325483  1145.87958113385 649.893622726409  L 1146.15331118457 648.931816166163  Z M 1150.00078773426 650.018649778706  C 1149.03838642257 649.748829371369  1148.0763827796 649.477592554788  1147.11477993219 649.204940210569  L 1146.84199379953 650.167014909242  C 1147.80454069665 650.439934928796  1148.7674887828 650.711438031026  1149.73083492809 650.981523333457  L 1150.00078773426 650.018649778706  Z M 1153.85250051979 651.09037349288  C 1152.88904756361 650.824332634373  1151.92598671392 650.556873816748  1150.96332110038 650.287997909164  L 1150.69431325745 651.251135895353  C 1151.65792396406 651.520275770771  1152.62193029485 651.787997165011  1153.58632911707 652.054299208054  L 1153.85250051979 651.09037349288  Z M 1157.70839020148 652.146970797651  C 1156.74390044392 651.884713586643  1155.77979722427 651.621036888401  1154.81608367558 651.355941559798  L 1154.55085826673 652.320127995348  C 1155.51551793729 652.585483580218  1156.48056766138 652.849419141992  1157.44600430286 653.111933822957  L 1157.70839020148 652.146970797651  Z M 1161.56839737527 653.188425415024  C 1160.6028856753 652.929955891863  1159.63775493872 652.670065375223  1158.67300830191 652.408754709673  L 1158.41156941322 653.373974740276  C 1159.37726318614 653.635541946516  1160.34334143592 653.89568760962  1161.30980102309 654.15441088419  L 1161.56839737527 653.188425415024  Z M 1165.43246257369 654.214721300294  C 1164.46594380615 653.960043447001  1163.49980042129 653.703943115798  1162.53403555939 653.446421139093  L 1162.2763872186 654.412659894518  C 1163.24310021634 654.670434692409  1164.21019210836 654.926786449024  1165.17765975189 655.181714331296  L 1165.43246257369 654.214721300294  Z M 1169.30052626674 655.225842642291  C 1168.33301532157 654.974960382369  1167.36587417349 654.722654182256  1166.39910596483 654.468924861714  L 1166.14525214128 655.436167456034  C 1167.11296947062 655.690145874284  1168.08106010581 655.942699775042  1169.04952090084 656.193828337582  L 1169.30052626674 655.225842642291  Z M 1173.17252886283 656.221773863626  C 1172.20404064574 655.974691062233  1171.23591663388 655.726182880146  1170.26815997274 655.476250124788  L 1170.01810457732 656.444481656613  C 1170.98681132954 656.694659782417  1171.95588579345 656.943411936459  1172.92532481982 657.190737310367  L 1173.17252886283 656.221773863626  Z M 1177.04841070968 657.202499620928  C 1176.07896014136 656.95922008466  1175.10986818047 656.71451374908  1174.14113797627 656.468381409409  L 1173.89488486134 657.437586962111  C 1174.86456611251 657.683960941211  1175.83460947551 657.928907516248  1176.805011798 658.172425891216  L 1177.04841070968 657.202499620928  Z M 1180.92811209524 658.168004805085  C 1179.9577141111 657.928532281919  1178.98766913108 657.687631562805  1178.01798030811 657.445303430749  L 1177.77553326747 658.415468072696  C 1178.74617407862 658.658034109441  1179.71717139618 658.899171331812  1180.68852206471 659.138878956184  L 1180.92811209524 658.168004805085  Z M 1184.81157324863 659.118274541471  C 1183.84024279847 658.882612720684  1182.86925974427 658.645521329466  1181.89862724143 658.407001138294  L 1181.65999001023 659.378109923077  C 1182.6315754276 659.616864280482  1183.60351174049 659.854188435215  1184.57579579039 660.090081616042  L 1184.81157324863 659.118274541471  Z M 1188.69873434103 660.05329419018  C 1187.72648638933 659.821446702415  1186.75458021977 659.588168291686  1185.78301899077 659.353459716079  L 1185.54819524546 660.325497682744  C 1186.52071030077 660.560436682547  1187.49357063528 660.793944113412  1188.46677308747 661.026019216511  L 1188.69873434103 660.05329419018  Z M 1192.58953548663 660.97304934625  C 1191.61638501189 660.745019763362  1190.64357070021 660.515557927021  1189.67109571297 660.284664582911  L 1189.44008907126 661.257616756189  C 1190.41351878189 661.488736778906  1191.38728815008 661.718423888477  1192.36139401137 661.946677338486  L 1192.58953548663 660.97304934625  Z M 1196.48391674355 661.877525839882  C 1195.50987873817 661.653317674907  1194.53617127161 661.427675948056  1193.56279750812 661.200601392598  L 1193.33561152892 662.174452783137  C 1194.30994089816 662.401750268121  1195.28460429809 662.627613517825  1196.25959856134 662.852041798259  L 1196.48391674355 661.877525839882  Z M 1200.38181811473 662.766709736663  C 1199.4069075849 662.546326443788  1198.43232196423 662.324508302629  1197.45806442047 662.10125603417  L 1197.2347026038 663.075991638761  C 1198.20991662108 663.299463084255  1199.18545903703 663.521498994431  1200.16132668144 663.742098647736  L 1200.38181811473 662.766709736663  Z M 1204.2831795489 663.64058733778  C 1203.30741151393 663.424032312194  1202.33196275409 663.206041174162  1201.3568364393 662.986614632091  L 1201.1373022263 663.962219433906  C 1202.11338586741 664.181861397097  1203.08979227013 664.400066547048  1204.06651826142 664.616834174654  L 1204.2831795489 663.64058733778  Z M 1208.18794094147 664.499145180225  C 1207.21133043421 664.286421758211  1206.23503356281 664.072260981643  1205.25905349994 663.856663546481  L 1205.04335027276 664.8331225153  C 1206.02028850011 665.048931612372  1206.99754384702 665.263302640417  1207.9751131377 665.476234902791  L 1208.18794094147 664.499145180225  Z M 1212.09604213549 665.342370037012  C 1211.11860420164 665.133481495798  1210.14147425956 664.923154380066  1209.16465548461 664.711389373318  L 1208.95278656639 665.688687465762  C 1209.93056432922 665.900660371948  1210.90865356468 666.111193975476  1211.88705109426 666.320287592172  L 1212.09604213549 665.342370037012  Z M 1216.00742292253 666.170248917374  C 1215.02917262056 665.965198475106  1214.05122466151 665.758708260522  1213.07358222341 665.550778944651  L 1212.86555087821 666.528901104413  C 1213.84415311282 666.737034554048  1214.82306116833 666.943727489567  1215.80227186358 667.148979239276  L 1216.00742292253 666.170248917374  Z M 1219.92202304364 666.982769066962  C 1218.94297544464 666.781559882681  1217.96422453473 666.578909750401  1216.9857734952 666.3748193288  L 1216.78158292797 667.353750486876  C 1217.76099455796 667.558041273445  1218.74070635241 667.760890356632  1219.72071512754 667.962297077236  L 1219.92202304364 666.982769066962  Z M 1223.83978219031 667.779917968049  C 1222.85995237731 667.582553141553  1221.88041359565 667.3837462137  1220.90116902854 667.183497830552  L 1220.70082238505 668.163222905479  C 1221.68102832155 668.363667881667  1222.66152876145 668.562669987418  1223.6423205184 668.760228576034  L 1223.83978219031 667.779917968049  Z M 1227.7606400053 668.561683339716  C 1226.78004307374 668.368165911638  1225.79973151095 668.173205251  1224.81970850266 667.976801991366  L 1224.62320886945 668.957305889445  C 1225.60419401136 669.153901967185  1226.58546799107 669.349054029664  1227.5670276197 669.542761442694  L 1227.7606400053 668.561683339716  Z M 1231.68453608369 669.328053138043  C 1230.70318714068 669.138386089724  1229.72211789949 668.947274699875  1228.74133154831 668.754719589553  L 1228.54868195267 669.735987205089  C 1229.53043118688 669.928731355612  1230.51246358883 670.120030368295  1231.4947759672 670.309883621472  L 1231.68453608369 669.328053138043  Z M 1235.61140997371 670.079015556296  C 1234.62932413787 669.893201809737  1233.64751233289 669.705942634989  1232.66597774877 669.517238640474  L 1232.47718115866 670.499254856005  C 1233.45967936029 670.688144109885  1234.44245505525 670.875587125609  1235.42550504979 671.061583294043  L 1235.61140997371 670.079015556296  Z M 1239.54120117774 670.814559025108  C 1238.55839357943 670.632601443023  1237.5758543359 670.449197368186  1236.59358664071 670.26434739672  L 1236.40864596476 671.247097083251  C 1237.39187799739 671.432128530449  1238.37538184465 671.615712661457  1239.35915431044 671.797848879682  L 1239.54120117774 670.814559025108  Z M 1243.47388210184 671.531720539645  C 1242.51242562939 671.358601625597  1241.55121870792 671.18409962299  1240.59026432185 671.008215073632  C 1240.56820864836 671.004155559532  1240.5461531205 671.000095319167  1240.5240977152 670.996034348291  L 1240.3430158026 671.97950236553  C 1240.36525562637 671.983597292617  1240.38749558177 671.98769147897  1240.40973567795 671.991784926269  C 1241.37179619116 672.167872415496  1242.33410957371 672.342575532257  1243.29667283702 672.515893733987  L 1243.47388210184 671.531720539645  Z M 1247.41002373667 672.232485929975  C 1246.42564559557 672.059225973624  1245.44152300838 671.884517208192  1244.45765917322 671.708360201428  L 1244.28141572756 672.692706811044  C 1245.26624546706 672.869036759237  1246.25133421262 673.043917044294  1247.23667876299 673.217347097906  L 1247.41002373667 672.232485929975  Z M 1251.34888558843 672.917796381198  C 1250.36383497653 672.748401489988  1249.37903422994 672.577556797794  1248.39448654897 672.405262859811  L 1248.22210806767 673.390293650795  C 1249.20762232435 673.562756737654  1250.19338989509 673.733769155934  1251.17940757644 673.903330349894  L 1251.34888558843 672.917796381198  Z M 1255.29040697479 673.587641335385  C 1254.30469906784 673.422114119021  1253.31923533374 673.255136132109  1252.33401897496 673.086707917277  L 1252.16550811369 674.07240771419  C 1253.15169170465 674.241001282741  1254.13812291379 674.408143199617  1255.12479853548 674.573832921657  L 1255.29040697479 673.587641335385  Z M 1259.23452717245 674.242010472869  C 1258.24817715633 674.080353481473  1257.26206561684 673.917244772314  1256.27619575853 673.752684875447  L 1256.11155511338 674.739038492546  C 1257.09839284543 674.903759945427  1258.08547249595 675.067028785902  1259.07279085721 675.228844483396  L 1259.23452717245 674.242010472869  Z M 1263.18118541811 674.880893712404  C 1262.19420848857 674.723109436472  1261.20746433576 674.563872517928  1260.2209561663 674.403183474244  L 1260.06018827374 675.390175715712  C 1261.0476649436 675.551022515215  1262.0353778285 675.710415763961  1263.02332371864 675.868354943968  L 1263.18118541811 674.880893712404  Z M 1267.13032090932 675.50428121132  C 1266.14273227179 675.350372081685  1265.1553707075 675.195009406968  1264.16823942508 675.038193692051  L 1264.01134676189 676.025809352234  C 1264.99944715646 676.182779020345  1265.98777805897 676.33829422174  1266.97633625766 676.49235445104  L 1267.13032090932 675.50428121132  Z M 1271.0818728055 676.112163365677  C 1270.09368767481 675.962131753471  1269.10572391039 675.810645716107  1268.11798472281 675.657705745868  L 1267.9649697061 676.645929609505  C 1268.95367860263 676.799019727941  1269.94261229649 676.95065448611  1270.93176757393 677.100833391244  L 1271.0818728055 676.112163365677  Z M 1275.03578022882 676.704530810408  C 1274.04701382901 676.558379027026  1273.05846308508 676.410771960817  1272.0701312095 676.261710091459  L 1271.92099619663 677.25052693392  C 1272.91029836302 677.399735144165  1273.89981961266 677.547487123016  1274.88955672987 677.693782390319  L 1275.03578022882 676.704530810408  Z M 1278.99198226517 677.281374419469  C 1278.00264982923 677.139104716535  1277.01352733545 676.995378895523  1276.02461799818 676.850197423499  L 1275.87936528671 677.839592011019  C 1276.86924548173 677.984916014365  1277.85933904253 678.128782937621  1278.84964275158 678.271192313261  L 1278.99198226517 677.281374419469  Z M 1282.9504179651 677.842685305977  C 1281.96053473463 677.70429987529  1280.97085572968 677.564457513752  1279.98138416579 677.423158675722  L 1279.84001599352 678.413115765635  C 1280.83045896701 678.554553323212  1281.82110958553 678.694532974453  1282.81196462975 678.833054264463  L 1282.9504179651 677.842685305977  Z M 1286.91102634472 678.388454822346  C 1285.92060757013 678.253955795908  1284.93038730065 678.117999048205  1283.94036875421 677.980585021056  L 1283.80288729905 678.97108936203  C 1284.7938777922 679.108638294844  1285.78507020643 679.244728517534  1286.77646132064 679.379359587848  L 1286.91102634472 678.388454822346  Z M 1290.8737463867 678.918674560422  C 1289.88280732633 678.788064010318  1288.89206104791 678.655994971036  1287.90151077108 678.522467871761  L 1287.76791815108 679.513504204032  C 1288.75944089664 679.647162392997  1289.75115983621 679.779361090524  1290.743071747 679.910099867008  L 1290.8737463867 678.918674560422  Z M 1294.83851704116 679.433336351611  C 1293.84707296146 679.306616290034  1292.8558159376 679.178436993835  1291.86474919086 679.04879887956  L 1291.73504746415 680.04035193517  C 1292.72708718666 680.17011732114  1293.71931737311 680.298422456844  1294.71173479902 680.42526692533  L 1294.83851704116 679.433336351611  Z M 1298.80527722662 679.932432267006  C 1297.81334340174 679.809604646199  1296.821590904 679.685317067847  1295.83002295567 679.55956993577  L 1295.70421412045 680.551624438799  C 1296.6967555365 680.677495022601  1297.68948168346 680.801904619807  1298.68238933526 680.924852826121  L 1298.80527722662 679.932432267006  Z M 1302.77396583098 680.415954617508  C 1301.7815575429 680.297021329785  1300.78932484985 680.17662738401  1299.79727097629 680.054773171424  L 1299.67535697078 681.047313838228  C 1300.66838478922 681.169287680694  1301.6615916027 681.289799822739  1302.6549741836 681.408849872736  L 1302.77396583098 680.415954617508  Z M 1306.74452171239 680.883895953946  C 1305.75165425011 680.768858831588  1304.75895664836 680.65236037321  1303.7664321331 680.534400957395  L 1303.6484148355 681.527412496839  C 1304.64191375769 681.645487718832  1305.6355859363 681.762100549102  1306.6294281422 681.877250608689  L 1306.74452171239 680.883895953946  Z M 1310.71688370026 681.33624906719  C 1309.72357235995 681.225109882466  1308.73042514304 681.112508706266  1307.73744527697 680.998445904512  L 1307.62332650547 681.991913018206  C 1308.61728122551 682.106087800654  1309.61140346069 682.218799522604  1310.60568998039 682.330047817774  L 1310.71688370026 681.33624906719  Z M 1314.69099059617 681.773006988266  C 1313.69725068084 681.66576745339  1312.70366914926 681.557065294109  1311.71024923027 681.446900863672  L 1311.60003074299 682.440808246209  C 1312.59442594797 682.55108083013  1313.5889829242 682.659889707317  1314.58369843968 682.767234524172  L 1314.69099059617 681.773006988266  Z M 1318.66678117482 682.194162988455  C 1317.67262799407 682.090824755566  1316.67862745499 681.986023287875  1315.68478278777 681.879758925956  L 1315.57846628274 682.874091265145  C 1316.57328665294 682.980459951673  1317.56826304804 683.085364307781  1318.56339223465 683.188803992562  L 1318.66678117482 682.194162988455  Z M 1322.64419418496 682.599710579407  C 1321.64964305477 682.50027524054  1320.65523882181 682.399376079016  1319.66098471759 682.297013422728  L 1319.55857183273 683.291755399832  C 1320.5538020419 683.394218550245  1321.5491825272 683.495216769113  1322.54471005393 683.594749728222  L 1322.64419418496 682.599710579407  Z M 1326.62316835035 682.989643513234  C 1325.62823459284 682.894112600294  1324.63344198584 682.797117299395  1323.63879376214 682.698657925743  L 1323.54028607523 683.693794215714  C 1324.5359107908 683.792350251459  1325.53168003142 683.889440777103  1326.52759056113 683.98506547713  L 1326.62316835035 682.989643513234  Z M 1330.60364237071 683.363955782608  C 1329.60834131387 683.27233076735  1328.61317565867 683.17924082139  1327.6181486391 683.084686247244  L 1327.52354766775 684.08020151896  C 1328.51955155107 684.174848921677  1329.51569420613 684.268030258314  1330.51197239576 684.35974522606  L 1330.60364237071 683.363955782608  Z M 1334.58555492264 683.722641620853  C 1333.58990190014 683.634923914857  1332.5943785283 683.545740757986  1331.5989880423 683.455092440059  L 1331.50829524394 684.450971356557  C 1332.50466295053 684.541708668103  1333.5011636734 684.630979380178  1334.49779417424 684.718783202678  L 1334.58555492264 683.722641620853  Z M 1338.56884466058 684.065695502037  C 1337.57285501149 683.981886456687  1336.57698926012 683.896611462865  1335.58125064272 683.80987079769  L 1335.49446741457 684.806098016406  C 1336.49118359432 684.892923838878  1337.48802703287 684.978282551081  1338.48499449077 685.062173875623  L 1338.56884466058 684.065695502037  Z M 1342.55345021775 684.393112141054  C 1341.55713928635 684.313213047515  1340.5609464978 684.231847530493  1339.56487508941 684.149015854401  L 1339.48200276845 685.145576027406  C 1340.47905206591 685.228489023161  1341.47622286271 685.30993442045  1342.47351191834 685.389911954601  L 1342.55345021775 684.393112141054  Z M 1346.53931020711 684.704886493704  C 1345.54269334262 684.628898582907  1344.54618886428 684.551443796207  1343.54980001044 684.472522385308  L 1343.47083987341 685.469400159541  C 1344.46820692798 685.548399051216  1345.46568972057 685.625929878841  1346.46328500963 685.701992390461  L 1346.53931020711 684.704886493704  Z M 1350.52636322229 685.001013756776  C 1349.52945577864 684.928938199395  1348.53265496272 684.855395336289  1347.53596401383 684.78038540645  L 1347.4609172772 685.777565423959  C 1348.45858672339 685.852648994494  1349.45636614449 685.926264058009  1350.45425229798 685.998410375277  L 1350.52636322229 685.001013756776  Z M 1354.51454783853 685.281489368117  C 1353.51736517413 685.213327274552  1352.5202833774 685.143697468045  1351.52330568854 685.072600174873  L 1351.45217350847 686.070067073049  C 1352.45012997614 686.141234165702  1353.4481906539 686.21093233099  1354.44635229834 686.279161342415  L 1354.51454783853 685.281489368117  Z M 1358.50380261364 685.546309006705  C 1357.50636009104 685.482061427057  1356.5090126748 685.416345749884  1355.51176360537 685.3491621887  L 1355.44454707773 686.346900600516  C 1356.4427751922 686.414150118875  1357.44110175065 686.479930312176  1358.4395235082 686.544240966612  L 1358.50380261364 685.546309006705  Z M 1362.49406608896 685.795468592714  C 1361.49637907502 685.735136516799  1360.49878140404 685.673335981351  1359.5012763179 685.610067187204  L 1359.43797647824 686.608061741447  C 1360.43646086096 686.671392649477  1361.43503791942 686.733253857351  1362.43370440856 686.793645164037  L 1362.49406608896 685.795468592714  Z M 1366.48527679027 686.028964287578  C 1365.4873606553 685.972548644868  1364.48952809883 685.914664203262  1363.49178236351 685.855311150866  L 1363.43240018703 686.853546472379  C 1364.43112545519 686.912957794394  1365.42993762974 686.970899063817  1366.42883346483 687.027370092355  L 1366.48527679027 686.028964287578  Z M 1370.47737322876 686.24679249405  C 1369.47924334672 686.194294153688  1368.48119127742 686.140326697694  1367.48322026424 686.084890301447  L 1367.42775666578 687.083351011363  C 1368.42670743296 687.138841832068  1369.42573933585 687.192862270393  1370.42484912786 687.245412150789  L 1370.47737322876 686.24679249405  Z M 1374.47029390198 686.448949856257  C 1373.47196565011 686.400369627035  1372.47370944403 686.350319988079  1371.47552852779 686.298801102036  L 1371.42398436182 687.297471818015  C 1372.42314523814 687.349041282517  1373.42238147821 687.399140057503  1374.42168983482 687.447767980168  L 1374.47029390198 686.448949856257  Z M 1378.46397729479 686.635433259751  C 1377.46546605338 686.590771890099  1376.4670210897 686.544640839249  1375.46864564843 686.497040257112  L 1375.42102170905 687.495905593581  C 1376.42037730138 687.543552907396  1377.41980248436 687.589729247219  1378.41929401015 687.634434462991  L 1378.46397729479 686.635433259751  Z M 1382.45836188028 686.806239831561  C 1381.45968303234 686.765498009529  1380.46106469338 686.72328625749  1379.46251010799 686.679604712593  L 1379.4188071289 687.678649280978  C 1380.41834204111 687.72237371005  1381.4179407698 687.764626903315  1382.41760006655 687.805408723461  L 1382.45836188028 686.806239831561  Z M 1386.45338612074 686.961366940229  C 1385.45455505219 686.924545293498  1384.4557787223 686.886253490569  1383.45706037678 686.846491655881  L 1383.41727903126 687.845700064847  C 1384.41697786448 687.885500935556  1385.416734739 687.923830331307  1386.41654640591 687.960688127542  L 1386.45338612074 686.961366940229  Z M 1390.44898846863 687.10081219586  C 1389.45002056741 687.067911291701  1388.45110163398 687.033540027818  1387.45223491455 686.997698515907  L 1387.41637581548 687.997055371596  C 1388.41622316828 688.032932070767  1389.41612278633 688.0673370785  1390.41607142025 688.100270282989  L 1390.44898846863 687.10081219586  Z M 1394.44510736747 687.224573450153  C 1393.44601802373 687.195593795439  1392.44697187618 687.165143600126  1391.44797217142 687.133222963168  L 1391.41603587125 688.132712869436  C 1392.41601633993 688.16466484435  1393.416043297 688.195144934019  1394.41611349267 688.224153039393  L 1394.44510736747 687.224573450153  Z M 1398.44168125285 687.332648796435  C 1397.44248585861 687.307590837628  1396.44332788829 687.281062180003  1395.44421058885 687.25306290977  L 1395.41619757959 688.252670468421  C 1396.4162957584 688.280697226824  1397.41643464802 688.307251928852  1398.4166109983 688.332334488209  L 1398.44168125285 687.332648796435  Z M 1402.43864855333 687.425036569692  C 1401.43936250215 687.403900692834  1400.44010810235 687.381293981603  1399.44088860058 687.35721650945  L 1399.4167993138 688.356926320476  C 1400.41699979517 688.381027430588  1401.41723520915 688.403656335871  1402.41750230526 688.424812962788  L 1402.43864855333 687.425036569692  Z M 1406.43594769142 687.501735346592  C 1405.43658637856 687.484521877308  1404.43725094343 687.465837460743  1403.43794463357 687.445682157614  L 1403.41777944039 688.445478819432  C 1404.41806681518 688.465653909949  1405.41838334383 688.484356669865  1406.41872577562 688.501587038402  L 1406.43594769142 687.501735346592  Z M 1410.43351708452 687.56274394551  C 1409.43409590609 687.54945314899  1408.43469483165 687.534691314947  1407.43531710896 687.518458491353  L 1407.41907632004 688.518326601044  C 1408.41943517777 688.534575361146  1409.41981741018 688.54935168756  1410.42021976631 688.562655532266  L 1410.43351708452 687.56274394551  Z M 1414.43129514585 687.608061426545  C 1413.43182949899 687.598693507547  1412.43237818207 687.587854483449  1411.43294444302 687.575544389474  L 1411.42062830857 688.575468543014  C 1412.42104323766 688.587790722374  1413.42147576187 688.59864038764  1414.42192263009 688.608017503554  L 1414.43129514585 687.608061426545  Z M 1418.42922028544 687.637687091532  C 1417.42972556796 687.632242194379  1416.43023940616 687.625326147212  1415.43076504808 687.616938972506  L 1415.42237375785 688.616903765011  C 1416.42282934584 688.625299173791  1417.42329674914 688.63222201076  1418.42377271651 688.637672253418  L 1418.42922028544 687.637687091532  Z M 1422.42723091103 687.651620484057  C 1421.42772252121 687.650098692634  1420.42821691267 687.647105728947  1419.42871733351 687.642641602723  L 1419.42425101677 688.642631628681  C 1420.4247318506 688.647100137543  1421.42521871973 688.650096039559  1422.42570837287 688.651619324995  L 1422.42723091103 687.651620484057  Z M 1426.42526542905 687.649861389462  C 1425.42575876537 687.652262727213  1424.42624910853 687.653192893116  1423.42673970663 687.652651884149  L 1423.4261984322 688.65265173766  C 1424.42668909841 688.65319327776  1425.42718001982 688.652262198671  1426.42766794512 688.649858503416  L 1426.42526542905 687.649861389462  Z M 1430.42326224559 687.632409834848  C 1429.42377270649 687.638734264777  1428.42427439984 687.64358754594  1427.42477057371 687.646969662565  L 1427.42815434991 688.646963937578  C 1428.42863943489 688.643578500574  1429.42911899496 688.638720454722  1430.42958977887 688.632389815809  L 1430.42326224559 687.632409834848  Z M 1434.42115976727 687.599266089073  C 1433.42170275096 687.609513513747  1432.42223119283 687.6182898354  1431.42274834086 687.625595025511  L 1431.43005711558 688.62556831606  C 1432.43052120579 688.618255954108  1433.43097399108 688.609471016337  1434.43141222028 688.599213531295  L 1434.42115976727 687.599266089073  Z M 1438.41889640228 687.550430662752  C 1437.41948730643 687.564600924298  1436.42005789473 687.577300151233  1435.42061141503 687.588528302286  L 1435.43184507565 688.58846520273  C 1436.4322727579 688.577226028485  1437.43268335538 688.564514334136  1438.43307361706 688.550330160993  L 1438.41889640228 687.550430662752  Z M 1442.41607120008 687.485349247805  C 1442.14943453509 687.490352290303  1441.88279612514 687.495261937185  1441.61615602072 687.500078187522  C 1440.8835497993 687.512765980875  1440.15093010097 687.524663279939  1439.41829820492 687.535770063943  L 1439.43345657838 688.535655169199  C 1440.16693168796 688.524535601981  1440.90039458399 688.512624476094  1441.63384398475 688.499921812349  C 1441.90084151009 688.495099192908  1442.16783733857 688.490183008281  1442.4348314183 688.485173259425  L 1442.41607120008 687.485349247805  Z M 1446.41347760356 687.403343732204  C 1445.41416276729 687.425594442967  1444.41481914933 687.446533180018  1443.41544933369 687.466159889215  L 1443.43508463289 688.465967098143  C 1444.43532952223 688.446323203299  1445.43554819094 688.425366131757  1446.43573805277 688.403095937703  L 1446.41347760356 687.403343732204  Z M 1450.41057241119 687.307343950883  C 1449.411341598 687.333093088645  1448.41207741012 687.357530361498  1447.41278243138 687.380655706253  L 1447.43591789738 688.380388045539  C 1448.4360878843 688.357242451641  1449.43622705337 688.332783780889  1450.43633281855 688.307012096526  L 1450.41057241119 687.307343950883  Z M 1454.40730663147 687.19735108049  C 1453.40817208871 687.226598329648  1452.40899957868 687.254533838781  1451.40979168496 687.281157535654  L 1451.4364270342 688.280802751804  C 1452.43650985984 688.254155742542  1453.4365572708 688.226195772366  1454.43656668125 688.19692291357  L 1454.40730663147 687.19735108049  Z M 1458.40363127736 687.073366469183  C 1457.40460525119 687.106111471261  1456.40553666563 687.137544874274  1455.406428104 687.167666596943  L 1455.43656301001 688.167212437533  C 1456.43654641659 688.137064339514  1457.43648981207 688.105603412612  1458.43639061091 688.072829738175  L 1458.40363127736 687.073366469183  Z M 1462.3994973668 686.935391636612  C 1461.40059210206 686.971633990261  1460.40163968633 687.006564901882  1459.40264270263 687.040184281154  L 1459.43627679606 688.039618494977  C 1460.43614852701 688.005969677719  1461.43597565094 687.971008179701  1462.4357555826 687.934734091322  L 1462.3994973668 686.935391636612  Z M 1466.39485592336 686.783428273903  C 1465.39608366341 686.82316753491  1464.39725966145 686.861595527  1463.39838650015 686.898712150808  L 1463.43551936876 687.898022488025  C 1464.43526716888 687.860873363954  1465.4349657666 687.822411723335  1466.43461257702 687.782637665618  L 1466.39485592336 686.783428273903  Z M 1470.38965797686 686.617478243638  C 1469.39103096342 686.660713924927  1468.39234761757 686.702638526482  1467.39361052166 686.743251939897  L 1467.43424171031 687.742426152188  C 1468.4338533259 687.701777176633  1469.43341114434 687.659815864828  1470.43291258107 687.616542325274  L 1470.38965797686 686.617478243638  Z M 1474.3838545639 686.437543579828  C 1473.38538503691 686.484275151469  1472.38685458783 686.529695848629  1471.38826579857 686.57380555386  L 1471.43239480926 687.572831394575  C 1472.43185798833 687.52868306576  1473.43126277613 687.483222597081  1474.4306065885 687.436450106083  L 1474.3838545639 686.437543579828  Z M 1478.37739672852 686.243626487892  C 1477.379096926 686.293853377107  1476.38073161243 686.342769613159  1475.38230336933 686.390375069566  L 1475.42992966117 687.38924029387  C 1476.42923215352 687.341593152912  1477.4284716612 687.292634084556  1478.42764560049 687.242363215395  L 1478.37739672852 686.243626487892  Z M 1482.37023552278 686.035729344626  C 1481.37211768046 686.089450935807  1480.37392973956 686.141862111176  1479.3756742799 686.192962735278  L 1479.42679726916 687.191655100308  C 1480.42592682656 687.140509731207  1481.42498880667 687.088052663255  1482.42398062623 687.03428403209  L 1482.37023552278 686.035729344626  Z M 1486.36232200737 685.81385469818  C 1485.36439835936 685.871070332851  1484.36640002487 685.926975805188  1483.36832958446 685.981570970636  L 1483.42294864452 686.980078235646  C 1484.42189302108 686.925435265267  1485.42076522793 686.869480840696  1486.41956268355 686.812215106544  L 1486.36232200737 685.81385469818  Z M 1490.35360725218 685.57800526802  C 1489.3558900296 685.638714244913  1488.35809353417 685.698113328976  1487.36022034592 685.75620236662  L 1487.41833480734 686.754512293133  C 1488.41708175901 686.696372391234  1489.41575195008 686.636921295843  1490.41434279952 686.576159160609  L 1490.35360725218 685.57800526802  Z M 1494.34404233694 685.328183944901  C 1493.34654376858 685.392385519919  1492.34896134197 685.455277487667  1491.3512976366 685.516859685522  L 1491.41290678708 686.51496003748  C 1492.41144407224 686.453323916681  1493.40990000745 686.390376879123  1494.408272011 686.326119087567  L 1494.34404233694 685.328183944901  Z M 1498.33357835178 685.064393790823  C 1497.33631066355 685.132087177078  1496.33895453333 685.19847125763  1495.34151253876 685.263545860912  L 1495.40661562317 686.261424404824  C 1496.40493100319 686.196292820573  1497.40316044428 686.1298506124  1498.40130136533 686.062097952104  L 1498.33357835178 685.064393790823  Z M 1502.32216639788 684.786638039005  C 1501.32514181327 684.857822406779  1500.32802420338 684.927697786507  1499.33081614524 684.996263997598  L 1499.39941236563 685.993908502694  C 1500.39749360438 685.925282253294  1501.39548431628 685.855345688873  1502.39338192084 685.784098990266  L 1502.32216639788 684.786638039005  Z M 1506.30975758802 684.494920093835  C 1505.31298832754 684.569594570623  1504.31612145901 684.642960393111  1503.31915956006 684.715017371595  L 1503.39124807565 685.712415609972  C 1504.38908293988 685.64029553656  1505.38682269045 685.566865473088  1506.38446474751 685.492125609423  L 1506.30975758802 684.494920093835  Z M 1510.29630304718 684.189243530833  C 1509.2998013278 684.267407201382  1508.30319741942 684.344262567372  1507.30649389899 684.419809430078  L 1507.38207382622 685.416949176853  C 1508.37965008568 685.341336163388  1509.37712664585 685.26441350088  1510.37450092755 685.186181388227  L 1510.29630304718 684.189243530833  Z M 1514.28175391319 683.869612096609  C 1513.28553194881 683.951264002883  1512.28920321573 684.031607970377  1511.29277029018 684.110643791344  L 1511.37184070268 685.107512824801  C 1512.36914613032 685.028407798054  1513.36634727424 684.947993479334  1514.36344155598 684.866270076567  L 1514.28175391319 683.869612096609  Z M 1518.26606133729 683.536029708811  C 1517.27013133837 683.621168850023  1516.27408999236 683.705000434263  1515.27793987475 683.787524244766  L 1515.36049980337 684.784110346508  C 1516.35752217544 684.701514276052  1517.35443568064 684.617609286739  1518.35123774127 684.532395595524  L 1518.26606133729 683.536029708811  Z M 1522.24917648471 683.188500456084  C 1521.25355065814 683.277125788702  1520.25780890746 683.364443962184  1519.26195380737 683.450454750747  L 1519.3480022402 684.446745705844  C 1520.34472933642 684.36065960404  1521.34134298396 684.27326497254  1522.3378406059 684.18456203732  L 1522.24917648471 683.188500456084  Z M 1526.23105053533 682.827028598015  C 1525.23574108427 682.919139035779  1524.24031113349 683.009942728262  1523.2447632569 683.099439440672  L 1523.33429913926 684.095423037812  C 1524.33071874296 684.005847959797  1525.32702031758 683.914964757286  1526.32320128699 683.822773665273  L 1526.23105053533 682.827028598015  Z M 1530.21163468421 682.451618565083  C 1529.21665380794 682.547212979015  1528.22154785783 682.64150107754  1527.22631940694 682.734482616856  L 1527.3193416414 683.730146648493  C 1528.31544153971 683.63708369217  1529.31141882996 683.542713032582  1530.30727093687 683.447034913742  L 1530.21163468421 682.451618565083  Z M 1534.19088014224 682.062274958602  C 1533.19624003602 682.161352177024  1532.20147028336 682.259123525924  1531.20657345646 682.355588752491  L 1531.30308090287 683.350921014997  C 1532.29884888702 683.254371320997  1533.29448968502 683.156514361052  1534.2900007237 683.05735038807  L 1534.19088014224 682.062274958602  Z M 1538.16873813671 681.65900255067  C 1537.17445099161 681.761561359214  1536.18002962907 681.862814760127  1535.18547662038 681.962762491593  L 1535.28546809588 682.957750785408  C 1536.28089196055 682.857715537158  1537.27618406379 682.756373476186  1538.27134183207 682.653724864533  L 1538.16873813671 681.65900255067  Z M 1542.14515991191 681.241806284104  C 1541.15123791449 681.347845425753  1540.15717713087 681.452579637595  1539.1629801302 681.556008648946  L 1539.26645440922 682.550640778722  C 1540.26152195414 682.447121202291  1541.25645316271 682.342295282503  1542.2512454636 682.236163290276  L 1542.14515991191 681.241806284104  Z M 1546.12009672975 680.810691272385  C 1545.12655206269 680.920209447397  1544.13286404115 681.028423186552  1543.13903523456 681.135332210038  L 1543.24599104882 682.129595984796  C 1544.24069007727 682.022593349041  1545.23524819736 681.914284855178  1546.22966283749 681.804670783258  L 1546.12009672975 680.810691272385  Z M 1550.09349987033 680.365662799592  C 1549.10034471107 680.47865866565  1548.10704163144 680.590350605722  1547.11359319985 680.700738331006  L 1547.22402923843 681.694621564279  C 1548.21834755881 681.584137180688  1549.21252039993 681.472347440305  1550.20654519119 681.359252632185  L 1550.09349987033 680.365662799592  Z M 1554.06532063255 679.906726320337  C 1553.07256715376 680.0231984925  1552.07966119114 680.13836726446  1551.08660531082 680.252232338567  L 1551.20052022013 681.245722848555  C 1552.1944456453 681.131758071309  1553.18822102211 681.016488454588  1554.18184378096 680.899914296444  L 1554.06532063255 679.906726320337  Z M 1558.03551033469 679.433887459701  C 1557.04317070475 679.553834510347  1556.05067402813 679.672478702693  1555.05802287116 679.789819729958  L 1555.17541525496 680.782905339673  C 1556.16893560261 680.665461565612  1557.16230133462 680.546713485387  1558.15550988246 680.426661406043  L 1558.03551033469 679.433887459701  Z M 1562.00402031505 678.947152013162  C 1561.01210669663 679.070572472153  1560.02003147123 679.192690630642  1559.0277972041 679.313506172866  L 1559.14866562355 680.306174710283  C 1560.14176871632 680.185253378889  1561.13471262807 680.063028290627  1562.12749479137 679.939499761535  L 1562.00402031505 678.947152013162  Z M 1565.97080193251 678.446525946527  C 1564.97932648326 678.573418301125  1563.98768486873 678.699008928983  1562.99587965302 678.823297505357  L 1563.12022262667 679.815536803563  C 1564.11289629252 679.691139396916  1565.10540621332 679.565438798755  1566.09774982397 679.438435333948  L 1565.97080193251 678.446525946527  Z M 1569.9358065671 677.932015395856  C 1568.94478143933 678.062378090771  1567.95358558998 678.19143964866  1566.96222158204 678.319199735808  L 1567.09003758583 679.310997633152  C 1568.08226965739 679.183125676013  1569.07433342308 679.053951108533  1570.06622631774 678.923474264717  L 1569.9358065671 677.932015395856  Z M 1573.89898562069 677.403626667387  C 1572.90842296115 677.537458104792  1571.91768502586 677.669989010837  1570.9267743766 677.801219042831  L 1571.05806184393 678.79256338307  C 1572.04984015983 678.661218442712  1573.04144561051 678.528571489228  1574.03287563198 678.394622865602  L 1573.89898562069 677.403626667387  Z M 1577.86029051747 676.861366237461  C 1576.87020246727 676.998664777016  1575.87993458929 677.134663406814  1574.88948944408 677.269361775199  L 1575.02424676578 678.26024040765  C 1576.01555917023 678.125424093909  1577.0066941516 677.989306380301  1577.99764914836 677.851887618615  L 1577.86029051747 676.861366237461  Z M 1581.81967270464 676.305240752442  C 1580.83007139907 676.446004711309  1579.84028571587 676.585469397955  1578.85031821437 676.723634451763  L 1578.98854373876 677.714035231452  C 1579.97937808126 677.57574919677  1580.97003044562 677.436162391347  1581.96049827155 677.295275175938  L 1581.81967270464 676.305240752442  Z M 1585.77708365295 675.735257028634  C 1584.78798122131 675.879484681501  1583.79868986449 676.022413715609  1582.80921214051 676.164043761382  L 1582.95090417338 677.153954549191  C 1583.94124830929 677.012200488537  1584.93140591485 676.869146302124  1585.9213744298 676.724792359845  L 1585.77708365295 675.735257028634  Z M 1589.73247485729 675.151422052197  C 1588.74388342281 675.299111631298  1587.75509851787 675.445503261019  1586.76612269922 675.590596562831  L 1586.91127950389 676.580005225648  C 1587.901121295 676.434784876441  1588.8907720052 676.288265062477  1589.88022907556 676.140446162613  L 1589.73247485729 675.151422052197  Z M 1593.68579783736 674.553742979064  C 1592.69772951696 674.704892674203  1591.70946318323 674.854745105248  1590.72100139155 675.003299884721  L 1590.86962118886 675.99219429559  C 1591.8589485029 675.843509437762  1592.84808018782 675.693525792108  1593.83701368605 675.542243746441  L 1593.68579783736 674.553742979064  Z M 1597.63700413815 673.942227134853  C 1596.64947104237 674.096835093421  1595.6617353928 674.250146489082  1594.67379974344 674.402160925416  L 1594.8258807118 675.390528963681  C 1595.81468142301 675.238381419597  1596.80328195869 675.084935780633  1597.79167976384 674.930192443361  L 1597.63700413815 673.942227134853  Z M 1601.58604533063 673.316882014773  C 1600.59905956344 673.474946341776  1599.61186670448 673.631714822951  1598.62446930636 673.787187052939  L 1598.78000958174 674.775016604397  C 1599.76827157041 674.619408238927  1600.7563288402 674.462502487339  1601.74417883751 674.304299755147  L 1601.58604533063 673.316882014773  Z M 1605.53287301231 672.67771528354  C 1604.54644667096 672.839234041619  1603.55980870241 672.999457686832  1602.57296165782 673.158385804885  L 1602.7319593338 674.145664761934  C 1603.71967048683 673.986597482367  1604.70717238074 673.826233541246  1605.69446246216 673.664573353222  L 1605.53287301231 672.67771528354  Z M 1609.4774388078 672.024734775273  C 1608.4915839825 672.189705984763  1607.50551299776 672.353382830122  1606.51922840207 672.515764888328  L 1606.68168152985 673.502481150115  C 1607.66882974129 673.339956906069  1608.65576415533 673.176136741025  1609.64248222006 673.01102107857  L 1609.4774388078 672.024734775273  Z M 1613.41969436947 671.357948493407  C 1612.43442314402 671.526370132226  1611.44893122833 671.693498171715  1610.4632211706 671.859332179728  L 1610.62912775904 672.845473652294  C 1611.61570092963 672.679494435793  1612.60205576717 672.512220054732  1613.58818972123 672.34365094163  L 1613.41969436947 671.357948493407  Z M 1617.35959137797 670.67736461059  C 1616.37491582842 670.849234614466  1615.39001506113 671.019811799568  1614.40489162279 671.189095724831  L 1614.5742496384 672.174650321264  C 1615.56023567616 672.005218166643  1616.54599884725 671.83449161988  1617.53153660403 671.662471122209  L 1617.35959137797 670.67736461059  Z M 1621.29708154288 669.982991468585  C 1620.31301373797 670.158307730982  1619.3287161912 670.332331970899  1618.34419144648 670.505063738573  L 1618.51699881348 671.490019379154  C 1619.50238563298 671.317136363174  1620.48754505617 671.142959743124  1621.47247453576 670.967489969372  L 1621.29708154288 669.982991468585  Z M 1625.23211660329 669.274837578165  C 1624.24866860492 669.4535979502  1623.26498634217 669.6310671121  1622.28107235857 669.80724460498  L 1622.4573269589 670.79158921733  C 1623.44210248267 670.615257458944  1624.42664608269 670.437632900522  1625.41095521322 670.258716001345  L 1625.23211660329 669.274837578165  Z M 1629.16464832836 668.552911619013  C 1628.18183219022 668.735113909695  1627.19877726866 668.916025818308  1626.21548610559 669.095646877061  L 1626.39518577894 670.079368396293  C 1627.37933793683 669.899590056759  1628.36325364633 669.718519737068  1629.34693036335 669.536157905412  L 1629.16464832836 668.552911619013  Z M 1633.09462851793 667.817222439609  C 1632.11245628619 668.002864415728  1631.1300407549 668.187216853656  1630.14738446434 668.370279276709  L 1630.33052700816 669.353365645571  C 1631.31404373764 669.170142928391  1632.297319497 668.985629066769  1633.28035174381 668.799824537801  L 1633.09462851793 667.817222439609  Z M 1637.02200900314 667.067779057131  C 1636.04049271605 667.256858443315  1635.05872861628 667.444649150993  1634.07671924242 667.63115069459  L 1634.26330241198 668.613589863616  C 1635.24617165851 668.426925014471  1636.22879541554 668.23896987254  1637.21117114353 668.049724923584  L 1637.02200900314 667.067779057131  Z M 1639.11255958308 666.663033566077  C 1638.74288932657 666.734961975947  1638.37318351249 666.806707526194  1638.00344227888 666.878270190035  L 1638.19346378727 667.86005011769  C 1639.17567350383 667.669945424527  1640.15763321513 667.478551305935  1641.13934038336 667.285868256562  L 1639.11255958308 666.663033566077  Z M 862.802643273774 521.179511306008  C 861.956943484814 520.646672584566  861.11194360473 520.112723804126  860.267645818456 519.577666345334  L 859.732354181544 520.422333654666  C 860.577391256496 520.957859623417  861.423131040018 521.49227594302  862.269571345285 522.025581231639  L 862.802643273774 521.179511306008  Z M 1640.69958969861 674.526403740441  L 1650 665  L 1637.73450953914 659.822380493455  L 1640.69958969861 674.526403740441  Z " fill-rule="nonzero" fill="#1f8aee" stroke="none" />
  </g>
</svg>