<?xml version="1.0" encoding="utf-8"?>
<svg version="1.1" xmlns:xlink="http://www.w3.org/1999/xlink" width="136px" height="12px" viewBox="1400 472  136 12" xmlns="http://www.w3.org/2000/svg">
  <g transform="matrix(0.85716730070211 0.515038074910053 -0.515038074910061 0.85716730070211 455.866602376312 -687.801863703566 )">
    <path d="M 1419.97157097208 508.040061003524  C 1419.20765216437 508.687559055407  1418.44647636737 509.338286382466  1417.68806402045 509.992225511144  L 1418.3410811938 510.749568611277  C 1419.09735730676 510.097471444924  1419.85638908596 509.448577033435  1420.61815614957 508.802902801178  L 1419.97157097208 508.040061003524  Z M 1423.04178777125 505.467365632454  C 1422.27061217439 506.106203538954  1421.50214297929 506.748301463173  1420.73640082114 507.393642163273  L 1421.38083168839 508.158304740713  C 1422.14441696657 507.514781783586  1422.91072160043 506.874492468341  1423.67972501286 506.237453988275  L 1423.04178777125 505.467365632454  Z M 1426.14083564945 502.929473807566  C 1425.36250143364 503.559570245002  1424.58683666609 504.192957027701  1423.81386217523 504.829617147738  L 1424.44962470072 505.601501861397  C 1425.22042194018 504.966635033583  1425.99390187858 504.335032323026  1426.77004374614 503.706710689769  L 1426.14083564945 502.929473807566  Z M 1429.26832009975 500.426708600968  C 1428.48292634648 501.047983358434  1427.70016474813 501.67257836987  1426.92005632375 502.300476863386  L 1427.5470695753 503.079485452802  C 1428.324980654 502.45335557246  1429.1055374334 501.830519869254  1429.88871895372 501.210995067764  L 1429.26832009975 500.426708600968  Z M 1432.42384299525 497.959388613171  C 1431.63148968465 498.571762602778  1430.84173090062 499.187486332349  1430.05458785004 499.806543268258  L 1430.67277200923 500.592576566104  C 1431.45769789955 499.975263339217  1432.24523215558 499.361273929926  1433.03535363009 498.750624825362  L 1432.42384299525 497.959388613171  Z M 1435.60700263979 495.527827932529  C 1434.80779063795 496.131223199435  1434.01113520406 496.737997265881  1433.21705773012 497.348133838606  L 1433.82633410249 498.141091783315  C 1434.61817488387 497.532673793445  1435.4125863638 496.927608838631  1436.20954721056 496.325913166221  L 1435.60700263979 495.527827932529  Z M 1438.81739381904 493.132336095259  C 1438.01142486521 493.726675827585  1437.20797419516 494.324422988977  1436.40706338347 494.925561528474  L 1437.00735440849 495.725343176977  C 1437.80600928003 495.12589787541  1438.60719685586 494.5298343994  1439.41089562218 493.937168754679  L 1438.81739381904 493.132336095259  Z M 1442.05460785213 490.773218046035  C 1441.24198454564 491.358426584721  1440.43184091829 491.947070748142  1439.62419872429 492.539134729867  L 1440.21542798527 493.345638270438  C 1441.02079527873 492.75524196617  1441.82865695967 492.16825584755  1442.63899133521 491.58469567647  L 1442.05460785213 490.773218046035  Z M 1445.31823264366 488.450774099171  C 1444.49905843099 489.026776947505  1443.6823249771 489.606243178937  1442.86805421316 490.189157233485  L 1443.45014644699 491.002279998706  C 1444.26212363954 490.421007848863  1445.07655658538 489.843173810554  1445.89342341503 489.268793400003  L 1445.31823264366 488.450774099171  Z M 1448.60785273615 486.165299900388  C 1447.78223189769 486.732023733545  1446.95901258693 487.3022382673  1446.13821690925 487.875928190053  L 1446.71109801591 488.695566669885  C 1447.5295817434 488.123492670033  1448.35048227722 487.55488427002  1449.17377757436 486.989756738252  L 1448.60785273615 486.165299900388  Z M 1451.92304936294 483.917086389181  C 1451.0910869997 484.474459063572  1450.26148662743 485.035349311651  1449.43427052278 485.599742072241  L 1449.99786757487 486.425791927198  C 1450.82275364476 485.862988902044  1451.6500172665 485.303678523776  1452.47963622609 484.747875811215  L 1451.92304936294 483.917086389181  Z M 1455.26340050147 481.706419761782  C 1454.4252025218 482.254370324186  1453.5893266956 482.805864885626  1452.75579546812 483.360888637179  L 1453.31003672007 484.193244711607  C 1454.14122012488 483.639784305617  1454.97474152432 483.089843149014  1455.8105785364 482.543436008992  L 1455.26340050147 481.706419761782  Z M 1458.62848092707 479.533581434727  C 1457.78415403304 480.072040131373  1456.94210915943 480.614068801233  1456.10236891714 481.159652889564  L 1456.64718381437 481.998209225037  C 1457.48455874494 481.454161893402  1458.32423181533 480.913659965615  1459.16618047833 480.376717955446  L 1458.62848092707 479.533581434727  Z M 1462.01786226699 477.398848009033  C 1461.16751394091 477.927746294458  1460.31940721173 478.460240072799  1459.47356485303 478.996315045389  L 1460.00888404093 479.840964894186  C 1460.85234389994 479.306399893799  1461.6980617514 478.775406000414  1462.54601488577 478.247997472487  L 1462.01786226699 477.398848009033  Z M 1465.43111305504 475.302491234984  C 1464.57485154576 475.82176178074  1463.72079092443 476.344652881451  1462.86895412458 476.871150496264  L 1463.39470945733 477.721786334966  C 1464.24414687287 477.196771715624  1465.095801846 476.675353451858  1465.94965150781 476.157545544956  L 1465.43111305504 475.302491234984  Z M 1468.86939861997 473.246123034418  C 1468.33482920903 473.561119506067  1467.80118660279 473.877686186883  1467.26847771366 474.1958189763  C 1466.94137087634 474.391496164161  1466.6145793816 474.587700017945  1466.28810450077 474.78442977436  L 1466.80422905004 475.640943317536  C 1467.12967836306 475.444831555694  1467.45544319273 475.249243873738  1467.78152227253 475.054181032075  C 1468.31244335505 474.737116764255  1468.84429483259 474.421613036779  1469.37706981886 474.107673934723  L 1468.86939861997 473.246123034418  Z M 1472.3338229685 471.234112126616  C 1471.46454543508 471.731631177274  1470.5976328078 472.233270907421  1469.7331143465 472.73901438582  L 1470.23805846559 473.602166421439  C 1471.09984731255 473.098019767994  1471.96402276621 472.597963905698  1472.83055565908 472.10201571234  L 1472.3338229685 471.234112126616  Z M 1475.82342039205 469.266084235192  C 1474.94791920749 469.752567854348  1474.07473061674 470.243201737392  1473.20388409148 470.737969324554  L 1473.69786966742 471.607439422236  C 1474.56596659823 471.114234004954  1475.43639819974 470.625149240107  1476.30913509332 470.140201635187  L 1475.82342039205 469.266084235192  Z M 1479.33763252859 467.342354259518  C 1478.45604777971 467.817724606108  1477.57672294228 468.29727413691  1476.69968769509 468.780986666274  L 1477.18263568645 469.656635704215  C 1478.05690179903 469.174450439701  1478.93345027275 468.696415029569  1479.81225152251 468.222545608377  L 1479.33763252859 467.342354259518  Z M 1482.87589707754 465.463230010966  C 1481.98836982458 465.927411022132  1481.10304943911 466.395799469136  1480.21996580229 466.868379543031  L 1480.69179893372 467.750067410751  C 1481.57209433887 467.278979452299  1482.4546194304 466.81206988617  1483.33934442149 466.349354471405  L 1482.87589707754 465.463230010966  Z M 1486.43764788978 463.629012163652  C 1485.54432014382 464.081929566916  1484.65314586828 464.53908198442  1483.76415514189 465.000453986455  L 1484.22479791652 465.888039607215  C 1485.1109817603 465.428124332469  1485.99934225894 464.972415319411  1486.88984942866 464.520927949044  L 1486.43764788978 463.629012163652  Z M 1490.02231505818 461.839994206328  C 1489.12332975844 462.281575531474  1488.22644418747 462.727418771628  1487.33168861676 463.177508878787  L 1487.78106732826 464.070850232164  C 1488.67299781454 463.62218123105  1489.56705157588 463.177745687958  1490.46319843633 462.73755860339  L 1490.02231505818 461.839994206328  Z M 1493.62932500885 460.096462395422  C 1492.72482599978 460.526636986092  1491.82237264186 460.9610997106  1490.9219953945 461.399835905056  L 1491.36003813887 462.298790049664  C 1492.25757255202 461.861439112623  1493.15717652068 461.428348152551  1494.05881968158 460.999531787049  L 1493.62932500885 460.096462395422  Z M 1497.25810059286 458.398695709231  C 1496.34823260115 458.817394734232  1495.44035585566 459.240407425767  1494.53450099884 459.667719506404  L 1494.96113768592 460.57214260277  C 1495.86413241364 460.146179709266  1496.76914264617 459.724502630048  1497.67613783778 459.30712559748  L 1497.25810059286 458.398695709231  Z M 1500.90806117864 456.74696580329  C 1499.99296979006 457.154122267605  1499.07981492415 457.565617240931  1498.16862740151 457.98143683458  L 1498.5837897662 458.891184168156  C 1499.49210032247 458.476677475483  1500.4023720104 458.066481748637  1501.31457410661 457.660610832495  L 1500.90806117864 456.74696580329  Z M 1504.57862274482 455.141536966895  C 1503.65845438094 455.537085722406  1502.74016750631 455.93699713521  1501.82379311475 456.341257707585  L 1502.22741472792 457.256183711906  C 1503.1408957762 456.853199544265  1504.05628326912 456.454550804235  1504.9735463107 456.060250946931  L 1504.57862274482 455.141536966895  Z M 1508.26919797376 453.582666080826  C 1507.34409986847 453.966543836734  1506.42082791798 454.354807700161  1505.49941328436 454.747444566507  L 1505.89142956349 455.66740284648  C 1506.80993493987 455.276005684396  1507.73029176887 454.888967717991  1508.65246898678 454.506302010495  L 1508.26919797376 453.582666080826  Z M 1511.97919634545 452.070602576233  C 1511.04931652147 452.44274790919  1510.12120722563 452.819302098078  1509.19489978325 453.200252433523  L 1509.57524800278 454.125095788853  C 1510.49863073944 453.745348258844  1511.42380964047 453.36998299506  1512.35075347935 452.999012666788  L 1511.97919634545 452.070602576233  Z M 1515.70802423204 450.605588394733  C 1514.77351147719 450.965941758666  1513.84071334051 451.330726021494  1512.90966130559 451.699928871096  L 1513.27828060692 452.629509319841  C 1514.20639295564 452.261472184377  1515.13624589303 451.897839684521  1516.06780803487 451.538624093527  L 1515.70802423204 450.605588394733  Z M 1519.45508499284 449.187857949694  C 1518.51608883622 449.53636168534  1517.57875111349 449.889317653851  1516.6431034614 450.246713942364  L 1516.99993486265 451.180882744608  C 1517.93262831841 450.824614892424  1518.86700650867 450.472773340441  1519.80303789645 450.125369963946  L 1519.45508499284 449.187857949694  Z M 1523.21977906972 447.817638088729  C 1522.27644975785 448.15423643284  1521.33472243017 448.495307631425  1520.39462887165 448.840840172724  L 1520.73961527708 449.779447854382  C 1521.67674060187 449.435006291034  1522.6154945374 449.095011984238  1523.55584539902 448.759476409413  L 1523.21977906972 447.817638088729  Z M 1527.00299632473 446.497929395674  C 1526.05516304778 446.821627889617  1525.10887058901 447.149820675473  1524.16415088749 447.48249667615  L 1524.49630107286 448.425723188898  C 1525.43803793416 448.094097573174  1526.38134258691 447.766941017049  1527.32618319289 447.444264562647  L 1527.00299632473 446.497929395674  Z M 1530.80241033604 445.22715123623  C 1529.85055837625 445.538834541029  1528.90019026233 445.855031268243  1527.95133807097 446.175730745645  L 1528.27153066272 447.123083216579  C 1529.21738696602 446.803396309675  1530.1647544055 446.48819793607  1531.11360100582 446.177498734277  L 1530.80241033604 445.22715123623  Z M 1534.61759465243 444.004534128612  C 1533.6618763133 444.304152372583  1532.70758461037 444.608302447267  1531.75475175269 444.916974087057  L 1532.06293551758 445.868300932603  C 1533.0127599187 445.560603886848  1533.96403855895 445.257414129891  1534.91673933096 444.958741894932  L 1534.61759465243 444.004534128612  Z M 1538.4479388155 442.830273700819  C 1537.48850701922 443.11777894277  1536.53044442116 443.409833698616  1535.57378335765 443.706428110988  L 1535.86990898394 444.661577111644  C 1536.8235495038 444.365919160892  1537.778587133 444.074786533248  1538.73498963738 443.788189054941  L 1538.4479388155 442.830273700819  Z M 1542.29282994117 441.704557843416  C 1541.32983820409 441.97990408033  1540.36815800818 442.259816786364  1539.40782181186 442.544286513965  L 1539.69184191721 443.503104838655  C 1540.64914596606 443.219533290426  1541.60778977101 442.940504375506  1542.56774097608 442.666027511625  L 1542.29282994117 441.704557843416  Z M 1546.15165281773 440.627566679469  C 1545.18525522582 440.890709853862  1544.22011130818 441.158435721931  1543.25625364011 441.43073524745  L 1543.52812277914 442.393069477976  C 1544.48893718112 442.121629705862  1545.45103377151 441.854749150415  1546.41438007782 441.592436819335  L 1546.15165281773 440.627566679469  Z M 1550.02379000428 439.599472535724  C 1549.0541411885 439.850370542692  1548.08568797943 440.105866734634  1547.11846306416 440.36595248808  L 1547.37813773576 441.331648643676  C 1548.34230875326 441.072384080097  1549.30770418636 440.817694587032  1550.27429145121 440.567588760713  L 1550.02379000428 439.599472535724  Z M 1553.90862192954 438.620439915032  C 1552.935877041 438.859052609002  1551.96426950043 439.102278243473  1550.99383210124 439.350108609165  L 1551.24127075548 440.319012171129  C 1552.20864411385 440.071964300379  1553.17718391907 439.829506621946  1554.14685748117 439.591647319215  L 1553.90862192954 438.620439915032  Z M 1557.80552699096 437.690625470031  C 1556.82984167627 437.916914671152  1555.85523526867 438.147830830232  1554.88174066294 438.383366153421  L 1555.11690370777 439.355322089842  C 1556.08732461994 439.120530441453  1557.05885382357 438.890343372718  1558.0314585278 438.664768652865  L 1557.80552699096 437.690625470031  Z M 1561.71388165421 436.810177978077  C 1560.73541203039 437.024107478367  1559.75796270022 437.242677213709  1558.78156665444 437.465879806965  L 1559.00441646199 438.440732597531  C 1559.97772965326 438.218234739945  1560.95209280327 438.000355112581  1561.92747302551 437.787101069271  L 1561.71388165421 436.810177978077  Z M 1565.63306055294 435.979238317437  C 1564.65196318252 436.18077388656  1563.6718273291 436.386962225344  1562.69268607402 436.597796374565  L 1562.90318698664 437.575390035442  C 1563.87923671952 437.365221570002  1564.85627791043 437.159684246401  1565.83427758245 436.958785001897  L 1565.63306055294 435.979238317437  Z M 1569.56243658883 435.197939444754  C 1568.57886845484 435.387048835489  1567.59620290731 435.580822786024  1566.61447311296 435.779254756145  L 1566.8125914489 436.759432864942  C 1567.79122154804 436.561627420194  1568.77078444585 436.368465287886  1569.75124708031 436.179952987588  L 1569.56243658883 435.197939444754  Z M 1573.50138103194 434.466406373767  C 1572.51549951273 434.643059327177  1571.53046150502 434.824387884165  1570.54630025561 435.010385924567  L 1570.73200431444 435.99299164536  C 1571.71305819162 435.807580871675  1572.69498605884 435.626824838063  1573.67775477428 435.450729645368  L 1573.50138103194 434.466406373767  Z M 1577.44926362133 433.784756155308  C 1576.46122646541 433.948924405584  1575.47397361107 434.11777855508  1574.48753837985 434.291312904668  L 1574.66079844751 435.276189013098  C 1575.64411912666 435.103202577604  1576.62825484741 434.934881565024  1577.61317239338 434.771231656496  L 1577.44926362133 433.784756155308  Z M 1581.40545266585 433.153097858578  C 1580.41541796666 433.304755137555  1579.42610823362 433.461107861617  1578.4375568577 433.62215075358  L 1578.59834521127 434.609139662007  C 1579.58377535365 434.448605243844  1580.56996145874 434.292746184933  1581.55687024098 434.141567745798  L 1581.40545266585 433.153097858578  Z M 1585.36965168903 432.571769015292  C 1585.23144928379 432.591068896783  1585.09325826942 432.610450258266  1584.955078718 432.629913089633  C 1584.1014561208 432.750793643436  1583.24833065527 432.875159164372  1582.3957236563 433.003006542317  L 1582.54401456842 433.991950325038  C 1583.39380721635 433.864524955593  1584.2441165456 433.740569450333  1585.09492129777 433.620086908244  C 1585.23258913193 433.600696300362  1585.37026837636 433.581386788477  1585.50795895935 433.562158382649  L 1585.36965168903 432.571769015292  Z M 1589.33983749831 432.040151383908  C 1588.34655032905 432.167455238349  1587.35380623322 432.298961163377  1586.36163186834 432.434665627749  L 1586.49714500993 433.42544117673  C 1587.48652469911 433.290118953607  1588.47647251445 433.158983443728  1589.46696187355 433.032038168384  L 1589.33983749831 432.040151383908  Z M 1593.31576859517 431.553361306728  C 1592.32110833954 431.669450271935  1591.32694371282 431.789747167508  1590.33330141065 431.914248763191  L 1590.45762747791 432.906490179885  C 1591.4484709696 432.782339270125  1592.4398353146 432.662381217023  1593.43169389248 432.546619241729  L 1593.31576859517 431.553361306728  Z M 1597.29693884596 431.111460751835  C 1596.30103212362 431.216320049753  1595.30557352256 431.325392602147  1594.31058977318 431.438675480165  L 1594.42371293946 432.432256452834  C 1595.41589409989 432.319292660773  1596.40854877447 432.210527335036  1597.40165030812 432.105963396222  L 1597.29693884596 431.111460751835  Z M 1601.28284145011 430.714505972906  C 1600.28581503937 430.808122255008  1599.28918918526 430.905956579354  1598.2929906495 431.008006318863  L 1598.3948965143 432.002800365246  C 1599.3882890394 431.901038071107  1600.38210767921 431.803479318495  1601.3763257474 431.710126727088  L 1601.28284145011 430.714505972906  Z M 1605.27296900458 430.362547502045  C 1604.27494982634 430.444908851035  1603.27728358902 430.531492493084  1602.27999708238 430.622296103212  L 1602.37067267314 431.618176586623  C 1603.36515010463 431.527628744685  1604.36000619716 431.44128898437  1605.35521423652 431.359159624099  L 1605.27296900458 430.362547502045  Z M 1609.26681356855 430.055630143356  C 1608.26792867002 430.126726074685  1607.26934905186 430.202048012387  1606.27110152827 430.281593933891  L 1606.35053530205 431.278434079342  C 1607.34597104356 431.199112216291  1608.34173794421 431.124002439272  1609.33780926537 431.053106765155  L 1609.26681356855 430.055630143356  Z M 1613.263866728 429.793792967234  C 1612.26424326665 429.85361443043  1611.26487738618 429.917665075351  1610.26579592199 429.985943182082  L 1610.33397776691 430.98361609242  C 1611.33024510006 430.915530305882  1612.32679604831 430.851660073588  1613.32360385197 430.792007110602  L 1613.263866728 429.793792967234  Z M 1617.26361966045 429.577069305394  C 1616.26338488772 429.625608685223  1615.26335996367 429.678379883751  1614.26357174132 429.735381483948  L 1614.32049297788 430.73376015601  C 1615.31746507842 430.676919113265  1616.31467321397 430.624296556338  1617.31209060709 430.575893898269  L 1617.26361966045 429.577069305394  Z M 1621.26556319975 429.405486746629  C 1620.26484444494 429.442737864056  1619.26428777986 429.484222898451  1618.26392007181 429.529940735843  L 1618.30957345396 430.528898076623  C 1619.30712340798 430.4833090135  1620.30486178676 430.441940830762  1621.30276179873 430.40479463924  L 1621.26556319975 429.405486746629  Z M 1625.26918790089 429.279067133295  C 1624.2681125549 429.305025246275  1623.26715151906 429.335218835517  1622.26633167151 429.369647090252  L 1622.30071138761 430.369055933079  C 1623.29871220758 430.334724653039  1624.29685381811 430.304616110634  1625.29510941685 430.278731114346  L 1625.26918790089 429.279067133295  Z M 1629.27398410485 429.197826558534  C 1628.27267960397 429.212488362615  1627.2714416191 429.231386663078  1626.27029703582 429.254520952458  L 1626.29339870935 430.254254073186  C 1627.29172335034 430.231184946582  1628.29014112986 430.212339877308  1629.288625238 430.1977193714  L 1629.27398410485 429.197826558534  Z M 1633.27944200347 429.161775364222  C 1632.27803581316 429.165138992964  1631.27664833626 429.172739598906  1630.27530646236 429.184576977952  L 1630.28712715249 430.184507111153  C 1631.2856485284 430.17270307467  1632.28421537885 430.165123877494  1633.28280089 430.161769723146  L 1633.27944200347 429.161775364222  Z M 1637.28505170436 429.170918139653  C 1636.28367130304 429.16298316487  1635.28226181013 429.159285108738  1634.28085011582 429.159824070558  L 1634.28138831779 430.159823925727  C 1635.27997931744 430.159286482011  1636.27856812188 430.162974121761  1637.27712791669 430.170886745955  L 1637.28505170436 429.170918139653  Z M 1639.02675121112 429.188992305904  C 1638.77997660538 429.185826009892  1638.53319876518 429.182917033445  1638.28641809291 429.180265381306  L 1638.27567373819 430.180207659061  C 1639.27420724155 430.190936876529  1640.27269088023 430.20589088377  1641.27109784263 430.225069279235  L 1639.02675121112 429.188992305904  Z M 1416.93057608871 510.6472324182  C 1416.17401131654 511.303308189351  1415.42022581488 511.96258208205  1414.66923982463 512.625036393247  L 1415.33076017537 513.374963606753  C 1416.07963084962 512.714375242751  1416.83129314987 512.056958338889  1417.58572689218 511.402730548383  L 1416.93057608871 510.6472324182  Z M 1638.70189236692 437.042922966446  L 1650 430  L 1639.31658810321 422.055523286989  L 1638.70189236692 437.042922966446  Z " fill-rule="nonzero" fill="#1f8aee" stroke="none" />
  </g>
</svg>