<?xml version="1.0" encoding="utf-8"?>
<svg version="1.1" xmlns:xlink="http://www.w3.org/1999/xlink" width="390px" height="26px" viewBox="1264 690  390 26" xmlns="http://www.w3.org/2000/svg">
  <g transform="matrix(0.996194698091746 -0.0871557427476583 0.0871557427476548 0.996194698091748 -55.7185516674583 129.835355910334 )">
    <path d="M 935.825200319722 505.910740651515  C 935.035136709122 505.298480601804  934.245934637402 504.685109624068  933.457596447118 504.070629538952  L 932.842828237851 504.859337373878  C 933.631905977402 505.474393909942  934.421848408312 506.088340297774  935.212653186815 506.701174715791  L 935.825200319722 505.910740651515  Z M 938.990039617049 508.353848150842  C 938.197685173257 507.744555681593  937.406188096044 507.134149061157  936.615550733794 506.522630100622  L 936.00374503768 507.313638185411  C 936.795124105912 507.925730818901  937.587363695614 508.53671006879  938.380461456202 509.146574122296  L 938.990039617049 508.353848150842  Z M 942.164019962593 510.785068173231  C 941.369385832325 510.178751855874  940.575604883783 509.571318179462  939.782679472128 508.96276894626  L 939.173844895824 509.7560661533  C 939.967514159908 510.365186273521  940.762039763464 510.973189790434  941.557419349129 511.580074900086  L 942.164019962593 510.785068173231  Z M 945.347096705963 513.204366517171  C 944.55019406784 512.601034881142  943.754140414589 511.996582693907  942.958938108112 511.391011748886  L 942.353083216481 512.186586918362  C 943.149031511367 512.792725956436  943.945831951683 513.397745187202  944.743482173315 514.001642815563  L 945.347096705963 513.204366517171  Z M 948.5392250688 515.611709148858  C 947.740065133357 515.011370681606  946.941749973987 514.40990848676  946.144281959304 513.80732434887  L 945.54141527529 514.605166288922  C 946.339631403704 515.208315717783  947.138695472014 515.810342151462  947.938605108398 516.411243802996  L 948.5392250688 515.611709148858  Z M 951.740360145413 518.00706220268  C 950.938954154939 517.409725349545  950.138388719856 516.811261608238  949.338666215454 516.211672754412  L 948.738796219965 517.011770241292  C 949.539268953225 517.611921576303  950.340585407928 518.210946743311  951.142743206558 518.808843965002  L 951.740360145413 518.00706220268  Z M 954.950456903406 520.390391981685  C 954.146816131787 519.796065145784  953.344011683052 519.200608276985  952.542045939134 518.604023142019  L 951.945181070922 519.406364920249  C 952.74789914794 520.003509718453  953.551456717071 520.599525192418  954.355851393154 521.194409573021  L 954.950456903406 520.390391981685  Z M 958.169470184313 522.761664958064  C 957.36360593704 522.170356500292  956.558573767879 521.577914880425  955.754376066373 520.984341856983  L 955.160524721912 521.788916639512  C 955.965476850511 522.383046500619  956.771264229586 522.976043896767  957.577884467357 523.567907067789  L 958.169470184313 522.761664958064  Z M 961.397354704237 525.120847773618  C 960.589278317579 524.532566012041  959.782029753555 523.943147975847  958.975611407286 523.352595413851  L 958.384781940661 524.159391882217  C 959.191956797235 524.750498448348  959.999962650398 525.340469424364  960.808797102787 525.929303059813  L 961.397354704237 525.120847773618  Z M 964.634065054479 527.467907240228  C 963.823787896493 526.882660450821  963.014334293016 526.29627428953  962.205706646715 525.708750496902  L 961.617907369499 526.517757301387  C 962.427293598841 527.105832256949  963.237506559695 527.692768513582  964.048543848149 528.27856432984  L 964.634065054479 527.467907240228  Z M 967.879555702186 529.802810340321  C 967.067089171387 529.220606755999  966.255441915887 528.637260718921  965.444616344865 528.052773960608  L 964.859855526001 528.863979720401  C 965.671441741796 529.449014792449  966.483850412897 530.032908073137  967.297079127873 530.615657829323  L 967.879555702186 529.802810340321  Z M 971.133780990982 532.125524227335  C 970.319136516683 531.546372038206  969.505307027454 530.966074331878  968.69229493794 530.384632830105  L 968.110580803629 531.198026133461  C 968.924355588946 531.780013092059  969.738948541293 532.360855182562  970.554357242753 532.940550680886  L 971.133780990982 532.125524227335  Z M 974.39669514162 534.436016226182  C 973.579884184108 533.859923579667  972.763883909469 533.282682367264  971.948696738787 532.704294301659  L 971.370037472371 533.519863706058  C 972.185989379493 534.098794364145  973.002755153352 534.676577093152  973.820332370596 535.25321017879  L 974.39669514162 534.436016226182  Z M 977.668252252618 536.734253833708  C 976.849286302492 536.161228834067  976.031126721634 535.587052236008  975.213775937539 535.01172574312  L 974.638179679385 535.829459775431  C 975.456297229462 536.405325988585  976.275224335547 536.980041228536  977.09495856686 537.553603789387  L 977.668252252618 536.734253833708  Z M 980.94840630091 539.020204719149  C 980.127296879252 538.450255427606  979.306989501406 537.879151520958  978.487486602258 537.30689469439  L 977.914961449643 538.12678185103  C 978.735233134035 538.699575518413  979.556310051303 539.271215183951  980.378189765303 539.841699151583  L 980.94840630091 539.020204719149  Z M 984.23711114249 541.293836724583  C 983.413869800197 540.726971158857  982.591426165486 540.15894797794  981.769782679582 539.589768867872  L 981.200336686581 540.411797614969  C 982.022750965668 540.981510678493  982.845966144188 541.550066728472  983.669979778631 542.11746407729  L 984.23711114249 541.293836724583  Z M 987.534320513064 543.55511786539  C 986.708958831023 542.991343999822  985.884390509623 542.426409535611  985.060617995373 541.860316148929  L 984.494259172742 542.684474922484  C 985.318804477271 543.251099367752  986.144146336014 543.816563803698  986.97028229915 544.380866551882  L 987.534320513064 543.55511786539  Z M 990.839988028698 545.804016330695  C 990.012517617965 545.243342096365  989.185836209261 544.681504295918  988.359946255365 544.118504596333  L 987.796682570433 544.944781802382  C 988.623347301173 545.508309658446  989.45080422919 546.07067452538  990.279050899411 546.631874734643  L 990.839988028698 545.804016330695  Z M 994.154067186473 548.040500483818  C 993.32449968777 547.482933768203  992.49571682087 546.924200535014  991.667721045816 546.364302442716  L 991.107560422371 547.192686457495  C 991.936332949763 547.753109796619  992.765893307378 548.312367183863  993.596239032872 548.870456959212  L 994.154067186473 548.040500483818  Z M 997.476511365138 550.26453886272  C 996.644858448173 549.710087509232  995.813985782777 549.15446670382  994.983895834164 548.597678095019  L 994.426846152339 549.428157265124  C 995.257714817687 549.985468203593  996.089366934607 550.541610243488  996.921800034544 551.096581734037  L 997.476511365138 550.26453886272  Z M 1000.80727382576 552.476100180443  C 999.973547190271 551.924771989132  999.140596414104 551.372271427305  998.308423969676 550.81860013493  L 997.754493065842 551.651162777484  C 998.58744618079 552.205353475254  999.421178357636 552.758372344195  1000.25568712165 553.31021774281  L 1000.80727382576 552.476100180443  Z M 1004.14630771241 554.675153325553  C 1003.3105190866 554.126956052072  1002.475501918 553.577583506666  1001.64125868411 553.027037319331  L 1001.09045435076 553.861671722149  C 1001.92548019763 554.412734383066  1002.76128070576 554.962622301388  1003.5978533943 555.511333844909  L 1004.14630771241 554.675153325553  Z M 1007.49356605276 556.861667362577  C 1006.65572719438 556.316608718879  1005.81865537971 555.770371918034  1004.98235309236 555.222958580737  L 1004.43468307802 556.059653002488  C 1005.27176991014 556.607579874519  1006.10962699148 557.154329106373  1006.94825183611 557.69989907584  L 1007.49356605276 556.861667362577  Z M 1010.84900175882 559.035611532436  C 1010.00912445428 558.493699186206  1009.17000976917 557.950605814183  1008.33166019315 557.406333027733  L 1007.78713220223 558.245075698106  C 1008.6262682436 558.789859073103  1009.46617011183 559.333461927249  1010.30683531491 559.87588264767  L 1010.84900175882 559.035611532436  Z M 1014.21256762755 561.19695525288  C 1013.37066369193 560.658196827543  1012.52951794073 560.118254524379  1011.68913286964 559.577129945407  L 1011.14775456236 560.417909065278  C 1011.98892800816 560.959541279315  1012.83086284819 561.499990108771  1013.67355658337 562.039253949458  L 1014.21256762755 561.19695525288  Z M 1017.58421634153 563.345668118917  C 1016.74029761861 562.810071193639  1015.8971326339 562.273287554824  1015.05472389014 561.735318795784  L 1014.51650288242 562.578122537379  C 1015.35970189949 563.116595971086  1016.20365786694 563.653883172791  1017.0483682797 564.189982547691  L 1017.58421634153 563.345668118917  Z M 1020.96390046965 565.481719903242  C 1020.11797883101 564.949292012384  1019.27280647483 564.415674589637  1018.42838590875 563.880869218253  L 1017.89332977208 564.725685725319  C 1018.73854249878 565.260992803758  1019.58450772085 565.795110819132  1020.43122292828 566.328038186705  L 1020.96390046965 565.481719903242  Z M 1024.35157246774 567.605080556662  C 1023.50365981386 567.075829190443  1022.65649197508 566.545385490057  1021.81007146603 566.013751029997  L 1021.27818772738 566.860568417964  C 1022.1254022734 567.392701610522  1022.9733648497 567.923642926009  1023.82207294035 568.453390789118  L 1024.35157246774 567.605080556662  Z M 1027.74718467929 569.715720208516  C 1026.89729293793 569.189652812032  1026.0481415349 568.662390296533  1025.19973298966 568.133934226416  L 1024.67102913139 568.982740582568  C 1025.52023357824 569.511692403279  1026.37018158029 570.039449550012  1027.22087061467 570.566010456248  L 1027.74718467929 569.715720208516  Z M 1031.15068933605 571.813609167099  C 1030.29883046336 571.290733140983  1029.44770744128 570.766659227489  1028.59732279513 570.24138898155  L 1028.07180625484 571.09217236519  C 1028.92298865641 571.617935373065  1029.77491012711 572.142500926528  1030.62756813821 572.665867468535  L 1031.15068933605 571.813609167099  Z M 1034.56203855878 573.898717920077  C 1033.70822453839 573.379040619959  1032.85514187056 572.858162680947  1032.00279308639 572.336085648497  L 1031.48047125685 573.188834091116  C 1032.33361963919 573.711400890022  1033.18750259367 574.232767470603  1034.04211758679 574.752932285961  L 1034.56203855878 573.898717920077  Z M 1037.98118435787 575.971017134906  C 1037.12542720092 575.454545871414  1036.27039688818 574.936871234406  1035.41609595653 574.417994759832  L 1034.89697618558 575.272696265278  C 1035.75207854656 575.792059503719  1036.6079109734 576.310219777457  1037.46447092578 576.827175548462  L 1037.98118435787 575.971017134906  Z M 1041.40807863401 578.030477659239  C 1040.55039037917 577.517219698008  1039.69342444942 577.002755645248  1038.83718338846 576.487087028022  L 1038.32127297888 577.343729572665  C 1039.17831728941 577.859881944539  1040.03608714873 578.374828621929  1040.89458001077 578.888568076344  L 1041.40807863401 578.030477659239  Z M 1044.84267317893 580.07707052134  C 1043.98306589165 579.567033082588  1043.12417640073 579.055786851581  1042.26600725557 578.543333345832  L 1041.75331346501 579.401904878741  C 1042.61228766867 579.914839123111  1043.47198289333 580.42656495986  1044.33239658824 580.937080870692  L 1044.84267317893 580.07707052134  Z M 1048.284919676 582.11076693049  C 1047.42340544893 581.603957189237  1046.56260447938 581.095935972009  1045.70251932242 580.586704786745  L 1045.19304936326 581.44719322985  C 1046.05394137598 581.956902130732  1046.9155498728 582.465399928492  1047.77787229625 582.972685113779  L 1048.284919676 582.11076693049  Z M 1051.73476970096 584.131538277393  C 1050.87136065339 583.627963363148  1050.008660315 583.123174306565  1049.14667124543 582.617172605359  L 1048.64043228471 583.479565853623  C 1049.50322999612 583.986042240831  1050.36673964359 584.49130484582  1051.2309586651 584.99535216947  L 1051.73476970096 584.131538277393  Z M 1055.19217472258 586.139356134578  C 1054.32688300099 585.639023131658  1053.46229542919 585.137473336488  1052.59841457352 584.634708237797  L 1052.09541373282 585.498994159388  C 1052.96010500522 586.002230907891  1053.82550365618 586.504251212471  1054.69160711804 587.005053583626  L 1055.19217472258 586.139356134578  Z M 1058.65708610336 588.1341922568  C 1057.78992387999 587.637108203499  1056.92346123821 587.138804725776  1056.05770074883 586.639283302107  L 1055.55794510419 587.505449738567  C 1056.42451777342 588.005439769016  1057.29179325375 588.504210710948  1058.15976897194 589.001761084504  L 1058.65708610336 588.1341922568  Z M 1062.12945510019 590.116018581435  C 1061.26043457415 589.622190470652  1060.39210905111 589.12714032012  1059.5244811074 588.630869598661  L 1059.02797768919 589.498904365078  C 1059.89641956463 589.995640643796  1060.76555967381 590.491155206554  1061.63539543798 590.985446583155  L 1062.12945510019 590.116018581435  Z M 1065.60923286506 592.084807228876  C 1064.73836626158 591.594242007705  1063.8681900722 591.102452148345  1062.99870687982 590.609439110552  L 1062.50546267268 591.479329995732  C 1063.3757615374 591.972805534815  1064.24675404869 592.465056747681  1065.1184376223 592.956082173817  L 1065.60923286506 592.084807228876  Z M 1069.09637044573 594.040530502925  C 1068.22367001549 593.553235072257  1067.35165540181 593.064712422794  1066.48032919197 592.574964003991  L 1065.99035113467 593.446698770627  C 1066.86249474563 593.936906628042  1067.73532740622 594.425887566207  1068.60884652674 594.913640134311  L 1069.09637044573 594.040530502925  Z M 1072.59081878642 595.983160891185  C 1071.71629680662 595.499142106314  1070.8424560351 595.013893538702  1069.96929906565 594.527416628692  L 1069.48259405102 595.400983013539  C 1070.35657013922 595.887916293221  1071.23123067043 596.373620077881  1072.10657304952 596.858092926429  L 1072.59081878642 595.983160891185  Z M 1076.09252872852 597.912671065443  C 1075.21619750142 597.431935735267  1074.3405428653 596.949968076007  1073.46556741932 596.466769518268  L 1072.98214229415 597.342155232314  C 1073.85793856482 597.825807084265  1074.73441466224 598.308226882715  1075.6115679859 598.789413196321  L 1076.09252872852 597.912671065443  Z M 1079.60145101125 599.829033882056  C 1078.72332286477 599.351588769384  1077.84586668243 598.872908798621  1076.96908506875 598.392995390613  L 1076.48894663369 599.270188119252  C 1077.36655076644 599.750551739634  1078.24483010013 600.229680765372  1079.12378202889 600.707573774882  L 1079.60145101125 599.829033882056  Z M 1083.11753627239 601.732222382336  C 1082.23762355952 601.258074203591  1081.35837817506 600.782688655416  1080.47980272775 600.306067148287  L 1080.0029577372 601.185054551494  C 1080.88235738623 601.662123182728  1081.76242760087 602.13795469554  1082.64316576995 602.612547678132  L 1083.11753627239 601.732222382336  Z M 1086.64073504893 603.622209792922  C 1085.75905014814 603.151365218347  1084.8780279301 602.679280780112  1083.99767100881 602.205957878897  L 1083.52412617087 603.086727591399  C 1084.40530896491 603.56049452216  1085.28715768036 604.033021828419  1086.16966969969 604.504308107595  L 1086.64073504893 603.622209792922  Z M 1090.1709977778 605.498969526165  C 1089.2875530925 605.031435179526  1088.40476643441 604.562658492147  1087.52264042386 604.092640855478  L 1087.05240240018 604.975180486928  C 1087.93535594326 605.445639052536  1088.81897075364 605.914855504703  1089.70324420854 606.382828450678  L 1090.1709977778 605.498969526165  Z M 1093.70827479656 607.362475180496  C 1092.82308275436 606.898257638701  1091.93854407567 606.432795297146  1091.05466138492 605.966089536863  L 1090.58773679063 606.850386672019  C 1091.47244866169 607.317530254234  1092.35781713663 607.783429251545  1093.24383958746 608.248082281047  L 1093.70827479656 607.362475180496  Z M 1097.25332021917 609.209978097714  C 1096.36594230105 608.750076081279  1095.4792901468 608.288775058443  1094.59336706352 607.826076749802  L 1094.13042551572 608.71246556027  C 1095.01728042067 609.175650539051  1095.90486516358 609.637436762423  1096.79317643358 610.097822507835  L 1097.25332021917 609.209978097714  Z M 1100.80668848707 611.042117482779  C 1099.91738452108 610.585950966711  1099.02880042972 610.128382404767  1098.14093952728 609.669413503618  L 1097.68172934751 610.557741151955  C 1098.57052410993 611.017192800667  1099.4600428218 611.475242637218  1100.35028216559 611.931888953277  L 1100.80668848707 611.042117482779  Z M 1104.36772950641 612.859298715378  C 1103.47651521742 612.406875765705  1102.58601490106 611.95304775547  1101.6962318788 611.497816377394  L 1101.24076118691 612.388067156012  C 1102.13148009076 612.843777350445  1103.02291704331 613.298082701036  1103.91506871931 613.750981513136  L 1104.36772950641 612.859298715378  Z M 1107.93638031018 614.661489663749  C 1107.0432714568 614.212818280304  1106.15087066146 613.762738846455  1105.25918125268 613.311253040944  L 1104.80745810239 614.203411208252  C 1105.700085398 614.655371890541  1106.59342482829 615.105924721866  1107.48747306149 615.555068021855  L 1107.93638031018 614.661489663749  Z M 1111.51257779676 616.448658461193  C 1110.61759017113 616.003746577472  1109.72330467641 615.557423678405  1108.82972464815 615.10969142872  L 1108.38175702693 616.003741209398  C 1109.27627693049 616.451944387792  1110.17150304269 616.898736733271  1111.06743202415 617.344116579214  L 1111.51257779676 616.448658461193  Z M 1115.09625873112 618.220773506632  C 1114.1994081585 617.779628989612  1113.30325377751 617.337070517388  1112.40779893015 616.893099740375  L 1111.96359475904 617.789025325658  C 1112.85999145366 618.233463075029  1113.75708841783 618.676487034208  1114.65488230575 619.118095550901  L 1115.09625873112 618.220773506632  Z M 1118.6873597459 619.977803465176  C 1117.78866208476 619.540434115353  1116.89065466313 619.101647895197  1115.99334083045 618.661446441327  L 1115.55290796396 619.559231989279  C 1116.45116559919 619.9998964509  1117.35011755306 620.439144190322  1118.24976047228 620.876973569065  L 1118.6873597459 619.977803465176  Z M 1122.28581734253 621.719717268671  C 1121.38528848374 621.28613081965  1120.48544390039 620.851124610359  1119.58628694879 620.414700263317  L 1119.14963317473 621.314329899114  C 1120.0497358675 621.751213281113  1120.95052691543 622.186677033821  1121.85200295838 622.620719532873  L 1122.28581734253 621.719717268671  Z M 1125.89156789238 623.446484116247  C 1124.98922375935 623.016688234837  1124.08755792532 622.585469728188  1123.18657375397 622.15283020496  L 1122.75370679335 623.054288021172  C 1123.65563862786 623.487382598491  1124.55825284187 623.919054664527  1125.46154606847 624.349302609062  L 1125.89156789238 623.446484116247  Z M 1129.50454763783 625.15807347487  C 1128.6004041858 624.732075760717  1127.69693304492 624.30465258178  1126.794137585 623.875805532296  L 1126.36506509187 624.779075589166  C 1127.26881011997 625.208373703739  1128.17323153987 625.636246450193  1129.07832597791 626.06269223248  L 1129.50454763783 625.15807347487  Z M 1133.12469269345 626.854455079874  C 1132.21876590978 626.432263065599  1131.3135054372 626.008642772068  1130.40891465222 625.583595779332  L 1129.98364421352 626.488662105057  C 1130.88918645502 626.91415616595  1131.79539908865 627.33822202709  1132.70227873406 627.760858106629  L 1133.12469269345 626.854455079874  Z M 1136.75193904713 628.535598935501  C 1135.84424495058 628.117220086388  1134.9372111533 627.697410168801  1134.03084103842 627.276170748578  L 1133.60938017386 628.183017339596  C 1134.51670361687 628.604699823181  1135.42469144021 629.024951300503  1136.33334025747 629.443770204203  L 1136.75193904713 628.535598935501  Z M 1140.38622256117 630.201475315429  C 1139.47677720177 629.786917029337  1138.56798611815 629.370924910856  1137.65985269998 628.953500511586  L 1137.24220886191 629.862111332855  C 1138.15129746287 630.279974782814  1139.06104442089 630.696404445435  1139.97144634299 631.111398767612  L 1140.38622256117 630.201475315429  Z M 1144.02747897343 631.852054763301  C 1143.11629843218 631.441324370532  1142.20576613164 631.029157406813  1141.29588546798 630.615555409477  L 1140.88206604127 631.525914394758  C 1141.79290372549 631.939951422346  1142.70439373185 632.352551906874  1143.61653266088 632.763714309517  L 1144.02747897343 631.852054763301  Z M 1147.6756438985 633.48730809324  C 1146.76274428707 633.08041285641  1145.85048686982 632.672078335473  1144.93887504937 632.262306053465  L 1144.52888735126 633.174397105608  C 1145.44145801312 633.58460038974  1146.35467495068 633.99336440049  1147.26853475802 634.400687613342  L 1147.6756438985 633.48730809324  Z M 1151.33065282879 635.107206390371  C 1150.41605028926 634.704153504284  1149.50208388603 634.29965864638  1148.58875702808 633.893723325374  L 1148.18260830805 634.807530316605  C 1149.09689581121 635.213892603943  1150.01182353247 635.618812913152  1150.92738805897 636.022289733801  L 1151.33065282879 635.107206390371  Z M 1154.99244113571 636.711721011329  C 1154.07615184027 636.312517602846  1153.16049261198 635.911869560333  1152.24546686616 635.50977837816  L 1151.84316430582 636.42528515036  C 1152.75915248384 636.827799255608  1153.67577481049 637.228868703227  1154.59302786716 637.6284919974  L 1154.99244113571 636.711721011329  Z M 1158.66094407079 638.300823584765  C 1157.74298422144 637.90547671268  1156.82564835897 637.508682569899  1155.90893990495 637.110442636415  L 1155.51049061789 638.027633001411  C 1156.428163274 638.426291807192  1157.34646399833 638.823503301515  1158.265389366 639.21926600295  L 1158.66094407079 638.300823584765  Z M 1162.33609676683 639.874486011851  C 1161.41648259511 639.483002666767  1160.49748631898 639.09006943991  1159.57911136618 638.695687796873  L 1159.18452239786 639.614545536721  C 1160.10386330549 640.00934199383  1161.02382619011 640.402688511366  1161.94440762008 640.794583622067  L 1162.33609676683 639.874486011851  Z M 1166.01783423903 641.432680466774  C 1165.09658200576 641.045067570977  1164.17594156584 640.656002207968  1163.25591635315 640.265485828912  L 1162.86519468076 641.185994696187  C 1163.78618758405 641.576921823796  1164.7077963618 641.96639640923  1165.63001757626 642.354416999671  L 1166.01783423903 641.432680466774  Z M 1169.70609138619 642.975379397228  C 1168.78321738112 642.591643804567  1167.86094905636 642.206453184937  1166.93928985185 641.819808975052  L 1166.55244238423 642.741952693131  C 1167.47507099807 643.129003578828  1168.3983093727 643.514599345313  1169.32215406484 643.898738554477  L 1169.70609138619 642.975379397228  Z M 1173.4008029918 644.502555524902  C 1172.47632353339 644.122704020666  1171.55244363151 643.741394955433  1170.62916673215 643.358629751438  L 1170.24620030959 644.282392014793  C 1171.1704483198 644.665559814627  1172.09529996662 645.047269944063  1173.02075180073 645.427520979482  L 1173.4008029918 644.502555524902  Z M 1177.10190372524 646.014181845963  C 1176.1758351603 645.638221146763  1175.25036001755 645.26080037831  1174.32548174889 644.881920948336  L 1173.9464031431 645.807285422818  C 1174.87225420684 646.1865633615  1175.79870277261 646.564381104489  1176.72574538459 646.940737242451  L 1177.10190372524 646.014181845963  Z M 1180.8093281429 647.510231631533  C 1179.88168684638 647.138168385181  1178.95463282718 646.764642587137  1178.02816954311 646.389655630607  L 1177.65298545703 647.316605953735  C 1178.5804232034 647.691987324876  1179.50845230611 648.065906000613  1180.43706930398 648.438360586391  L 1180.8093281429 647.510231631533  Z M 1184.52301068937 648.990678428161  C 1183.59381306399 648.622519213553  1182.66519656071 648.252894990676  1181.73716464314 647.881807138183  L 1181.36588171084 648.810326919438  C 1182.29488974052 649.181805085391  1183.22448297094 649.551818082327  1184.15465793453 649.920364530028  L 1184.52301068937 648.990678428161  Z M 1188.24288569856 650.455496058291  C 1187.3121481746 650.091247385292  1186.38198560721 649.725531273352  1185.45240146578 649.358349086545  L 1185.08502625236 650.288421907655  C 1186.01558813854 650.655990299907  1186.94672905923 651.022091075321  1187.87844554109 651.386722868271  L 1188.24288569856 650.455496058291  Z M 1191.96888739491 651.904658620726  C 1191.03662642984 651.544326930053  1190.10493424566 651.182525395714  1189.17381431748 650.819255367183  L 1188.81035331895 651.750864782414  C 1189.74245260734 652.114516901586  1190.67512475349 652.476698981936  1191.60836627892 652.83740967268  L 1191.96888739491 651.904658620726  Z M 1195.70094989452 653.338140491082  C 1194.76718197276 652.981732154194  1193.83397664617 652.623851594903  1192.90133739546 652.264500148061  L 1192.54179703861 653.197629684509  C 1193.47541724746 653.557359100356  1194.40960412775 653.915616081616  1195.3443541948 654.272399291921  L 1195.70094989452 653.338140491082  Z M 1199.43900720629 654.755916322249  C 1198.50374883893 654.403437641227  1197.56904687104 654.049484385101  1196.63490478893 653.694057874071  L 1196.27929143122 654.628691031954  C 1197.21441605226 654.984491383744  1198.15010114784 655.338816930994  1199.08634322825 655.691666352221  L 1199.43900720629 654.755916322249  Z M 1203.18299323317 656.15796104483  C 1202.24626095762 655.809418252274  1201.31007887602 655.459398557983  1200.3744504802 655.107903267489  L 1200.02277040965 656.044023520436  C 1200.95938290763 656.395888516761  1201.89654967391 656.746276364893  1202.83426721268 657.095185757816  L 1203.18299323317 656.15796104483  Z M 1206.93284177324 657.54424986759  C 1205.994652153 657.199649126503  1205.05700651144 656.853569183167  1204.11990834588 656.506011328417  L 1203.77216778097 657.443602123765  C 1204.7102515947 657.791525542951  1205.64888346013 658.137969496191  1206.58805987655 658.482932691397  L 1206.93284177324 657.54424986759  Z M 1210.68848652094 658.914758277895  C 1209.74885614525 658.574105681575  1208.80976352338 658.231971608648  1207.87121215802 657.888357335231  L 1207.52741724758 658.82740209431  C 1208.46695578959 659.17137778427  1209.40703615728 659.513871716801  1210.34765484454 659.854882614545  L 1210.68848652094 658.914758277895  Z M 1214.44986106819 660.26946204214  C 1213.50880655179 659.932763614076  1212.56828355483 659.59458146124  1211.62829558534 659.254916845012  L 1211.28845240841 660.195398963446  C 1212.22942906549 660.535420841897  1213.17094131294 660.873958697742  1214.11298563874 661.211011268167  L 1214.44986106819 660.26946204214  Z M 1218.21689890563 661.608337206183  C 1217.27443688843 661.275598899943  1216.33250014689 660.941374647004  1215.39109219433 660.605665693982  L 1215.05520676008 661.547568541978  C 1215.99760489389 661.883630596657  1216.94053237271 662.218206389581  1217.88398567982 662.551294672926  L 1218.21689890563 661.608337206183  Z M 1221.98953342373 662.931360095767  C 1221.04568057054 662.602587794895  1220.10234673994 662.272327351673  1219.15953545046 661.94057999793  L 1218.82761369809 662.883886920574  C 1219.77141664486 663.215983209128  1220.71574268222 663.546591023167  1221.66058828822 663.875709129663  L 1221.98953342373 662.931360095767  Z M 1225.76769791404 664.238507316936  C 1224.82247091424 663.91370683485  1223.8777566748 663.587416041075  1222.93355871937 663.259636152634  L 1222.605606518 664.204330470185  C 1223.55079758922 664.532455120422  1224.49650548734 664.859089109701  1225.44272668528 665.184231219817  L 1225.76769791404 664.238507316936  Z M 1229.55132557027 665.529755756451  C 1228.60474113757 665.20893283634  1227.65866319391 664.886617461551  1226.71309526804 664.562810834281  L 1226.38911841657 665.508875842465  C 1227.33568089917 665.83302305242  1228.28275393587 666.155677441332  1229.23033399448 666.476837805839  L 1229.55132557027 665.529755756451  Z M 1233.34034948958 666.805082582202  C 1232.39242436167 666.488242896919  1231.44499944253 666.169908640361  1230.49807826593 665.850080999876  L 1230.17808249299 666.797499970182  C 1231.12599964968 667.117664008219  1232.07442107862 667.436333091525  1233.02334324259 667.753506031602  L 1233.34034948958 666.805082582202  Z M 1237.13470267369 668.064465243603  C 1236.18545361196 667.751614395571  1235.2366984699 667.437266886094  1234.28844078623 667.12142388765  L 1233.97243175004 668.070180067628  C 1234.92168681946 668.386355272509  1235.87143987066 668.701033415504  1236.82168736087 669.014213322803  L 1237.13470267369 668.064465243603  Z M 1240.93431803008 669.307881471999  C 1239.98376181936 668.99902499311  1239.03369323045 668.688669789069  1238.08411580699 668.376817017465  L 1237.77209909529 669.326893631018  C 1238.72267529271 669.639074412135  1239.67374317205 669.949756050487  1240.62529918624 670.258937387364  L 1240.93431803008 669.307881471999  Z M 1244.7391283732 670.535309281057  C 1243.7872818214 670.230452632571  1242.83591658495 669.92409522173  1241.88503621232 669.616238191209  L 1241.57701734225 670.567618438892  C 1242.5288978593 670.875799276171  1243.48126375001 671.18247891641  1244.43411146246 671.487656215825  L 1244.7391283732 670.535309281057  Z M 1248.54906642564 671.746726967152  C 1247.59594636351 671.445875539606  1246.64330130174 671.143521339037  1245.69113479359 670.839665493189  L 1245.38711921161 671.792332552507  C 1246.34028721684 672.0965079966  1247.29393427919 672.399180216019  1248.24805684137 672.700348081735  L 1248.54906642564 671.746726967152  Z M 1252.3640648193 672.942113109755  C 1251.40968810009 672.645272222865  1250.45578005788 672.346926578855  1249.50234425061 672.047077290519  L 1249.20233733237 673.001014316223  C 1250.15677597179 673.301178988672  1251.111687343 673.599838435295  1252.06706788402 673.896991542035  L 1252.3640648193 672.942113109755  Z M 1256.18405609663 674.12144657181  C 1255.22843959582 673.828621474374  1254.27328544035 673.534289662332  1253.3185971928 673.238452233502  L 1253.02260424309 674.193642357888  C 1253.97829664011 674.489790951121  1254.93445543527 674.784432343993  1255.89107706189 675.077565437435  L 1256.18405609663 674.12144657181  Z M 1260.00897271177 675.284706500107  C 1259.05213332677 674.995902369918  1258.09574994726 674.705589594276  1257.13982614043 674.41376925601  L 1256.84785239306 675.370195589215  C 1257.80478164904 675.662322866703  1258.76217096093 675.952940995856  1259.72001675809 676.242048892792  L 1260.00897271177 675.284706500107  Z M 1263.83874703179 676.431872325651  C 1262.88070168163 676.147094269402  1261.92310598904 675.860805663529  1260.96596352575 675.573007575852  L 1260.67801414346 676.530653206153  C 1261.63616333769 676.818754002414  1262.59476623778 677.105343729141  1263.55381926855 677.390421317477  L 1263.83874703179 676.431872325651  Z M 1267.67331133786 677.562923764028  C 1266.71407696287 677.282176817221  1265.75528588961 676.999917443329  1264.79694169425 676.716146695144  L 1264.51302176861 677.674994689262  C 1265.4723739588 677.959063910009  1266.43217349707 678.241620166832  1267.39241680319 678.522662405741  L 1267.67331133786 677.562923764028  Z M 1271.51277315169 678.675446135052  C 1270.75470555199 678.457847463904  1269.99690900577 678.239305605516  1269.23938527347 678.019821067576  C 1269.03713492132 677.961003384007  1268.83490412156 677.902118491969  1268.63269290581 677.843166400673  L 1268.35280745715 678.803199804064  C 1268.55539025481 678.862260225312  1268.75799268987 678.92125327155  1268.9606147266 678.980178932375  C 1269.71909408609 679.199940782168  1270.47784666134 679.418758565303  1271.23687068906 679.636631773268  L 1271.51277315169 678.675446135052  Z M 1275.35780260547 679.77039329049  C 1274.39597092429 679.498677903763  1273.43456830473 679.225445988686  1272.47359833271 678.95069856438  L 1272.19870647448 679.91217371553  C 1273.16068720325 680.187210121616  1274.12310103447 680.460729424406  1275.08594437875 680.732730603788  L 1275.35780260547 679.77039329049  Z M 1279.2074023303 680.849162372417  C 1278.24443658646 680.581493901209  1277.28189352342 680.31230711085  1276.31977673135 680.041603005372  L 1276.04893031751 681.004225579443  C 1277.01205907256 681.275214413901  1277.97561454679 681.544684337276  1278.93959314656 681.812634344558  L 1279.2074023303 680.849162372417  Z M 1283.06150425681 681.911734305825  C 1282.09742147765 681.648117483103  1281.13375499101 681.382980577275  1280.17050839124 681.11632457727  L 1279.90371221095 682.080077552976  C 1280.86797196204 682.34701402413  1281.8326520415 682.612429803268  1282.79774885149 682.876323900505  L 1283.06150425681 681.911734305825  Z M 1286.92004023599 682.958090302104  C 1285.95485746862 682.698529789193  1284.99008459812 682.437447456101  1284.02572522297 682.174844276633  L 1283.76298399377 683.139710612702  C 1284.72835769067 683.402590000526  1285.69414531769 683.663946942294  1286.66034327287 683.923780463256  L 1286.92004023599 682.958090302104  Z M 1290.78294204044 683.988211859378  C 1289.81667635141 683.73271224588  1288.85081415635 683.475689102033  1287.88535905782 683.217143386504  L 1287.62667742556 684.183106021977  C 1288.59314799824 684.441923678158  1289.56002609577 684.699217161244  1290.52730811154 684.954985511478  L 1290.78294204044 683.988211859378  Z M 1294.65014136556 685.002080762833  C 1293.68280984057 684.750646566542  1292.71587539953 684.497687156675  1291.74934164898 684.243203476742  L 1291.49472418772 685.210245331275  C 1292.46227454704 685.464996679402  1293.43022601817 685.718222154183  1294.39857499104 685.969920811194  L 1294.65014136556 685.002080762833  Z M 1298.52156983075 685.999679085036  C 1297.55318957436 685.752314751861  1296.58519998486 685.503423548854  1295.61760467274 685.253006404347  L 1295.36705588467 686.221110378513  C 1296.33566892203 686.471790913969  1297.30467665162 686.720943902967  1298.27407545887 686.968568416118  L 1298.52156983075 685.999679085036  Z M 1302.39715898065 686.980989186254  C 1301.42774711595 686.737699090142  1300.45871949418 686.492880494937  1299.4900797297 686.246534313784  L 1299.24360404507 687.215683289374  C 1300.21326263336 687.462288579603  1301.18330948703 687.707364677192  1302.15374098764 687.950910667962  L 1302.39715898065 686.980989186254  Z M 1306.27684028632 687.945993714766  C 1305.30641395463 687.70678215762  1304.33636543513 687.46604049915  1303.36669834598 687.223769637292  L 1303.12430012303 688.193946477621  C 1304.09498711664 688.436472162123  1305.06605594164 688.67746703477  1306.03750297635 688.916930196755  L 1306.27684028632 687.945993714766  Z M 1310.16054514645 688.894675607169  C 1309.18912150706 688.659546818777  1308.21806924242 688.422886353883  1307.24739197443 688.184695095202  L 1307.0090754993 689.15588264541  C 1307.98077373415 689.394324435747  1308.95284736024 689.631233822232  1309.92529275154 689.866609921147  L 1310.16054514645 688.894675607169  Z M 1314.0482048886 689.827018088682  C 1313.07580111841 689.595976226636  1312.10376227897 689.363401139996  1311.13209199586 689.129293696237  L 1310.8978614825 690.101474783592  C 1311.87055377704 690.335828463638  1312.84361501541 690.568648174784  1313.81704156852 690.799933048711  L 1314.0482048886 689.827018088682  Z M 1317.9397507704 690.743004673437  C 1316.96638406365 690.516053823067  1315.99337583719 690.28756822712  1315.02072972023 690.057548737818  L 1314.79058931035 691.030706172019  C 1315.76425846503 691.260967597838  1316.73829011023 691.489693516976  1317.71268061263 691.716883076241  L 1317.9397507704 690.743004673437  Z M 1321.83511398075 691.642619164777  C 1320.8608015487 691.419763339073  1319.88684114015 691.195371273947  1318.91323638786 690.969443806353  L 1318.68719015085 691.943560379836  C 1319.66181894927 692.169725479946  1320.63680377787 692.394353562604  1321.61214100038 692.617443790044  L 1321.83511398075 691.642619164777  Z M 1325.73422564106 692.525845655539  C 1324.7589847117 692.307088795082  1323.78408934283 692.086794228522  1322.80954317068 691.86496277753  L 1322.58759510354 692.840021265772  C 1323.563166312 693.062086041053  1324.53908708433 693.282612315361  1325.51535378076 693.501599266226  L 1325.73422564106 692.525845655539  Z M 1329.63701680647 693.392668528337  C 1328.6608646242 693.178014501229  1327.6850515333 692.961821328528  1326.70958117341 692.744089816606  L 1326.49173520066 693.720072978427  C 1327.46823156893 693.938033502286  1328.44507102857 694.154454068853  1329.42224993636 694.369333870972  L 1329.63701680647 693.392668528337  Z M 1333.54341846704 694.243072455834  C 1332.56637229238 694.032525057631  1331.58965873396 693.820437101559  1330.6132814348 693.60680937868  L 1330.39954140845 694.583699956551  C 1331.37694566982 694.797552374944  1332.35468654428 695.009863407023  1333.33276038468 695.220632260826  L 1333.54341846704 694.243072455834  Z M 1337.45336154899 695.077042401019  C 1336.47543865827 694.870605354662  1335.49784190279 694.662626365401  1334.52057492885 694.453106208972  L 1334.31094462828 695.43088692932  C 1335.2892395003 695.640627460909  1336.26786450058 695.848825204286  1337.24681597928 696.055479382961  L 1337.45336154899 695.077042401019  Z M 1341.36677691593 695.894563617468  C 1340.38799460098 695.692240573218  1339.40953193449 695.488374228295  1338.43139256601 695.282965343093  L 1338.22587569795 696.261618916604  C 1339.205043882 696.467243852673  1340.18453570427 696.671324626039  1341.16434751105 696.873860475442  L 1341.36677691593 695.894563617468  Z M 1345.28359537008 696.695621649609  C 1344.30397093791 696.497416184983  1343.32465966179 696.297666089202  1342.34566519441 696.096372107309  L 1342.14426539286 697.075881229233  C 1343.12428957521 697.277386933903  1344.10463089968 697.477347128619  1345.08528570941 697.675761067492  L 1345.28359537008 696.695621649609  Z M 1349.20374765345 697.480202332973  C 1348.223298426 697.286117952679  1347.24315585662 697.090487638062  1346.26332360112 696.893312118797  L 1346.06604442726 697.873659469261  C 1347.04690727892 698.071042379466  1348.02808077101 698.266878459796  1349.00956124357 698.461166979744  L 1349.20374765345 697.480202332973  Z M 1353.12716444915 698.248291794448  C 1352.1459077629 698.058331930325  1351.16495123134 697.866824856045  1350.18429851332 697.673771285907  L 1349.99114345548 698.654939530211  C 1350.97282763263 698.848196155788  1351.95481594303 699.03990465892  1352.93710472368 699.230064324495  L 1353.12716444915 698.248291794448  Z M 1357.05377638253 698.999876452523  C 1356.07172958825 698.814044463479  1355.08997643998 698.626664015804  1354.10852059954 698.437735808403  L 1353.91949307312 699.419707597335  C 1354.90198121743 699.608834521082  1355.88476698244 699.796412057186  1356.86784670215 699.982439505947  L 1357.05377638253 698.999876452523  Z M 1360.98351402244 699.734943017528  C 1360.0006944849 699.553242189481  1359.01816207947 699.369991681708  1358.0359204709 699.185192177711  L 1357.85102381834 700.167950147851  C 1358.83429855736 700.352944025606  1359.81786439894 700.536387277862  1360.8017176748 700.718279220453  L 1360.98351402244 699.734943017528  Z M 1364.9163078825 700.453478491868  C 1363.93273297999 700.275912037671  1362.94943869095 700.09679471011  1361.96642868233 699.91612717716  L 1361.785666173 700.899653951183  C 1362.76971012007 701.080511511811  1363.75403864703 701.259817236614  1364.73864808215 701.437570456748  L 1364.9163078825 700.453478491868  Z M 1368.85208842225 701.155470170257  C 1367.86777554675 700.982041229711  1366.88373676049 700.807060249477  1365.89997573381 700.63052788221  L 1365.72335056399 701.614806069201  C 1366.70814631915 701.79152411476  1367.69322012619 701.966689141553  1368.67856831061 702.14030049618  L 1368.85208842225 701.155470170257  Z M 1372.79078604843 701.840905639937  C 1371.80575260465 701.67161727963  1370.82098672135 701.500775740807  1369.83649207157 701.328381660686  L 1369.66400736438 702.313393856441  C 1370.64953751437 702.485969262186  1371.63533918302 702.65699049363  1372.62140869372 702.826456912937  L 1372.79078604843 701.840905639937  Z M 1376.73233111621 702.509772780901  C 1375.74659452171 702.344627994223  1374.76111895419 702.177928917666  1373.77590808934 702.009676172997  L 1373.60756689469 702.995404960334  C 1374.59381401307 703.163834674734  1375.5803261124 703.330709086834  1376.56709951339 703.496027574265  L 1376.73233111621 702.509772780901  Z M 1380.67665393039 703.162059766108  C 1379.69023161517 703.001061473182  1378.7040637888 702.838507806497  1377.71815412958 702.674399372359  L 1377.55395942412 703.660827321424  C 1378.54090607177 703.825108366253  1379.52811115826 703.987833008337  1380.51557100113 704.14900064068  L 1380.67665393039 703.162059766108  Z M 1384.62368474669 703.797755061688  C 1383.63659415285 703.640906109318  1382.64975150526 703.482500726812  1381.66316048472 703.322539505002  L 1381.50311517176 704.30964917358  C 1382.49074389749 704.469778644023  1383.47862451479 704.628350638692  1384.46675333928 704.785364566183  L 1384.62368474669 703.797755061688  Z M 1388.5733537729 704.41684742715  C 1387.58561235438 704.264150588771  1386.59811233512 704.109896291399  1385.61085739835 703.954085110384  L 1385.45496430785 704.941859044204  C 1386.44325764812 705.097834108802  1387.43179632853 705.25225065219  1388.42057666223 705.405108098459  L 1388.5733537729 704.41684742715  Z M 1392.52559117019 705.019325915579  C 1391.53721639244 704.870783891207  1390.54907646267 704.720683406524  1389.56117506652 704.569025021389  L 1389.40943695501 705.557445754436  C 1390.39837743462 705.709263655207  1391.38755669859 705.859522016888  1392.37697105771 706.008220279081  L 1392.52559117019 705.019325915579  Z M 1396.48032705431 705.605179873831  C 1395.49133639397 705.460795290015  1394.50257402618 705.314851272129  1393.51404363891 705.167348364527  L 1393.36646318946 706.156398419347  C 1394.35603332176 706.304056471817  1395.34583567844 706.450153994894  1396.33586656794 706.594690443697  L 1396.48032705431 705.605179873831  Z M 1400.43749149684 706.174398942719  C 1399.44790244143 706.034174352496  1398.45853511912 705.892389382018  1397.46939322013 705.749044560125  L 1397.32597304228 706.738706448138  C 1398.3161553295 706.882202041387  1399.30656327699 707.024136142534  1400.29719319096 707.164508222226  L 1400.43749149684 706.174398942719  Z M 1404.3970145264 706.726973057197  C 1403.40684457403 706.590910940047  1402.41688979138 706.453287524046  1401.42715387088 706.314103322514  L 1401.28789650061 707.304359544322  C 1402.27867343405 707.443690141018  1403.26966945997 707.581458310556  1404.26088088179 707.717663539036  L 1404.3970145264 706.726973057197  Z M 1408.35882612991 707.26289244654  C 1407.36809278896 707.13099520834  1406.37756805057 706.997535780302  1405.38725560925 706.862514660214  L 1405.25216350895 707.853347705907  C 1406.24351756958 707.988510842393  1407.23508415075 708.12211064425  1408.22685955371 708.254146613123  L 1408.35882612991 707.26289244654  Z M 1412.32285625383 707.782147634514  C 1411.33157704266 707.654417607497  1410.34049986316 707.525124527278  1409.34962841194 707.394268876104  L 1409.21870397033 708.385661225575  C 1410.21061762894 708.516654511884  1411.20273723206 708.646083583694  1412.1950590795 708.773947958287  L 1412.32285625383 707.782147634514  Z M 1416.28903480538 708.284729439546  C 1415.29722725209 708.161168882273  1414.30561515571 708.036044436033  1413.31420221547 707.909356567602  L 1413.18744774758 708.901290690853  C 1414.17990346486 709.028111810721  1415.17255854728 709.15336786392  1416.16540929267 709.277058383297  L 1416.28903480538 708.284729439546  Z M 1420.25729165382 708.770628974882  C 1419.26497329552 708.65124007215  1418.27284381657 708.530286472416  1417.28090691746 708.407768626822  L 1417.15832466459 709.400226984277  C 1418.15130489173 709.522873695228  1419.14447790114 709.643954515014  1420.13783998868 709.763468992054  L 1420.25729165382 708.770628974882  Z M 1424.22755663162 709.239837648752  C 1423.2347450148 709.124622511632  1422.24211569609 709.007841897104  1421.24967237785 708.889496240745  L 1421.13126450752 709.882461283556  C 1422.12475168635 710.000931416914  1423.11842506145 710.117834862336  1424.11228092623 710.233171183748  L 1424.22755663162 709.239837648752  Z M 1428.19975953577 709.692347164513  C 1427.20647221553 709.581307830262  1426.21336060892 709.468702265878  1425.22042842013 709.354530891365  L 1425.10619702605 710.347985061727  C 1426.10017358974 710.462276522704  1427.0943297598 710.575000526604  1428.08866182846 710.686156653012  L 1428.19975953577 709.692347164513  Z M 1432.17383012898 710.128149520801  C 1431.18008466882 710.021287952839  1430.18650833472 709.912859429713  1429.1931048326 709.802864355849  L 1429.08305193464 710.796790087305  C 1430.07750030728 710.906900854954  1431.07212169384 711.015443424169  1432.0669123842 711.122417390066  L 1432.17383012898 710.128149520801  Z M 1436.14969814094 710.547237011673  C 1435.15551211247 710.444555099547  1434.16148861949 710.340305534934  1433.1676313696 710.234488706673  L 1433.06175891374 711.228868424431  C 1434.0566615114 711.334796551762  1435.05173052717 711.439155766998  1436.04696224923 711.54194568086  L 1436.14969814094 710.547237011673  Z M 1440.12729326957 710.94960222674  C 1439.13268425217 710.851101786092  1438.13823117684 710.751033023354  1437.14393775277 710.649396311769  L 1437.04224761106 711.644212433009  C 1438.03758684168 711.745956046979  1439.03308589164 711.846130062936  1440.02874104753 711.944734107211  L 1440.12729326957 710.94960222674  Z M 1444.10654518223 711.335238051299  C 1443.11153076279 711.240920823835  1442.11666568922 711.145034632407  1441.12195367226 711.047579834659  L 1441.0244476428 712.042814768843  C 1442.0202059066 712.140372070402  1443.01611738813 712.236359115783  1444.01217837247 712.330775546935  L 1444.10654518223 711.335238051299  Z M 1448.08738351699 711.704137666462  C 1447.09198128955 711.614005319916  1446.09672180915 711.522303395277  1445.10160878799 711.429032234582  L 1445.00828859491 712.424668383768  C 1446.00444828478 712.518037647897  1447.00075458779 712.609836025421  1447.99720378813 712.700063173969  L 1448.08738351699 711.704137666462  Z M 1452.06973788388 712.05629454927  C 1451.07396544933 711.970348677382  1450.07832916048 711.882832641024  1449.08283273091 711.793746766621  L 1448.99370002432 712.78976652577  C 1449.99024352587 712.878946101487  1450.98692703366 712.966554187976  1451.9837468305 713.052590458495  L 1452.06973788388 712.05629454927  Z M 1456.05335355969 712.390587612297  C 1455.49106648125 712.344749335658  1454.92881588003 712.298464690826  1454.36660228832 712.251733721622  C 1453.93289476303 712.215359275351  1453.49921226616 712.178687020111  1453.06555510423 712.14171698182  L 1452.98061146018 713.138102739113  C 1453.41484827207 713.175122193585  1453.84911046059 713.211843382179  1454.28339771738 713.248266278819  C 1454.84626225279 713.29505155175  1455.40916384814 713.341389885387  1455.97210197167 713.387281235957  L 1456.05335355969 712.390587612297  Z M 1460.0388587806 712.707967771271  C 1459.0423346801 712.63049135942  1458.04592004319 712.551613367018  1457.04961782748 712.471334028195  L 1456.9693008464 713.468103400994  C 1457.96653770486 713.548458050803  1458.96388708936 713.627410039522  1459.96134604076 713.7049591329  L 1460.0388587806 712.707967771271  Z M 1464.02552635891 713.010397351805  C 1463.02871867852 712.936659125737  1462.03201520468 712.861518918461  1461.03541889464 712.784976952918  L 1460.95884103928 713.782040557744  C 1461.95637226775 713.858654328183  1462.95401076055 713.93386502535  1463.95175355767 714.007672426093  L 1464.02552635891 713.010397351805  Z M 1468.01330021166 713.297872099429  C 1467.0162229743 713.227873096484  1466.01924468438 713.156471731346  1465.02236829996 713.083668215864  L 1464.94953064759 714.081012026391  C 1465.94734221318 714.153883839686  1466.94525577987 714.225352187264  1467.94326838683 714.295416857077  L 1468.01330021166 713.297872099429  Z M 1472.0021242403 713.570387970056  C 1471.00479147269 713.504129174966  1470.00755239141 713.436467656387  1469.01040995651 713.367403615154  L 1468.94131353177 714.365013601114  C 1469.93939139764 714.434142432131  1470.93756599993 714.50186742473  1471.93583437706 714.568188377969  L 1472.0021242403 713.570387970056  Z M 1475.99194233151 713.82794113003  C 1474.99436806336 713.765423474874  1473.99688222033 713.701502754746  1472.99948776197 713.6361791593  L 1472.9341335369 714.634041286683  C 1473.93246366244 714.699426162943  1474.93088525838 714.763406847832  1475.9293953624 714.825983151518  L 1475.99194233151 713.82794113003  Z M 1479.982698358 714.07052795619  C 1478.98489662302 714.011752320456  1477.98717805009 713.951573297965  1476.98954559947 713.889991067269  L 1476.92793449343 714.888091298516  C 1477.92650283451 714.949731300208  1478.92515737867 715.009966777331  1479.92389516291 715.068797551163  L 1479.982698358 714.07052795619  Z M 1483.97433617926 714.298145035911  C 1482.97632101417 714.243112246434  1481.97838374689 714.186675768156  1480.98052733832 714.128835768527  L 1480.92266021805 715.127160062728  C 1481.92145272717 715.185054322725  1482.92032617085 715.24154374471  1483.91927758542 715.296628161079  L 1483.97433617926 714.298145035911  Z M 1487.96679964242 714.510789167161  C 1486.96858508691 714.459499998121  1485.97044316389 714.406806857985  1484.97237683486 714.352709903095  L 1484.91825451441 715.35124421619  C 1485.91725714092 715.405391920055  1486.91633543233 715.45813449223  1487.91548642436 715.509471776228  L 1487.96679964242 714.510789167161  Z M 1491.96003258294 714.70845735854  C 1490.96163267975 714.660912531465  1489.96330014208 714.611963470718  1488.96503793322 714.561610321592  L 1488.91466117395 715.560340606567  C 1489.91385986425 715.61074099257  1490.91312894873 715.659735972972  1491.91246546253 715.707325402405  L 1491.96003258294 714.70845735854  Z M 1495.9539788255 714.891146829324  C 1494.95540761934 714.847347013037  1493.956898512 714.802142720316  1492.95845446609 714.755534085284  L 1492.9118239767 715.754446292367  C 1493.91120467443 715.801098651494  1494.91065049462 715.846345350881  1495.91015847188 715.890186256278  L 1495.9539788255 714.891146829324  Z M 1499.94858218472 715.058855009504  C 1498.94985372332 715.018800820175  1497.95118209258 714.977341931378  1496.95257025557 714.934478466124  L 1496.90968669203 715.933558542983  C 1497.90923533827 715.976462218947  1498.90884383432 716.017960000803  1499.90850921435 716.058051765427  L 1499.94858218472 715.058855009504  Z M 1503.94378646598 715.211579539824  C 1502.9449147993 715.175271540927  1501.94609469369 715.137558639268  1500.94732911388 715.098440946786  L 1500.90819307947 716.09767483873  C 1501.90789561293 716.136829227976  1502.90765272274 716.174577508526  1503.90746144259 716.210919568381  L 1503.94378646598 715.211579539824  Z M 1507.93953546621 715.34931827181  C 1506.94053464561 715.316756974099  1505.94158011698 715.282790590138  1504.94267484424 715.247419220707  L 1504.9072868895 716.24679287088  C 1505.90712924674 716.282197422599  1506.90702090607 716.316195670814  1507.90695890081 716.348787514652  L 1507.93953546621 715.34931827181  Z M 1511.93577297469 715.472069267805  C 1510.93665705393 715.443255129347  1509.93758215481 715.413035740897  1508.93855124157 715.381411192115  L 1508.90691186433 716.380910541694  C 1509.90687997993 716.412564757828  1510.90689212268 716.442812495433  1511.90694532555 716.471653664765  L 1511.93577297469 715.472069267805  Z M 1515.9324427738 715.579830800992  C 1514.93322580809 715.554764227135  1513.93404459309 715.52829225931  1512.93490209336 715.50041497606  L 1512.90701173871 716.500025964454  C 1513.90709154527 716.527929399697  1514.90721010406 716.55442620119  1515.90736444646 716.579516290283  L 1515.9324427738 715.579830800992  Z M 1519.92948863986 715.672601355422  C 1518.93018468582 715.651282698792  1517.93091121105 715.628558523991  1516.9316711804 715.604428898441  L 1516.90753024069 716.604137463489  C 1517.90770766988 716.628289725318  1518.90791857457 716.651035217928  1519.90815998711 716.672373873834  L 1519.92948863986 715.672601355422  Z M 1523.9268543439 715.750379626033  C 1522.92747745957 715.732809186537  1521.92812578203 715.713833124427  1520.92880227761 715.693451496028  L 1520.90841109245 716.693243574196  C 1521.90867207393 716.713644322839  1522.90896125433 716.732638186603  1523.90927566578 716.750225109133  L 1523.9268543439 715.750379626033  Z M 1527.92448365243 715.813164518668  C 1526.92504789627 715.799342543474  1525.92563207531 715.784114861019  1524.92623915482 715.767481516483  L 1524.90959801106 716.767343043063  C 1525.90992847352 716.78399199153  1526.91028185793 716.799233959248  1527.91065519624 716.813068900996  L 1527.92448365243 715.813164518668  Z M 1531.92232032827 715.860955150092  C 1530.92283976019 715.850881833646  1529.9233738548 715.839402745055  1528.92392557754 715.826517918379  L 1528.91103470929 716.826434827685  C 1529.91142058045 716.839331741765  1530.91182409627 716.85082159902  1531.91224228854 716.86090436536  L 1531.92232032827 715.860955150092  Z M 1535.92030813133 715.893750848005  C 1534.92079681185 715.887426332015  1533.92129488174 715.87969599877  1532.92180530779 715.870559871214  L 1532.91266489639 716.870518096781  C 1533.91309210298 716.879662795043  1534.91353167731 716.887400380203  1535.91398064983 716.893730829294  L 1535.92030813133 715.893750848005  Z M 1539.91839081936 715.911551151048  C 1538.91886280884 715.908975524483  1537.91933891547 715.904994055337  1536.91982210486 715.899606755421  L 1536.91443227889 716.899592230204  C 1537.91488674769 716.904984584007  1538.91534830589 716.908969788216  1539.91581398511 716.911547831005  L 1539.91839081936 715.911551151048  Z M 1543.91651214882 715.914355808814  C 1542.91698150865 715.915529107908  1541.91744971213 715.915296558867  1540.91791972613 715.913658162381  L 1540.91628056141 716.913656818949  C 1541.91674821817 716.915296752435  1542.91721768652 716.915529519633  1543.91768599806 716.914355119853  L 1543.91651214882 715.914355808814  Z M 1547.91461587559 715.902164781847  C 1546.9150966664 715.907086990096  1545.9155710286 715.910603364431  1544.9160419278 715.912713894422  L 1544.9181534474 716.912711665162  C 1545.91862021792 716.910599155259  1546.91908352219 716.907079482172  1547.91954039182 716.902152656344  L 1547.91461587559 715.902164781847  Z M 1551.91264575582 715.874978241647  C 1550.91315203868 715.883649289805  1549.91364662015 715.890914538051  1548.91413246577 715.896773964829  L 1548.91999463998 716.896756782138  C 1549.92044645005 716.890891858565  1550.92088951609 716.883619794706  1551.92132086975 716.874940612138  L 1551.91264575582 715.874978241647  Z M 1555.91054554669 715.832796570663  C 1554.91109138232 715.845216336748  1553.91162024331 715.856230356703  1552.91213509637 715.865838597837  L 1552.92174784272 716.865792394324  C 1553.92217061836 716.856175139586  1554.92257937229 716.845150787257  1555.92297113629 716.832719370045  L 1555.91054554669 715.832796570663  Z M 1559.9082590072 715.775620362293  C 1558.90885845514 715.791788671592  1557.90943565669 715.806551308307  1556.90999357715 715.819908228636  L 1556.92335676041 716.819818937316  C 1557.92373642783 716.806449486709  1558.92409679669 716.791673000989  1559.92443489767 716.775489524017  L 1559.9082590072 715.775620362293  Z M 1563.90572989899 715.703450420869  C 1562.90639701865 715.72336704593  1561.90703661985 715.741878091734  1560.90765166771 715.758983503356  L 1560.9247650999 716.758837057853  C 1561.92508758654 716.741715599447  1562.92538549679 716.723187188219  1563.92565586277 716.703251879143  L 1563.90572989899 715.703450420869  Z M 1567.90290198711 715.616287761652  C 1566.90365083674 715.639952422296  1565.90436689622 715.662211616781  1564.90505313046 715.683065279065  L 1564.92591657083 716.682847613804  C 1565.92616780431 716.66197438846  1566.92638918455 716.639694312369  1567.92657774389 716.616007451636  L 1567.90290198711 715.616287761652  Z M 1571.89971904079 715.514133610815  C 1570.90056367749 715.541545974136  1569.90137025282 715.567553004169  1568.90214173142 715.592154623751  L 1568.92675488647 716.591851674161  C 1569.92692079562 716.567226975517  1570.9270515751 716.541195547991  1571.92714425752 716.513757468818  L 1571.89971904079 715.514133610815  Z M 1575.89612483429 715.396989405425  C 1574.89707931381 715.428149085795  1573.89799046128 715.457903585518  1572.89886124101 715.486252816313  L 1572.92722376449 716.485850519022  C 1573.92729027935 716.457474693489  1574.9273163886 716.427692280728  1575.92729912515 716.396503369104  L 1575.89612483429 715.396989405425  Z M 1579.89206314763 715.264856793424  C 1578.89314152438 715.299763352493  1577.89417129838 715.333264903345  1576.89515543485 715.365361346539  L 1576.92726692777 716.364845639573  C 1577.92721997976 716.332719086331  1578.92712735077 716.299186107304  1579.92698607407 716.264246801983  L 1579.89206314763 715.264856793424  Z M 1583.88747776742 715.117737633603  C 1582.88869409365 715.156390580326  1581.88985654775 715.193638711007  1580.89096809453 715.229481915085  L 1580.92682810516 716.228838738065  C 1581.92665362731 716.192961909059  1582.92642819376 716.155678835495  1583.92614883816 716.116989627991  L 1583.88747776742 715.117737633603  Z M 1587.88231248762 714.955633995584  C 1586.88368081386 714.998032786204  1585.88498999934 715.039026972721  1584.88624300843 715.078616433453  L 1584.9258510323 716.077831727794  C 1585.92553495923 716.038205127734  1586.92516265706 715.997172484101  1587.92473115864 715.954733918689  L 1587.88231248762 714.955633995584  Z M 1591.87651111036 714.778548159778  C 1590.8780454848 714.824692197855  1589.87951545128 714.869431863498  1588.88092397248 714.912767023965  L 1588.9242794524 715.911826733071  C 1589.92380772133 715.868450919394  1590.92327448732 715.823669282957  1591.92267678495 715.777481956629  L 1591.87651111036 714.778548159778  Z M 1595.87001744672 714.586482617367  C 1594.87173191561 714.636371253754  1593.87337670964 714.684855769159  1592.87495479097 714.731936019727  L 1592.92205711703 715.730826089194  C 1593.92141566676 715.683701672102  1594.9207074412 715.635171672817  1595.91992947543 715.585236235328  L 1595.87001744672 714.586482617367  Z M 1599.86277531753 714.379440070256  C 1598.86468392437 714.433072603138  1597.86651759045 714.485301286243  1596.86827927734 714.536125964606  L 1596.91912778693 715.534832342414  C 1597.91830255885 715.483959984836  1598.91740528406 715.431682305404  1599.91643299821 715.377999459228  L 1599.86277531753 714.379440070256  Z M 1603.85472855411 714.157423431045  C 1602.8568453399 714.214799105928  1601.85888191945 714.270771222021  1600.86084125498 714.325339613185  L 1600.91543523276 715.323848249897  C 1601.91441217085 715.269228667488  1602.91331179182 715.213204043334  1603.91213113193 715.15577454366  L 1603.85472855411 714.157423431045  Z M 1607.84582099914 713.920435822982  C 1606.84816000133 713.981553832749  1605.85041353416 714.04126859439  1604.85258455796 714.099579930729  L 1604.91092323595 715.097876779693  C 1605.90968828696 715.03951074082  1606.90837075153 714.979739960076  1607.90696766658 714.918564614802  L 1607.84582099914 713.920435822982  Z M 1611.8359965074 713.668480579923  C 1610.83857176091 713.733340064777  1609.84105628254 713.796796631942  1608.84345303193 713.858850093142  L 1608.90553558942 714.856921110683  C 1609.90407470309 714.794809436419  1610.90252596218 714.73129333992  1611.90088640426 714.666373009639  L 1611.8359965074 713.668480579923  Z M 1615.82519894654 713.40156124628  C 1614.828024483 713.470161293788  1613.83075402569 713.537358773822  1612.83339053479 713.603153486925  L 1612.89921609843 714.600984632545  C 1613.89751522768 714.535128196654  1614.89572123543 714.46786767792  1615.89383115999 714.399203275907  L 1615.82519894654 713.40156124628  Z M 1619.81337219795 713.119681576979  C 1618.81646204502 713.192021222113  1617.81945063843 713.262958669681  1616.82234093757 713.332493709122  L 1616.89190858136 714.330070945699  C 1617.88995368248 714.260470674625  1618.8879003965 714.189466679853  1619.88574576249 714.117059172053  L 1619.81337219795 713.119681576979  Z M 1623.80046015745 712.822845537399  C 1622.8038283391 712.898923762526  1621.80709000923 712.973600179675  1620.81024812518 713.046874567277  L 1620.88355687046 714.04418386126  C 1621.88133390312 713.970840734129  1622.87900728506 713.896094262146  1623.87657405495 713.819944667178  L 1623.80046015745 712.822845537399  Z M 1627.78640673615 712.511057303319  C 1626.79006727284 712.590873038186  1625.79361604102 712.669287374423  1624.7970559972 712.746300079374  L 1624.87410481269 713.743327400981  C 1625.87159974093 713.666242449528  1626.86898575508 713.587754551902  1627.86625989587 713.507863940979  L 1627.78640673615 712.511057303319  Z M 1631.77115586121 712.184321260864  C 1630.77512276929 712.267873382633  1629.77897265283 712.35002453489  1628.78270846867 712.430774473787  L 1628.86349627049 713.427505797203  C 1629.86069506171 713.346680105844  1630.85777967761 713.264451886684  1631.85474715982 713.180821383693  L 1631.77115586121 712.184321260864  Z M 1635.75465147666 711.842642006436  C 1634.75893876753 711.929929339762  1633.76310378073 712.015816152297  1632.76714947091 712.100302189213  L 1632.85167512255 713.096723492787  C 1633.84856374853 713.01215819855  1634.84533293956 712.926190814611  1635.84197973821 712.838821596035  L 1635.75465147666 711.842642006436  Z M 1639.00001306765 711.553144641444  C 1638.25018781964 711.621186856138  1637.5002906935 711.688434638283  1636.75032295225 711.754887874615  L 1636.83858526463 712.750985141057  C 1637.83514970151 712.662681433575  1638.83158944549 712.572976094215  1639.82790154011 712.481869389134  L 1639.00001306765 711.553144641444  Z M 932.669546592413 503.455780043992  C 931.881784929003 502.840561026616  931.094888965636 502.224234320766  930.308861037043 501.606801755094  L 929.691138962957 502.393198244906  C 930.47790427337 503.011210031152  931.265538432869 503.628114920156  932.054039104535 504.243911081553  L 932.669546592413 503.455780043992  Z M 1639.78654185575 719.54021502865  L 1650 711  L 1638.31900200526 704.612176752063  L 1639.78654185575 719.54021502865  Z " fill-rule="nonzero" fill="#1f8aee" stroke="none" />
  </g>
</svg>