<?xml version="1.0" encoding="utf-8"?>
<svg version="1.1" xmlns:xlink="http://www.w3.org/1999/xlink" width="228px" height="10px" viewBox="722 622  228 10" xmlns="http://www.w3.org/2000/svg">
  <g transform="matrix(0.207911690817753 -0.97814760073381 0.978147600733807 0.207911690817761 48.8872808162608 1314.37076407073 )">
    <path d="M 815.071015589334 526.705496164145  C 814.845113552352 525.731287752508  814.619045286399 524.757117890478  814.392810802882 523.782986627206  L 813.418734943282 524.009208243647  C 813.644943693973 524.983228705282  813.870986243788 525.957287751734  814.096862585758 526.931385352959  L 815.071015589334 526.705496164145  Z M 815.973737145743 530.602535248873  C 815.748278411724 529.628224149239  815.522653431211 528.65395152357  815.296862215588 527.679717421024  L 814.322683522563 527.905495794782  C 814.548449055778 528.879619083993  814.77404837058 529.853780882394  814.999481460009 530.827981159936  L 815.973737145743 530.602535248873  Z M 816.874685396912 534.499984682159  C 816.649670012535 533.525571096247  816.424488364176 532.551195908651  816.199140463195 531.576859168536  L 815.224859138438 531.802194252865  C 815.450181407436 532.776420167972  815.675337440514 533.750684516634  815.900327230729 534.724987268796  L 816.874685396912 534.499984682159  Z M 817.773860156311 538.397843657079  C 817.549288168163 537.423327786631  817.324549898578 536.448850238843  817.099645358894 535.474411062883  L 816.125261604119 535.699302811131  C 816.350140562249 536.673631150431  816.574853266989 537.647997847641  816.79939971141 538.622402872705  L 817.773860156311 538.397843657079  Z M 818.671261237775 542.296111366625  C 818.44713269532 541.321493426311  818.222837845097 540.34691369427  817.998376716247 539.37237229712  L 817.023890733189 539.596820662725  C 817.24832633092 540.571251211586  817.47259566674 541.545720081431  817.696698715906 542.520227164748  L 818.671261237775 542.296111366625  Z M 819.566888455509 546.194787003705  C 819.34320339625 545.220067156585  819.119352029638 544.245385519513  818.895334349182 543.270742064218  L 817.920746339597 543.494747000711  C 818.144738536407 544.469279583204  818.368564444992 545.443850372296  818.592224058444 546.418459337924  L 819.566888455509 546.194787003705  Z M 820.460741624079 550.093869761142  C 820.237500103222 549.119048247746  820.014092248769 548.144264829991  819.790518071994 547.169519557063  L 818.81582823766 547.393081018067  C 819.039376984202 548.367715419518  819.26275942515 549.3423879519  819.485975553613 550.317098585148  L 820.460741624079 550.093869761142  Z M 821.352820558429 553.993358831674  C 821.130022616279 553.018435828006  820.907058332073 552.043550883027  820.683927699346 551.068703968458  L 819.709136242061 551.291821907686  C 819.932241492052 552.266557926307  820.155180419116 553.241332000185  820.377953016375 554.21614409925  L 821.352820558429 553.993358831674  Z M 822.243125073857 557.893253407955  C 822.020770762445 556.918229141687  821.798250082838 555.943242819676  821.575563046265 554.968294491119  L 820.60067016785 555.190968862377  C 820.823331875097 556.165806296361  821.045827242119 557.140681709919  821.268156262051 558.115595072976  L 822.243125073857 557.893253407955  Z M 823.131654986044 561.793552682557  C 822.909744348453 560.818427342644  822.687667325421 559.843339871285  822.465423928152 558.86829031768  L 821.490429830446 559.090521074866  C 821.712647948851 560.065459722385  821.934699709766 561.040436273784  822.156585106341 562.015450698989  L 823.131654986044 561.793552682557  Z M 824.018410111022 565.694255847965  C 823.796943193199 564.719029636297  823.57530987272 563.74384121747  823.353510160767 562.768690640691  L 822.378415045633 562.990477737794  C 822.600189529188 563.965517396996  822.821797638022 564.94059488438  823.043239365301 565.915710169868  L 824.018410111022 565.694255847965  Z M 824.903390265202 569.595362096584  C 824.682367112997 568.620035215069  824.461177540956 567.644746050677  824.239821560242 566.669494652618  L 823.264625629562 566.89083804372  C 823.48595643235 567.865978512735  823.707120843224 568.841156734224  823.92811885536 569.816372678107  L 824.903390265202 569.595362096584  Z M 825.786595265358 573.496870620733  C 825.566015924532 572.521443271302  825.345270146726 571.546053563267  825.12435794308 570.570701545842  L 824.149061398757 570.791601185117  C 824.369948474955 571.766842262052  824.590669142077 572.742121015747  824.811223393315 573.717437416118  L 825.786595265358 573.496870620733  Z M 826.668024928633 577.398780612647  C 826.447889444855 576.423252997253  826.227587506986 575.447762947518  826.007119126143 574.472310512663  L 825.031722170102 574.692766354376  C 825.252165473977 575.668107837319  825.472442351652 576.643486921299  825.692552796328 577.61890357623  L 826.668024928633 577.398780612647  Z M 827.547679072536 581.301091264481  C 827.327987491382 580.325463585095  827.108129439063 579.349873395625  826.888104926671 578.374320745297  L 825.912607760856 578.594332743804  C 826.132607246768 579.569774430821  826.352440289386 580.545253643146  826.57210688193 581.520770350687  L 827.547679072536 581.301091264481  Z M 828.425557514945 585.203801768306  C 828.206309881899 584.228074226919  827.986895760648 583.252384099699  827.76731516226 582.276731435875  L 826.791717988637 582.496299545626  C 827.011273611038 583.471841234763  827.230662773088 584.44742037347  827.449885468019 585.423036931652  L 828.425557514945 585.203801768306  Z M 829.301660074105 589.106911316107  C 829.082856434561 588.131084114735  828.863886289803 587.15529425177  828.644749650881 586.179541776448  L 827.669052671437 586.398665951983  C 827.888164381968 587.374307428341  828.107109623828 588.349986317296  828.325888372861 589.325702511204  L 829.301660074105 589.106911316107  Z M 830.175986568629 593.010419099791  C 829.957626967887 592.034492440467  829.739100844961 591.058603043784  829.520408210874 590.082750958982  L 828.544611627616 590.301431154935  C 828.763279386717 591.277172242367  828.981780651454 592.252950627868  829.20011541509 593.22876628134  L 830.175986568629 593.010419099791  Z M 831.048536817497 596.914324311179  C 830.830621300766 595.938298395958  830.612539244913 594.962309667604  830.394290660939 593.986358175362  L 829.418394675895 594.204594346457  C 829.63661843539 595.180434830022  829.854675683569 596.156312535895  830.072566413706 597.132227433974  L 831.048536817497 596.914324311179  Z M 831.919310640056 600.818626142012  C 831.701839252454 599.842501172969  831.484201308826 598.866413315011  831.266396820151 597.890362617389  L 830.290401635369 598.108154718443  C 830.508181350078 599.084094396104  830.725794536552 600.060071220304  830.943241188077 601.036085160939  L 831.919310640056 600.818626142012  Z M 832.788307856025 604.723323783949  C 832.571280645451 603.747099976108  832.354086853353 602.770913164777  832.136726507951 601.794763476783  L 831.160632325499 602.012111462704  C 831.377967947454 602.988150119475  831.595137032922 603.964225885798  831.812139557941 604.940338653985  L 832.788307856025 604.723323783949  Z M 833.655528285487 608.628416428564  C 833.438945291124 607.652093958185  833.222195707032 606.675808447304  833.005279544146 605.699559945182  L 832.029086566114 605.916463770971  C 832.245978056077 606.892601230632  832.462702984069 607.868775685273  832.679261343404 608.844987104779  L 833.655528285487 608.628416428564  Z M 834.520971748892 612.533903267353  C 834.304833015594 611.557482336569  834.088527684359 610.581098328272  833.872055748911 609.604751214142  L 832.89576417741 609.821210834891  C 833.112211484729 610.797446869483  833.328492221857 611.773719862059  833.544606364935 612.750029704908  L 834.520971748892 612.533903267353  Z M 835.38463806706 616.439783491728  C 835.168943645301 615.463264328558  834.953082600248 614.486781973271  834.737054942791 613.510336475136  L 833.760664979949 613.72635184603  C 833.976668065545 614.702686279298  834.192504555573 615.679057555952  834.408174443374 616.655465645876  L 835.38463806706 616.439783491728  Z M 836.246527061181 620.346056293021  C 836.031276992756 619.369439086712  835.815860284305 618.392858612466  835.600276946697 617.416314919556  L 834.623788794667 617.631885995871  C 834.839347610952 618.608318612745  835.054739814922 619.584787997197  835.269965399932 620.561294119108  L 836.246527061181 620.346056293021  Z M 837.106638552809 624.252720862481  C 836.891832882283 623.276005815231  836.676860555034 622.299327424215  836.46172158191 621.322685738714  L 835.48513544286 621.537812475819  C 835.700249942357 622.514343061202  835.91519782137 623.490910377158  836.129979056183 624.467514315945  L 837.106638552809 624.252720862481  Z M 837.964972363865 628.159776391278  C 837.750611135711 627.182963705304  837.536083234173 626.206187599729  837.321388670074 625.229448123839  L 836.344704746198 625.444130477195  C 836.559374890067 626.420758854779  836.773878388229 627.397423848306  836.988215234069 628.374125427647  L 837.964972363865 628.159776391278  Z M 838.821528316644 632.067222070499  C 838.607611575243 631.09031194804  838.393528143832 630.113438330137  838.179278033209 629.136601266081  L 837.202496526717 629.350839191239  C 837.416722267665 630.327565145889  837.63078134626 631.304327640651  837.844673755905 632.281126645395  L 838.821528316644 632.067222070499  Z M 839.676306233806 635.975057091151  C 839.462834023447 634.998049734465  839.249195106484 634.021078806485  839.035389493695 633.044144356506  L 838.058510606819 633.257937809111  C 838.272291900491 634.234761138607  838.485906515204 635.211620932377  838.699354444369 636.188517160288  L 839.676306233806 635.975057091151  Z M 840.529305938378 639.883280644162  C 840.316278303258 638.906176255527  840.103083944973 637.92910821974  839.889722874284 636.952076586102  L 838.912746809276 637.16542552189  C 839.126083611413 638.142346023991  839.339253718017 639.119302914522  839.552257122511 640.096296163345  L 840.529305938378 639.883280644162  Z M 841.380527253753 643.791891920377  C 841.167944237977 642.814690702091  840.955194482515 641.837525760789  840.742277998099 640.860397145775  L 839.765204957231 641.073301520575  C 839.978097223663 642.050318993021  840.19082277802 643.027372778044  840.403381613743 644.004462845504  L 841.380527253753 643.791891920377  Z M 842.229970003699 647.700890110562  C 842.017831654089 646.723592277888  841.805526539872 645.746330607496  841.593054688627 644.769105226351  L 840.615884874191 644.981564996083  C 840.828332560841 645.958679236595  841.040613518909 646.935829713821  841.252727741853 647.913016397622  L 842.229970003699 647.700890110562  Z M 843.077634012347 651.610274405403  C 842.865940367206 650.632880134792  842.654079949434 649.655521989412  842.44205276972 648.678200018576  L 841.464786384028 648.890215139254  C 841.676789446911 649.867425945529  841.888625764744 650.844672912651  842.100295330992 651.821956010477  L 843.077634012347 651.610274405403  Z M 843.923519104198 655.520043995505  C 843.712270210163 654.54255350226  843.500854527077 653.565099058357  843.289272065607 652.587680713116  L 842.311909310991 652.799251140843  C 842.523467706214 653.776558310561  842.734859339951 654.753901565253  842.946084205681 655.731280874768  L 843.923519104198 655.520043995505  Z M 844.767625104122 659.430198071395  C 844.55682100493 658.452611557894  844.345850100302 657.47506101784  844.134712400881 656.497546500557  L 843.157253479692 656.70867219153  C 843.368367160659 657.686075509404  843.579314072123 658.663514875211  843.79009419081 659.640990181113  L 844.767625104122 659.430198071395  Z M 845.609951837353 663.340735823519  C 845.39959257665 662.36305349216  845.189066494158 661.385407058345  844.9783736005 660.407796571404  L 844.000818715112 660.618477481913  C 844.211487643706 661.595976771476  844.421989778044 662.57351199424  844.632325111633 663.551083120049  L 845.609951837353 663.340735823519  Z M 846.450499129499 667.251656442244  C 846.240584750836 666.273878495445  846.030503534069 665.296136370281  845.820255489796 664.318430116085  L 844.842604842599 664.528666202509  C 845.052828972407 665.506261248435  845.262886291626 666.483892151663  845.472776793777 667.461558882036  L 846.450499129499 667.251656442244  Z M 847.289266806535 671.162959117858  C 847.079797353372 670.185085758058  846.870161045824 669.207248143975  846.660357894465 668.229446324946  L 845.682611687871 668.43923754376  C 845.892390975369 669.416928143648  846.10200343598 670.394654524932  846.311449063238 671.372416657455  L 847.289266806535 671.162959117858  Z M 848.126254694801 675.07464304057  C 847.91723020774 674.096674457274  847.708038858354 673.118741582624  847.498680640574 672.140844388255  L 846.520839077015 672.350190696023  C 846.73017347877 673.327976647453  846.939341037374 674.305798304368  847.148341746376 675.283655636605  L 848.126254694801 675.07464304057  Z M 848.961462621011 678.986707400509  C 848.752883148864 678.008643822098  848.544136789867 677.030615837546  848.335223554557 676.052623496202  L 847.357286836483 676.261524849581  C 847.566176306388 677.23940593716  847.774898925212 678.217322693167  847.983454669922 679.195275009708  L 848.961462621011 678.986707400509  Z M 849.794890412241 682.899151387726  C 849.586755995423 681.920993003745  849.378454675579 680.942870137684  849.169986463219 679.964782838896  L 848.191954793102 680.173239194636  C 848.400399293443 681.151215241812  848.608676918208 682.129226842626  848.816787660975 683.107273966908  L 849.794890412241 682.899151387726  Z M 850.626537895942 686.811974192193  C 850.418848577545 685.83372120516  850.210992339979 684.855503660099  850.00296919373 683.877321606369  L 849.02484277406 684.085332921311  C 849.232842258913 685.063403712651  849.440674852032 686.041509981694  849.648340547004 687.019651698269  L 850.626537895942 686.811974192193  Z M 851.456404899931 690.725175003804  C 851.249160722955 689.746827616255  851.0417496107 688.768515594723  850.834171573631 687.790238988573  L 849.855950606918 687.99780521965  C 850.063505033221 688.975970552656  850.270892551662 689.954171287423  850.478113155845 690.932407393777  L 851.456404899931 690.725175003804  Z M 852.28449125239 694.638753012376  C 852.077692259742 693.660311426866  851.870726315741 692.681905131412  851.663593430829 691.703534175381  L 850.685278119603 691.91065527962  C 850.892387444382 692.888914951774  851.099329845209 693.867209949739  851.306105315701 694.845540243339  L 852.28449125239 694.638753012376  Z M 853.110796781877 698.552707407645  C 852.904443013641 697.57417181379  852.697922286213 696.5956714729  852.491234593605 695.617206356593  L 851.512825140415 695.823882291111  C 851.719489320791 696.802236099875  851.925986561159 697.780625158493  852.132316855149 698.759049436787  L 853.110796781877 698.552707407645  Z M 853.935321317311 702.467037379271  C 853.729412821676 701.488408005585  853.523337342639 700.509813770011  853.317094890602 699.531254721924  L 852.338591498017 699.737485443931  C 852.544810491202 700.715933186747  852.750862528358 701.694416103454  852.956747603127 702.67293416387  L 853.935321317311 702.467037379271  Z M 854.758064687987 706.381742116836  C 854.552601504849 705.403019152974  854.34697132234 704.424331251239  854.141174150836 703.445678461014  L 853.162577021444 703.651463927813  C 853.368350784744 704.630005402105  853.573957576027 705.608581974318  853.77939738895 706.587193614264  L 854.758064687987 706.381742116836  Z M 855.579026723563 710.296820809844  C 855.374008895462 709.31800445844  855.168824052054 708.339223093172  854.963472203691 707.360476763427  L 853.9847815401 707.565816932412  C 854.190110028191 708.54445192262  854.395271536468 709.523121973663  854.600266042294 710.501826977565  L 855.579026723563 710.296820809844  Z M 856.398207254069 714.212272647723  C 856.193634820743 713.233363098465  855.988895364339 712.254488498237  855.78398887892 711.275648818647  L 854.805204883756 711.480543647305  C 855.010088059568 712.459271976742  855.214804231492 713.438035252135  855.419353393211 714.416833443291  L 856.398207254069 714.212272647723  Z M 857.215606109902 718.128096819821  C 857.011479119124 717.14909430131  856.807185081268 716.170126616931  856.602724006644 715.191193816082  L 855.623846882553 715.395643261991  C 855.828284698238 716.374464702091  856.032555502272 717.353321051055  856.236659272115 718.332212200885  L 857.215606109902 718.128096819821  Z M 858.031223121828 722.044292515411  C 857.827541610453 721.065197204407  857.623693044265 720.086136690424  857.419677417351 719.107110945062  L 856.440707367 719.311114965894  C 856.644699782946 720.290029326969  856.848525171372 721.26897852091  857.052183509792 722.247962439712  L 858.031223121828 722.044292515411  Z M 858.845058120985 725.960858923689  C 858.641822133886 724.981671035869  858.438419076158 724.002517869053  858.234848941902 723.02339939484  L 857.255786167975 723.226957948358  C 857.459333144643 724.205965040703  857.662713069876 725.185006851003  857.865925937399 726.164083349059  L 858.845058120985 725.960858923689  Z M 859.657110938874 729.877795233774  C 859.454320520815 728.898514984837  859.251363008286 727.919269341973  859.048238411525 726.940058354593  L 858.069083116726 727.143171398652  C 858.272184609272 728.122271006607  858.475119034602 729.101405256503  858.677886386457 730.080574118137  L 859.657110938874 729.877795233774  Z M 860.467381407375 733.795100634708  C 860.26503659765 732.815728214434  860.062524677723 731.8363903242  859.859845657815 730.85708701342  L 858.880598044867 731.059754505968  C 859.083254011242 732.038946426822  859.285742894657 733.018172913595  859.488064688864 733.997433936081  L 860.467381407375 733.795100634708  Z M 861.275869358724 737.712774315456  C 861.073970199226 736.733309926614  860.871903913831 735.753879991771  860.669670512738 734.774484560345  L 859.690330784384 734.976706459422  C 859.89254118263 735.955990490443  860.094584482206 736.935309011355  860.296460676876 737.914661991949  L 861.275869358724 737.712774315456  Z M 862.082574625535 741.630815464908  C 861.881121160732 740.651259323259  861.679500546367 739.671737520641  861.477712808633 738.692250184314  L 860.498281167633 738.894026448052  C 860.700045955885 739.873402386491  860.901643629787 740.852812738785  861.103074183125 741.832257474722  L 862.082574625535 741.630815464908  Z M 862.88749704079 745.549223271879  C 862.686489307056 744.569575554281  862.485314416142 743.589962138577  862.283972378199 742.610383074197  L 861.304449027334 742.811713660821  C 861.505768161151 743.791181290934  861.706920172975 744.770683297786  861.907905040613 745.750219573307  L 862.88749704079 745.549223271879  Z M 863.690636437836 749.467996925104  C 863.490074479455 748.488257847357  863.289345348305 747.508552995441  863.088449054511 746.52888241879  L 862.10883419658 746.729767286616  C 862.309707639616 747.709326431567  862.510413937053 748.688919838278  862.710953082705 749.668547476533  L 863.690636437836 749.467996925104  Z M 864.491992650395 753.387135613248  C 864.291876508891 752.407305378194  864.091593179062 751.427509292903  863.89114267101 750.447747406811  L 862.911436508832 750.648186514249  C 863.111864216831 751.627836958254  863.312124763659 752.607521587963  863.512218143142 753.587240373155  L 864.491992650395 753.387135613248  Z M 865.291565512554 757.306638524894  C 865.091895229358 756.326717335397  864.892057742315 755.346830219586  864.692053061507 754.366977226903  L 863.712255797919 754.566970532453  C 863.912237729384 755.546712072687  864.112052484143 756.526487722561  864.311700056031 757.506297451851  L 865.291565512554 757.306638524894  Z M 866.08935485877 761.226504848554  C 865.890130475223 760.246492907496  865.690738872341 759.266514964041  865.491180060186 758.286571067633  L 864.511291898043 758.48611852989  C 864.710828011571 759.465950963508  864.910196932889 760.445817430694  865.109398655848 761.425717901223  L 866.08935485877 761.226504848554  Z M 866.885360523869 765.146733772665  C 866.686582081217 764.166631282947  866.48763640378 763.186562714739  866.288523501594 762.206528117493  L 865.308544643772 762.405629695142  C 865.50763489805 763.385552819282  865.706557944649 764.365509900911  865.905313777436 765.345500909802  L 866.885360523869 765.146733772665  Z M 867.679582343049 769.067324485586  C 867.481249885074 768.087131663108  867.282750169013 767.106972647098  867.08408322065 766.126847564901  L 866.104013870043 766.32550321672  C 866.302658223853 767.305516828499  866.501135354549 768.285564321682  866.699445256012 769.265645666038  L 867.679582343049 769.067324485586  Z M 868.472020151873 772.988276175604  C 868.274133714385 772.00799319734  868.07608001131 771.027743988384  867.87785905264 770.047528598197  L 866.89769941216 770.245738283058  C 867.095897824374 771.225842179575  867.293928998077 772.205979881404  867.49179292716 773.18615135831  L 868.472020151873 772.988276175604  Z M 869.262673786278 776.909588030928  C 869.065233412873 775.929215112818  868.867625758532 774.948875887902  868.669850833227 773.968570405649  L 867.689601105804 774.166334082514  C 867.887353535388 775.14652806085  868.084938711096 776.126755768398  868.282356626833 777.107017174921  L 869.262673786278 776.909588030928  Z M 870.051543082567 780.831259239696  C 869.854548811514 779.850796571728  869.657387252041 778.870367559792  869.460058398434 777.889972175449  L 868.479718787019 778.087289803374  C 868.677025190416 779.067573647604  868.874164332445 780.047891183899  869.071136191354 781.0282423041  L 870.051543082567 780.831259239696  Z M 870.838627877413 784.753288989969  C 870.642079754715 783.772736801109  870.445364320489 782.792218153199  870.248481584661 781.811733095716  L 869.268052292221 782.008604633847  C 869.464912633809 782.988978166987  869.661605690896 783.96938527712  869.858131457414 784.949825934002  L 870.838627877413 784.753288989969  Z M 871.623928007859 788.675676469735  C 871.4278260716 787.695034950009  871.231556808569 786.714426895101  871.035120228669 785.733852354491  L 870.054601458192 785.93027776207  C 870.2510156946 786.910740768159  870.447262631245 787.891237275118  870.643342262076 788.871767252705  L 871.623928007859 788.675676469735  Z M 872.407443311317 792.598420866908  C 872.211787602099 791.617690219347  872.015964550898 790.636992960465  871.819974167596 789.656329139745  L 870.839366122087 789.852308376103  C 871.035334212648 790.832860652146  871.231134988222 791.813446352934  871.426768442768 792.794065448217  L 872.407443311317 792.598420866908  Z M 873.18917362557 796.521521369327  C 872.993964183899 795.540701796981  872.798587385073 794.559915537167  872.603043238947 793.579162639373  L 871.62234612143 793.774695663934  C 871.817868025572 794.75533700692  872.013222599535 795.736011698515  872.208409837292 796.716719708469  L 873.18917362557 796.521521369327  Z M 873.969118788768 800.444977164759  C 873.774355657641 799.464068883686  873.579425146477 798.483193800019  873.384327280596 797.502352041195  L 872.403541294113 797.697438813477  C 872.598616971356 798.678169020374  872.793525303261 799.65893249974  872.988266283819 800.639729221321  L 873.969118788768 800.444977164759  Z M 874.747278639435 804.368787440896  C 874.552961851443 803.387790615208  874.358477683773 802.406826988713  874.163826130785 801.42589653296  L 873.182951478397 801.620537012572  C 873.377580888352 802.601355880332  873.572042937849 803.582207944412  873.766337620888 804.563093174556  L 874.747278639435 804.368787440896  Z M 875.523653016459 808.292951385356  C 875.32978261956 807.311866257133  875.135744820186 806.330814212961  874.941539628129 805.349795302341  L 873.960576512916 805.543989448986  C 874.154759615287 806.52489677454  874.348775342113 807.505837220259  874.542623687408 808.486810755885  L 875.523653016459 808.292951385356  Z M 876.298241759101 812.217468185687  C 876.10481779086 811.236294945059  875.911226405107 810.255154712308  875.717467611613 809.27404753694  L 874.736416236671 809.467795310411  C 874.930152988689 810.448790877679  875.123722357803 811.429819527937  875.317124322657 812.410881152949  L 876.298241759101 812.217468185687  Z M 877.071044706991 816.142337029361  C 876.878067207453 815.161075879468  876.684922275404 814.179847661273  876.491609920587 813.198652424283  L 875.510470489033 813.391953784468  C 875.703760855719 814.373037416336  875.896883816788 815.354154016038  876.089839366283 816.335303553311  L 877.071044706991 816.142337029361  Z M 877.842061700129 820.067557103776  C 877.649530709249 819.086208247779  877.456832270891 818.104892247291  877.263966394776 817.123609151826  L 876.282739109743 817.316464058703  C 876.475583048512 818.297635539053  876.66825956668 819.278839911063  876.860768658305 820.260077144464  L 877.842061700129 820.067557103776  Z M 878.611292578888 823.993127596262  C 878.419208136527 823.011691237337  878.226956231754 822.030287657728  878.03453687427 821.04891690695  L 877.05322193891 821.241325320591  C 877.245619409837 822.222584446283  877.437849445214 823.203876387452  877.629912039112 824.185201113828  L 878.611292578888 823.993127596262  Z M 879.378737184 827.919047694071  C 879.187099329928 826.937524035415  878.995293998545 825.956033079872  878.803321199531 824.974574876964  L 877.821918817015 825.166536757533  C 878.013869780265 826.147883325408  878.205653293052 827.129262632571  878.397269349458 828.11067464875  L 879.378737184 827.919047694071  Z M 880.144395356579 831.845316584388  C 879.953204130471 830.863705829213  879.76184541219 829.882127700943  879.570319211393 828.900582249105  L 878.588829584909 829.092097556859  C 878.78033400074 830.07353136374  878.971670951229 831.054997833713  879.162840430472 832.036496936503  L 880.144395356579 831.845316584388  Z M 880.908266938105 835.771933454321  C 880.717522379545 834.790235805859  880.526610313983 833.808570708088  880.335530751055 832.826938210537  L 879.353954083809 833.018006905824  C 879.545011910043 833.999527735515  879.735902263679 834.981081191102  879.926625123653 835.962667164292  L 880.908266938105 835.771933454321  Z M 881.670351770425 839.698897490909  C 881.480053916385 838.717113139407  881.289588548114 837.73536130138  881.098955660091 836.753641948352  L 880.117292155308 836.944263991614  C 880.307903354924 837.925871653901  880.498347067115 838.90751186588  880.688623270866 839.889184519246  L 881.670351770425 839.698897490909  Z M 882.430649695757 843.626207881117  C 882.240798590676 842.644337055848  882.050779949041 841.662498628818  881.860593780442 840.680692649569  L 880.878843641364 840.870868001339  C 881.069008177418 841.852562305998  881.2590052037 842.834289045121  881.448834714346 843.816048188424  L 882.430649695757 843.626207881117  Z M 883.189160556691 847.553863811841  C 882.999756237356 846.571906703087  882.810184366743 845.589981916338  882.620444954418 844.608089501138  L 881.638608384305 844.797818122043  C 881.828326214901 845.779598852821  882.017876520983 846.761411941839  882.207259296703 847.743257358813  L 883.189160556691 847.553863811841  Z M 883.945884196187 851.481864469903  C 883.756926701812 850.499821280967  883.567801641469 849.517810337795  883.378509024701 848.535831689935  L 882.396586226833 848.725113540693  C 882.585857312691 849.706980494323  882.774960859329 850.688879729964  882.963896860913 851.670811217329  L 883.945884196187 851.481864469903  Z M 884.700820457571 855.410209042054  C 884.512309824781 854.428079963251  884.323631618862 853.445983092983  884.134785834342 852.463918402764  L 883.152777012014 852.652753444187  C 883.341601313948 853.634706417385  883.530258061991 854.616691596357  883.718747250322 855.598708950814  L 884.700820457571 855.410209042054  Z M 885.453969184545 859.338896714975  C 885.265905457361 858.356681975658  885.077674134934 857.374499329599  884.889275226762 856.392348826359  L 883.907180583288 856.580737019351  C 884.095558062204 857.562775808814  884.283767972593 858.544846727809  884.471810308646 859.526949746043  L 885.453969184545 859.338896714975  Z M 886.205330221176 863.267926675275  C 886.017713436039 862.285626465792  885.829929041074 861.303358273308  885.641977045756 860.321122147383  L 884.659796784467 860.509063452941  C 884.847727401364 861.491187855349  885.03549043513 862.473344311039  885.223085879973 863.455532789716  L 886.205330221176 863.267926675275  Z M 886.954903411905 867.197298109493  C 886.767733607659 866.21491263322  886.580396179032 865.232559097675  886.39289113548 864.250237552428  L 885.410625459726 864.437731931639  C 885.598109173211 865.419941730643  885.785425296446 866.402183545708  885.972573808761 867.384457268465  L 886.954903411905 867.197298109493  Z M 887.702688601538 871.127010204096  C 887.515965814461 870.144539651412  887.329075395911 869.162101002216  887.142017340468 868.179694228013  L 886.159666453617 868.36674164206  C 886.346703229841 869.349036660326  886.533572393835 870.331363579357  886.720273939833 871.31372236885  L 887.702688601538 871.127010204096  Z M 888.448685635258 875.057062145482  C 888.262409908955 874.074506745819  888.075966529275 873.09198313433  887.889355505625 872.10949136059  L 886.90691961106 872.296091770746  C 887.093509408816 873.278471791891  887.279931579843 874.260883637531  887.46618611839 875.243327277361  L 888.448685635258 875.057062145482  Z M 889.192894358612 878.987453119976  C 889.007065729176 878.004813063752  888.821069431916 877.022204719412  888.634905476218 876.039628136537  L 887.652384777342 876.225781504169  C 887.838527555532 877.208246311787  888.024502699923 878.19074290667  888.210310189997 879.173271180417  L 889.192894358612 878.987453119976  Z M 889.935314617522 882.918182313836  C 889.749933123427 881.935457804494  889.564383947096 880.952764930742  889.378667097891 879.970103742164  L 888.396061798125 880.155810028731  C 888.581757523142 881.138359445443  888.767285592539 882.120940534092  888.952646000592 883.103553264367  L 889.935314617522 882.918182313836  Z M 890.675946258276 886.849248913249  C 890.491011940353 885.866440167267  890.305909918465 884.883662941526  890.12064021666 883.90091736371  L 889.137950519439 884.086176530763  C 889.323199150372 885.06881034013  889.508280111288 886.051475745143  889.693193396482 887.034172715491  L 890.675946258276 886.849248913249  Z M 891.414789127537 890.780652104331  C 891.230302019175 889.797759299156  891.045647199858 888.814897976963  890.860824678902 887.832068187344  L 889.878050787683 888.016880196528  C 890.062852286177 888.999598195105  890.247486100296 889.982347713032  890.431952224347 890.965128719997  L 891.414789127537 890.780652104331  Z M 892.151843072335 894.712391073129  C 891.967803214179 893.729414425275  891.78359563076 892.746469184088  891.599220331372 891.763555399166  L 890.616362449627 891.947920212217  C 890.800716774979 892.930722183524  890.984903408955 893.913555636939  891.168922331234 894.896420464025  L 892.151843072335 894.712391073129  Z M 892.88710794007 898.64446500562  C 892.703515367793 897.661404705582  892.519755063278 896.678375774948  892.335827021195 895.695378185204  L 891.352885352413 895.879295763952  C 891.53679247134 896.86218153055  891.720531877279 897.845098663888  891.904103564561 898.828047133646  L 892.88710794007 898.64446500562  Z M 893.620583578514 902.576873087713  C 893.437438334989 901.593729365062  893.25412533769 900.610616896429  893.070644595865 899.62753573142  L 892.087619343553 899.811006037786  C 892.271079215536 900.79397538316  892.454371360275 901.776976018959  892.637495772117 902.760007914861  L 893.620583578514 902.576873087713  Z M 894.352269835811 906.509614505248  C 894.169571956525 905.526387550511  893.986706309262 904.543191773461  893.803672903246 903.560027223704  L 892.820564270929 903.743050219703  C 893.003576857984 904.726102940341  893.186421703575 905.709186875081  893.369098802064 906.692301993599  L 894.352269835811 906.509614505248  Z M 895.082166560472 910.442688443992  C 894.899916083251 909.459378460738  894.717497823882 908.476099578828  894.53491179157 907.492851847878  L 893.55171998279 907.675427495617  C 893.734285247027 908.658563387987  893.916682755616 909.641730418133  894.098912502929 910.624928555726  L 895.082166560472 910.442688443992  Z M 895.81027360138 914.376094089649  C 895.628470563957 913.39270128146  895.446499730251 912.409339498268  895.264361109445 911.426008789694  L 894.28108632776 911.608137051373  C 894.463204231381 912.591355911929  894.645154365203 913.574605833926  894.826936723612 914.557886787033  L 895.81027360138 914.376094089649  Z M 896.536590807788 918.30983062785  C 896.355235247803 917.326355198326  896.173711877435 916.342910717448  895.992020705846 915.359497234836  L 895.008663154833 915.541178072748  C 895.190333660132 916.524479697926  895.371836381516 917.507812308203  895.553171313385 918.491175873247  L 896.536590807788 918.30983062785  Z M 897.261118029323 922.24389724416  C 897.080209986719 921.260339409945  896.899134112475 920.276812408938  896.71789043012 919.293316368921  L 895.73445031337 919.47454974545  C 895.915673382735 920.457933931667  896.096728654105 921.441349026637  896.277616121891 922.424795000023  L 897.261118029323 922.24389724416  Z M 897.983855115976 926.178293124074  C 897.803394623416 925.19465306275  897.622766292381 924.211043797347  897.441970131983 923.227465377494  L 896.458447653108 923.408251255118  C 896.639223249018 924.391717798777  896.819831032884 925.375215174833  897.000270999137 926.358743352951  L 897.983855115976 926.178293124074  Z M 898.517394080955 929.089226324826  C 898.399754196551 928.446785575194  898.282042725612 927.804357960972  898.164259661521 927.161943446034  L 897.180655024148 927.342281787324  C 897.360983109176 928.325830484808  897.541143368148 929.30940993833  897.721135795508 930.29302011755  L 898.517394080955 929.089226324826  Z M 814.166520914585 522.808868234812  C 813.940175624408 521.834762725774  813.713664113821 520.860695803271  813.486986412252 519.886667593856  L 812.513013587748 520.113332406144  C 812.739665509079 521.087249838542  812.96615124711 522.061205931379  813.192470794854 523.035200654609  L 814.166520914585 522.808868234812  Z M 890.663569202008 930.508895746315  L 900 940  L 905.424532060299 927.841692061525  L 890.663569202008 930.508895746315  Z " fill-rule="nonzero" fill="#1f8aee" stroke="none" />
  </g>
</svg>