<?xml version="1.0" encoding="utf-8"?>
<svg version="1.1" xmlns:xlink="http://www.w3.org/1999/xlink" width="224px" height="8px" viewBox="812 830  224 8" xmlns="http://www.w3.org/2000/svg">
  <g transform="matrix(-0.224951054343876 -0.974370064785234 0.974370064785233 -0.224951054343865 319.230140182857 1921.92711918434 )">
    <path d="M 1003.55946944395 526.868119277679  C 1003.83341133222 525.906453757139  1004.10757721442 524.944852060206  1004.38196706939 523.98331426114  L 1003.42035461338 523.708903101646  C 1003.14592214736 524.670590221614  1002.87171368631 525.63234125839  1002.59772925656 526.594156119665  L 1003.55946944395 526.868119277679  Z M 1002.4648966242 530.715121404755  C 1002.73824113107 529.753285913567  1003.01180967147 528.791514106847  1003.28560222429 527.829806058859  L 1002.32381950614 527.555992247893  C 1002.04998443321 528.51784964959  1001.77637341036 529.479770809836  1001.50298645296 530.441755674524  L 1002.4648966242 530.715121404755  Z M 1001.37271354102 534.56280267226  C 1001.64546056103 533.600797581515  1001.91843165409 532.638856036071  1002.19162679912 531.676978110202  L 1001.2296741899 531.403761753405  C 1000.95643661935 532.365789052994  1000.683423133 533.327879991065  1000.41063375705 534.290034475278  L 1001.37271354102 534.56280267226  Z M 1000.28292061579 538.4111615957  C 1000.55507004372 537.448987276555  1000.82744358412 536.486876363511  1001.10004121596 535.524828930869  L 1000.13791908681 535.252210133652  C 999.865279122232 536.214406966338  999.592863281341 537.176667298311  999.320671590287 538.138991037205  L 1000.28292061579 538.4111615957  Z M 999.195518268981 542.260196690323  C 999.467069999818 541.297853513997  999.738845882474 540.335573604556  1000.01084589596 539.373357036311  L 999.048554618074 539.101335903854  C 998.77651236466 540.063701898408  998.504694274332 541.026131253025  998.233100373184 541.988623875322  L 999.195518268981 542.260196690323  Z M 998.110506920118 546.109906471116  C 998.3814608491 545.147394808896  998.652638969155 544.184946274317  998.92404125934 543.222560941707  L 997.961581203985 542.951137578959  C 997.690136766694 543.913672364087  997.418916531802 544.876270370029  997.147920525344 545.838931504386  L 998.110506920118 546.109906471116  Z M 997.027886987817 549.960289452805  C 997.298243010405 548.99760967604  997.568823263234 548.034992887652  997.839627725409 547.072439161978  L 996.876999263915 546.801613673659  C 996.606152745682 547.764316884375  996.33553047445 548.727083157508  996.065132465446 549.689912438891  L 997.027886987817 549.960289452805  Z M 995.947658889768 553.811344149856  C 996.217416901655 552.848496629963  996.487399182864 551.885711959156  996.757605712547 550.922990211786  L 995.794809216312 550.652762702384  C 995.524560725219 551.615633954514  995.25453651489 552.578568148889  994.984736611244 553.541565193074  L 995.947658889768 553.811344149856  Z M 994.869823042738 557.663069076474  C 995.138982939849 556.700054184932  995.408367145276 555.737102003167  995.677975638217 554.774212605533  L 994.715011478701 554.504583179306  C 994.44536111722 555.467622107736  994.175935075558 556.430723839082  993.906733379572 557.393888280908  L 994.869823042738 557.663069076474  Z M 993.794379862572 561.515462746613  C 994.06294154106 560.552280854969  994.331727566772 559.589161533762  994.600737918954 558.62610485736  L 993.637606467682 558.357073618335  C 993.368554339849 559.32027985151  993.099726570799 560.283548748256  992.831123186336 561.246880216118  L 993.794379862572 561.515462746613  Z M 992.721329764193 565.368523673961  C 992.989293120443 564.405175153825  993.257480862739 563.441889064758  993.525892970373 562.478665481151  L 992.562594598936 562.210232533123  C 992.294140806777 563.173605705803  992.025911417611 564.137041383549  991.757906446527 565.10053951216  L 992.721329764193 565.368523673961  Z M 991.650673161597 569.222250371953  C 991.918038092225 568.258735594997  992.185627447634 567.295283109724  992.453441207162 566.331892990535  L 991.489976287214 566.064058437072  C 991.222120937858 567.027598164814  990.954490024959 567.991200277369  990.687083574203 568.954864682237  L 991.650673161597 569.222250371953  Z M 990.58241046786 573.076641353764  C 990.849176869713 572.112960691726  991.116167734996 571.14934218196  991.383383043092 570.185785898881  L 990.419751946351 569.918549843315  C 990.152495139593 570.882255767134  989.885462813304 571.846023917202  989.618654982504 572.809854239295  L 990.58241046786 573.076641353764  Z M 989.516542095133 576.931695132314  C 989.782709865288 575.967848956997  990.049102137436 575.004064794517  990.315718891004 574.040342719301  L 989.351921989254 573.773705264736  C 989.085263829979 574.737577006439  988.818830189781 575.701510834945  988.552621083647 576.665506696022  L 989.516542095133 576.931695132314  Z M 988.453068454643 580.787410220268  C 988.71863748865 579.823398909923  988.984431068406 578.8594494538  989.25044916282 577.89556196465  L 988.286486827907 577.629523213958  C 988.020427420758 578.593560395287  987.754592565924 579.5576595431  987.488982288921 580.521820564853  L 988.453068454643 580.787410220268  Z M 987.391989956695 584.643785130032  C 987.656960155613 583.679609043817  987.922154933384 582.715494691502  988.187574269535 581.751442147529  L 987.22344687337 581.486002203353  C 986.957986317473 582.450204465135  986.692750357608 583.414468534751  986.427739008696 584.378794357962  L 987.391989956695 584.643785130032  Z M 986.333307010667 588.500818373768  C 986.597678270506 587.536477890062  986.862274147501 586.572199000748  987.127094621224 585.607981780283  L 986.162802535781 585.343140745033  C 985.897940937069 586.307507702496  985.63330396748 587.271936347434  985.368891652412 588.236426587281  L 986.333307010667 588.500818373768  Z M 985.277020025014 592.358508463373  C 985.540792242029 591.39400396062  985.80478911966 590.429560893566  986.069010627033 589.465179375006  L 985.104554224351 589.200937350858  C 984.840291681505 590.165468644705  984.5762538113 591.130061467334  984.31244062859 592.094715764474  L 985.277020025014 592.358508463373  Z M 984.223129407268 596.216853910494  C 984.486302483186 595.252185748039  984.749700252605 594.287578900887  985.013322695187 593.32303344353  L 984.048702347366 593.059390532439  C 983.785038965841 594.024085777768  983.521600289898 594.988842431477  983.258386344822 595.953660400958  L 984.223129407268 596.216853910494  Z M 983.171635564034 600.075853226526  C 983.434209395571 599.111021782939  983.697007958654 598.146251515078  983.960031232986 597.181542497445  L 982.99524731219 596.918498801125  C 982.73218319022 597.883357638518  982.469343817154 598.848277725538  982.206729207778 599.813259007897  L 983.171635564034 600.075853226526  Z M 982.122538900994 603.935504922611  C 982.384513386847 602.970510570138  982.6467126422 602.005577253789  982.909136646804 601.04070504808  L 981.944189525262 600.778260668018  C 981.681724767825 601.74328271244  981.419484792081 602.708365886048  981.157469623204 603.673510096202  L 982.122538900994 603.935504922611  Z M 981.075839822905 607.79580750964  C 981.337214861999 606.83065062059  981.598814708463 605.865554628038  981.860639342092 604.900519606515  L 980.895529392094 604.638674643965  C 980.63366409871 605.603859529485  980.372023624946 606.56910540456  980.110607995917 607.534412176532  L 981.075839822905 607.79580750964  Z M 980.0315387336 611.656759498249  C 980.292314223366 610.691440451387  980.553314563467 609.726182142199  980.814539723376 608.760984683577  L 979.849267317274 608.499739239562  C 979.588001588975 609.465086593801  979.326960718138 610.430494797931  979.066144729815 611.395963759293  L 980.0315387336 611.656759498249  Z M 978.989636035982 615.518359398833  C 979.249811879264 614.552878553805  979.510212605391 613.587458325961  979.770838194255 612.622098789843  L 978.805403704467 612.361452965156  C 978.544737642053 613.326962415666  978.284296474853 614.292532576388  978.024080227864 615.258163354647  L 978.989636035982 615.518359398833  Z M 977.950132132034 619.380605721528  C 978.209708226726 618.414963457225  978.469509241869 617.44938167041  978.729535157406 616.483860435639  L 977.763938956409 616.22381433084  C 977.503872660449 617.189485505115  977.244031297369 618.155217249898  976.984414892108 619.1210094725  L 977.950132132034 619.380605721528  Z M 976.913027422812 623.243496976224  C 977.172003668764 622.277693665205  977.431204872692 621.311950691951  977.690631014578 620.346268131039  L 976.724873474914 620.086821846459  C 976.465407045745 621.052654371927  976.206165587034 622.018547328182  975.947149123665 622.984500622509  L 976.913027422812 623.243496976224  Z M 975.878322308446 627.10703167256  C 976.13669860403 626.141067693844  976.395299900162 625.175163893957  976.654126166593 624.209320385876  L 975.688207660865 623.950474021612  C 975.429341198594 624.916467525642  975.170699744273 625.88252132071  974.912283322729 626.848635314084  L 975.878322308446 627.10703167256  Z M 974.84601718814 630.971208319931  C 975.103793437094 630.005084033404  975.361794718807 629.039019805134  975.620021013353 628.073015709725  L 974.653941914227 627.814769365644  C 974.395675517016 628.780923481939  974.137634170289 629.747137730307  973.879817888563 630.713412056386  L 974.84601718814 630.971208319931  Z M 973.816112460171 634.83602542748  C 974.07328856133 633.869741212285  974.330689732509 632.903516915559  974.588315953829 631.937352611918  L 973.622076634031 631.679706387655  C 973.364410404945 632.646020730664  973.106969258534 633.612395085143  972.849753219509 634.578829358327  L 973.816112460171 634.83602542748  Z M 972.788608521895 638.701481504102  C 973.045184376036 637.735037733044  973.30198533737 636.76865374065  973.559011386068 635.802329601536  L 972.592612218388 635.545283596495  C 972.335546255127 636.511757799799  972.078705411775 637.478291874747  971.822089712983 638.444885728572  L 972.788608521895 638.701481504102  Z M 971.763505769732 642.567575058454  C 972.019481277865 641.600972104403  972.275681930279 640.634428789181  972.53210770719 639.667945187416  L 971.565549064478 639.41149950077  C 971.309083466223 640.378133191487  971.052843025021 641.344826614007  970.796827765467 642.311579675545  L 971.763505769732 642.567575058454  Z M 970.740804599185 646.434304598939  C 970.996179662551 645.467542834824  971.251779907198 644.500840569679  971.507605313389 643.534197878148  L 970.540887568559 643.278352608836  C 970.285022432563 644.245145420428  970.029382495758 645.21199780475  969.773967772526 646.178909707418  L 970.740804599185 646.434304598939  Z M 969.720505404827 650.301668633716  C 969.975279924899 649.334748432528  970.230279663165 648.367887590425  970.485504599936 647.401086182073  L 969.518628125959 647.145841428803  C 969.263363554328 648.112792975463  969.008324213779 649.079803974175  968.753510128793 650.046874332117  L 969.720505404827 650.301668633716  Z M 968.702608580305 654.1696656707  C 968.956782457102 653.202587411897  969.211181593975 652.235568353058  969.465805961168 651.268608607294  L 968.498771131081 651.013964468545  C 968.244107220604 651.98107438361  967.989668578095 652.948243610818  967.735455227976 653.915472057328  L 968.702608580305 654.1696656707  Z M 967.687114518334 658.038294217562  C 967.94068765884 657.071058255038  968.194486086068 656.103881390987  968.448509790503 655.136763661663  L 967.481316977401 654.88272023568  C 967.227253826332 655.849988146026  966.973415980027 656.817315228581  966.719803462853 657.784701390488  L 967.687114518334 658.038294217562  Z M 966.674023610711 661.90755278173  C 966.926995912052 660.940159507877  967.180193541807 659.972825173329  967.433616480425 659.00554985279  L 966.466266057466 658.752107237586  C 966.212803763826 659.719532770028  965.959566811661 660.68701733472  965.70655522528 661.654560838793  L 966.674023610711 661.90755278173  Z M 965.6633362483 665.777439870384  C 965.915707612882 664.809889658438  966.168304347462 663.842398226605  966.421126422497 662.874965688041  L 965.453618762899 662.622123981399  C 965.200757424477 663.589706762689  964.948121464156 664.557348436245  964.695710906183 665.525048909192  L 965.6633362483 665.777439870384  Z M 964.655052821038 669.647953990472  C 964.906823153169 668.680247207321  965.158818891764 667.712599064286  965.411040007353 666.745009674539  L 964.443375484393 666.492768974008  C 964.191115198747 667.46050863084  963.939080327738 668.428307039934  963.687270895557 669.396164108402  L 964.655052821038 669.647953990472  Z M 963.649173717935 673.519093648691  C 963.900342920477 672.55123066769  964.151737565866 671.583426186785  964.403357624697 670.615680319167  L 963.435536611714 670.364040722065  C 963.18387747617 671.331936881069  962.932443791713 672.299891652311  962.681235582475 673.267904942886  L 963.649173717935 673.519093648691  Z M 962.645699327073 677.390857351499  C 962.896267304783 676.422838539653  963.14706075665 675.454878107088  963.398079663308 674.486976128559  L 962.430102533702 674.235937731972  C 962.179044645354 675.20399001972  961.928212244454 676.172100779664  961.67760535508 677.140269918872  L 962.645699327073 677.390857351499  Z M 961.64463003561 681.263243605113  C 961.89459669015 680.295069342307  962.144788855066 679.326953318722  962.395206511037 678.35889560912  L 961.427073638268 678.108458509903  C 961.176617092318 679.076666559318  960.926386075066 680.044932921624  960.676380600588 681.013257542344  L 961.64463003561 681.263243605113  Z M 960.64596622977 685.136250915512  C 960.895331464699 684.167921575282  961.144922246137 683.199650334187  961.394738554806 682.231437267004  L 960.426450312393 681.981601561779  C 960.176595208789 682.949964986491  959.926965665098 683.918386603235  959.677561705282 684.88686631905  L 960.64596622977 685.136250915512  Z M 959.649708294854 689.009877788432  C 959.898472013964 688.041393744373  960.147461315626 687.072967659343  960.396676180612 686.104599608129  L 959.428232942135 685.855365393287  C 959.178979375615 686.823883826097  958.929951405111 687.792460310824  958.681149054526 688.761094754492  L 959.649708294854 689.009877788432  Z M 958.65585661523 692.884122729372  C 958.904018722546 691.91548435514  959.152406448369 690.946903799808  959.40101977352 689.978381138174  L 958.432421912618 689.729748509871  C 958.183769979349 690.698421577112  957.935343678109 691.667152556132  957.687143032747 692.63594135394  L 958.65585661523 692.884122729372  Z M 957.664411574345 696.758984243591  C 957.91197197412 695.7901919129  958.159758028273 694.821457260961  958.40776971767 693.852780362576  L 957.439017608042 693.60474941674  C 957.190967403957 694.573576744684  956.94314286783 695.542461844241  956.695544023449 696.511404622417  L 957.664411574345 696.758984243591  Z M 956.675373554708 700.634460836116  C 956.922332151431 699.665514922739  957.169516438314 698.696626547943  957.416926396271 697.727795786536  L 956.448020411676 697.480366618861  C 956.200572032476 698.449347833719  955.953349357075 699.418386680009  955.706352409203 700.38748306472  L 956.675373554708 700.634460836116  Z M 955.688742937906 704.510551011729  C 955.935099636296 703.541451889502  956.181682060543 702.572410165653  956.428490191606 701.603425915016  L 955.459430705862 701.356598620962  C 955.212584247016 702.325733348888  954.965963527722 703.294925568045  954.719568571654 704.264175185399  L 955.688742937906 704.510551011729  Z M 954.704520104596 708.387253274978  C 954.950274809605 707.418001317793  955.196255276081 706.448806618767  955.442461485028 705.479669252746  L 954.473248872012 705.233443927544  C 954.227004427126 706.20273180105  953.980985762348 707.172077006304  953.735192891518 708.14147948877  L 954.704520104596 708.387253274978  Z M 953.722705434505 712.264566130177  C 953.967858052942 711.295161705563  954.213236463492 710.325814418131  954.458840656959 709.356524304213  L 953.489475290607 709.11090104286  C 953.243832957948 710.080341675144  952.998416436087 711.049839518182  952.753225748583 712.019394478913  L 953.722705434505 712.264566130177  Z M 952.743299306431 716.142488081401  C 952.987849740464 715.172931576211  953.23262600692 714.203432048677  953.477628086896 713.233989573669  L 952.508110341204 712.98896847093  C 952.263070212291 713.958561500806  952.018255934532 714.928211581905  951.773667521703 715.897918659672  L 952.743299306431 716.142488081401  Z M 951.766302098244 720.021017632492  C 952.01025025353 719.051309420797  952.254424281437 718.081658027205  952.498824153405 717.112063565134  L 951.529154402426 716.867644715542  C 951.284716573425 717.837389762508  951.040504630972 718.8071917204  950.796518588808 719.777050534657  L 951.766302098244 720.021017632492  Z M 950.791714186883 723.900153287055  C 951.035059972535 722.930293730135  951.278631661217 721.960490870286  951.522429234121 720.99074478239  L 950.552607851968 720.746928280244  C 950.308772418801 721.716824963738  950.065162902651 722.686778437101  949.821779326895 723.656788607239  L 950.791714186883 723.900153287055  Z M 949.819535948356 727.779893548468  C 950.062279268873 726.809883026933  950.305248527593 725.839929062141  950.548443705754 724.870031728985  L 949.578471066598 724.626817668355  C 949.335238120112 725.596865627018  949.092231130701 726.566970215944  948.849450112033 727.537131380566  L 949.819535948356 727.779893548468  Z M 948.849767757747 731.660236919869  C 949.091908519474 730.690075807964  949.334275254491 729.719971112447  949.576867944081 728.749922908232  L 948.606744422151 728.507311382952  C 948.36411405941 729.47751022968  948.121709684057 730.447765585589  947.87953131936 731.418077357541  L 948.849767757747 731.660236919869  Z M 947.882409989205 735.541181904165  C 948.12394809872 734.570870576192  948.365712216525 733.600615524233  948.607702323948 732.630416823218  L 947.637428293533 732.388407926892  C 947.395400604933 733.358757300217  947.153598943583 734.329163023066  946.912023323086 735.299625040841  L 947.882409989205 735.541181904165  Z M 946.91746301595 739.422727004032  C 947.158398380065 738.45226583435  947.399559787381 737.48186080029  947.640947219274 736.511511976791  L 946.670523054719 736.270105802788  C 946.429098135245 737.240605321912  946.187899277979 738.211161050152  945.946926496489 739.181772932906  L 946.91746301595 739.422727004032  Z M 945.954927210274 743.304870721913  C 946.195259736033 742.334260084941  946.435818339816 741.363705443174  946.676603003048 740.393206871566  L 945.706029078756 740.152403513025  C 945.465207023148 741.123052797087  945.224611059837 742.093758169122  944.984241211916 743.06451953595  L 945.954927210274 743.304870721913  Z M 944.994802943535 747.187611560021  C 945.234532539801 746.216851823804  945.474488244064 745.246147961645  945.714670047328 744.27550000993  L 944.743946737761 744.035299559757  C 944.503727637333 745.006098240692  944.263734663996 745.976952869156  944.023967840787 746.947863351952  L 944.994802943535 747.187611560021  Z M 944.037090586166 751.070948020336  C 944.276217157274 750.100039572266  944.515569875792 749.129186838513  944.75514872324 748.158389894039  L 943.784276402917 747.918792444906  C 943.544660348762 748.889740154598  943.305270461165 749.860743652055  943.066106753589 750.83180288266  L 944.037090586166 751.070948020336  Z M 943.081790507662 754.954878604616  C 943.32031396294 753.983821812855  943.559063600192 753.012820594931  943.798039400982 752.041875025817  L 942.82701844448 751.802880670164  C 942.588005532219 752.773977021147  942.349218816378 753.745129038695  942.110658319876 754.716336629598  L 943.081790507662 754.954878604616  Z M 942.128903076596 758.839401814382  C 942.366823324018 757.868197053577  942.604969787889 756.897047726108  942.843342449821 755.92595390696  L 941.872173231774 755.687562736995  C 941.633763552035 756.658807361034  941.395580103249 757.630107511129  941.157622908277 758.601463094054  L 942.128903076596 758.839401814382  Z M 941.178428660603 762.724516150928  C 941.415745608377 761.753163795785  941.653288806988 760.78186673345  941.891058238095 759.810625038931  L 940.919741133193 759.572837146628  C 940.681934777958 760.544229669003  940.444354688121 761.515677576908  940.207000886487 762.487180777091  L 941.178428660603 762.724516150928  Z M 940.230367626391 766.610220115322  C 940.467081182955 765.638720540602  940.704021024659 764.667276118146  940.941187133204 763.695886922972  L 939.969722516197 763.458702400074  C 939.732519575644 764.430242452443  939.495542939557 765.401837730486  939.258792621267 766.373488179543  L 940.230367626391 766.610220115322  Z M 939.284720339735 770.496512208401  C 939.520830412199 769.524865795359  939.75716680871 768.553274374708  939.993729501626 767.581738060093  L 939.022117747318 767.345156998108  C 938.785518314538 768.316844199203  938.549145220483 769.288586485395  938.312998478451 770.260383802015  L 939.284720339735 770.496512208401  Z M 938.341487165479 774.38339093078  C 938.576993665876 773.411598041418  938.812726519751 772.439860023169  939.048685708902 771.468176951073  L 938.076927192154 771.232199441279  C 937.840931358431 772.204033416209  937.605161897605 773.175922335638  937.36961882294 774.147866144888  L 938.341487165479 774.38339093078  Z M 937.400668467538 778.27085478284  C 937.635571303441 777.298915798527  937.870700526863 776.327031544722  938.106056119645 775.35520209647  L 937.134151215377 775.11982822991  C 936.89875907332 776.091808597292  936.663593333571 777.063843787858  936.428654018703 778.035933708312  L 937.400668467538 778.27085478284  Z M 936.462264608892 782.158902264748  C 936.696563688122 781.18681756691  936.931089193478 780.214787439637  937.165841097534 779.242811996613  L 936.19379018072 779.008041864097  C 935.959001819584 779.980168255362  935.724439894766 780.952349329173  935.49010442878 781.924584992219  L 936.462264608892 782.158902264748  Z M 935.52627595159 786.047531876436  C 935.759971186854 785.07530182724  935.993892877449 784.103126227275  936.228041005317 783.131005151606  L 935.255844450989 782.896838843712  C 935.021659961359 783.8691108838  934.787701941969 784.841437465773  934.553970415274 785.81381849631  L 935.52627595159 786.047531876436  Z M 934.592702856751 789.936742117614  C 934.825794156333 788.964367098601  935.059111945027 787.992046388142  935.292656204814 787.019780061325  L 934.320314388059 786.786217668398  C 934.08673385874 787.758634988629  933.853379838131 788.731106690754  933.620252339361 789.703632720061  L 934.592702856751 789.936742117614  Z M 933.66154568456 793.826531487769  C 933.894032958532 792.854011874094  934.126746755304 791.881546428281  934.359687056905 790.909135225429  L 933.387200352867 790.676176837581  C 933.154223877071 791.648739049906  932.921473939095 792.621355522741  932.688950561281 793.594026162725  L 933.66154568456 793.826531487769  Z M 932.732804794273 797.716898486164  C 932.9646879514 796.744234659482  933.196797669541 795.771624840621  933.429133921547 794.799069143347  L 932.456502705425 794.566714850456  C 932.224130369952 795.539421592526  931.991984610572 796.512182435062  931.760065440346 797.484997323334  L 932.732804794273 797.716898486164  Z M 931.806480544209 801.607841611839  C 932.0377594981 800.635033934532  932.26926504191 799.66228014364  932.500997157759 798.689580314286  L 931.528221804808 798.457830205998  C 931.296453702388 799.430681089647  931.064912205021 800.403585952342  930.833597334931 801.376544700693  L 931.806480544209 801.607841611839  Z M 930.88257329176 805.499359363612  C 931.113247951649 804.526408217446  931.344149234884 803.553510816941  931.575277123631 802.58066723723  L 930.602358009162 802.349521402957  C 930.371194226146 803.32251606573  930.140257086256 804.295564547455  929.909546602484 805.268666793388  L 930.88257329176 805.499359363612  Z M 929.961083393381 809.391450240077  C 930.191153670271 808.418356000429  930.421450603844 807.445315365673  930.651974176318 806.472328410942  L 929.678911675698 806.241786939864  C 929.448352304332 807.214924993479  929.218019604902 808.188116744586  928.987913599515 809.161362099779  L 929.961083393381 809.391450240077  Z M 929.042011204597 813.284112739613  C 929.271477009722 812.310875781919  929.501169504782 811.337692288321  929.731088672043 810.364562333962  L 928.757883160693 810.134625315025  C 928.527928288401 811.107906390475  928.298200121354 812.08124102261  928.068698681603 813.054629118013  L 929.042011204597 813.284112739613  Z M 928.125357079999 817.177345360373  C 928.354218324827 816.203966060122  928.583306292758 815.230640083145  928.812620966099 814.257367504608  L 927.839272819495 814.028035026525  C 927.609922533478 815.001458754748  927.380798990482 815.974935879498  927.151902203395 816.948466346009  L 928.125357079999 817.177345360373  Z M 927.211121373244 821.071146600291  C 927.439377969479 820.097625333026  927.667861321894 819.124157248199  927.896571412843 818.150742420985  L 926.923081006518 817.922014572236  C 926.6943353983 818.89558056478  926.465816561683 819.869199832343  926.237524518603 820.842872281467  L 927.211121373244 821.071146600291  Z M 926.299304437059 824.965514957083  C 926.526956296635 823.991852098403  926.754834945382 823.018242281303  926.982940365699 822.044685580969  L 926.009308075239 821.816562449801  C 925.781167230044 822.790270343944  925.553253194026 823.764031352895  925.32556598001 824.737845421871  L 926.299304437059 824.965514957083  Z M 925.389906623236 828.860448928244  C 925.616953658323 827.886644853802  925.844227515481 826.912893680062  926.071728177161 825.939195482222  L 925.097954378208 825.711677156647  C 924.870418385569 826.685526570271  924.643109235058 827.659428957814  924.41602693946 828.633384264483  L 925.389906623236 828.860448928244  Z M 924.482928282634 832.755947011054  C 924.709370405632 831.782002096558  924.936039383519 830.808109941864  925.162935198787 829.834270622184  L 924.189020267036 829.607357189983  C 923.962089216245 830.581347740914  923.735385035935 831.555391144202  923.508907747868 832.529487306348  L 924.482928282634 832.755947011054  Z M 923.578369765178 836.652007702569  C 923.804206888725 835.677922323779  924.030270899884 834.70388956388  924.256561781202 833.72990949808  L 923.282506092404 833.503601046798  C 923.056180069506 834.477732365707  922.830080949876 835.451916396038  922.604208755214 836.42615304429  L 923.578369765178 836.652007702569  Z M 922.67623141986 840.548629499639  C 922.901463455331 839.574404038826  923.126922415533 838.600231036606  923.352608274098 837.626110606915  L 922.378412204059 837.400407223867  C 922.152691294879 838.374678941368  921.927197326146 839.349003209989  921.701930310543 840.323379974924  L 922.67623141986 840.548629499639  Z M 921.776513594738 844.445810898888  C 922.001140458219 843.471445719017  922.225994274506 842.497132876132  922.451075026236 841.522872445476  L 921.476738950813 841.297774217741  C 921.251623243938 842.272185951496  921.026734510105 843.246650095405  920.802072761967 844.221166594642  L 921.776513594738 844.445810898888  Z M 920.879216636935 848.343550396726  C 921.10323824027 847.369045880174  921.327486828877 846.394593559629  921.551962385437 845.420193510343  L 920.577486680544 845.195700524766  C 920.352976264311 846.170251892381  920.128692849175 847.144855548517  919.904636456664 848.119511399621  L 920.879216636935 848.343550396726  Z M 919.984340892643 852.241846489351  C 920.207757147921 851.26720301855  920.431400425291 850.292611583391  920.655270698593 849.318072297868  L 919.680655740196 849.094184641062  C 919.456750698253 850.068875279447  919.233072694287 851.04361804598  919.009621740879 852.018412885823  L 919.984340892643 852.241846489351  Z M 919.091886707116 856.140697672742  C 919.3146975311 855.165915610813  919.537735405023 854.191185462873  919.76100031166 853.216507304194  L 918.786246475781 852.993225062539  C 918.562946897478 853.968054582735  918.339874385054 854.942936109415  918.11702895992 855.917869548996  L 919.091886707116 856.140697672742  Z M 918.201854424677 860.040102442666  C 918.424059731396 859.065182165693  918.646492115837 858.09031368104  918.869151569662 857.115497025248  L 917.894259232374 856.89282028489  C 917.671565202381 857.867788317249  917.449098270526 858.842808215041  917.226858458163 859.817879884672  L 918.201854424677 860.040102442666  Z M 917.314244388714 863.940059294675  C 917.535844089495 862.96500119171  917.757670904528 861.989994720639  917.979724816686 861.015039956745  L 917.004694354117 860.792968803594  C 916.782605958353 861.76807497196  916.560744692899 862.743232864684  916.33911057905 863.718442388169  L 917.314244388714 863.940059294675  Z M 916.429056941679 867.840566724113  C 916.650050952495 866.865371164891  916.871272109591 865.890227096483  917.092720395887 864.915134594183  L 916.117552184217 864.693669113919  C 915.896069506899 865.668913048539  915.674813996373 866.644208547052  915.453785665084 867.6195555546  L 916.429056941679 867.840566724113  Z M 915.54629242509 871.741623226106  C 915.766680660679 870.766290586872  915.987296074489 869.791009297348  916.208138649482 868.815779432848  L 915.232833064946 868.594919710914  C 915.011956192997 869.570301029067  914.791306519824 870.545733770006  914.570884057839 871.521217878854  L 915.54629242509 871.741623226106  Z M 914.665951179529 875.643227295571  C 914.885733554863 874.667757952621  915.105743140269 873.692339818261  915.325979918757 872.716972967818  L 914.350537337641 872.496719089427  C 914.130266357737 873.472237408337  913.910222604133 874.447807028281  913.690406097949 875.423427855614  L 914.665951179529 875.643227295571  Z M 913.788033544646 879.54537742721  C 914.007209976381 878.569771750434  914.226613645594 877.594217160493  914.446244544061 876.618713693956  L 913.470665342706 876.399065744083  C 913.251000336913 877.374720700301  913.031562593601 878.350426797022  912.812352125116 879.326183979352  L 913.788033544646 879.54537742721  Z M 912.912539859155 883.44807211552  C 913.131110259826 882.472330494243  913.349907934009 881.496639799258  913.568932864808 880.521000105913  L 912.593217419606 880.301958169302  C 912.374158474133 881.277749379946  912.155326822863 882.253591589922  911.936722478107 883.229484744328  L 912.912539859155 883.44807211552  Z M 912.039470460833 887.351309854783  C 912.257434747564 886.375432658999  912.475626339396 885.399606248328  912.694045219479 884.423830698129  L 911.718193906875 884.20539485929  C 911.499741107685 885.181321941424  911.281515629994 886.157299901087  911.063517494751 887.133328644591  L 912.039470460833 887.351309854783  Z M 911.168825686524 891.255089139071  C 911.386183775221 890.279076745286  911.603769200519 889.303114995423  911.821581945617 888.327203964838  L 910.845595142109 888.109374308047  C 910.62774857059 889.085436898069  910.410129356455 890.061550205016  910.192737511945 891.03771417398  L 911.168825686524 891.255089139071  Z M 910.300605872133 895.159408462255  C 910.517357678938 894.183261247031  910.734336853755 893.20716453451  910.951543379832 892.231118400061  L 909.975421461969 892.013895009359  C 909.758181205056 892.990092717764  909.541168332672 893.966341021254  909.324382865647 894.942639826132  L 910.300605872133 895.159408462255  Z M 909.434811352633 899.064266317991  C 909.650956793918 898.087984657938  909.867329634542 897.111753359352  910.083929857797 896.135572497611  L 909.107673202182 895.918955456806  C 908.891039340811 896.89528791989  908.674632899652 897.871670817417  908.45845389088 898.848104094467  L 909.434811352633 899.064266317991  Z M 908.57144246206 902.969661199726  C 908.786981453006 901.993245477977  909.002747878815 901.016879957031  909.21874171425 900.040564751091  L 908.242350697536 899.824554143757  C 908.026323316727 900.801020978372  907.810523387412 901.777538106166  907.594950921733 902.7541054722  L 908.57144246206 902.969661199726  Z M 907.710499533514 906.875591600704  C 907.925431992395 905.899042187507  908.140591917276 904.922542833833  908.355979282992 903.946093653903  L 907.379454281886 903.730689563381  C 907.164033466411 904.707290386326  906.948840129349 905.683941380562  906.733874291358 906.660642452341  L 907.710499533514 906.875591600704  Z M 906.851982899161 910.782056013959  C 907.066308744471 909.805373279611  907.280862082571 908.828740482896  907.495642896891 907.852157699236  L 906.518984288149 907.637360208631  C 906.304170119691 908.614094649585  906.089583460765 909.590879120525  905.875224331971 910.567713527689  L 906.851982899161 910.782056013959  Z M 905.995892890226 914.689052932322  C 906.209612039268 913.71223725364  906.423558707825 912.735471390686  906.637732887876 911.758755380074  L 905.660941048308 911.544564572258  C 905.446733609744 912.521432254383  905.232753711744 913.498349825169  905.01900137485 914.475317190842  L 905.995892890226 914.689052932322  Z M 905.142229837005 918.596580848414  C 905.355342204492 917.619632615206  905.568682126629 916.64273403699  905.782249586942 915.665885189194  L 904.805324893408 915.452301146805  C 904.591724267383 916.429301693213  904.378351212868 917.406351986931  904.165205750342 918.383451934185  L 905.142229837005 918.596580848414  Z M 904.290994068849 922.504638254659  C 904.503499572568 921.527557843849  904.71623266596 920.550526927263  904.929193324146 919.57354561917  L 903.952136153557 919.360568424612  C 903.739142421071 920.33770146483  903.52637629518 921.314884091585  903.31383778785 922.29211624991  L 904.290994068849 922.504638254659  Z M 903.44218591418 926.413223643269  C 903.654084474957 925.436011418886  903.866210651893 924.458848566769  904.078564428609 923.481735162369  L 903.101375157929 923.269364897812  C 902.888988403979 924.246630041908  902.676829283163 925.22394465057  902.464897815844 926.201308629995  L 903.44218591418 926.413223643269  Z M 902.805734752832 929.351656535579  C 902.947175717711 928.697899739451  903.088718542783 928.044164998633  903.230363228517 927.390452310953  L 902.25304223476 927.178689058331  C 902.041262539877 928.156085935732  901.829710508809 929.133532136302  901.61838616186 930.111027566217  L 902.805734752832 929.351656535579  Z M 1004.65643157798 523.021797775255  C 1004.93097074377 522.060302590019  1005.20573385835 521.098871386611  1005.48072091143 520.137504201075  L 1004.51927908857 519.862495798925  C 1004.24424933352 520.824012272499  1003.96944354369 521.785592802014  1003.69486174548 522.747237295163  L 1004.65643157798 523.021797775255  Z M 894.975272913779 927.671086109921  L 900 940  L 909.641295983246 930.818746721528  L 894.975272913779 927.671086109921  Z " fill-rule="nonzero" fill="#1f8aee" stroke="none" />
  </g>
</svg>