<?xml version="1.0" encoding="utf-8"?>
<svg version="1.1" xmlns:xlink="http://www.w3.org/1999/xlink" width="220px" height="18px" viewBox="288 826  220 18" xmlns="http://www.w3.org/2000/svg">
  <g transform="matrix(0.156434465040231 -0.987688340595135 0.987688340595138 0.156434465040231 -488.980681482952 1097.47718124827 )">
    <path d="M 433.632772239735 526.603385142237  C 434.030771565906 525.686910534637  434.431069578095 524.771435896361  434.83366249688 523.856969870883  L 433.918431554104 523.454040197883  C 433.515164704177 524.370037018126  433.114196602476 525.287044139539  432.71553103473 526.205052904224  L 433.632772239735 526.603385142237  Z M 432.053050586909 530.274579754616  C 432.444909555271 529.355462939992  432.839073848258 528.437330693514  433.23553974436 527.520191683747  L 432.31763358144 527.12339415846  C 431.92050401071 528.042068437458  431.525679895873 528.961737615943  431.133164964772 529.882393010596  L 432.053050586909 530.274579754616  Z M 430.497925523409 533.956260949293  C 430.883626594339 533.03454306735  431.271639525315 532.113794308304  431.661960652905 531.194023365424  L 430.741420355357 530.803375748524  C 430.350445839317 531.724686366476  429.961783383768 532.646976437414  429.575436658255 533.57023725356  L 430.497925523409 533.956260949293  Z M 428.967466656691 537.648263934076  C 429.346992566175 536.723986240991  429.728836767706 535.800662182031  430.112995655975 534.878300475069  L 429.189862427218 534.493820251956  C 428.805060465944 535.417725970869  428.422577066149 536.342595652712  428.042415839158 537.268420565066  L 428.967466656691 537.648263934076  Z M 427.461742490155 541.350423454771  C 427.835076250618 540.423627321199  428.210734631303 539.497769290442  428.588714085304 538.572858104296  L 427.663029244817 538.194562484321  C 427.284417062039 539.121021950187  426.90812983801 540.048429845637  426.534171125552 540.976777414287  L 427.461742490155 541.350423454771  Z M 425.98082042007 545.062573802575  C 426.347945321099 544.133300711899  426.717401066415 543.204950150882  427.089184167794 542.277530884564  L 426.160989149266 541.905436800252  C 425.78858369166 542.834408544758  425.418509486065 543.764313142906  425.050770026528 544.695141815028  L 425.98082042007 545.062573802575  Z M 424.524766732566 548.784548821495  C 424.885666341616 547.852840368064  425.248902914749 546.922038829696  425.61447302246 545.992152994576  L 424.683809371936 545.626277100874  C 424.317627308423 546.557719543112  423.953782685722 547.490079221586  423.592278939176 548.423347333156  L 424.524766732566 548.784548821495  Z M 423.093646600662 552.516181915788  C 423.448304763853 551.582079802906  423.805305906321 550.648868949901  424.164646657431 549.716558167705  L 423.231556031451 549.356916841232  C 422.871613752317 550.290788289899  422.514014998284 551.22556131605  422.158763145613 552.161227094049  L 423.093646600662 552.516181915788  Z M 421.68752408135 556.257306057413  C 422.035924924168 555.320852095527  422.386674656586 554.385273698439  422.73976996699 553.450579699432  L 421.804294130726 553.097189037747  C 421.450607747039 554.033447692626  421.099270867735 554.97059222617  420.750286810062 555.908613790065  L 421.68752408135 556.257306057413  Z M 420.306462112727 560.00775379351  C 420.648590040739 559.068989898335  420.993072663534 558.131085833688  421.339906728673 557.19405045481  L 420.40208755406 556.846926275693  C 420.054672896798 557.785530229906  419.709613618147 558.725004324026  419.366912975976 559.665339688031  L 420.306462112727 560.00775379351  Z M 418.950522511182 563.767357253892  C 419.286362210727 562.826325444537  419.624562304844 561.886137692954  419.965119600412 560.946802875945  L 419.024999064271 560.605960716687  C 418.683871683747 561.546867958237  418.34510545058 562.488629562131  418.008703563223 563.431236636753  L 418.950522511182 563.767357253892  Z M 417.619765968621 567.535948158567  C 417.949302407501 566.592690555651  418.281204835093 565.65026119997  418.615470117731 564.708668989493  L 417.673090299895 564.374124106203  C 417.338265464982 565.317292520045  417.005807440488 566.26129948043  416.675719365307 567.206136074538  L 417.619765968621 567.535948158567  Z M 416.314252049759 571.31335782526  C 416.637470477895 570.367916649078  416.963060383028 569.423287872378  417.291018690993 568.479480414184  L 416.346421772418 568.151247781103  C 416.01791446989 569.096635150983  415.691779534903 570.04284521407  415.368020046652 570.989869036743  L 416.314252049759 571.31335782526  Z M 415.03403918945 575.099417176969  C 415.350925139589 574.151834745457  415.670187948813 573.205048829453  415.991824602695 572.259068368352  L 415.045052863576 571.937162677186  C 414.722877797431 572.88472668753  414.403080549764 573.833097500919  414.08566413993 574.782266163335  L 415.03403918945 575.099417176969  Z M 413.779184690069 578.893956749532  C 414.0897239784 577.944275476466  414.402645401467 576.995374799432  414.717946004814 576.047263677497  L 413.76904182269 575.731699336756  C 413.453213413498 576.681397574562  413.139768167287 577.63188668914  412.828709043441 578.583157706473  L 413.779184690069 578.893956749532  Z M 412.549744718954 582.696806699212  C 412.85392344571 581.745069092412  413.160489476277 580.794096127081  413.469439916205 579.84389678185  L 412.518445764063 579.534687916207  C 412.208978148316 580.486477872945  411.901898933382 581.439042744783  411.597211018543 582.392373538105  L 412.549744718954 582.696806699212  Z M 411.345774305883 586.507796810301  C 411.643578856012 585.554045469578  411.943775772173 584.601042781535  412.246362220049 583.648797743968  L 411.293320664424 583.345958193624  C 410.990227693903 584.299797267139  410.689528255125 585.254395259397  410.391225187135 586.209743157585  L 411.345774305883 586.507796810301  Z M 410.167327340618 590.326756502733  C 410.458744384378 589.371034118034  410.752558749307 588.416044363717  411.04876766135 587.461796256339  L 410.093721360419 587.165339576402  C 409.797016601577 588.121185072822  409.502710398272 589.077773457656  409.210805529188 590.035095699302  L 410.167327340618 590.326756502733  Z M 409.014456570492 594.153514839727  C 409.299473064045 593.195864189223  409.586891726599 592.238930114009  409.876709844486 591.282721649001  L 408.919701546159 590.992661108885  C 408.629398279513 591.950470244527  408.341498484838 592.909006205006  408.056004880333 593.868259940329  L 409.014456570492 594.153514839727  Z M 407.887213598044 597.987900535433  C 408.16581678404 597.028364483603  408.44682687935 596.069528919899  408.730241230811 595.111402897189  L 407.771313770815 594.827751480015  C 407.48742499035 595.787481383305  407.205944490711 596.747922015321  406.926874929491 597.709064308088  L 407.887213598044 597.987900535433  Z M 406.785648878713 601.829741962599  C 407.057826286863 600.868363458314  407.332415236906 599.907669323636  407.609413136304 598.947668628981  L 406.648609436268 598.670439030997  C 406.371147848857 599.63204674439  406.096099243333 600.594349058584  405.82346621656 601.557336888027  L 406.785648878713 601.829741962599  Z M 405.709811718578 605.678867160256  C 405.975551166211 604.715689234854  406.243706680374 603.753179529909  406.514275729273 602.791347132978  L 405.551638794809 602.520551762991  C 405.280616819657 603.483994244837  405.012012419405 604.44811516862  404.745828130159 605.412905431319  L 405.709811718578 605.678867160256  Z M 404.659750272152 609.535103841412  C 404.919039864745 608.570169606825  405.180749940406 607.605887413484  405.44487802811 606.642266365981  L 404.480450946884 606.377917344802  C 404.215880714917 607.343151471479  403.953732542737 608.309047850563  403.694008905409 609.275597362568  L 404.659750272152 609.535103841412  Z M 403.635511540224 613.398279400765  C 403.888339671994 612.431632047386  404.143592594944 611.465620527157  404.401267899098 610.500253960697  L 403.435093838903 610.2423631206  C 403.176987192309 611.209345688141  402.921306981935 612.176974289066  402.668055621779 613.145239787534  L 403.635511540224 613.398279400765  Z M 402.637141367761 617.268220922429  C 402.883496722084 616.299903717531  403.132281067246 615.332206108926  403.383492054266 614.365137233455  L 402.41561426109 614.113716117642  C 402.163982752733 615.082403843871  401.91478194842 616.051721355543  401.668014200977 617.021659500873  L 402.637141367761 617.268220922429  Z M 401.66468444185 621.144755187673  C 401.904555991876 620.17481147307  402.146860623601 619.205471090473  402.3915960493 618.23674319193  L 401.42205784539 617.991803054021  C 401.176912738318 618.962152580387  400.93420249428 619.933115616218  400.693929404895 620.904682993891  L 401.66468444185 621.144755187673  Z M 400.719252559849 625.027464422349  C 400.807768451664 624.657392642794  400.896680774079 624.28741579568  400.985989373867 623.917534518605  C 401.131601084692 623.316428636705  401.278146230643 622.715549253451  401.425624281504 622.11489854289  L 400.454469063427 621.876450346414  C 400.306714567203 622.478226967598  400.159894911736 623.080232735818  400.014010628406 623.682465472254  C 399.92450503349 624.053161493508  399.835396718074 624.42395332663  399.746685835773 624.794840332409  L 400.719252559849 625.027464422349  Z M 399.804213522033 628.917533807021  C 400.029325060779 627.944162445711  400.257174030685 626.97142619816  400.487757727735 625.999336608385  L 399.514756501026 625.768536667259  C 399.283740011487 626.742450813924  399.055463382035 627.717012832041  398.82992932173 628.692211156053  L 399.804213522033 628.917533807021  Z M 398.918378323817 632.814357161997  C 399.136182599609 631.839324696209  399.35672899333 630.864906793764  399.580014887629 629.89111501864  L 398.605309879241 629.66761972423  C 398.381604890014 630.64323925115  398.160644543266 631.61948608053  397.942431461232 632.596348626819  L 398.918378323817 632.814357161997  Z M 398.06179680294 636.717715249129  C 398.27228156195 635.741076534906  398.485512971384 634.765031799037  398.701488500702 633.789592624803  L 397.725134548256 633.573414551119  C 397.508753645148 634.550684569222  397.295122012496 635.528561285501  397.084242185561 636.507033095062  L 398.06179680294 636.717715249129  Z M 397.234517151308 640.627388462619  C 397.437670551519 639.649198446324  397.643574980089 638.671581790126  397.852227993496 637.694550095659  L 396.874280027383 637.485701405037  C 396.665235384143 638.464566932393  396.45894448466 639.444018519507  396.255409777079 640.424044542795  L 397.234517151308 640.627388462619  Z M 396.436585912285 644.543156841377  C 396.632396524115 643.5634705568  396.830962387529 642.584336981502  397.032281146031 641.605767735425  L 396.052794186323 641.404260177847  C 395.851097563957 642.384666142761  395.65215900372 643.365637496044  395.455980866505 644.347162596075  L 396.436585912285 644.543156841377  Z M 395.668047978067 648.464800081392  C 395.856504785078 647.483672646354  396.047720911853 646.503077238834  396.24169408912 645.523025496121  L 395.260723242473 645.32887040855  C 395.066385988592 646.310761652611  394.874810960012 647.293197581993  394.686000430298 648.276166537393  L 395.668047978067 648.464800081392  Z M 394.928946587164 652.392097548131  C 395.110038986639 651.409584161583  395.293894618815 650.427582090859  395.480511301772 649.446102989943  L 394.498111758329 649.259311295688  C 394.311144806468 650.242632577073  394.126944087736 651.226477809784  393.945511788124 652.210835318096  L 394.928946587164 652.392097548131  Z M 394.219323321966 656.324828288949  C 394.393041125511 655.340984227817  394.569525919235 654.357630742049  394.748775608691 653.374779501665  L 393.765002638973 653.195361709764  C 393.585416508041 654.180057706043  393.408600462405 655.165256890328  393.23455660042 656.150947570825  L 394.219323321966 656.324828288949  Z M 393.539218106398 660.262771045522  C 393.705551540522 659.277651661596  393.87465556663 658.293002084974  394.046528177866 657.308834001057  L 393.061437129663 657.136800205686  C 392.889241923308 658.122815517139  392.719820498569 659.109313224968  392.553174866046 660.096281621966  L 393.539218106398 660.262771045522  Z M 392.88866920368 664.205704266293  C 393.047608910343 663.219364983115  393.209322654917 662.233474712749  393.373808518253 661.248045155319  L 392.387454813512 661.083405035226  C 392.222660219571 662.070684187855  392.060642947487 663.058424918241  391.90140492004 664.046615504122  L 392.88866920368 664.205704266293  Z M 392.267713214172 668.153406118938  C 392.4192502513 667.165902428734  392.573564616223 666.178826931432  392.730654477555 665.192191341532  L 391.743093609262 665.034954159492  C 391.585708899192 666.023441608297  391.43110489499 667.012369790119  391.279283431459 668.001726968604  L 392.267713214172 668.153406118938  Z M 391.676385073315 672.105654502848  C 391.82051091534 671.117041963198  391.967417218739 670.128836772759  392.117102240092 669.141050659132  L 391.128389769147 668.991225261423  C 390.97842379752 669.980865393424  390.831241759351 670.970925388753  390.686845401316 671.961393497931  L 391.676385073315 672.105654502848  Z M 391.114718049665 676.062227061621  C 391.251424587952 675.072561292645  391.390914564788 674.083282006118  391.533186324764 673.094400942387  L 390.543377876859 672.951995758297  C 390.400839080878 673.942732895561  390.261087289296 674.933869002995  390.124124160609 675.925392318351  L 391.114718049665 676.062227061621  Z M 390.582743743022 680.022901195573  C 390.712023286361 679.032237876596  390.844089088824 678.041940151561  390.97893958311 677.052019772902  L 389.988090845596 676.917042814253  C 389.852987244599 677.908821217179  389.720673562142 678.900977674672  389.591151368451 679.893500412373  L 390.582743743022 680.022901195573  Z M 390.080492082652 683.987454074265  C 390.202337357674 682.995848940784  390.326971555658 682.004588492018  390.45439319746 681.013684492132  L 389.462559916215 680.886143352825  C 389.334899111224 681.878907223282  389.210030981971 682.872028211279  389.087957010282 683.865494531318  L 390.080492082652 683.987454074265  Z M 389.607991325602 687.955662649034  C 389.722395477216 686.963171489383  389.839591058684 685.971004086132  389.959576679178 684.979172213904  L 388.966814655474 684.859074069498  C 388.846603828792 685.852767553758  388.729188277889 686.846797198747  388.614569396187 687.841151207875  L 389.607991325602 687.955662649034  Z M 389.165268055114 691.927303665548  C 389.272224646851 690.933982318059  389.381975018306 689.94096378029  389.494517867007 688.948259836962  L 388.500882954364 688.835611444267  C 388.388128869134 689.830178636455  388.27817250248 690.825061013493  388.171015159302 691.820246768674  L 389.165268055114 691.927303665548  Z M 388.752347179124 695.902153676361  C 388.851850193527 694.908058026025  388.954149180332 693.91424422169  389.059242925497 692.920724057515  L 388.064791026547 692.815531754213  C 387.959500026403 693.810916699195  387.857009030212 694.806595835573  387.757319254313 695.802557346872  L 388.752347179124 695.902153676361  Z M 388.369251928863 699.879989053487  C 388.461295767825 698.885175028804  388.556137614554 697.890621870703  388.653776343537 696.896341381806  L 387.658563406875 696.798611086092  C 387.560741415555 697.794757782883  387.465721556068 698.791177660752  387.373504956058 699.787858894746  L 388.369251928863 699.879989053487  Z M 388.016003857553 703.860586000982  C 388.100583342611 702.865109571025  388.187962713411 701.869873013242  388.278140932975 700.874888138679  L 387.282222950013 700.784625348932  C 387.191875471059 701.781477753533  387.104332094153 702.778582313682  387.019593858211 703.775927196299  L 388.016003857553 703.860586000982  Z M 387.692622839191 707.843720567533  C 387.769733211844 706.847637738485  387.849645190679 705.851773773866  387.932357827334 704.856140492165  L 386.935790829151 704.773350286636  C 386.852922945583 705.770852315347  386.772860976504 706.768585460042  386.69560587207 707.766537879874  L 387.692622839191 707.843720567533  Z M 387.399127067429 711.829168659058  C 387.468763989395 710.832535471222  387.54120408035 709.836100127909  387.616446480628 708.839874454079  L 386.619286534816 708.764561490606  C 386.543902908834 709.762657023331  386.471326851944 710.760962619167  386.401559225439 711.75946643078  L 387.399127067429 711.829168659058  Z M 387.135533054556 715.816706051317  C 387.197692608007 714.819578576061  387.262656735558 713.822627914136  387.330424666261 712.825865896619  L 386.332727873772 712.758034412364  C 386.264832746522 713.756667295412  386.199746684989 714.755489177186  386.137470461597 715.754488203917  L 387.135533054556 715.816706051317  Z M 386.901855630566 719.806108402523  C 386.956534318359 718.808542738971  387.014018827575 717.811132847611  387.074308476031 716.813890564971  L 386.07613096802 716.753544376184  C 386.015728159325 717.752658425837  385.958135754951 718.75194039889  385.903354438373 719.751378436423  L 386.901855630566 719.806108402523  Z M 386.698107942321 723.797151265964  C 386.745302688191 722.799203537946  386.795304344958 721.801390532063  386.848112319223 720.803724089936  L 385.849510253891 720.750866591738  C 385.796603162061 721.750405597053  385.746507655031 722.750091441149  385.699224327307 723.749912260312  L 386.698107942321 723.797151265964  Z M 386.524301452817 727.789610102633  C 386.564009601556 726.791336455371  386.606525592737 725.793176472762  386.651848921799 724.795142000543  L 385.652878481234 724.749776166736  C 385.60747008286 725.749683892913  385.564874291584 726.749717364991  385.525091612908 727.74986471513  L 386.524301452817 727.789610102633  Z M 386.383803764865 731.78288102063  C 386.415031975112 730.78430613071  386.449068891901 729.785821053865  386.485914111299 728.787437639689  L 385.486594401535 728.750557866415  C 385.449680025755 729.750815189494  385.41557922361 730.751174365993  385.384292399789 731.751623524205  L 386.383803764865 731.78288102063  Z M 386.273872185187 735.777608959561  C 386.297609543317 734.77882792759  386.324156202635 733.78011563916  386.353511848104 732.781483946255  L 385.353943626822 732.752100770721  C 385.324532882479 733.752606838432  385.297936396587 734.753193653184  385.274154484788 735.753849340261  L 386.273872185187 735.777608959561  Z M 386.193906805676 739.77304908505  C 386.210151976207 738.774118103286  386.229206884524 737.775234791354  386.25107130449 736.776411003575  L 385.251310808135 736.754526078901  C 385.229405349896 737.755224602139  385.210314676601 738.755982761189  385.194039014809 739.756788679609  L 386.193906805676 739.77304908505  Z M 386.143912125245 743.768976610696  C 386.152664194213 742.76995187968  386.164226279482 741.770953742258  386.178598243839 740.771994054116  L 385.178701719672 740.757608611563  C 385.164302779955 741.758443290191  385.152718993309 742.759316490353  385.143950497206 743.760216333937  L 386.143912125245 743.768976610696  Z M 386.123890956631 747.765166722677  C 386.125149431637 746.766104448275  386.129218043368 745.767047689734  386.136096743539 744.768008303434  L 385.136120446473 744.761123152338  C 385.129228835373 745.762037678712  385.125152587089 746.762969610023  385.123891749997 747.763907067459  L 386.123890956631 747.765166722677  Z M 386.133844426239 751.761394592398  C 386.127609236481 750.762350982536  386.12418414577 749.763291810648  386.123569194754 748.764228932831  L 385.123569384191 748.764844460555  C 385.124185489435 749.765782522487  385.127617008847 750.766716871778  385.133863901701 751.76763562959  L 386.133844426239 751.761394592398  Z M 386.17377197408 755.757435389138  C 386.160043470354 754.758466650849  386.1491248699 753.759461273209  386.141016302294 752.760431111991  L 385.14104923896 752.768547283905  C 385.149173025886 753.769452567935  385.160112119932 754.770333021802  385.173866391279 755.771176767615  L 386.17377197408 755.757435389138  Z M 386.243671353801 759.753064292703  C 386.222450308483 758.75422662865  386.204038812574 757.755331250142  386.188437084573 756.756390011641  L 385.188559027349 756.772006371125  C 385.204190038906 757.772822565482  385.222636092147 758.773592813859  385.24389696816 759.774305239364  L 386.243671353801 759.753064292703  Z M 386.343538632811 763.748056506071  C 386.314826239813 762.749406111597  386.288922884293 761.750676930808  386.265828873661 760.751880816194  L 385.266096076424 760.774996484659  C 385.2892334332 761.775667282739  385.315185407846 762.776271021454  385.343951692372 763.776795825886  L 386.343538632811 763.748056506071  Z M 386.473368192504 767.742187268041  C 386.437166067204 766.7437803279  386.403772309418 765.745273534172  386.37318731544 764.746678736399  L 385.373656023891 764.777292413339  C 385.404298424161 765.777761516668  385.437754860136 766.778142451016  385.474024934764 767.778423344114  L 386.473368192504 767.742187268041  Z M 386.633152728573 771.735231865879  C 386.589462907733 770.737124551284  386.548580626432 769.738896321136  386.510506369844 768.740559021983  L 385.511232818351 768.778668985052  C 385.549378538153 769.778880106553  385.590337553169 770.778981954266  385.634109377319 771.778962659542  L 386.633152728573 771.735231865879  Z M 386.822883251422 775.726965647957  C 386.771708193061 774.729214113107  386.723339688317 773.731320607699  386.677778311204 772.733296974307  L 385.67881871963 772.778901079409  C 385.724465612857 773.778797946417  385.772924902532 774.778564441131  385.824196013567 775.778188698883  L 386.822883251422 775.726965647957  Z M 387.042549086673 779.717164036397  C 386.983891669936 778.719824415477  386.928039663 777.722321777133  386.874993728676 776.724667958993  L 385.876404299223 776.777763640409  C 385.929549797747 777.77728999799  385.985506635726 778.776664892108  386.044274149097 779.77587646274  L 387.042549086673 779.717164036397  Z M 387.292137875765 783.705602539703  C 387.226001400762 782.708730943823  387.162669033905 781.711675292674  387.102141526776 780.714447418576  L 386.103978440821 780.775031689103  C 386.164619554636 781.774131303169  386.228070792747 782.773058371124  386.294331402149 783.771801038258  L 387.292137875765 783.705602539703  Z M 387.571635576647 787.692056765389  C 387.498023764267 786.69570927928  387.427214600615 785.699156710408  387.359208926002 784.702410885126  L 386.361528340933 784.770480336249  C 386.429661658327 785.769096996721  386.500603726755 786.767520038141  386.574353704319 787.76573761178  L 387.571635576647 787.692056765389  Z M 387.881026464575 791.676302432608  C 387.799943456275 790.680535111564  387.721661479595 789.684541691649  387.646181463553 788.688333992887  L 386.649039509614 788.763884794967  C 386.724661197355 789.761962318938  386.803090104849 790.759825161808  386.884325301346 791.757461481497  L 387.881026464575 791.676302432608  Z M 388.220293132989 795.658115384768  C 388.131743490556 794.66298425134  388.045993105057 793.667606015806  387.963042994142 792.671992490891  L 386.966495771273 792.755020393386  C 387.04960157483 793.752502628279  387.135512908921 794.749749132101  387.224228753999 795.746748070087  L 388.220293132989 795.658115384768  Z M 388.589416494497 799.637271602143  C 388.493405199793 798.642832643088  388.400191229865 797.648125592751  388.309775690907 796.653162255581  L 387.313879265589 796.743662587279  C 387.404464509368 797.740493414011  387.497853436621 798.737067472963  387.594044939061 799.733372937352  L 388.589416494497 799.637271602143  Z M 388.988375781947 803.613547214478  C 388.884908236643 802.619856377715  388.784235926563 801.625876475421  388.686360046412 800.631619303417  L 387.691170448509 800.729586972703  C 387.789230036112 801.725710308786  387.890091302408 802.721555854982  387.993753050401 803.717111792844  L 388.988375781947 803.613547214478  Z M 389.417148549595 807.58671851358  C 389.306230574852 806.593831704887  389.198105588519 805.600634872677  389.092774873743 804.607139803479  L 388.098348093354 804.712569298621  C 388.203876507888 805.707929101525  388.312204438677 806.702990107756  388.423330600146 807.697740508485  L 389.417148549595 807.58671851358  Z M 389.875710674372 811.55656196591  C 389.757348510522 810.564535045881  389.641776931114 809.572177161637  389.528997307703 808.579500090059  L 388.535389292011 808.692385479515  C 388.648380596363 809.686925749516  388.764169097047 810.68114623302  388.882753419948 811.675035131175  L 389.875710674372 811.55656196591  Z M 390.364036357233 815.522854225155  C 390.238236663407 814.531743005851  390.115224993091 813.540279900563  389.995002806097 812.548476675245  L 389.002269456219 812.668811608  C 389.122717293417 813.662476391529  389.245959849649 814.655800416732  389.371995662341 815.648771895391  L 390.364036357233 815.522854225155  Z M 390.882098124617 819.485372144794  C 390.748867978405 818.495232386913  390.618423137896 817.504719840922  390.490765151113 816.513846261494  L 389.498962318959 816.641623967417  C 389.626859912518 817.634357360163  389.757549590581 818.626729041923  389.891029802196 819.618727235782  L 390.882098124617 819.485372144794  Z M 391.429866829988 823.443892790655  C 391.289213727022 822.454780200239  391.151343055228 821.465273940406  391.016256450797 820.475385754197  L 390.025439935923 820.610599044419  C 390.160780090223 821.60234519442  390.298909537434 822.593708701279  390.43982663827 823.584677799738  L 391.429866829988 823.443892790655  Z M 392.007311655476 827.398193453453  C 391.859243508989 826.410163678601  391.713954762644 825.421719375483  391.571447140622 824.432872274227  L 390.581672687094 824.575513541549  C 390.724447787813 825.56621665254  390.870009232879 826.556516209453  391.018355294851 827.546400459964  L 392.007311655476 827.398193453453  Z M 392.614400113609 831.348051661324  C 392.458925254031 830.361160289371  392.306226607173 829.373833553467  392.156305985151 828.386083170481  L 391.167629278408 828.536144389801  C 391.317831292906 829.525748724044  391.470816546448 830.514928616132  391.62658322349 831.503672327027  L 392.614400113609 831.348051661324  Z M 393.251979928626 835.292887808641  C 393.165127934933 834.768633805681  393.078975505502 834.24426414714  392.993522870443 833.719780233574  C 392.918674209923 833.258216769008  392.844433215378 832.796554968593  392.770800079795 832.334796032407  L 391.783276743515 832.49226876117  C 391.857067614854 832.955016870149  391.93146780857 833.417667609493  392.006477131148 833.880219775831  C 392.09209242724 834.40570411496  392.178409015853 834.931073954783  392.265426666356 835.456327891557  L 393.251979928626 835.292887808641  Z M 393.918378254414 839.233586179964  C 393.748483645121 838.248972046538  393.58105956847 837.263933219665  393.4161076052 836.278478999611  L 392.429829088825 836.44356893915  C 392.595057177829 837.430672786549  392.762761518469 838.417360545384  392.932940527369 839.403622899869  L 393.918378254414 839.233586179964  Z M 394.611125950706 843.169737982378  C 394.434647822147 842.186282523219  394.260637329632 841.20238585162  394.089096116084 840.218057257063  L 393.10394416675 840.389741958545  C 393.275772536282 841.375718296176  393.450074318292 842.361261987796  393.626847867116 843.34636372842  L 394.611125950706 843.169737982378  Z M 395.330192010086 847.101167033577  C 395.14713826142 846.118914268138  394.966549141776 845.136203791168  394.788426356133 844.153044880641  L 393.804445069279 844.331316659454  C 393.982866028295 845.316121354979  394.163757449921 846.30047686641  394.347117626277 847.284373899982  L 395.330192010086 847.101167033577  Z M 396.075544247132 851.027697362645  C 395.885923071871 850.0466912567  395.698763408235 849.065210960313  395.514067023298 848.08326574015  L 394.531300441965 848.268116616841  C 394.716306004335 849.251705590364  394.903778968871 850.234828861817  395.09371756555 851.217477149067  L 396.075544247132 851.027697362645  Z M 396.847149299848 854.949153217935  C 396.650969185433 853.969437681304  396.457247355099 852.989231496697  396.265985637876 852.008543918753  L 395.284477750732 852.199965619389  C 395.476059635592 853.182294845379  395.67010575176 854.16414187232  395.866614267094 855.145497429823  L 396.847149299848 854.949153217935  Z M 397.644972631162 858.865359074932  C 397.442242358623 857.886977959719  397.241967032587 856.90808976096  397.04414854396 855.928703720848  L 396.063943283337 856.126687677387  C 396.262092915493 857.107713186852  396.462703497741 858.088240021566  396.665773136021 859.068258923911  L 397.644972631162 858.865359074932  Z M 398.468978530472 862.776139644111  C 398.259707174034 861.799136742744  398.052887316606 860.821610344804  397.848520910948 859.843569679931  L 396.869662150871 860.048107030604  C 397.074370661129 861.027784912754  397.28153673014 862.006947666924  397.491158401951 862.985586048376  L 398.468978530472 862.776139644111  Z M 399.319130115241 866.681319878784  C 399.103327041888 865.705738921899  398.889971910354 864.729618078998  398.679066735104 863.752966566453  L 397.701598289328 863.96404815616  C 397.912856514926 864.942334560574  398.126568797939 865.920089406838  398.342733120607 866.897303463506  L 399.319130115241 866.681319878784  Z M 400.195389332653 870.580724982933  C 399.973064201727 869.606609637521  399.753183345893 868.631938040968  399.535748841162 867.656719395657  L 398.559714461214 867.874335776378  C 398.777512946226 868.85118691492  398.997761877471 869.827490088934  399.220459175473 870.803236080679  L 400.195389332653 870.580724982933  Z M 401.097716961311 874.474180419036  C 400.868879724104 873.501574286588  400.642482985824 872.528395562619  400.418528884001 871.554653435418  L 399.443972257215 871.778794866636  C 399.668301252973 872.754167015411  399.895076974099 873.728974817807  400.124297279496 874.703209070201  L 401.097716961311 874.474180419036  Z M 402.026072612996 878.36151191588  C 401.790733512272 877.390458530283  401.557831025072 876.418816238415  401.327367350351 875.446594214059  L 400.35433209792 875.677250663194  C 400.585181563449 876.651100164508  400.818473923967 877.624368962851  401.054206976847 878.597047869132  L 402.026072612996 878.36151191588  Z M 402.980414734472 882.242545476356  C 402.738584304019 881.273088301997  402.499186492624 880.303025932977  402.262223560567 879.332367528161  L 401.290753235587 879.569528671021  C 401.528112838056 880.541811935332  401.76791139579 881.513498166075  402.010146644735 882.484578189097  L 402.980414734472 882.242545476356  Z M 403.960700609351 886.117107385253  C 403.712389673507 885.149289815073  403.466507253372 884.180850788929  403.22305567045 883.211799450361  L 402.253193755969 883.455454671605  C 402.497052871154 884.426128179477  402.743346892711 885.396188349905  402.992073495261 886.365626024089  L 403.960700609351 886.117107385253  Z M 404.966886359998 889.985024217032  C 404.712106033171 889.018889570582  404.459750010003 888.052117234683  404.209820673117 887.084716337137  L 403.241610580192 887.334854730748  C 403.491958292936 888.303875034748  403.744736754213 889.272265725031  403.999943577342 890.24001765826  L 404.966886359998 889.985024217032  Z M 405.998926949502 893.846122843586  C 405.737688635668 892.88171436509  405.478870304932 891.916651992203  405.22247440093 890.95094483658  L 404.255959466682 891.207555206355  C 404.512784571424 892.174878933147  404.772036158021 893.141556797979  405.033711778676 894.10757967369  L 405.998926949502 893.846122843586  Z M 407.056776183685 897.700230441994  C 406.789091575896 896.737591298462  406.523822522282 895.774282084715  406.260971527468 894.810311896156  L 405.296195013142 895.073382756203  C 405.559486014395 896.03896660839  405.825199122174 897.003888379135  406.093331827757 897.968138958155  L 407.056776183685 897.700230441994  Z M 408.140386713175 901.54717450225  C 407.866267792976 900.586347781349  407.594559889993 899.624834844699  407.325265569559 898.662644770445  L 406.36227065859 898.932164345703  C 406.632015771425 899.895965103664  406.904178507085 900.859087590486  407.178756295952 901.821522712874  L 408.140386713175 901.54717450225  Z M 409.249710035523 905.386782834992  C 408.969169072502 904.427811543411  408.691034481778 903.468137921114  408.415308889363 902.507771028882  L 407.454138685439 902.783727255644  C 407.730325836055 903.74570177962  408.00892601758 904.70698187312  408.289936599619 905.667558460241  L 409.249710035523 905.386782834992  Z M 410.384696497375 909.218883579202  C 410.097746048556 908.261810640534  409.813197219406 907.304019287619  409.531052696498 906.345518563465  L 408.571750221635 906.627899089921  C 408.854367047883 907.588004321896  409.139392205119 908.547398995139  409.426823002286 909.506074051549  L 410.384696497375 909.218883579202  Z M 411.545295296693 913.043305209904  C 411.251948205989 912.08817346277  410.96099787483 911.132307250015  410.672447050229 910.17571559647  L 409.715055242842 910.464507783255  C 410.004089094768 911.422700748833  410.295526470008 912.380167059375  410.589364616874 913.336897674693  L 411.545295296693 913.043305209904  Z M 412.73145448503 916.85987654584  C 412.431723882668 915.906728741973  412.134385072448 914.952830453986  411.839440861699 913.998190688129  L 410.884002574683 914.293381608895  C 411.17944051515 915.249619419419  411.477277063586 916.205114510835  411.777509407974 917.159857861861  L 412.73145448503 916.85987654584  Z M 413.943120969856 920.66842675713  C 413.63702027179 919.717305559462  413.333306291404 918.765417892766  413.031981896223 917.81277274431  L 412.078539895031 918.1143491863  C 412.380368700195 919.068589040432  412.684591090713 920.022070144921  412.991204194182 920.974783497206  L 413.943120969856 920.66842675713  Z M 415.180240516932 924.468785372919  C 414.86778342424 923.519733353673  414.557707867939 922.569898914797  414.250016775616 921.619291024175  L 413.298613736349 921.927239488815  C 413.606819896374 922.87943867484  413.917414511905 923.830863114356  414.230394650471 924.781503824513  L 415.180240516932 924.468785372919  Z M 416.44275775274 928.260782289012  C 416.123958251014 927.313841927791  415.807534997792 926.366103231362  415.493490980591 925.417575147819  L 414.544169488087 925.731881851324  C 414.858739207619 926.681997748673  415.175692146001 927.631322937616  415.49502531063 928.579848454832  L 416.44275775274 928.260782289012  Z M 416.843227215462 929.446202605918  C 416.816250971175 929.366625794447  416.789291516274 929.287043291376  416.762348853196 929.207455103899  L 415.815151399119 929.528105977889  C 416.13607059804 930.476096059435  416.459367672381 931.423279505778  416.78503956974 932.369647374112  L 416.843227215462 929.446202605918  Z M 435.237019773485 522.942841434969  C 435.641141642979 522.029050055877  436.047555457058 521.116274002389  436.456257378431 520.204521892783  L 435.543742621569 519.795478107217  C 435.134356542706 520.708756468604  434.727262401448 521.623060487767  434.322464041364 522.538381532329  L 435.237019773485 522.942841434969  Z M 409.241895207673 932.156966066801  L 420 940  L 423.371020105358 927.120317416595  L 409.241895207673 932.156966066801  Z " fill-rule="nonzero" fill="#1f8aee" stroke="none" />
  </g>
</svg>