<?xml version="1.0" encoding="utf-8"?>
<svg version="1.1" xmlns:xlink="http://www.w3.org/1999/xlink" width="464px" height="30px" viewBox="748 238  464 30" xmlns="http://www.w3.org/2000/svg">
  <g transform="matrix(0.939692620785908 0.342020143325669 -0.34202014332567 0.939692620785909 145.632327891205 -319.921973517991 )">
    <path d="M 775.794644858893 336.038772336798  C 774.929268143767 336.540682367398  774.064486607184 337.043617884257  773.200302070743 337.547577827977  L 773.704062932775 338.411420981498  C 774.567564905701 337.907859083168  775.431663407605 337.405320802356  776.296356617591 336.903807198052  L 775.794644858893 336.038772336798  Z M 779.259318210491 334.036605987364  C 778.392359489077 334.535778415338  777.525992701561 335.03597820587  776.660219673955 335.537204304706  L 777.16124777117 336.402635322062  C 778.026336980793 335.901805109224  778.892019481185 335.402000394174  779.758293448114 334.903222230138  L 779.259318210491 334.036605987364  Z M 782.730302271826 332.045400028642  C 781.861770204089 332.541829867806  780.993826820766 333.039288934945  780.126473950117 333.537776182198  L 780.624764277586 334.404786418326  C 781.491432082259 333.906692893933  782.358689933566 333.40962673735  783.226536003953 332.913588996033  L 782.730302271826 332.045400028642  Z M 786.207562370143 330.065174351418  C 785.337465632303 330.558856642673  784.467954322976 331.05357001735  783.599030273723 331.549313433371  L 784.094577853868 332.417894227432  C 784.962815596172 331.922542367097  785.831640135081 331.428219734332  786.701049639739 330.934927370813  L 786.207562370143 330.065174351418  Z M 789.691063769995 328.095948736788  C 788.819411053723 328.586878548587  787.948340504213 329.078841288955  787.077853956313 329.571835921606  L 787.570653838954 330.441978597073  C 788.440452845788 329.949373349021  789.310835393336 329.457799178019  790.181799647461 328.96725711995  L 789.691063769995 328.095948736788  Z M 793.18077167359 326.137742855968  C 792.307571686099 326.62591528426  791.434950597805 327.115122475946  790.562910246822 327.605363400549  L 791.052957509225 328.477059265293  C 791.924309091893 327.987205550313  792.796240953556 327.498384751563  793.668751256809 327.010597899123  L 793.18077167359 326.137742855968  Z M 796.676651221135 324.190576270094  C 795.801912685276 324.675986438269  794.927749774723 325.162433194631  794.054164331924 325.649915513913  L 794.541454078852 326.523155860289  C 795.414349533149 326.036058571686  796.287821998924 325.549996028172  797.161869635527 325.064969254018  L 796.676651221135 324.190576270094  Z M 800.178667491187 322.254468430027  C 799.302399144637 322.73711148937  798.426703144838 323.220792950736  797.551581336381 323.705511795285  L 798.036108700144 324.58028790022  C 798.910539306442 324.09595190376  799.785543650937 323.612652470915  800.661119889752 323.130390620133  L 800.178667491187 322.254468430027  Z M 803.686785501004 320.329438676157  C 802.808996097446 320.809309805196  801.931775755279 321.290221140319  801.055126323394 321.772171667924  L 801.536886463895 322.648474793004  C 802.412843487231 322.166904926873  803.289370969753 321.686373432528  804.166467064372 321.206881322582  L 803.686785501004 320.329438676157  Z M 807.200970206889 318.415506238213  C 806.321668514657 318.892600643463  805.442932593315 319.370737048169  804.564764294948 319.849914444576  L 805.043752399733 320.727735836133  C 805.921227089896 320.248936910883  806.799268954535 319.771178155218  807.67787614337 319.294460575906  L 807.200970206889 318.415506238213  Z M 810.721186504543 316.51269023507  C 809.840381307076 316.987003150783  808.960138584893 317.462359848619  808.080460192163 317.938759327272  L 808.556671476469 318.818090216472  C 809.435655068088 318.342067014978  810.315202543807 317.867085770474  811.195312050174 317.393147483879  L 810.721186504543 316.51269023507  Z M 814.247399229417 314.621009674556  C 813.36509932572 315.092536362475  812.48335859499 315.565108605347  811.602178895644 316.038725407145  L 812.075608602446 316.919557010073  C 812.956092315078 316.44631428748  813.837136615801 315.974115298876  814.718739648008 315.502961039317  L 814.247399229417 314.621009674556  Z M 817.77957315706 312.740483453265  C 816.895787360522 313.20921920326  816.012557429596 313.679002270297  815.129885225835 314.14983166423  L 815.600528625895 315.032155181983  C 816.48250366411 314.561697665662  817.365035988806 314.092285649903  818.248123740243 313.623920123887  L 817.77957315706 312.740483453265  Z M 821.317673003475 310.871130356365  C 820.432410142329 311.337070486182  819.547699834432 311.804059684381  818.663543943363 312.272096967284  L 819.131396335276 313.155903586054  C 820.014853888748 312.688235975553  820.898865421525 312.221615621742  821.78342907075 311.756043507921  L 821.317673003475 310.871130356365  Z M 824.861663425466 309.012969057414  C 823.974932343247 309.476108912438  823.0887504953 309.940299577283  822.203119749401 310.405540073589  L 822.668176459642 311.290820964753  C 823.553107703234 310.825947931751  824.438589613422 310.362123901107  825.32462032425 309.899349850228  L 824.861663425466 309.012969057414  Z M 828.411509020997 307.16601811817  C 827.523318575359 307.626353072047  826.635674040076 308.087740566398  825.748577286009 308.550179628771  L 826.21083366898 309.436925948979  C 827.097229762835 308.97485213724  827.984173205077 308.513829063047  828.871662126667 308.053857697904  L 828.411509020997 307.16601811817  Z M 831.967174329542 305.330295988408  C 831.077533392715 305.787821442802  830.188435037425 306.246401157524  829.299881136495 306.70603416661  L 829.759332574571 307.594237057874  C 830.6471846642 307.134967083198  831.535580778537 306.67674957076  832.424519045484 306.219585486153  L 831.967174329542 305.330295988408  Z M 835.52862383244 303.505821005735  C 834.637541291694 303.960532390091  833.746997997146 304.416299744667  832.856995825766 304.873122108855  L 833.313637729342 305.762772698637  C 834.20293694571 305.306311148816  835.092776857673 304.850903775414  835.983155590092 304.396551538099  L 835.52862383244 303.505821005735  Z M 839.095821953248 301.692611395407  C 838.20330670952 302.144504167658  837.311327372368 302.597454608906  836.419885820681 303.051461765044  L 836.873713628217 303.942551166343  C 837.764451087834 303.488902601116  838.655725908534 303.036309915956  839.547536212151 302.584774064601  L 839.095821953248 301.692611395407  Z M 842.668733058101 299.890685270146  C 841.774794027377 300.339754916005  840.881387557146 300.789883919635  839.988515530412 301.241071332314  L 840.439524708478 302.133590643757  C 841.331691513487 301.682759594764  842.224392339698 301.232986118937  843.11762530594 300.784271164076  L 842.668733058101 299.890685270146  Z M 846.247321456065 298.100060629959  C 845.351967567814 298.546302663714  844.45714288976 298.993605732874  843.562849306789 299.441968895227  L 844.011035350114 300.335909201159  C 844.90462258838 299.887900171891  845.798740502631 299.440950398326  846.693387208712 298.995060822314  L 846.247321456065 298.100060629959  Z M 849.831551399492 296.32075536196  C 848.93479159787 296.764165325866  848.038557650311 297.20863799249  847.142851444669 297.654172425584  L 847.58820987618 298.549524796152  C 848.483208621378 298.104342261913  849.378734692044 297.660220655333  850.274786201056 297.217160912301  L 849.831551399492 296.32075536196  Z M 853.42138708438 294.55278724019  C 852.523230327403 294.993360704885  851.625596063102 295.434998528997  850.728486182279 295.877699782247  L 851.171012553152 296.774455273494  C 852.067413864858 296.332103681353  852.964339146247 295.890814678229  853.861786507248 295.45058919404  L 853.42138708438 294.55278724019  Z M 857.016792650728 292.796173925441  C 856.117247910367 293.233906489898  855.218222296076 293.672705059837  854.319717701587 294.112568710961  L 854.759407591285 295.010718364915  C 855.657202515063 294.571202133661  856.555518047506 294.132750142167  857.454352295613 293.695363314373  L 857.016792650728 292.796173925441  Z M 860.617732182899 291.050932965075  C 859.716808445176 291.485820256555  858.816400461171 291.921775189205  857.916510128647 292.358796844177  L 858.35335914497 293.258331688937  C 859.252538712651 292.821655208946  860.152235522218 292.386044609098  861.052447678878 291.951500806803  L 860.617732182899 291.050932965075  Z M 864.224169709972 289.317081792855  C 863.321875974312 289.749119467223  862.420094615426 290.182226407511  861.518827533969 290.616401700873  L 861.952831313094 291.517312750703  C 862.853386542116 291.083480384255  863.754455642198 290.650715527143  864.656036714536 290.219019091323  L 864.224169709972 289.317081792855  Z M 867.836069206106 287.594637728766  C 866.932414485619 288.02382147035  866.029268760402 288.454076091657  865.126633932867 288.885400686386  L 865.557788139394 289.787678941801  C 866.459710034014 289.356695022494  867.362142423175 288.926780231323  868.265083405199 288.497935474239  L 867.836069206106 287.594637728766  Z M 871.453394590899 285.883617978845  C 870.548387912664 286.309943500305  869.643886842551 286.73734150486  868.739893285827 287.165811092228  L 869.16819361282 288.069447540086  C 870.071473163457 287.641316373154  870.975259827015 287.214255942479  871.879551698964 286.788267147997  L 871.453394590899 285.883617978845  Z M 875.076109729748 284.184039635008  C 874.169760134348 284.607502677555  873.263912754311 285.032039796121  872.358569498862 285.457650095923  L 872.784011667895 286.362635709515  C 873.688639851404 285.937361571695  874.593771761149 285.513159767557  875.499405489766 285.090031191012  L 875.076109729748 284.184039635008  Z M 878.70417843421 282.495919674878  C 877.79649497527 282.916516008495  876.889310334477 283.33818800006  875.982626423876 283.760934760828  L 876.405206185072 284.667260499968  C 877.311173964837 284.244847639457  878.217642079123 283.823508699342  879.124608617747 283.4032445675  L 878.70417843421 282.495919674878  Z M 882.337564462363 280.819274961617  C 881.428556206832 281.23700038492  880.520043367813 281.655803037097  879.612027859022 282.075682035969  L 880.0317409911 282.983338847083  C 880.939039317123 282.563791483496  881.846834580953 282.14531961629  882.75512486961 281.727924127302  L 882.337564462363 280.819274961617  Z M 885.97623151917 279.154122243758  C 885.065907547793 279.568972583784  884.156075585217 279.984901713367  883.246737549066 280.401908755865  L 883.663579859378 281.310887572083  C 884.572199668371 280.894209896412  885.481313013491 280.478609282363  886.390917978984 280.064086605723  L 885.97623151917 279.154122243758  Z M 889.620143256839 277.500478155035  C 888.708512662941 277.912449267801  887.797370665782 278.325500719769  886.886719185746 278.739631640365  L 887.300686510324 279.649923381611  C 888.210618725797 279.23611955618  889.121041070789 278.823394346854  890.031951626786 278.41174862336  L 889.620143256839 277.500478155035  Z M 893.269263275187 275.858359214221  C 892.356335165333 276.267446984416  891.443892235276 276.677616632669  890.531936408141 277.088867294479  L 890.943024611734 278.000462867563  C 891.854260144087 277.589537025988  892.765982394454 277.179691344227  893.678189441583 276.770926685938  L 893.269263275187 275.858359214221  Z M 896.923555122004 274.227781824959  C 896.009338615533 274.633982166161  895.095603867634 275.041265913217  894.182352803025 275.449632208212  L 894.590557779143 276.362522506918  C 895.503087525758 275.954478754068  896.416100574021 275.547516693949  897.329594999958 275.141637184144  L 896.923555122004 274.227781824959  Z M 900.582982293418 272.608762275601  C 899.667486523103 273.012071129979  898.752469084193 273.416464907688  897.837931905239 273.8219427564  L 898.243249576195 274.73611866158  C 899.157064421525 274.330961073531  900.071359147307 273.926886700327  900.986131826868 273.523896393465  L 900.582982293418 272.608762275601  Z M 904.247508234257 271.001316739042  C 903.330742344897 271.401730077984  902.414451356128 271.803229846396  901.498637198052 272.205815198546  L 901.901063515 273.121267578208  C 902.81615433066 272.719000202208  903.731721600784 272.317817552345  904.647763396017 271.917720474022  L 904.247508234257 271.001316739042  Z M 907.917096338418 269.405461272564  C 906.999069488064 269.802975096131  906.081514102178 270.201576844704  905.164432113526 270.601265678658  L 905.563963056502 271.517985388059  C 906.480320701361 271.118612242484  907.397151369937 270.720325323502  908.314453130212 270.323125470413  L 907.917096338418 269.405461272564  Z M 911.591709949228 267.821211817669  C 910.67243130834 268.21582215497  909.753620691088 268.611521901946  908.835280032879 269.008310225085  L 909.231911610844 269.926288106824  C 910.149526931307 269.529813181056  911.067611839444 269.134425971732  911.986164401735 268.740127311551  L 911.591709949228 267.821211817669  Z M 915.271312359814 266.248584199923  C 914.350791111546 266.640287108991  913.430734440836 267.033080901763  912.511144286856 267.426964750363  L 912.90487253773 268.346191634469  C 913.823736367069 267.952618889184  914.743066344487 267.560135338838  915.662860532703 267.168741810503  L 915.271312359814 266.248584199923  Z M 918.955866813469 264.687594128801  C 918.034112152818 265.076385696952  917.112818620145 265.466269611456  916.191988156089 265.857245051049  L 916.582809146798 266.777711755075  C 917.502912306382 266.387045121714  918.423478169226 265.997469151152  919.344504795441 265.608984664333  L 918.955866813469 264.687594128801  Z M 922.645336504016 263.138257197523  C 921.72235763906 263.524133540837  920.799836446755 263.91110368272  919.87777487147 264.299166807567  L 920.265684697979 265.220864136682  C 921.187017996608 264.833107517737  922.108810549054 264.446443018555  923.031060412846 264.060871453947  L 922.645336504016 263.138257197523  Z M 926.33968457618 261.600588882905  C 925.415490726465 261.9835461469  924.491751090646 262.367598650275  923.568467614513 262.752745584053  L 923.95346240187 263.675664331132  C 924.876016636054 263.290821600025  925.799026670027 262.907072434738  926.722490558749 262.524417643936  L 926.33968457618 261.600588882905  Z M 930.038874125955 260.074604545199  C 929.113474523735 260.454638904314  928.188525671546 260.835769932922  927.264029517726 261.217996828196  L 927.646105420095 262.142127773911  C 928.569871374151 261.760202774959  929.494089669413 261.379372776958  930.418758358294 260.999638582421  L 930.038874125955 260.074604545199  Z M 933.742868200971 258.560319427944  C 932.816272090545 258.93742708582  931.890123261209 259.315632832577  930.964423664977 259.694935871084  L 931.343576865682 260.620269784001  C 932.26854531182 260.241266332373  933.193962636062 259.863359305888  934.119826888296 259.486549500902  L 933.742868200971 258.560319427944  Z M 937.451629800862 257.057748657812  C 936.5238464381 257.431925847479  935.596506883592 257.807202534212  934.669613091862 258.183577927053  L 935.045839803423 259.11010556372  C 935.972001501841 258.7340274454  936.898608610779 258.359047165464  937.825659177615 257.9851655141  L 937.451629800862 257.057748657812  Z M 941.165121877642 255.566907244455  C 940.236160530465 255.938150228139  939.307639514271 256.310494106091  938.379560786077 256.683938093534  L 938.752857250246 257.611650198575  C 939.680202949225 257.238501170325  940.607990586686 256.866451382734  941.536218207524 256.495501619814  L 941.165121877642 255.566907244455  Z M 944.883307336067 254.087810080358  C 943.953177284162 254.456115149596  943.023484081573 254.825522499307  942.094229687785 255.196031350902  L 942.464592175586 256.124918657107  C 943.393112611576 255.754702446432  944.322071509599 255.385586867709  945.251466912081 255.017572698766  L 944.883307336067 254.087810080358  Z M 948.606149034012 252.620471940688  C 947.674859568548 252.98583541644  946.744003466946 253.352302547632  945.813582689988 253.719872562325  L 946.181007501753 254.649925790748  C 947.110693399472 254.282646095854  948.040814278394 253.916468413209  948.971368178496 253.551393514454  L 948.606149034012 252.620471940688  Z M 952.333609782838 251.164907483149  C 951.401170206952 251.527325715609  950.469160504567 251.890848967678  949.537582638896 252.25547647362  L 949.902066104305 253.186686333665  C 950.832908176825 252.822346823424  951.764181745376 252.459110694723  952.695884847503 252.096978713003  L 952.333609782838 251.164907483149  Z M 956.065652347764 249.721131247832  C 955.132071975888 250.080600616689  954.19891798286 250.441176358287  953.266192334302 250.8028577131  L 953.627730812412 251.735214902618  C 954.559719761454 251.373819216458  955.492136716461 251.013528270331  956.42497971373 250.654342823022  L 956.065652347764 249.721131247832  Z M 959.802239448242 248.289157657074  C 958.867527606205 248.645674571475  957.933238644103 249.003299200699  956.999374529947 249.362030791432  L 957.357964409238 250.295525996814  C 958.291090924484 249.937077744979  959.224641952513 249.579735580186  960.158615526074 249.223500255455  L 959.802239448242 248.289157657074  Z M 963.543333758325 246.86900101531  C 962.607499783258 247.222561913896  961.672085184989 247.577231858318  960.737091933899 247.93301010149  L 961.092729632303 248.867633997758  C 962.026984392651 248.512136760827  962.96166016778 248.157746947121  963.896754988071 247.804465303439  L 963.543333758325 246.86900101531  Z M 967.288897907044 245.460675508931  C 966.351951147288 245.81127685987  965.415420257002 246.162988576583  964.47930720892 246.515809918212  L 964.83198917386 247.451553169113  C 965.767362846744 247.099010498259  966.703154032205 246.747576575752  967.639360758268 246.397252142161  L 967.288897907044 245.460675508931  Z M 971.038894478779 244.064195206145  C 970.100844293984 244.411833507099  969.163206466595 244.760583482886  968.225982972844 245.110444398457  L 968.575705681269 246.047297656557  C 969.512188923141 245.697713073367  970.44908617063 245.349238552788  971.386395450596 245.001874828717  L 971.038894478779 244.064195206145  Z M 974.793286013631 242.679574056835  C 973.854141773888 243.024245835278  972.915406376533 243.370030586078  971.977081798944 243.716927580864  L 972.323841757364 244.65488148764  C 973.26142521301 244.308258484371  974.199419164342 243.962746846452  975.137821634745 243.618347301971  L 974.793286013631 242.679574056835  Z M 978.5520350078 241.306825892416  C 977.611806094905 241.648527705171  976.671982504131 241.991343777117  975.732566216314 242.335273385712  L 976.076359960833 243.274318571647  C 977.015034264631 242.930660610753  977.954115549501 242.588115307062  978.893601836537 242.246683382415  L 978.5520350078 241.306825892416  Z M 982.316281037655 239.947787627274  C 981.545540980929 240.224287047709  980.775101867417 240.50162462851  980.00496506438 240.7797998775  C 979.834096288285 240.841661671426  979.663240833284 240.90356025183  979.492398710235 240.965495614779  L 979.83322280659 241.905622699456  C 980.003813548122 241.843778469802  980.174417594498 241.78197094294  980.345034931713 241.720200123944  C 981.114373406267 241.442313519499  981.884013831499 241.165263588368  982.653954842826 240.889050821764  L 982.316281037655 239.947787627274  Z M 986.085387705128 238.603170546862  C 985.142516313402 238.937655061553  984.200089798093 239.273392308769  983.258110655619 239.610381399167  L 983.594950499762 240.551943356447  C 984.536095548845 240.215252659465  985.477687574519 239.879812697234  986.419724082795 239.545624358233  L 986.085387705128 238.603170546862  Z M 989.859235277164 237.271917503012  C 988.915184579706 237.603058911674  987.97157431689 237.93545462139  987.028406988274 238.269103751665  L 987.361908351501 239.211853368862  C 988.304240534625 238.87849967457  989.247015259633 238.546398291012  990.190230029403 238.215550097823  L 989.859235277164 237.271917503012  Z M 993.637776369368 235.954045210926  C 992.692558219669 236.281839355752  991.74777605731 236.610889354408  990.803432384952 236.941194335265  L 991.133591079823 237.885119775224  C 992.077098565073 237.555107269209  993.021044151944 237.226348634186  993.965425340211 236.898844740936  L 993.637776369368 235.954045210926  Z M 997.420963538413 234.649570217797  C 996.474589804428 234.974012983072  995.528647605593 235.299713138987  994.583139446467 235.626669823187  L 994.909951327513 236.571759233987  C 995.854622268217 236.245092059884  996.799726864779 235.919680301286  997.745262613903 235.59552482011  L 997.420963538413 234.649570217797  Z M 1001.20874928263 233.358508902601  C 1000.26123184722 233.679596214558  999.314141488758 234.001942438377  998.367480714853 234.325546720587  L 998.690941678626 235.271788235696  C 999.636764213506 234.948470495134  1000.58301595303 234.626409698828  1001.52969439087 234.30560669982  L 1001.20874928263 233.358508902601  Z M 1005.00108604263 232.080877475892  C 1004.052436803 232.398605302895  1003.10421017618 232.717593547376  1002.15640867395 233.037841364357  L 1002.47651465908 233.985223102774  C 1003.4234769124 233.665258855327  1004.37086391376 233.346553065107  1005.31867315384 233.029106576265  L 1005.00108604263 232.080877475892  Z M 1008.79792620185 230.816691979598  C 1007.84815706904 231.131056332326  1006.89880608018 231.446682592121  1005.94987575003 231.763569922912  L 1006.26662273726 232.71207998932  C 1007.21471281896 232.395473252458  1008.16322318678 232.080126469989  1009.1121513284 231.76604047717  L 1008.79792620185 230.816691979598  Z M 1012.59922208721 229.565968286821  C 1011.64834498632 229.876965218183  1010.69788155585 230.189225530163  1009.74783431233 230.502748395994  L 1010.0612183246 231.45237488091  C 1011.01042433048 231.139129629943  1011.96004615526 230.827145814717  1012.9100812837 230.516424261581  L 1012.59922208721 229.565968286821  Z M 1016.40492596967 228.328722101637  C 1015.45295284029 228.636347706629  1014.50138890144 228.945238150314  1013.55023667373 229.255392614465  L 1013.86025377619 230.206123594387  C 1014.81056378802 229.89624376242  1015.76128514634 229.587626831703  1016.71241533295 229.280273619668  L 1016.40492596967 228.328722101637  Z M 1020.21499006485 227.104968958897  C 1019.26193285976 227.409219375039  1018.30928036074 227.714736071875  1017.35703509131 228.021518240114  L 1017.66368139138 228.973341777673  C 1018.61508347728 228.666831255491  1019.56689243147 228.361585084401  1020.51910573409 228.057604072527  L 1020.21499006485 227.104968958897  Z M 1024.02936653361 225.894724224034  C 1023.07523721938 226.195595631161  1022.1215081217 226.497734745083  1021.16818176693 226.801140765456  L 1021.47145341437 227.754044909564  C 1022.42393562834 227.450907545774  1023.3768202279 227.149035966851  1024.33010469034 226.848430971986  L 1024.02936653361 225.894724224034  Z M 1027.84800748269 224.698003092871  C 1026.89281803916 224.995491713305  1025.93802431822 225.294249450534  1024.98362884786 225.594275513539  L 1025.2835220348 226.548248299541  C 1026.23707241729 226.248487900396  1027.19102069821 225.949994703812  1028.14536435084 225.65276950041  L 1027.84800748269 224.698003092871  Z M 1031.67086496525 223.514820591427  C 1030.71462738597 223.808922689842  1029.75878102976 224.104295299303  1028.8033284274 224.400937637754  L 1029.09983938837 225.355967087575  C 1030.05444596681 225.0595874168  1031.00944595093 224.76447635056  1031.96483681121 224.470634670515  L 1031.67086496525 223.514820591427  Z M 1035.49789098154 222.345191575731  C 1034.54061727322 222.635903459324  1033.58373028294 222.927887232441  1032.62723254543 223.221142121638  L 1032.92035755745 224.177216243938  C 1033.8760083458 223.884221022874  1034.83204804214 223.592495792389  1035.7884741142 223.302041325176  L 1035.49789098154 222.345191575731  Z M 1039.32903747945 221.189130731633  C 1038.37073966142 221.476448750289  1037.41282405213 221.765040020796  1036.45529318904 222.054903778695  L 1036.74502857163 223.012010569016  C 1037.70171157076 222.722403476507  1038.65877897529 222.434067744677  1039.61622825026 222.147004137238  L 1039.32903747945 221.189130731633  Z M 1043.16425635515 220.046652574625  C 1042.20494645957 220.33057312084  1041.24601425925 220.615768265068  1040.28746229315 220.902237252201  L 1040.57380440839 221.860364693119  C 1041.53150760638 221.574149365411  1042.48959070179 221.289206752694  1043.44805115813 221.00553760934  L 1043.16425635515 220.046652574625  Z M 1047.00349945365 218.91777144965  C 1046.04318952602 219.198290958402  1045.08325277422 219.480086395681  1044.12369174105 219.763157015028  L 1044.40663699364 220.722293076303  C 1045.3653483652 220.439473107232  1046.32443512259 220.157927191129  1047.28389472549 219.877656073723  L 1047.00349945365 218.91777144965  Z M 1050.84671856946 217.80250153093  C 1049.88542066722 218.079616480079  1048.92449141729 218.358008672068  1047.96393336511 218.637677369457  L 1048.24347820239 219.597810008185  C 1049.20318571013 219.318388948776  1050.16326408682 219.040243264493  1051.12371078951 218.763373692059  L 1050.84671856946 217.80250153093  Z M 1054.69386544715 216.700856821784  C 1053.73159164034 216.974563731876  1052.76968195771 217.249549183087  1051.80813894727 217.525812446999  L 1052.08427985928 218.486929607764  C 1053.04497145312 218.210910966425  1054.00602939438 217.936169006357  1054.9674511375 217.662704455267  L 1054.69386544715 216.700856821784  Z M 1058.54489178199 215.612851154453  C 1057.58165415291 215.883146588827  1056.6187761153 216.154721846544  1055.65626021973 216.427576208221  L 1055.92899373924 217.389665823244  C 1056.89065735676 217.117053065664  1057.85268279555 216.845718279468  1058.8150675075 216.57566218334  L 1058.54489178199 215.612851154453  Z M 1062.39974922051 214.538498189926  C 1061.43555986358 214.805378754755  1060.47172556087 215.073540409082  1059.50824886551 215.342982442567  L 1059.77757156809 216.306032431859  C 1060.74019513464 216.036828980961  1061.70317599177 215.768904775514  1062.66651158886 215.50226052517  L 1062.39974922051 214.538498189926  Z M 1066.25838936117 213.47781141777  C 1065.29326038273 213.741273762103  1064.32848191682 214.006018446005  1063.36405651908 214.272044768186  L 1063.62996502311 215.236043039702  C 1064.593536452 214.9702522756  1065.5574606363 214.705742014956  1066.52173502289 214.442512958379  L 1066.25838936117 213.47781141777  Z M 1070.12076375491 212.430804155957  C 1069.15470727291 212.690844971818  1068.18899675796 212.952169361055  1067.22363476695 213.214776631761  L 1067.48612573369 214.179711081547  C 1068.45063292652 213.917336341455  1069.41548833457 213.656243346911  1070.38068940343 213.396432789148  L 1070.12076375491 212.430804155957  Z M 1073.9868239058 211.397489550701  C 1073.01985205044 211.654105572913  1072.0532216111 211.912006386513  1071.08693514829 212.171191308343  L 1071.3460052819 213.13704982069  C 1072.31143612793 212.878094399091  1073.27721064582 212.620421948712  1074.2433262775 212.36403315205  L 1073.9868239058 211.397489550701  Z M 1077.85652127162 210.377880576292  C 1076.88864618399 210.631068582838  1075.92110795765 210.885542582496  1074.95390915554 211.141301901179  L 1075.20955520314 212.108072348777  C 1076.17589758063 211.852539497058  1077.14257908169 211.598290826285  1078.10959714586 211.345327009886  L 1077.85652127162 210.377880576292  Z M 1081.72980726448 209.371990034929  C 1080.76104109722 209.621746846785  1079.79260723229 209.872790837325  1078.82450823501 210.125121341551  L 1079.0767269867 211.092791585638  C 1080.04396876227 210.840684512268  1081.01154510886 210.589862813445  1081.97945346365 210.34032715352  L 1081.72980726448 209.371990034929  Z M 1085.60663325145 208.379830556567  C 1084.63698816836 208.626153037788  1083.66767082449 208.873763867104  1082.69868378748 209.122662388612  L 1082.94747207642 210.09122027913  C 1083.91560110539 209.842542149563  1084.88406014863 209.595150572005  1085.85284664098 209.349046201722  L 1085.60663325145 208.379830556567  Z M 1089.48695055512 207.401414598749  C 1088.51643873087 207.644299656562  1087.5462500792 207.888474215555  1086.57638716885 208.133937629229  L 1086.82174187126 209.103371004974  C 1087.7907459978 208.85812494161  1088.76007557772 208.614166591564  1089.72972804357 208.371496601006  L 1089.48695055512 207.401414598749  Z M 1093.37071045428 206.436754446458  C 1092.3993440748 206.67619903115  1091.4282962966 206.916934254068  1090.45756969071 207.15895947782  L 1090.69948772591 208.129256166595  C 1091.66935478342 207.887445248692  1092.63954272874 207.646923189395  1093.61004899333 207.407690625475  L 1093.37071045428 206.436754446458  Z M 1097.25786418447 205.485862211958  C 1096.28565544643 205.721863317016  1095.31376073377 205.959156181288  1094.34218262097 206.197740176202  L 1094.58066095143 207.168887994971  C 1095.55137876187 206.930515258804  1096.52241289171 206.693432510051  1097.49376076899 206.457640376671  L 1097.25786418447 205.485862211958  Z M 1101.14836293861 204.548749834643  C 1100.17532404866 204.781304496937  1099.20259460545 205.01515202292  1098.23017718446 205.250291793436  L 1098.46521281586 206.222278548476  C 1099.4367691911 205.987346987001  1100.40863731277 205.753706525699  1101.38081460669 205.521357783413  L 1101.14836293861 204.548749834643  Z M 1105.04215786765 203.625429080888  C 1104.06830104365 203.854534380367  1103.09474908266 204.084933632067  1102.12150456356 204.316626225676  L 1102.35309454479 205.289439712729  C 1103.32547728598 205.057952275745  1104.29816719671 204.827757035482  1105.27116170062 204.598854601658  L 1105.04215786765 203.625429080888  Z M 1108.93920008113 202.7159115439  C 1107.96453755042 202.941564604015  1106.99017529637 203.16851268835  1106.01611589879 203.396755196017  L 1106.24425732201 204.370383200447  C 1107.21745422012 204.14234279446  1108.19095370642 203.91559566566  1109.16475320362 203.690142414349  L 1108.93920008113 202.7159115439  Z M 1112.83944064782 201.820208643572  C 1111.86398464865 202.042406630933  1110.88882433482 202.265900698533  1109.91396228945 202.490690254352  L 1110.13865229012 203.465120551294  C 1111.1126511253 203.240530039673  1112.08694796473 203.017233869182  1113.06154022779 202.795232631266  L 1112.83944064782 201.820208643572  Z M 1116.74283059634 200.938331626342  C 1115.76659337613 201.157071751124  1114.79064724742 201.377108995614  1113.81499479422 201.598442777224  L 1114.03623055114 202.57366313174  C 1115.01101909407 202.352525334393  1115.98610105296 202.132682926011  1116.96147384511 201.914136488888  L 1116.74283059634 200.938331626342  Z M 1120.64932091576 200.070291565051  C 1119.67231473233 200.285571080708  1118.69559504232 200.502148739396  1117.71916443177 200.720023967684  L 1117.9369431671 201.696022134917  C 1118.91250917834 201.478339828449  1119.88836401357 201.261953942513  1120.86450508805 201.046865050252  L 1120.64932091576 200.070291565051  Z M 1124.55886255622 199.2160993588  C 1123.58109967706 199.427915562242  1122.60361868902 199.641030915868  1121.62642218138 199.855444855151  L 1121.84074116069 200.832208580476  C 1122.81707239105 200.617984498103  1123.7936878498 200.405057851555  1124.77058495017 200.193429204809  L 1124.55886255622 199.2160993588  Z M 1128.47140642956 198.37576573282  C 1127.49289913124 198.584115964528  1126.51466911883 198.793766337129  1125.53671898356 199.004716295273  L 1125.74757551586 199.982233314453  C 1126.72465970653 199.771470145972  1127.70202352642 199.562005412315  1128.67966438679 199.353839668291  L 1128.47140642956 198.37576573282  Z M 1132.3869034099 197.549301238331  C 1131.40766397856 197.754182882263  1130.42869722441 197.96036564147  1129.45000574066 198.167848969788  L 1129.65739717844 199.14610700913  C 1130.63522206116 198.938807400881  1131.61332197042 198.732807210153  1132.59169431553 198.528106982578  L 1132.3869034099 197.549301238331  Z M 1136.30530433431 196.736716252415  C 1135.32534506527 196.938126736079  1134.34565386128 197.140839293063  1133.36623331748 197.344853386397  L 1133.57015705673 198.323840162901  C 1134.54871035394 198.120006717735  1135.52753407156 197.917473656473  1136.50662561698 197.716241515562  L 1136.30530433431 196.736716252415  Z M 1140.22656000337 195.938020977882  C 1139.24589320099 196.135957772368  1138.26548984816 196.335197581873  1137.2853525419 196.535739878624  L 1137.48580602217 197.51544310014  C 1138.46507544696 197.315078377431  1139.44461068324 197.116014988554  1140.4244091353 196.918253461018  L 1140.22656000337 195.938020977882  Z M 1144.15062118184 195.153225443141  C 1143.16925915936 195.347686063158  1142.18815596763 195.543450623529  1141.20731420551 195.74051860569  L 1141.4042949099 196.720925971074  C 1142.38426816697 196.524032486516  1143.36450262207 196.328441269629  1144.34499567883 196.134152838476  L 1144.15062118184 195.153225443141  Z M 1148.07743859924 194.382339502079  C 1147.09539367863 194.57332150598  1146.11360296672 194.765608359201  1145.13206906418 194.959199552387  L 1145.3255745194 195.940298751654  C 1146.30623930403 195.74687897748  1147.28716067052 195.554762388342  1148.26833602073 195.363949493097  L 1148.07743859924 194.382339502079  Z M 1152.00696295049 193.625372833932  C 1151.0242474623 193.81287382375  1150.04178155755 194.001680555468  1149.05956783873 194.19179252895  L 1149.24959561513 195.173571243426  C 1150.23093961409 194.983627608215  1151.21253557555 194.794988059039  1152.19438089957 194.607653095548  L 1152.00696295049 193.625372833932  Z M 1155.93914489651 192.882334943167  C 1154.9557711795 193.066352564678  1153.97264241817 193.251676804161  1152.98976121553 193.438307170935  L 1153.17630892711 194.420753073416  C 1154.15831981866 194.234287962097  1155.14057805018 194.04912782144  1156.12308101997 193.865273141879  L 1155.93914489651 192.882334943167  Z M 1159.87393506486 192.153235159361  C 1158.88991546668 192.333767101966  1157.9061361921 192.515606522438  1156.92259984709 192.698752939096  L 1157.10566515157 193.681853694  C 1158.08833060558 193.498869447828  1159.07123877393 193.31719104056  1160.0543870532 193.136818953405  L 1159.87393506486 192.153235159361  Z M 1163.81128405036 191.438082637085  C 1162.82663092614 191.615126634064  1161.84221349104 191.793478952274  1160.85803435273 191.97313911927  L 1161.03761495155 192.956882382793  C 1162.02092262968 192.777381299317  1163.00446839348 192.599186906589  1163.98824963782 192.422299676592  L 1163.81128405036 191.438082637085  Z M 1167.75114241568 190.736886355786  C 1166.76586812851 190.910440184213  1165.78082489365 191.085303160698  1164.79601531917 191.261474822258  L 1164.97210895752 192.245848242528  C 1165.95604651338 192.069832575561  1166.94021752322 191.89512443478  1167.92461938028 191.721724282935  L 1167.75114241568 190.736886355786  Z M 1171.69346069201 190.049655119679  C 1170.70757761339 190.219716600341  1169.72192094614 190.391088039669  1168.73649330117 190.56376898371  L 1168.909097768 191.548760200944  C 1169.89365284727 191.376232160537  1170.87843674593 191.205012465338  1171.86344685558 191.035101568855  L 1171.69346069201 190.049655119679  Z M 1175.63818937962 189.376397557632  C 1174.65170988789 189.542964555311  1173.66545216495 189.7108423056  1172.6794188221 189.880030364013  L 1172.84853195021 190.86562701067  C 1173.83369219104 190.696588763049  1174.81907661316 190.528859663334  1175.80468260781 190.36244015558  L 1175.63818937962 189.376397557632  Z M 1179.58527894854 188.717122123063  C 1178.59821543033 188.880192546274  1177.61136903434 189.044574499793  1176.62474237465 189.210267548184  L 1176.79036204064 190.196457249122  C 1177.77611507295 190.0309109168  1178.76208764687 189.866674518435  1179.74827715087 189.703748489039  L 1179.58527894854 188.717122123063  Z M 1183.53467983915 188.071837093827  C 1182.54704468782 188.231408895095  1181.55962201002 188.392292987796  1180.57241442135 188.55448894576  L 1180.73453854572 189.541259318389  C 1181.7208719926 189.379206979928  1182.70742033806 189.218465345133  1183.69418096901 189.05903483976  L 1183.53467983915 188.071837093827  Z M 1187.48634246281 187.440550572117  C 1186.4981480791 187.59662174786  1185.51016151755 187.754005959683  1184.52238539528 187.912702790689  L 1184.68101194239 188.90004144513  C 1185.66791341946 188.741485135259  1186.65502514935 188.584240282304  1187.64234451751 188.42830730276  L 1187.48634246281 187.440550572117  Z M 1191.44021720248 186.823270484362  C 1190.45147599394 186.975839074982  1189.46293795421 187.129721429749  1188.47460570064 187.284917141233  L 1188.62973267877 188.27281168047  C 1189.6171897945 188.117753390021  1190.60485251467 187.964007293272  1191.59271822326 187.811573797451  L 1191.44021720248 186.823270484362  Z M 1195.39625441334 186.220004581123  C 1194.406978795 186.369068670908  1193.41790168835 186.519447236602  1192.42902571338 186.671139879863  L 1192.58065117476 187.659577899902  C 1193.56865153065 187.508019575784  1194.55685284001 187.357774165676  1195.54525248539 187.208842067531  L 1195.39625441334 186.220004581123  Z M 1199.35526596708 185.633196952873  C 1198.51216363391 185.756327164594  1197.66920091596 185.880411468031  1196.82637943273 186.005449624792  C 1196.67944721464 186.027396995332  1196.53251932713 186.049373358701  1196.38559578184 186.071378713161  L 1196.53371782267 187.060347803183  C 1196.68034774697 187.038386425569  1196.82698199704 187.016453949315  1196.97362056718 186.994550375277  C 1197.8155322534 186.869647571208  1198.657584994 186.745697405748  1199.49977717206 186.622700116908  L 1199.35526596708 185.633196952873  Z M 1203.31604804951 185.061912908608  C 1202.3256003801 185.20297943919  1201.33534059579 185.345362006622  1200.34527131971 185.489060233743  L 1200.48890590554 186.47869102639  C 1201.4780985061 186.335120039574  1202.46748144548 186.192863547576  1203.45705210433 186.051921927014  L 1203.31604804951 185.061912908608  Z M 1207.27882957565 184.504667235837  C 1206.28788826358 184.642223291115  1205.29713017275 184.781096040654  1204.30655792639 184.921285116763  L 1204.44668491532 185.911418656734  C 1205.43638004039 185.771353713744  1206.42626084587 185.632603931687  1207.41632470986 185.49516967807  L 1207.27882957565 184.504667235837  Z M 1211.24356078885 183.961466931331  C 1210.25213827678 184.095510784096  1209.26089431857 184.230871972172  1208.26983153995 184.367550136998  L 1208.40644917254 185.358173992186  C 1209.39663439572 185.221616851646  1210.38700063796 185.08637552173  1211.37754527606 184.952450360651  L 1211.24356078885 183.961466931331  Z M 1215.21019190798 183.432318815509  C 1214.21830064379 183.562848782762  1213.22658326507 183.69469670967  1212.23504239755 183.82786224714  L 1212.36814895844 184.81896397928  C 1213.35881184698 184.685916355801  1214.34965109094 184.554185176115  1215.34066406589 184.423770789137  L 1215.21019190798 183.432318815509  Z M 1219.17867312805 182.917229532349  C 1218.18632556634 183.044243975103  1217.19414721827 183.17257698547  1216.20214071206 183.302228223504  L 1216.33173452995 184.293795388332  C 1217.32286264509 184.164258952458  1218.31416244981 184.036039577017  1219.30563131845 183.909137601623  L 1219.17867312805 182.917229532349  Z M 1223.14895462086 182.416205549307  C 1222.15616322133 182.539702872798  1221.16353636211 182.664519355222  1220.1710766726 182.790654665947  L 1220.29715612033 183.782674813355  C 1221.28873701748 183.656651191545  1222.2804849362 183.53194523027  1223.27239724967 183.408557259838  L 1223.14895462086 182.416205549307  Z M 1227.12098653559 181.929253157237  C 1226.12776376371 182.049231810833  1225.13470085675 182.170530198118  1224.14180044527 182.293147997781  L 1224.26436393978 183.285608671973  C 1225.25638516865 183.163099446578  1226.24856874901 183.041908465276  1227.24091205285 182.922036049067  L 1227.12098653559 181.929253157237  Z M 1231.09471899943 181.456378470308  C 1230.1010773261 181.572836947558  1229.10759084029 181.690615716684  1228.1142621737 181.809714465697  L 1228.23330817607 182.802603205344  C 1229.22575728086 182.683609914589  1230.218364065 182.565935434934  1231.21112589937 182.449580078063  L 1231.09471899943 181.456378470308  Z M 1235.07010211824 180.99758742593  C 1234.07605401941 181.110524264606  1233.08215642938 181.224781936696  1232.08841197968 181.340360139679  L 1232.20393899518 182.333664478082  C 1233.19680351471 182.218188616045  1234.18982103946 182.104032115556  1235.18298893925 181.99119527898  L 1235.07010211824 180.99758742593  Z M 1239.04708597714 180.55288578468  C 1238.05264393428 180.662299566724  1237.05834771898 180.773034707208  1236.06419996383 180.885090912939  L 1236.17620654191 181.878798378175  C 1237.16947400977 181.766841394771  1238.16288980683 181.656204306796  1239.15645130182 181.546887407294  L 1239.04708597714 180.55288578468  Z M 1243.02562064117 180.122279130227  C 1242.03079714068 180.228168481819  1241.03611478407 180.335379700352  1240.04157620619 180.443912501831  L 1240.15006094049 181.43801061692  C 1241.14371888523 181.329573917879  1242.13752048127 181.222457631576  1243.13146309632 181.11666204173  L 1243.02562064117 180.122279130227  Z M 1247.00565615587 179.705772869265  C 1246.01046368855 179.808136460881  1245.01540768027 179.911822411274  1244.02049076686 180.016830445787  L 1244.12545229525 181.011306728842  C 1245.11948824051 180.906391675694  1246.11366315736 180.802797536015  1247.10797441254 180.700524584193  L 1247.00565615587 179.705772869265  Z M 1250.98714254796 179.303372231441  C 1249.99159360944 179.402208777805  1248.99617644339 179.502368158179  1248.00089368663 179.603850107248  L 1248.10233069121 180.598692071632  C 1249.09673215589 180.497299981691  1250.0912679107 180.397229289361  1251.08593532144 180.298480259702  L 1250.98714254796 179.303372231441  Z M 1254.97002982593 178.915082269296  C 1253.9741369163 179.010390529418  1252.97837109095 179.107022082172  1251.98273498759 179.204976671588  L 1252.08064619472 180.200171826076  C 1253.07540069312 180.102303972419  1254.07028479852 180.005757983927  1255.06529587579 179.910534116321  L 1254.97002982593 178.915082269296  Z M 1258.95426798069 178.540907858194  C 1257.95804360438 178.632686635384  1256.96194162254 178.725789147213  1255.96596467378 178.82021514706  L 1256.0603488541 179.815750995991  C 1257.05544389608 179.721408607446  1258.0506638603 179.628388535021  1259.04600611075 179.5366910251  L 1258.95426798069 178.540907858194  Z M 1262.93980698617 178.180853696266  C 1261.94326365176 178.26910183815  1260.94683802049 178.35867414006  1259.95053273181 178.449570364727  L 1260.04138870021 179.445434408161  C 1261.03681179138 179.35461866929  1262.03235511846 179.265125680892  1263.02801604458 179.176955680008  L 1262.93980698617 178.180853696266  Z M 1266.92659679998 177.834924304349  C 1265.92974702007 177.919640702884  1264.93301025047 178.005681670206  1263.93638913147 178.0930469784  L 1264.02371574718 179.089226712277  C 1265.01945438901 179.001938763362  1266.01530857891 178.915973982664  1267.01127567919 178.831332597879  L 1266.92659679998 177.834924304349  Z M 1270.91458736403 177.503124025928  C 1269.91744365505 177.584307617416  1268.92040826214 177.666816169821  1267.92348382639 177.750649464583  L 1268.00727999293 178.747132380881  C 1269.00332168293 178.663373317908  1269.99947423173 178.580937824283  1270.99573500081 178.499826118354  L 1270.91458736403 177.503124025928  Z M 1274.90372860515 177.185457027086  C 1273.90630348722 177.263106792186  1272.90898198977 177.342081893697  1271.91176675464 177.422382122418  L 1271.99203141987 178.419155709305  C 1272.98836365176 178.338926583952  1273.98480205176 178.26002141246  1274.9813439806 178.182440403824  L 1274.90372860515 177.185457027086  Z M 1278.89397043571 176.881927296445  C 1277.89627643249 176.956042260189  1276.89868135287 177.031482919195  1275.90118783939 177.108249073626  L 1275.9779199955 178.105300815622  C 1276.97453025933 178.028602635246  1277.97124199926 177.953228776619  1278.9680525753 177.879179439383  L 1278.89397043571 176.881927296445  Z M 1282.88526275427 176.592538645123  C 1281.88731239281 176.663117876923  1280.8894562568 176.735023146192  1279.89169698948 176.808254262458  L 1279.96489567304 177.805571640591  C 1280.96177145539 177.732405368213  1281.95874402054 177.660563768844  1282.95581072783 177.590047032771  L 1282.88526275427 176.592538645123  Z M 1286.87755544621 176.317294706682  C 1285.87936125675 176.384337320345  1284.88125659343 176.452706297035  1283.88324410013 176.522401455647  L 1283.95290839205 177.519971947608  C 1284.95003717615 177.450338501903  1285.94725804856 177.382030063835  1286.94456836793 177.315046814332  L 1286.87755544621 176.317294706682  Z M 1290.87079838432 176.05619893708  C 1289.8723729002 176.119704090821  1288.87403224175 176.184535916491  1287.87577905352 176.250694242357  L 1287.94190807908 177.248505322661  C 1288.939277345 177.182405577947  1289.93673400356 177.11763115886  1290.9342754128 177.054182236968  L 1290.87079838432 176.05619893708  Z M 1294.8649414295 175.809254614635  C 1293.86629718692 175.869221511083  1292.86773306851 175.930515371706  1291.86925171939 175.993136034142  L 1291.93184464829 176.991175174283  C 1292.92944187306 176.928609960506  1293.92712179372 176.867370373707  1294.92488176771 176.807456576091  L 1294.8649414295 175.809254614635  Z M 1298.85993443131 175.576464839977  C 1297.86108396925 175.632892726188  1296.86230892884 175.69064785216  1295.86361195576 175.749730064902  L 1295.92266800208 176.747984733507  C 1296.92048065988 176.688954836237  1297.91837131578 176.63125085065  1298.91633732665 176.574872929586  L 1298.85993443131 175.576464839977  Z M 1302.85572722867 175.357832536012  C 1301.85668308847 175.41072070349  1300.85770966708 175.464936369614  1299.85880960946 175.520479390838  L 1299.91432803169 176.518937053832  C 1300.91234359401 176.463443214247  1301.91043245563 176.409275554402  1302.90859197294 176.356434217772  L 1302.85572722867 175.357832536012  Z M 1306.85226965042 175.153360447886  C 1305.8530443765 175.202708232545  1304.8538851164 175.253383758135  1303.85479451684 175.30538689042  L 1303.9067746179 176.304035011178  C 1304.90498055364 176.252077926058  1305.903255089 176.201447272085  1306.90159557986 176.152143183362  L 1306.85226965042 175.153360447886  Z M 1310.84951151603 174.963051142948  C 1309.85011765443 175.008857925189  1308.85078510148 175.055992673941  1307.85151650434 175.104455264348  L 1307.89995763156 176.103281303853  C 1308.89834140727 176.054861625571  1309.89678908204 176.007768613186  1310.89529801129 175.962002391434  L 1310.84951151603 174.963051142948  Z M 1314.84740263616 174.78690701072  C 1313.84785273527 174.829172215394  1312.84835943707 174.872765595484  1311.84892538916 174.917687035517  L 1311.89382693431 175.916678452518  C 1312.89237601429 175.871796789031  1313.89098429198 175.828242009535  1314.88964912235 175.786014229393  L 1314.84740263616 174.78690701072  Z M 1318.84589281333 174.624930262867  C 1317.84619942327 174.663653359299  1316.84655792987 174.703704823354  1315.84697097986 174.745084548987  L 1315.88833237917 175.744228800158  C 1316.88703422565 175.702885715  1317.88579056773 175.662869715266  1318.88459876 175.624180906946  L 1318.84589281333 174.624930262867  Z M 1322.84493184252 174.477122933166  C 1321.84510751586 174.512303435134  1320.84533037792 174.5488124803  1319.84560307704 174.586649971954  L 1319.88342381116 175.585934512048  C 1320.88226588465 175.548130524314  1321.88115775033 175.511653806798  1322.88009676369 175.476504456069  L 1322.84493184252 174.477122933166  Z M 1326.84446951184 174.343486877486  C 1325.84452680215 174.375124343272  1324.84462657328 174.408090511125  1323.84477147388 174.442385293722  L 1323.87905106795 175.441797575731  C 1324.87802082659 175.407533160104  1325.87703567462 175.374596182776  1326.87609296598 175.342986730987  L 1326.84446951184 174.343486877486  Z M 1330.84445560314 174.22402377376  C 1329.84440706569 174.252117806123  1328.84439630062 174.281540682741  1327.84442595688 174.312292325675  L 1327.87516398048 175.311819800987  C 1328.87424888141 175.281095387683  1329.87337416777 175.251698564115  1330.87253719317 175.223629408148  L 1330.84445560314 174.22402377376  Z M 1334.84483989262 174.118735121964  C 1333.84469808402 174.143285368157  1332.84458933888 174.169164584106  1331.84451630641 174.19637270126  L 1331.87171237359 175.196002819818  C 1332.87089987232 175.168818794611  1333.87012305199 175.14296249391  1334.86937926596 175.118433986201  L 1334.84483989262 174.118735121964  Z M 1338.8455721515 174.027622244103  C 1337.8453496293 174.048628395877  1336.84515546186 174.070963626209  1335.84499229737 174.094627875962  L 1335.86864606666 175.09434808642  C 1336.8679236174 175.070704790634  1337.86723214414 175.04838933745  1338.86656900003 175.027401785977  L 1338.8455721515 174.027622244103  Z M 1342.84660214661 173.950686284188  C 1341.84631147002 173.968148077783  1340.84604443788 173.986939042075  1339.84580369982 174.00705912729  L 1339.86591487422 175.006856877169  C 1340.86526993005 174.986754607668  1341.86465125656 174.967980282195  1342.8640562067 174.950533950479  L 1342.84660214661 173.950686284188  Z M 1346.84787964106 173.887928208228  C 1345.84753336952 173.901845424396  1344.84720603244 173.9170918867  1343.84690027961 173.933667554754  L 1343.86346860661 174.933530290604  C 1344.86288861963 174.916969299791  1345.86233019769 174.901736337759  1346.86179069355 174.887831444856  L 1346.84787964106 173.887928208228  Z M 1350.84935439486 173.839348804212  C 1349.84896508869 173.849721268209  1348.84859000677 173.861423037091  1347.84823179901 173.87445407986  L 1347.86125707057 174.874369247412  C 1348.86072949208 174.861349743228  1349.8602187727 174.849658335902  1350.85972226508 174.839295056401  L 1350.84935439486 173.839348804212  Z M 1354.8509761655 173.804948682102  C 1353.8505563856 173.811776263692  1352.85014611953 173.819933192224  1351.84974801733 173.829419446091  L 1351.85923006991 174.82937449042  C 1352.85874235075 174.819896636335  1353.85826678394 174.811746930516  1354.85780072328 174.804925394537  L 1354.8509761655 173.804948682102  Z M 1358.85269470868 173.784728273827  C 1357.85225701609 173.788010887283  1356.85182412744 173.792622873045  1355.85139869157 173.798564218901  L 1355.85733740612 174.79854658458  C 1356.856876996 174.792610499603  1357.85642403257 174.788002597611  1358.85597586833 174.784722890808  L 1358.85269470868 173.784728273827  Z M 1362.85445977885 173.778687833272  C 1361.85401673547 173.778425437377  1360.85357378483 173.779492422465  1359.85313357705 173.781888785709  L 1359.85552887899 174.781885916969  C 1360.85508322792 174.779491675631  1361.85464031715 174.778425635326  1362.85419749916 174.778687798877  L 1362.85445977885 173.778687833272  Z M 1366.85622112988 173.786827436283  C 1365.85578529705 173.783020034332  1364.8553448464 173.780542005347  1363.85490242802 173.77939335589  L 1363.85375428728 174.779392696776  C 1364.85331084485 174.780540329139  1365.85286543631 174.783016163907  1366.85241541415 174.786820194521  L 1366.85622112988 173.786827436283  Z M 1370.85792851569 173.809146980658  C 1369.85751245489 173.801794620457  1368.85708706574 173.795771608512  1367.8566549983 173.791077960778  L 1367.85196342929 174.791066955308  C 1368.85150964509 174.795756446962  1369.85104918839 174.801774125716  1370.85057941171 174.809119975629  L 1370.85792851569 173.809146980658  Z M 1374.85953169088 173.845646186154  C 1373.85914796332 173.834748960018  1372.85875019701 173.825181040739  1371.85834104192 173.816942453661  L 1371.85010610356 174.816908545981  C 1372.84962942729 174.825139838045  1373.84914137221 174.834699285227  1374.84863929093 174.845586862206  L 1374.85953169088 173.845646186154  Z M 1378.86098041136 173.896324594486  C 1377.86064157785 173.881882639242  1376.86028399536 173.868769932763  1375.85991031375 173.856986509785  L 1375.84813210944 174.856917144331  C 1376.84761999109 174.868690133453  1377.84709178778 174.881791229034  1378.8465448522 174.896220396373  L 1378.86098041136 173.896324594486  Z M 1382.86222443498 173.961181569337  C 1381.86194305556 173.943195066314  1380.86163821777 173.926537737286  1379.86131257013 173.911209626356  L 1379.84599124774 174.911092248007  C 1380.84543113797 174.926406786369  1381.84485023665 174.943049365845  1382.84424589785 174.961019942377  L 1382.86222443498 173.961181569337  Z M 1386.86321352215 174.040216296364  C 1385.86300215675 174.018685471407  1384.86276262267 173.998483728964  1383.86249756948 173.979611122549  L 1383.8436333214 174.979433176789  C 1384.84301267083 174.998289072095  1385.84236652362 175.018472926517  1386.8416922328 175.039984686595  L 1386.86321352215 174.040216296364  Z M 1390.86389743649 174.133427783207  C 1389.86376864355 174.108352906653  1388.86360697259 174.084607004456  1387.86341507297 174.062190139517  L 1387.84100813605 175.061939072589  C 1388.84031439668 175.084336088087  1389.8395904553 175.10806096402  1390.83883366514 175.133113637546  L 1390.86389743649 174.133427783207  Z M 1394.86422594545 174.240814859503  C 1393.86419228258 174.212196246193  1392.86412103275 174.184906482395  1391.8640148451 174.158945640398  L 1391.83806550068 175.158608899463  C 1392.83728612524 175.184546753937  1393.83647184279 175.21181235349  1394.83562000679 175.240405625904  L 1394.86422594545 174.240814859503  Z M 1398.86414882093 174.362376176901  C 1397.86422284454 174.33021418617  1396.86425457275 174.299380903421  1395.86424665438 174.26987641033  L 1395.83475522829 175.269441443625  C 1396.83387767057 175.2989198114  1397.83296050129 175.329725792228  1398.83200107415 175.361859304511  L 1398.86414882093 174.362376176901  Z M 1402.86361583995 174.49811020908  C 1401.86381010511 174.462405244752  1400.86395736693 174.428028830195  1399.86406027395 174.394981056468  L 1399.83102713647 175.394435313464  C 1400.83003885151 175.42745382441  1401.8290062509 175.461799799712  1402.82792668869 175.497473148398  L 1402.86361583995 174.49811020908  Z M 1406.86257678524 174.648015251762  C 1405.86290384549 174.60876776215  1404.86317919506 174.570848647414  1403.86340548216 174.534258007999  L 1403.82683104807 175.533588939558  C 1404.82571949227 175.570147179094  1405.82455891733 175.608032717622  1406.82334667761 175.647245454796  L 1406.86257678524 174.648015251762  Z M 1410.86098144586 174.812089422742  C 1409.86145385289 174.769299900628  1408.86186984317 174.727838561843  1407.86223206329 174.687705516162  L 1407.82211679181 175.686900574694  C 1408.82086942315 175.726998083795  1409.81956833245 175.76842270986  1410.81821087445 175.811174343168  L 1410.86098144586 174.812089422742  Z M 1414.85877961791 174.990330661907  C 1413.85940992218 174.943999644573  1412.85997910311 174.898996602292  1411.86048980811 174.855321654273  L 1411.81683420292 175.854368293893  C 1412.81543848107 175.898004569096  1413.81398433495 175.94296776257  1414.81246911973 175.989257755222  L 1414.85877961791 174.990330661907  Z M 1418.85592110504 175.18273673126  C 1417.85672185444 175.132864800429  1416.85745677527 175.084320619728  1415.85812851452 175.037104317745  L 1415.81093312377 176.035989994433  C 1416.80937651025 176.083164487841  1417.80775677099 176.131665684166  1418.80607126157 176.181493454945  L 1418.85592110504 175.18273673126  Z M 1422.85251425632 175.390952254945  C 1421.96862740384 175.343261587287  1421.0846907809 175.296497874307  1420.20070584526 175.250661193126  C 1420.08550412449 175.244773553086  1419.97030150768 175.238903563529  1419.85509798821 175.233051224116  L 1419.80436340448 176.231763395872  C 1419.91934121859 176.237604269451  1420.03431813854 176.243462739959  1420.14929415942 176.249338807144  C 1421.03245718559 176.2951331305  1421.91557195053 176.341853494026  1422.7986369982 176.389499820691  L 1422.85251425632 175.390952254945  Z M 1426.84793516406 175.612860555952  C 1425.84916832191 175.55580503474  1424.85033420683 175.499933293034  1423.85143492404 175.445245448593  L 1423.79676868319 176.443750131662  C 1424.7948790002 176.49839478172  1425.79292420077 176.554222393949  1426.79090218175 176.611232850704  L 1426.84793516406 175.612860555952  Z M 1430.84263475625 175.847395611326  C 1429.84405323136 175.787183688754  1428.84540069244 175.728155327153  1427.84667924433 175.670310650936  L 1427.78885741876 176.668637569579  C 1428.78679004155 176.726436558036  1429.78465380938 176.78541829695  1430.78244661947 176.845582662029  L 1430.84263475625 175.847395611326  Z M 1434.83657312859 176.094555078222  C 1433.83818689589 176.031187355752  1432.8397259094 175.969002963935  1431.8411922723 175.908002033759  L 1431.78021543961 176.906141215374  C 1432.77796039952 176.967093964858  1433.77563276663 177.029229241269  1434.77323043857 177.09254691367  L 1434.83657312859 176.094555078222  Z M 1438.82971038435 176.354336487686  C 1437.83152941725 176.287813598331  1436.83326995671 176.222473797453  1435.8349341055 176.158317222686  L 1435.77080287481 177.156258696547  C 1436.76835020505 177.220364598181  1437.76582120538 177.285652791401  1438.76321377385 177.352123138625  L 1438.82971038435 176.354336487686  Z M 1442.82200663484 176.62673724468  C 1441.82404090448 176.557059852958  1440.82599294183 176.488565295719  1439.82786484919 176.421253717242  L 1439.76057986113 177.418987514596  C 1440.75791959689 177.486245928007  1441.75517926638 177.55468638585  1442.75235676811 177.624308743904  L 1442.82200663484 176.62673724468  Z M 1446.81342199975 176.911754628106  C 1445.81568147533 176.838923430062  1444.81785497996 176.767274800646  1443.81994461673 176.696808890871  L 1443.74950654342 177.69432504504  C 1444.74662872196 177.764735298362  1445.74366709868 177.836327337157  1446.74061957255 177.90910101056  L 1446.81342199975 176.911754628106  Z M 1450.80391660758 177.209385790837  C 1449.80641125563 177.133401513989  1448.80881619556 177.058599528146  1447.81113352997 176.984979990964  L 1447.73754307505 177.982268537446  C 1448.73443773579 178.055829927328  1449.73124486 178.130572831919  1450.72796234714 178.206497093712  L 1450.80391660758 177.209385790837  Z M 1454.793450596 177.51962775974  C 1453.79619038093 177.44049116312  1452.79883672146 177.36253656807  1451.80139171966 177.28576413889  L 1451.72464961825 178.282815115455  C 1452.7213068029 178.359526907071  1453.71787271719 178.437419930826  1454.71434526107 178.516494022578  L 1454.793450596 177.51962775974  Z M 1458.78198411232 177.842477435711  C 1457.78497899608 177.76018930984  1456.78787670007 177.679082884295  1455.79067932587 177.599158330021  L 1455.71078634456 178.595961776814  C 1456.70719609741 178.67582320388  1457.70351084635 178.756865568669  1458.69972849311 178.839088700502  L 1458.78198411232 177.842477435711  Z M 1462.76947731382 178.177931593704  C 1461.77273725579 178.092492760583  1460.77589628363 178.008235314741  1459.77895649834 177.925159433765  L 1459.69591343521 178.9217053934  C 1460.6920658026 179.004715658141  1461.6881194341 179.088906554438  1462.68407223199 179.174277904982  L 1462.76947731382 178.177931593704  Z M 1466.75589036816 178.525986882759  C 1465.7594253249 178.437398195846  1464.76285563475 178.349990571418  1463.76618339692 178.263764193593  L 1463.67999108151 179.26004271126  C 1464.67587611256 179.346200984459  1465.67165867673 179.433539571255  1466.66733667686 179.522058287708  L 1466.75589036816 178.525986882759  Z M 1470.74118345382 178.886639826045  C 1469.74500337974 178.794902170316  1468.74871492582 178.704345240371  1467.75232019193 178.614969227076  L 1467.66297948525 179.610970350634  C 1468.65858723175 179.70027577163  1469.6540887814 179.790761176471  1470.64948203763 179.882426374593  L 1470.74118345382 178.886639826045  Z M 1474.72531676044 179.259886820883  C 1473.72943160649 179.165001112717  1472.73343434146 179.071295781894  1471.7373270646 178.978771025915  L 1471.6448388591 179.974484805996  C 1472.6401593754 180.066936482669  1473.63536996657 180.160567801708  1474.63046853541 180.255378565805  L 1474.72531676044 179.259886820883  Z M 1478.70825048927 179.645724138795  C 1477.71267020365 179.547691326034  1476.71697407684 179.450838530384  1475.72116420745 179.355165955981  L 1475.62552942701 180.350582446085  C 1476.62055277096 180.446179454945  1477.61546246135 180.542955752791  1478.61025640285 180.64091113581  L 1478.70825048927 179.645724138795  Z M 1482.68994485351 180.044147925527  C 1481.69467938119 179.942968987431  1480.69929433934 179.84296969449  1479.70379182466 179.744150257345  L 1479.60501142462 180.739259513944  C 1480.59972765621 180.838000900003  1481.59432650817 180.937921210007  1482.58880588461 181.039020233398  L 1482.68994485351 180.044147925527  Z M 1486.67036007878 180.4551542011  C 1485.67541936219 180.35083014842  1484.68035534768 180.247685357028  1483.68517013251 180.145720044321  L 1483.58324509963 181.140512126955  C 1484.57764428252 181.242396903873  1485.57192236028 181.34546022786  1486.5660772377 181.449701881735  L 1486.67036007878 180.4551542011  Z M 1490.64945640344 180.878738859842  C 1489.65485038095 180.77127073466  1488.66011733462 180.66498147525  1487.66525935977 180.559871305502  L 1487.5601907122 181.554336276879  C 1488.55426291302 181.659363426897  1489.54821028443 181.765568735335  1490.5420307319 181.872951978391  L 1490.64945640344 180.878738859842  Z M 1494.62719407906 181.314897670433  C 1493.63293268651 181.204286546327  1492.63854054423 181.094853880566  1491.64401974807 180.9865999038  L 1491.53580853537 181.980727829896  C 1492.52954382403 182.088896303865  1493.52315056023 182.198242535836  1494.51662665017 182.308766295387  L 1494.62719407906 181.314897670433  Z M 1498.60353337075 181.763626275945  C 1497.60962653993 181.649873257821  1496.61558523542 181.537298278912  1495.62141155231 181.425901576489  L 1495.51005885544 182.419682526647  C 1496.5034473052 182.530991244038  1497.49670348075 182.643477307248  1498.489825289 182.757140479237  L 1498.60353337075 181.763626275945  Z M 1502.57843455762 182.224920193886  C 1501.58489221697 182.10802641806  1500.59121168001 181.992310250549  1499.59739504108 181.877771935245  L 1499.48290197237 182.871195982275  C 1500.47593365997 182.98564383119  1501.46882935291 183.10126860198  1502.46158695887 183.218070050991  L 1502.57843455762 182.224920193886  Z M 1506.55185793312 182.698774816246  C 1505.55869000745 182.578741450407  1504.56538016423 182.45988525022  1503.57193049703 182.342206466194  L 1503.45429820019 183.335263686469  C 1504.44696320612 183.452849523677  1505.43948849769 183.571611846985  1506.4318719846 183.691550406276  L 1506.55185793312 182.698774816246  Z M 1510.52376380547 183.185185409543  C 1509.53098021585 183.062013652741  1508.53805098886 182.940018607169  1507.54497821726 182.819200529953  L 1507.42420786735 183.811881003512  C 1508.41649627516 183.932603654362  1509.40864125154 184.054502343933  1510.40064070577 184.17757681535  L 1510.52376380547 183.185185409543  Z M 1514.49411249805 183.684147114867  C 1513.50172316151 183.557838197478  1512.50918446984 183.43270552522  1511.51649851375 183.308749361678  L 1511.3925913172 184.301043172322  C 1512.38449321481 184.424901430902  1513.37624796473 184.549935269002  1514.36785347708 184.67614442314  L 1514.49411249805 183.684147114867  Z M 1518.46286434981 184.195654947933  C 1517.47087917983 184.066210131721  1516.47874093785 183.937941082717  1515.48645171373 183.81084807111  L 1515.35940890828 184.802745306505  C 1516.35091438727 184.929737935556  1517.3422690038 185.057905673182  1518.3334706688 185.187248249299  L 1518.46286434981 184.195654947933  Z M 1522.42997971562 184.719703799127  C 1521.43840862146 184.587124377158  1520.44668073995 184.455720232728  1519.4547981601 184.325491642629  L 1519.32462101482 185.3169823944  C 1520.31572017073 185.447108125352  1521.30666475089 185.578408482197  1522.29745266713 185.710883188248  L 1522.42997971562 184.719703799127  Z M 1526.39541896672 185.256288433561  C 1525.4042718535 185.120575730213  1524.41296423915 184.986037802993  1523.42149821178 184.852674935297  L 1523.28818802705 185.84374929913  C 1524.27887095948 185.977006832116  1525.26939560443 186.111438496579  1526.25975987461 186.247044009234  L 1526.39541896672 185.256288433561  Z M 1530.35914249109 185.805403491122  C 1529.36842925989 185.6665588621  1528.37755181477 185.528888495976  1527.38651224416 185.392392682913  L 1527.25007035166 186.383040758655  C 1528.24032716436 186.519428762525  1529.23042197944 186.656990391725  1530.22035271049 186.795725356377  L 1530.35914249109 185.805403491122  Z M 1534.32111069385 186.367043486526  C 1533.33084124101 186.225068318765  1532.34040386371 186.084266889025  1531.34980064947 185.944639494069  L 1531.21022841216 186.934851385823  C 1532.20004921315 187.074368498152  1533.18970430798 187.215058717945  1534.17919161118 187.356921748726  L 1534.32111069385 186.367043486526  Z M 1538.28128399764 186.941202809375  C 1537.29146821528 186.796098521109  1536.3014807996 186.652167434263  1535.31132383717 186.509409852195  L 1535.16862264928 187.499175668423  C 1536.15799755092 187.641820495533  1537.14720303953 187.785637900517  1538.13623703058 187.930627580313  L 1538.28128399764 186.941202809375  Z M 1542.23962284305 187.527875724209  C 1541.25027061875 187.379643764932  1540.26074305398 187.232584458752  1539.27104223435 187.086698115623  L 1539.12521352137 188.076007969243  C 1540.11413264049 188.221779086208  1541.10287864139 188.368722239748  1542.09144944052 188.516837120211  L 1542.23962284305 187.527875724209  Z M 1546.19608768898 188.127056370569  C 1545.20720890569 187.975698221015  1544.21815107654 187.825512164524  1543.22891628615 187.676498517639  L 1543.0799615048 188.665342526122  C 1544.06841496277 188.814238476789  1545.05669159907 188.964305911022  1546.04478933113 189.115544512587  L 1546.19608768898 188.127056370569  Z M 1550.15063901307 188.73873876305  C 1549.16224354901 188.584255935184  1548.17366533549 188.430944628638  1547.1849064561 188.27880516654  L 1547.03282709435 189.267173452012  C 1548.0208050172 189.419192749013  1549.00860241669 189.572382964869  1549.99621721126 189.726743776765  L 1550.15063901307 188.73873876305  Z M 1554.10323731204 189.362916791364  C 1553.1153350404 189.205310828332  1552.12724631814 189.048875803269  1551.13897322659 188.893612045696  L 1550.98377080359 189.881494735035  C 1551.9712633221 190.036635859801  1552.95857161736 190.192947327014  1553.94569360884 190.350428807282  L 1554.10323731204 189.362916791364  Z M 1558.05384310216 189.9995842204  C 1557.06644389161 189.838856696608  1556.07885453052 189.679299515645  1555.09107709918 189.520913013607  L 1554.93275316531 190.508300238542  C 1555.9197504151 190.666561641318  1556.9065597436 190.825992798444  1557.89317907132 190.986593373952  L 1558.05384310216 189.9995842204  Z M 1562.00241691957 190.648734690287  C 1561.01553063376 190.484887211327  1560.02845049878 190.322209468263  1559.04117859506 190.160701803965  L 1558.87973473187 191.147583701174  C 1559.86622685352 191.308963801039  1560.8525273577 191.471513055469  1561.83863416602 191.635231121928  L 1562.00241691957 190.648734690287  Z M 1565.94891932072 191.310361716455  C 1564.96255581756 191.143395918984  1563.97599476976 190.977599238993  1562.98923825544 190.81297202572  L 1562.82467607564 191.799338736928  C 1563.81065321476 191.963835921804  1564.79643504217 192.129501649784  1565.78201948054 192.296335571762  L 1565.94891932072 191.310361716455  Z M 1569.89331088277 191.984458689705  C 1568.90748001576 191.814376241665  1567.92144790939 191.645462280805  1566.9352166419 191.477717163138  L 1566.76753778935 192.463558835217  C 1567.75299009691 192.631171461926  1568.73824339984 192.799952008497  1569.72329562317 192.969900119473  L 1569.89331088277 191.984458689705  Z M 1573.83555220394 192.671018876268  C 1572.85026382044 192.497821476597  1571.86477050611 192.325791922342  1570.87907433681 192.154930575871  L 1570.7082804865 193.140237360938  C 1571.69319811811 193.310963755074  1572.67791305538 193.482857434375  1573.66242322326 193.655918036613  L 1573.83555220394 192.671018876268  Z M 1577.77560390393 193.370035417879  C 1576.79086784672 193.193724796772  1575.80592316801 193.018581367437  1574.82077194373 192.84460549902  L 1574.6468648018 193.829367554535  C 1575.63123791899 194.003206010694  1576.61540465357 194.178211105554  1577.59936293161 194.354382470333  L 1577.77560390393 193.370035417879  Z M 1581.71342662434 194.081501331841  C 1580.72925273005 193.902079250484  1579.74486652629 193.723823695705  1578.76027008782 193.546735043206  L 1578.58325139146 194.530942532071  C 1579.56707016103 194.707891313724  1580.55067886176 194.886006075963  1581.5340754209 195.065286443451  L 1581.71342662434 194.081501331841  Z M 1585.64898102901 194.805409511098  C 1584.66537912865 194.622877761757  1583.6815612336 194.441511862258  1582.69752941618 194.261312194635  L 1582.51740093369 195.244955285291  C 1583.50065552797 195.425012624842  1584.48369636927 195.606235275215  1585.46652138605 195.788622854524  L 1585.64898102901 194.805409511098  Z M 1589.58222780444 195.541752724301  C 1588.59920772394 195.356113130419  1587.61596796444 195.171638697772  1586.63251059829 194.98832981517  L 1586.44927412902 195.971398681696  C 1587.43195472597 196.154562780496  1588.41441788794 196.338891508714  1589.39666154461 196.524384477916  L 1589.58222780444 195.541752724301  Z M 1593.5131276602 196.290523615888  C 1592.53069921904 196.101778031839  1591.5480474174 195.914196908892  1590.56517432637 195.727780642405  L 1590.37883170075 196.710265464616  C 1591.36092848405 196.896534492981  1592.34280415255 197.083967457724  1593.32445663717 197.272563963873  L 1593.5131276602 196.290523615888  Z M 1597.44164132928 197.051714706149  C 1596.45981434106 196.859865017333  1595.4777603137 196.669179077972  1594.49548131582 196.479657289731  L 1594.30603439527 197.461548253277  C 1595.28753755445 197.650920350506  1596.26881592122 197.841455679449  1597.24986742776 198.033153838594  L 1597.44164132928 197.051714706149  Z M 1601.36772956854 197.825318391307  C 1600.38651384143 197.630366514251  1599.40506739758 197.436577663139  1598.42339230555 197.243952246415  L 1598.23084298252 198.225239542878  C 1599.21174271325 198.417712817314  1600.19241397558 198.611348607059  1601.1728547042 198.806146504308  L 1601.36772956854 197.825318391307  Z M 1605.29135315902 198.611326943591  C 1604.31075849451 198.41327482569  1603.32992943855 198.216384998725  1602.34886805843 198.020657877675  L 1602.15321825635 199.001331704667  C 1603.1335047597 199.196904233554  1604.11355912218 199.393638549971  1605.09337927855 199.591534239345  L 1605.29135315902 198.611326943591  Z M 1609.21247290643 199.409732511314  C 1608.23250909997 199.208582130973  1607.25230722973 199.008593294948  1606.27186936164 198.809766424752  L 1606.07312103493 199.789816986013  C 1607.05278451871 199.988486815756  1608.03221219085 200.188317693525  1609.01140198744 200.389309198222  L 1609.21247290643 199.409732511314  Z M 1613.13104964146 200.22052711895  C 1612.15172648202 200.016280485481  1611.17216158944 199.813194638234  1610.19235702709 199.611270004995  L 1609.9905121611 200.590687510491  C 1610.96954283914 200.792452656513  1611.94833403714 200.99537809946  1612.92688369251 201.199463411713  L 1613.13104964146 200.22052711895  Z M 1617.04704422021 201.043702667218  C 1616.06837149077 200.836361820947  1615.08945336062 200.630180991083  1614.11029189179 200.425160611929  L 1613.90535250281 201.40393527795  C 1614.88374059528 201.608793724756  1615.86188554167 201.814811705796  1616.83978528078 202.021988786932  L 1617.04704422021 201.043702667218  Z M 1620.96041752459 201.879250933157  C 1619.9824050014 201.668817945277  1619.00414341241 201.459544192401  1618.02563481826 201.251430115347  L 1617.8176029535 202.229552164604  C 1618.79533868695 202.437501865799  1619.77282761075 202.646610326952  1620.75006766505 202.856877107414  L 1620.96041752459 201.879250933157  Z M 1624.87113046266 202.727163570212  C 1623.89378791561 202.513640542849  1622.91619263954 202.301275957374  1621.93834669489 202.09007026138  L 1621.72722443244 203.067529923105  C 1622.70429804018 203.278568801456  1623.68112117653 203.490765653785  1624.65769178427 203.704120033196  L 1624.87113046266 202.727163570212  Z M 1628.77914396909 203.587432108317  C 1627.80248116076 203.370821174331  1626.82556196392 203.15536787781  1625.84838843638 202.941072672589  L 1625.63417788521 203.917860182628  C 1626.61057960653 204.131986129916  1627.58672719845 204.347269253894  1628.56261860395 204.563709100902  L 1628.77914396909 203.587432108317  Z M 1632.68441900549 204.460047953978  C 1631.70844569248 204.240351277254  1630.73221233282 204.021811421739  1629.75572098409 203.804428848043  L 1629.53842428402 204.780534448958  C 1630.51414436554 204.997745326253  1631.48960666157 205.216112571263  1632.46480911655 205.435635723825  L 1632.68441900549 204.460047953978  Z M 1636.58691656086 205.345002390361  C 1635.61164249226 205.122222165473  1634.63610472208 204.900597934117  1633.66030530645 204.680130163404  L 1633.43992462812 205.655544104569  C 1634.41495332326 205.87583774213  1635.38972057881 206.097286926739  1636.36422434185 206.319891192017  L 1636.58691656086 205.345002390361  Z M 1639.40942624287 205.993140902971  C 1638.79375775912 205.85102227888  1638.17798297191 205.709364561833  1637.56210239932 205.568167871015  L 1637.33863994418 206.542880408713  C 1638.31296751289 206.766254605912  1639.28702999109 206.990783518087  1640.26082532738 207.21646667237  L 1639.40942624287 205.993140902971  Z M 772.336316826743 338.051879076675  C 771.472530762785 338.556521695956  770.609343114995 339.062187915576  769.746755702689 339.568876669758  L 770.253244297311 340.431123330242  C 771.115150407746 339.924834776656  771.977656279409 339.419567950097  772.840760094759 338.915323915303  L 772.336316826743 338.051879076675  Z M 1637.56680452632 213.760845546037  L 1650 209  L 1641.02629663178 199.165232699286  L 1637.56680452632 213.760845546037  Z " fill-rule="nonzero" fill="#1f8aee" stroke="none" />
  </g>
</svg>