<?xml version="1.0" encoding="utf-8"?>
<svg version="1.1" xmlns:xlink="http://www.w3.org/1999/xlink" width="20px" height="20px" xmlns="http://www.w3.org/2000/svg">
  <g transform="matrix(1 0 0 1 -1680 -1094 )">
    <path d="M 1690 1094  C 1695.6 1094  1700 1098.4  1700 1104  C 1700 1109.6  1695.6 1114  1690 1114  C 1684.4 1114  1680 1109.6  1680 1104  C 1680 1098.4  1684.4 1094  1690 1094  Z " fill-rule="nonzero" fill="#ffffff" stroke="none" />
    <path d="M 1690 1094.5  C 1695.32 1094.5  1699.5 1098.68  1699.5 1104  C 1699.5 1109.32  1695.32 1113.5  1690 1113.5  C 1684.68 1113.5  1680.5 1109.32  1680.5 1104  C 1680.5 1098.68  1684.68 1094.5  1690 1094.5  Z " stroke-width="1" stroke="#797979" fill="none" />
  </g>
</svg>