<?xml version="1.0" encoding="utf-8"?>
<svg version="1.1" xmlns:xlink="http://www.w3.org/1999/xlink" width="296px" height="20px" viewBox="1532 880  296 20" xmlns="http://www.w3.org/2000/svg">
  <g transform="matrix(0.681998360062495 -0.731353701619172 0.731353701619174 0.681998360062499 -116.662039346056 1511.69567826458 )">
    <path d="M 1318.91759026747 671.194577944754  C 1317.9472469754 670.950293617169  1316.97645016247 670.707814304273  1316.00520486645 670.46714126437  L 1315.76468101777 671.43778449348  C 1316.73472273961 671.678159289615  1317.70431653405 671.920338120377  1318.67345736971 672.164319729062  L 1318.91759026747 671.194577944754  Z M 1322.79652315581 672.181336560088  C 1321.82740342063 671.932242449237  1320.85782121751 671.684951081463  1319.88778157793 671.439463740042  L 1319.64244641208 672.4089020601  C 1320.61128397144 672.654085191811  1321.57966466142 672.901070114368  1322.54758345633 673.149855545975  L 1322.79652315581 672.181336560088  Z M 1326.67051412606 673.187322086638  C 1325.70264178868 672.933424320381  1324.73429804766 672.68132698124  1323.76548792804 672.431031377432  L 1323.5153474804 673.399240939694  C 1324.48295704353 673.649226375385  1325.45010080593 673.901011313663  1326.41677374892 674.154594447977  L 1326.67051412606 673.187322086638  Z M 1330.53946787579 674.21250977658  C 1329.57286674644 673.953814600948  1328.60578528933 673.696917492181  1327.63822852296 673.441819783402  L 1327.38328894714 674.408776769352  C 1328.34964671018 674.663558359211  1329.31552975289 674.920137119206  1330.28093306316 675.178511717911  L 1330.53946787579 674.21250977658  Z M 1334.40328922651 675.256874409702  C 1333.43798308413 674.993388188747  1332.47218770169 674.731697630171  1331.50590809104 674.471804091972  L 1331.24617565869 675.43748471391  C 1332.21125784868 675.697056190162  1333.17585641043 675.958422459888  1334.13996633848 676.221582166817  L 1334.40328922651 675.256874409702  Z M 1338.26188312598 676.32039029403  C 1337.29789571765 676.052119509666  1336.33341016901 675.78564193902  1335.36843148511 675.520958964933  L 1335.1039125858 676.485339466556  C 1336.06769546116 676.749694443593  1337.03098581227 677.015841793287  1337.99377864045 677.283780134561  L 1338.26188312598 676.32039029403  Z M 1342.11515465054 677.403031266458  C 1341.15250969092 677.1299825183  1340.18935770299 676.858724491088  1339.22570368486 676.589258592467  L 1338.95640482592 677.552315249456  C 1339.91886467703 677.821447223992  1340.88082311999 678.092369106277  1341.84227516304 678.365079490457  L 1342.11515465054 677.403031266458  Z M 1345.9630090075 678.504770693391  C 1345.0017301782 678.226950698598  1344.03993544507 677.950918887923  1343.07762979918 677.676676693785  L 1342.8035576055 678.638385814389  C 1343.7646707553 678.912288165622  1344.72527362537 679.187977915663  1345.68536123102 679.465453633915  L 1345.9630090075 678.504770693391  Z M 1349.8053515374 679.625581471402  C 1348.84546248645 679.342997064506  1347.88504866882 679.06219826091  1346.92411506843 678.783186517772  L 1346.64527628236 679.743524443391  C 1347.6050190869 680.022190433165  1348.56424275271 680.302641268833  1349.52294230224 680.584875495095  L 1349.8053515374 679.625581471402  Z M 1353.6420877164 680.765436027897  C 1352.68361205761 680.478094160637  1351.72460278224 680.192535271934  1350.76506486687 679.908760843647  L 1350.481466348 680.867703949411  C 1351.43981519706 681.151126722381  1352.39763606114 681.436331744425  1353.35492396998 681.72331753557  L 1353.6420877164 680.765436027897  Z M 1357.47312315857 681.924306321794  C 1356.51608447101 681.632214062947  1355.55850333005 681.341902114051  1354.60038470491 681.053371981629  L 1354.31203342992 682.010896676983  C 1355.26896474756 682.299069260785  1356.22535924697 682.589021452995  1357.18121196529 682.880751749008  L 1357.47312315857 681.924306321794  Z M 1361.29836361821 683.102163844213  C 1360.34278544558 682.805328379418  1359.3866559961 682.510270512171  1358.42998023145 682.216991773622  L 1358.13688329395 683.173074502905  C 1359.09237353911 683.465989808326  1360.04731814599 683.760682037711  1361.00171215926 684.057149661858  L 1361.29836361821 683.102163844213  Z M 1365.1177149922 684.298979619178  C 1364.16362084228 683.997408250759  1363.20896660561 683.697611723754  1362.25375723622 683.399591593906  L 1361.95592184658 684.354208836929  C 1362.90994751363 684.651859658083  1363.8634187358 684.951284675044  1364.81633056537 685.252482334049  L 1365.1177149922 684.298979619178  Z M 1368.93108332228 685.514724204327  C 1367.97849666633 685.208424351114  1367.02534112753 684.903896539521  1366.07162165211 684.60114234984  L 1365.76905513724 685.554270622467  C 1366.72159275661 685.856649636972  1367.67356713811 686.160800075479  1368.62497334181 686.466720359705  L 1368.93108332228 685.514724204327  Z M 1372.73837479739 686.749367691641  C 1371.7873190696 686.438346888787  1370.83568567684 686.129095284165  1369.88347955744 685.821614482581  L 1369.57618936066 686.773230337304  C 1370.52721549937 687.080330106461  1371.47766962108 687.389198484238  1372.42754679375 687.69983386787  L 1372.73837479739 686.749367691641  Z M 1376.53949575595 688.002879708175  C 1375.58999435284 687.687145606973  1374.63990651685 687.37317781709  1373.68923717829 687.060977967808  L 1373.37723085911 688.011057994327  C 1374.32672212137 688.322870963304  1375.27563260158 688.63644968201  1376.2239573757 688.951792523237  L 1376.53949575595 688.002879708175  Z M 1380.33435268819 689.275229416807  C 1379.38642896804 688.954789784498  1378.43791006153 688.636113533145  1377.48880089083 688.319202316462  L 1377.17208612479 689.267723142258  C 1378.12001915246 689.584241640243  1379.06736264761 689.902522985725  1380.01411169375 690.222565526898  L 1380.33435268819 689.275229416807  Z M 1384.12285223842 690.566385517  C 1383.17652952072 690.241248236584  1382.2296028778 689.91787136338  1381.2820772236 689.596256575496  L 1380.96066180205 690.543194866407  C 1381.90701327563 690.864411106927  1382.85276648014 691.187387249149  1383.79791650791 691.512121617102  L 1384.12285223842 690.566385517  Z M 1387.90490120738 691.876316245564  C 1386.96020277219 691.546489315607  1386.01489168782 691.218419775811  1385.06897285978 690.892109328635  L 1384.74286468975 691.837441789431  C 1385.68761132835 692.163347870348  1386.63175097633 692.491010863976  1387.5752787344 692.820429070023  L 1387.90490120738 691.876316245564  Z M 1391.68040655445 693.204989377447  C 1390.73735564182 692.870480911847  1389.79368337138 692.537726776228  1388.84939463958 692.206728697152  L 1388.5186017435 693.150432072109  C 1389.4617203058 693.481019975944  1390.40422317087 693.813361760278  1391.34610544791 694.14745570054  L 1391.68040655445 693.204989377447  Z M 1395.44927540004 694.55237222652  C 1394.50789520976 694.213190454449  1393.56588496774 693.875759908814  1392.62324956241 693.54008234065  L 1392.28778007798 694.482133414117  C 1393.22924736273 694.817395008218  1394.17009025877 695.154407407458  1395.11030388394 695.493168863031  L 1395.44927540004 694.55237222652  Z M 1399.21141502778 695.918431646385  C 1398.27172871824 695.574584911876  1397.33140367885 695.23248625728  1396.39044478926 694.892137457857  L 1396.05030696924 695.832513054834  C 1396.99009981578 696.17244009157  1397.92925959752 696.514114815016  1398.86778144101 696.857535452172  L 1399.21141502778 695.918431646385  Z M 1402.96673288686 697.30313403119  C 1402.02876357489 696.954630793072  1401.09014687066 696.60787244534  1400.15088764496 696.262860787435  L 1399.80608985692 697.201537774137  C 1400.74418514582 697.546121891107  1401.68163870938 697.892450533364  1402.61844568301 698.240521903756  L 1402.96673288686 697.30313403119  Z M 1406.71513659428 698.706445316455  C 1405.77890735448 698.353294148109  1404.84202207593 698.001884637697  1403.90448562042 697.652218608797  L 1403.55503634659 698.589173893227  C 1404.49141100016 698.938406613462  1405.42713528364 699.289380654644  1406.36220434142 699.642094195516  L 1406.71513659428 698.706445316455  Z M 1410.45653393716 700.12833097991  C 1409.5220678013 699.770540569059  1408.58693699634 699.414488540845  1407.65114637498 699.060176742936  L 1407.29705421201 699.995387275452  C 1408.23168519489 700.349260007625  1409.16565717893 700.704870813568  1410.09896531762 701.062217847962  L 1410.45653393716 700.12833097991  Z M 1414.19083287494 701.568756042345  C 1413.25815283133 701.206335190803  1412.32479950492 700.845649403947  1411.39077773859 700.486700553268  L 1411.03205139737 701.420143327149  C 1411.96491571709 701.778647365786  1412.89711242544 702.138886188258  1413.82863668511 702.50085792523  L 1414.19083287494 701.568756042345  Z M 1417.91794154171 703.02768506847  C 1416.98707053502 702.660642692074  1416.0555176478 702.295332019506  1415.12328771418 701.931754946481  L 1414.75993601957 702.863406998495  C 1415.69101072713 703.226533524189  1416.62140922722 703.591391501106  1417.55112669184 703.957979035942  L 1417.91794154171 703.02768506847  Z M 1421.63776824845 704.505082167786  C 1420.70872917854 704.133427295954  1419.77899964745 703.763500724602  1418.84858447983 703.3953043734  L 1418.4806163705 704.325142784367  C 1419.40987856092 704.692882863996  1420.3384559644 705.06235101964  1421.26634376239 705.433545334075  L 1421.63776824845 704.505082167786  Z M 1425.35022148525 706.000910995469  C 1424.42303720703 705.624652771126  1423.49515390395 705.250119401398  1422.56657639109 704.877312829862  L 1422.19400091926 705.80531472522  C 1423.12142773216 706.177659312164  1424.04816119549 706.551728557406  1424.97419650026 706.927520519845  L 1425.35022148525 706.000910995469  Z M 1429.05520992363 707.515134753265  C 1428.12990324637 707.134282432581  1427.20388899776 706.755151478215  1426.2771719832 706.377743857602  L 1425.89999831444 707.303886407967  C 1426.82556693459 707.680826342335  1427.75043365958 708.059487474854  1428.67459369014 708.439867840596  L 1429.05520992363 707.515134753265  Z M 1432.75264241873 709.047716190393  C 1431.82923610549 708.662279142555  1430.90511369185 708.278559930393  1429.98027997337 707.896560545149  L 1429.59851738638 708.820820966877  C 1430.52220504424 709.202346975728  1431.44518227865 709.585590680242  1432.36744430012 709.970550091711  L 1432.75264241873 709.047716190393  Z M 1436.44242801155 710.598617604463  C 1435.52094477868 710.208605311446  1434.59873693395 709.8203072812  1433.67580926299 709.433725528732  L 1433.28946714934 710.356081084482  C 1434.21125112168 710.742183782055  1435.13231615972 711.130000630547  1436.05265748392 711.519529617519  L 1436.44242801155 710.598617604463  Z M 1440.12447593125 712.167800842401  C 1439.20493844777 711.773222898733  1438.28466785879 711.380355602762  1437.36366893991 710.989200993203  L 1436.97275680385 711.909628992496  C 1437.89261441423 712.300298880441  1438.81174459718 712.692679332392  1439.73014258318 713.086768312227  L 1440.12447593125 712.167800842401  Z M 1443.79869559732 713.755227301393  C 1442.88112648437 713.356093413919  1441.96281579034 712.958666516985  1441.04376828064 712.562948672966  L 1440.64829573883 713.481426472739  C 1441.56620435823 713.876653940352  1442.48337707495 714.273588342975  1443.39980912963 714.672227620857  L 1443.79869559732 713.755227301393  Z M 1447.46499662182 715.360857929828  C 1446.54941845214 714.957177917474  1445.63309024403 714.555201196508  1444.71601675261 714.154929852917  L 1444.3159935339 715.071434858085  C 1445.23193058124 715.47121018254  1446.14712326875 715.87268877102  1447.06156684736 716.275868540192  L 1447.46499662182 715.360857929828  Z M 1451.12328881162 716.984653228264  C 1450.20972410896 716.576437021792  1449.29540092898 716.169920365654  1448.38032401638 715.765105369398  L 1447.97575996158 716.679615033407  C 1448.88970290427 717.083928380001  1449.8028930483 717.489941277731  1450.71532565499 717.897651619737  L 1451.12328881162 716.984653228264  Z M 1454.7729068951 718.629264989685  C 1453.91763627804 718.240793675747  1453.06160606389 717.853996890424  1452.20482117264 717.468876856803  C 1452.14875029742 717.443723369695  1452.0926765483 717.418576287426  1452.03659992787 717.393435611158  L 1451.62750498949 718.305927436542  C 1451.68339912486 718.330986299785  1451.73929040077 718.356051533839  1451.79517882118 718.381123140473  C 1452.65066031856 718.765657837218  1453.50538838551 719.151866513976  1454.35935811067 719.539746951558  L 1454.7729068951 718.629264989685  Z M 1458.41274498627 720.294734287649  C 1457.50394512939 719.875837870569  1456.59427274844 719.458837001595  1455.68373377684 719.043734400651  L 1455.2689196593 719.953640575972  C 1456.17819369778 720.368166510739  1457.08660234941 720.784588076403  1457.99413968918 721.202902556884  L 1458.41274498627 720.294734287649  Z M 1462.0432656471 721.980417841476  C 1461.13680919337 721.556474348073  1460.22946968851 721.134421521635  1459.32125305072 720.714262115037  L 1458.90138564185 721.621847570499  C 1459.80834057273 722.041423285936  1460.71441958914 722.462889790816  1461.61961678124 722.886244336154  L 1462.0432656471 721.980417841476  Z M 1465.66435661647 723.686263527314  C 1464.76027159488 723.257286066554  1463.8552930224 722.830194333155  1462.94942680184 722.404991112859  L 1462.52451908456 723.310227784563  C 1463.4291268634 723.734840306741  1464.33284822737 724.161338718509  1465.23567728171 724.589720237925  L 1465.66435661647 723.686263527314  Z M 1469.27590592484 725.412218597865  C 1468.37422029105 724.978220434371  1467.47163063424 724.546103000326  1466.56814284164 724.115869114252  L 1466.13820795474 725.018729010929  C 1467.04044060977 725.448365210215  1467.94177637677 725.879882340857  1468.84220937658 726.313277588178  L 1469.27590592484 725.412218597865  Z M 1472.87780189771 727.158229684021  C 1471.97854353314 726.719224237642  1471.07837070151 726.282094464712  1470.17728927402 725.846843216312  L 1469.74234051172 726.747298420184  C 1470.6421701446 727.181945011608  1471.54109244391 727.618467517926  1472.43910154649 728.056863091946  L 1472.87780189771 727.158229684021  Z M 1476.46993315908 728.924242796508  C 1475.57312987022 728.480243641995  1474.67540169829 728.038115046795  1473.77675449878 727.597859894732  L 1473.33680531036 728.49588256238  C 1474.23420409691 728.935526105976  1475.13068513269 729.377040490131  1476.02624257017 729.820422834959  L 1476.46993315908 728.924242796508  Z M 1480.05218863487 730.710203327565  C 1479.15786815219 730.261224194011  1478.26261239913 729.814110447865  1477.36642721507 729.368865005463  L 1476.92149120441 730.264427368684  C 1477.81643139583 730.709054270062  1478.71044344735 731.155546879678  1479.60352152786 731.603902285314  L 1480.05218863487 730.710203327565  Z M 1483.62445755641 732.516056052623  C 1482.73264753363 732.062110823134  1481.83989188209 731.610025751465  1480.94619642486 731.15980378638  L 1480.49628735005 732.052878153047  C 1481.38874127339 732.502474663656  1482.28025669657 732.953931692561  1483.17082780474 733.407246295165  L 1483.62445755641 732.516056052623  Z M 1487.18662946379 734.341745132018  C 1486.29735747701 733.882847843259  1485.40712953233 733.425805425213  1484.51595143634 732.97062085898  L 1484.06108320923 733.8611796139  C 1484.95102326849 734.315731831544  1485.84001449633 734.772139320013  1486.72805109438 735.230399102419  L 1487.18662946379 734.341745132018  Z M 1490.73859420934 736.187214112717  C 1489.85188775617 735.723378954477  1488.96421504553 735.261393322489  1488.07558186733 734.801260230095  L 1487.61576855313 735.689275835861  C 1488.50316723004 736.148769705106  1489.38960677361 736.610113540336  1490.27508140212 737.073304332467  L 1490.73859420934 736.187214112717  Z M 1494.28024196101 738.052405930061  C 1493.39612845974 737.583647244816  1492.5110384313 737.116732684172  1491.62497764877 736.651665293619  L 1491.16023346559 737.537110291462  C 1492.04506332044 738.001531604072  1492.92892376971 738.467797520623  1493.81180904847 738.935904999928  L 1494.28024196101 738.052405930061  Z M 1497.81146320575 739.937262909532  C 1496.9299699945 739.463595192002  1496.04749001657 738.991766140398  1495.16402902801 738.521778832265  L 1494.69436834644 739.404625842902  C 1495.57660201898 739.873960238275  1496.45785604366 740.345133818509  1497.33812467255 740.818143510405  L 1497.81146320575 739.937262909532  Z M 1501.33214875292 741.841726768538  C 1500.45330308877 741.363164665236  1499.57346044896 740.88643571233  1498.69262657231 740.411543019327  L 1498.21806391497 741.29176474381  C 1499.09767412516 741.765997709402  1499.97629447565 742.242064383977  1500.8539192354 742.719961662273  L 1501.33214875292 741.841726768538  Z M 1504.84218973768 743.765738618211  C 1503.96601879581 743.282296926966  1503.08884070024 742.800682813981  1502.21066117217 742.320899420473  L 1501.73121121322 743.198468641032  C 1502.60817076226 743.677585512875  1503.48413027021 744.158530561049  1504.35908402341 744.641300648472  L 1504.84218973768 743.765738618211  Z M 1508.34147762431 745.709238965229  C 1507.46800849732 745.220932634832  1506.59352206947 744.734448253895  1505.71802404468 744.249788995553  L 1505.23370160946 745.124678576435  C 1506.10798338049 745.608664539545  1506.98125495983 746.094473089729  1507.85351065163 746.582101058331  L 1508.34147762431 745.709238965229  Z M 1511.8299042096 747.67216771366  C 1510.95916390637 747.17901184322  1510.08739618686 746.687672237255  1509.21460673696 746.198152100417  L 1508.72542680143 747.07033498873  C 1509.5970037603 747.559175077513  1510.46756040827 748.04983210783  1511.33709106718 748.542302879402  L 1511.8299042096 747.67216771366  Z M 1515.30736162618 749.654464166812  C 1514.43937707135 749.156474005472  1513.57035501644 748.660294367384  1512.70030112945 748.165928488768  L 1512.20627881978 749.035377715315  C 1513.07512401603 749.529056814104  1513.94293881371 750.024547152706  1514.80971755255 750.521845499316  L 1515.30736162618 749.654464166812  Z M 1518.77374234589 751.656067029119  C 1517.90854037888 751.153257975504  1517.04229085995 750.652253647857  1516.17499943926 750.15305731402  L 1515.67615003136 751.019745994132  C 1516.54223659901 751.518248837633  1517.40728271227 752.018557163218  1518.27128272894 752.520667707657  L 1518.77374234589 751.656067029119  Z M 1522.22893918305 753.676914408029  C 1521.36654655716 753.169302009721  1520.50309636001 752.663488484369  1519.63859422354 752.159477131182  L 1519.13493314257 753.023378465549  C 1519.99823430092 753.52668963931  1520.86048498125 754.031800481597  1521.72167955958 754.538707697858  L 1522.22893918305 753.676914408029  Z M 1525.67284529781 755.716943815923  C 1524.8132886795 755.204543769055  1523.95266450332 754.693936686507  1523.09097838275 754.185125898756  L 1522.58252120268 755.046213174258  C 1523.44301025712 755.554317115118  1524.30243884252 756.064214855378  1525.16080135305 756.575903069106  L 1525.67284529781 755.716943815923  Z M 1529.10535419945 757.776092172044  C 1528.2486601675 757.258920320792  1527.39088862406 756.743535469781  1526.53204516403 756.229940980654  L 1526.0188076071 757.088187571187  C 1526.87645795008 757.601068567839  1527.73303786565 758.115737439221  1528.58854176656 758.632190828278  L 1529.10535419945 757.776092172044  Z M 1532.52635974967 759.854295804448  C 1531.67255479434 759.332368140537  1530.81766240722 758.812221457535  1529.96168816444 758.293859148141  L 1529.44368610073 759.149238515438  C 1530.29847121246 759.666880708862  1531.15217597138 760.186304796981  1532.00479480926 760.707507391883  L 1532.52635974967 759.854295804448  Z M 1535.93575616586 761.951490451974  C 1535.08486668811 761.424823114216  1534.23287989179 760.899930682879  1533.3798013343 760.376816581782  L 1532.85705078122 761.229302276235  C 1533.70894423041 761.751689660136  1534.55974743494 762.275852903676  1535.4094548455 762.801788588034  L 1535.93575616586 761.951490451974  Z M 1539.3334380244 764.067611266231  C 1538.48549033492 763.536220539911  1537.63643547426 763.006598590807  1536.78627898045 762.478748873422  L 1536.25879610221 763.3283145349  C 1537.10777154702 763.855430956252  1537.95564688914 764.384317147357  1538.80241659811 764.914969658427  L 1539.3334380244 764.067611266231  Z M 1542.71930026388 766.202592813602  C 1541.87432058253 765.666495130142  1541.02822391149 765.132160039918  1540.18101576951 764.599591028175  L 1539.64881687667 765.446210386838  C 1540.49484806554 765.97803954644  1541.3397693276 766.511632331106  1542.18357515164 767.046985260346  L 1542.71930026388 766.202592813602  Z M 1546.09323818839 768.356369077268  C 1545.2512526432 767.81558101361  1544.40814032436 767.276549304705  1543.56390673114 766.739277466433  L 1543.0270082801 767.582924343546  C 1543.87006905252 768.119449796474  1544.7120101082 768.657732675158  1545.55282595562 769.197769468684  L 1546.09323818839 768.356369077268  Z M 1549.45514747072 770.528873459248  C 1548.61618209714 769.983411737367  1547.77608020079 769.439700077447  1546.93484726131 768.897742025894  L 1546.39326585375 769.738390334635  C 1547.23333014099 770.279595490693  1548.0722649563 770.82255181894  1548.91006482778 771.36725577798  L 1549.45514747072 770.528873459248  Z M 1552.80492415562 772.720038782463  C 1551.96900489575 772.169920268878  1551.13193939901 771.621545470264  1550.29373312549 771.07491796361  L 1549.74748550793 771.912541709878  C 1550.58452733394 772.458409834194  1551.42042996777 773.006022822983  1552.25518795727 773.555377104476  L 1552.80492415562 772.720038782463  Z M 1556.14246466299 774.929797292806  C 1555.30961736462 774.375038997947  1554.47561415098 773.822018017319  1553.64046046192 773.270737958048  L 1553.08956352515 774.105311241265  C 1553.92355700739 774.655825454809  1554.75640161228 775.208078171072  1555.5880919079 775.762065788192  L 1556.14246466299 774.929797292806  Z M 1559.46766579109 777.158080661243  C 1558.63791620715 776.598699739094  1557.80700106514 776.041049676631  1556.97492578478 775.485134111174  L 1556.41939656336 776.316631125087  C 1557.25031591343 776.871774405081  1558.08007673676 777.428649772452  1558.90867362129 777.987253595017  L 1559.46766579109 777.158080661243  Z M 1562.78042471973 779.404819985924  C 1561.95379850732 778.840833733379  1561.12599713008 778.278571832454  1560.29702598743 777.71803795055  L 1559.73688165915 778.546432984029  C 1560.56470118377 779.106188164612  1561.3913525681 779.667668963675  1562.2168304201 780.23087171882  L 1562.78042471973 779.404819985924  Z M 1566.08063901346 781.669945794313  C 1565.25716173309 781.101371650668  1564.43249971748 780.534515297259  1563.60665834557 779.969380431453  L 1563.04191623093 780.794647869287  C 1563.86661033277 781.358997642051  1564.69012671663 781.925066510863  1565.51246001117 782.492850783576  L 1566.08063901346 781.669945794313  Z M 1569.36820662472 783.953388045334  C 1568.5479037395 783.380243591723  1567.72640658539 782.808810313934  1566.90372052042 782.239091939012  L 1566.33439808209 783.061206262697  C 1567.1559412603 783.630133177047  1567.9762971795 784.200772612031  1568.79546048871 784.773120845514  L 1569.36820662472 783.953388045334  Z M 1572.64302589701 786.255076131543  C 1571.82592277201 785.677379090507  1571.00761588114 785.101386557791  1570.18811056189 784.527102290354  L 1569.61422540416 785.346038078889  C 1570.43259225548 785.919524542812  1571.24976234323 786.494716898826  1572.06573033746 787.071611395276  L 1572.64302589701 786.255076131543  Z M 1575.90531800379 788.575341014589  C 1575.86722670505 788.548034081535  1575.82913273965 788.520730868844  1575.7910361078 788.493431376657  C 1575.01503386904 787.938523534999  1574.23792926819 787.385158894969  1573.45972691174 786.833340736783  L 1572.88129678001 787.649072667449  C 1573.65828319994 788.200028613071  1574.43417376998 788.752528356438  1575.20896389212 789.30656862339  C 1575.24687320973 789.333733928493  1575.28477988578 789.360902924466  1575.32268391522 789.388075607699  L 1575.90531800379 788.575341014589  Z M 1579.15201509028 790.916530315131  C 1578.34196995305 790.328977539827  1577.53070049043 789.743114565749  1576.71821199398 789.158945214237  L 1576.13444862201 789.970869056442  C 1576.94580839839 790.554226871947  1577.75595083438 791.139275957171  1578.56487064589 791.72601249617  L 1579.15201509028 790.916530315131  Z M 1582.38564335634 793.275737289797  C 1581.57887794089 792.683689189941  1580.77087882251 792.093324057094  1579.96165127144 791.504645741962  L 1579.37338206944 792.313310905037  C 1580.18148543063 792.90117142028  1580.9883620655 793.490716409751  1581.7940067115 794.081942028366  L 1582.38564335634 793.275737289797  Z M 1585.60610281335 795.652888988383  C 1584.80264206607 795.056363870987  1583.99793827647 794.461514834343  1583.19199669332 793.868345758403  L 1582.59923985144 794.673727237214  C 1583.40406180959 795.266072274607  1584.20764769368 795.860094938836  1585.00999226236 796.455791355427  L 1585.60610281335 795.652888988383  Z M 1588.8132938799 798.047911905807  C 1588.01316264499 797.44692821632  1587.21177906683 796.847613669499  1586.4091483725 796.249972174425  L 1585.81192221969 797.052045065372  C 1586.61343788854 797.648856308754  1587.41370817368 798.247338279612  1588.21272785539 798.847487074385  L 1588.8132938799 798.047911905807  Z M 1592.00711738485 800.460731984382  C 1591.21034040357 799.855308306116  1590.41230181681 799.251546780821  1589.61300682985 798.649451346581  L 1589.01132983322 799.448190848373  C 1589.80951442871 800.049449843448  1590.60644436936 800.652372614977  1591.40211445722 801.256955230436  L 1592.00711738485 800.460731984382  Z M 1595.18747457041 802.891274616107  C 1594.39407648033 802.281429669699  1593.59940756144 801.673239835074  1592.80347299729 801.06670907939  L 1592.19736376159 801.862090493808  C 1592.99219260266 802.46777864875  1593.78575755654 803.075123577678  1594.57805344725 803.684121319225  L 1595.18747457041 802.891274616107  Z M 1598.35426709518 805.339464644973  C 1597.56427242927 804.725217287677  1596.77299775077 804.112617949986  1595.98044822082 803.501670627632  L 1595.36992548786 804.293669360294  C 1596.16137399722 804.90376794632  1596.95154942612 805.515516252635  1597.7404466207 806.12891028915  L 1598.35426709518 805.339464644973  Z M 1601.5073970372 807.805226369287  C 1600.72083022332 807.186595594579  1599.93297425251 806.569605696247  1599.14383426363 805.954260698658  L 1598.52891691169 806.742852259781  C 1599.31696061656 807.357342411731  1600.10372208708 807.973475179261  1600.88919619165 808.591246543684  L 1601.5073970372 807.805226369287  Z M 1604.64676689699 810.288483544012  C 1603.86365225696 809.665488480881  1603.07923935553 809.044127100156  1602.2935333091 808.424403454719  L 1601.67424035233 809.209563459873  C 1602.45885488524 809.828426176795  1603.24217806954 810.448924353794  1604.02420479606 811.071053943711  L 1604.64676689699 810.288483544012  Z M 1607.77227960053 812.789159383126  C 1606.99264134943 812.161819295511  1606.2116957726 811.536105645815  1605.42944796383 810.912022515311  L 1604.8057985517 811.693726686176  C 1605.58695965114 812.316942831877  1606.36682032777 812.941787231679  1607.14537549477 813.568255809882  L 1607.77227960053 812.789159383126  Z M 1610.88383850232 815.307176561998  C 1610.10770074772 814.67551084819  1609.3302466435 814.045464277525  1608.55148126065 813.417040959536  L 1607.92349467733 814.195265124651  C 1608.70117818867 814.822815428389  1609.47755224311 815.451986729808  1610.25261177654 816.082774924984  L 1610.88383850232 815.307176561998  Z M 1613.98134738829 817.842457219773  C 1613.20873412954 817.20648541182  1612.43479553796 816.572125402167  1611.65953666163 815.939381328482  L 1611.0272323254 816.714101423993  C 1611.80141420156 817.345966481007  1612.57427762706 817.97944522906  1613.34581756097 818.61453353633  L 1613.98134738829 817.842457219773  Z M 1617.06471047884 820.394922961787  C 1616.29564560629 819.754664724887  1615.5252464587 819.116010891606  1614.75351806105 818.478965627616  L 1614.11691552371 819.250157698021  C 1614.88757182578 819.886317970067  1615.65690072434 820.524084576711  1616.42489720151 821.163453358161  L 1617.06471047884 820.394922961787  Z M 1620.13383243179 822.964494861985  C 1619.36833972604 822.319969993846  1618.6015038444 821.677042085134  1617.83332978838 821.035715329197  L 1617.19244873464 821.803355528085  C 1617.95955563277 822.443791344137  1618.72532621559 823.085826088675  1619.48975548843 823.729455574069  L 1620.13383243179 822.964494861985  Z M 1623.1886183453 825.551093465366  C 1622.4267214766 824.902321895727  1621.66347257246 824.25513979174  1620.89887661125 823.609551374705  L 1620.25373685809 824.373615965494  C 1621.0172706322 825.018307522321  1621.77945922052 825.66459055208  1622.54029765173 826.312460839431  L 1623.1886183453 825.551093465366  Z M 1626.22897376081 828.154638790436  C 1625.47069628812 827.50164058025  1624.71105796236 826.850224292894  1623.95006373837 826.200394177285  L 1623.30068523449 826.960859533956  C 1624.06062227496 827.609786896731  1624.81920530076 828.260298227674  1625.57642936408 828.912389283866  L 1626.22897376081 828.154638790436  Z M 1629.25480466601 830.775050331684  C 1628.50017003639 830.117845672631  1627.74416577817 829.462215344671  1626.98679682247 828.808163624206  L 1626.33319964761 829.565006232034  C 1627.08951645607 830.218149334954  1627.84447046283 830.872868852299  1628.59805674377 831.529160513702  L 1629.25480466601 830.775050331684  Z M 1632.26601749768 833.412247062072  C 1631.51504904556 832.750856275901  1630.76270223166 832.091032180405  1630.00898196323 831.432779079342  L 1629.3511863276 832.185975535623  C 1630.10385951759 832.843314182527  1630.85516116101 833.502221641368  1631.60508635754 834.162693614464  L 1632.26601749768 833.412247062072  Z M 1635.26251914462 836.066147435535  C 1634.51524009107 835.400590973439  1633.76657398517 834.736593513154  1633.01652571017 834.074159385661  L 1632.35455195379 834.823686400435  C 1633.10355825154 835.485200265431  1633.85118430024 836.148275291364  1634.59742522357 836.812907153373  L 1635.26251914462 836.066147435535  Z M 1638.24421695051 838.73666938951  C 1637.50065040252 838.066967831488  1636.7556881545 837.398817538208  1636.00933506554 836.732222867738  L 1635.34320365764 837.478057264511  C 1636.08851990274 838.143725892601  1636.83244723902 838.810947982357  1637.57498081425 839.479719181868  L 1638.24421695051 838.73666938951  Z M 1641.21101871682 841.423730347469  C 1640.47118766658 840.749904401693  1639.72995231178 840.077621935624  1638.98731748721 839.406887334279  L 1638.31704902556 840.149006050737  C 1639.05865217173 840.818808858453  1639.79885779224 841.490157380528  1640.53766105913 842.163047238137  L 1641.21101871682 841.423730347469  Z M 1644.1628327056 844.127247221472  C 1643.42676002978 843.449317723648  1642.68927448831 842.772923872766  1641.95038089151 842.098070080664  L 1641.27599610181 842.836450169387  C 1642.01386321754 843.51036644539  1642.75032423409 844.185820640755  1643.4853743477 844.862808349667  L 1644.1628327056 844.127247221472  Z M 1647.09956764235 846.847136414738  C 1646.36727610142 846.165124327459  1645.63356317744 845.484640006874  1644.8984336561 844.8056878915  L 1644.21995339134 845.540306520674  C 1644.95406166071 846.218315426501  1645.68675530074 846.897854409033  1646.41802953226 847.578919035811  L 1647.09956764235 846.847136414738  Z M 1650.02113271883 849.583313824231  C 1649.29264495635 848.897240236329  1648.56272733735 848.212686487632  1647.83138462278 847.529657043202  L 1647.14882986258 848.26049149732  C 1647.8791565859 848.942572067958  1648.60806019336 849.626174825226  1649.33553593074 850.311295310371  L 1650.02113271883 849.583313824231  Z M 1652.9274375959 852.335694843257  C 1652.20277613779 851.645580969152  1651.47667639391 850.956978959769  1650.74914310032 850.269893306572  L 1650.06253495029 850.996920987141  C 1650.78905754474 851.683052131605  1651.51414858092 852.370697525661  1652.23780332948 853.059852684188  L 1652.9274375959 852.335694843257  Z M 1655.81839240626 855.104194364083  C 1655.09757966013 854.410061543127  1654.37532024347 853.71743256566  1653.65161886728 853.026311949413  L 1652.96097855837 853.749510375651  C 1653.68367455877 854.43967087774  1654.40493060278 855.131337645561  1655.12474198603 855.824506167763  L 1655.81839240626 855.104194364083  Z M 1658.69390775727 857.888726780569  C 1657.9769660117 857.19059647635  1657.25856925567 856.493961947993  1656.53872217476 855.79882773914  L 1655.8440710626 856.518174548672  C 1656.56291812212 857.212343067593  1657.28031687163 857.90800982181  1657.99626263195 858.60517027388  L 1658.69390775727 857.888726780569  Z M 1661.5538947337 860.689205990811  C 1660.84084615767 859.987099790633  1660.12633427602 859.286481252224  1659.41036374922 858.587354945425  L 1658.71172331347 859.302827894972  C 1659.42669920428 860.000982965998  1660.14021847625 860.700628195554  1660.85227647551 861.401759020251  L 1661.5538947337 860.689205990811  Z M 1664.39826490049 863.505545399809  C 1663.68913154252 862.799485013845  1662.97852662903 862.094904129554  1662.26645479521 861.39180734284  L 1661.56384663887 862.103384308911  C 1662.27492925285 862.805504344043  1662.98454698421 863.509106414863  1663.6926952045 864.214185932173  L 1664.39826490049 863.505545399809  Z M 1667.22693030545 866.33765792214  C 1666.52173409294 865.62766518276  1665.81505812071 864.919143739426  1665.10690699813 864.212098213528  L 1664.40035284689 864.919757193098  C 1665.10752019631 865.625820481737  1665.81321444461 866.333357637394  1666.51743098895 867.042364045206  L 1667.22693030545 866.33765792214  Z M 1670.03980348202 869.185455984656  C 1669.33856622073 868.471552845931  1668.63584104118 867.759112752023  1667.93163252695 867.048140349881  L 1667.22115422853 867.751859461079  C 1667.92438444667 868.461844170655  1668.62613339086 869.173294533117  1669.32639648378 869.886205907856  L 1670.03980348202 869.185455984656  Z M 1672.83679745197 872.048851529184  C 1672.13954082519 871.331060066067  1671.44078816763 870.614723351297  1670.74054403695 869.89984605724  L 1670.02616356038 870.599603540018  C 1670.7254349024 871.313487716817  1671.42321684321 872.028829286829  1672.1195048316 872.745623584284  L 1672.83679745197 872.048851529184  Z M 1675.61782572806 874.927756015258  C 1674.92457129602 874.206098422933  1674.22981276692 873.485887237502  1673.53355467237 872.767127156603  L 1672.81529410738 873.462901373416  C 1673.51058495071 874.180662943036  1674.20437831177 874.899873601241  1674.89666966533 875.620528657025  L 1675.61782572806 874.927756015258  Z M 1678.38280231675 877.822080422849  C 1677.69357151587 877.096579016009  1677.00282859827 876.372515629998  1676.31057806917 875.649894987356  L 1675.58845962544 876.341664423825  C 1676.27974847066 877.063281192007  1676.96953179882 877.786338699336  1677.65780511087 878.510832229718  L 1678.38280231675 877.822080422849  Z M 1681.13164172082 880.731735255123  C 1680.44645586322 880.002412467431  1679.75974991578 879.274519269812  1679.07152835762 878.548060410011  L 1678.34557436414 879.235803675591  C 1679.03283983552 879.961253328828  1679.71859180173 880.688135327339  1680.40282578979 881.416444929859  L 1681.13164172082 880.731735255123  Z M 1683.86375783584 883.657454321774  C 1683.53140994627 883.299356715852  1683.19873692391 882.941561001656  1682.86573917949 882.584067620912  C 1682.51633233228 882.209516412615  1682.16652579493 881.83533826223  1681.81632016501 881.461533808962  L 1681.08655306936 882.145229637605  C 1681.43618753178 882.518424434891  1681.78542364919 882.891992229735  1682.1342608249 883.265932383863  C 1682.46676134844 883.622892297562  1682.79893771742 883.980154017391  1683.13078952065 884.337717101098  L 1683.86375783584 883.657454321774  Z M 1686.57920941286 886.597885523151  C 1685.90217074652 885.861095470666  1685.22376226282 885.125565322792  1684.54398748226 884.391298896434  L 1683.81017622157 885.070652290248  C 1684.48910862032 885.804008808355  1685.16667641527 886.538627481901  1685.84287609042 887.27450449884  L 1686.57920941286 886.597885523151  Z M 1689.28004339785 889.551748875227  C 1688.60666745085 888.811609853714  1687.93191545437 888.072723927183  1687.25579090991 887.335094929953  L 1686.51861916278 888.010800350408  C 1687.19390584882 888.747515272465  1687.86782168771 889.485485566163  1688.54036318238 890.224707402063  L 1689.28004339785 889.551748875227  Z M 1691.96619334872 892.518971711254  C 1691.2964966865 891.775501928562  1690.62541777652 891.033278400395  1689.95296010123 890.292304978393  L 1689.21244600251 890.964345802744  C 1689.8840703634 891.704401005138  1690.55431766749 892.445704764491  1691.22318443678 893.188253234067  L 1691.96619334872 892.518971711254  Z M 1694.63759318463 895.499481035834  C 1693.97159228211 894.752698781749  1693.30420296757 894.007155911075  1692.6354287043 893.262856292676  L 1691.89159047106 893.93121598833  C 1692.55953598444 894.674593265274  1693.22609826528 895.419212253781  1693.89127385467 896.165069089911  L 1694.63759318463 895.499481035834  Z M 1697.2941771876 898.493203526711  C 1696.6318884288 897.743127172509  1695.96820512785 896.994283300114  1695.30313072882 896.246675795519  L 1694.55598665992 896.911337920441  C 1695.22023689395 897.658018984424  1695.88309775371 898.405934884027  1696.54456579951 899.155081738202  L 1697.2941771876 898.493203526711  Z M 1699.93588000412 901.50006553658  C 1699.27731968172 900.746713534573  1698.61735872136 899.994587082449  1697.95600054779 899.243690083237  L 1697.20556902341 899.904638286353  C 1697.86610763708 900.654604768512  1698.52525076914 901.405799180202  1699.18299499877 902.158217622896  L 1699.93588000412 901.50006553658  Z M 1702.56263664677 904.519993094894  C 1701.90782096174 903.763383977979  1701.25159857739 903.007993448873  1700.59397289908 902.253825427542  L 1699.84027238026 902.911043449145  C 1700.49708312408 903.664276900024  1701.15249231286 904.418731343674  1701.80649654557 905.174402865115  L 1702.56263664677 904.519993094894  Z M 1705.17438249583 907.55291190969  C 1704.523327557 906.793064290887  1703.87085989212 906.034428267842  1703.21698288704 905.277007777364  L 1702.46003191524 905.93047944951  C 1703.11309863116 906.686961338975  1703.76475775348 907.44465725488  1704.41500590026 908.203563264955  L 1705.17438249583 907.55291190969  Z M 1707.77105330083 910.598747369407  C 1707.12377512454 909.835679941408  1706.4750782302 909.073817087311  1705.8249659841 908.313162760668  L 1705.06478318077 908.962872007574  C 1705.71408980302 909.722583725812  1706.36198282757 910.483502474057  1707.008458892 911.245624303317  L 1707.77105330083 910.598747369407  Z M 1710.35258518216 913.657424544731  C 1709.70909969183 912.891156079437  1709.06418952636 912.126085136553  1708.41785803238 911.362215686282  L 1707.65446209845 912.008146524726  C 1708.29999265378 912.771069382467  1708.94410364187 913.535192243853  1709.58679172034 914.300511143739  L 1710.35258518216 913.657424544731  Z M 1712.91891463266 916.728868190433  C 1712.2792376584 915.959417538492  1711.63813008695 915.19115732801  1710.99559524522 914.42409154574  L 1710.22900496067 915.06622808545  C 1710.87074356859 915.832343314271  1711.51105667486 916.599651491092  1712.14994095679 917.368148634237  L 1712.91891463266 916.728868190433  Z M 1715.46997851912 919.813002747223  C 1714.83412579736 919.040388837565  1714.19683659155 918.268958259131  1713.5581142088 917.498715015126  L 1712.78834843219 918.13704145917  C 1713.42627930557 918.906330212193  1714.06277877794 919.676804828224  1714.69784354642 920.448461309153  L 1715.46997851912 919.813002747223  Z M 1718.0057140839 922.909752343604  C 1717.37370125699 922.133994182979  1716.74024609451 921.359412214232  1716.10535188367 920.58601045692  L 1715.33242955169 921.220511102099  C 1715.96653699705 921.992954454376  1716.59920717726 922.766576555494  1717.23043680933 923.541373391012  L 1718.0057140839 922.909752343604  Z M 1720.52605894645 926.019040797745  C 1719.89790156225 925.240157470253  1719.26829602646 924.462443166357  1718.63724560631 923.685901921869  L 1717.8611857333 924.316561159101  C 1718.49145415122 925.092140108078  1719.12027947524 925.868890662732  1719.74765844227 926.646808792388  L 1720.52605894645 926.019040797745  Z M 1723.03095110481 929.14079161935  C 1722.40666461637 928.358802285971  1721.78092419593 927.577974779148  1721.15373309067 926.798313150849  L 1720.37455476814 927.42511546555  C 1721.00096865367 928.203810931537  1721.62593365201 928.983670831214  1722.24944652013 929.764691117771  L 1723.03095110481 929.14079161935  Z M 1725.52032893719 932.274928011542  C 1724.89992870231 931.489851909666  1724.2780687908 930.705930408725  1723.65475242969 929.923167576743  L 1722.8724748259 930.546097549213  C 1723.49501876888 931.32789037585  1724.11610806705 932.110840435545  1724.73573949748 932.894943665453  L 1725.52032893719 932.274928011542  Z M 1727.99413120345 935.421372872751  C 1727.37763248435 934.633229315706  1726.75966837988 933.846233105569  1726.14024209686 933.060388326321  L 1725.35488445628 933.679430632124  C 1725.97354314171 934.464301586773  1726.59074146068 935.250322545624  1727.20647621006 936.037489429409  L 1727.99413120345 935.421372872751  Z M 1730.45229704663 938.580048798614  C 1729.83971500953 937.788857175186  1729.22566191437 936.998805616417  1728.61014094769 936.20989822214  L 1727.82172259057 936.825037632475  C 1728.43648079923 937.61296740702  1729.0497729553 938.402039928132  1729.66159587633 939.192251101194  L 1730.45229704663 938.580048798614  Z M 1732.89476599442 941.750878083874  C 1732.28611570919 940.956657857836  1731.67598872941 940.163570386159  1731.06438822125 939.371619784431  L 1730.27292854313 939.982841166514  C 1730.88377115154 940.773810377345  1731.4931420575 941.565915049239  1732.10103809892 942.359151071846  L 1732.89476599442 941.750878083874  Z M 1735.32147796068 944.933782724297  C 1734.71677440047 944.136553433925  1734.11058854554 943.340449559751  1733.50292354162 942.545475233016  L 1732.70844201288 943.152763550447  C 1733.31535399401 943.946752739345  1733.92078865887 944.741870075623  1734.52474286614 945.538111433792  L 1735.32147796068 944.933782724297  Z M 1737.73237324689 948.128684418584  C 1737.13163128775 947.328465676181  1736.5294014702 946.529364984126  1735.92568691942 945.731386489213  L 1735.12820308476 946.334726802347  C 1735.73116950805 947.131716436473  1736.33265303813 947.929826877283  1736.93265055345 948.729053982767  L 1737.73237324689 948.128684418584  Z M 1740.12739254362 951.335504570307  C 1739.53062696415 950.532316061716  1738.93236799919 949.73023821012  1738.33261875329 948.929275177761  L 1737.53215223127 949.528652644078  C 1738.13115826358 950.328623117272  1738.72867586167 951.12970702814  1739.32470192492 951.931900219738  L 1740.12739254362 951.335504570307  Z M 1742.50647693201 954.554164289832  C 1741.913702413 953.748025773957  1741.31942901813 952.942990494399  1740.72365983129 952.139062628747  L 1739.92023031385 952.734462503215  C 1740.51526121923 953.537394135658  1741.10879818617 954.341431809621  1741.70083813472 955.146571352834  L 1742.50647693201 954.554164289832  Z M 1744.86956788522 957.784584396268  C 1744.28079900926 956.975515704582  1743.69052580396 956.167542801396  1743.09875133243 955.360669879544  L 1742.29237858441 955.95207751498  C 1742.88341972468 956.757950554006  1743.47296145924 957.56492221144  1744.06100072851 958.372988299285  L 1744.86956788522 957.784584396268  Z M 1747.21660726984 961.026685419412  C 1746.63185852098 960.214706455473  1746.04560002631 959.40381580526  1745.4578348281 958.594017676747  L 1744.64853868673 959.181418524181  C 1745.23557552207 959.990213145014  1745.82110752093 960.800098933615  1746.40513164492 961.611071687366  L 1747.21660726984 961.026685419412  Z M 1749.54753734733 964.2803876017  C 1748.96682311074 963.465518340661  1748.38459374899 962.6517298918  1747.80085228347 961.83902647813  L 1746.9886526579 962.422406087162  C 1747.57167074673 963.234102392818  1748.15317860573 964.046882389261  1748.73317321699 964.860741858352  L 1749.54753734733 964.2803876017  Z M 1751.86230077548 967.545610900178  C 1751.28563533706 966.727871388293  1750.70744943141 965.911205160451  1750.12774605895 965.095616454598  L 1749.31266292977 965.674960473752  C 1749.89164792964 966.4895384962  1750.46911734308 967.305192705291  1751.04506817354 968.121918868475  L 1751.86230077548 967.545610900178  Z M 1754.16084060975 970.82227498846  C 1753.58823815581 970.001685342596  1753.01410992998 969.182161426235  1752.43845891161 968.363707492153  L 1751.62051233033 968.93900166923  C 1752.19544999781 969.756441369296  1752.76886675975 970.574949725638  1753.34075964061 971.394522490895  L 1754.16084060975 970.82227498846  Z M 1756.44310030475 974.110299258715  C 1755.87457492163 973.286879665852  1755.3045184995 972.464518221734  1754.73293399658 971.643219193863  L 1753.91214408516 972.214449376295  C 1754.48302027645 973.034730644488  1755.0523702805 973.856073012302  1755.62019114287 974.678472217667  L 1756.44310030475 974.110299258715  Z M 1758.70902371556 977.409602823643  C 1758.14458938932 976.583373540379  1757.57861879461 975.758194799072  1757.01111486844 974.934070881844  L 1756.18750181879 975.501223017036  C 1756.75430248995 976.324325673878  1757.31957172988 977.148481847836  1757.88330660498 977.973687261729  L 1758.70902371556 977.409602823643  Z M 1760.95855509916 980.720104518466  C 1760.3982257152 979.89108587052  1759.83635487112 979.063110131899  1759.27294548263 978.236181599239  L 1758.44652955611 978.799241734921  C 1759.00924076362 979.62514553178  1759.57041533326 980.452095236822  1760.130050353 981.280086558882  L 1760.95855509916 980.720104518466  Z M 1763.19163911576 984.041722902927  C 1762.63542845852 983.209935284636  1762.07767118741 982.379182917383  1761.51837019679 981.549470112212  L 1760.68917172371 982.108424396779  C 1761.2477796245 982.937109015859  1761.80484571874 983.766831908715  1762.36036711572 984.59758876979  L 1763.19163911576 984.041722902927  Z M 1765.40822083022 987.374376263291  C 1764.8561425828 986.539840137113  1764.30251260581 985.706331578217  1763.7473337722 984.87385491195  L 1762.91537315131 985.428689594803  C 1763.46986400331 986.260134649982  1764.02280791799 987.092610318988  1764.57420202606 987.92611228198  L 1765.40822083022 987.374376263291  Z M 1767.45823699046 990.488847689244  C 1766.96003651984 989.7281394752  1766.46055060119 988.968273898873  1765.95978137504 988.209254216662  L 1765.12507907307 988.759955648546  C 1765.67543923547 989.594140685795  1766.22424736787 990.429348651568  1766.77150062241 991.265575211845  L 1767.45823699046 990.488847689244  Z M 1315.03381088502 670.227070515471  C 1314.06226790707 669.987601980687  1313.09028036649 669.7499406878  1312.11785330724 669.514087870112  L 1311.88214669276 670.485912129888  C 1312.85336871338 670.721472677064  1313.82415175991 670.958839458342  1314.7944907948 671.198011241991  L 1315.03381088502 670.227070515471  Z M 1760.75493028423 994.774268696531  L 1773 1000  L 1773.39140987857 986.692227898444  L 1760.75493028423 994.774268696531  Z " fill-rule="nonzero" fill="#1f8aee" stroke="none" />
  </g>
</svg>