<?xml version="1.0" encoding="utf-8"?>
<svg version="1.1" xmlns:xlink="http://www.w3.org/1999/xlink" width="248px" height="20px" viewBox="1114 476  248 20" xmlns="http://www.w3.org/2000/svg">
  <g transform="matrix(0.874619707139391 0.484809620246334 -0.484809620246344 0.874619707139391 390.838278001157 -539.259487534706 )">
    <path d="M 1141.11920454069 543.195846044807  C 1140.33926175393 543.822890226563  1139.56072492758 544.451681193848  1138.78359992459 545.082214211391  L 1139.41366209729 545.858758903298  C 1140.18962712788 545.229167048241  1140.96700187446 544.601314643189  1141.74578048286 543.975206416323  L 1141.11920454069 543.195846044807  Z M 1144.2464490254 540.697005642481  C 1143.46277356756 541.319378467452  1142.68049360797 541.943506447394  1141.89961503778 542.569384882152  L 1142.52502610346 543.349680338321  C 1143.3047390985 542.724736118405  1144.08585139116 542.101539740507  1144.86835709908 541.480095897745  L 1144.2464490254 540.697005642481  Z M 1147.38856827645 538.216895153883  C 1146.60118812551 538.83457440275  1145.81519296096 539.454017113274  1145.03058870169 540.075218620776  L 1145.65132633254 540.859236983856  C 1146.43475945548 540.238962710233  1147.21958140769 539.620444608241  1148.00578627889 539.003687335767  L 1147.38856827645 538.216895153883  Z M 1150.54545011695 535.75560312151  C 1149.75439338322 536.368566742457  1148.96471107447 536.983302068885  1148.17640913734 537.599804471565  L 1148.79245117238 538.387517751293  C 1149.57957645386 537.771935568393  1150.36808004667 537.15811782404  1151.15795601282 536.546069140724  L 1150.54545011695 535.75560312151  Z M 1153.71698184297 533.31321741602  C 1152.92227676799 533.921443525615  1152.1289355075 534.531449521264  1151.33696403571 535.143230809352  L 1151.94828848161 535.934610883554  C 1152.73907782044 535.323742768293  1153.53123490346 534.714647295504  1154.32475376517 534.107329052114  L 1153.71698184297 533.31321741602  Z M 1156.90305022755 530.889825233097  C 1156.10472518312 531.493292117041  1155.30775329399 532.09854700407  1154.51214056173 532.705585336343  L 1155.11872559358 533.500603951936  C 1155.91315075776 532.894471712936  1156.70893305018 532.290120257045  1157.50606647801 531.687554135467  L 1156.90305022755 530.889825233097  Z M 1160.10354152478 528.485513090335  C 1159.30162501196 529.084199204209  1158.50105094684 529.684681374456  1157.70182535834 530.286955078992  L 1158.30364932042 531.085583852993  C 1159.10168194817 530.484209129797  1159.90106103973 529.884623266774  1160.7017805752 529.286830779238  L 1160.10354152478 528.485513090335  Z M 1163.31834147383 526.100366824151  C 1162.51286212182 526.694250794276  1161.7087144621 527.289938809848  1160.9059045505 527.887426384886  L 1161.50294595709 528.689636805426  C 1162.30455755781 528.093041067732  1163.10750490985 527.49824220341  1163.91178196646 526.905244691723  L 1163.31834147383 526.100366824151  Z M 1166.54733530302 523.734471586722  C 1165.73832186827 524.323532210829  1164.93062932285 524.91440480505  1164.1242637493 525.50708491967  L 1164.71650128539 526.312848347012  C 1165.52166324073 525.7210528939  1166.32815018721 525.13106226321  1167.13595605143 524.542880897994  L 1166.54733530302 523.734471586722  Z M 1169.79040773397 521.387911842942  C 1168.97788909904 521.972128090991  1168.16668050346 522.558164169041  1167.35678805599 523.146015663982  L 1167.9442005781 523.955303331543  C 1168.75288414294 523.368329290721  1169.56288189146 522.783167956934  1170.37418772378 522.199823736869  L 1169.79040773397 521.387911842942  Z M 1173.04744298564 519.06077136741  C 1172.23144815838 519.640122382218  1171.41675247345 520.221301022128  1170.60336206613 520.804302910426  L 1171.18592860303 521.617085925802  C 1171.99810490654 521.034954252848  1172.81158453933 520.454643106827  1173.62636137531 519.876156857902  L 1173.04744298564 519.06077136741  Z M 1176.31832477853 516.753133241433  C 1175.49888289069 517.327598339634  1174.68072920206 517.903898792608  1173.86386987368 518.482030260557  L 1174.44156962715 519.298279606558  C 1175.2572096738 518.721011084171  1176.07414214881 518.145570843621  1176.89236090007 517.571963218389  L 1176.31832477853 516.753133241433  Z M 1179.60293633878 514.465079850068  C 1178.78007664534 515.034638522636  1177.95849416185 515.606040214216  1177.13819507518 516.179280621896  L 1177.71100742073 516.998967157582  C 1178.53008209133 516.426582394841  1179.35043824322 515.856033603571  1180.17206969852 515.287325080416  L 1179.60293633878 514.465079850068  Z M 1182.90116040239 512.196692879177  C 1182.07491228032 512.761324792252  1181.24993033322 513.327807322866  1180.42622077383 513.896136204977  L 1180.99412526148 514.719230666694  C 1181.81660531422 514.151750098325  1182.64035585544 513.586113125514  1183.46537068168 513.022324007916  L 1182.90116040239 512.196692879177  Z M 1186.21287921936 509.948053312507  C 1185.38327216649 510.507738308208  1184.55492020866 511.06928145373  1183.72782958373 511.632678520404  L 1184.2908059387 512.459151522833  C 1185.11666201021 511.896595408477  1185.94377753201 511.335890447946  1186.77214627532 510.777040863755  L 1186.21287921936 509.948053312507  Z M 1189.53797455793 507.719241428805  C 1188.70503819217 508.273959525743  1187.87334579645 508.830543238623  1187.04290363406 509.388988375946  L 1187.60093175752 510.218810413151  C 1188.43013436387 509.661198836638  1189.26058533737 509.105445906133  1190.09227842414 508.551555806855  L 1189.53797455793 507.719241428805  Z M 1192.87632770876 505.510336798949  C 1192.04009176675 506.060068193147  1191.20508862551 506.611672602713  1190.37132457325 507.16514587365  L 1190.92438454302 507.998287320129  C 1191.75690408088 507.44564018874  1192.59066085805 506.894859129268  1193.425648596 506.345948289321  L 1192.87632770876 505.510336798949  Z M 1196.22781948922 503.321418283108  C 1195.38831382544 503.866143348589  1194.55002974915 504.412748761997  1193.71297357326 504.961230406981  L 1194.26104564453 505.797661518728  C 1195.096852392 505.24999856259  1195.93388520704 504.704209037488  1196.77213778618 504.16029705361  L 1196.22781948922 503.321418283108  Z M 1199.5923302476 501.152564027924  C 1198.74958483323 501.69226331747  1197.90804974958 502.233850220289  1197.06773133378 502.77732065799  L 1197.61079593981 503.617011573553  C 1198.44986005777 503.074352344769  1199.29013902766 502.533573839341  1200.13162652155 501.994680129723  L 1199.5923302476 501.152564027924  Z M 1202.96973986741 499.003851463727  C 1202.12378478941 499.538505709463  1201.27902874189 500.075054766594  1200.4354780865 500.613494594502  L 1200.97351583932 501.456415336051  C 1201.81580737233 500.918779208114  1202.65930249824 500.38303102871  1203.50399486491 499.84917483241  L 1202.96973986741 499.003851463727  Z M 1206.35992777164 496.875357301766  C 1205.51079323139 497.40494741604  1204.66284637883 497.93643947202  1203.8160935994 498.469829467333  L 1204.34908529052 499.315949941731  C 1205.19457416794 498.783356108776  1206.04125533614 498.252657382212  1206.88912241925 497.72385775842  L 1206.35992777164 496.875357301766  Z M 1209.7627729271 494.767157531473  C 1208.91048923966 495.291664607319  1208.05938185448 495.818080687443  1207.20945718102 496.346401807536  L 1207.73738378209 497.195691807411  C 1208.58603981901 496.668159283641  1209.43587680228 496.142528956298  1210.28688833202 495.618804783758  L 1209.7627729271 494.767157531473  Z M 1213.17815384871 492.679327417749  C 1212.32275144145 493.198732729751  1211.46851390913 493.72005404037  1210.6154476848 494.243287423662  L 1211.13829034829 495.095716628487  C 1211.99008324682 494.573264247356  1212.84304570511 494.052721084778  1213.69717129948 493.534091060981  L 1213.17815384871 492.679327417749  Z M 1216.60594860386 490.611941498278  C 1215.74745801553 491.126226503132  1214.89012083323 491.642434432538  1214.03394351337 492.160561399058  L 1214.55168357325 493.016099376234  C 1215.4065829236 492.498745789775  1216.2626404051 491.983308375997  1217.11984957103 491.469791016516  L 1216.60594860386 490.611941498278  Z M 1220.04603481676 488.565073580864  C 1219.18448669638 489.074219918041  1218.32408047184 489.585296037132  1217.4648226229 490.098298089189  L 1217.97744159533 490.956914295129  C 1218.83541687666 490.444677973425  1219.69453881933 489.934364710039  1220.55480095353 489.425978347998  L 1220.04603481676 488.565073580864  Z M 1223.49828967278 486.538796740798  C 1222.63371477839 487.042786233328  1221.77027022925 487.548712296003  1220.90796252749 488.056571118975  L 1221.41544211145 488.918234900197  C 1222.2764626932 488.411134130585  1223.13861842541 487.905963236352  1224.00190281567 487.402726021642  L 1223.49828967278 486.538796740798  Z M 1226.96258992287 484.53318331825  C 1226.09501912081 485.03199797311  1225.22856707268 485.532755917445  1224.3632403035 486.035453380171  L 1224.86556238144 486.900133974391  C 1225.72959752421 486.398186860943  1226.59475626628 485.898176370879  1227.46103209239 485.400106269639  L 1226.96258992287 484.53318331825  Z M 1230.43881188795 482.54830491568  C 1229.56827615135 483.041926924701  1228.69884753753 483.537498873071  1227.83053259396 484.035017028759  L 1228.32767923245 484.902683565991  C 1229.19469808934 484.405908028709  1230.06282895414 483.911075793755  1230.93206528919 483.418190587573  L 1230.43881188795 482.54830491568  Z M 1233.92683146331 480.584232395292  C 1233.05336187115 481.072644135685  1232.18098773124 481.56301239561  1231.30971561295 482.055333482376  L 1231.80166906336 482.925954986031  C 1232.67164068095 482.434368760288  1233.54271267521 481.944732446515  1234.41487848662 481.457049731875  L 1233.92683146331 480.584232395292  Z M 1237.42652412308 478.641035876495  C 1236.55015185925 479.124219911383  1235.67486333763 479.609366976363  1234.80066515008 480.096473417762  L 1235.28740784916 480.970018805756  C 1236.16030116847 480.483639441736  1237.03428319422 479.999216529563  1237.90934734467 479.516753717291  L 1237.42652412308 478.641035876495  Z M 1240.94052307397 476.72230495468  C 1240.06050017288 477.198997890238  1239.181676142 477.677900744983  1238.30405929977 478.159008985903  L 1238.78476476739 479.035891106491  C 1239.66091308864 478.555587906573  1240.53826657857 478.077486402534  1241.41681693262 477.601591119825  L 1240.94052307397 476.72230495468  Z M 1244.46697303907 474.827338666381  C 1243.58377662399 475.298125830101  1242.70176424832 475.771130894461  1241.82094426097 476.246349382126  L 1242.29576490612 477.126431966282  C 1243.17511101267 476.652008664263  1244.05564751231 476.179795081805  1244.93736607009 475.709795688773  L 1244.46697303907 474.827338666381  Z M 1248.0060378356 472.956037793687  C 1247.11970753912 473.420898059443  1246.23454639827 473.887984107691  1245.35056279175 474.357291517123  L 1245.8194773073 475.24053507193  C 1246.7019817393 474.772012957105  1247.58566173528 474.305708486438  1248.47050893053 473.841626073861  L 1248.0060378356 472.956037793687  Z M 1251.5575586512 471.108486309545  C 1250.6681342466 471.56739881715  1249.77986406138 472.028544889219  1248.89275650366 472.49192016067  L 1249.35574384748 473.378285051367  C 1250.24136700336 472.915685148245  1251.12815084133 472.455310714364  1252.01608696731 471.997166107521  L 1251.5575586512 471.108486309545  Z M 1255.12137611456 469.284767121172  C 1254.22889751395 469.737711277339  1253.33755814469 470.192896679711  1252.44736644394 470.650319019631  L 1252.90440583989 471.539765471389  C 1253.79310797814 471.083108538702  1254.68295586438 470.628684800543  1255.5739410758 470.176498558241  L 1255.12137611456 469.284767121172  Z M 1258.69733030257 467.484962066326  C 1257.80183755519 467.93191754557  1256.90746899984 468.381121852257  1256.01423310265 468.832570734206  L 1256.4653040415 469.725058833913  C 1257.35704528232 469.274365363779  1258.24991728589 468.825912713105  1259.1439116005 468.379705126842  L 1258.69733030257 467.484962066326  Z M 1262.28526074749 465.709151909646  C 1261.38679403767 466.150098655286  1260.48943643041 466.593301708555  1259.59319641985 467.038756874216  L 1260.0382786602 467.934246572271  C 1260.93301898754 467.489536789131  1261.82887504152 467.047075349899  1262.72583834218 466.606866442816  L 1262.28526074749 465.709151909646  Z M 1265.88500644418 463.957416339018  C 1264.9836060898 464.392334563965  1264.08329969875 464.829516475478  1263.18409579278 465.268957935449  L 1263.62316936196 466.167409047555  C 1264.52086862521 465.728702907338  1265.41966852877 465.292252534654  1266.31956056509 464.858062060708  L 1265.88500644418 463.957416339018  Z M 1269.49640585726 462.229833962003  C 1268.59211230796 462.658704149647  1267.68889753337 463.089845301348  1266.78677008306 463.523253336043  L 1267.21981527804 464.424625545013  C 1268.12043319364 463.991942734309  1269.02213661413 463.561523013402  1269.92491700417 463.133370456545  L 1269.49640585726 462.229833962003  Z M 1273.11929692843 460.52648230231  C 1272.21215076353 460.949285207509  1271.30606813644 461.37436625228  1270.40105762389 461.801721412926  L 1270.82805501216 462.705974270491  C 1271.7315511658 462.279334205508  1272.63611763989 461.854964451164  1273.5417458723 461.432869024315  L 1273.11929692843 460.52648230231  Z M 1276.75351708372 458.847437796316  C 1275.84355901057 459.264154446168  1274.93464919063 459.68315630888  1274.02679622739 460.104439418297  L 1274.44772664782 461.011532346922  C 1275.35406049587 460.590954172772  1276.26144943205 460.172653428159  1277.16988486752 459.756634072493  L 1276.75351708372 458.847437796316  Z M 1280.39890324074 457.192775789636  C 1279.48617409291 457.603387484356  1278.57447786663 458.016291362676  1277.66382319178 458.431483516163  L 1278.07866775549 459.341375810866  C 1278.98779862703 458.926878400617  1279.89796930705 458.514665436606  1280.80917118035 458.104740820618  L 1280.39890324074 457.192775789636  Z M 1284.05529181608 455.562570533741  C 1283.13983255146 455.967058847498  1282.22539083039 456.373846212735  1281.31197530874 456.782928778917  L 1281.72071539996 457.695579609099  C 1282.63260249851 457.287181562971  1283.54551407936 456.881074877207  1284.45944150108 456.477263395916  L 1284.05529181608 455.562570533741  Z M 1287.72251873257 453.95689518263  C 1286.80437043157 454.355241964374  1285.88722425047 454.755894562311  1284.97108887072 455.158849183973  L 1285.3737061476 456.074217595247  C 1286.2883085531 455.671937239716  1287.20392006859 455.271955055913  1288.12053202711 454.874274829978  L 1287.72251873257 453.95689518263  Z M 1291.40041942669 452.375821789543  C 1290.4796232904 452.76800916382  1289.55981380538 453.16250901553  1288.64099967829 453.559317610447  L 1289.03747607374 454.477362526477  C 1289.95475274422 454.081217913512  1290.87302310712 453.687378180512  1291.79227847029 453.295847055475  L 1291.40041942669 452.375821789543  Z M 1295.08882885596 450.819421303729  C 1294.16542620423 451.205431671502  1293.24299469101 451.593761074118  1292.32154304748 451.984405835881  L 1292.71186076998 452.905086060226  C 1293.63177054353 452.51509496644  1294.55265854717 452.127415357488  1295.47451606429 451.742050902937  L 1295.08882885596 450.819421303729  Z M 1298.78758150632 449.287763567264  C 1297.86161377606 449.667579606643  1296.93660162782 450.049721134274  1296.01255381722 450.434184533028  L 1296.39669535162 451.357458750989  C 1297.31919694806 450.973638676903  1298.24266126852 450.592136588733  1299.16707957201 450.212956097571  L 1298.78758150632 449.287763567264  Z M 1302.49651139955 447.780917311912  C 1301.56802014273 448.154521978994  1300.64046886857 448.530458483381  1299.71386635672 448.908723266677  L 1300.09181446501 449.834550047152  C 1301.0168664879 449.456918216348  1301.94286568556 449.081610768523  1302.86980329297 448.708631256136  L 1302.49651139955 447.780917311912  Z M 1306.21545210076 446.298950156047  C 1305.28447898265 446.66632668564  1304.3544302055 447.036041297007  1303.4253145729 447.408090490534  L 1303.79705229499 448.336428287876  C 1304.72461323341 447.965001646263  1305.65310575497 447.595905680331  1306.58252107077 447.229143883857  L 1306.21545210076 446.298950156047  Z M 1309.94423672582 444.841928601615  C 1309.0108235229 445.203060508064  1308.07831897806 445.566536635725  1307.14673191784 445.932353544146  L 1307.51224257234 446.863160700032  C 1308.44227080288 446.497955915026  1309.37321498298 446.135087993875  1310.30506630053 445.774560371403  L 1309.94423672582 444.841928601615  Z M 1313.68269794888 443.409918031152  C 1312.74688654732 443.764789108949  1311.81196807989 444.122010442313  1310.87795139629 444.481578649886  L 1311.23721858124 445.414813395179  C 1312.16967236976 445.055846854999  1313.10302643301 444.699223262039  1314.03727193638 444.344945991902  L 1313.68269794888 443.409918031152  Z M 1317.43066800983 442.002982704844  C 1316.49250040328 442.351577029488  1315.555209967 442.702527538531  1314.61880557312 443.055830909974  L 1314.97181316672 443.991451366602  C 1315.9066506701 443.638739179588  1316.84237273328 443.288375917907  1317.77897049894 442.940364898018  L 1317.43066800983 442.002982704844  Z M 1321.18797872188 440.621185757653  C 1320.24749700978 440.963487686286  1319.30787666471 441.308151622419  1318.36912658086 441.65517430356  L 1318.71585874222 442.593138486396  C 1319.65303801055 442.246696480152  1320.59108608378 441.902609272061  1321.52999408283 441.560880119066  L 1321.18797872188 440.621185757653  Z M 1324.95446147909 439.264589196476  C 1324.01170786466 439.600583368623  1323.06979977552 439.938945265327  1322.12874612722 440.279671683852  L 1322.46918729703 441.219937502595  C 1323.40866627516 440.879781223432  1324.34899826456 440.541985509464  1325.29017436426 440.206553558186  L 1324.95446147909 439.264589196476  Z M 1328.72994726393 437.933253897366  C 1327.78496405248 438.262925235556  1326.84081048635 438.594969909213  1325.89749550265 438.929384775296  L 1326.23163040393 439.871910036361  C 1327.17336693366 439.538054748452  1328.11594064248 439.206565686956  1329.0593426085 438.877445989569  L 1328.72994726393 437.933253897366  Z M 1332.51426665486 436.6272396028  C 1331.56709625162 436.950573313345  1330.62073957665 437.276285863714  1329.67520558789 437.604374170805  L 1330.00301922664 438.549116579217  C 1330.9469710483 438.221577264052  1331.89174417959 437.896409730234  1332.83732967751 437.573617055723  L 1332.51426665486 436.6272396028  Z M 1336.30724983395 435.346604918997  C 1335.35793474229 435.663586492603  1334.40941742548 435.982952303593  1333.46170686161 436.304699329039  L 1333.78318452748 437.251616490331  C 1334.72930928212 436.930407845926  1335.67623943994 436.611576431421  1336.62396603751 436.295125264801  L 1336.30724983395 435.346604918997  Z M 1340.10872659447 434.091407313289  C 1339.15730941411 434.402022525675  1338.20667401922 434.715027266066  1337.25682940795 435.030418571742  L 1337.57195667492 435.979467993856  C 1338.5202119061 435.664604434144  1339.4692565977 435.352123446259  1340.41908176659 435.042027987975  L 1340.10872659447 434.091407313289  Z M 1343.91852634858 432.861703111541  C 1342.96504977351 433.165938024129  1342.01233895945 433.472567648114  1341.0604029242 433.781589081119  L 1341.36916565122 434.732728176313  C 1342.31950880678 434.424223830531  1343.27062544474 434.118107291535  1344.22250656235 433.814381456859  L 1343.91852634858 432.861703111541  Z M 1347.7374128958 431.658874464122  C 1347.24147289605 431.812926190265  1346.74573390726 431.967624288748  1346.25019719264 432.122968365382  C 1345.79070844484 432.267512505819  1345.33139462108 432.412612122493  1344.87225672842 432.558266897271  L 1345.17464106003 433.511452984033  C 1345.63285312788 433.366091913622  1346.09124071167 433.221284691458  1346.5498028073 433.077031634746  C 1347.04435274999 432.921997349218  1347.5391044994 432.767607549867  1348.0340567952 432.613862629988  L 1347.7374128958 431.658874464122  Z M 1351.56451326039 430.484119430308  C 1350.60675755854 430.774602608314  1349.6497330791 431.067491268886  1348.69344888101 431.362782639622  L 1348.98849304028 432.318266257525  C 1349.94317708293 432.02346899941  1350.8986001681 431.73107043103  1351.85475325225 431.44107332007  L 1351.56451326039 430.484119430308  Z M 1355.39939717689 429.335027642343  C 1354.43971708253 429.619088511919  1353.48075208039 429.905559708385  1352.52251124777 430.194438520083  L 1352.81114821645 431.151877134464  C 1353.76778561959 430.863481705218  1354.72514598037 430.577489862566  1355.68322023693 430.293904313553  L 1355.39939717689 429.335027642343  Z M 1359.24189255832 428.21165066469  C 1358.28033113623 428.489276478859  1357.31946864408 428.76931735608  1356.35931417712 429.051770645564  L 1356.6415310029 430.011121292225  C 1357.60007883828 429.729140633332  1358.55933351398 429.449568350037  1359.51928595023 429.172407088618  L 1359.24189255832 428.21165066469  Z M 1363.09182697613 427.114038907881  C 1362.12842737552 427.385217208435  1361.16571051121 427.658815199829  1360.20368549599 427.934830292259  L 1360.47946951463 428.896049921201  C 1361.43988476827 428.620496686292  1362.40099071322 428.347356507908  1363.36277825215 428.076631971446  L 1363.09182697613 427.114038907881  Z M 1366.949027668 426.04224162626  C 1365.98383312056 426.306960244315  1365.01930508513 426.574103072417  1364.05545269166 426.843667581866  L 1364.32479152761 427.80671305922  C 1365.28703110174 427.537599613498  1366.24994518715 427.270903796946  1367.21352466942 427.006628133961  L 1366.949027668 426.04224162626  Z M 1370.81332154548 424.996306915767  C 1369.84637536346 425.254553972314  1368.88007943924 425.515229649329  1367.91444291953 425.77833147933  L 1368.17732448644 426.743159589295  C 1369.14134520143 426.480498008985  1370.10602421741 426.220258522  1371.07135240325 425.962443591626  L 1370.81332154548 424.996306915767  Z M 1374.68453520187 423.976281711784  C 1373.7158807761 424.228045618217  1372.74786032477 424.482242446559  1371.78048301089 424.738869790653  L 1372.03689551219 425.705437237434  C 1373.00265410842 425.449239309252  1373.96905476595 425.195467829821  1374.93608833707 424.944125201284  L 1374.68453520187 423.976281711784  Z M 1378.56249491993 422.982211787026  C 1377.59217571786 423.227481245678  1376.62247417856 423.475187818467  1375.65339948064 423.725329160746  L 1375.90333141006 424.693592570496  C 1376.87078455008 424.443869791067  1377.83886348261 424.196577707011  1378.80755904435 423.95171865906  L 1378.56249491993 422.982211787026  Z M 1382.44702667969 422.014141749488  C 1381.47508624363 422.252905754088  1380.50374713064 422.494110955764  1379.53301853515 422.737755071335  L 1379.77645867721 423.707670994102  C 1380.74556294732 423.464434569538  1381.71527671338 423.223632977815  1382.68559079629 422.985268498305  L 1382.44702667969 422.014141749488  Z M 1386.33795616628 421.072115040445  C 1385.36443811113 421.304362876685  1384.39150501253 421.539055883356  1383.41916607999 421.77619183892  L 1383.65610351053 422.747716750598  C 1384.62681542311 422.510977595902  1385.59812050756 422.276677302293  1386.57000956972 422.044818087604  L 1386.33795616628 421.072115040445  Z M 1390.23510877774 420.1561739325  C 1389.26005678924 420.381895178467  1388.28557336452 420.610065458495  1387.31166772778 420.840682612788  L 1387.54209181444 421.813772917069  C 1388.51436780971 421.583541655686  1389.487220626 421.355753174231  1390.46064105482 421.130409628825  L 1390.23510877774 420.1561739325  Z M 1394.13830963282 419.266359527687  C 1393.16176746557 419.485544054342  1392.18577744381 419.707181368791  1391.21034880599 419.931269373077  L 1391.43424920871 420.905881403407  C 1392.40804565655 420.682168366782  1393.38240254899 420.460901919236  1394.35731066299 420.242084155226  L 1394.13830963282 419.266359527687  Z M 1398.04738357892 418.40271175563  C 1397.06939505436 418.615349727265  1396.09194223223 418.830444130359  1395.11503436482 419.047992928888  L 1395.33240103626 420.024082950427  C 1396.30767423854 419.806898177458  1397.28349148354 419.592163693001  1398.2598435347 419.379881529615  L 1398.04738357892 418.40271175563  Z M 1401.96215519982 417.565269371748  C 1400.98276420432 417.771351246423  1400.00389244413 417.979893085994  1399.025549185 418.19089291646  L 1399.23637237103 419.168417128044  C 1400.21307856319 418.957770364716  1401.19031237192 418.749577479341  1402.16806454727 418.543840442562  L 1401.96215519982 417.565269371748  Z M 1405.88244882368 416.754069955514  C 1404.90169930652 416.953586485492  1403.92145253428 417.155566403411  1402.9417177857 417.360007797387  L 1403.14598802582 418.338922333494  C 1404.12408337898 418.134823032401  1405.10268989906 417.933181088557  1406.08179832279 417.73399841066  L 1405.88244882368 416.754069955514  Z M 1409.80808853084 415.969149908775  C 1408.82602450228 416.16209214093  1407.84444670567 416.357501073531  1406.86336443236 416.555374856891  L 1407.06107256012 417.535635789611  C 1408.04051318325 417.338093109504  1409.02044850038 417.143011155735  1410.00086923598 416.950391774843  L 1409.80808853084 415.969149908775  Z M 1413.73889816174 415.210544454114  C 1412.75556369101 415.396903730336  1411.77269891746 415.585732908818  1410.79031314461 415.777030202155  L 1410.98145028804 416.758593543158  C 1411.96219222956 416.567616348599  1412.94341237013 416.37910313901  1413.92510142205 416.193055698756  L 1413.73889816174 415.210544454114  Z M 1417.67470132482 414.478287633269  C 1416.69014053813 414.658055590863  1415.70603289291 414.840296541667  1414.72238770414 415.025008760696  L 1414.90694528614 416.007830463207  C 1415.88894453613 415.823427324127  1416.87140546877 415.64149131808  1417.8543187846 415.462024167174  L 1417.67470132482 414.478287633269  Z M 1421.61532140445 413.772412305609  C 1420.62957848319 413.94558087763  1419.64427212705 414.121225422894  1418.65941166266 414.2993442788  L 1418.83738140136 415.28338023958  C 1419.82059389344 415.105559430911  1420.80425153119 414.930208792603  1421.78834500353 414.757329984483  L 1421.61532140445 413.772412305609  Z M 1425.56058156884 413.092950146654  C 1424.57370074728 413.259511562327  1423.58723989506 413.428551820142  1422.60120834973 413.600069320012  L 1422.7725822589 414.585275381328  C 1423.75696387235 414.414044882612  1424.74177407436 414.245287480763  1425.72700354294 414.079004773201  L 1425.56058156884 413.092950146654  Z M 1429.51030477798 412.439931646659  C 1428.52233034152 412.59987843169  1427.53475925975 412.762306816527  1426.54760088076 412.927215263665  L 1426.71237127016 413.913547215281  C 1427.69787783179 413.748914710323  1428.68379640548 413.586758117788  1429.67011765907 413.427078972563  L 1429.51030477798 412.439931646659  Z M 1433.46431379159 411.813386109243  C 1432.47529007469 411.966711086165  1431.48665307975 412.122520309194  1430.49841216495 412.280812303483  L 1430.65657164065 413.268225884637  C 1431.64315892668 413.110198761183  1432.63014162994 412.954650254576  1433.6175104082 412.801581837153  L 1433.46431379159 411.813386109243  Z M 1437.42243117707 411.213341650076  C 1436.43240256127 411.360037938566  1435.44274401737 411.509221007989  1434.45346491317 411.660889446218  L 1434.60500637791 412.649340347612  C 1435.59263011606 412.497925696994  1436.58063265904 412.348992256399  1437.56900465464 412.202541435596  L 1437.42243117707 411.213341650076  Z M 1441.38447931744 410.639825195612  C 1440.3934902294 410.779886212808  1439.40285454656 410.922436434168  1438.41258164599 411.067474510352  L 1438.55749829947 412.056918376139  C 1439.54611417113 411.912122992938  1440.53509221789 411.76981130164  1441.52442307862 411.62998464929  L 1441.38447931744 410.639825195612  Z M 1445.35028041936 410.092862481889  C 1444.35837532883 410.226281942677  1443.36680696093 410.362192919161  1442.37558470159 410.500594124847  L 1442.51387004082 411.490986554621  C 1443.50343368268 411.352816936409  1444.49334285382 411.217133380502  1445.4835881843 411.083937171208  L 1445.35028041936 410.092862481889  Z M 1449.31965652106 409.572478053368  C 1448.32687993888 409.699249970669  1447.33442338168 409.828515603395  1446.34229624377 409.960273727952  L 1446.47394406332 410.951570278743  C 1447.46441106955 410.820032625763  1448.45520694389 410.690983293912  1449.44632230769 410.56442350474  L 1449.31965652106 409.572478053368  Z M 1453.29242950035 409.078695261832  C 1452.29882597648 409.198813946871  1451.30552576556 409.321428435158  1450.31253826992 409.446537566059  L 1450.43754266219 410.438693754323  C 1451.42886858658 410.313793969197  1452.42050670284 410.191384652401  1453.41244762465 410.071466962596  L 1453.29242950035 409.078695261832  Z M 1457.26842108261 408.611536265341  C 1456.27403520411 408.7249963279  1455.27993591294 408.840954169534  1454.28613261897 408.959408692618  L 1454.40448797452 409.952379996238  C 1455.39662833216 409.834123683737  1456.38906419157 409.718359874991  1457.38178615888 409.605089665758  L 1457.26842108261 408.611536265341  Z M 1461.24745284878 408.171022027235  C 1460.25232923783 408.277818375895  1459.25747547572 408.387114367372  1458.26290097946 408.4989089671  L 1458.3746019872 409.492650827379  C 1459.36751225662 409.381043294155  1460.36070132461 409.271930188245  1461.35415978987 409.165312542488  L 1461.24745284878 408.171022027235  Z M 1465.22958326772 407.758594762361  C 1464.23383882578 407.858535559007  1463.23831956514 407.960707336986  1462.24303298279 408.065109326867  L 1462.34735701143 409.059652687937  C 1463.3411579834 408.955406533252  1464.33519128634 408.853387261555  1465.32944943448 408.753595641123  L 1465.22958326772 407.758594762361  Z M 1469.21372996672 407.370733312418  C 1468.21740615236 407.464722744914  1467.22129418514 407.560944464378  1466.22540156654 407.659397746188  L 1466.32378132925 408.654546690964  C 1467.31818743287 408.556240365036  1468.31281255769 408.460162270523  1469.30764921345 408.366313130962  L 1469.21372996672 407.370733312418  Z M 1473.20012302158 407.006684090996  C 1472.20325540453 407.094718803827  1471.20658629307 407.184987029553  1470.21012319255 407.277488088414  L 1470.30255517707 408.273207089054  C 1471.29753091104 408.180844101519  1472.29271234858 408.090710614277  1473.28809199528 408.002807306098  L 1473.20012302158 407.006684090996  Z M 1477.18862011398 406.666460095027  C 1476.19124428354 406.748536945254  1475.19405360974 406.832848454592  1474.19705560216 406.919393988111  L 1474.28353650858 407.915647496423  C 1475.27904635123 407.829231144734  1476.27474857251 407.745045482622  1477.27063567406 407.663091144064  L 1477.18862011398 406.666460095027  Z M 1481.17907885045 406.350073470858  C 1480.18123041392 406.426189528257  1479.18355377861 406.50454131119  1478.18605645779 406.585128229608  L 1478.26658319865 407.581880678316  C 1479.26259160925 407.501414047627  1480.25877906666 407.423179216159  1481.25513806887 407.347176773076  L 1481.17907885045 406.350073470858  Z M 1485.17135676753 406.057535513817  C 1484.17307134912 406.127688060967  1483.17494437039 406.200077320256  1482.17698334799 406.274702746536  L 1482.25155304841 407.271918550552  C 1483.24802446839 407.197404513608  1484.24466159712 407.12512330584  1485.2414569289 407.055075471601  L 1485.17135676753 406.057535513817  Z M 1489.16531133678 405.78885666781  C 1488.16662457625 405.853043200197  1487.16808288836 405.919467351462  1486.16969379257 405.988128621404  L 1486.23830379033 406.985772179098  C 1487.23520264474 406.917213396119  1488.23225386361 406.85088839258  1489.22944993845 406.786797667958  L 1489.16531133678 405.78885666781  Z M 1493.1607999699 405.544046524949  C 1492.16174752151 405.602264751039  1491.16282677323 405.662721422886  1490.16404524767 405.725416085204  L 1490.22669309331 406.723451779674  C 1491.22398379178 406.660850698283  1492.22141350515 406.600484266837  1493.21897472206 406.542352939939  L 1493.1607999699 405.544046524949  Z M 1497.15768002385 405.323113825206  C 1496.15829755475 405.375361666554  1495.15903340866 405.429848700609  1494.15989511081 405.486574517044  L 1494.21657856776 406.484966717388  C 1495.21422550598 406.428325572508  1496.21199810458 406.373919868298  1497.2098888496 406.321750014474  L 1497.15768002385 405.323113825206  Z M 1501.1558088059 405.126066456108  C 1500.15613199506 405.172342047411  1499.15656012594 405.220857498432  1498.15710072606 405.271612443812  L 1498.20781777064 406.270325506403  C 1499.2057853316 406.21964632018  1500.20386519392 406.171203285547  1501.20204984132 406.124996767313  L 1501.1558088059 405.126066456108  Z M 1505.15504357873 404.952911452448  C 1504.15510811564 404.99321314162  1503.15526420923 405.035755277554  1502.15551938905 405.080537539877  L 1502.20026821063 406.079535809629  C 1503.19852076585 406.034820391364  1504.1968722594 405.992341755773  1505.19531517298 405.95210022275  L 1505.15504357873 404.952911452448  Z M 1509.15524156554 404.803654996038  C 1508.15508314889 404.837981344268  1507.15500290073 404.874548646315  1506.15500835213 404.913356626809  L 1506.19378735311 405.912604438457  C 1507.19228926396 405.873854384535  1508.19087674658 405.837341664517  1509.18954228088 405.803066553369  L 1509.15524156554 404.803654996038  Z M 1513.15625995515 404.678302415486  C 1512.15591429172 404.706652197286  1511.15563340552 404.737243359962  1510.15542482943 404.770075673139  L 1510.18823262537 405.769537352507  C 1511.18694824429 405.736754046346  1512.18573606537 405.706208545442  1513.18458856701 405.677901079826  L 1513.15625995515 404.678302415486  Z M 1517.1579559071 404.576858186009  C 1516.1574587102 404.599230389264  1515.15701289711 404.62384432043  1514.15662600195 404.650699794144  L 1514.18346142158 405.650339659422  C 1515.1823550934 405.623524271419  1516.18130759519 405.598947080136  1517.18031140411 405.576608270657  L 1517.1579559071 404.576858186009  Z M 1521.1601865567 404.499325929271  C 1520.15957354507 404.515719755271  1519.15899852214 404.534355576181  1518.1584690227 404.555233251666  L 1518.17933110797 405.555015614682  C 1519.17836717116 405.534169102174  1520.17744869003 405.515561097943  1521.17656814076 405.499191742119  L 1521.1601865567 404.499325929271  Z M 1525.16280902022 404.445708413252  C 1524.16211591687 404.456123276719  1523.16144740546 404.46878032206  1522.16081102177 404.483679453958  L 1522.17569902788 405.483568621454  C 1523.17484181582 405.468691728683  1524.17401668353 405.456053575828  1525.17321610648 405.445654258063  L 1525.16280902022 404.445708413252  Z M 1529.16568039991 404.416007552153  C 1528.16494293056 404.420443081267  1527.16421665566 404.427120899167  1526.16350911143 404.436040955566  L 1526.17242250686 405.436001230468  C 1527.17163634913 405.427094488554  1528.17086889411 405.420426638271  1529.17011261683 405.415997729831  L 1529.16568039991 404.416007552153  Z M 1533.16865778914 404.410224406326  C 1532.1679116811 404.408680442733  1531.16716336977 404.409378794788  1530.16642039124 404.412319457232  L 1530.16935885777 405.412315139929  C 1531.16860808141 405.409378866853  1532.16786263002 405.408681557191  1533.16711497849 405.410223216193  L 1533.16865778914 404.410224406326  Z M 1537.17159827751 404.428359182234  C 1536.17087925855 404.420835781056  1535.17014463833 404.415554642333  1534.16940195314 404.412515805838  L 1534.16636538587 405.412511195457  C 1535.16561431665 405.415545496046  1536.16485519448 405.420818751898  1537.16408049436 405.428330923303  L 1537.17159827751 404.428359182234  Z M 1541.17435895591 404.470411232448  C 1540.17370275267 404.456908662278  1539.17301755092 404.44564822132  1538.17231088658 404.436629994374  L 1538.16329939391 405.43658939005  C 1539.16251235756 405.445594155976  1540.1617038908 405.456837789084  1541.16086646866 405.470320204699  L 1541.17435895591 404.470411232448  Z M 1545.17679692168 404.536379055667  C 1544.17623925862 404.516897798559  1543.17563920083 404.499658457375  1542.17500428358 404.48466116194  L 1542.16001818724 405.484548864092  C 1543.15915951094 405.499523773877  1544.1582660272 405.51673738283  1545.15733021202 405.53618956132  L 1545.17679692168 404.536379055667  Z M 1549.17876928365 404.62626029677  C 1548.17834588171 404.600801048227  1547.17786669033 404.577583422279  1546.17733924388 404.556607593772  L 1546.15637907889 405.556387905382  C 1547.15541309221 405.577332424406  1548.15439892246 405.60051539466  1549.15332904657 405.625936641562  L 1549.17876928365 404.62626029677  Z M 1553.18013316729 404.740051746905  C 1552.17987974262 404.708615415847  1551.17955713579 404.679420334029  1550.17917288 404.65246672131  L 1550.15223939465 405.652103949191  C 1551.15113043104 405.679017329713  1552.14995991047 405.708168833613  1553.14872031103 405.739558241362  L 1553.18013316729 404.740051746905  Z M 1557.18074571981 404.8777493436  C 1556.18069798248 404.840337052338  1555.18056767275 404.805165556943  1554.18036232235 404.772235122283  L 1554.1474564782 405.771693578359  C 1555.14616887624 405.804574859542  1556.1448063456 405.83969385635  1557.14336136584 405.877050304311  L 1557.18074571981 404.8777493436  Z M 1561.18046411521 405.03934817091  C 1560.18065776795 404.9959612551  1559.180755461 404.954814601787  1558.18076472437 404.915908520837  L 1558.14188769618 405.915152523411  C 1559.1403858008 405.954000531361  1560.13879560772 405.995085767292  1561.13710959819 406.038407921803  L 1561.18046411521 405.03934817091  Z M 1565.17914555943 405.22484245959  C 1564.17961629636 405.17548246819  1563.17997768973 405.128362125937  1562.18023726756 405.083481787684  L 1562.13539044329 406.082475662717  C 1563.13363860708 406.12728901052  1564.13178510729 406.174339018789  1565.12982242716 406.223625333203  L 1565.17914555943 405.22484245959  Z M 1569.17664729543 405.434225587302  C 1568.17743080078 405.378894282515  1567.17809158258 405.325801933567  1566.17863716664 405.274948940285  L 1566.12782214737 406.273657022668  C 1567.12578473184 406.324434110441  1568.12363229049 406.377447211314  1569.1213573088 406.43269592606  L 1569.17664729543 405.434225587302  Z M 1573.17282660828 405.667490078855  C 1572.1739585551 405.606189436064  1571.17495440279 405.547126975873  1570.17582167462 405.490303143066  L 1570.11904027449 406.488689777893  C 1571.11668165136 406.545428792842  1572.11419464425 406.604403093696  1573.11157174119 406.665612236338  L 1573.17282660828 405.667490078855  Z M 1138.00694646815 545.713327149688  C 1137.23076419725 546.345020302107  1136.4559982987 546.97845180825  1135.68265460707 547.6136168979  L 1136.31734539293 548.3863831021  C 1137.0895347563 547.75216608898  1137.86314420374 547.119680071751  1138.63816790941 546.488929813489  L 1138.00694646815 545.713327149688  Z M 1573.46079249164 413.640533870026  L 1585 407  L 1574.60309294939 398.684092125272  L 1573.46079249164 413.640533870026  Z " fill-rule="nonzero" fill="#1f8aee" stroke="none" />
  </g>
</svg>