<?xml version="1.0" encoding="utf-8"?>
<svg version="1.1" xmlns:xlink="http://www.w3.org/1999/xlink" width="452px" height="12px" viewBox="1228 502  452 12" xmlns="http://www.w3.org/2000/svg">
  <defs>
    <mask fill="white" id="clip5">
      <path d="M 1611.5 446  L 1730.5 446  L 1730.5 476  L 1611.5 476  Z M 1230.04401679422 390  L 2107 390  L 2107 567.083800908683  L 1230.04401679422 567.083800908683  Z " fill-rule="evenodd" />
    </mask>
  </defs>
  <g transform="matrix(0.974370064785233 0.224951054343865 -0.224951054343876 0.974370064785234 151.541061408961 -314.058825926879 )">
    <path d="M 1244.61671135756 557.660320385125  C 1243.6522751384 557.925020205014  1242.68791961786 558.190013964279  1241.72364493081 558.455301625864  L 1241.98890564123 559.419478350075  C 1242.9529844191 559.154244586292  1243.91714400882 558.889304666552  1244.88138428599 558.624658625035  L 1244.61671135756 557.660320385125  Z M 1248.47488605441 556.603088939247  C 1247.51023501656 556.867004817246  1246.54566443841 557.131214700114  1245.58117445485 557.395718550903  L 1245.8456514341 558.360110549754  C 1246.80994546155 558.095660438399  1247.77432007158 557.831504234044  1248.7387751206 557.567641976019  L 1248.47488605441 556.603088939247  Z M 1252.33391875159 555.548993609749  C 1251.36905353228 555.812125371522  1250.40426853369 556.07555120346  1249.43956389074 556.339271068727  L 1249.70325696411 557.303877705163  C 1250.66776561054 557.040211419173  1251.63235459106 556.7768391082  1252.59702378121 556.51376080622  L 1252.33391875159 555.548993609749  Z M 1256.1938068999 554.498035092941  C 1255.22872813651 554.760382564669  1254.2637293548 555.023024171665  1253.29881068971 555.285959877203  L 1253.56171968302 556.250780514025  C 1254.52644230809 555.987898228449  1255.4912450283 555.725309983085  1256.45612771916 555.463015811808  L 1256.1938068999 554.498035092941  Z M 1260.0545479496 553.450214083063  C 1259.08925627963 553.711777091445  1258.12404435224 553.973634300005  1257.15891230243 554.235785672123  L 1257.421037042 555.200819671994  C 1258.38597300526 554.938721561354  1259.35098883422 554.676917553322  1260.31608438521 554.41540768688  L 1260.0545479496 553.450214083063  Z M 1263.91613935036 552.405531272283  C 1262.95063541146 552.666309644537  1261.985210976 552.927382281682  1261.01986617901 553.18874914721  L 1261.28120649169 554.153995872648  C 1262.2463551589 553.892682109209  1263.21158345276 553.631662513195  1264.17689122955 553.370937123466  L 1263.91613935036 552.405531272283  Z M 1267.7785785513 551.363987350693  C 1266.81286298445 551.623980913694  1265.84722667228 551.88426880869  1264.88166976898 552.144850994112  L 1265.14222548214 553.110309807497  C 1266.10758621575 552.849780563878  1267.0730263369 552.589545552302  1268.03854570183 552.329604811516  L 1267.7785785513 551.363987350693  Z M 1271.64186300098 550.325583006316  C 1270.67593643773 550.584791590038  1269.71008889949 550.844294567499  1268.74432052133 551.104091902406  L 1269.00409146284 552.069762165977  C 1269.96966362836 551.810017613416  1270.93531493265 551.550567359904  1271.90104525112 551.291411438914  L 1271.64186300098 550.325583006316  Z M 1275.5059901474 549.2903189251  C 1274.53985322901 549.548742357455  1273.57379509633 549.807460247679  1272.60781588447 550.066472559592  L 1272.86680188274 551.03235363545  C 1273.83258483913 550.773393946393  1274.79844669506 550.514728620608  1275.76438732594 550.256357691467  L 1275.5059901474 549.2903189251  Z M 1279.37095743801 548.258195790914  C 1278.40461080268 548.515833901195  1277.43834271373 548.77376653328  1276.47215330626 549.031993651101  L 1276.73035419021 549.998084901206  C 1277.69634729949 549.739910246715  1278.66241906905 549.482030019525  1279.62856937425 549.224444252907  L 1279.37095743801 548.258195790914  Z M 1283.23676231969 547.229214285557  C 1282.27020660578 547.486066903573  1281.30372919883 547.743214107135  1280.33733023401 548.000655860285  L 1280.59474583307 548.966956646459  C 1281.56094845714 548.709567197078  1282.52722950216 548.452472238834  1283.49358884347 548.195671804894  L 1283.23676231969 547.229214285557  Z M 1287.10340223877 546.203375088752  C 1286.13663808476 546.459442044831  1285.16995199827 546.715803650005  1284.20334411447 546.972459868423  L 1284.4599742586 547.938969552349  C 1285.426385756 547.682365478955  1286.39287544457 547.426055957789  1287.35944318043 547.170041027013  L 1287.10340223877 546.203375088752  Z M 1290.97087464105 545.180678878145  C 1290.00390268556 545.435960003136  1289.03700855809 545.691535840574  1288.07019239383 545.947406354719  L 1288.32603691351 546.914124297942  C 1289.29265665225 546.658305768341  1290.25935433314 546.402781856962  1291.22612983146 546.147552596771  L 1290.97087464105 545.180678878145  Z M 1294.83917697175 544.161126329306  C 1293.87199785355 544.415621454576  1292.9048963238 544.67041135545  1291.93787251774 544.9254959963  L 1292.19293124397 545.892421560227  C 1293.15975858232 545.637388744258  1294.12666362334 545.382650609762  1295.09364624229 545.128207189603  L 1294.83917697175 544.161126329306  Z M 1298.70830667557 543.144718115728  C 1297.74092103354 543.398427073163  1296.77361274037 543.652430869166  1295.80638193131 543.906729468217  L 1296.06065469559 544.873862014119  C 1297.02768899489 544.619615080251  1297.99480075733 544.365662890911  1298.96198985814 544.112005478863  L 1298.70830667557 543.144718115728  Z M 1302.57826119663 542.131454908829  C 1301.61066966982 542.384377530834  1300.6431552522 542.637595054176  1299.67571807907 542.891107443445  L 1299.92920471344 543.858446332457  C 1300.89644533169 543.604985449478  1301.8637631831 543.351819371373  1302.83115812366 543.098948135834  L 1302.57826119663 542.131454908829  Z M 1306.44903797854 541.121337377948  C 1305.48124120291 541.373473498283  1304.51352130637 541.625904580023  1303.54587840503 541.878630592882  L 1303.79857874204 542.846175186  C 1304.7660250467 542.593500519662  1305.73354833529 542.341120723382  1306.70114848297 542.089035829719  L 1306.44903797854 541.121337377948  Z M 1310.32063446435 540.114366190345  C 1309.35263308882 540.365715639953  1308.38470833339 540.61736011835  1307.41686035265 540.869299585345  L 1307.66877422538 541.837049243431  C 1308.63642557097 541.58516096232  1309.60415367041 541.333567611237  1310.57195837963 541.082269227641  L 1310.32063446435 540.114366190345  Z M 1314.19304809656 539.110542011203  C 1313.22484275095 539.361104626548  1312.25671379525 539.611962330366  1311.28866136484 539.863115087578  L 1311.53978860688 540.831069171358  C 1312.50764435739 540.579967441029  1313.47557662203 540.329160703012  1314.44358525668 540.07864899465  L 1314.19304809656 539.110542011203  Z M 1318.06627631715 538.109865503628  C 1317.09786764745 538.359641117533  1316.12953511817 538.609711884384  1315.16127888398 538.860077764243  L 1315.41161932944 539.828235634309  C 1316.37967884874 539.577920619803  1317.34781463277 539.327900662187  1318.31602655661 539.078175793714  L 1318.06627631715 538.109865503628  Z M 1321.94031656754 537.112337328642  C 1320.97170520705 537.361325777766  1320.00316975669 537.610609439147  1319.03471035191 537.860188277925  L 1319.28426383541 538.828549294733  C 1320.25252648082 538.579021162236  1321.22086515112 538.329788148515  1322.18927972137 538.080850285724  L 1321.94031656754 537.112337328642  Z M 1325.81516628864 536.11795814519  C 1324.8463528804 536.366159264229  1323.87761514233 536.614655657127  1322.90895320991 536.863447289129  L 1323.15771956661 537.832010813  C 1324.12618469852 537.583269727345  1325.09472561542 537.334823822157  1326.06334219237 537.086673129491  L 1325.81516628864 536.11795814519  Z M 1329.6908229208 535.126728610139  C 1328.721808108 535.374142234319  1327.75286871574 535.621851196218  1326.78400489876 535.869855456277  L 1327.03198396433 536.838620847401  C 1328.00065094298 536.5906669729  1328.9693934667 536.343008340364  1329.93821141049 536.095644981746  L 1329.6908229208 535.126728610139  Z M 1333.56728390385 534.138649378271  C 1332.59806832018 534.385275345793  1331.62892792662 534.632196709785  1330.65986285869 534.879413435716  L 1330.90705446931 535.848380054148  C 1331.87592265483 535.601213554594  1332.84486614542 535.354342358308  1333.81388481608 535.10776649714  L 1333.56728390385 534.138649378271  Z M 1337.44454667709 533.15372110229  C 1336.47513096601 533.39955924942  1335.50579020492 533.645692854033  1334.53652452937 533.89212188171  L 1334.78292852177 534.861289087372  C 1335.75199727414 534.614910126037  1336.72114109155 534.368826529079  1337.69035984897 534.123038328244  L 1337.44454667709 533.15372110229  Z M 1341.32260867928 532.171944432817  C 1340.35299348116 532.41699459716  1339.38345299286 532.662340279805  1338.41398734998 532.907981446442  L 1338.65960356138 533.877348599124  C 1339.62887224046 533.631757338761  1340.59821574449 533.386461503687  1341.56763394842 533.141461125546  L 1341.32260867928 532.171944432817  Z M 1345.20146734867 531.193320018392  C 1344.23165330401 531.437582038072  1343.26191372897 531.682139636679  1342.29224875916 531.926992780012  L 1342.53707702731 532.896559239371  C 1343.50654498961 532.651755843023  1344.47608754636 532.40724793025  1345.44570455322 532.163035537455  L 1345.20146734867 531.193320018392  Z M 1349.08112012295 530.217848505473  C 1348.1111078724 530.461322219138  1347.1411698512 530.705091572155  1346.171306195 530.949156530439  L 1346.41534635818 531.918921656002  C 1347.38501296971 531.674906283759  1348.35475392588 531.431186458045  1349.32456910158 531.187762210299  L 1349.08112012295 530.217848505473  Z M 1352.96156443934 529.245530538435  C 1351.99135462365 529.48821578525  1351.02121879702 529.731196731652  1350.0511570951 529.974473343662  L 1350.29440899209 530.944436494823  C 1351.2642736091 530.701209308687  1352.23421233052 530.458277729406  1353.20422503121 530.215641788319  L 1352.96156443934 529.245530538435  Z M 1356.84279773448 528.276366759568  C 1355.87239099456 528.518263379222  1354.90205800334 528.760455758499  1353.9317988965 529.002943863532  L 1354.17426236663 529.973104399556  C 1355.14432434524 529.730665561  1356.11446019761 529.488522387024  1357.08466977931 529.246674913677  L 1356.84279773448 528.276366759568  Z M 1360.72481744452 527.310357809082  C 1359.7542144214 527.551465641782  1358.78368490657 527.792869293948  1357.81322903575 528.034568731823  L 1358.05490391884 529.004926011842  C 1359.02516262467 528.763275679411  1359.9954949543 528.521921073902  1360.96590078253 528.280862226451  L 1360.72481744452 527.310357809082  Z M 1364.60762100508 526.347504325099  C 1363.63682234314 526.587823210779  1362.66609693938 526.828437977962  1361.69544494885 527.06934858822  L 1361.93633108526 528.039901971239  C 1362.90678587095 527.799040306161  1363.87731404971 527.558474425354  1364.84791547702 527.318204364635  L 1364.60762100508 526.347504325099  Z M 1368.49120585128 525.387806943659  C 1367.52021218537 525.627336725163  1366.54929154678 525.867162445231  1365.57844407131 526.107284070326  L 1365.81854130191 527.078032915218  C 1366.78919152962 526.837960075802  1367.75991490997 526.598183080209  1368.73071129842 526.35870196414  L 1368.49120585128 525.387806943659  Z M 1372.37556941771 524.431266298719  C 1371.40438139567 524.670006816231  1370.43326615076 524.909043333936  1369.46222383809 525.14837581366  L 1369.70153200428 526.11931947917  C 1370.67237703604 525.88003562321  1371.6432949703 525.641047672806  1372.61428568182 525.402355658793  L 1372.37556941771 524.431266298719  Z M 1376.26070913843 523.477883022146  C 1375.28932739538 523.71583411954  1374.31801819851 523.954081273816  1373.34678168366 524.192624451655  L 1373.58530062736 525.1637622964  C 1374.55633981863 524.925267582756  1375.52745167188 524.687068833822  1376.49863606183 524.449166080332  L 1376.26070913843 523.477883022146  Z M 1380.14662244701 522.527657743725  C 1379.17504762784 522.764819263026  1378.20354511421 523.002276898073  1377.23211504197 523.240030615659  L 1377.46984460562 524.211361998127  C 1378.44107731495 523.973656584343  1379.41238244569 523.736247194229  1380.38375987254 523.499133858415  L 1380.14662244701 522.527657743725  Z M 1384.0333067765 521.580591091153  C 1383.06153952302 521.816962875697  1382.08984433437 522.053630834656  1381.11822134645 522.290594934935  L 1381.35516137301 523.262119213485  C 1382.32658695883 523.025203256585  1383.29808472544 522.788583382118  1384.26965454751 522.552259620612  L 1384.0333067765 521.580591091153  Z M 1387.92075955946 520.63668369004  C 1386.94880051358 520.872265583685  1385.9769132918 521.10814371022  1385.00509803003 521.344318036657  L 1385.24124836299 522.316034569523  C 1386.21286618359 522.079908226007  1387.18455594431 521.844078023493  1388.15631751981 521.608543992406  L 1387.92075955946 520.63668369004  Z M 1391.8089782279 519.695936163912  C 1390.83682803169 519.930728011039  1389.86474941878 520.165816149332  1388.89274252513 520.401200545917  L 1389.12810300848 521.373108691205  C 1390.09991241881 521.137772117833  1391.07179353822 520.902731741498  1392.043746222 520.667987597196  L 1391.8089782279 519.695936163912  Z M 1395.69796021337 518.758349134205  C 1394.725619509 518.992350779715  1393.7533501471 519.226648774473  1392.78115226364 519.461243085716  L 1393.01572274192 520.433342201404  C 1393.98772310326 520.198795552852  1394.9597949329 519.964545159523  1395.93193808613 519.730591056291  L 1395.69796021337 518.758349134205  Z M 1399.58770294689 517.823923220269  C 1398.61517237667 518.057134509586  1397.64271290804 518.290642206037  1396.67032467698 518.52444627697  L 1396.90410499523 519.496735720911  C 1397.87629566871 519.262979151341  1398.84855756002 519.029518897303  1399.82089054374 518.796354988915  L 1399.58770294689 517.823923220269  Z M 1403.47820385897 516.892659039364  C 1402.50548406533 517.125079818433  1401.53283513235 517.357797062328  1400.56025719605 517.590810738505  L 1400.79324719984 518.563289868426  C 1401.76562754003 518.33032353303  1402.73807885719 518.09765357095  1403.71060102589 517.865280012204  L 1403.47820385897 516.892659039364  Z M 1407.36946037965 515.964557206663  C 1406.39655200515 516.196187321953  1405.42371425033 516.428113959562  1404.45094725123 516.66033708706  L 1404.68314678666 517.633005260564  C 1405.655716148 517.400829314002  1406.62835625509 517.168949796042  1407.60106696311 516.937366741205  L 1407.36946037965 515.964557206663  Z M 1411.26146993844 515.039618335249  C 1410.28837362576 515.270457633749  1409.31534769174 515.501593511869  1408.34239227244 515.733025937286  L 1408.57380118612 516.70588251185  C 1409.54655892938 516.474497106721  1410.51938717744 516.243408187595  1411.49228578545 516.012615788876  L 1411.26146993844 515.039618335249  Z M 1415.15422996437 514.117843036114  C 1414.18094635632 514.347891365339  1413.20773288585 514.578236331285  1412.23458968906 514.808877901742  L 1412.46520782812 515.781922234718  C 1413.43815331395 515.551327523107  1414.4111690539 515.321029356993  1415.38425492246 515.091027766088  L 1415.15422996437 514.117843036114  Z M 1419.04773788596 513.199231918167  C 1418.07426762547 513.42848912615  1417.10086726145 513.658043027762  1416.12753693001 513.887893590903  L 1416.35736414211 514.861125039519  C 1417.33049672134 514.631321175279  1418.30369932333 514.401813911257  1419.27697180319 514.172603281621  L 1419.04773788596 513.199231918167  Z M 1422.94199113127 512.283785588218  C 1421.96833486138 512.512251523517  1420.9947482468 512.741014209158  1420.02123142367 512.970073613147  L 1420.250267557 513.94349153451  C 1421.22358659326 513.714478667922  1422.19697540152 513.485762460637  1423.1704338562 513.257342942166  L 1422.94199113127 512.283785588218  Z M 1426.83698712782 511.371504650991  C 1425.8631454885 511.599179163442  1424.88937327294 511.827150480485  1423.91567059797 512.055418574768  L 1424.14391550123 513.029022325858  C 1425.11742034511 512.80080060972  1426.09099472954 512.572875607229  1427.06463850955 512.345247352323  L 1426.83698712782 511.371504650991  Z M 1430.73272330267 510.462389709121  C 1429.75869694043 510.689272647569  1428.7847397607 510.916452446936  1427.81085188033 511.143929079966  L 1428.03830540274 512.117718017643  C 1429.0119954144 511.890287601954  1429.98575472542 511.663153956334  1430.95958319082 511.436317114603  L 1430.73272330267 510.462389709121  Z M 1434.62919708238 509.556441363146  C 1433.65498664709 509.782532576221  1432.68084513367 510.008920710841  1431.70677269768 510.235605730849  L 1431.93343468899 511.20957921185  C 1432.90730922523 510.982940246846  1433.88125281959 510.756598108137  1434.85526532709 510.530552829424  L 1434.62919708238 509.556441363146  Z M 1438.52640589303 508.653660211516  C 1437.55201201534 508.878959552862  1436.57768683751 509.104555867192  1435.60343047645 509.330449127438  L 1435.82930078694 510.304606508377  C 1436.80335920766 510.078759143023  1437.77748643556 509.853208662234  1438.75168234497 509.627955095114  L 1438.52640589303 508.653660211516  Z M 1442.42434716022 507.75404685059  C 1441.44977049346 507.978554169137  1440.47526227549 508.203358518639  1439.5008226426 508.428459867658  L 1439.72590112307 509.402800505028  C 1440.7001427816 509.177744889264  1441.674453006 508.952986213891  1442.64883167056 508.72852450791  L 1442.42434716022 507.75404685059  Z M 1446.32301830904 506.857601874631  C 1445.34825949054 507.081317023562  1444.37356888908 507.305329256759  1443.39894662161 507.529638547343  L 1443.62323312337 508.504161797517  C 1444.59765737292 508.279898080752  1445.57214995667 508.055931357782  1446.5467107295 507.832261661955  L 1446.32301830904 506.857601874631  Z M 1450.22241676412 505.96432587581  C 1449.24747644425 506.187248705863  1448.27260409025 506.410468677743  1447.29779983846 506.633985760234  L 1447.52129421334 507.608690979464  C 1448.49590041347 507.385219309096  1449.47057470637 507.162044687965  1450.44531694694 506.939167149299  L 1450.22241676412 505.96432587581  Z M 1454.12253994961 505.074219444207  C 1453.14741876915 505.296349808864  1452.17236531305 505.51877737049  1451.19737971765 505.741502097979  L 1451.42008181803 506.716388642396  C 1452.39486932815 506.493709165309  1453.36972467991 506.271326794914  1454.34464774754 506.049241559903  L 1454.12253994961 505.074219444207  Z M 1458.02338528917 504.187283167804  C 1457.04808389228 504.408620920332  1456.07284997816 504.630255924773  1455.0976836832 504.852188150134  L 1455.31959336197 505.82725537575  C 1456.29456153171 505.605368240515  1457.26959731127 505.383778264811  1458.24470055549 505.16248548163  L 1458.02338528917 504.187283167804  Z M 1461.92495020599 503.303517632494  C 1460.94946923369 503.524062627411  1459.97405551224 503.744904926797  1458.99870915867 503.966044504159  L 1459.21982626923 504.941291766866  C 1460.194974461 504.720197118587  1461.17019001137 504.499399686888  1462.14547279451 504.278899500252  L 1461.92495020599 503.303517632494  Z M 1465.82723212278 502.422923422071  C 1464.85157222592 502.64267551223  1463.87597932856 502.862724963604  1462.90045356713 503.083071745421  L 1463.12077796342 504.058498400993  C 1464.09610552983 503.838196386456  1465.07150021324 503.618191643146  1466.04696188783 503.398484199446  L 1465.82723212278 502.422923422071  Z M 1469.73022846179 501.545501118236  C 1468.75439028163 501.764460159204  1467.77861885927 501.983716615743  1466.80291433116 502.203270457193  L 1467.02244586764 503.178875861283  C 1467.99795216118 502.959366626742  1468.97352533978 502.740154715699  1469.94916525821 502.521240160794  L 1469.73022846179 501.545501118236  Z M 1473.63393664478 500.671251300597  C 1472.65792082594 500.889417147734  1471.68197152315 501.107880464601  1470.70608887289 501.326641220651  L 1470.92482740454 502.302424728797  C 1471.90051178727 502.0837084178  1472.8762628037 501.865289486737  1473.85208032795 501.647167963786  L 1473.63393664478 500.671251300597  Z M 1477.53835409304 499.800174546661  C 1476.56216128026 500.017547055852  1475.58603474174 500.235217088737  1474.60997461397 500.453184614878  L 1474.82791999629 501.4291455825  C 1475.80378182048 501.211222340252  1476.77971003664 500.993596531998  1477.75570451887 500.776268185813  L 1477.53835409304 499.800174546661  Z M 1481.44347822741 498.932271431842  C 1480.46710906554 499.148850459495  1479.49080593609 499.36572706461  1478.51456897557 499.582901216857  L 1478.73172106461 500.559038999256  C 1479.70775968237 500.341908970434  1480.68386446005 500.125076427311  1481.66003525232 499.908541402171  L 1481.44347822741 498.932271431842  Z M 1485.34930646826 498.067542529459  C 1484.37276160226 498.283327932507  1483.3962825268 498.499410966587  1482.41986937842 498.715791601481  L 1482.63622803072 499.692105553843  C 1483.61244280378 499.475768880438  1484.58872348525 499.259729748554  1485.56506994918 499.043988186063  L 1485.34930646826 498.067542529459  Z M 1489.25583623546 497.205988410732  C 1488.27911631042 497.420980046632  1487.302461934 497.636269366938  1486.32587324276 497.851856341543  L 1486.54143831539 498.828345818935  C 1487.51782859242 498.612802645288  1488.49428454571 498.397557064491  1489.47080602988 498.182609108592  L 1489.25583623546 497.205988410732  Z M 1493.16306494847 496.347609644784  C 1492.18617060959 496.561807371518  1491.20934157735 496.776302835834  1490.23257798836 496.991096007737  L 1490.44734933894 497.967760365114  C 1491.42391448142 497.753010832179  1492.40054504857 497.538558947508  1493.37724091437 497.324404738767  L 1493.16306494847 496.347609644784  Z M 1497.07099002625 495.492406798643  C 1496.09392191884 495.705810474716  1495.11691887606 495.919511941352  1494.13998103455 496.133511168665  L 1494.3539585212 497.110349760863  C 1495.33069787756 496.896394011923  1496.30750242636 496.682735962198  1497.28437202216 496.469375643499  L 1497.07099002625 495.492406798643  Z M 1500.97960888731 494.640380437235  C 1500.0023676568 494.852989921677  1499.02519124887 495.065897249465  1498.04807980018 495.279102390826  L 1498.26126328155 496.256114572567  C 1499.23817621306 496.042952747539  1500.21515408532 495.83008867673  1501.19219677227 495.617522387601  L 1500.97960888731 494.640380437235  Z M 1504.8889189497 493.791531123389  C 1503.91150524164 494.003346275756  1502.93415611406 494.215459324056  1501.95687170365 494.427870238625  L 1502.16926103891 495.405055364518  C 1503.14634689701 495.192687604919  1504.12349745382 494.980617652222  1505.10071258329 494.768845533787  L 1504.8889189497 493.791531123389  Z M 1508.79891763103 492.945859417838  C 1507.82133209431 493.15688009751  1506.84381088623 493.368198727602  1505.86635416289 493.579815274366  L 1506.07794921176 494.557172698902  C 1507.05520734776 494.34559914572  1508.03252995012 494.134323449826  1509.00991687334 493.923345642675  L 1508.79891763103 492.945859417838  Z M 1512.70960234844 492.103365879212  C 1511.73184562235 492.313591948191  1510.75415299244 492.524116017685  1509.7765245954 492.734938058256  L 1509.98732521809 493.712467135816  C 1510.96475499291 493.50168792741  1511.94224898228 493.29120663068  1512.91980706007 493.081023272783  L 1512.70960234844 492.103365879212  Z M 1516.6209705186 491.264051064044  C 1515.64304325228 491.47348238276  1514.6651798399 491.68321175399  1513.6873804182 491.893239148402  L 1513.89738647546 492.870939233252  C 1514.8749872402 492.660954509558  1515.85265197733 492.451267749633  1516.83038056072 492.24187898053  L 1516.6209705186 491.264051064044  Z M 1520.53301955777 490.427915526767  C 1519.55492239721 490.636551956876  1518.57688884832 490.845486491297  1517.59891904787 491.054719100811  L 1517.80813040097 492.032589547104  C 1518.78590150985 491.823399446833  1519.76373634892 491.614507362227  1520.74163479204 491.405913320237  L 1520.53301955777 490.427915526767  Z M 1524.44574688173 489.594959819714  C 1523.46748047627 489.802801222706  1522.48927743046 490.010940783678  1521.51113790052 490.21937846939  L 1521.71955441127 491.197418631167  C 1522.69749521515 490.989023293196  1523.67549951671 490.780926020521  1524.65356717034 490.573126844124  L 1524.44574688173 489.594959819714  Z M 1528.35914990582 488.765184493115  C 1527.38071489521 488.972230733072  1526.40234301161 489.179575180349  1525.42403439184 489.387217805949  L 1525.63165592256 490.365427037138  C 1526.60976577868 490.157826598435  1527.5879388902 489.950524276538  1528.56617511148 489.743520102311  L 1528.35914990582 488.765184493115  Z M 1532.27322604493 487.938590095104  C 1531.29462307873 488.144841034567  1530.31608299716 488.351390232557  1529.33760593706 488.558237660192  L 1529.54443235059 489.536615314609  C 1530.52271061607 489.329809911626  1531.50105188491 489.123302678816  1532.47945603089 488.917093642818  L 1532.27322604493 487.938590095104  Z M 1536.18797271351 487.115177171709  C 1535.20920244142 487.320632673753  1534.23049480179 487.526386487378  1533.25184995094 487.732438579726  L 1533.45788111068 488.710984011078  C 1534.43632713605 488.504973781114  1535.41483592241 488.299261772429  1536.39340734354 488.093848011564  L 1536.18797271351 487.115177171709  Z M 1540.10338732556 486.294946266857  C 1539.1244503844 486.499606197801  1538.14557585269 486.704564487064  1537.16676384785 486.909821110056  L 1537.37199961768 487.888533671937  C 1538.35061275659 487.683318751076  1539.32928841411 487.478402102407  1540.30802646397 487.273783752365  L 1540.10338732556 486.294946266857  Z M 1544.01946729466 485.477897922377  C 1543.04036433758 485.681762145666  1542.06132354743 485.8859247779  1541.08234504166 486.090385794584  L 1541.28678528601 487.069264840478  C 1542.26556488879 486.864845364959  1543.24440677744 486.660724210315  1544.22331080625 486.456901406939  L 1544.01946729466 485.477897922377  Z M 1547.93621003392 484.664032677992  C 1546.95694171094 484.867101058285  1545.97773530259 485.070467899972  1544.99859094583 485.274133174611  L 1545.20223552966 486.253178057892  C 1546.18118095621 486.049554161396  1547.16018841645 485.84622863832  1548.13925778404 485.643201514899  L 1547.93621003392 484.664032677992  Z M 1551.85361295603 483.853351071323  C 1550.87417991403 484.055623474485  1549.89480853434 484.258194391272  1548.91549897338 484.461063789334  L 1549.11834776216 485.440273863268  C 1550.09745836259 485.23744568098  1551.07663075416 485.034915922435  1552.05586481055 484.83268461376  L 1551.85361295603 483.853351071323  Z M 1555.77167347325 483.045853637887  C 1554.79207635273 483.247329931639  1553.81254066161 483.449104787033  1552.83306653689 483.65117817585  L 1553.03511939662 484.630552793592  C 1554.01439452414 484.428520459497  1554.99373120024 484.226786599267  1555.97312929857 484.025351238928  L 1555.77167347325 483.045853637887  Z M 1559.69038899738 482.241540911101  C 1558.71062844869 482.442220961684  1557.73092908673 482.643199623735  1556.75129104849 482.844476869152  L 1556.9525478457 483.824015383748  C 1557.93198685019 483.622779031971  1558.91148717037 483.421841201987  1559.89104866043 483.221201923711  L 1559.69038899738 482.241540911101  Z M 1563.60975693982 481.440413422275  C 1562.62983361341 481.640297096461  1561.64997122127 481.840479433735  1560.6701699199 482.040960402127  L 1560.87063052165 483.020662166517  C 1561.85023275934 482.82022192932  1562.82989607009 482.620080263652  1563.80962030804 482.420237199311  L 1563.60975693982 481.440413422275  Z M 1567.52977471152 480.642471700616  C 1566.54968924821 480.84155886769  1565.56966448615 481.040944745299  1564.5897005624 481.240629305562  L 1564.78936483625 482.220493672577  C 1565.76912966005 482.020849682366  1566.74895531422 481.821504313224  1567.72884165288 481.622457594829  L 1567.52977471152 480.642471700616  Z M 1571.45043972299 479.847716273226  C 1570.47019277021 480.046006801671  1569.49000628562 480.244596087916  1568.50988038682 480.443484108137  L 1568.7087482009 481.423510430499  C 1569.68867496684 481.224662818497  1570.66866231068 481.026113878879  1571.648710106 480.827863637259  L 1571.45043972299 479.847716273226  Z M 1575.37174938434 479.056147665103  C 1574.39134159287 479.253641423273  1573.41099402674 479.451433988291  1572.43070680358 479.649525336427  L 1572.62877802651 480.629712966754  C 1573.60886608403 480.431661864976  1574.58901447669 480.233909484718  1575.56922307802 480.036455851493  L 1575.37174938434 479.056147665103  Z M 1579.29370110524 478.26776639914  C 1578.31313312595 478.464463255924  1577.33262511939 478.661458970362  1576.35217722268 478.858753514905  L 1576.54945172362 479.839101805706  C 1577.52970042529 479.641847344981  1578.51000921929 479.444891654715  1579.49037797915 479.248234760318  L 1579.29370110524 478.26776639914  Z M 1583.21629229493 477.482572996124  C 1582.23556476907 477.678472822891  1581.25489698277 477.874671554009  1580.27428905367 478.071169165938  L 1580.47076670232 479.051677469617  C 1581.45117540061 478.855219780246  1582.43164394838 478.659060910075  1583.41217221914 478.463200884413  L 1583.21629229493 477.482572996124  Z M 1587.13952036223 476.700567974737  C 1586.15863394415 476.895670640783  1585.17780701292 477.091072261574  1584.1970397057 477.286772809785  L 1584.39272037226 478.26744047864  C 1585.37328841954 478.071779690399  1586.35391607341 477.876417769903  1587.33460320736 477.681354742356  L 1587.13952036223 476.700567974737  Z M 1591.06338271556 475.921751851553  C 1590.0823380532 476.116057228002  1589.10135262496 476.310661609377  1588.12042658749 476.505564964601  L 1588.31531014269 477.486391350825  C 1589.29603689122 477.291527592962  1590.27682300341 477.096962751193  1591.25766835273 476.902696850617  L 1591.06338271556 475.921751851553  Z M 1594.98787676288 475.146125141039  C 1594.00667449457 475.339633101465  1593.02553123681 475.533440111015  1592.04444710734 475.727546146436  L 1592.23853342244 476.708530602117  C 1593.21941822112 476.514464003998  1594.20036215024 476.320696368195  1595.18136506376 476.127227723558  L 1594.98787676288 475.146125141039  Z M 1598.91299991178 474.37368835556  C 1597.93164069541 474.566398770211  1596.95034023678 474.759408283765  1595.96909867311 474.95271686923  L 1596.16238761992 475.933858746351  C 1597.14342982405 475.740589435527  1598.12453091561 475.547619134979  1599.10569074855 475.354947873438  L 1598.91299991178 474.37368835556  Z M 1602.8387495694 473.604442005368  C 1601.85723404998 473.796354747585  1600.8757770452 473.988566636361  1599.89437869229 474.181077644818  L 1600.08687014311 475.162376295259  C 1601.06806910463 474.969904399399  1602.04932671055 474.777731561579  1603.03064281477 474.585857810408  L 1602.8387495694 473.604442005368  Z M 1606.76512314247 472.838386598613  C 1605.78345197164 473.02950154099  1604.80183906252 473.220915679285  1603.8202845719 473.41262898293  L 1604.01197839959 474.394083758467  C 1604.9933334736 474.202409404079  1605.97474693917 474.011034157198  1606.95621866969 473.819958042513  L 1606.76512314247 472.838386598613  Z M 1610.69211803733 472.075522641331  C 1609.71029185704 472.265839658886  1608.72852370503 472.456455917723  1607.7468137186 472.647371391184  L 1607.93770979652 473.628981643489  C 1608.91922032825 473.438104958459  1609.90078901818 473.2475274264  1610.88241572015 473.057249075686  L 1610.69211803733 472.075522641331  Z M 1614.61973165989 471.315850637454  C 1613.63775112197 471.505369603837  1612.6558283691 471.695187858563  1611.67396353859 471.885305375091  L 1611.86406174065 472.867070455736  C 1612.84572708499 472.676991565517  1613.82745034437 472.48721187544  1614.80923137261 472.297731413759  L 1614.61973165989 471.315850637454  Z M 1618.54796141565 470.559371088805  C 1617.56582716877 470.748091878822  1616.58375046368 470.937112004051  1615.6017314377 471.126431438058  L 1615.79103163832 472.108350698509  C 1616.7728511468 471.919069728665  1617.75472832712 471.730088005933  1618.7366630331 471.541405558451  L 1618.54796141565 470.559371088805  Z M 1622.47680470971 469.806084495096  C 1621.49451740266 469.994006984084  1620.51228739407 470.182228854952  1619.53011482132 470.370750081378  L 1619.71861689545 471.352822873003  C 1620.70058991951 471.164339948566  1621.68262037218 470.976156318016  1622.66470810723 470.788272009373  L 1622.47680470971 469.806084495096  Z M 1626.40625894677 469.055991353934  C 1625.42381922841 469.243115417754  1624.44143656518 469.430538909926  1623.45911109446 469.618261804239  L 1623.64681491758 470.600487478301  C 1624.62894080855 470.41280272378  1625.61112388484 470.225417309723  1626.59336400024 470.03833126403  L 1626.40625894677 469.055991353934  Z M 1630.33632153112 468.309092160811  C 1629.35373005369 468.495417675238  1628.37119537824 468.682042666141  1627.38871766171 468.868967103716  L 1627.57562310982 469.851345011378  C 1628.55790121893 469.664458550754  1629.54023627005 469.477871476973  1630.52262811693 469.291583817815  L 1630.33632153112 468.309092160811  Z M 1634.26698986664 467.565387409114  C 1633.28424727271 467.750914252297  1632.3015612471 467.93674061618  1631.31893192725 468.122866474777  L 1631.5050388769 469.105395967104  C 1632.48746855526 468.919307923828  1633.4699549323 468.733519313578  1634.45249786174 468.548030164014  L 1634.26698986664 467.565387409114  Z M 1638.19826135683 466.824877590116  C 1637.21536829882 467.009605638885  1636.23253156569 467.194633254232  1635.24975129487 467.37996041028  L 1635.43505962312 468.362640838234  C 1636.41764022178 468.177351335233  1637.40027727572 467.992361311241  1638.38297063866 467.807670793799  L 1638.19826135683 466.824877590116  Z M 1642.13013340476 466.087563192983  C 1641.14709053197 466.27149232531  1640.16410374055 466.455721069894  1639.18117316797 466.640249400972  L 1639.3656827524 467.623080115415  C 1640.34841362228 467.438589275088  1641.33120070403 467.254397959554  1642.31404385131 467.070506196238  L 1642.13013340476 466.087563192983  Z M 1646.06260341315 465.353444704767  C 1645.07941137819 465.536574798546  1644.09627517131 465.720004551885  1643.11319494953 465.903733935489  L 1643.29690566826 466.886714287186  C 1644.2797861602 466.703022231403  1645.26272262054 466.519629746  1646.24571490293 466.336536858285  L 1646.06260341315 465.353444704767  Z M 1649.99566878427 464.622522610412  C 1649.01232823012 464.804853545885  1648.02904327024 464.987484184379  1647.04581404215 465.170414500357  L 1647.22872577383 466.153543839974  C 1648.2117552418 465.970650689471  1649.19484042491 465.788057156556  1650.17798119633 465.605763264783  L 1649.99566878427 464.622522610412  Z M 1653.92932692005 463.894797392747  C 1652.94583849952 464.076329048863  1651.96240542968 464.258160453086  1650.97902784803 464.440291579991  L 1651.16114047182 465.423569258094  C 1652.14431826321 465.241475134295  1653.1275515262 465.059680673268  1654.11084013395 464.878185898465  L 1653.92932692005 463.894797392747  Z M 1657.86357522198 463.170269532492  C 1656.87993958476 463.351001789335  1655.89635905457 463.532033839175  1654.91283376896 463.713365656694  L 1655.09414716458 464.696791023752  C 1656.07747262666 464.515496047545  1657.06085332655 464.334500777295  1658.04428911783 464.153805239951  L 1657.86357522198 463.170269532492  Z M 1661.7984110912 462.448939508254  C 1660.81462889031 462.628872245842  1659.830901543 462.809104822903  1658.84722920638 462.989637210656  L 1659.02774325404 463.973209617039  C 1660.01121574377 463.792713906983  1660.99474321792 463.612517949472  1661.97832554961 463.432621767754  L 1661.7984110912 462.448939508254  Z M 1665.73383192844 461.730807796527  C 1664.74990380722 461.909940897191  1663.76603030565 462.089373880031  1662.7822115613 462.269106719957  L 1662.96192614176 463.25282551594  C 1663.94554500622 463.073129191866  1664.92921861146 462.893732664928  1665.91294683057 462.714635958269  L 1665.73383192844 461.730807796527  Z M 1669.66983513405 461.015874871694  C 1668.68576174573 461.194208216506  1667.7017427333 461.37284148779  1666.71777823437 461.551774660564  L 1666.89669322891 462.535639196323  C 1667.88045781835 462.356742376935  1668.86427690487 462.178145399074  1669.84815036157 461.999848285782  L 1669.66983513405 461.015874871694  Z M 1673.60645200191 460.304173268001  C 1672.87211623614 460.43659097373  1672.137815692 460.569203966235  1671.40355045997 460.702012229172  C 1671.15367235729 460.74720264995  1670.90379773125 460.792412411653  1670.65392662582 460.837641506328  L 1670.83204191627 461.821651131945  C 1671.08186584086 461.776430577461  1671.33169324685 461.731229359557  1671.58152416747 461.68604747222  C 1672.31561850324 461.553270117728  1673.04974813605 461.42068799044  1673.78391298949 461.288301104152  L 1673.60645200191 460.304173268001  Z M 1677.54376786472 459.596116159574  C 1676.55935483616 459.772662616442  1675.57500476561 459.94955995451  1674.59071784444 460.126808139386  L 1674.76794497047 461.110978117489  C 1675.75199802386 460.933772046999  1676.7361142153 460.756916739295  1677.72029334612 460.580412230083  L 1677.54376786472 459.596116159574  Z M 1681.48175496619 458.891801839781  C 1680.49717457268 459.067412519798  1679.51265680362 459.243374140701  1678.52820185043 459.419686668277  L 1678.70449343033 460.404024658429  C 1679.68871447581 460.227754022927  1680.67299832591 460.051834210065  1681.65734478191 459.87626525536  L 1681.48175496619 458.891801839781  Z M 1685.42040974843 458.191230944955  C 1684.43566287951 458.365905689462  1683.45097830143 458.54093143422  1682.46635620567 458.716308145201  L 1682.64171208015 459.70081325808  C 1683.6261002285 459.52547821682  1684.61055084798 459.350494057741  1685.59506373984 459.175860816167  L 1685.42040974843 458.191230944955  Z M 1689.35972865298 457.49440410804  C 1688.37481619834 457.668142759223  1687.38996570089 457.842232469708  1686.40517735212 458.016673205646  L 1686.57959736276 459.001344551774  C 1687.56415172461 458.826945263169  1688.54876822405 458.652896915964  1689.53344666228 458.479199545298  L 1689.35972865298 457.49440410804  Z M 1693.29970812076 456.801321958605  C 1692.31463097024 456.974124359496  1691.3296154432 457.14727787842  1690.34466173116 457.320782481713  L 1690.51814572038 458.305619171466  C 1691.50286540947 458.132155792505  1692.48764689276 457.95904341557  1693.472489991 457.78628207217  L 1693.29970812076 456.801321958605  Z M 1697.24034459209 456.111985122832  C 1696.25510363569 456.283851117307  1695.269923969 456.456068288231  1694.28480578357 456.62863660212  L 1694.45735359463 457.613637745723  C 1695.44223771803 457.441110433705  1696.42718330198 457.268934182291  1697.41219016718 457.097109022818  L 1697.24034459209 456.111985122832  Z M 1701.18163450672 455.426394223517  C 1700.19623063458 455.5973236563  1699.21088771832 455.768604323631  1698.22560594953 455.940236192206  L 1698.39721742653 456.925400899735  C 1699.38226509117 456.753809811102  1700.36737389241 456.582569839629  1701.35254363139 456.411681019889  L 1701.18163450672 455.426394223517  Z M 1705.12357430378 454.744549880076  C 1704.13800840619 454.914542596736  1703.15250313059 455.084886605725  1702.16705866862 455.255581873922  L 1702.33773365652 456.240909255306  C 1703.32294397895 456.070254543949  1704.30821509443 455.899951009398  1705.29354682362 455.729998682653  L 1705.12357430378 454.744549880076  Z M 1709.06616042184 454.066452708537  C 1708.08043338923 454.235508555491  1707.09476664468 454.404915752236  1706.10916037984 454.574674265835  L 1706.27889872444 455.560163430855  C 1707.26427081128 455.390445251525  1708.24970335735 455.221078306628  1709.23519618328 455.052062626991  L 1709.06616042184 454.066452708537  Z M 1713.00938929887 453.392103321543  C 1712.02350202181 453.560222146053  1711.03767469883 453.728692377501  1710.0519075216 453.89751398313  L 1710.22070906955 454.883164041422  C 1711.20624203055 454.714382547454  1712.1918351169 454.545952345228  1713.1774881492 454.3778734654  L 1713.00938929887 453.392103321543  Z M 1716.95325737226 452.721502328354  C 1715.96721074148 452.888683978529  1714.98122373074 453.056217092469  1713.99529653174 453.224101637602  L 1714.16316113052 454.209911698656  C 1715.14885407527 454.042067042541  1716.13460681144 453.87457373516  1717.1204191596 453.707431806996  L 1716.95325737226 452.721502328354  Z M 1720.89776107883 452.054650334839  C 1719.9115559852 452.220894659634  1718.92541017751 452.387490504706  1717.93932384749 452.554437837663  L 1718.10625134545 453.540407010826  C 1719.09210338341 453.373499344206  1720.07801487879 453.206943082994  1721.06398565215 453.040738257504  L 1720.89776107883 452.054650334839  Z M 1724.84289685481 451.391547943482  C 1723.85653418935 451.5568547927  1722.87023047567 451.722513218388  1721.88398590554 451.888523188337  L 1722.04997615185 452.874650582809  C 1723.03598639233 452.708680056483  1724.02205575618 452.543060991919  1725.00818406394 452.377793419264  L 1724.84289685481 451.391547943482  Z M 1728.78866113588 450.732195753379  C 1727.80214178973 450.89656497767  1726.81568106116 451.061285834306  1725.82927914197 451.226358291261  L 1725.99433198668 452.212643016102  C 1726.98049953556 452.047609780565  1727.96672588353 451.882928061192  1728.95301083148 451.718597891231  L 1728.78866113588 450.732195753379  Z M 1732.73505035715 450.07659436024  C 1731.7483752216 450.240025811099  1730.76175836939 450.403808949862  1729.77519999232 450.567943744684  L 1729.9393152863 451.55438490881  C 1730.92563925915 451.390289112073  1731.91202168714 451.226544888859  1732.89846239072 451.063152268971  L 1732.73505035715 450.07659436024  Z M 1736.68206095313 449.424744356381  C 1735.69523091964 449.587237886153  1734.70845883516 449.750083159069  1733.72174489155 449.913280143466  L 1733.88492248652 450.899876855654  C 1734.87140198896 450.73671864652  1735.85793961232 450.573912066312  1736.84453517706 450.411457144663  L 1736.68206095313 449.424744356381  Z M 1740.62968935782 448.776646330734  C 1739.64270531795 448.938201792611  1738.65577889273 449.100109052553  1737.66891027405 449.262368079082  L 1737.83115002259 450.249119447965  C 1738.81778416335 450.086898973843  1739.80447609078 449.925030183732  1740.79122562531 449.763513107097  L 1740.62968935782 448.776646330734  Z M 1744.57793200464 448.132300868839  C 1743.5907948501 448.292918116858  1742.6037149758 448.453887217548  1741.61669257366 448.61520813961  L 1741.77799432919 449.602113273684  C 1742.76478221687 449.440830681136  1743.75162755692 449.279899827369  1744.73853016973 449.119320741673  L 1744.57793200464 448.132300868839  Z M 1748.52678532643 447.491708552846  C 1747.53949594909 447.651387441894  1746.55226351751 447.811418237899  1745.56508822366 447.971800909746  L 1745.72545184045 448.958858917368  C 1746.71239258025 448.79851435264  1747.69939044786 448.638521579552  1748.68644524404 448.478880630403  L 1748.52678532643 447.491708552846  Z M 1752.47624575552 446.854869961513  C 1751.48880504736 447.013610347325  1750.50142095045 447.172702694061  1749.51409365677 447.332146970792  L 1749.67351898994 448.319356960179  C 1750.66061169671 448.159950567076  1751.64776118709 448.000896021336  1752.6349672814 447.842193351909  L 1752.47624575552 446.854869961513  Z M 1756.42630972367 446.221785670208  C 1755.43871857682 446.379587409364  1754.45118370665 446.537741163097  1753.46370530517 446.696246900658  L 1753.62219221067 447.68360797989  C 1754.60943598934 447.525139902963  1755.59673621716 447.367023727214  1756.58409271442 447.209259481421  L 1756.42630972367 446.221785670208  Z M 1760.3769736621 445.592456250906  C 1759.38923296882 445.749319200838  1758.4015482176 445.906534218679  1757.41391960048 446.064101273863  L 1757.57146793514 447.051612550886  C 1758.55886189375 446.894082933306  1759.546311967 446.736905270401  1760.53381797515 446.580079590779  L 1760.3769736621 445.592456250906  Z M 1764.32823400147 444.96688227219  C 1763.34034465416 445.122806291176  1762.35251091425 445.279082431086  1761.36473297379 445.435710661535  L 1761.52134259525 446.423371244158  C 1762.50888583846 446.266780228769  1763.49648487155 446.110541219678  1764.48413949514 445.95465424843  L 1764.32823400147 444.96688227219  Z M 1768.28008717194 444.345064299252  C 1767.29205006313 444.500049246419  1766.304068227 444.655386367205  1765.31614185564 444.81107563141  L 1765.47181262241 445.798884627306  C 1766.45950426453 445.643232354545  1767.44725135211 445.487932142499  1768.43505370535 445.332984019433  L 1768.28008717194 444.345064299252  Z M 1772.23252960309 443.727002893887  C 1771.24434562546 443.881048629209  1770.25621658572 444.03544659053  1769.26814267602 444.19019674783  L 1769.42287444746 445.178153264538  C 1770.41071359287 445.023439875553  1771.39860784907 444.869078599824  1772.38655703625 444.715069465447  L 1772.23252960309 443.727002893887  Z M 1776.185557724 443.112698614499  C 1775.19722777033 443.2658049988  1774.20895241975 443.419263661161  1773.2207318644 443.573074571742  L 1773.37452450072 444.561177716669  C 1774.36251025693 444.407403351239  1775.35055078921 444.253981151289  1776.33864591774 444.100911144746  L 1776.185557724 443.112698614499  Z M 1780.1391679632 442.502152016095  C 1779.15069292644 442.654318911048  1778.16227215789 442.806838135801  1777.17390584973 442.9597096607  L 1777.32675921198 443.94795854112  C 1778.31489068636 443.795123338176  1779.30307660206 443.64264035262  1780.29131677922 443.490509612204  L 1780.1391679632 442.502152016095  Z M 1784.09335674872 441.89536365029  C 1783.10473752192 442.046590918415  1782.11617222841 442.198170567764  1781.12766106041 442.350102568865  L 1781.27957501048 443.33849629192  C 1782.26785131029 443.186600389545  1783.25618171661 443.035056756146  1784.24456604954 442.883865419304  L 1784.09335674872 441.89536365029  Z M 1788.04812050804 441.292334065301  C 1787.05935798439 441.442621569968  1786.07064905907 441.593261506964  1785.08199392432 441.744253847001  L 1785.23296832496 442.732791519702  C 1786.22138855732 442.581835055131  1787.20986256132 442.431230910804  1788.19839015705 442.280979114134  L 1788.04812050804 441.292334065301  Z M 1792.00345566812 440.693063805949  C 1791.01455074095 440.842411411378  1790.0256990771 440.992111499922  1789.03690086882 441.142164042476  L 1789.18693558364 442.130844771705  C 1790.17549885553 441.980827881322  1791.16411556415 441.831163362136  1792.15278552957 441.681851241387  L 1792.00345566812 440.693063805949  Z M 1795.95935865544 440.09755341366  C 1794.9703122182 440.245960984919  1793.9813187092 440.394721089762  1792.99237832075 440.543833699265  L 1793.1414732142 441.532656591773  C 1794.13017863247 441.383579411115  1795.11893715253 441.234854652287  1796.1077485944 441.086482342357  L 1795.95935865544 440.09755341366  Z M 1799.91582589592 439.505803426464  C 1798.92663884219 439.65327082947  1797.93750438159 439.801090816209  1796.94842270645 439.949263357941  L 1797.09657764381 440.938227520353  C 1798.08542431193 440.790090184599  1799.07432375666 440.642305319518  1800.06327577834 440.494872954949  L 1799.91582589592 439.505803426464  Z M 1803.87285381501 438.917814378991  C 1802.88352703848 439.064341480511  1801.89425251994 439.211221215595  1800.90503045172 439.358453555687  L 1801.05224529914 440.347558094498  C 1802.04123233026 440.200360736504  1803.03027179311 440.053515900649  1804.01936350765 439.907023613663  L 1803.87285381501 438.917814378991  Z M 1807.83043883762 438.333586802473  C 1806.84097323214 438.479173470124  1805.85155954943 438.625112820853  1804.86219798187 438.771404826283  L 1805.00847260635 439.760648847863  C 1805.99759910367 439.614391601108  1806.98677769761 439.46848692617  1807.97600820813 439.322934849608  L 1807.83043883762 438.333586802473  Z M 1811.78857738818 437.753121224747  C 1810.7989738477 437.897767326994  1809.80942189474 438.042766161513  1808.8199217217 438.188117700111  L 1808.96525599109 439.177500310703  C 1809.95452105768 439.032183307809  1810.94383789557 438.88721892465  1811.93320630504 438.742607190494  L 1811.78857738818 437.753121224747  Z M 1815.74726589062 437.176418170248  C 1814.75752530922 437.320123576408  1813.76783598004 437.464181763714  1812.7781980955 437.608592704158  L 1812.92259187849 438.598113009879  C 1813.91199462385 438.453736381652  1814.90144880532 438.30971242221  1815.89095422315 438.166041160631  L 1815.74726589062 437.176418170248  Z M 1819.70650076835 436.603478160012  C 1818.71662404024 436.746242740251  1817.726798229 436.889360150192  1816.73702352709 437.032830362011  L 1816.88047669322 438.022487468855  C 1817.87001622672 437.879051345259  1818.85960685127 437.735967940604  1819.84924838674 437.593237280932  L 1819.70650076835 436.603478160012  Z M 1823.66627844431 436.034301711676  C 1822.67626646381 436.176125337009  1821.6863050648 436.318301840283  1820.69639443974 436.460831193854  L 1820.83890685941 437.450624207691  C 1821.82858228377 437.308128718797  1822.81830846387 437.165985997246  1823.80808521958 437.024196068911  L 1823.66627844431 436.034301711676  Z M 1827.62659534094 435.468889339477  C 1826.63644900251 435.60977188177  1825.64635291012 435.751007349924  1824.65630725629 435.892595716476  L 1824.79787880073 436.882523743053  C 1825.78768922179 436.740969017601  1826.77755006326 436.599767107577  1827.76746114498 436.458918038682  L 1827.62659534094 435.468889339477  Z M 1831.58744788019 434.907241554251  C 1830.5971680784 435.047182886221  1829.60693818717 435.187477191649  1828.61675839903 435.328124443262  L 1828.75738894035 436.318186588204  C 1829.74733346384 436.177572754086  1830.73732807237 436.037311783162  1831.72737258574 435.897403700961  L 1831.58744788019 434.907241554251  Z M 1835.54883248354 434.349358863431  C 1834.55842011308 434.488358858644  1833.56805731766 434.627711874597  1832.57774428982 434.767417884198  L 1832.71743370096 435.757613253009  C 1833.70751143248 435.617940437266  1834.69763891363 435.478620532163  1835.68781596417 435.339653563059  L 1835.54883248354 434.349358863431  Z M 1839.51074557198 433.795241771051  C 1838.52020152766 433.933300303924  1837.5297067228 434.0717119045  1836.53926134999 434.210476545868  L 1836.67800950474 435.200804243932  C 1837.6682195498 435.062072572754  1838.65847900901 434.923693859344  1839.64878770212 434.785668128891  L 1839.51074557198 433.795241771051  Z M 1843.47318356601 433.244890777741  C 1842.48250874277 433.382007723542  1841.49188282337 433.519477783689  1840.50130600042 433.657300931454  L 1840.63911277342 434.647760064036  C 1841.62945423739 434.509969662763  1842.61984477998 434.372532266068  1843.61028422095 434.235447898968  L 1843.47318356601 433.244890777741  Z M 1847.43614288567 432.69830638073  C 1846.44533817528 432.834481616028  1845.4545820429 432.971010010642  1844.4638746615 433.107891540738  L 1844.60073992825 434.098481212981  C 1845.59121191637 433.961632206104  1846.58173264756 433.825136250296  1847.57230194155 433.688993370401  L 1847.43614288567 432.69830638073  Z M 1851.39961995054 432.155489073843  C 1850.40868625471 432.290722474705  1849.41780079136 432.426309082243  1848.42696375314 432.562248870095  L 1848.56288739 433.552968187028  C 1849.5534890074 433.417060698187  1850.54413903228 433.281506306585  1851.53483728433 433.146305036898  L 1851.39961995054 432.155489073843  Z M 1855.3636111797 431.616439347502  C 1854.37254939045 431.750730792199  1853.38153549793 431.885375489258  1852.39056969481 432.0203734125  L 1852.52555157896 433.011221479033  C 1853.51628192739 432.876255631463  1854.50706035749 432.741642925648  1855.49788666924 432.607383388763  L 1855.3636111797 431.616439347502  Z M 1859.3281129918 431.081157688723  C 1858.33692400453 431.214507055926  1857.34578257818 431.348209720859  1856.35468890548 431.482265657524  L 1856.48872891497 432.473241578451  C 1857.47958710588 432.339217493197  1858.47049303294 432.205546596568  1859.46144651577 432.072228912897  L 1859.3281129918 431.081157688723  Z M 1863.29312180501 430.549644581121  C 1862.30180651522 430.682051750353  1861.31053845053 430.814812262362  1860.31931780367 430.947926091334  L 1860.4524158174 431.939028971332  C 1861.44340094902 431.805946770369  1862.4344334909 431.673217801927  1863.42551324295 431.540842092801  L 1863.29312180501 430.549644581121  Z M 1867.25863403704 430.021900504905  C 1866.26719334037 430.153365356539  1865.27579953292 430.285183595678  1864.28445280745 430.417355196692  L 1864.41660870516 431.408584140327  C 1865.40771988544 431.276443943447  1866.3988781402 431.144657023992  1867.39008326934 431.013223408568  L 1867.25863403704 430.021900504905  Z M 1871.22464610516 429.497925936877  C 1870.23308089735 429.628448352138  1869.24156224283 429.759324199312  1868.2500903344 429.890553452955  L 1868.3813039967 430.881907564675  C 1869.37254033348 430.75070949083  1870.36382339907 430.619864740296  1871.35515301306 430.489373336889  L 1871.22464610516 429.497925936877  Z M 1875.19115442616 428.977721350436  C 1874.19946560306 429.1073012114  1873.2078229973 429.237234548367  1872.21622680168 429.367521336076  L 1872.34649811002 430.358999720219  C 1873.33785870446 430.228743888379  1874.32926569185 430.098841424108  1875.32071889175 429.969292351049  L 1875.19115442616 428.977721350436  Z M 1879.15815541642 428.461287215571  C 1878.166343874 428.589924405166  1877.17457821291 428.718915114536  1876.18285862598 428.8482593186  L 1876.31218746267 429.83986107939  C 1877.30367141909 429.710547607239  1878.29520143257 429.581587546593  1879.28677732264 429.452980920926  L 1879.15815541642 428.461287215571  Z M 1883.12564549185 427.948623998871  C 1882.13371212618 428.076318400877  1881.1418243058 428.204366366107  1880.14998222356 428.332767869667  L 1880.27836847174 429.324492111217  C 1881.26997489438 429.196121115586  1882.26162703812 429.06810357508  1883.25332472249 428.940439512998  L 1883.12564549185 427.948623998871  Z M 1887.09362106792 427.439732163512  C 1886.10156677191 427.566483662979  1885.10955769495 427.693588767542  1884.11759401021 427.821047455013  L 1884.2450375539 428.812893281325  C 1885.23676554685 428.685464878194  1886.22853892493 428.558389973486  1887.22035750763 428.43166859033  L 1887.09362106792 427.439732163512  Z M 1891.06207855966 426.934612169264  C 1890.06990423617 427.060420650837  1889.07777478575 427.186582781579  1888.08569040131 427.313098536961  L 1888.21219112536 428.305065051927  C 1889.20403979263 428.178579356425  1890.195933509 428.052447202325  1891.18787209394 427.926668612585  L 1891.06207855966 426.934612169264  Z M 1895.03101438168 426.433264472492  C 1894.03872092383 426.558129822925  1893.04647200289 426.68334886502  1892.05426781177 426.808921574431  L 1892.17982560189 427.801007881835  C 1893.17179404737 427.675465008239  1894.16380720588 427.550275718704  1895.15586489687 427.425440036018  L 1895.03101438168 426.433264472492  Z M 1899.00042494814 425.93568952615  C 1898.00801325245 426.059611632631  1897.01564575745 426.183887472947  1896.02332265609 426.308517022935  L 1896.14793739885 427.300722226453  C 1897.14002472631 427.176122288186  1898.1321564307 427.051875976322  1899.12433233145 426.927983313475  L 1899.00042494814 425.93568952615  Z M 1902.97030667279 425.441887779785  C 1901.97777763586 425.564866530353  1900.98529246339 425.68819905661  1899.99285134832 425.811885334576  L 1900.11652293113 426.804208537774  C 1901.10872824425 426.68055164741  1902.10097759817 426.557248425469  1903.09327081226 426.434298894396  L 1902.97030667279 425.441887779785  Z M 1906.94065596892 424.951859679534  C 1905.9480104875 425.073894963081  1904.95540853423 425.196284063851  1903.96285030211 425.319026958047  L 1904.08557861323 426.311467264387  C 1905.07790101558 426.188753533647  1906.07026712254 426.066393513032  1907.06267675347 425.944387224814  L 1906.94065596892 424.951859679534  Z M 1910.91146924944 424.465605668125  C 1909.91870822035 424.586697374395  1908.92599038308 424.708142939102  1907.93331593065 424.829942338633  L 1908.0551008592 425.822498851471  C 1909.04753945425 425.700728391223  1910.04002141767 425.579311682483  1911.03254656882 425.45824874735  L 1910.91146924944 424.465605668125  Z M 1914.88274292682 423.983126184874  C 1913.88986724698 424.103274204464  1912.89703442261 424.223776123386  1911.90424464673 424.34463191821  L 1912.02508608268 425.337303740796  C 1913.01763997049 425.216476661457  1914.01023690027 425.09600337349  1915.00287667163 424.975883901216  L 1914.88274292682 423.983126184874  Z M 1918.8544734131 423.504421665693  C 1917.86148397957 423.623625890053  1916.86853706508 423.743184054318  1915.87563286272 423.863096135244  L 1915.9955306969 424.855882370725  C 1916.98819898729 424.735998780659  1917.9809099735 424.616469023906  1918.97366347482 424.497293122221  L 1918.8544734131 423.504421665693  Z M 1922.82665711994 423.029492543076  C 1921.83355482984 423.147752864507  1920.84049472236 423.2663671661  1919.84747699057 423.385335424791  L 1919.96643111465 424.378235176208  C 1920.95921290749 424.259295184127  1921.95203705981 424.140709065781  1922.94490339087 424.022476842756  L 1922.82665711994 423.029492543076  Z M 1926.79929045856 422.558339246111  C 1925.80607620915 422.675655557768  1924.81290380586 422.793325889522  1923.81977344181 422.911350218494  L 1923.93778374832 423.904362588788  C 1924.93067814667 423.786366302151  1925.9236145681 423.668723929353  1926.91659283188 423.551435491806  L 1926.79929045856 422.558339246111  Z M 1930.7723698398 422.090962200473  C 1929.77904452841 422.207334396364  1928.78576072663 422.324060651966  1927.79251862759 422.441140944586  L 1927.90958500991 423.434265036596  C 1928.9025911134 423.317212562398  1929.89563891344 423.200514040662  1930.88872820952 423.084169494947  L 1930.7723698398 422.090962200473  Z M 1934.74589167407 421.627361828424  C 1933.75245619486 421.742789803792  1932.75906189857 421.858571877019  1931.76570895862 421.974708027892  L 1931.88183131098 422.967942944355  C 1932.87494822576 422.851834387959  1933.86810650063 422.736079823496  1934.86130593506 422.620679274339  L 1934.74589167407 421.627361828424  Z M 1938.71985237139 421.167538548817  C 1937.72630762849 421.282022198611  1936.73280372204 421.396859986388  1935.73934084523 421.51205188982  L 1935.85451906272 422.505396733374  C 1936.84774589153 422.39023219968  1937.84101374394 422.275421697074  1938.83432241939 422.160965248736  L 1938.71985237139 421.167538548817  Z M 1942.69424834141 420.711492777091  C 1941.70059522916 420.82503199826  1940.70698261674 420.938925396068  1939.71341069734 421.053172948369  L 1939.8276446759 422.046626821552  C 1940.82098052468 421.932406414231  1941.81435705065 421.818540077964  1942.80777407299 421.705027833477  L 1942.69424834141 420.711492777091  Z M 1946.66907599334 420.25922492527  C 1945.67531540949 420.371819615234  1944.6815949888 420.484768520173  1943.68791492448 420.598071618124  L 1943.8012045609 421.591633623376  C 1944.79464852891 421.478357446004  1945.78813283753 421.365435378191  1946.78165730594 421.25286744049  L 1946.66907599334 420.25922492527  Z M 1950.64433173604 419.810735401966  C 1949.65046457842 419.922385459  1948.65663724726 420.034389769022  1947.66284993579 420.146748310258  L 1947.77519512772 421.14041754992  C 1948.76874631739 421.02808570484  1949.76233751108 420.916108007503  1950.75596852794 420.80448447829  L 1950.64433173604 419.810735401966  Z M 1954.62001197796 419.36602461238  C 1953.62603914451 419.476729935609  1952.63210580078 419.587789549524  1951.63821214002 419.699203432531  L 1951.74961278595 420.692979008849  C 1952.74327029965 420.581591597549  1953.73696748072 420.470558371856  1954.7307041483 420.35987935198  L 1954.62001197796 419.36602461238  Z M 1958.59611312718 418.925092958295  C 1957.60203551592 419.034853447701  1956.60799705762 419.144968265168  1955.61399794552 419.255437389286  L 1955.72445394481 420.249318404408  C 1956.71821688479 420.138875527525  1957.71201915546 420.028786873792  1958.70586057594 419.919052463249  L 1958.59611312718 418.925092958295  Z M 1962.57263159138 418.487940838084  C 1961.57845010045 418.596756394501  1960.58430742565 418.705926316034  1959.59020376028 418.815450581456  L 1959.69971501313 419.809436137437  C 1960.69358248155 419.699937894752  1961.68748894395 419.590793912442  1962.68143421943 419.482004210375  L 1962.57263159138 418.487940838084  Z M 1966.54956377789 418.054568646701  C 1965.5552793055 418.162439171816  1964.5610333124 418.270664098782  1963.56682599189 418.379243406557  L 1963.67539239936 419.373332605356  C 1964.66936349499 419.264779096158  1965.66337325774 419.156579883164  1966.65742148692 419.048734988217  L 1966.54956377789 418.054568646701  Z M 1970.52690609365 417.624976775687  C 1969.53251953811 417.731902172043  1968.53817112497 417.839182006665  1967.54386104758 417.946816258694  L 1967.65148251159 418.941008202175  C 1968.64555634298 418.83339952382  1969.63966849484 418.72614517933  1970.63381878621 418.619245188225  L 1970.52690609365 417.624976775687  Z M 1974.50465494523 417.199165613167  C 1973.51016720494 417.305145784159  1972.51571727015 417.411480429511  1971.52130533419 417.518169528549  L 1971.6279817575 418.512463318487  C 1972.62215742326 418.405799568556  1973.61637107265 418.299490188754  1974.61062252472 418.19353519843  L 1974.50465494523 417.199165613167  Z M 1978.48280673884 416.777135543852  C 1977.488218709 416.882170394077  1976.49366815759 416.987559753392  1975.49915525821 417.093303603398  L 1975.60488654444 418.087698341473  C 1976.59916314634 417.981979616335  1977.59347739503 417.876615297268  1978.58782910953 417.771605403452  L 1978.48280673884 416.777135543852  Z M 1982.46135788031 416.358886949035  C 1981.4666704661 416.462976382901  1980.47202018345 416.567420362357  1979.47740722575 416.672218867095  L 1979.58219327938 417.666713654896  C 1980.57656991912 417.561940050064  1981.57098386876 417.457520886929  1982.56543494732 417.353456184495  L 1982.46135788031 416.358886949035  Z M 1986.44030477513 415.944420206591  C 1985.44551887193 416.047564130405  1984.45076976326 416.151062634942  1983.45605764255 416.254915700078  L 1983.55989836892 417.249509639105  C 1984.5543741481 417.14568124924  1985.54888690027 417.042207336374  1986.54343644442 416.939087919342  L 1986.44030477513 415.944420206591  Z M 1990.41964382841 415.533735690982  C 1989.42476033498 415.635934011555  1988.42991329904 415.738486947664  1987.43510291402 415.841394479371  L 1987.53799821929 416.836086671033  C 1988.53257223614 416.733203590282  1989.52718289892 416.630675020494  1990.52183000681 416.528500982367  L 1990.41964382841 415.533735690982  Z M 1994.39937144494 415.126833773252  C 1993.40439126013 415.22808639825  1992.40944719573 415.329693673278  1991.41453944519 415.43165557858  L 1991.5164892364 416.426445124198  C 1992.51116059894 416.324507444833  1993.50586826053 416.222924312112  1994.50061204012 416.121695744526  L 1994.39937144494 415.126833773252  Z M 1998.37948402911 414.723714821025  C 1997.38440805187 414.824021658969  1996.38936785792 414.924683181117  1995.39436364072 415.025699367894  L 1995.49536782577 416.020585368702  C 1996.49013563204 415.919593183159  1997.48493940034 415.818955578604  1998.47977894961 415.718672573355  L 1998.37948402911 414.723714821025  Z M 2002.35997798501 414.324379198508  C 2001.36480711436 414.423740158775  2000.36967168985 414.523455837096  1999.37457190496 414.623526214083  L 1999.47463039259 415.618507771225  C 2000.46949374055 415.518461171082  2001.46439272337 415.418769184957  2002.45932714021 415.319431832976  L 2002.35997798501 414.324379198508  Z M 2006.34084971636 413.928827266493  C 2005.34558485141 414.027242259311  2004.35035509541 414.126012003715  2003.35516064189 414.225136480502  L 2003.4542733417 415.220212695038  C 2004.4492313391 415.12111177002  2005.4442246244 415.022365493714  2006.4392530165 414.923973884093  L 2006.34084971636 413.928827266493  Z M 2010.32209562654 413.537059382349  C 2009.32673766648 413.634528318803  2008.33141447818 413.732352040054  2007.33612625514 413.830530527083  L 2007.43429307759 414.825700499988  C 2008.42934481892 414.727545340287  2009.42443152093 414.629744861707  2010.41955298272 414.532299083992  L 2010.32209562654 413.537059382349  Z M 2014.3037121186 413.14907590003  C 2013.30826196272 413.245598692059  2012.31284624134 413.342476301777  2011.31746514802 413.439708710347  L 2011.41468600441 414.434971542508  C 2012.40983059726 414.337762236155  2013.40500980376 414.240907644957  2014.40022344276 414.144407786542  L 2014.3037121186 413.14907590003  Z M 2018.28569559524 412.764877170067  C 2017.2901541429 412.860453730466  2016.2946467878 412.956385141123  2015.29917372348 413.052671383387  L 2015.39544852598 414.048026175611  C 2016.39068506468 413.951762811077  2017.38595588973 413.855854193482  2018.3812608002 413.760300342191  L 2018.28569559524 412.764877170067  Z M 2022.26804245885 412.384463539575  C 2021.2724106095 412.479093781993  2020.27681252008 412.574078906919  2019.28124838416 412.669418895884  L 2019.37657704578 413.664864748893  C 2020.37190463774 413.56954741251  2021.36726616896 413.474584856441  2022.36266145826 413.379977097972  L 2022.26804245885 412.384463539575  Z M 2026.25074911148 412.00783535225  C 2025.25502776464 412.10151919119  2024.2593398404 412.195557944567  2023.26368553234 412.289951594097  L 2023.35806796697 413.285487608531  C 2024.35348570964 413.191116386735  2025.34893705433 413.097099977353  2026.34442181985 413.003438397498  L 2026.25074911148 412.00783535225  Z M 2030.23381195485 411.634992948363  C 2029.23800201014 411.727730299185  2028.24222515065 411.820822596051  2027.24648157 411.914269820864  L 2027.33991769236 412.90989509728  C 2028.33542468311 412.816470075643  2029.3309649485 412.723399897274  2030.32653828755 412.63068458096  L 2030.23381195485 411.634992948363  Z M 2034.21722739037 411.265936664769  C 2033.22132974747 411.357727443686  2032.2254648524 411.449873199937  2031.22963289879 411.542373915604  L 2031.32212262446 412.538087554482  C 2032.31771797047 412.445608816792  2033.31334624393 412.353484954753  2034.30900726363 412.261715985133  L 2034.21722739037 411.265936664769  Z M 2038.20099181911 410.900666834902  C 2037.2050073778 410.991510958984  2036.20905534689 411.082710091367  2035.21313592003 411.174264214317  L 2035.30467916544 412.170065316053  C 2036.30036196392 412.078532946172  2037.29607735252 411.987355483079  2038.29182515001 411.896532943371  L 2038.20099181911 410.900666834902  Z M 2042.18510164186 410.539183788771  C 2041.18903130198 410.629081175943  2040.19299303504 410.719333602062  2039.19698703472 410.809941049578  L 2039.28758371717 411.805828714492  C 2040.28335306524 411.715242795417  2041.27915467598 411.625011813049  2042.27498834833 411.535135785607  L 2042.18510164186 410.539183788771  Z M 2046.16955325907 410.18148785297  C 2045.17339792054 410.270438422012  2044.17727431747 410.359744060325  2043.18118264355 410.449404750545  L 2043.27083268119 411.445378078879  C 2044.2666876858 411.355738691851  2045.2625746058 411.266454272926  2046.2584932599 411.177524838354  L 2046.16955325907 410.18148785297  Z M 2050.15434307089 409.827579350667  C 2049.15810363371 409.915583021213  2048.16189559448 410.003941791036  2047.16571914691 410.092655642955  L 2047.25442245874 411.088713734871  C 2048.25036221687 411.000020961178  2049.24633355296 410.911683185763  2050.24233628573 410.823700424705  L 2050.15434307089 409.827579350667  Z M 2054.13946747716 409.477458601609  C 2053.14314484141 409.564515294152  2052.14685326608 409.651927115654  2051.15059294487 409.739694049121  L 2051.23834945075 410.735836004705  C 2052.23437305928 410.648089924769  2053.23042791823 410.560698872097  2054.2265138265 410.473662864331  L 2054.13946747716 409.477458601609  Z M 2058.12492287742 409.131125922121  C 2057.12851794326 409.217235558006  2056.13214373194 409.303700352214  2055.13580043719 409.390520287933  L 2055.22261005784 410.386745207197  C 2056.2187166202 410.299945900001  2057.2148540955 410.213501649612  2058.21102228263 410.127412473482  L 2058.12492287742 409.131125922121  Z M 2062.11070567092 408.788581625106  C 2061.11421933857 408.873744126537  2060.11776339146 408.959261815331  2059.12133802334 409.045134674863  L 2059.20720068033 410.041441657743  C 2060.20338929985 409.955589201423  2061.19960848492 409.870091831984  2062.1958580542 409.784949564987  L 2062.11070567092 408.788581625106  Z M 2066.09681225661 408.449826020045  C 2065.10024542636 408.534041310078  2064.10370864374 408.618611816196  2063.1072021025 408.703537521956  L 2063.19211771824 409.699925668314  C 2064.1883874916 409.615020140724  2065.18468749298 409.530469728907  2066.18101754102 409.446274448252  L 2066.09681225661 408.449826020045  Z M 2070.08323903312 408.114859412994  C 2069.08659260536 408.198127415543  2068.08997588757 408.281750662577  2067.09338907353 408.365729137839  L 2067.17735757131 409.362197547463  C 2068.1737075984 409.278239025313  2069.17008751595 409.194635647506  2070.1664971426 409.111387429262  L 2070.08323903312 408.114859412994  Z M 2074.06998239884 407.783682106587  C 2073.073257274 407.866002746422  2072.07656152146 407.94867865882  2071.07989533501 408.03170982771  L 2071.16291663897 409.028257600317  C 2072.15934601631 408.945246159735  2073.15580495644 408.862589890927  2074.15229325816 408.780288810577  L 2074.06998239884 407.783682106587  Z M 2078.05703875184 407.456294400035  C 2077.06023583044 407.537667602781  2076.06346194364 407.619396105849  2075.06671728524 407.70147989335  L 2075.14879132037 408.698106128584  C 2076.14529915102 408.616041844292  2077.14183620684 408.534332759711  2078.13840228664 408.452978891339  L 2078.05703875184 407.456294400035  Z M 1240.75939720966 558.720687248998  C 1239.79517644946 558.986170835041  1238.83103661719 559.251948297414  1237.86697786682 559.518019593671  L 1238.13302213318 560.481980406329  C 1239.09688502144 560.215963166202  1240.06082896033 559.950239704341  1241.02485382551 559.684810055026  L 1240.75939720966 558.720687248998  Z M 2079.61309146913 415.328393072575  L 2090 407  L 2078.4528226553 400.373334521047  L 2079.61309146913 415.328393072575  Z " fill-rule="nonzero" fill="#1f8aee" stroke="none" mask="url(#clip5)" />
  </g>
</svg>