<?xml version="1.0" encoding="utf-8"?>
<svg version="1.1" xmlns:xlink="http://www.w3.org/1999/xlink" width="154px" height="16px" viewBox="2590 478  154 16" xmlns="http://www.w3.org/2000/svg">
  <g transform="matrix(-0.798635510047299 0.601815023152056 -0.601815023152035 -0.798635510047304 5089.44300654804 -730.903808863543 )">
    <path d="M 2717.90534255272 528.179908517041  C 2718.58636967107 528.91049554917  2719.26471134301 529.643581254345  2719.94035384441 530.379150800844  L 2720.67682414877 529.702680926568  C 2719.99952538093 528.965308208795  2719.31952082586 528.230425421262  2718.63682424126 527.498047431969  L 2717.90534255272 528.179908517041  Z M 2715.16697070077 525.270949646918  C 2715.85512010365 525.994832059232  2716.54060865936 526.721239324351  2717.22342249937 527.450156745896  L 2717.95323253272 526.766506751227  C 2717.26874484655 526.035802465448  2716.58157588778 525.307614489351  2715.89173955917 524.581957555598  L 2715.16697070077 525.270949646918  Z M 2712.40024152146 522.388948301329  C 2713.09544720612 523.106056663793  2713.78801689819 523.825715816823  2714.4779365858 524.547911200454  L 2715.20101634965 523.857146656546  C 2714.50940539662 523.13318088703  2713.81513794285 522.411757565346  2713.11822803472 521.692891287293  L 2712.40024152146 522.388948301329  Z M 2709.60542038103 519.534180902645  C 2710.30761566795 520.244446435002  2711.00720006973 520.957288451031  2711.70415943244 521.672692528578  L 2712.42043957378 520.974879688965  C 2711.72177168859 520.257721873667  2711.02047232937 519.543132400551  2710.31655568465 518.831125727046  L 2709.60542038103 519.534180902645  Z M 2706.78277534009 516.706921261139  C 2707.49189287941 517.410275839469  2708.19842489138 518.116232347402  2708.90235708151 518.82477650209  L 2709.61176889952 518.11998229633  C 2708.90611109376 517.40970122027  2708.19784709302 516.702014134348  2707.48699122673 515.996935356345  L 2706.78277534009 516.706921261139  Z M 2703.93257712796 513.907440548722  C 2704.64854890585 514.60381671194  2705.36196076217 515.302820001131  2706.07279826322 516.004436274124  L 2706.77527371585 515.292728301383  C 2706.06269367152 514.589392089989  2705.34753296122 513.888675267893  2704.62980605391 513.190592011852  L 2703.93257712796 513.907440548722  Z M 2701.05509911667 511.136007272936  C 2701.7778564619 511.825338229296  2702.49807973681 512.51732125597  2703.21575437002 513.211942352928  L 2703.91122608049 512.493388875493  C 2703.19179214352 511.79706498809  2702.46980331711 511.103385637909  2701.74527420838 510.412364859326  L 2701.05509911667 511.136007272936  Z M 2698.15061729473 508.392887251198  C 2698.88009088522 509.07510688465  2699.60705649974 509.76000327844  2700.33149943051 510.447562575916  L 2701.01990069382 509.722232512651  C 2700.2936818675 509.03298773597  2699.56493417338 508.346412390841  2698.83367235521 507.662520367809  L 2698.15061729473 508.392887251198  Z M 2695.2194102407 505.678343585309  C 2695.9555301102 506.353386461889  2696.68916833863 507.031130532096  2697.42031008323 507.711562083982  L 2698.10157487251 506.979525003714  C 2697.36864081097 506.297425445577  2696.63320414564 505.618019957128  2695.89527975585 504.941322284066  L 2695.2194102407 505.678343585309  Z M 2692.26175909643 502.992636636214  C 2693.00445464124 503.660438010323  2693.74469511786 504.330964752216  2694.48246555005 505.004203296068  L 2695.15652852292 504.265529410918  C 2694.41694952428 503.590640493734  2693.67489442601 502.918470026085  2692.93037824136 502.249031607291  L 2692.26175909643 502.992636636214  Z M 2689.27794754012 500.336023999032  C 2690.02714752579 500.996519819578  2690.77391925174 501.659764920768  2691.51824760946 502.325745883994  L 2692.18504411429 501.58050604264  C 2691.43889111399 500.912892497224  2690.69028875585 500.248021520557  2689.93925218532 499.585906564071  L 2689.27794754012 500.336023999032  Z M 2686.26826175909 497.708760478353  C 2687.02389432735 498.361887394975  2687.77712567726 499.017787241409  2688.52794056949 499.676446747552  L 2689.18740665161 498.924712428436  C 2688.43475121574 498.264438287883  2687.67967339855 497.606930572091  2686.92218847663 496.952202583619  L 2686.26826175909 497.708760478353  Z M 2683.23299042236 495.11109806379  C 2683.99498309801 495.75679343294  2684.75460182686 496.405285115006  2685.51183124049 497.056559989868  L 2686.16390364829 496.298403294338  C 2685.40481796653 495.645531887729  2684.64333711237 494.995450496605  2683.87947649195 494.348172273279  L 2683.23299042236 495.11109806379  Z M 2680.17242465293 492.54328590582  C 2680.94070435067 493.181487796665  2681.70663760097 493.822509115429  2682.47020890755 494.466336893028  L 2683.11482509861 493.701830538424  C 2682.34938197737 493.056424484818  2681.58157112245 492.413831769872  2680.81140806793 491.77406539429  L 2680.17242465293 492.54328590582  Z M 2677.08685799989 490.005570291878  C 2677.86135103148 490.636217492378  2678.63352533995 491.269706965277  2679.40336530284 491.906025893976  L 2680.04046344985 491.135243206654  C 2679.26873630539 490.497364409135  2678.49466909293 489.862322003514  2677.71827747326 489.230128837838  L 2677.08685799989 490.005570291878  Z M 2673.97658641023 487.498194622742  C 2674.75721849145 488.121226645402  2675.53555979629 488.74712351238  2676.31159457756 489.375872560688  L 2676.94111357432 488.59888746899  C 2676.16317642554 487.968597108626  2675.38292709896 487.341165921399  2674.60038138043 486.71660660137  L 2673.97658641023 487.498194622742  Z M 2670.84190820048 485.021399389184  C 2671.6286044583 485.636756476922  2672.41303810622 486.255000706121  2673.19519327378 486.876119568618  L 2673.81707274101 486.093006595778  C 2673.03300020248 485.470365125837  2672.24664359805 484.850605335994  2671.45801883725 484.233739765196  L 2670.84190820048 485.021399389184  Z M 2667.68312402811 482.575422148904  C 2668.47580900785 483.183045280766  2669.26625976119 483.793577574318  2670.05446029593 484.407006677421  L 2670.66864058711 483.617840934418  C 2669.87850786177 483.002908074475  2669.0861194017 482.39087912534  2668.29149123822 481.781766469364  L 2667.68312402811 482.575422148904  Z M 2664.49813237113 480.165263879103  C 2665.29775925269 480.763475023615  2666.09491962662 481.36497607513  2666.88959322095 481.969751737346  L 2667.49519921644 481.173987087323  C 2666.69834126223 480.567549047373  2665.89898969288 479.964394619204  2665.09716483609 479.364539141181  L 2664.49813237113 480.165263879103  Z M 2661.28655716817 477.790030227961  C 2662.09270402406 478.379425655388  2662.89642064316 478.972137873003  2663.69768658679 479.568151808006  L 2664.29451882556 478.76578575765  C 2663.49105040133 478.168133528718  2662.68512456532 477.573792092766  2661.87676181241 476.98277656404  L 2661.28655716817 477.790030227961  Z M 2658.04909621816 475.450201862679  C 2658.8616658615 476.030710517103  2659.67184183188 476.614562445037  2660.47960352635 477.201742799  L 2661.06759005592 476.39287207939  C 2660.25760802563 475.804077712798  2659.44520508323 475.218620921287  2658.63040188821 474.636516593076  L 2658.04909621816 475.450201862679  Z M 2654.78613982064 473.14606086663  C 2655.60503429023 473.717612763499  2656.42157193926 474.292534014144  2657.23573200301 474.870809998194  L 2657.81480193732 474.055532124594  C 2656.99840395024 473.475666603827  2656.17962184248 472.899165037783  2655.35847643586 472.326042087039  L 2654.78613982064 473.14606086663  Z M 2651.4980813488 470.877885020818  C 2652.32320192096 471.440411255396  2653.14600280903 472.006332517773  2653.96646308915 472.575634416537  L 2654.53654661709 471.754047676641  C 2653.71383109594 471.183180908701  2652.888768533 470.615704069623  2652.06137990983 470.051631590483  L 2651.4980813488 470.877885020818  Z M 2648.18531720206 468.645947770382  C 2649.01656440244 469.199380526  2649.845529335 469.756233574233  2650.67219091897 470.316492754185  L 2651.23321931281 469.488696196266  C 2650.40428544193 468.926897003291  2649.57304189117 468.36851330468  2648.73950979916 467.813559300181  L 2648.18531720206 468.645947770382  Z M 2644.84824675831 466.450518191637  C 2645.685520374 466.994790747941  2646.52054941327 467.542508449331  2647.35331264101 468.093657367141  L 2647.90521826469 467.259750788113  C 2647.07016597814 466.707086899122  2646.23284165195 466.157863658148  2645.39326657951 465.61209503207  L 2644.84824675831 466.450518191637  Z M 2641.48727232572 464.29186095963  C 2642.33047141733 464.826907700621  2643.17146389438 465.365424023749  2644.01022837026 465.907396234425  L 2644.55294468753 465.067480167806  C 2643.71187465693 464.524018210448  2642.86857050091 463.984021640006  2642.02305366492 463.447504188724  L 2641.48727232572 464.29186095963  Z M 2638.10279909428 462.170236316234  C 2638.95182200801 462.695992738126  2639.79867653506 463.225242760921  2640.6433411399 463.757972925759  L 2641.17680272235 462.912148629559  C 2640.32981634483 462.377954122136  2639.48063402544 461.847249322751  2638.62927735912 461.320047727357  L 2638.10279909428 462.170236316234  Z M 2634.69523508692 460.085900038775  C 2635.54997946681 460.602302757768  2636.40259394948 461.122222675336  2637.25305685274 461.645646569802  L 2637.7771993877 460.794016014307  C 2636.92439877363 460.269153357863  2636.069440666 459.747804309869  2635.21234680661 459.229982128361  L 2634.69523508692 460.085900038775  Z M 2631.26499111034 458.039103409192  C 2632.12535391074 458.546090169186  2632.98362556007 459.056617301361  2633.83978423229 459.5706718229  L 2634.35454453054 458.713337678386  C 2633.49603249127 458.197870148942  2632.63540166683 457.68593970477  2631.77267394328 457.177559364388  L 2631.26499111034 458.039103409192  Z M 2627.81248070545 456.030093183746  C 2628.67835820336 456.52760286379  2629.54218354846 457.028675662803  2630.40393477346 457.533298838394  L 2630.90925077689 456.670364462744  C 2630.0451308123 456.16435420367  2629.17893102638 455.661904080269  2628.31067344678 455.16302686997  L 2627.81248070545 456.030093183746  Z M 2624.33812009757 454.059111563274  C 2625.20940790515 454.547084184947  2626.07868280556 455.038642242817  2626.94592269294 455.533773236456  L 2627.44173348202 454.665342662703  C 2626.57210976807 454.168850677214  2625.7004454474 453.675941448635  2624.82676268653 453.186627511694  L 2624.33812009757 454.059111563274  Z M 2620.84232814622 452.126396163983  C 2621.71892122338 452.60477289864  2622.59354088163 453.086756954434  2623.46616487933 453.57233607448  L 2623.95241068046 452.698513998263  C 2623.07738805665 452.211600142114  2622.20036428665 451.728291232111  2621.32136167337 451.248599558916  L 2620.84232814622 452.126396163983  Z M 2617.32552629461 450.232179988813  C 2618.20731896162 450.700903164624  2619.08717793601 451.173255111697  2619.9650808428 451.649223818022  L 2620.4417030355 450.770115584965  C 2619.56138699216 450.292838559149  2618.67910950451 449.819188234183  2617.79489300896 449.34917665504  L 2617.32552629461 450.232179988813  Z M 2613.78813851885 448.376691399337  C 2614.67502446919 448.835704508317  2615.56001668628 449.298367401174  2616.44309266456 449.764668312289  L 2616.91003378855 448.880379905303  C 2616.02453045424 448.412797249069  2615.13710561386 447.948862611095  2614.24778183483 447.48858778935  L 2613.78813851885 448.376691399337  Z M 2610.23059127683 446.560154088238  C 2611.12246358994 447.009401793009  2612.01248235745 447.462319854263  2612.90062494599 447.918896754194  L 2613.35782870811 447.029534780695  C 2612.46724483667 446.571702864519  2611.57477962917 446.117539844287  2610.68045578109 445.667057269406  L 2610.23059127683 446.560154088238  Z M 2606.65331345683 444.782787052338  C 2607.55006461099 445.222215192812  2608.44500263067 445.665333819887  2609.3381047574 446.11213166496  L 2609.7855160384 445.21780334402  C 2608.88995899626 444.769777362902  2607.99256101475 444.325440713031  2607.09334491491 443.884804693994  L 2606.65331345683 444.782787052338  Z M 2603.0555914966 443.048321956237  C 2603.95753928779 443.476982550549  2604.85771825755 443.909355074114  2605.75610551414 444.345428531604  L 2606.19277768339 443.445807824527  C 2605.29192098386 443.008535709653  2604.38926764625 442.574974701677  2603.48484062511 442.145135826096  L 2603.0555914966 443.048321956237  Z M 2599.43846471525 441.353522844432  C 2600.34506470002 441.772254489765  2601.24993672576 442.194717261684  2602.15305778152 442.620900416935  L 2602.57982606953 441.716539411388  C 2601.67422255884 441.289184784754  2600.76686326511 440.86556076782  2599.8577712627 440.445678133449  L 2599.43846471525 441.353522844432  Z M 2595.80294759534 439.698540834667  C 2596.71409047643 440.107293049856  2597.62354646928 440.519795139184  2598.53129244636 440.936036612696  L 2598.94810540309 440.027044335994  C 2598.0378642583 439.609658718295  2597.12590839733 439.196022763411  2596.21226101128 438.786146990142  L 2595.80294759534 439.698540834667  Z M 2592.14947842498 438.083575447093  C 2593.06505435746 438.482298954067  2593.97898467591 438.884790630689  2594.89124613889 439.291040241507  L 2595.2980535145 438.377526279298  C 2594.38328447184 437.970159989426  2593.4668419865 437.566561963401  2592.5487493637 437.166742464759  L 2592.14947842498 438.083575447093  Z M 2588.47849765654 436.508821377566  C 2589.39839626108 436.897468107319  2590.31669072407 437.289900847886  2591.23335769323 437.686109619678  L 2591.63011044412 436.768184102732  C 2590.71092378567 436.370886251664  2589.7901051598 435.977374811185  2588.86767798301 435.587659788326  L 2588.47849765654 436.508821377566  Z M 2584.79044785351 434.974468474175  C 2585.71455822958 435.352991572489  2586.63710613012 435.735318066412  2587.55806809451 436.1214382333  L 2587.94471838925 435.199211824234  C 2587.02122492969 434.812030309134  2586.09614117464 434.428652894854  2585.16949064919 434.049089330777  L 2584.79044785351 434.974468474175  Z M 2581.08577363719 433.480701714352  C 2582.01398437658 433.849055547517  2582.94067449473 434.22122970253  2583.8658204257 434.597214714921  L 2584.24232165078 433.670798594855  C 2583.31463272396 433.293780093267  2582.38539536536 432.920582924151  2581.45463320573 432.551216578001  L 2581.08577363719 433.480701714352  Z M 2577.36492163308 432.027701182576  C 2578.29712083322 432.38584134285  2579.22784144973 432.747818290644  2580.15705981419 433.113622820803  L 2580.52336657963 432.183128675956  C 2579.59159402522 431.816318640211  2578.65831508942 431.453346707899  2577.72355350576 431.094222109483  L 2577.36492163308 432.027701182576  Z M 2573.62834041704 430.615642048657  C 2574.5644156945 430.963525359633  2575.49905460422 431.315261461245  2576.43223337812 431.670841408769  L 2576.78830152297 430.736381416997  C 2575.85255767294 430.37982406872  2574.91534967353 430.027121132125  2573.97670135816 429.678281576534  L 2573.62834041704 430.615642048657  Z M 2569.87648046117 429.244694546623  C 2570.81631896526 429.58227906843  2571.75476349064 429.923731919509  2572.69179017247 430.269044416641  L 2573.03757677012 429.330731233911  C 2572.09797443522 428.984469558691  2571.15695035945 428.642078138725  2570.21452847329 428.30356568111  L 2569.87648046117 429.244694546623  Z M 2566.10979407956 427.915023954194  C 2567.05328250589 428.242268988555  2567.99541951061 428.57339742447  2568.93618113496 428.90840084127  L 2569.27164449832 427.96634758808  C 2568.32829695446 427.630423330287  2567.38357024965 427.298384704733  2566.43748840852 426.970240155241  L 2566.10979407956 427.915023954194  Z M 2562.32873537372 426.626790572857  C 2563.27575997788 426.943656667997  2564.22147588044 427.264420768799  2565.16585903166 427.589074718162  L 2565.49095871817 426.643394965903  C 2564.54397969275 426.317848623649  2563.59566425264 425.996202822201  2562.64603651358 425.678465741041  L 2562.32873537372 426.626790572857  Z M 2558.53376017785 425.380149708543  C 2559.48420678912 425.686598663943  2560.43338757659 425.996959759181  2561.38127840238 426.311225101705  L 2561.6959752189 425.362032858968  C 2560.74547887718 425.046903679246  2559.79368902807 424.735689478634  2558.84062987566 424.428398171338  L 2558.53376017785 425.380149708543  Z M 2554.72532600391 424.175251652899  C 2555.67908003903 424.471246523911  2556.63161128068 424.771167197275  2557.58289550593 425.075006045989  L 2557.88715151346 424.122415744822  C 2556.93325244473 423.817741718761  2555.97810293177 423.516996638112  2555.02172726426 423.220188150896  L 2554.72532600391 424.175251652899  Z M 2550.90389198639 423.012241665174  C 2551.86083846332 423.297746767441  2552.81660532466 423.587190861338  2553.77116826506 423.880566586238  L 2554.06494678333 422.924693068349  C 2553.10775998705 422.630510926617  2552.14936596053 422.34027122296  2551.18978907597 422.053981338243  L 2550.90389198639 423.012241665174  Z M 2547.06991882704 421.891259954704  C 2548.02994237893 422.166240868512  2548.98882963525 422.44517348833  2549.94655621129 422.72805072084  L 2550.22982182315 421.769009223752  C 2549.26946269518 421.485354432153  2548.30793969649 421.205655096  2547.34527727887 420.929918328117  L 2547.06991882704 421.891259954704  Z M 2543.2238687393 420.812441664011  C 2544.18685362829 421.076865238405  2545.14874567874 421.345252756782  2546.10952042951 421.617597393989  L 2546.38223898523 420.65550353715  C 2545.41882330385 420.382410292336  2544.45428725161 420.113285043483  2543.48865535689 419.848134634511  L 2543.2238687393 420.812441664011  Z M 2539.36620539254 419.775916852507  C 2540.33203552382 420.029751209303  2541.29681640524 420.287561270153  2542.26052350236 420.549340478931  L 2542.52266212372 419.584310249772  C 2541.55630603573 419.321811475127  2540.58887321179 419.063292758585  2539.62038825395 418.80876067434  L 2539.36620539254 419.775916852507  Z M 2535.49705816182 418.782554167117  C 2536.46569339414 419.026072409018  2537.43343101649 419.27314723435  2538.4002514497 419.523773644317  L 2538.65118476974 418.555769269901  C 2537.68199427807 418.304528475685  2536.71188434891 418.056847972454  2535.74087460933 417.81273277123  L 2535.49705816182 418.782554167117  Z M 2531.61781373953 417.8274704955  C 2532.58878739533 418.061490809232  2533.55889831523 418.299076326485  2534.5281268722 418.540222240487  L 2534.76956808673 417.569806793408  C 2533.79796356805 417.328069735602  2532.8254745234 417.089901802477  2531.85212062798 416.855307812598  L 2531.61781373953 417.8274704955  Z M 2527.72940181914 416.91042368919  C 2528.70262076903 417.134923629073  2529.67501194001 417.362997050651  2530.64655565875 417.594639339565  L 2530.87848161032 416.62190589561  C 2529.90455625445 416.389695760015  2528.92978136903 416.161063240489  2527.95417667536 415.936012962642  L 2527.72940181914 416.91042368919  Z M 2523.83219535121 416.03150170521  C 2524.80756625057 416.246459738715  2525.78214440724 416.464999189311  2526.7559101038 416.687115635564  L 2526.97829854762 415.712157492845  C 2526.00214576704 415.489496551523  2525.02517853466 415.270421374481  2524.04741661629 415.054936394001  L 2523.83219535121 416.03150170521  Z M 2519.92656812982 415.1907888439  C 2520.90399742754 415.396184353679  2521.88066909491 415.605168872458  2522.85656337214 415.817738172114  L 2523.0693929782 414.840648842121  C 2522.09110639895 414.62755845122  2521.11204052386 414.418061628905  2520.13221516118 414.212162613671  L 2519.92656812982 415.1907888439  Z M 2516.01289475672 414.388365740838  C 2516.9922887043 414.584179026723  2517.97096020653 414.783588569281  2518.94888946315 414.986590334108  L 2519.15213981825 414.007463532742  C 2518.17181327109 413.803964130478  2517.19074265871 413.604065756419  2516.20894783006 413.407772454897  L 2516.01289475672 414.388365740838  Z M 2512.09155060539 413.624309359104  C 2513.07281526589 413.810521639987  2514.05339273532 414.00033708029  2515.03326317488 414.193751839711  L 2515.22691478459 413.212681478292  C 2514.24464229587 413.018792582962  2513.26166104405 412.8285118301  2512.27799091661 412.641843069426  L 2512.09155060539 413.624309359104  Z M 2508.16291178505 412.898692981894  C 2509.14595304209 413.075286397536  2510.12834242826 413.25548952975  2511.11006006811 413.439298732711  L 2511.29409435867 412.456378908971  C 2510.30997014144 412.272119117113  2509.32517253115 412.0914742359  2508.33972145203 411.914447920103  L 2508.16291178505 412.898692981894  Z M 2504.22735510454 412.2115862055  C 2505.21207867136 412.378543818235  2506.19618575003 412.549117358476  2507.17965643036 412.723303375222  L 2507.35405575041 411.738628364285  C 2506.36817419532 411.564015348869  2505.38165468179 411.393023665559  2504.39451716889 411.225656773825  L 2504.22735510454 412.2115862055  Z M 2500.28525803627 411.563054932625  C 2501.27156946473 411.720360728992  2502.25729984691 411.881288316983  2503.24242923975 412.045834440752  L 2503.40717686209 411.059498686085  C 2502.41963252832 410.894549194828  2501.43148573193 410.733227109804  2500.4427564649 410.575535694849  L 2500.28525803627 411.563054932625  Z M 2496.33699867991 410.95316136607  C 2497.3248033696 411.100800258344  2498.31206251059 411.252066458982  2499.2987561289 411.406956907605  L 2499.45383625202 410.419055011964  C 2498.46472385825 410.263784865723  2497.47504455545 410.112147851925  2496.48481836663 409.96414703846  L 2496.33699867991 410.95316136607  Z M 2492.3829557262 410.381964002761  C 2493.37215893347 410.519921830404  2494.36085214196 410.661512135244  2495.34901534866 410.806732052661  L 2495.49441309831 409.817358769014  C 2494.50382751363 409.671782860271  2493.51271062783 409.529845461704  2492.52108249313 409.391549444984  L 2492.3829557262 410.381964002761  Z M 2488.4235084206 409.849517628147  C 2489.41401526765 409.977781159158  2490.40404771481 410.109681987807  2491.39358573184 410.245217445489  L 2491.52928716245 409.254467667931  C 2490.53732339719 409.118599959349  2489.54486398981 408.986375789718  2488.55192901954 408.857797834168  L 2488.4235084206 409.849517628147  Z M 2484.45903652693 409.355873310935  C 2485.45075201096 409.474430243136  2486.44202873943 409.596628944538  2487.43284665693 409.722466942829  L 2487.5588387529 408.730435697479  C 2486.56559194961 408.604289220585  2485.57188521075 408.481790961949  2484.57773864063 408.362943399912  L 2484.45903652693 409.355873310935  Z M 2480.48992029092 408.901078398201  C 2481.48274929322 409.009917360402  2482.47517522628 409.122402214066  2483.46717801161 409.238530683427  L 2483.58344868864 408.245313119314  C 2482.58901411298 408.128899973244  2481.59415535227 408.016139374808  2480.59889253426 407.907033605356  L 2480.48992029092 408.901078398201  Z M 2476.51654040376 408.485176510842  C 2477.51038769872 408.584287063931  2478.5038676496 408.687047281071  2479.49696015641 408.793455083226  L 2479.60349826258 407.799146463162  C 2478.60797129408 407.692477813486  2477.61205593179 407.589465690503  2476.61577232485 407.490112178331  L 2476.51654040376 408.485176510842  Z M 2720.61509443092 531.115545903742  C 2721.28893394519 531.852767482681  2721.96006367129 532.592461315139  2722.62847003099 533.3346124357  L 2723.37152996901 532.6653875643  C 2722.7014850815 531.921417138411  2722.02871015163 531.179910024507  2721.35321879075 530.440881224491  L 2720.61509443092 531.115545903742  Z M 2476.52302726526 400.331428740414  L 2465 407  L 2475.41709604094 415.290603721912  L 2476.52302726526 400.331428740414  Z " fill-rule="nonzero" fill="#1f8aee" stroke="none" />
  </g>
</svg>