<?xml version="1.0" encoding="utf-8"?>
<svg version="1.1" xmlns:xlink="http://www.w3.org/1999/xlink" width="50px" height="50px" xmlns="http://www.w3.org/2000/svg">
  <g transform="matrix(1 0 0 1 -2160 -1440 )">
    <path d="M 2185 1440  C 2199 1440  2210 1451  2210 1465  C 2210 1479  2199 1490  2185 1490  C 2171 1490  2160 1479  2160 1465  C 2160 1451  2171 1440  2185 1440  Z " fill-rule="nonzero" fill="#ffffff" stroke="none" />
    <path d="M 2185 1440.5  C 2198.72 1440.5  2209.5 1451.28  2209.5 1465  C 2209.5 1478.72  2198.72 1489.5  2185 1489.5  C 2171.28 1489.5  2160.5 1478.72  2160.5 1465  C 2160.5 1451.28  2171.28 1440.5  2185 1440.5  Z " stroke-width="1" stroke="#797979" fill="none" />
  </g>
</svg>