<?xml version="1.0" encoding="utf-8"?>
<svg version="1.1" xmlns:xlink="http://www.w3.org/1999/xlink" width="496px" height="34px" viewBox="1426 600  496 34" xmlns="http://www.w3.org/2000/svg">
  <g transform="matrix(0.961261695938319 -0.275637355816999 0.275637355816998 0.961261695938318 -105.220327539834 485.318467243714 )">
    <path d="M 1445.01585927297 560.213943171937  C 1444.02093249777 560.109720315017  1443.02589013251 560.006603870869  1442.03073402193 559.904594030663  L 1441.92876199063 560.899381296782  C 1442.92318061733 561.001315540193  1443.91748558391 561.104355567565  1444.91167504519 561.208501187682  L 1445.01585927297 560.213943171937  Z M 1448.99494200773 560.636734636067  C 1448.00032866835 560.529561894036  1447.00559645786 560.423495217077  1446.01074722166 560.318534801961  L 1445.90582570903 561.313015307646  C 1446.89993768897 561.417897939396  1447.89393273022 561.523886013198  1448.88780898816 561.630979332365  L 1448.99494200773 560.636734636067  Z M 1452.97275350686 561.071323763299  C 1451.97846234927 560.961202078564  1450.98404904119 560.852186101539  1449.98951542741 560.744276034467  L 1449.88164535608 561.738441034711  C 1450.87544194771 561.846271132531  1451.86911832247 561.955206320707  1452.86267263758 562.065246397219  L 1452.97275350686 561.071323763299  Z M 1456.94925879133 561.517706732055  C 1455.95529855867 561.404637072953  1454.96121289781 561.292672754544  1453.96700365172 561.181813984404  L 1453.85618597025 562.175654736977  C 1454.84965843436 562.286431352637  1455.84300740512 562.398312697305  1456.83623104034 562.511298563497  L 1456.94925879133 561.517706732055  Z M 1460.92442289355 561.975879617049  C 1459.93080232666 561.859862977909  1458.93705305374 561.744951302587  1457.94317691838 561.631144804267  L 1457.82941260125 562.624652569787  C 1458.8225522015 562.738374729144  1459.8155650336 562.853201246519  1460.80844925477 562.96913190882  L 1460.92442289355 561.975879617049  Z M 1464.89821085777 562.445838389318  C 1463.90493869409 562.326875790338  1462.91153454769 562.209017768582  1461.91800026274 562.092264542843  L 1461.80129031035 563.085430584859  C 1462.79408831372 563.202097287917  1463.78675627466 563.319867968219  1464.77929235101 563.438742407212  L 1464.89821085777 562.445838389318  Z M 1468.8705877403 562.927578916259  C 1467.8776727138 562.805671403493  1466.88462243028 562.684868071789  1465.89143873202 562.565169145259  L 1465.77178417065 563.557984730322  C 1466.76423184715 563.677594951192  1467.75654620745 563.798308758751  1468.74872541128 563.920125929134  L 1468.8705877403 562.927578916259  Z M 1472.84151860988 563.421096961668  C 1471.84896945202 563.296245607138  1470.8562817634 563.172498027727  1469.86345738563 563.049854453008  L 1469.74085926748 564.042310850753  C 1470.73294788976 564.164863537612  1471.72489992387 564.288519410975  1472.71671353021 564.413278241519  L 1472.84151860988 563.421096961668  Z M 1476.81096854797 563.926388185771  C 1475.81879398676 563.798594087364  1474.82647762228 563.671903348425  1473.83402129545 563.546316203988  L 1473.70848069858 564.538404687208  C 1474.70020154268 564.663898762385  1475.69178252783 564.790495614178  1476.68322181512 564.918195007811  L 1476.81096854797 563.926388185771  Z M 1480.77890264904 564.44344814527  C 1479.78711140921 564.312712426748  1478.79517509485 564.183079642342  1477.80309554617 564.054550032543  L 1477.67461357453 565.046261877266  C 1478.6659579197 565.174696237223  1479.65715913637 565.304232954212  1480.64821538636 565.434871788004  L 1480.77890264904 564.44344814527  Z M 1484.7452860209 564.972272293376  C 1483.75388682401 564.838596104398  1482.76233928199 564.706022414401  1481.77064523555 564.574551469497  L 1481.63922301896 565.565877955064  C 1482.63018214777 565.697251470408  1483.62099487981 565.829726913505  1484.61165937758 565.963304038678  L 1484.7452860209 564.972272293376  Z M 1488.71008378498 565.512855979852  C 1487.71908534854 565.376240495849  1486.72793529889 565.240727066163  1485.73663547479 565.106315942195  L 1485.60227416891 566.097248351334  C 1486.59283936733 566.231559866827  1487.58325490197 566.366972871105  1488.57351893609 566.503487113043  L 1488.71008378498 565.512855979852  Z M 1492.67326107668 566.065194451052  C 1491.68267211506 565.925640873356  1490.69192827351 565.787188895627  1489.70103138878 565.649838774545  L 1489.56373217512 566.64036839345  C 1490.55389473237 566.777616727989  1491.54390436076 566.915966102745  1492.53375922309 567.055416260975  L 1492.67326107668 566.065194451052  Z M 1496.63478304562 566.629282849965  C 1495.64461227003 566.486792405805  1494.65428334789 566.345403097401  1493.66379811645 566.205115187055  L 1493.52356220235 567.195233305462  C 1494.51331341159 567.335417252177  1495.50290842764 567.476701780774  1496.49234541406 567.619086629063  L 1496.63478304562 566.629282849965  Z M 1500.59461485599 567.205116216256  C 1499.60487097333 567.059690158598  1498.61496567953 566.91536476289  1497.62490081102 566.772140296879  L 1497.48172942967 567.761838208143  C 1498.47106058748 567.904956534319  1499.46023228914 568.049174974365  1500.44924269899 568.194493260647  L 1500.59461485599 567.205116216256  Z M 1504.55272168685 567.792689486308  C 1503.56341340027 567.644329093933  1502.57394043998 567.497068880113  1501.58430464039 567.350909117857  L 1501.43819905076 568.340178119029  C 1502.42710145742 568.486229566149  1503.41584114637 568.633380649454  1504.40441628274 568.781631095865  L 1504.55272168685 567.792689486308  Z M 1508.50906873241 568.391997493274  C 1507.52020474205 568.240704070887  1506.53117281502 568.090510333709  1505.54197478737 567.941416560562  L 1505.39293627425 568.930247952462  C 1506.38140123401 569.079231236248  1507.3697002153 569.22931366877  1508.35783138533 569.380494971696  L 1508.50906873241 568.391997493274  Z M 1512.46362120238 569.003034967112  C 1511.47521020324 568.848809845025  1510.48662800779 568.69568390541  1509.49787645002 568.543657432342  L 1509.34590632398 569.532042519639  C 1510.33392514452 569.683956329971  1511.32177472793 569.836968792014  1512.30945324223 569.991079622005  L 1512.46362120238 569.003034967112  Z M 1516.41634432223 569.625796534638  C 1515.42839500594 569.468641069035  1514.44027123521 569.312584273504  1513.45197484194 569.157626437365  L 1513.29707443935 570.145556528655  C 1514.28463843229 570.300399529639  1515.27202993152 570.456340675747  1516.25924710469 570.61337967759  L 1516.41634432223 569.625796534638  Z M 1520.36720333352 570.260276719572  C 1519.37972438786 570.100192292438  1518.39206773055 569.941206013221  1517.40423519262 569.783318176671  L 1517.24640587559 570.770784584548  C 1518.23350635694 570.928555414597  1519.22043108892 571.087423873431  1520.20717824004 571.24738966623  L 1520.36720333352 570.260276719572  Z M 1524.3161634942 570.906469942587  C 1523.32916360283 570.743457961665  1522.34198274352 570.581543596747  1521.35462274768 570.420727148212  L 1521.19386590409 571.407721189348  C 1522.18049419395 571.568418461132  1523.16694347971 571.730212835609  1524.15321193198 571.89310401273  L 1524.3161634942 570.906469942587  Z M 1528.26319007894 571.564370521355  C 1527.27667792106 571.398432420099  1526.28998154058 571.233591393277  1525.30310276922 571.069847746905  L 1525.13941981269 572.056360742128  C 1526.12556723491 572.219983042515  1527.11153240046 572.384701909955  1528.09731348088 572.550517038976  L 1528.26319007894 571.564370521355  Z M 1532.20824837938 572.233972670599  C 1531.22223262953 572.065109908124  1530.23602940525 571.897343669072  1529.24964053612 571.730674264682  L 1529.08303290601 572.716697539047  C 1530.06869078884 572.883243429218  1531.05416316407 573.050885341159  1532.03944820413 573.219622963977  L 1532.20824837938 572.233972670599  Z M 1536.1513037045 572.915270502145  C 1535.16579303324 572.743484563351  1534.18009163738 572.572794587332  1533.19420134433 572.403200890537  L 1533.02467050571 573.388725773407  C 1534.00983018153 573.558193788798  1534.99480110105 573.728757271145  1535.97958143641 573.900415903922  L 1536.1513037045 572.915270502145  Z M 1540.09232138086 573.608258024972  C 1539.10732445474 573.433550420537  1538.12213355429 573.259938208378  1537.1367505072 573.087421710577  L 1536.96429795084 574.072439535698  C 1537.94895075702 574.244828186156  1538.93341155863 574.418311738909  1539.91767852998 574.592889872231  L 1540.09232138086 573.608258024972  Z M 1544.03126675296 574.312929145264  C 1543.04679223338 574.135301411452  1542.06212049207 573.958768489891  1541.07725335574 573.78333070808  L 1540.90188059811 574.767832813656  C 1541.88601787586 574.943140583238  1542.86995990307 575.119542680934  1543.85370485501 575.297038779603  L 1544.03126675296 574.312929145264  Z M 1547.96810518352 575.029277666467  C 1546.9841617273 574.848731365217  1546.00001780428 574.669279286677  1545.01567523898 574.490921763539  L 1544.83738382224 575.47489949231  C 1545.82099691749 575.65312483944  1546.80441151797 575.832443930879  1547.78762579991 576.012856434077  L 1547.96810518352 575.029277666467  Z M 1551.90280205378 575.75729728934  C 1550.91939831348 575.57383400833  1549.93579086245 575.391464350757  1548.95198152424 575.210188654723  L 1548.7707730162 576.193633354039  C 1549.75385327952 576.374774711485  1550.73673180557 576.557009219818  1551.71940677156 576.740336541079  L 1551.90280205378 575.75729728934  Z M 1555.83532276383 576.496981612011  C 1554.85246738724 576.310602964572  1553.8694050572 576.125317331565  1552.88613759746 575.941125056729  L 1552.70201359157 576.924028078627  C 1553.68455237821 577.108083853515  1554.66688618683 577.293232176254  1555.6490131957 577.479472703483  L 1555.83532276383 576.496981612011  Z M 1559.76563273288 577.248324130035  C 1558.78333436258 577.059031755058  1557.80082579853 576.87083177601  1556.81810886345 576.683724542035  L 1556.63107097882 577.666077243317  C 1557.61305964878 577.853045817145  1558.59484010179 578.041106326181  1559.57641051715 578.230258421663  L 1559.76563273288 577.248324130035  Z M 1563.69369739957 578.011318236451  C 1562.71196467325 577.819113798445  1561.73001851533 577.62800112838  1560.74786074627 577.437980580564  L 1560.55791062763 578.419774322869  C 1561.53934054554 578.609654051482  1562.52055901002 578.800625093175  1563.50156420018 578.992687093554  L 1563.69369739957 578.011318236451  Z M 1567.61948222231 578.785957221837  C 1566.63832377328 578.590842411041  1565.65694865546 578.396818730357  1564.67535868947 578.203886539731  L 1564.48249800715 579.185112689615  C 1565.46336054297 579.377901903336  1566.44400839014 579.571781798297  1567.42443972879 579.766752014707  L 1567.61948222231 578.785957221837  Z M 1571.54295267955 579.572234274373  C 1570.56237713546 579.374210806497  1569.58158168791 579.177277821428  1568.60056815644 578.981435684512  L 1568.40479860638 579.962085613521  C 1569.38508513506 580.15778261709  1570.36515374112 580.354569660347  1571.34500260701 580.552446378349  L 1571.54295267955 579.572234274373  Z M 1575.46407427008 580.370142479899  C 1574.48409025346 580.169212096229  1573.50388310125 579.969371538597  1572.52345463069 579.770621177494  L 1572.32477793438 580.750686262243  C 1573.30447983553 580.94928933475  1574.28396058262 581.148981795928  1575.26321835921 581.349763275445  L 1575.46407427008 580.370142479899  Z M 1579.38281251336 581.179674821975  C 1578.40342864214 580.975839289484  1577.42381840395 580.77309291643  1576.44398361614 580.571436078942  L 1576.24240152066 581.550907701186  C 1577.22151017923 581.752415096208  1578.20039445425 581.955011219303  1579.17905253038 582.158695694755  L 1579.38281251336 581.179674821975  Z M 1583.29913294978 582.000824181944  C 1582.32035783582 581.794085292984  1581.34135312671 581.588434887535  1580.36212063747 581.383873346857  L 1580.15763491544 582.362742893572  C 1581.13614172158 582.567152839144  1582.11442091668 582.772650842618  1583.09247068649 582.979236522896  L 1583.29913294978 582.000824181944  Z M 1587.21300114104 582.833583338995  C 1586.23484339143 582.623942911576  1585.25645281992 582.415390282042  1584.27783124036 582.207925837037  L 1584.07044368993 583.186184700492  C 1585.04834003912 583.393495399126  1586.02600555174 583.601893475924  1587.00343841471 583.81137854441  L 1587.21300114104 582.833583338995  Z M 1591.12438267035 583.677944970226  C 1590.14685088678 583.465404847873  1589.16908305597 583.253951828084  1588.19108099185 583.043586303142  L 1587.9807934367 584.021225880976  C 1588.95807072976 584.231435509678  1589.93511396276 584.442731827243  1590.91192132379 584.655114441819  L 1591.12438267035 583.677944970226  Z M 1595.03324314283 584.533901650706  C 1594.05634592106 584.318463702357  1593.0792094294 584.10411215182  1592.10183548062 583.890847396756  L 1591.88864976992 584.867859092055  C 1592.86529941311 585.080965802337  1593.84171177483 585.295158502626  1594.81788504432 585.510436795697  L 1595.03324314283 584.533901650706  Z M 1598.93954818575 585.401445853545  C 1597.96329411615 585.183111973662  1596.98679755614 584.965863777287  1596.01006031728 584.749701667453  L 1595.79397832568 585.726076888824  C 1596.7699917306 585.942078806679  1597.74576463532 586.159166006268  1598.72129522904 586.377338084732  L 1598.93954818575 585.401445853545  Z M 1602.84326344884 586.280569949957  C 1601.86766111615 586.059342058468  1600.89181307465 585.839199126635  1599.91572113469 585.620141562863  L 1599.69674476232 586.595871724509  C 1600.67211334676 586.814766950604  1601.64723821317 587.034746740349  1602.62211755316 587.255810685789  L 1602.84326344884 586.280569949957  Z M 1606.74435460462 587.171266209325  C 1605.76941258785 586.947146251608  1604.79422164601 586.724110520154  1603.81878358825 586.502159428735  L 1603.5969147607 587.477235950531  C 1604.57162994751 587.699022559957  1605.54609820121 587.921893005547  1606.52031771463 588.145846873983  L 1606.74435460462 587.171266209325  Z M 1610.64278734868 588.073526799277  C 1609.66851422102 587.846516746138  1608.69398895423 587.620590176338  1607.71921335624 587.395747509008  L 1607.4944540245 588.370161816579  C 1608.46850724228 588.594837858999  1609.44231031465 588.820597000706  1610.41586143445 589.047438822744  L 1610.64278734868 588.073526799277  Z M 1614.53852739999 588.987343785744  C 1613.56493172875 588.757445633407  1612.59108070655 588.528630211954  1611.61697614004 588.300897945878  L 1611.38932828056 589.27464147067  C 1612.36271096413 589.502204970432  1613.33584029158 589.730850822941  1614.30871445701 589.960578603884  L 1614.53852739999 588.987343785744  Z M 1618.4315405012 589.912709133039  C 1617.45863084774 589.679924903123  1616.48546263371 589.448222642116  1615.51203766452 589.217602779866  L 1615.28150327912 590.190666959224  C 1616.25420686921 590.421115915288  1617.22665389409 590.652646467895  1618.19884255034 590.88525818767  L 1618.4315405012 589.912709133039  Z M 1622.32179241893 590.849614703923  C 1621.34957733856 590.613946443426  1620.37710049031 590.379359380348  1619.4043636783 590.14585394989  L 1619.1709447942 591.118230227133  C 1620.14296073708 591.351562612988  1621.11471690854 591.585975829816  1622.08621150642 591.821469442895  L 1622.32179241893 590.849614703923  Z M 1626.20924894409 591.798052259677  C 1625.23773698603 591.559502040958  1624.26596005507 591.32203223866  1623.29391995403 591.085643293334  L 1623.05761862381 592.05732311783  C 1624.02893837204 592.293536881658  1624.99999514489 592.530830701384  1625.97078714153 592.769204136944  L 1626.20924894409 591.798052259677  Z M 1630.09387589217 592.758013460176  C 1629.12307559925 592.516583380885  1628.15200713134 592.276232927669  1627.18067228875 592.036962546121  L 1626.94149059033 593.007937373364  C 1627.91210560235 593.247030437959  1628.88245443798 593.487202774029  1629.85253529647 593.728453935872  L 1630.09387589217 592.758013460176  Z M 1633.97563910353 593.72948986396  C 1633.00555901292 593.485182047224  1632.0352075464 593.241953056421  1631.06458650413 592.999803342784  L 1630.82252654077 593.970064634465  C 1631.79242828185 594.212034897453  1632.76206064664 594.455083637703  1633.73142183694 594.699210404477  L 1633.97563910353 593.72948986396  Z M 1637.85450444372 594.712472928311  C 1636.88515308567 594.46528952241  1635.91552715376 594.219184132965  1634.94562844682 593.974157216544  L 1634.70069234707 594.94369644063  C 1635.66987228813 595.188541774184  1636.63877965598 595.434464781453  1637.60741265378 595.681465006371  L 1637.85450444372 594.712472928311  Z M 1641.73043780379 595.706954009326  C 1640.76182370212 595.456897187827  1639.79293183167 595.20791756398  1638.82376398869 594.960015599377  L 1638.57595390642 595.928824230184  C 1639.54440352494 596.176542481248  1640.51257737573 596.425337593002  1641.4804736633 596.675209104055  L 1641.73043780379 595.706954009326  Z M 1645.60340510054 596.712924361993  C 1644.63553677321 596.459996323884  1643.66738748341 596.208144654843  1642.69895902721 595.957369822098  L 1642.44827714155 596.925439340366  C 1643.41598792142 597.176028330617  1644.38341974147 597.427693359068  1645.35057080757 597.680433959  L 1645.60340510054 596.712924361993  Z M 1649.47337227688 597.73037514027  C 1648.50625823448 597.47457810958  1647.53886003958 597.219856610221  1646.57117948569 596.966211114429  L 1646.31762800101 597.933533007398  C 1647.28459143244 598.18699053322  1648.25127271499 598.441523265444  1649.21767005475 598.697130731719  L 1649.47337227688 597.73037514027  Z M 1653.34030530209 598.759297397161  C 1652.37395404917 598.500633623304  1651.40731545564 598.243044533427  1650.44039131359 597.986530605082  L 1650.18397245952 598.953096366567  C 1651.15018003986 599.209420199276  1652.11610228356 599.466818396818  1653.08173739932 599.725290481846  L 1653.34030530209 598.759297397161  Z M 1657.20417017212 599.799682084795  C 1656.23859020634 599.538153842342  1655.27271971436 599.277699427067  1654.30656048683 599.018319321836  L 1654.04727651819 599.984120452299  C 1655.01271975086 600.243308337847  1655.97787446224 600.503569737371  1656.94273886244 600.764904168214  L 1657.20417017212 599.799682084795  Z M 1661.06493290993 600.851520054504  C 1660.10013272235 600.587129643269  1659.13503882494 600.323812192805  1658.1696530081 600.061568191611  L 1657.90750620492 601.026596198241  C 1658.87217660005 601.288645857394  1659.83655529238 601.55176817039  1660.80064049225 601.815962648937  L 1661.06493290993 600.851520054504  Z M 1664.92255956573 601.914802056909  C 1663.95854763996 601.647551801711  1662.99423882451 601.381373631768  1662.02963490713 601.116268040556  L 1661.7646275746 602.080514437338  C 1662.72851664972 602.345423565861  1663.69211084189 602.611404478332  1664.65540836411 602.878456681489  L 1664.92255956573 601.914802056909  Z M 1668.77701621732 602.989518741992  C 1667.81380103065 602.719410992962  1666.85028577644 602.450374444081  1665.886472241 602.182409594123  L 1665.61860670948 603.145865901915  C 1666.5817059884 603.413632170263  1667.5445072074 603.682469343407  1668.50700858097 603.952376922782  L 1668.77701621732 602.989518741992  Z M 1672.62826897037 604.075660659189  C 1671.66585899286 603.802697791531  1670.70314577262 603.530805229495  1669.74013109445 603.259983477152  L 1669.46940971942 604.22264122376  C 1670.43171073308 604.49326227732  1671.39371051249 604.764953347103  1672.35540727361 605.037713929254  L 1672.62826897037 604.075660659189  Z M 1676.47628395873 605.173218257464  C 1675.51468765358 604.897402671546  1674.55278493256 604.62265648714  1673.59057758017 604.34898021395  L 1673.31700274224 605.310830934204  C 1674.27849702861 605.584304393258  1675.23968690903 605.858846970554  1676.20057060098 606.13445815695  L 1676.47628395873 605.173218257464  Z M 1680.32102734471 606.282181885399  C 1679.36025316736 606.003516006502  1678.3991694049 605.725918615947  1677.4377778391 605.44939022838  L 1677.16135194396 606.410425464205  C 1678.12203104809 606.686748923952  1679.08240257727 606.96414059456  1680.04246475048 607.2425999616  L 1680.32102734471 606.282181885399  Z M 1684.16217553534 607.405359680342  C 1683.20247821492 607.122848377844  1682.24242905343 606.841533665007  1681.28203028871 606.561416197569  L 1681.00202921912 607.521415885605  C 1681.96163007936 607.801300629937  1682.92088162671 608.082381624959  1683.8797816254 608.36465821554  L 1684.16217553534 607.405359680342  Z M 1687.99907877399 608.541783880265  C 1687.04032599347 608.256083532524  1686.08121739564 607.971578598103  1685.12175521615 607.688269740173  L 1684.8385640822 608.647333232154  C 1685.79722913513 608.930406715494  1686.75554090064 609.214675281764  1687.71349714397 609.500138268053  L 1687.99907877399 608.541783880265  Z M 1691.83218265591 609.690957955571  C 1690.87438501236 609.402071720426  1689.9162275792 609.114379709046  1688.95771258985 608.827882592031  L 1688.67133452164 609.785999287452  C 1689.62905317155 610.072258381114  1690.58641456223 610.359711376385  1691.54341646232 610.648357603284  L 1691.83218265591 609.690957955571  Z M 1695.6614448139 610.85286920447  C 1694.70461289403 610.560800275034  1693.74741721562 610.269924366426  1692.78986001107 609.98024215703  L 1692.50029817392 610.937401465853  C 1693.45705983477 611.226843005704  1694.41346026973 611.517477253003  1695.36949724848 611.809303529994  L 1695.6614448139 610.85286920447  Z M 1699.48682292324 612.027504784387  C 1698.53096730267 611.73225638883  1697.57474395928 611.438199798157  1696.61815512317 611.145335698171  L 1696.32541271761 612.10152704094  C 1697.28120681474 612.39414782791  1698.23663572211 612.687960114624  1699.19169721286 612.982963216279  L 1699.48682292324 612.027504784387  Z M 1703.3082747021 613.214851712107  C 1702.35340594571 612.916427113739  1701.39816550683 612.619193091325  1700.44255561212 612.323150337706  L 1700.14663587382 613.278363145663  C 1701.10145184247 613.574159945301  1702.05589866271 613.871147024173  1703.00997410879 614.169323689709  L 1703.3082747021 613.214851712107  Z M 1707.12575791209 614.414896863913  C 1706.1718865742 614.113299361276  1705.2176395977 613.812891192318  1704.26301920691 613.51367305728  L 1703.96392540666 614.467896772483  C 1704.91775269348 614.766866315415  1705.87120687672 615.067024903734  1706.82428573296 615.368371837473  L 1707.12575791209 614.414896863913  Z M 1710.93923035867 615.62762697574  C 1709.9863669826 615.322859902446  1709.03312401534 615.019280907222  1708.07950368006 614.716890698077  L 1707.77723912375 615.670114773517  C 1708.73006718629 615.972253755303  1709.68251819364 616.275580535298  1710.63458992587 616.580094406524  L 1710.93923035867 615.62762697574  Z M 1714.74864989163 616.853028643313  C 1713.79680500895 616.545095367818  1712.84457658789 616.23834890203  1711.89196684808 615.932789960965  L 1711.58653487662 616.88500386068  C 1712.53835318291 617.190308941661  1713.48979048774 617.496800560921  1714.44084457235 617.804478003723  L 1714.74864989163 616.853028643313  Z M 1718.55397440555 618.0910883223  C 1717.60315853717 617.779992248245  1716.65195518688 617.470081702228  1715.7003665719 617.161357406641  L 1715.39177056122 618.112550605836  C 1716.34256859104 618.421018411545  1717.29298167674 618.7306714823  1718.24300760195 619.041509095991  L 1718.55397440555 618.0910883223  Z M 1722.35516184028 619.341792328459  C 1721.40538549555 619.027536894381  1720.45521772965 618.714465693569  1719.50466075738 618.40257945578  L 1719.19290411839 619.352741440942  C 1720.14267136259 619.664368561894  1721.09204972427 619.977179661555  1722.04103698947 620.291174010455  L 1722.35516184028 619.341792328459  Z M 1726.15217018139 620.605126837793  C 1725.20344385836 620.287715517214  1724.25432217863 619.971487121843  1723.30480735576 619.656442389189  L 1722.98989353429 620.605562658202  C 1723.93861949512 620.920345649989  1724.88695263933 621.236311321066  1725.83489075539 621.553458934603  L 1726.15217018139 620.605126837793  Z M 1729.94495746065 621.881077886697  C 1728.99729164538 621.560514187892  1728.04922654284 621.241132093356  1727.10076436412 620.922932347952  L 1726.78269684091 621.871000410216  C 1727.73037103213 622.18893579355  1728.67764847695 622.508052543682  1729.62452696635 622.828349916432  L 1729.94495746065 621.881077886697  Z M 1733.73348175649 623.169631372119  C 1732.78688692349 622.84591883827  1731.83988887707 622.52338657469  1730.89248982584 622.202035333591  L 1730.57127211649 623.149040710133  C 1731.51788406347 623.470124970884  1732.46409533869 623.792389272881  1733.40990373559 624.115832864606  L 1733.73348175649 623.169631372119  Z M 1737.51770119445 624.47077305171  C 1736.57218780621 624.143915260736  1735.62626728346 623.818236393188  1734.67994183109 623.493737208213  L 1734.355577486 624.439669431809  C 1735.30111672587 624.763899021039  1736.24625137303 625.089307312923  1737.19097922344 625.41589354861  L 1737.51770119445 624.47077305171  Z M 1741.29757394764 625.784488543987  C 1740.3531524551 625.454489108705  1739.40831991085 625.125667236776  1738.46307851725 624.798023694672  L 1738.13557112162 625.742872309956  C 1739.08002720336 626.070243643966  1740.02407477591 626.398792329007  1740.96771163777 626.728517598906  L 1741.29757394764 625.784488543987  Z M 1745.07305823723 627.110763328486  C 1744.12973907906 626.777625896371  1743.18600495652 626.44566465452  1742.24185806942 626.114880376723  L 1741.91121124317 627.058634940309  C 1742.85457372773 627.389144400671  1743.79752379115 627.72082984743  1744.74005923447 628.053690507096  L 1745.07305823723 627.110763328486  Z M 1748.8441123329 628.449582745926  C 1747.90190593576 628.113310999207  1746.95928066561 627.778214056454  1746.01623872084 627.444292699184  L 1745.68245611861 628.386942779778  C 1746.62471457923 628.720586713449  1747.56655671071 629.055405255675  1748.50798031787 629.391397626079  L 1748.8441123329 628.449582745926  Z M 1752.61069455327 629.800931998373  C 1751.66961133098 629.461529653713  1750.72810533281 629.123300714154  1749.78617875339 628.786245968095  L 1749.44926406446 629.727781146611  C 1750.39040808599 630.064555865695  1751.33113187617 630.402503802926  1752.27143324124 630.741624170213  L 1752.61069455327 629.800931998373  Z M 1756.37276326643 631.164796149398  C 1755.43281362112 630.822266958344  1754.4924373006 630.480909760133  1753.55163649802 630.140725350883  L 1753.2115934463 631.081135220556  C 1754.15161262649 631.42103700276  1755.09120767718 631.762110599528  1756.03037640724 632.104355215479  L 1756.37276326643 631.164796149398  Z M 1760.13027689032 632.541160124247  C 1759.19147121085 632.195507872622  1758.25223496271 631.851026189055  1757.31257033522 631.507715876522  L 1756.9694026792 632.446990043027  C 1757.90828662804 632.790015131426  1758.84674255392 633.134210617853  1759.78476826836 633.479575699647  L 1760.13027689032 632.541160124247  Z M 1763.88319389323 633.930008710004  C 1762.94554255659 633.581237218437  1762.0074567614 633.233634856776  1761.06893869548 632.887202435701  L 1760.72265022819 633.825330517266  C 1761.66038856823 634.171475120413  1762.59769499657 634.518788692115  1763.53456732741 634.867270422441  L 1763.88319389323 633.930008710004  Z M 1767.63147279429 635.331326555764  C 1766.69498616392 634.979439679072  1765.7580611911 634.628720481644  1764.82070005977 634.279169780993  L 1764.47129460872 635.216141408513  C 1765.40787697516 635.565401700479  1766.34402354593 635.915829518609  1767.27973213796 636.267424045709  L 1767.63147279429 635.331326555764  Z M 1771.37507216386 636.745098172796  C 1770.43976059111 636.390099800522  1769.50400679569 636.036267643526  1768.56781295997 635.683602527019  L 1768.21529438713 636.61940734417  C 1769.15071042814 636.971779464665  1770.08568679376 637.325317655807  1771.0202213048 637.680021093587  L 1771.37507216386 636.745098172796  Z M 1775.11395062403 638.17130793472  C 1774.17982444668 637.813201990579  1773.24525217192 637.456260785059  1772.31023597934 637.100485150621  L 1771.95460818109 638.035112813977  C 1772.88884755716 638.390592868095  1773.82264338413 638.747237524893  1774.7559934844 639.10504595268  L 1775.11395062403 638.17130793472  Z M 1778.84806684909 639.609940077677  C 1777.91513639182 639.248730519729  1776.98175596789 638.888684211095  1776.04792775297 638.529801991031  L 1775.68919466006 639.463242170178  C 1776.62224704525 639.82182622888  1777.55485201196 640.181573409204  1778.48700738537 640.542482872224  L 1778.84806684909 639.609940077677  Z M 1782.57737956593 641.060978700504  C 1781.64565514059 640.696669521264  1780.71347688374 640.333522088951  1779.78084696826 639.97153725005  L 1779.41901254574 640.903779627698  C 1780.35086762706 641.265463727563  1781.28227142546 641.628309455137  1782.21322176892 641.992315964266  L 1782.57737956593 641.060978700504  Z M 1786.30184755457 642.524407764909  C 1785.37133945949 642.157002991076  1784.44037367306 641.790758448943  1783.50895236534 641.425674992214  L 1783.14402061258 642.356709264312  C 1784.07466809044 642.721489407732  1785.00486042536 643.08742967188  1785.93459544928 643.454529203841  L 1786.30184755457 642.524407764909  Z M 1790.02142964856 644.00021109565  C 1789.09214816881 643.629714788215  1788.16240514236 643.2603771842  1787.23220273757 642.892199144977  L 1786.86417768814 643.822015020829  C 1787.79360727574 644.189887175747  1788.72257786655 644.558917932044  1789.65108729423 644.929106429143  L 1790.02142964856 644.00021109565  Z M 1793.73608473546 645.48837238071  C 1792.80804014216 645.114788634684  1791.87953015251 644.742362051218  1790.95055693196 644.371093498888  L 1790.57944265362 645.299680701262  C 1791.50764407819 645.670640801672  1792.43538265663 646.042757971079  1793.36265622546 646.416031341709  L 1793.73608473546 645.48837238071  Z M 1797.44577175728 646.988875171482  C 1796.5189743079 646.612208115999  1795.59170761821 646.236696669658  1794.66397384964 645.862341707764  L 1794.28977444432 646.789689973011  C 1795.21673744647 647.163733918701  1796.14323375826 647.538933388217  1797.06926121911 647.915287506596  L 1797.44577175728 646.988875171482  Z M 1801.15044971094 648.501702882948  C 1800.22490964955 648.121956681376  1799.2988965085 647.743364522525  1798.3724124463 647.36592728888  L 1797.99513205001 648.292026367044  C 1798.92084638424 648.669150023794  1799.84609018847 649.047427646192  1800.77086130617 649.426858352567  L 1801.15044971094 648.501702882948  Z M 1804.85007764875 650.026838793864  C 1803.92580520531 649.644017643527  1803.0010558481 649.262348956734  1802.07583173268 648.881833623143  L 1801.69547451549 649.806673278075  C 1802.61992994971 650.18687247747  1803.54391102006 650.568224071812  1804.46741557296 650.950727172268  L 1804.85007764875 650.026838793864  Z M 1808.5446146788 651.564266046942  C 1807.62162006927 651.178374179152  1806.69814471713 650.793633182992  1805.77419077497 650.41004395528  L 1805.39076094096 651.333613964751  C 1806.313947257 651.71688450438  1807.23665538111 652.101305855758  1808.15888316154 652.486877122418  L 1808.5446146788 651.564266046942  Z M 1812.23401996549 653.113967649039  C 1811.31231339189 652.72500932913  1810.39012225159 652.337200275974  1809.46744869531 651.950541394022  L 1809.08095048253 652.872831549838  C 1810.00285747662 653.259169193501  1810.92428245544 653.646656052756  1811.84522327024 654.03529122399  L 1812.23401996549 653.113967649039  Z M 1815.9182527299 654.675926471344  C 1814.99784437965 654.283905998382  1814.07694764452 653.893033174833  1813.15556467223 653.503308912293  L 1812.76600235262 654.424309020405  C 1813.68661983495 654.81370949792  1814.606751484 655.204257582172  1815.52639515402 655.595952362406  L 1815.9182527299 654.675926471344  Z M 1819.59727225032 656.250125249568  C 1818.67817229646 655.855046956463  1817.75858014553 655.461114682991  1816.83849794106 655.068329347393  L 1816.44587582045 655.98802922801  C 1817.36519361565 656.380488235428  1818.28402176435 656.774093227795  1819.202358125 657.168843287718  L 1819.59727225032 656.250125249568  Z M 1823.27103786263 657.836546584132  C 1822.35325646416 657.438414837756  1821.43497906127 657.041427468321  1820.51620779445 656.645585401193  L 1820.12053021248 657.563974888897  C 1821.03853815898 657.959488088214  1821.95605265231 658.356145638517  1822.87307155284 658.753946614804  L 1823.27103786263 657.836546584132  Z M 1826.9395089608 659.435172940363  C 1826.02305626211 659.033992141338  1825.10610375659 658.633954063667  1824.18865358276 658.235059640322  L 1823.78992491284 659.152128584179  C 1824.70661286411 659.55069160388  1825.62280356043 659.95039732771  1826.53849486526 660.351244823559  L 1826.9395089608 659.435172940363  Z M 1830.60264499731 661.045986648687  C 1829.68753112756 660.641761231087  1828.77191365521 660.238676867121  1827.85579471455 659.836734496365  L 1827.45401936383 660.752472760034  C 1828.36937718773 661.154081194814  1829.28423396041 661.556830674234  1830.19858754843 661.960720259088  L 1830.60264499731 661.045986648687  Z M 1834.26040548363 662.668969904821  C 1833.34664055773 662.261704336624  1832.43236823847 661.855578141478  1831.51759065701 661.45059226605  L 1831.11277306628 662.364989727902  C 1832.0267906454 662.769639138791  1832.94030338255 663.175427922223  1833.85330914743 663.582355131901  L 1834.26040548363 662.668969904821  Z M 1837.91274999062 664.304104769975  C 1837.00034410858 663.89380355276  1836.08742704746 663.484640015167  1835.17400093639 663.076615111451  L 1834.76614558011 663.989661664674  C 1835.67881281183 664.397347579094  1836.59097141641 664.806171181364  1837.50261926672 665.21613151811  L 1837.91274999062 664.304104769975  Z M 1841.55963814901 665.951373171045  C 1840.64860139524 665.538040839691  1839.73704968348 665.125844482464  1838.8249851385 664.714785060179  L 1838.41409652467 665.626470612894  C 1839.32540332131 666.037188524704  1840.23619771126 666.449042427095  1841.14647757058 666.862031359628  L 1841.55963814901 665.951373171045  Z M 1845.20102964984 667.610756900818  C 1844.2913720944 667.194398024047  1843.38119580658 666.77917340284  1842.4705029091 666.365084005586  L 1842.05658557927 667.275398480956  C 1842.96652186836 667.689143850586  1843.87594197632 668.104023500717  1844.78484378353 668.520036464368  L 1845.20102964984 667.610756900818  Z M 1848.83688424491 669.282237618169  C 1847.92861594202 668.862856797899  1847.01982513868 668.444608502349  1846.11051395437 668.02749370696  L 1845.69357248356 668.936427043304  C 1846.60212820741 669.353195297552  1847.51016398196 669.771096109939  1848.41767769082 670.190128506442  L 1848.83688424491 669.282237618169  Z M 1852.46716174721 670.965796848264  C 1851.56029273576 670.543398719815  1850.65289746211 670.122131372983  1849.74497804138 669.701995789731  L 1849.32501703803 670.609537940631  C 1850.23218215439 671.02932447297  1851.13882355904 671.450241828566  1852.04493913882 671.872289026368  L 1852.46716174721 670.965796848264  Z M 1856.09182203138 672.661415982769  C 1855.18636233515 672.236005214981  1854.28037262024 671.811723472952  1853.37385499849 671.388571745671  L 1852.95087910441 672.294712680089  C 1853.85664358642 672.717512850628  1854.76188060008 673.141442097045  1855.6665880355 673.566499431268  L 1856.09182203138 672.661415982769  Z M 1859.71082503415 674.36907628005  C 1858.80678466135 673.940657575066  1857.90221051868 673.513366127238  1856.9971047158 673.0872029331  L 1856.57111860614 673.991932635484  C 1857.47547244222 674.417741770936  1858.3792950597 674.844678222673  1859.28258435088 675.272740995081  L 1859.71082503415 674.36907628005  Z M 1863.32413075477 676.088758865381  C 1862.42151969736 675.657336958325  1861.51837112591 675.227040527894  1860.61468714565 674.797870577093  L 1860.18569552882 675.701179047489  C 1861.08862872336 676.129992441485  1861.99102695436 676.559931379447  1862.89288811744 676.990994858762  L 1863.32413075477 676.088758865381  Z M 1866.93169925547 677.820444731158  C 1866.03052749017 677.386024390613  1865.12881447205 676.952727733456  1864.22656230299 676.520555769685  L 1863.79456992062 677.422433023848  C 1864.69607249352 677.854245936725  1865.59703636386 678.28718260881  1866.4974594306 678.721242030497  L 1866.93169925547 677.820444731158  Z M 1870.53349066188 679.564114737101  C 1869.63376814932 679.126700764704  1868.73350065115 678.690408670037  1867.83269026585 678.255239470083  L 1867.39770189275 679.155675539587  C 1868.29776387972 679.590483198528  1869.19728343107 680.026412819497  1870.09625844911 680.46346338591  L 1870.53349066188 679.564114737101  Z M 1874.12946516351 681.319749610472  C 1873.2312018483 680.879346840948  1872.3323898207 680.440064131097  1871.4330311758 680.001902504871  L 1870.99505161988 680.900887437221  C 1871.89366307257 681.338685036308  1872.79172836255 681.777602787843  1873.68924539555 682.217639668274  L 1874.12946516351 681.319749610472  Z M 1877.71958301414 683.087329946284  C 1876.82278882495 682.643943247485  1875.92544220209 682.201674777647  1875.02754523837 681.760525568231  L 1874.5865793406 682.658049426969  C 1875.48373032667 683.098832127237  1876.38033142901 683.540733157992  1877.27638055674 683.983751488724  L 1877.71958301414 683.087329946284  Z M 1881.30380453229 684.866836207519  C 1880.40848938099 684.420470480004  1879.51261808197 683.975221138926  1878.61619272348 683.531089222147  L 1878.17224535785 684.427142086966  C 1879.06792596112 684.870905016456  1879.9630529657 685.315784442109  1880.85762428414 685.761779326474  L 1881.30380453229 684.866836207519  Z M 1884.88209010166 686.658248725341  C 1883.98826388433 686.208908902869  1883.09387781081 685.760683611698  1882.19893396591 685.313573896627  L 1881.75201003935 686.208145863478  C 1882.64621036008 686.654884117381  1883.53985337271 687.102737020508  1884.43293699439 687.551703529027  L 1884.88209010166 686.658248725341  Z M 1888.45440017155 688.461547699314  C 1887.56207276781 688.00923874852  1886.66918180506 687.558042461292  1885.77572936571 687.107959889913  L 1885.32583381807 688.001041071116  C 1886.21854397249 688.450749711554  1887.11069311613 688.901571142232  1888.00227916963 689.353504312399  L 1888.45440017155 688.461547699314  Z M 1892.02069525731 690.276713197622  C 1891.12987652966 689.821440117678  1890.23849054751 689.367277821827  1889.34653938866 688.914227368705  L 1888.89367719263 689.805807893056  C 1889.78488731345 690.258481949319  1890.67553272757 690.712266924819  1891.56561135802 691.167161761332  L 1892.02069525731 690.276713197622  Z M 1895.58093594077 692.103725157289  C 1894.6916357356 691.64549298041  1893.80176458615 691.188369695592  1892.91132456669 690.732356368375  L 1892.45550072773 691.62242638126  C 1893.34520096462 692.078060850045  1894.23433280458 692.534804354506  1895.12289417415 692.99265582952  L 1895.58093594077 692.103725157289  Z M 1899.13508287069 693.942563384398  C 1898.24731101759 693.481377175509  1897.3589645362 693.021297954106  1896.47004549833 692.562326793192  L 1896.01126505465 693.450876456689  C 1896.89944557396 693.909466301977  1897.78705401183 694.369163286834  1898.67408829946 694.829966339824  L 1899.13508287069 693.942563384398  Z M 1902.68330167591 695.793885655134  C 1902.53288567305 695.714919982553  1902.38245295102 695.635986153976  1902.23200352589 695.557084177841  C 1901.49595468907 695.17199997457  1900.75950740261 694.78767784842  1900.02266284911 694.404118416541  L 1899.56093087161 695.291137909534  C 1900.29701657809 695.674302328749  1901.03270550612 696.058228505182  1901.76799647408 696.442915822199  C 1901.91817443512 696.521675510186  1902.068335738 696.60046696142  1902.21848036955 696.67929016899  L 1902.68330167591 695.793885655134  Z M 1906.22329303954 697.65982980499  C 1905.33907133957 697.191873003387  1904.45426656942 696.72501876612  1903.56888079153 696.259268181412  L 1903.10332374122 697.144286052933  C 1903.98797393564 697.609649689441  1904.87204360548 698.076116061826  1905.75553068909 698.543684082292  L 1906.22329303954 697.65982980499  Z M 1909.7570613277 699.53753268631  C 1908.87440028201 699.066638790324  1907.99115250378 698.596845514109  1907.10732005181 698.128153952737  L 1906.63882324691 699.011619143788  C 1907.52192140592 699.479921313581  1908.40443537739 699.949324283146  1909.28636310333 700.41982695784  L 1909.7570613277 699.53753268631  Z M 1913.28456748175 701.426973544892  C 1912.40347684637 700.953147759303  1911.52179582256 700.480420636751  1910.6395264655 700.00879327915  L 1910.16809508429 700.890696024815  C 1911.0496314472 701.361931551858  1911.93057996555 701.834265930109  1912.81093858607 702.307698058674  L 1913.28456748175 701.426973544892  Z M 1916.80577251226 703.328131496797  C 1915.92626202603 702.851379058886  1915.04615750149 702.375723314843  1914.16546099121 701.901165373996  L 1913.69110024441 702.781495926626  C 1914.57106506727 703.25565960217  1915.45043839612 703.730920168798  1916.32921818028 704.207276518207  L 1916.80577251226 703.328131496797  Z M 1920.32063749943 705.240985528576  C 1919.44271688339 704.761311707778  1918.56419858624 704.282732599848  1917.68508465688 703.805249320934  L 1917.20779978759 704.683997950259  C 1918.08618334434 705.161084533484  1918.96397176364 705.639266035251  1919.84116299849 706.118541340447  L 1920.32063749943 705.240985528576  Z M 1923.82912359357 707.165514497504  C 1922.95280255134 706.68292459564  1922.07588019183 706.201427413546  1921.19835856021 705.721024074175  L 1920.71815484384 706.59818106741  C 1921.59494742592 707.078185285189  1922.47114123313 707.559282436569  1923.34673422329 708.041471400233  L 1923.82912359357 707.165514497504  Z M 1927.33119201545 709.101697131812  C 1926.45648023299 708.616196482935  1925.58116350372 708.131786548654  1924.70524386907 707.648468458712  L 1924.22212661329 708.524024120662  C 1925.09731852936 709.006940667423  1925.9719080403 709.490948151059  1926.84589310767 709.976045443472  L 1927.33119201545 709.101697131812  Z M 1930.82680405682 711.049512030924  C 1929.95371120211 710.561106001161  1929.0800097783 710.073788669063  1928.20570182194 709.587561170551  L 1927.71967636665 710.461505823724  C 1928.59325794305 710.947329361702  1929.46623349126 711.434241828074  1930.33860097553 711.922242087366  L 1930.82680405682 711.049512030924  Z M 1934.31592108076 713.008937665695  C 1933.44445680444 712.517631653586  1932.57238034235 712.027412309574  1931.69969372837 711.538280776953  L 1931.21076544559 712.410604761661  C 1932.08272702682 712.899329921161  1932.95407896297 713.389141988238  1933.82481922206 713.880039820656  L 1934.31592108076 713.008937665695  Z M 1937.79850452216 714.979952378643  C 1936.92867845632 714.485751814479  1936.05823659536 713.992635877137  1935.18718096934 713.500605716664  L 1934.69535526318 714.371299391133  C 1935.56568721148 714.862920770289  1936.43540590454 715.355627024191  1937.30450931418 715.849417003855  L 1937.79850452216 714.979952378643  Z M 1941.27451588811 716.962534384195  C 1940.40633764691 716.465444730362  1939.53754000805 715.969437650087  1938.66812499775 715.474514300159  L 1938.17340730435 716.343568040635  C 1939.04210000014 716.838080205671  1939.91017583677 717.333675200324  1940.77763279097 717.830351869487  L 1941.27451588811 716.962534384195  Z M 1944.74391675835 718.956661768924  C 1943.87739593757 718.456688519639  1943.01025212397 717.957795778989  1942.14248733883 717.459984709878  L 1941.64488312629 718.327388910733  C 1942.51192696757 718.824786395614  1943.37835035367 719.32326465363  1944.24415126409 719.822822522333  L 1944.74391675835 718.956661768924  Z M 1948.20666878568 720.962312491793  C 1947.34181496331 720.459461173453  1946.47633455876 719.957688286265  1945.61022959053 719.456995000469  L 1945.10974435886 720.322740074307  C 1945.97512976258 720.823017381518  1946.83989112087 721.324373392816  1947.7040264182 721.826806939667  L 1948.20666878568 720.962312491793  Z M 1951.66273369641 722.979464384397  C 1950.79955643128 722.473740554795  1949.93574900264 721.969093067567  1949.07131342399 721.46552309903  L 1948.56795270503 722.329599476793  C 1949.43167010593 722.832751076679  1950.2947598786 723.336979299991  1951.15722001138 723.842282971501  L 1951.66273369641 722.979464384397  Z M 1955.11207329072 725.008095151209  C 1954.25058212388 724.499504400308  1953.38845721808 723.991987890477  1952.52570058395 723.485546805352  L 1952.01946994134 724.347944936426  C 1952.88150979259 724.853965267561  1953.74291844027 725.361060129876  1954.60369387559 725.869228340832  L 1955.11207329072 725.008095151209  Z M 1958.55464944317 727.048182369826  C 1957.6948538963 726.536730318855  1956.83442104308 726.026350396409  1955.97335288914 725.517043792166  L 1955.46425791823 726.377754144488  C 1956.32461069192 726.886637613947  1957.18432869313 727.39659351015  1958.04340991703 727.907620643886  L 1958.55464944317 727.048182369826  Z M 1961.99042410304 729.099703491219  C 1961.13233367962 728.58539579335  1960.27360238897 728.072158099293  1959.41423223277 727.559991605389  L 1958.90227856058 728.419004665551  C 1959.76093474723 728.930745648658  1960.61895259954 729.44355694222  1961.47633011662 729.957437350367  L 1961.99042410304 729.099703491219  Z M 1965.41935929482 731.162635839977  C 1964.56298347947 730.645478179946  1963.70596324258 730.129388386869  1962.84830058288 729.614367664374  L 1962.33349386801 730.471673937726  C 1963.19044397694 730.986266778221  1964.04675219669 731.501927801052  1964.90241653038 732.018655803703  L 1965.41935929482 731.162635839977  Z M 1968.84141711856 733.236956614565  C 1967.98676537644 732.716954708289  1967.13146566663 732.198018520944  1966.2755199828 731.680149262155  L 1965.75786591541 732.535739272914  C 1966.61310047493 733.053178283123  1967.46768959703 733.571683335421  1968.32163128987 734.091253221303  L 1968.84141711856 733.236956614565  Z M 1972.25655975037 735.322642887569  C 1971.40364152826 734.799802482829  1970.55007179843 734.278025636576  1969.69585255158 733.757313565703  L 1969.17535685327 734.611177857055  C 1970.02886641033 735.131457317632  1970.88172698937 735.652800668588  1971.73393660258 736.175206694801  L 1972.25655975037 735.322642887569  Z M 1975.66474944274 737.419671605953  C 1974.81357416776 736.893998481584  1973.96174385274 736.369386743823  1973.10926048436 735.845837616176  L 1972.58592890817 736.697966750381  C 1973.43770402876 737.221080910583  1974.28882663845 737.745256798018  1975.13929475242 738.270493190314  L 1975.66474944274 737.419671605953  Z M 1979.06594852506 739.528019591315  C 1978.21652560522 738.999519557567  1977.36644412028 738.472078726818  1976.51570605283 737.945698329172  L 1975.98954438312 738.796082887669  C 1976.83957565279 739.322025965636  1977.68895088534 739.849028595633  1978.53766810003 740.377089548696  L 1979.06594852506 739.528019591315  Z M 1982.46011940396 741.647663540139  C 1981.6124582279 741.11634243851  1980.76413496898 740.586078344563  1979.91515160565 740.056872494985  L 1979.38616565807 740.905503078496  C 1980.23444368144 741.434269260993  1981.08206214872 741.964092808606  1981.92901908329 742.494972485792  L 1982.46011940396 741.647663540139  Z M 1985.84722456376 743.778580024057  C 1985.00133450049 743.244443727114  1984.15477884441 742.711362231184  1983.30755956882 742.179336778864  L 1982.77575519025 743.026204007497  C 1983.62227059149 743.557787450196  1984.46812292446 744.090426059078  1985.31331021769 744.624118592699  L 1985.84722456376 743.778580024057  Z M 1989.22722656687 745.920745490104  C 1988.38311696634 745.383799901863  1987.53833826937 744.847906895645  1986.69289244616 744.313067721265  L 1986.15827551461 745.15816223462  C 1987.00301893686 745.692557061722  1987.84709578703 746.228004845075  1988.69050409674 746.764504336019  L 1989.22722656687 745.920745490104  Z M 1992.60008805422 748.074136260983  C 1991.75776824601 747.534387316066  1990.91477584616 746.995688723215  1990.07111281967 746.458041738119  L 1989.53368924425 747.301354195387  C 1990.37665135076 747.838554500351  1991.21894338822 748.376805539663  1992.06056339242 748.916106058127  L 1992.60008805422 748.074136260983  Z M 1995.96577174566 750.238728535321  C 1995.12525104007 749.696182199671  1994.28405425457 749.154683974186  1993.44218334996 748.614235121081  L 1992.9019590708 749.455756201153  C 1993.74313054434 749.995756046318  1994.58362845926 750.536804392315  1995.42345085553 751.078899977424  L 1995.96577174566 750.238728535321  Z M 1999.32424044038 752.414498387937  C 1998.48552812767 751.869160658305  1997.64613625424 751.324868785352  1996.80606677669 750.781624037805  L 1996.26304776488 751.62134443937  C 1997.10241930799 752.164137856132  1997.94111381037 752.70797752862  1998.77912931618 753.252862188606  L 1999.32424044038 752.414498387937  Z M 2002.67545701731 754.601421770104  C 2001.83856236775 754.053298674093  2001.00098468417 753.506219169716  2000.16272591894 752.960184532197  L 1999.61691817644 753.798094973848  C 2000.45448051175 754.343675962838  2001.29136233117 754.890300950546  2002.12756168414 755.437968662926  L 2002.67545701731 754.601421770104  Z M 2006.01938443554 756.799474509816  C 2005.18431669947 756.248572105929  2004.34856246312 755.698711016756  2003.51212367564 755.149892524686  L 2002.96353323526 755.98598374502  C 2003.79927710487 756.53434627572  2004.63433699199 757.083750537268  2005.46871094927 757.634195248459  L 2006.01938443554 756.799474509816  Z M 2009.35598573473 759.008632312052  C 2008.52275414196 758.454956689288  2007.68883259075 757.902320093144  2006.85422302599 757.350723812486  L 2006.30285595128 758.18498657021  C 2007.13677211808 758.73612458181  2007.97000084232 759.288302044193  2008.80254018195 759.841517670372  L 2009.35598573473 759.008632312052  Z M 2012.68522403552 761.228870759051  C 2011.85383779574 760.67242803717  2011.02175814699 760.117022042335  2010.18898702985 759.562654069868  L 2009.63484941505 760.395079143896  C 2010.46692866162 760.94898654457  2011.29831701366 761.503931104812  2012.12901253344 762.059911531187  L 2012.68522403552 761.228870759051  Z M 2016.00706253992 763.460165310575  C 2015.17753084224 762.900961639809  2014.34730229324 762.3427923854  2013.51637882816 761.785658848423  L 2012.95947679815 762.616237037984  C 2013.78970992736 763.172907705292  2014.61924871824 763.730613229836  2015.44809123633 764.289352311054  L 2016.00706253992 763.460165310575  Z M 2019.32146453173 765.702491304184  C 2018.4937965453 765.140532865628  2017.66542827186 764.579606520614  2016.83636164335 764.01971357734  L 2016.27670135355 764.848435702074  C 2017.10507918903 765.407863483264  2017.93275924953 765.968323807577  2018.75973960493 766.529815368025  L 2019.32146453173 765.702491304184  Z M 2022.62839337697 767.955823955508  C 2021.80259824979 767.391116960357  2020.97609940819 766.827439724873  2020.14889877974 766.264793563669  L 2019.58648641606 767.091650463733  C 2020.41299980176 767.653829175464  2021.23881198357 768.217038104793  2022.06392103568 768.781275938319  L 2022.62839337697 767.955823955508  Z M 2025.92781252422 770.22013835852  C 2025.10389938363 769.652689048349  2024.27927910948 769.086267152939  2023.45395362393 768.520873992601  L 2022.88879540271 769.345856528767  C 2023.71343520321 769.910779957293  2024.53737037863 770.476731266503  2025.36059900756 771.043709136603  L 2025.92781252422 770.22013835852  Z M 2029.2196855051 772.495409485812  C 2028.39766345813 771.925224132858  2027.57493086525 771.356063837699  2026.75148964526 770.787929927738  L 2026.18359181316 771.611028981495  C 2027.00634891373 772.178690882733  2027.82839797584 772.74737831638  2028.64973708245 773.317089956261  L 2029.2196855051 772.495409485812  Z M 2032.50397593463 774.781612188873  C 2031.68385406672 774.208697095144  2030.86301824943 773.636804691621  2030.04147039612 773.06593631137  L 2029.47083923011 773.887142785027  C 2030.29170453686 774.457536884624  2031.11185839955 775.02895415702  2031.93129890561 775.601393269675  L 2032.50397593463 774.781612188873  Z M 2035.78064751162 777.078721198364  C 2034.96243488773 776.503082696393  2034.14350491838 775.928464505384  2033.32385951247 775.354867964753  L 2032.75050131972 776.174172781536  C 2033.56946575962 776.747292774942  2034.38771535778 777.321433570226  2035.20524820603 777.8965938285  L 2035.78064751162 777.078721198364  Z M 2039.04966401912 779.3867111244  C 2038.23336968309 778.808355576824  2037.41635461295 778.231017949328  2036.59862071413 777.654699588384  L 2036.02254183195 778.472093692539  C 2036.83959635319 779.047933245192  2037.65593264237 779.624791217164  2038.47154879682 780.202666263945  L 2039.04966401912 779.3867111244  Z M 2042.31098932476 781.705556456829  C 2041.49662229892 781.124490256077  2040.68153115876 780.54443957363  2039.86571780526 779.965405762287  L 2039.28692460103 780.780880119177  C 2040.10206017239 781.3594328661  2040.91647413034 781.939001639241  2041.73016457565 782.519585087053  L 2042.31098932476 781.705556456829  Z M 2045.56458738121 784.035231565514  C 2044.75215666672 783.451461134096  2043.93899846574 782.868703807983  2043.12511467471 782.286960946286  L 2042.54361354583 783.100506542495  C 2043.35682115781 783.681766089078  2044.16930378247 784.264039257192  2044.98105952513 784.847324688979  L 2045.56458738121 784.035231565514  Z M 2048.81042222653 786.375710700618  C 2047.99993680301 785.789242490812  2047.18872052935 785.203784962476  2046.37677529646 784.619339480292  L 2045.79257267024 785.430947323723  C 2046.60384333447 786.01490724532  2047.41438564552 786.599878372555  2048.2241977132 787.18585934128  L 2048.81042222653 786.375710700618  Z M 2052.0484579846 788.726967992885  C 2051.23992681048 788.13780848703  2050.43066143016 787.549657227277  2049.62066373 786.962515584588  L 2049.03376606361 787.77217670456  C 2049.84309081314 788.358830546677  2050.65168385166 788.946493167363  2051.45954329353 789.535163196194  L 2052.0484579846 788.726967992885  Z M 2055.27865886548 791.088977453932  C 2054.47209087745 790.497133163992  2053.66478533526 789.906294673642  2052.8567441207 789.316463360109  L 2052.26715790111 790.124168807459  C 2053.07452779066 790.713510085949  2053.88116261896 791.303857704422  2054.68706050595 791.895210286927  L 2055.27865886548 791.088977453932  Z M 2058.50098916586 793.46171297653  C 2057.69639327889 792.867190444144  2056.89105649795 792.27367125372  2056.08498070025 791.681156788732  L 2055.49271244415 792.486897635913  C 2056.29811854972 793.078919836681  2057.10278625242 793.671945928088  2057.90671367678 794.26597452794  L 2058.50098916586 793.46171297653  Z M 2061.71541326941 795.845148334895  C 2060.91279837683 795.247954131429  2060.10943925818 794.651760800836  2059.30533778705 794.056569733564  L 2058.71039404076 794.860337074743  C 2059.51382746004 795.455033654059  2060.31651914351 796.050731663945  2061.11846721929 796.647429715239  L 2061.71541326941 795.845148334895  Z M 2064.92189564717 798.239257184979  C 2064.12127062011 797.639397911081  2063.31989804359 797.040537030274  2062.51777978657 796.442675939226  L 2061.92016712598 797.244460890384  C 2062.72161897881 797.841825275206  2063.52232577058 798.440188619091  2064.32228563404 799.039549526661  L 2064.92189564717 798.239257184979  Z M 2068.12040085799 800.64401306476  C 2067.32177454573 800.04149535066  2066.52239736888 799.439973538832  2065.72227119176 798.839449032151  L 2065.12199622228 799.63924273118  C 2065.92145765024 800.239268318855  2066.72017070012 800.840290383044  2067.51813350932 801.44230752217  L 2068.12040085799 800.64401306476  Z M 2071.31089354886 803.059389394534  C 2070.5142747786 802.454219899844  2069.71690183693 801.8500438056  2068.91877658348 801.246862520868  L 2068.31584593992 802.044656127669  C 2069.11330810659 802.64733628613  2069.91001858643 803.251010427543  2070.70597552151 803.855677144145  L 2071.31089354886 803.059389394534  Z M 2074.49333845536 805.48535947721  C 2073.69873603194 804.877544890727  2072.90337613911 804.270721192261  2072.10726063084 803.664889796298  L 2071.50168097738 804.460674492881  C 2072.29713506842 805.066002560719  2073.09183417219 805.672322106961  2073.88577643546 806.279631717675  L 2074.49333845536 805.48535947721  Z M 2077.66770040201 807.921896498605  C 2076.87512310848 807.311443538738  2076.08178505493 806.701978942754  2075.28768809159 806.093504132052  L 2074.67946612169 806.887271122627  C 2075.47290334498 807.495240409168  2076.2655822889 808.104198658605  2077.05750110493 808.714144450853  L 2077.66770040201 807.921896498605  Z M 2080.83394430267 810.368973527739  C 2080.04340089919 809.755888941684  2079.252093454 809.143790184829  2078.46002381257 808.532678684716  L 2077.84916624889 809.3244191958  C 2078.64057783457 809.935022981175  2079.43122785718 810.546613203007  2080.22111447292 811.159188435074  L 2080.83394430267 810.368973527739  Z M 2083.99203516092 812.826563517134  C 2083.2035343852 812.210854081171  2082.41426629498 811.596127929211  2081.62423273003 810.982386494161  L 2081.01074632436 811.772091774665  C 2081.80012352515 812.385323310013  2082.58873588709 812.999538744096  2083.3765815721 813.614736645331  L 2083.99203516092 812.826563517134  Z M 2087.14193807048 815.294639303112  C 2086.35548863795 814.676311822788  2085.56826862614 814.058965070022  2084.78027987004 813.442600483829  L 2084.16417140323 814.230261805162  C 2084.95150549385 814.846114312197  2085.73807147925 815.462948170132  2086.52386752518 816.080761940515  L 2087.14193807048 815.294639303112  Z M 2090.28361821554 817.773173606097  C 2089.49922881897 817.152234915898  2088.71406558637 816.532274385586  2087.92813034891 815.91329346104  L 2087.30940663079 816.698902117202  C 2088.09468890901 817.31736878905  2088.87919982366 817.936814252734  2089.66293754528 818.557237063713  L 2090.28361821554 817.773173606097  Z M 2093.4170408712 820.262139030914  C 2092.63472018027 819.638595993931  2091.85162240559 819.016028538737  2091.06774937353 818.394438117289  L 2090.44641724284 819.177985424968  C 2091.22963902895 819.799059425734  2092.01208620167 820.421109648453  2092.79375693635 821.04413464251  L 2093.4170408712 820.262139030914  Z M 2096.54217140383 822.761508067094  C 2095.76192806549 822.135367575331  2094.9809044043 821.510200076477  2094.19910224176 820.88600702855  L 2093.57516856606 821.667484327219  C 2094.35632120314 822.291158792187  2095.13669598557 822.915806898436  2095.91629109352 823.541427189293  L 2096.54217140383 822.761508067094  Z M 2099.65897527143 825.271253089176  C 2098.88081790955 824.642522063219  2098.10187699479 824.014761430923  2097.32215434285 823.387972655578  L 2096.69562601847 824.167371307588  C 2097.47470087262 824.79363934343  2098.25299463897 825.420878428731  2099.03050550351 826.049087101553  L 2099.65897527143 825.271253089176  Z M 2102.76686324423 827.792485242415  C 2102.2832041681 827.398573607653  2101.7992720152 827.00499738578  2101.31506713401 826.611756860207  C 2101.02244649854 826.374469598297  2100.72971447454 826.137319733768  2100.43687115779 825.900307344211  L 2099.80775510973 826.67761873489  C 2100.10025885459 826.914356292341  2100.39265147381 827.151231121366  2100.68493286883 827.388243142134  C 2101.16868266156 827.781114294932  2101.65216003693 828.174320762373  2102.13536464573 828.567862260445  L 2102.76686324423 827.792485242415  Z M 2105.86576975038 830.324012547875  C 2105.09198198315 829.689982435984  2104.31748939956 829.056812989063  2103.54229343644 828.424505381752  L 2102.91022018736 829.199414026561  C 2103.68484167358 829.831253047686  2104.45876030125 830.463953269525  2105.23197463515 831.097513518728  L 2105.86576975038 830.324012547875  Z M 2108.95715567204 832.864718181262  C 2108.18525145208 832.228396276651  2107.41263986617 831.592932942779  2106.63932234861 830.958329359327  L 2106.00495397424 831.731360254957  C 2106.77769840696 832.365493550736  2107.54973743091 833.000485959589  2108.32106961339 833.636336303126  L 2108.95715567204 832.864718181262  Z M 2112.04099382498 835.414579800777  C 2111.27097993973 834.775971698706  2110.50025614614 834.13822006638  2109.72882387402 833.501326086939  L 2109.09216595271 834.272472435711  C 2109.86302653708 834.908894430128  2110.63317916772 835.546173441637  2111.40262241635 836.184308288394  L 2112.04099382498 835.414579800777  Z M 2115.11725709133 837.973574984102  C 2114.34914031211 837.33268630033  2113.5803110879 836.692651977384  2112.81077084501 836.053473202639  L 2112.17182897523 836.822728223444  C 2112.94079893235 837.461433319833  2113.70905839793 838.100993330585  2114.47660594627 838.741407068833  L 2115.11725709133 837.973574984102  Z M 2118.18591841984 840.541681228606  C 2117.41970550112 839.898517598814  2116.65277760702 839.256206213417  2115.88513616035 838.614748264013  L 2115.24391596066 839.382105192376  C 2116.01098852887 840.023087774521  2116.77734807304 840.664923159989  2117.54299317195 841.307610158487  L 2118.18591841984 840.541681228606  Z M 2121.24695082611 843.118875951539  C 2120.48264850561 842.473443031414  2119.71762868565 841.828860231758  2118.95189278547 841.185128748383  L 2118.30839989447 841.950580836517  C 2119.07356832834 842.593835267779  2119.8380212124 843.237940384221  2120.60175712898 843.882894991342  L 2121.24695082611 843.118875951539  Z M 2124.30032739283 845.70513649023  C 2123.53794239131 845.057439955281  2122.77483737303 844.410591409798  2122.01101375273 843.764592052998  L 2121.365253829 844.528132569869  C 2122.12851139997 845.173653193762  2122.89105090168 845.820022377213  2123.65287091999 846.467238921522  L 2124.30032739283 845.70513649023  Z M 2127.34602126999 848.300440102289  C 2126.58556029169 847.650485648194  2125.82437678517 847.00137704471  2125.06247216161 846.35311549524  L 2124.41445088367 847.114737726623  C 2125.17579088002 847.762518866734  2125.93641029395 848.411146433319  2126.69630771489 849.06061922349  L 2127.34602126999 848.300440102289  Z M 2130.38400567517 850.904763965804  C 2129.62547540738 850.252557308101  2128.8662201058 849.601194354309  2128.10624117899 848.950676312819  L 2127.45596424524 849.710373561356  C 2128.21537997208 850.360409521395  2128.97407260969 851.011289767381  2129.73204075107 851.663013092246  L 2130.38400567517 850.904763965804  Z M 2133.41425389371 853.518085179544  C 2132.65766100645 852.863632053305  2131.90034058667 852.21002047726  2131.14229403935 851.557251663975  L 2130.48976716803 852.315017249236  C 2131.24725194741 852.967302313085  2132.00401113711 853.620429514928  2132.76004333371 854.274397643532  L 2133.41425389371 853.518085179544  Z M 2136.43673927901 856.140380763158  C 2135.6820904254 855.483686923344  2134.92671154695 854.827832472608  2134.17060404504 854.172818627677  L 2133.51583297417 854.928645886219  C 2134.27138014512 855.583174317981  2135.02619923232 856.23854273238  2135.78028883593 856.894749914026  L 2136.43673927901 856.140380763158  Z M 2139.4514352527 858.77162765738  C 2138.69873706878 858.112698878656  2137.94530637413 857.454607320513  2137.19114456648 856.797354203828  L 2136.53413505382 857.551236489251  C 2137.28773797241 858.208002533303  2138.04061031956 858.865606397249  2138.79275069907 859.524046861552  L 2139.4514352527 858.77162765738  Z M 2142.45831530494 861.41180272423  C 2141.70757440975 860.75064480105  2140.9560985239 860.090321922183  2140.20388904243 859.430835313463  L 2139.54464686542 860.182765996472  C 2140.29629890464 860.841763877378  2141.04721789165 861.501597408476  2141.79740243293 862.162265365276  L 2142.45831530494 861.41180272423  Z M 2145.4573529946 864.060882747217  C 2144.7085759895 863.397501493228  2143.9590615212 862.73495310076  2143.20881098019 862.073238798955  L 2142.5473419359 862.823211267417  C 2143.29703648639 863.484435190524  2144.0459955094 864.146492585953  2144.79421761596 864.809382225911  L 2145.4573529946 864.060882747217  Z M 2148.44852194951 866.718844431544  C 2147.70171541921 866.053245680492  2146.95416895874 865.388477600021  2146.20588395585 864.724541424219  L 2145.54219386094 865.472549083218  C 2146.28992433007 866.135993233889  2147.03691680338 866.800268672094  2147.78316989556 867.465374165926  L 2148.44852194951 866.718844431544  Z M 2151.4317958667 869.385664404314  C 2150.68696637797 868.717854008894  2149.94139449953 868.050872086637  2149.19508161453 867.384719874912  L 2148.52917630518 868.130756146812  C 2149.2749361176 868.796414690885  2150.01995547281 869.462902330808  2150.76423298825 870.130217829742  L 2151.4317958667 869.385664404314  Z M 2154.40714851263 872.061319214733  C 2153.66430261532 871.3913030475  2152.9207118748 870.722113148316  2152.17637767058 870.053750758645  L 2151.50826300247 870.797809083144  C 2152.25204560045 871.465676167261  2152.9950852859 872.134370147838  2153.73738067991 872.803889783945  L 2154.40714851263 872.061319214733  Z M 2157.37455372341 874.745785334317  C 2156.63369794991 874.073569287227  2155.89209488582 873.402177295387  2155.14974590786 872.73161060518  L 2154.47942775608 873.473684439371  C 2155.2212265993 874.143754190752  2155.96228008073 874.814648631519  2156.70258682606 875.486366517489  L 2157.37455372341 874.745785334317  Z M 2160.33398540504 877.439039157102  C 2159.59512626979 876.764629141036  2158.85551740406 876.09104096101  2158.11516017993 875.418275866646  L 2157.44264443895 876.158358685071  C 2158.18245300422 876.830625211291  2158.92151376544 877.503714212985  2159.65982535202 878.1776244419  L 2160.33398540504 877.439039157102  Z M 2163.28541753363 880.141056999845  C 2162.54856153398 879.464458945396  2161.81095337007 878.788680500131  2161.0725944103 878.113722917738  L 2160.3978869939 878.851808212447  C 2161.13569877568 879.526265601903  2161.87276031774 880.201543245688  2162.6090702532 880.87763989149  L 2163.28541753363 880.141056999845  Z M 2166.22882415563 882.85181510224  C 2165.49397777115 882.173034959101  2164.75837679526 881.495072191084  2164.02202259263 880.817928055929  L 2163.3451294339 881.554009336538  C 2164.08093794405 882.230651658221  2164.81599378588 882.908112006295  2165.55029559529 883.586389123559  L 2166.22882415563 882.85181510224  Z M 2169.16417938808 885.57128962712  C 2168.43134908052 884.890333364033  2167.69776176149 884.210192235239  2166.96341879102 883.530867501677  L 2166.28434584223 884.264938295425  C 2167.01814461071 884.943759599531  2167.75118828794 885.623396694057  2168.48347551449 886.303848318605  L 2169.16417938808 885.57128962712  Z M 2172.09145741882 888.299456660674  C 2171.3606496325 887.616330265795  2170.62908242085 886.934016756793  2169.89675714016 886.252517398635  L 2169.21551037278 886.984571250439  C 2169.94729294673 887.665565567586  2170.67831801362 888.347373432426  2171.40858421777 889.029993580539  L 2172.09145741882 888.299456660674  Z M 2175.01063250668 891.036292212647  C 2174.28185366815 890.35100169322  2173.55231299666 889.666521803681  2172.82201184563 888.982853813861  L 2172.13859725023 889.712884286375  C 2172.86835719469 890.396045628209  2173.59735722295 891.080018267858  2174.32559598305 891.764800936886  L 2175.01063250668 891.036292212647  Z M 2177.92167898179 893.781772216563  C 2177.19493549945 893.094323598576  2176.46742778365 892.407683347785  2175.73915718407 891.721852738025  L 2175.05358077028 892.449853411695  C 2175.78131166794 893.135175770667  2176.50828024736 893.821307170867  2177.23448515948 894.508246339003  L 2177.92167898179 893.781772216563  Z M 2180.82457124574 896.535872529927  C 2180.09986951008 895.846271858347  2179.37440114765 895.157477284587  2178.64816750344 894.469490085627  L 2177.96043529992 895.195454558748  C 2178.68613075173 895.88293190873  2179.41106148909 896.571216035388  2180.13522616762 897.260305662288  L 2180.82457124574 896.535872529927  Z M 2183.71928377182 899.298568934442  C 2182.99663015583 898.606822273587  2182.27320752562 897.915879433233  2181.54901722325 897.2257416952  L 2180.85913527758 897.949663583974  C 2181.58278890197 898.639289879464  2182.30567542287 899.329720680407  2183.02779349967 900.02095470639  L 2183.71928377182 899.298568934442  Z M 2186.60579110526 902.069837136221  C 2185.88519196348 901.375950568851  2185.16382142722 900.682865538023  2184.44168083474 899.990583329531  L 2183.74965521344 900.71245626812  C 2184.47126064692 901.40422544486  2185.19209659462 902.096796848756  2185.91216171972 902.790169195427  L 2186.60579110526 902.069837136221  Z M 2189.48406786342 904.849652766  C 2188.76552953248 904.153632393837  2188.04621743357 903.458411267207  2187.32613290115 902.763990675868  L 2186.63196968958 903.483808316452  C 2187.35152058654 904.177714291197  2188.07029962263 904.872420208179  2188.78830546397 905.567924778193  L 2189.48406786342 904.849652766  Z M 2192.35408873607 907.637991379355  C 2191.63761753446 906.939843322881  2190.92037019821 906.242492213906  2190.20234805794 905.545939346138  L 2189.50605336024 906.263695358969  C 2190.22354339343 906.959732029971  2190.94025919701 907.656566350826  2191.65619944091 908.35419702838  L 2192.35408873607 907.637991379355  Z M 2195.21582848556 910.434828456911  C 2194.50143071344 909.734558855177  2193.78625444729 909.035083896332  2193.07030101299 908.336404877156  L 2192.37188095206 909.052092950619  C 2193.08730381235 909.750254197393  2193.80195008064 910.44921079419  2194.51581843161 911.148961444783  L 2195.21582848556 910.434828456911  Z M 2198.06926194705 913.240139404564  C 2197.35694388666 912.537754415565  2196.64384497924 911.836161757424  2195.92996654683 911.135362730849  L 2195.22942726426 911.848976571508  C 2195.94277666039 912.549256254601  2196.65534710942 913.250328981324  2197.36713728988 913.952193451526  L 2198.06926194705 913.240139404564  Z M 2200.91436402875 916.053899553695  C 2200.20413194405 915.349405354028  2199.49311666573 914.645701165785  2198.78131951287 913.94278829446  L 2198.07866716888 914.654321627123  C 2198.789936828 915.356713588597  2199.50042519175 916.059896280333  2200.21013094253 916.763868398269  L 2200.91436402875 916.053899553695  Z M 2203.75110971215 918.876084161384  C 2203.04296984844 918.169486945904  2202.33404445187 917.463677415901  2201.62433483762 916.758656880777  L 2200.91957561101 917.468103448545  C 2201.62875927838 918.17260151174  2202.33715930944 918.877887985315  2203.04477438957 919.583961560429  L 2203.75110971215 918.876084161384  Z M 2206.5794740522 921.706668410634  C 2205.87343263653 920.997974392832  2205.16660335567 920.290065727636  2204.4589875209 919.582943728339  L 2203.75212760901 920.290297292665  C 2204.45921904854 920.996895262693  2205.16552451727 921.704279315849  2205.87104270446 922.4124481394  L 2206.5794740522 921.706668410634  Z M 2209.39943217756 924.545627410582  C 2208.69549541854 923.83484282239  2207.99076846892 923.124841247024  2207.28525263608 922.415624001662  L 2206.57629825471 923.120878342402  C 2207.28129124857 923.829570005764  2207.98549594403 924.53904541809  2208.68891103428 925.249303262766  L 2209.39943217756 924.545627410582  Z M 2212.21095929081 927.392936196723  C 2211.50913337854 926.680067288454  2210.8065149572 925.967979046348  2210.10310533028 925.256672791453  L 2209.39206271364 925.959821706923  C 2210.09495106259 926.670600831856  2210.79704879205 927.382161364255  2211.49835459998 928.094501984521  L 2212.21095929081 927.392936196723  Z M 2215.01403066866 930.248569731127  C 2214.31432177468 929.533622771424  2213.61381806014 928.819454124356  2212.91252082459 928.106065114829  L 2212.19939622527 928.807102421859  C 2212.90017374827 929.519962757951  2213.6001583381 930.233602153579  2214.29934869661 930.948019285291  L 2215.01403066866 930.248569731127  Z M 2217.8086216622 933.112502902661  C 2217.11103593942 932.395484178441  2216.41265309158 931.679241406481  2215.71347441429 930.963775915539  L 2214.99827410318 931.662695449529  C 2215.69693463779 932.377630728063  2216.39479993292 933.0933427118  2217.09186869351 933.809830072552  L 2217.8086216622 933.112502902661  Z M 2220.59470769706 935.984710527207  C 2219.89925127974 935.265626343603  2219.20299543986 934.547315745065  2218.50594146909 933.829780064182  L 2217.78867173533 934.526575679154  C 2218.48520913813 935.243579613614  2219.18094900128 935.961357891222  2219.87589003453 936.679909180849  L 2220.59470769706 935.984710527207  Z M 2223.37226427369 938.865167347887  C 2222.67894327735 938.144024028197  2221.98482056798 937.423651919574  2221.2898974333 936.704052358432  L 2220.57056458424 937.398717927083  C 2221.26497273005 938.117784212316  2221.95858104349 938.837622472279  2222.65138823827 939.558231372022  L 2223.37226427369 938.865167347887  Z M 2226.14126696752 941.753848035283  C 2225.45008748876 941.030651920762  2224.75810401398 940.308224636974  2224.06531782609 939.586567523252  L 2223.34392818722 940.279096937012  C 2224.03620096959 941.00021924973  2224.72767163433 941.722111162419  2225.41833889826 942.444771335423  L 2226.14126696752 941.753848035283  Z M 2228.90169142921 944.65072718766  C 2228.21265954623 943.925484638062  2227.52282139047 943.201008531207  2226.8321782417 942.477300211126  L 2226.10873815657 943.167687380209  C 2226.79886948826 943.89085937949  2227.48819642326 944.614798596319  2228.17671768321 945.339503688141  L 2228.90169142921 944.65072718766  Z M 2231.65351338485 947.555779331188  C 2230.9666351564 946.828496723664  2230.27894838635 946.101978165053  2229.5904543496 945.376225002274  L 2228.86497017982 946.064463855729  C 2229.55295399185 946.789679182031  2230.24013113605 947.515659337611  2230.9265003372 948.242402975226  L 2231.65351338485 947.555779331188  Z M 2234.39670863618 950.46897892017  C 2233.71199010264 949.739662650411  2233.02646076492 949.011108028114  2232.34012189479 948.283316404877  L 2231.61260001994 948.969400890649  C 2232.29843026277 949.696653167061  2232.98345157288 950.424667876852  2233.6676626799 951.153443669911  L 2234.39670863618 950.46897892017  Z M 2237.1312530608 953.390300337262  C 2236.44870024313 952.658956818391  2235.76533436626 951.928372539285  2235.08115669795 951.198548855306  L 2234.35160351552 951.882472940282  C 2235.03527415813 952.611755771529  2235.71813361068 953.341798634005  2236.40018060679 954.072600173836  L 2237.1312530608 953.390300337262  Z M 2239.85712261237 956.319717893702  C 2239.17674151248 955.586353556667  2238.49554510595 954.853746045478  2237.81353465567 954.121896718342  L 2237.08195658102 954.803654388406  C 2237.76346161153 955.53496136151  2238.44415320176 956.267025957008  2239.12403008934 956.999846817277  L 2239.85712261237 956.319717893702  Z M 2242.57429332085 959.257205829534  C 2241.89608992198 958.521827123508  2241.21706897536 957.787202821845  2240.53723174068 957.053334287402  L 2239.80363520697 957.732919547489  C 2240.48296863253 958.466244231671  2241.16148637474 959.20032412275  2241.83918717528 959.935157859367  L 2242.57429332085 959.257205829534  Z M 2245.28274129268 962.202738313831  C 2244.60672155851 961.465351705247  2243.92988204307 960.728717073364  2243.25222400202 959.992835784766  L 2242.51661546016 960.670242658915  C 2243.19377130704 961.405578605653  2243.87010923466 962.141667337152  2244.54562798876 962.878507488324  L 2245.28274129268 962.202738313831  Z M 2247.98244271101 965.156289444933  C 2247.30861258614 964.416901418031  2246.63396045371 963.678262933553  2245.95848756531 962.940375361804  L 2245.2208734839 963.615597893209  C 2245.89584579735 964.352938636144  2246.56999796326 965.091029735539  2247.24332873058 965.829869821679  L 2247.98244271101 965.156289444933  Z M 2250.6733738359 968.117833250662  C 2250.00173924569 967.376450307281  2249.32928042884 966.635814465458  2248.65599863289 965.895927099203  L 2247.91638549818 966.568959350266  C 2248.58916834294 967.308298405713  2249.26112881867 968.048385382266  2249.93226567839 968.789218906505  L 2250.6733738359 968.117833250662  Z M 2253.35551100454 971.087343688558  C 2252.68607785503 970.343972348081  2252.01581826706 969.601345661725  2251.34473348409 968.859465007195  L 2250.6031277999 969.530301059579  C 2251.27371525996 970.271631926281  2251.94347813633 971.013708271698  2252.61241518691 971.756528719639  L 2253.35551100454 971.087343688558  Z M 2256.02883063144 974.064794646105  C 2255.36160480918 973.319441445245  2254.69355034433 972.574830444984  2254.02466847541 971.830963025783  L 2253.28107676307 972.499596980463  C 2253.94946294147 973.242913139344  2254.61702232915 973.986972328452  2255.28375368814 974.731773167919  L 2256.02883063144 974.064794646105  Z M 2258.69330920865 977.050159940965  C 2258.0282965812 976.302831434324  2257.36245311347 975.556242667311  2256.69578004072 974.810395024976  L 2255.95020883905 975.476821002291  C 2256.61638785829 976.222115916969  2257.28173788709 976.968151406852  2257.94625769154 977.714926088407  L 2258.69330920865 977.050159940965  Z M 2261.34892330596 980.043413321201  C 2260.686129721 979.294116080291  2260.0225031058 978.545556111991  2259.3580446915 977.797734805012  L 2258.6105005567 978.461946944718  C 2259.27446655872 979.20921406141  2259.93760137784 979.957219291773  2260.59990378428 980.705961248622  L 2261.34892330596 980.043413321201  Z M 2263.99564957113 983.044528465514  C 2263.33508085696 982.293269079311  2262.67367692991 981.542744492219  2262.011439017 980.792956096594  L 2261.26192852264 981.454948557912  C 2261.92367566882 982.204181305494  2262.58458944696 982.954149698723  2263.2446686314 983.704852346771  L 2263.99564957113 983.044528465514  Z M 2266.63346473006 986.053478983472  C 2265.97512669541 985.300264058206  2265.3159512726 984.547781452092  2264.6559396845 983.796032561116  L 2263.90446942142 984.455799522789  C 2264.56399189266 985.206991312851  2265.22267881805 985.958916274066  2265.88052897606 986.711573011979  L 2266.63346473006 986.053478983472  Z M 2269.262345587 989.070238415741  C 2268.606244021 988.315074574841  2267.94930289891 987.560640566692  2267.29152343946 986.806937790901  L 2266.53810001576 987.464473451239  C 2267.19539201252 988.217617678144  2267.85184629297 988.971492595262  2268.50746163971 989.726096804521  L 2269.262345587 989.070238415741  Z M 2271.21876553296 991.327090778525  C 2270.78560115951 990.826289924039  2270.35206823281 990.325807965208  2269.91816710577 989.825645309425  L 2269.1627971467 990.480943886361  C 2269.81785288905 991.236033927304  2270.47206875201 991.991852171094  2271.12544352231 992.748397216055  L 2271.21876553296 991.327090778525  Z M 1441.03554029283 559.802953088745  C 1440.04030883114 559.701681033467  1439.04496506024 559.601515728802  1438.04951082664 559.502457360575  L 1437.95048917336 560.497542639425  C 1438.94520570256 560.596527598155  1439.93981185061 560.69661867297  1440.93430577298 560.797815678247  L 1441.03554029283 559.802953088745  Z M 2265.1498239394 996.518193685501  L 2278 1000  L 2276.54696271915 986.766002770877  L 2265.1498239394 996.518193685501  Z " fill-rule="nonzero" fill="#1f8aee" stroke="none" />
  </g>
</svg>