<?xml version="1.0" encoding="utf-8"?>
<svg version="1.1" xmlns:xlink="http://www.w3.org/1999/xlink" width="170px" height="16px" viewBox="1182 912  170 16" xmlns="http://www.w3.org/2000/svg">
  <g transform="matrix(-0.0523359562429421 -0.998629534754577 0.998629534754574 -0.0523359562429426 414.5704845856 2233.41270027756 )">
    <path d="M 1217.88110766192 690.851510590913  C 1217.39532727537 689.976164525038  1216.90664610537 689.102431418731  1216.41507220909 688.230325677723  L 1215.54392999304 688.721356470461  C 1216.0344185818 689.591536757481  1216.52202083093 690.463340816911  1217.006728701 691.336754274741  L 1217.88110766192 690.851510590913  Z M 1219.80872427907 694.36143558374  C 1219.33070175215 693.48182897695  1218.84976429505 692.603809620997  1218.36591983734 691.727391992416  L 1217.49047049758 692.210701886286  C 1217.97324671301 693.085184541024  1218.45312234595 693.96126538678  1218.93008948437 694.838929979031  L 1219.80872427907 694.36143558374  Z M 1221.70523455571 697.888265328513  C 1221.23500725236 697.004466934001  1220.76185109999 696.122229957594  1220.28577389985 695.241568945369  L 1219.40608586464 695.717120163133  C 1219.88111197122 696.595836832881  1220.35322347917 697.476125987336  1220.82241260447 698.357973112591  L 1221.70523455571 697.888265328513  Z M 1223.57049025376 701.431724155546  C 1223.10809492864 700.543803054146  1222.6427570646 699.657417416145  1222.17448433392 698.772581855883  L 1221.29062636285 699.240337226749  C 1221.75786523081 700.12321922783  1222.22217571187 701.007647884466  1222.68355015054 701.89360861436  L 1223.57049025376 701.431724155546  Z M 1225.40434557814 704.991535095359  C 1224.94981837375 704.099560690223  1224.49233517047 703.209095673623  1224.03190351117 702.320154727297  L 1223.14394468974 702.780077689824  C 1223.60335979804 703.667056013032  1224.05983295999 704.555555041681  1224.51335664936 705.445560126362  L 1225.40434557814 704.991535095359  Z M 1227.20665718814 708.567419900338  C 1226.76003363194 707.671461911367  1226.31044084798 706.776987118161  1225.85788624902 705.884010268566  L 1224.9658959833 706.336064873522  C 1225.41745142241 707.227070189466  1225.86605158566 708.119570141805  1226.31168907668 709.013550015301  L 1227.20665718814 708.567419900338  Z M 1228.97728420859 712.159099066473  C 1228.53859921029 711.259227524965  1228.09693198744 710.360812870515  1227.65228982212 709.463869915934  L 1226.75633783327 709.908020829106  C 1227.19999830798 710.802983493608  1227.64069040833 711.699414608632  1228.07840686839 712.597299394263  L 1228.97728420859 712.159099066473  Z M 1230.71608824092 715.766291855213  C 1230.28537608971 714.862577098361  1229.85166895027 713.960292805987  1229.41497397343 713.059453854702  L 1228.51513029227 713.49566635966  C 1228.95086112447 714.394516419176  1229.38361071588 715.294808628699  1229.81337193146 716.196528144517  L 1230.71608824092 715.766291855213  Z M 1232.42293337396 719.388716315405  C 1232.00022773586 718.481228980802  1231.57451457993 717.575145576287  1231.14580092521 716.670481041109  L 1230.24213588677 717.098721041915  C 1230.66990301819 718.00138823914  1231.09467627535 718.905471172995  1231.51644865479 719.810954937408  L 1232.42293337396 719.388716315405  Z M 1234.09768619457 723.026089305334  C 1233.68302010975 722.114900325428  1233.26533421263 721.205088631555  1232.84463538982 720.296669224292  L 1231.93721962779 720.716903248168  C 1232.3569896226 721.623317027343  1232.77375334376 722.531120019253  1233.18750391979 723.440297256349  L 1234.09768619457 723.026089305334  Z M 1235.74021579804 726.678126514855  C 1235.33362167831 725.763307111476  1234.9239956878 724.849838242348  1234.51134458024 723.937734968349  L 1233.60024902151 724.349930168294  C 1234.01198906898 725.260019680861  1234.42071067838 726.17147177368  1234.82640711077 727.084271418899  L 1235.74021579804 726.678126514855  Z M 1237.35039379835 730.344542487614  C 1236.95190342457 729.426164166357  1236.5503693585 728.509109521938  1236.14579822051 727.593393674497  L 1235.23109407957 727.997517831852  C 1235.63477199663 728.91121194199  1236.03541954708 729.826241893254  1236.43303012517 730.742592598942  L 1237.35039379835 730.344542487614  Z M 1238.92809433821 734.025050643362  C 1238.53773885782 733.103185187953  1238.14432810154 732.182616448577  1237.74786855583 731.263359603312  L 1236.82962732926 731.659381130281  C 1237.22521156298 732.576608420327  1237.61775373846 733.495144708102  1238.00724738355 734.414974848946  L 1238.92809433821 734.025050643362  Z M 1240.47319409887 737.719363300352  C 1240.09100402345 736.79408276711  1239.70574732737 735.870071887738  1239.31743036265 734.947345897068  L 1238.39572382347 735.335233839184  C 1238.78318345358 736.255922615406  1239.16758957156 737.177893443497  1239.54893583945 738.101131122316  L 1240.47319409887 737.719363300352  Z M 1241.98557230978 741.427191697832  C 1241.61157751268 740.498568410008  1241.23450498985 739.571187614651  1240.85436095836 738.645064602155  L 1239.92926115048 739.024788640704  C 1240.30856589172 739.948866938708  1240.68480590567 740.874200242659  1241.05797498894 741.800773295829  L 1241.98557230978 741.427191697832  Z M 1243.46511075803 745.148246018607  C 1243.09934047202 744.216352560734  1242.73048159578 743.285674336808  1242.35854021095 742.35622669159  L 1241.43011944349 742.727757145976  C 1241.80123964806 743.655152736531  1242.16928414967 744.583776188868  1242.5342468801 745.513612192158  L 1243.46511075803 745.148246018607  Z M 1244.91169379756 748.882235411698  C 1244.55417661259 747.947144623943  1244.19356021426 747.013241716555  1243.82985054837 746.080542087607  L 1242.89818139003 746.443849917674  C 1243.26108804983 747.374490312183  1243.62090827143 748.306331328407  1243.97763612223 749.23935760247  L 1244.91169379756 748.882235411698  Z M 1246.32520835826 752.628868015075  C 1245.97597221911 751.690652987422  1245.62362648582 750.753598393924  1245.26817696771 749.817719684329  L 1244.33333224109 750.172776492631  C 1244.68799699004 751.106588948895  1245.0395648068 752.041574692965  1245.38802989482 752.977718309114  L 1246.32520835826 752.628868015075  Z M 1247.70554395475 756.387850978467  C 1247.36461615901 755.446585045247  1247.0205686313 754.506452009049  1246.6734070442 753.567467370523  L 1245.73545982014 753.914245404545  C 1246.08185493637 754.851156932451  1246.42514286846 755.789214322472  1246.76531795643 756.72840210838  L 1247.70554395475 756.387850978467  Z M 1249.05259269502 760.158890486257  C 1248.71999989082 759.214647220174  1248.38427746072 758.271509225501  1248.04543094001 757.329492052433  L 1247.10445453183 757.667964206757  C 1247.44255293985 758.607901573886  1247.77753415468 759.548957288017  1248.10939265328 760.491115833344  L 1249.05259269502 760.158890486257  Z M 1250.36192670096 763.944127231356  C 1250.03933709452 762.996278198167  1249.71322544287 762.049631506016  1249.38359850434 761.104206773265  L 1248.43934479063 761.433425430297  C 1248.76815592425 762.376510299289  1249.09346047112 763.32081410341  1249.41525168958 764.266317272857  L 1250.36192670096 763.944127231356  Z M 1251.63347252537 767.741851874233  C 1251.32029369289 766.790851946373  1251.0035810708 765.841019390544  1250.68334122266 764.892373891129  L 1249.73587073158 765.212217084787  C 1250.05531800725 766.158514749259  1250.37124678652 767.105996532256  1250.68365052207 768.054642798117  L 1251.63347252537 767.741851874233  Z M 1252.8673134509 771.551993317428  C 1252.56357616126 770.597935927786  1252.25629368478 769.645010826399  1251.94547238962 768.693237761891  L 1250.99487820727 769.003674068551  C 1251.30493024027 769.953091557648  1251.6114522129 770.903658232258  1251.91443777282 771.855354392935  L 1252.8673134509 771.551993317428  Z M 1254.06332825643 775.374177226091  C 1253.76906235088 774.417156107864  1253.4712402096 773.461232083023  1253.16986800466 772.506424962192  L 1252.21624352406 772.807423882427  C 1252.51686985269 773.759867918709  1252.81395490385 774.713426094734  1253.10749252071 775.668078648915  L 1254.06332825643 775.374177226091  Z M 1255.22139943711 779.208028082233  C 1254.93663382641 778.248137259896  1254.64830128043 777.28930822814  1254.35640777464 776.331560857942  L 1253.39984668648 776.623092819521  C 1253.69101777514 777.578469828271  1253.9786367171 778.534925821461  1254.26269755173 779.492440977449  L 1255.22139943711 779.208028082233  Z M 1256.34141321598 783.053169221624  C 1256.06617587746 782.090503001491  1255.78736125461 781.128863164967  1255.50497512559 780.168269641131  L 1254.54557140911 780.450306001921  C 1254.82725865112 781.408522120242  1255.1053832262 782.367781961695  1255.37993937048 783.328065646526  L 1256.34141321598 783.053169221624  Z M 1257.42325955506 786.909222870796  C 1257.15757752997 785.943875831933  1256.88830822292 784.979519668791  1256.61545721428 784.016174366744  L 1255.65330512799 784.288687417527  C 1255.92548084841 785.249648503591  1256.19408373171 786.211617948931  1256.45910821134 787.174575817644  L 1257.42325955506 786.909222870796  Z M 1258.46683216624 790.775810184162  C 1258.21073155702 789.807877168965  1257.95103402069 788.840899424327  1257.68774493918 787.874896989801  L 1256.72293901161 788.137859956997  C 1256.98557647001 789.101471599262  1257.24463127213 790.066056137957  1257.50009804924 791.031593582833  L 1258.46683216624 790.775810184162  Z M 1259.47202852166 794.652551281235  C 1259.22553448943 793.682127386215  1258.97543423829 792.712623062664  1258.72173295129 791.744058402496  L 1257.75436797169 791.997445450789  C 1258.00744136476 792.963612977381  1258.25692263431 793.930717841824  1258.50280661008 794.898740001785  L 1259.47202852166 794.652551281235  Z M 1260.43874986382 798.539065283947  C 1260.20188662588 797.566245850311  1259.96140823153 796.59431019871  1259.71731966442 795.623278471444  L 1258.74749067347 795.867064706324  C 1258.99097513749 796.835693194187  1259.23085836372 797.805223369303  1259.46713538079 798.77563513908  L 1260.43874986382 798.539065283947  Z M 1261.3669012153 802.434970354074  C 1261.13969204274 801.459850958409  1260.90885913143 800.48557946844  1260.67440726518 799.512176075026  L 1259.70220954565 799.746337545234  C 1259.93608115902 800.717331829553  1260.16634277411 801.689192061942  1260.39298961898 802.661898101519  L 1261.3669012153 802.434970354074  Z M 1262.25639138802 806.339883730746  C 1262.03885860345 805.362560175579  1261.81769385383 804.386048566464  1261.59290172263 803.410369140836  L 1260.61843078999 803.634882840718  C 1260.84266657552 804.608147524246  1261.06328395698 805.582242331583  1261.28027836228 806.557147075539  L 1262.25639138802 806.339883730746  Z M 1263.10713299227 810.253421768055  C 1262.89929796763 809.273990072414  1262.68782310848 808.29533428356  1262.47271279745 807.317474683215  L 1261.49606439052 807.53231855498  C 1261.71064231774 808.507758017412  1261.92159379058 809.483991697835  1262.12891443727 810.460999364731  L 1263.10713299227 810.253421768055  Z M 1263.91904244528 814.175199972748  C 1263.72092559972 813.193756362853  1263.5191614078 812.213052544178  1263.31375405089 811.233108840883  L 1262.33502412241 811.438261776771  C 1262.53992310968 812.415780184135  1262.74118794856 813.394056825642  1262.93881446801 814.373071427437  L 1263.91904244528 814.175199972748  Z M 1264.69203997939 818.104833041998  C 1264.50366077729 817.121473941686  1264.31162707533 816.138818444417  1264.11594285318 815.156886914648  L 1263.13522756041 815.352328759005  C 1263.33042747703 816.331830073104  1263.52198590827 817.312053562929  1263.70989888428 818.292978914429  L 1264.69203997939 818.104833041998  Z M 1265.42604964993 822.041934901263  C 1265.247426599 821.056756922636  1265.0651422537 820.072246289597  1264.87920039171 819.088423405203  L 1263.89659608695 819.27413495646  C 1264.08207775511 820.255522944207  1264.2639109587 821.237596978463  1264.44209192939 822.220336706673  L 1265.42604964993 822.041934901263  Z M 1266.12099934269 825.986118742213  C 1265.95214999208 824.999218675998  1265.77963291235 824.012949632427  1265.60345167873 823.027332050999  L 1264.61905489988 823.203295063558  C 1264.79480009658 824.186473306608  1264.96689020794 825.170301399395  1265.13532166756 826.154758953167  L 1266.12099934269 825.986118742213  Z M 1266.77682078096 829.936997060737  C 1266.61776171962 828.948471866875  1266.45502885472 827.960541310717  1266.28862555876 826.973225866196  L 1265.30253301982 827.139423052225  C 1265.46852447861 828.124294956244  1265.63085459042 829.109780449535  1265.7895199911 830.095859108845  L 1266.77682078096 829.936997060737  Z M 1267.39344953228 833.894181695012  C 1267.24419638727 832.904128493107  1267.09126372522 831.914633485547  1266.93465471553 830.925717178683  L 1265.9469632971 831.082132209812  C 1266.10318470984 832.068601014144  1266.25573887365 833.055647086924  1266.40462262698 834.043249972557  L 1267.39344953228 833.894181695012  Z M 1267.97082501472 837.857283863635  C 1267.83139244972 836.865799923415  1267.6882750157 835.874837679339  1267.54147567863 834.884417668164  L 1266.55228241841 835.03103517709  C 1266.69871843681 836.019003964165  1266.84148166464 837.007513642147  1266.98056914325 837.996543725113  L 1267.97082501472 837.857283863635  Z M 1268.50519189749 841.826913729934  C 1268.37657908323 840.833968319574  1268.2442759303 839.841504393415  1268.10828518053 838.849542519184  L 1267.11755196705 838.985364828505  C 1267.25320614869 839.974871662576  1267.38518186007 840.964879306179  1267.51347636611 841.955367242192  L 1268.50519189749 841.826913729934  Z M 1268.99995016929 845.801175359366  C 1268.88118558821 844.807003936432  1268.75872607734 843.813277395927  1268.63257417454 842.820016331896  L 1267.64054338044 842.946011980818  C 1267.76638306562 843.936814789355  1267.88853949727 844.928081922264  1268.00701014386 845.919792836627  L 1268.99995016929 845.801175359366  Z M 1269.45529189449 849.780145723666  C 1269.34638721485 848.784845962462  1269.23378337734 847.789954438283  1269.11748271554 846.795491769318  L 1268.12425180483 846.911648379149  C 1268.24026463017 847.903649818702  1268.35258978063 848.896079052078  1268.46122492837 849.888915512123  L 1269.45529189449 849.780145723666  Z M 1269.87117233715 853.76343390105  C 1269.77213825851 852.767103586737  1269.66940115734 851.771144824014  1269.56296316273 850.775578253034  L 1268.56862971734 850.881884411738  C 1268.67480428494 851.874987021197  1268.77728711858 852.868480851824  1268.87607609441 853.862345314401  L 1269.87117233715 853.76343390105  Z M 1270.24755063828 857.750648545525  C 1270.15839689045 856.75338556459  1270.06553661921 855.75645741315  1269.96897174901 854.759884751604  L 1268.97363345919 854.856330014924  C 1269.06995933772 855.850436224993  1269.16258978591 856.84489704506  1269.25152288411 857.839691866023  L 1270.24755063828 857.750648545525  Z M 1270.58438981985 861.741397925333  C 1270.5051251619 860.743300255789  1270.42215084385 859.745500660907  1270.33546858526 858.748019818988  L 1269.33922323998 858.83459471147  C 1269.42569096571 859.829606854173  1269.5084599278 860.824936961021  1269.58752841096 861.820564404742  L 1270.58438981985 861.741397925333  Z M 1270.88165678844 865.735289961439  C 1270.81228900788 864.736455663384  1270.73920879499 863.737882655795  1270.66241766428 862.739591633  L 1269.66536314163 862.816287648921  C 1269.74196421936 863.812107967356  1269.81486356356 864.808209572767  1269.88405966344 865.804571821891  L 1270.88165678844 865.735289961439  Z M 1271.13932233846 869.731932266051  C 1271.07985825047 868.732459471955  1271.01667932265 867.733211158379  1270.94978686431 866.734208033801  L 1269.95202112187 866.801017638012  C 1270.01874802579 867.79754829585  1270.08177058995 868.794323535858  1270.14108750824 869.791322700814  L 1271.13932233846 869.731932266051  Z M 1271.35736115505 873.730932181172  C 1271.3078066018 872.730919086157  1271.25453516619 871.731093639816  1271.1975479522 870.731476562435  L 1270.19916901744 870.788393191094  C 1270.25601519183 871.785536282217  1270.30915478417 872.782887226675  1270.35858669317 873.780425355316  L 1271.35736115505 873.730932181172  Z M 1271.53575181657 877.731896817177  C 1271.49611166664 876.731441669551  1271.45275295699 875.731137320164  1271.40567658618 874.73100449938  L 1270.40678254679 874.7780225606  C 1270.4537424067 875.775680118747  1270.4969938064 876.773508780895  1270.53653584958 877.771487868147  L 1271.53575181657 877.731896817177  Z M 1271.67447679666 881.734433091414  C 1271.64475494458 880.733634182838  1271.61131322075 879.732949207327  1271.57415231823 878.732398903133  L 1270.57484131254 878.769513777533  C 1270.61191024428 879.76758778582  1270.64526920205 880.765796132119  1270.67491749451 881.764118129509  L 1271.67447679666 881.734433091414  Z M 1271.77352246603 885.73814776682  C 1271.75372183187 884.737103422754  1271.73020037942 883.736136135386  1271.70295859613 882.735266648819  L 1270.70332880341 882.762474689975  C 1270.73050316508 883.76086709068  1270.75396640349 884.759357050133  1270.77371803239 885.757923875576  L 1271.77352246603 885.73814776682  Z M 1271.83287909372 889.742647490559  C 1271.82300162285 888.741456060578  1271.80940275268 887.740304803357  1271.79208276505 886.73921446681  L 1270.7922323959 886.756513001613  C 1270.8095095177 887.755125705709  1270.82307473156 888.753799179702  1270.83292775635 889.752512727033  L 1271.83287909372 889.742647490559  Z M 1271.85254084814 893.747538832667  C 1271.85258751098 892.74629868077  1271.84891255915 891.745061813824  1271.84151606881 890.743848981365  L 1270.84154335549 890.751236310287  C 1270.84892154001 891.7499712071  1270.85258739658 892.748730078991  1270.85254084923 893.747492227629  L 1271.85254084814 893.747538832667  Z M 1271.83250579758 897.752428324704  C 1271.84247658954 896.751237819753  1271.8487259171 895.750013711468  1271.85125365073 894.748776749275  L 1270.85125683754 894.746252146534  C 1270.84873535988 895.745011113361  1270.842501499 896.743757258168  1270.83255538409 897.742469882733  L 1271.83250579758 897.752428324704  Z M 1271.77277591041 901.756922498412  C 1271.7926698519 900.755880004314  1271.80884284487 899.754767021977  1271.82129455413 898.753604298523  L 1270.82137188773 898.741168012153  C 1270.80895099563 899.739852924029  1270.79281802975 900.738488217815  1270.77297332445 901.737053197895  L 1271.77277591041 901.756922498412  Z M 1271.67335705493 905.760627924371  C 1271.70317219143 904.759831790519  1271.72926726085 903.758928290446  1271.75164172241 902.757938166935  L 1270.75189144217 902.735591418764  C 1270.72957235592 903.734104157871  1270.70354187007 904.732530487846  1270.67380052407 905.730849717406  L 1271.67335705493 905.760627924371  Z M 1271.53425899873 909.763151250655  C 1271.57399240098 908.762699802262  1271.61000698311 907.762104120138  1271.64230199873 906.761384940842  L 1270.64282232708 906.72912992637  C 1270.61060723949 907.727372391831  1270.57468179108 908.725491665686  1270.53504672637 909.72346706286  L 1271.53425899873 909.763151250655  Z M 1271.35549540777 913.764099241472  C 1271.4051431721 912.764090769785  1271.4510737286 911.76390121126  1271.49328612541 910.763551293728  L 1270.4941752582 910.721391181913  C 1270.45206733429 911.71926529943  1270.40625045288 912.716979454971  1270.35672556349 913.714512971699  L 1271.35549540777 913.764099241472  Z M 1271.13708384503 917.763078815807  C 1271.1966410937 916.763611568731  1271.25248311204 915.763926399191  1271.30460874278 914.764044024876  L 1270.30596483963 914.71198295782  C 1270.25396821638 915.709390689337  1270.19826440335 916.706601704067  1270.13885455494 917.703595335757  L 1271.13708384503 917.763078815807  Z M 1270.87816012504 921.759507420338  C 1270.9473426621 920.760794701126  1271.01321388143 919.761855358856  1271.07577269695 918.76270586376  L 1270.07772708801 918.700216164833  C 1270.0153063912 919.69715971601  1269.94958060378 920.693893578312  1269.88055080942 921.690401317928  L 1270.87816012504 921.759507420338  Z M 1270.58377463534 925.753079312949  C 1270.66178401919 924.755017263258  1270.73648421826 923.75669932431  1270.80787400094 922.758141955937  L 1269.81041986455 922.686831046537  C 1269.73918769779 923.683183778249  1269.66465242343 924.67929760928  1269.58681527039 925.675156115886  L 1270.58377463534 925.753079312949  Z M 1270.25409375594 929.743892487697  C 1270.34092388907 928.746559119695  1270.42444722906 927.748940616085  1270.50466239881 926.75105342532  L 1269.50787769957 926.670926879364  C 1269.42783963062 927.666610913127  1269.34450069526 928.662026852997  1269.25786226758 929.657158286739  L 1270.25409375594 929.743892487697  Z M 1269.88914325586 933.731635008284  C 1269.98478735133 932.735108277079  1270.07712730375 931.738267186357  1270.16616159066 930.741128171597  L 1269.17012424085 930.652192252064  C 1269.08128652577 931.647129761661  1268.9891504435 932.641770005032  1268.89371751314 933.636096582887  L 1269.88914325586 933.731635008284  Z M 1269.48895166097 937.71599517842  C 1269.59340224288 936.72035297615  1269.6945515901 935.724367214946  1269.79239803494 934.728054316187  L 1268.79718588842 934.630315974628  C 1268.69955547109 935.624429192115  1268.59862944357 936.618215994435  1268.49440946993 937.611659996211  L 1269.48895166097 937.71599517842  Z M 1269.05355025166 941.696661566195  C 1269.16679915578 940.701981715859  1269.27674999162 939.706929133949  1269.38340094636 938.711520226612  L 1268.38909179248 938.604987102607  C 1268.28267630403 939.598198324575  1268.17296822003 940.591054007791  1268.0599693493 941.583537782388  L 1269.05355025166 941.696661566195  Z M 1268.58297306048 945.673323028419  C 1268.70501143487 944.679683277768  1268.82375516518 943.685641652037  1268.93920229358 942.691214540861  L 1267.94587385112 942.575894961422  C 1267.83068160939 943.568126554887  1267.71220004407 944.559973513882  1267.59043110865 945.551419485174  L 1268.58297306048 945.673323028419  Z M 1268.07725686943 949.645668734939  C 1268.20807517513 948.653146750401  1268.33560251847 947.660193778768  1268.45983679678 946.666826191724  L 1267.46756670787 946.542729170643  C 1267.34360671668 947.533903579216  1267.21636093099 948.524664287669  1267.08583144878 949.514994960675  L 1268.07725686943 949.645668734939  Z M 1267.53644120711 953.613388192938  C 1267.6760292189 952.622061553574  1267.81233020726 951.630274848862  1267.94534192489 950.638044431105  L 1266.95420774891 950.505179668252  C 1266.82148969744 951.495219418179  1266.68548963736 952.484816434671  1266.54620981101 953.473954401588  L 1267.53644120711 953.613388192938  Z M 1266.96056834562 957.576171271204  C 1267.10891515279 956.586117462691  1267.2539791324 955.595574546463  1267.39575789267 954.604558854314  L 1266.40583710024 954.462936734876  C 1266.26437136219 955.451764441093  1266.11962765799 956.440120415165  1265.97160837411 957.427988361413  L 1266.96056834562 957.576171271204  Z M 1266.34968329724 961.533708224369  C 1266.50677730448 960.545004632871  1266.66059293662 959.555782929521  1266.81112765759 958.566059424328  L 1265.82249762448 958.415691018  C 1265.67229525732 959.403229390179  1265.51881922268 960.390267068375  1265.36207205099 961.376787778646  L 1266.34968329724 961.533708224369  Z M 1265.70383381095 965.48568971712  C 1265.86966273922 964.49841362329  1266.03221800111 963.51059045389  1266.19149691645 962.522236496025  L 1265.20423491752 962.363133556141  C 1265.04530766163 963.349305404734  1264.88311129277 964.334947636642  1264.71764848521 965.320044000932  L 1265.70383381095 965.48568971712  Z M 1265.02307036866 969.431806848383  C 1265.19762125618 968.446035421191  1265.36890344191 967.459687997704  1265.53691410181 966.472780840388  L 1264.55109730502 966.304955803005  C 1264.3834575827 967.289684045276  1264.2125535575 968.273853789557  1264.03838804722 969.257448809193  L 1265.02307036866 969.431806848383  Z M 1264.3074461813 973.371751175458  C 1264.49070538454 972.387561466393  1264.67070110608 971.402766885176  1264.84743037822 970.41738366867  L 1263.86313583855 970.240849651598  C 1263.68679675313 971.224057317673  1263.50719843006 972.206677648032  1263.32434383046 973.188694441718  L 1264.3074461813 973.371751175458  Z M 1263.55701718461 977.305214738137  C 1263.74897037938 976.32268367503  1263.93766556762 975.339518911116  1264.1230996382 974.35573665654  L 1263.14040429165 974.17050745831  C 1262.95537962644 975.152117697069  1262.76710104352 976.133111808522  1262.57557164719 977.11347361822  L 1263.55701718461 977.305214738137  Z M 1262.77184203484 981.231890082773  C 1262.97247421738 980.251094463706  1263.16985412322 979.269636364938  1263.36397849805 978.287531968172  L 1262.38295915563 978.093622066966  C 1262.1892633728 979.0735581523  1261.99231924659 980.05284936667  1261.79213002414 981.031479563852  L 1262.77184203484 981.231890082773  Z M 1261.95198210408 985.151470286306  C 1262.16127759225 984.172486773892  1262.36732678779 983.192812054361  1262.57012629341 982.212462280315  L 1261.5908596351 982.009886832826  C 1261.38850787463 982.988072169385  1261.18291359898 983.9655839418  1260.97408019792 984.942406033189  L 1261.95198210408 985.151470286306  Z M 1261.09750147554 989.063648980262  C 1261.31544391006 988.086554095344  1261.53014628975 987.108739329997  1261.74160507461 986.130220806309  L 1260.76416764342 985.918995646563  C 1260.55317572185 986.895353775838  1260.33894736674 987.871009700517  1260.12148611025 988.845947334162  L 1261.09750147554 989.063648980262  Z M 1215.92253537369 687.358764698386  C 1215.42903509787 686.487747593664  1214.932648412 685.618369031033  1214.43338350037 684.750643344563  L 1213.56661649963 685.249356655437  C 1214.06477912337 686.115166558322  1214.56006987594 686.982625688086  1215.05248059115 687.851719742359  L 1215.92253537369 687.358764698386  Z M 1253.3511675974 987.524489698112  L 1258 1000  L 1267.91507645553 991.115110643292  L 1253.3511675974 987.524489698112  Z " fill-rule="nonzero" fill="#1f8aee" stroke="none" />
  </g>
</svg>