<?xml version="1.0" encoding="utf-8"?>
<svg version="1.1" xmlns:xlink="http://www.w3.org/1999/xlink" width="392px" height="32px" viewBox="314 396  392 32" xmlns="http://www.w3.org/2000/svg">
  <g transform="matrix(0.965925826289069 -0.25881904510252 0.25881904510252 0.965925826289067 -89.255617989663 146.03627257119 )">
    <path d="M 336.511670103742 355.612424147525  C 335.611449820252 355.178078050133  334.711847285925 354.74245277484  333.81286522646 354.305549641541  L 333.375755092415 355.204957630562  C 334.275589313628 355.642274912434  335.176044598131 356.078313125127  336.077118217105 356.51307094723  L 336.511670103742 355.612424147525  Z M 340.115834244858 357.342980644416  C 339.213974311484 356.912049383422  338.312727274921 356.479836612524  337.412095865849 356.046343641279  L 336.978397509561 356.947401761354  C 337.879882644017 357.381305648706  338.781983989238 357.813928122047  339.684698812536 358.245267870856  L 340.115834244858 357.342980644416  Z M 343.72653108511 359.059865402585  C 342.823044455412 358.632355167523  341.920165861367 358.203561108961  341.0178980386 357.773484526099  L 340.587617689349 358.676179835187  C 341.4907407885 359.106664095609  342.39447523816 359.53586461613  343.298818299572 359.963780096063  L 343.72653108511 359.059865402585  Z M 347.343708763482 360.76305376214  C 346.438608414382 360.338970693408  345.534111231045 359.913601506021  344.630219954001 359.4869474888  L 344.203363791973 360.391267021343  C 345.108111884303 360.81832547181  346.013466457545 361.244097874657  346.919424768034 361.668582939586  L 347.343708763482 360.76305376214  Z M 350.967315325872 362.452521259915  C 350.060614257471 362.031871448687  349.154511476281 361.609933242119  348.249009727695 361.186707918641  L 347.825583883892 362.092638685752  C 348.731943974548 362.516265192443  349.638905667245 362.938603362004  350.546466214574 363.359651915069  L 350.967315325872 362.452521259915  Z M 354.59729872584 364.128243629819  C 353.689009961231 363.711033117954  352.781314596685 363.292531952572  351.874215382424 362.872741401688  L 351.454225938579 363.780270391341  C 352.362185009178 364.200458869552  353.27074079487 364.619356739892  354.179890543414 365.036962733417  L 354.59729872584 364.128243629819  Z M 358.233606825353 365.790196803183  C 357.323743410244 365.376431583056  356.414468500095 364.961373470032  355.50578484878 364.545023721175  L 355.08923783727 365.454137898384  C 355.998782846651 365.870882312881  356.908919675604 366.286333867303  357.8196455671 366.700491303147  L 358.233606825353 365.790196803183  Z M 361.876187395537 367.438356909106  C 360.964762398818 367.028042923867  360.053921002372 366.616433824402  359.143665965949 366.203530857843  L 358.730567369705 367.114217164856  C 359.64168525374 367.527511529786  360.553390053891 367.939510801264  361.465679007248 368.350213730732  L 361.876187395537 367.438356909106  Z M 365.524988117423 369.072700274803  C 364.612014629661 368.665843417686  363.699619830233 368.257689244128  362.787806482465 367.848238990287  L 362.378162234887 368.760484346771  C 363.290839907231 369.170322726008  364.204099583242 369.578863796759  365.117938495297 369.986106320944  L 365.524988117423 369.072700274803  Z M 369.179956582704 370.693203425938  C 368.265447717271 370.289809540778  367.351512619358 369.885116155341  366.438154056952 369.479124495303  L 366.031970041827 370.392915798532  C 366.946194393545 370.799292305502  367.860995828121 371.204369307584  368.776371573259 371.608145577198  L 369.179956582704 370.693203425938  Z M 372.841040294483 372.299843086965  C 371.925009186617 371.899917967773  371.009546917213 371.498691183133  370.094656258886 371.096163948221  L 369.6919383103 372.011488073264  C 370.60769621043 372.414396871199  371.524026263752 372.816003986261  372.440925694475 373.216308201882  L 372.841040294483 372.299843086965  Z M 376.508186668029 373.892596181462  C 375.59064647483 373.496145572426  374.673670182867 373.098391151467  373.757260569339 372.699334123244  L 373.358014471594 373.616177923155  C 374.275292766771 374.015613224928  375.193138277823 374.413744684789  376.111548224368 374.810571096702  L 376.508186668029 373.892596181462  Z M 380.181343031531 375.47143983246  C 379.262306931967 375.078469427946  378.343829787742 374.684193083515  377.425914381741 374.288611993783  L 377.030145869273 375.206962299788  C 377.948931384291 375.602918368163  378.868279170291 375.997568454562  379.788186441199 376.390911363003  L 380.181343031531 375.47143983246  Z M 383.860456626858 377.036351362777  C 382.939937820811 376.646866806918  382.019973017318 376.256074202396  381.10056500263 375.863974732786  L 380.708279759924 376.783818354472  C 381.628559298311 377.176289502351  382.54939615414 377.567452546701  383.470787536826 377.957306302105  L 383.860456626858 377.036351362777  Z M 387.545474610313 378.587308295337  C 386.623486319722 378.201315182523  385.7020470698 377.814011930604  384.781159652411 377.425399713065  L 384.392363313924 378.346723438571  C 385.314123657747 378.73570402891  386.236436356897 379.123374412712  387.159298617459 379.509733415628  L 387.545474610313 378.587308295337  Z M 391.236344053391 380.124288353498  C 390.31289952054 379.741792227651  389.389999059734 379.357983891553  388.467645466115 378.972864507625  L 388.082343616191 379.89565510383  C 389.005571525677 380.281139549477  389.929346821585 380.665311704881  390.853666704425 381.048170405812  L 391.236344053391 380.124288353498  Z M 394.933011943546 381.647269461369  C 394.0081244324 381.268275816501  393.083776015711 380.887967908607  392.159969494155 380.506346889979  L 391.778167666946 381.430591102696  C 392.702849881817 381.812573866956  393.62807450577 382.193242275875  394.553838734922 382.572595175841  L 394.933011943546 381.647269461369  Z M 398.635425184946 383.15622974413  C 397.709107979619 382.780744023707  396.783324883993 382.403942006599  395.858078703092 382.025824834476  L 395.479782382479 382.951509388636  C 396.405905621375 383.329984985031  397.332566284223 383.707144179864  398.25976156279 384.082985830157  L 398.635425184946 383.15622974413  Z M 402.343530599235 384.651147528342  C 401.415797004571 384.279175125526  400.488592527179 383.905884411272  399.561919976391 383.531276516611  L 399.187134595904 384.458388116459  C 400.11468555677 384.833351108883  401.042768948738 385.206995672431  401.971381959264 385.579320674779  L 402.343530599235 384.651147528342  Z M 406.057274926304 386.132001342262  C 405.128138267488 385.763547599752  404.199525725917 385.393773549986  403.271440115188 385.022680313341  L 402.900171057929 385.951205642625  C 403.829136418202 386.322650645424  404.75862920908 386.692775210972  405.688646613748 387.06157821761  L 406.057274926304 386.132001342262  Z M 409.776604825048 387.59876991615  C 408.846078447226 387.23384012603  407.916071179672 386.867588052028  406.986585839051 386.500014803394  L 406.618838437617 387.429940525556  C 407.549204854419 387.797862203606  408.480093693753 388.164461454995  409.411502134575 388.529737168748  L 409.776604825048 387.59876991615  Z M 413.501466874137 389.051432182574  C 412.569564142801 388.690031586466  411.638175506721 388.327306748611  410.707303786748 387.963258767578  L 410.343083323155 388.894571525946  C 411.274837433483 389.25896459473  412.207108950769 389.622033266436  413.139895049775 389.98377644079  L 413.501466874137 389.051432182574  Z M 417.231807572782 390.489967276714  C 416.298541873193 390.132101065546  415.365785245885 389.772908673565  414.433540517012 389.412391189087  L 414.072852222616 390.345077607067  C 415.00598064373 390.705936832823  415.939621448216 391.065469709884  416.873771807845 391.423675149138  L 417.231807572782 390.489967276714  Z M 420.967573341502 391.91435453666  C 420.032958078111 391.560027850447  419.098846857295 391.204373063628  418.165242509309 390.847391253799  L 417.808091564733 391.781437935068  C 418.742580893576 392.138758134567  419.677577576001 392.494750053253  420.613078778515 392.849412612296  L 420.967573341502 391.91435453666  Z M 424.708710522897 393.32457350371  C 423.772759119539 392.97379143163  422.837306722389 392.621679358445  421.902356164606 392.26823835058  L 421.548747699666 393.203631879275  C 422.484584514404 393.557407920418  423.42092364449 393.909853767265  424.357762253521 394.26096835217  L 424.708710522897 393.32457350371  Z M 428.455165382413 394.720603922663  C 427.517891282696 394.3733715032  426.581111144491 394.0248072008  425.644827806142 393.674912071575  L 425.294766899774 394.611639012489  C 426.231937758445 394.961865813789  427.169605888176 395.310760526852  428.107768447376 395.658322094358  L 428.455165382413 394.720603922663  Z M 432.206884109121 396.102425742111  C 431.268300774875 395.758747962477  430.330206351513 395.413736437635  429.392603680197 395.067392212504  L 429.046095360382 396.005439111278  C 429.984586802639 396.352111642516  430.923570463363 396.697450210277  431.86304349814 397.041453768445  L 432.206884109121 396.102425742111  Z M 435.963812816485 397.470019114726  C 435.02393372912 397.129900911362  434.084538493826 396.788447119248  433.145629956869 396.445658772953  L 432.80267920056 397.385012156269  C 433.742477746507 397.728125438059  434.682763451839 398.069902900509  435.623533468198 398.410343508289  L 435.963812816485 397.470019114726  Z M 439.725897543137 398.823364397547  C 438.784736202093 398.486810655553  437.844053647937 398.148919500666  436.903852730839 397.809691956658  L 436.564464463894 398.750338332434  C 437.50555661486 399.089887436515  438.447130859715 399.428098884788  439.38918434503 399.764971652309  L 439.725897543137 398.823364397547  Z M 443.493084253652 400.162442152257  C 442.550654176979 399.82945770561  441.608697815137 399.495134041133  440.667218022153 399.159472171793  L 440.33139711926 400.101398029374  C 441.273769358576 400.437378078888  442.216618618194 400.772018654921  443.15994204199 401.105318743763  L 443.493084253652 400.162442152257  Z M 447.265318839324 401.487233145469  C 446.321633563296 401.157822776877  445.378416923239 400.827071404756  444.435671776994 400.494980031248  L 444.103423061601 401.438171841602  C 445.047061853435 401.770578010676  445.9911725863 402.101642908248  446.935752399083 402.431365531031  L 447.265318839324 401.487233145469  Z M 451.042547118944 402.797718348999  C 450.09762019767 402.471886789768  449.153156827358 402.144712460773  448.209159868457 401.81619635291  L 447.880488112706 402.760640568823  C 448.825379903812 403.089468083191  449.770738548732 403.416952546891  450.71656118374 403.743092967893  L 451.042547118944 402.797718348999  Z M 454.82471483958 404.093878940137  C 453.878559845586 403.771630870373  452.932863309716 403.44803828349  451.987628097328 403.123102159939  L 451.662538021985 404.068785216207  C 452.608669240341 404.39402935273  453.555262219759 404.717928679117  454.5023140916 405.040482213796  L 454.82471483958 404.093878940137  Z M 458.61176767735 405.375696301922  C 457.664398200217 405.057036350058  456.717482082371 404.737030153234  455.771022192866 404.415678681036  L 455.44951846725 405.362586994662  C 456.396875523618 405.684243081875  457.344689241077 406.004552618596  458.292956747288 406.323514634132  L 458.61176767735 405.375696301922  Z M 462.40365123821 406.643152023405  C 461.455080885156 406.328084766405  460.506958786041 406.011669555942  459.559287813574 405.693907350718  L 459.241375055496 406.642027321108  C 460.18994434303 406.960090739078  461.138965184537 407.276805885345  462.088434705198 407.592171800499  L 462.40365123821 406.643152023405  Z M 466.200311058728 407.896227899918  C 465.250553454221 407.584757863144  464.301238991868 407.271938183762  463.352370547987 406.957769809583  L 463.038053323679 407.907087818737  C 463.987821217535 408.221553998938  464.938035552937 408.534670205982  465.888693450272 408.846435490974  L 466.200311058728 407.896227899918  Z M 470.001692606873 409.134905933332  C 469.050761392237 408.827037590413  468.100268202194 408.51781793532  467.150215915453 408.207247904572  L 466.839498739502 409.157750317283  C 467.790451598405 409.468614743117  468.741845778836 409.778127513341  469.693678398786 410.086287690365  L 470.001692606873 409.134905933332  Z M 473.807741282793 410.359168332315  C 472.855650116602 410.054906105278  471.903991850561 409.749290915717  470.95276936691 409.442323689231  L 470.645656702197 410.393996853282  C 471.597780867065 410.701255059624  472.550341228285 411.007159947703  473.503334899133 411.311710590478  L 473.807741282793 410.359168332315  Z M 477.618402419603 411.56899751259  C 476.665164976894 411.268345771603  475.712355303676 410.966339437173  474.759976285674 410.66297942397  L 474.456472543308 411.615809670325  C 475.409754339024 411.919457244104  476.363467198467 412.221749856024  477.317608232607 412.522686590366  L 477.618402419603 411.56899751259  Z M 481.433621284166 412.764376097189  C 480.47925125664 412.467339160622  479.525303861206 412.168946018964  478.571781988224 411.869197576314  L 478.271891527478 412.823171219321  C 479.226317261705 413.123203799135  480.181168921436 413.421879793145  481.136443614189 413.719198296589  L 481.433621284166 412.764376097189  Z M 485.253343077885 413.945286916696  C 484.297854173112 413.651869050876  483.342782757557 413.357093387984  482.388131724985 413.060960821159  L 482.091858853232 414.016064158743  C 483.047414817402 414.312477435175  484.003391562734 414.607532521344  484.959786193338 414.901228523456  L 485.253343077885 413.945286916696  Z M 489.077512937483 415.111713009502  C 488.120918879106 414.821918428776  487.16473716167 414.530764478681  486.208970681115 414.238252041019  L 485.916319653771 415.194471354877  C 486.872992122881 415.487261070436  487.830080223362 415.778691010962  488.78758105477 416.068760293279  L 489.077512937483 415.111713009502  Z M 492.906075935798 416.263637622041  C 491.948390463728 415.977470488836  490.991112177806 415.689942433306  490.034243977292 415.401054326273  L 489.74521899775 416.358375882074  C 490.70299423116 416.647537831435  491.661179939585 416.935338440341  492.619773219257 417.221776836613  L 492.906075935798 416.263637622041  Z M 496.738977082566 417.401044209035  C 495.780213952193 417.118508633616  494.821852847326 416.834610602463  493.863896670505 416.549350975404  L 493.578501890077 417.507761022985  C 494.537366131107 417.79329105287  495.496635684902 418.077458196429  496.456307644409 418.360261592495  L 496.738977082566 417.401044209035  Z M 500.576161325216 418.523916433733  C 499.616334307606 418.245016474261  498.656904148491 417.964752545041  497.697873754838 417.683125495244  L 497.416113272697 418.642610268809  C 498.376052749025 418.924504278104  499.336392370049 419.205033874778  500.297129225469 419.484198208688  L 500.576161325216 418.523916433733  Z M 504.417573549656 419.632238168141  C 503.456696430761 419.356977830442  502.496210998242 419.080352028749  501.536120162267 418.802361601209  L 501.257998025382 419.762907319525  C 502.218998949444 420.041161259398  503.180394843786 420.318049279781  504.142182796102 420.59357054191  L 504.417573549656 419.632238168141  Z M 508.263158581068 420.725993493256  C 507.301245161919 420.454376730882  506.339718252002 420.18139303005  505.378580763444 419.907043217532  L 505.104100966527 420.868636084125  C 506.066149534917 421.143245957856  507.02858789469 421.416488425191  507.991413129189 421.688362658069  L 508.263158581068 420.725993493256  Z M 512.112674475647 421.804222763815  C 511.769847805382 421.7091395331  511.42707509054 421.613861869517  511.084356497198 421.518389819228  C 510.464478915998 421.34521187124  509.844759947359 421.171466684694  509.225200368493 420.997154477492  L 508.954366853942 421.959780680853  C 509.574633058913 422.134291696305  510.195058866698 422.308234935315  510.815643497757 422.481610179329  C 511.158845723514 422.577217102448  511.502102166355 422.672629296862  511.845412659313 422.767846716158  L 512.112674475647 421.804222763815  Z M 515.96738145341 422.864514577975  C 515.003142812202 422.601489280974  514.039323877405 422.336927770251  513.075928319349 422.070831053286  L 512.809690254225 423.03473835831  C 513.774109714091 423.30111788425  514.73895300071 423.565960572335  515.704216439761 423.82926541399  L 515.96738145341 422.864514577975  Z M 519.826558762477 423.908418363188  C 518.861211243905 423.649492442411  517.896276900661 423.389028538468  516.931759407321 423.127027643234  L 516.669619339592 424.092057479504  C 517.63516192714 424.354336830652  518.601121807668 424.615077556999  519.567495302603 424.874278665591  L 519.826558762477 423.908418363188  Z M 523.690136730574 424.93591527317  C 522.723697762695 424.681093403177  521.757665431599 424.424731808341  520.792043416045 424.166831464913  L 520.534006078298 425.132966410109  C 521.500654361952 425.391140851363  522.467713397279 425.647774908648  523.43517950152 425.902867604649  L 523.690136730574 424.93591527317  Z M 527.558045605984 425.946986757842  C 526.590532636556 425.696273539102  525.623419758028 425.444018881636  524.65671065327 425.19022374606  L 524.402780704023 426.15744635791  C 525.370517232245 426.411511228277  526.338657963416 426.664033983316  527.30719921066 426.915013661369  L 527.558045605984 425.946986757842  Z M 531.430215558798 426.941614563664  C 530.461646054971 426.695014522467  529.493470088936 426.446871356493  528.525691347612 426.197186010698  L 528.27587337123 427.165478827297  C 529.244680672833 427.415429539975  530.213885621366 427.663836433809  531.1834845259 427.910698562812  L 531.430215558798 426.941614563664  Z M 535.30657668218 427.919780733966  C 534.336968130178 427.677298322345  533.367746555754 427.433271127754  532.398915649811 427.187700079475  L 532.153214156423 428.157045619593  C 533.123074740891 428.402877662059  534.09332640909 428.647164210033  535.063965466105 428.889904333223  L 535.30657668218 427.919780733966  Z M 539.187058993629 428.881467609269  C 538.216428898432 428.643107204918  537.246179213617 428.403200387294  536.276313633997 428.161748069987  L 536.034733059413 429.13212883339  C 537.005629417214 429.373837767476  537.976910288487 429.613999559325  538.948571974397 429.852613294353  L 539.187058993629 428.881467609269  Z M 543.071592436238 429.826657827605  C 542.099958321274 429.592423733803  541.128698042622 429.356641624341  540.157815298949 429.119312397104  L 539.920360004583 430.090710864869  C 540.892274607485 430.328292326844  541.864567146658 430.564325026769  542.837233919413 430.798808065784  L 543.071592436238 429.826657827605  Z M 546.960106879967 430.755334324833  C 545.987486286886 430.525230770385  545.015232948999 430.293577625768  544.043350569359 430.060375773286  L 543.810024842148 431.032774408117  C 544.782940143536 431.266224108765  545.756226797171 431.498123455512  546.729881096578 431.728471565238  L 546.960106879967 430.755334324833  Z M 550.852532122901 431.667480334945  C 549.878942610862 431.441511474014  548.905713766874 431.213991476525  547.932849297099 430.984921208896  L 547.703657349425 431.958302455438  C 548.677555784618 432.187616180139  549.651818981329 432.415377987077  550.626443229365 432.641587008887  L 550.852532122901 431.667480334945  Z M 554.748797892522 432.563079390366  C 553.77425703858 432.341249302565  552.800070258429 432.117866559677  551.826241262483 431.892932012505  L 551.6011872321 432.867278297667  C 552.576051218668 433.092451906468  553.55127336944 433.316072061662  554.526849970572 433.538137911656  L 554.748797892522 432.563079390366  Z M 558.648833846977 433.442115322257  C 557.673359245059 433.224428012407  556.698232116582 433.005186557043  555.723456175542 432.784391791197  L 555.502544125499 433.759685524461  C 556.47835606358 433.980714952156  557.454519562084 434.200189418444  558.431030903583 434.418108087521  L 558.648833846977 433.442115322257  Z M 562.552569576345 434.304572260803  C 561.576178837237 434.091031658934  560.600128965248 433.87593544925  559.624423677285 433.659284450859  L 559.407657595853 434.635508024607  C 560.38439986847 434.852389280805  561.361487091385 435.06771409587  562.338915543649 435.281481649801  L 562.552569576345 434.304572260803  Z M 566.459934603913 435.1504346355  C 565.482645355141 434.941044596825  564.505690360711 434.730097516048  563.529073340977 434.51759419648  L 563.316457141576 435.494729986303  C 564.294112114958 435.707459155504  565.272105422283 435.918630431945  566.250433339152 436.128243011443  L 566.459934603913 435.1504346355  Z M 570.370858387445 435.979687175438  C 569.392688272655 435.774451480212  568.414845793398 435.56765733671  567.437334673402 435.359305532426  L 567.228872194533 436.337335897448  C 568.207422218329 436.545909139091  569.186303953909 436.752923064537  570.165513672883 436.958376885306  L 570.370858387445 435.979687175438  Z M 574.285270320457 436.792314909574  C 573.3062369992 436.591237263052  572.327524688748 436.388599790216  571.349137116144 436.184403262729  L 571.144832121317 437.163310545923  C 572.124259529322 437.36772409454  573.104012020354 437.570576931547  574.084085863317 437.771868284436  L 574.285270320457 436.792314909574  Z M 578.20309973349 437.588303167003  C 577.223220881 437.391387199394  576.243656408489 437.19291005553  575.264410046855 436.992872491356  L 575.064266224523 437.972639019863  C 576.044553334385 438.172889185021  577.025158892956 438.371577271394  578.006079165888 438.568702522338  L 578.20309973349 437.588303167003  Z M 582.124275895388 438.367637577226  C 581.143569201862 438.174886843542  580.16317025242 437.980573611971  579.183082780531 437.784698622478  L 578.987103744024 438.765306707928  C 579.968232857975 438.961389874378  580.949673780565 439.155909623072  581.931422774265 439.348865213238  L 582.124275895388 438.367637577226  Z M 586.048728014572 439.130304070405  C 585.067211185455 438.941722050522  584.08599545867 438.751576239268  583.105084570794 438.559867360737  L 582.913273858248 439.541299299565  C 583.895227263318 439.733211927289  584.877485831327 439.92355982651  585.860045821635 440.112342272344  L 586.048728014572 439.130304070405  Z M 589.976385240324 439.876288877618  C 588.994075995587 439.691878976133  588.012061205991 439.505904018022  587.030344611157 439.3183647115  L 586.842705685459 440.30060278527  C 587.825465653796 440.488341409542  588.808524133863 440.674514022814  589.791877381975 440.859119916102  L 589.976385240324 439.876288877618  Z M 593.907176664058 440.60557853111  C 592.924092737976 440.425344077296  591.941296614531 440.243543329858  590.958792036317 440.060176981115  L 590.775328285035 441.043203456835  C 591.758877074225 441.226764688287  592.742717718548 441.408758654513  593.726846471339 441.589184662442  L 593.907176664058 440.60557853111  Z M 597.841031320606 441.318159864535  C 596.857190461442 441.142104112283  595.873630747212 440.964480857687  594.890355923421 440.785290777157  L 594.711070658748 441.769087907601  C 595.695390512136 441.948468432281  596.679995558791 442.126280465804  597.664882049138 442.302523331025  L 597.841031320606 441.318159864535  Z M 601.777878189498 442.014020013192  C 600.793298159179 441.842146140952  599.808992611017 441.668703585948  598.824965293356 441.493693008667  L 598.649861752047 442.478243032699  C 599.634934898956 442.653439612113  600.620286572424 442.827066502811  601.605913019419 442.999123043479  L 601.777878189498 442.014020013192  Z M 605.717646196242 442.693146414259  C 604.73234477004 442.525457524984  603.747311158263 442.356198800844  602.762549112026 442.185370886394  L 602.59163045534 443.170656029283  C 603.577439111801 443.341665500529  604.56351962247 443.511104113729  605.549868232153 443.678971223628  L 605.717646196242 442.693146414259  Z M 609.660264213611 443.355526807021  C 608.674259179821 443.192025928109  607.68851528789 443.026954090572  606.703036291636 442.860311923022  L 606.536305605281 443.846314396765  C 607.522831973737 444.013133672477  608.50962351945 444.178380949229  609.496676484517 444.342055597726  L 609.660264213611 443.355526807021  Z M 613.605661062922 444.001149233086  C 612.618970222544 443.841839316326  611.632533846742 443.680957345543  610.646355691973 443.518503933393  L 610.483815986047 444.505205937039  C 611.471042256088 444.667832005519  612.458527021647 444.828884962505  613.446266522181 444.988364194673  L 613.605661062922 444.001149233086  Z M 617.553765515326 444.630002036608  C 616.56640668174 444.474885958127  615.579295630854 444.318196758606  614.592436121693 444.159935034736  L 614.434090330633 445.147318754702  C 615.421998679212 445.305748679955  616.410158836904 445.46260440958  617.398567040593 445.617885346236  L 617.553765515326 444.630002036608  Z M 621.504506293092 445.242073864493  C 620.516497291738 445.091154424704  619.528729386733 444.938660825258  618.541206339607 444.78459364687  L 618.387057322133 445.772641257268  C 619.37562991389 445.926872179054  620.364447623808 446.079527849497  621.353506686267 446.230607687252  L 621.504506293092 445.242073864493  Z M 625.457812070892 445.837353666604  C 624.469170738947 445.690633590155  623.48076381265 445.542338343853  622.492595055961 445.392468492423  L 622.342645595028 446.381162155378  C 623.331864582611 446.531191289265  624.321321992977 446.679644144533  625.311014058071 446.826520155843  L 625.457812070892 445.837353666604  Z M 629.413611477092 446.415830695964  C 628.42435566315 446.273312631689  627.435327559922 446.129218415802  626.446530933733 445.98354859703  L 626.300783736477 446.972870463003  C 627.290631260863 447.118695100415  628.28071050835 447.262942460391  629.271017708516 447.405611993607  L 629.413611477092 446.415830695964  Z M 633.371833095039 446.977494508945  C 632.38198065889 446.83918102983  631.392349234101 446.699290445757  630.402942589912 446.557823289531  L 630.261400287603 447.547755497643  C 631.251858478422 447.689373005913  632.242541688477 447.829412266404  633.233446145047 447.967872745818  L 633.371833095039 446.977494508945  Z M 637.332405464348 447.52233496546  C 636.341974276245 447.388228568542  635.351757396774 447.252544141877  634.36175859679 447.115282202167  L 634.224423744785 448.105806880519  C 635.215474720642 448.243214702933  636.206744007809 448.379043335718  637.198227831331 448.513292261612  L 637.332405464348 447.52233496546  Z M 641.295257082197 448.050342229145  C 640.304265023251 447.920445335562  639.313480565726 447.78896951585  638.322907483253 447.655915270765  L 638.189782560948 448.647014536763  C 639.181408429748 448.780210192606  640.173245897989 448.911825745481  641.165291188551 449.041860694171  L 641.295257082197 448.050342229145  Z M 645.260316404614 448.561506767537  C 644.268781365653 448.435821722377  643.277447217769 448.308556883292  642.28631773607 448.179712734921  L 642.157405146858 449.171368695596  C 643.149588006125 449.300349780198  644.141975749143 449.427749877022  645.1345645967 449.553568500901  L 645.260316404614 448.561506767537  Z M 649.227511847769 449.055819352246  C 648.235451729732 448.934348424597  647.243585788493 448.811296863708  646.251917801184 448.686665138172  L 646.127219872407 449.678859890506  C 647.11994180961 449.803624075288  648.112861911178 449.926806416022  649.105976395867 450.048406443604  L 649.227511847769 449.055819352246  Z M 653.196771789268 449.53327105912  C 652.20420450247 449.416016441978  651.211824674685 449.297180380816  650.219636085003 449.176763328174  L 650.099155067916 450.16947895942  C 651.092398160792 450.290023991932  652.085832695066 450.408986352685  653.079454887539 450.526365588644  L 653.196771789268 449.53327105912  Z M 657.168024569447 449.993853268411  C 656.174968033359 449.88081707865  655.182092235115 449.76619866264  654.189400955693 449.64999845686  L 654.07313902542 450.64321704487  C 655.066885342296 450.759540748833  656.06081637415 450.874280981897  657.054928335889 450.987437307109  L 657.168024569447 449.993853268411  Z M 661.141198492661 450.437557664923  C 660.14767063569 450.328741943271  659.154316791822 450.218343241672  658.161140744474 450.106361980605  L 658.049099999967 451.100065594149  C 659.043331600087 451.212165869494  660.037741185427 451.322681903389  661.032324969075 451.431613274968  L 661.141198492661 450.437557664923  Z M 665.116221828583 450.864376238169  C 664.122240587337 450.759782949125  663.128426631928 450.653605955083  662.13478374691 450.545845660378  L 662.026966210915 451.540016359469  C 663.021665144759 451.647891182376  664.016535330855 451.754181021884  665.011572980534 451.85888547322  L 665.116221828583 450.864376238169  Z M 669.093022813497 451.274301282511  C 668.098606133076 451.173932314378  667.1043500079 451.071978944755  666.110258224204 450.96844156189  L 666.006665843222 451.96306139811  C 667.001814152836 452.066708821044  667.99712697864 452.168770547244  668.99260053028 452.269246188037  L 669.093022813497 451.274301282511  Z M 673.071529651594 451.667325397302  C 672.076695484859 451.571182562108  671.082015139876 451.473454657534  670.087492404496 451.374142055738  L 669.988127048749 452.36919307256  C 670.983706768064 452.468611224305  671.979444264538 452.566442994609  672.975335746199 452.662688010909  L 673.071529651594 451.667325397302  Z M 677.051670516268 452.04344148702  C 676.056436823615 451.951526520495  675.061350216445 451.858025845316  674.066414484156 451.762939817545  L 673.971277947551 452.758404050656  C 674.967271102711 452.853591136352  675.96341529315 452.947191184539  676.959706725347 453.039203838769  L 677.051670516268 452.04344148702  Z M 681.033373551413 452.402642761393  C 680.037758300452 452.314957322937  679.042283396049 452.225685565183  678.046952629081 452.134827828088  L 677.956046629182 453.130687305717  C 678.952435238865 453.221641606887  679.948968139221 453.311008243134  680.945641535249 453.39878687413  L 681.033373551413 452.402642761393  Z M 685.01656687272 452.744922735523  C 684.020588037949 452.66146840818  683.024742808278 452.576427179533  682.029034975994 452.489799373428  L 681.942361153985 453.486036116667  C 682.939127229835 453.572755991263  683.936030848837 453.657887602157  684.933068215196 453.741430625201  L 685.01656687272 452.744922735523  Z M 689.001178568974 453.070275230004  C 688.004854131559 452.991053520438  687.008656555064 452.910244356186  686.012589633736 452.827848045029  L 685.930149554399 453.824444068159  C 686.927275100934 453.906927950553  687.924531441236 453.987822999192  688.921914777547 454.067128906011  L 689.001178568974 453.070275230004  Z M 692.987136703355 453.378694371033  C 691.990484650391 453.30370670947  690.993952712496 453.227131068548  689.997544684571 453.148967739876  L 689.919339836249 454.145905050693  C 690.916806851809 454.224151451757  691.914397909078 454.300808477672  692.912109209027 454.375875836512  L 692.987136703355 453.378694371033  Z M 696.974040781211 453.667818103088  C 696.194754951092 453.613291148641  695.415537330021 453.557793707554  694.636389730715 453.501325908933  C 694.41886363845 453.485343795431  694.201343110654 453.469286045043  693.983828185478 453.453152660584  L 693.909859980056 454.450413260722  C 694.127771138272 454.466576034336  694.345687914756 454.482662978753  694.563610268845 454.49867409097  C 695.343750998385 454.555214278944  696.123961854194 454.61078266689  696.904241020552 454.665379125488  L 696.974040781211 453.667818103088  Z M 700.962746408115 453.938395333274  C 699.965427581523 453.872869596439  698.968213794156 453.805754811829  697.971108843513 453.737051235024  L 697.902368771992 454.734685838758  C 698.900533450962 454.803462434082  699.898807082376 454.870648548637  700.897185864604 454.936243926566  L 700.962746408115 453.938395333274  Z M 704.952565698822 454.192022309548  C 703.954977459266 454.130734722202  702.957487506203 454.067857655119  701.960099638181 454.00339134774  L 701.895599086886 455.001309019135  C 702.894046983921 455.06584384164  703.892597074542 455.128787734801  704.891245556067 455.190140458913  L 704.952565698822 454.192022309548  Z M 708.943426622495 454.428694453015  C 707.945586980093 454.371646121623  706.947838869676 454.313007907227  705.950186090777 454.252780033128  L 705.889926224179 455.250962756119  C 706.888639313639 455.311254640716  707.887447835985 455.369955176114  708.886347987548 455.427064138769  L 708.943426622495 454.428694453015  Z M 712.935257129491 454.648407490876  C 711.937184098901 454.59559944537  710.939195844134 454.541201142296  709.941296165641 454.48521278881  L 709.88527807165 455.483642542546  C 710.884238323215 455.539690400751  711.883287244929 455.594146518616  712.882421032831 455.647010688793  L 712.935257129491 454.648407490876  Z M 716.927985152664 454.851157456508  C 715.929696752754 454.802590650266  714.931486370979 454.752433240602  713.933357808632 454.700685418524  L 713.88158249858 455.699344177695  C 714.880771877154 455.751146997628  715.880043162162 455.80135771485  716.879392548175 455.849976138146  L 716.927985152664 454.851157456508  Z M 720.921538608662 455.036940689532  C 719.923052862296 454.992615999366  718.924638374654 454.946700388629  717.926298948429 454.8991940322  L 717.87876735705 455.898063767361  C 718.878167823713 455.945620613798  719.877643431305 455.991585023878  720.877190373619 456.035956822559  L 720.921538608662 455.036940689532  Z M 724.915845399235 455.205753835881  C 723.917180332525 455.165672062006  722.918579764466 455.123999079158  721.920047497836 455.080735046032  L 721.876760483249 456.07979772393  C 722.876353995165 456.123107738295  723.876015881149 456.164825011408  724.875742334285 456.204949384401  L 724.915845399235 455.205753835881  Z M 728.910833412528 455.357593847859  C 727.912007055241 455.321755713905  726.913238434744 455.284326111279  725.914531355077 455.245305182541  L 725.875489698772 456.244542766438  C 726.87525820962 456.283605166827  727.875088326442 456.321074549823  728.874976241679 456.356950772735  L 728.910833412528 455.357593847859  Z M 732.90643052439 455.492457984199  C 731.90746090879 455.460864137169  730.908542267697 455.427678590522  729.909678405104 455.392901470632  L 729.874882811924 456.392295920634  C 730.874808272328 456.427110001832  731.874788569189 456.460330818245  732.874819894995 456.491958243383  L 732.90643052439 455.492457984199  Z M 736.902564599673 455.61034381011  C 735.90346976092 455.582994820391  734.904419133161 455.554053928836  733.905416520892 455.523521245654  L 733.874867619026 456.523054519034  C 734.874931976467 456.553619652511  735.875044400476 456.582591302598  736.87520108242 456.609969358965  L 736.902564599673 455.61034381011  Z M 740.899163493536 455.711249197321  C 739.899961468946 455.688145558663  738.900796891042 455.663449844689  737.901673564749 455.63716214944  L 737.875371905716 456.636816200966  C 738.875557105476 456.663131834914  739.875783600738 456.687853795623  740.876047582436 456.710981988947  L 740.899163493536 455.711249197321  Z M 744.896155052744 455.79517232412  C 743.896863881675 455.776314453631  742.897603391993 455.755864363081  741.898377389613 455.733822130358  L 741.876323448254 456.733578912616  C 742.87661143333 456.755644571941  743.876933942097 456.77611639695  744.877287165124 456.794994309684  L 744.896155052744 455.79517232412  Z M 748.893467116974 455.862111675389  C 747.894104840081 455.847499913518  746.894766479345 455.8312958156  745.895455840355 455.813499443341  L 745.877650014825 456.813340907062  C 746.878022726358 456.831156193398  747.878423189149 456.847377513117  748.878847593468 456.862004804445  L 748.893467116974 455.862111675389  Z M 752.891027520119 455.912066042627  C 751.891612179753 455.901700653173  750.892213989262 455.889742840423  749.892836755084 455.876192649921  L 749.879279366843 456.87610074431  C 750.879718744447 456.889665336026  751.880179100372 456.901635857599  752.880656624663 456.912012263444  L 752.891027520119 455.912066042627  Z M 756.888764091583 455.945034523975  C 755.889313730747 455.938915694069  754.889873753503 455.931204382373  753.890447966448 455.921900618257  L 753.881139260256 456.921857291313  C 754.881627242339 456.931170943519  755.882129429429 456.938890450836  756.88264201141 456.945015783866  L 756.888764091583 455.945034523975  Z M 760.886604657597 455.961016524231  C 759.887137320025 455.959144364341  758.887673599576 455.955679692916  757.888217302937 455.950622523153  L 757.883157446851 456.950609721999  C 758.883675970943 456.955672266549  759.884201926472 456.959140620244  760.884731503232 456.961014769875  L 760.886604657597 455.961016524231  Z M 764.884477042507 455.960011754861  C 763.885010772139 455.962386298786  762.885541352669 455.963168330183  761.886072590187 455.962357846073  L 761.885261675555 456.962357517282  C 762.885792678533 456.963168862778  763.886324339554 456.962386000235  764.886852847769 456.960008932632  L 764.884477042507 455.960011754861  Z M 768.88230907009 455.942020234006  C 767.882861911053 455.948641438877  766.883404836435 455.953670158976  765.88394165228 455.957106375152  L 765.887379693743 456.95710046507  C 766.887905112568 456.953660596866  767.888424415409 456.948626532217  768.888933792086 456.941998290294  L 768.88230907009 455.942020234006  Z M 772.880028564849 455.907042286478  C 771.88061856082 455.917910032759  770.881191874913 455.927185350773  769.881752313053 455.934868205198  L 769.889439248541 456.934838660273  C 770.889941019965 456.92714764047  771.890429901799 456.917862464599  772.890902083979 456.906983168021  L 772.880028564849 455.907042286478  Z M 776.87756335332 455.855078543757  C 775.878208547307 455.870192635245  774.878830293418 455.88371438372  773.879432397395 455.895643737692  L 773.89136808813 456.895572504798  C 774.891828149436 456.883630472247  775.892268547778 456.870094352786  776.892685473276 456.854964197963  L 776.87756335332 455.855078543757  Z M 780.874841265373 455.786129943979  C 779.87555969949 455.805490107806  778.876247919847 455.82325804263  777.876909732552 455.839433680778  L 777.893093963052 456.839302707542  C 778.893494252274 456.823109877841  779.893868105514 456.805323059166  780.894211713145 456.785942319254  L 780.874841265373 455.786129943979  Z M 784.871790135514 455.700197731918  C 783.872599850243 455.723803618568  782.873372586494 455.745817418957  781.874112149431 455.766239049253  L 781.894544627512 456.766030284382  C 782.894867083661 456.745586949872  783.895156331598 456.723549753096  784.895408561396 456.699918777989  L 784.871790135514 455.700197731918  Z M 788.868337804191 455.597283458965  C 787.869256838781 455.62513464226  786.87013213022 455.651393910793  785.870967483904 455.67606116455  L 785.895647840684 456.675756558152  C 786.89587440459 456.651063087904  787.896060987722 456.624775910894  788.896203781785 456.59689512721  L 788.868337804191 455.597283458965  Z M 792.864412119097 455.477388983099  C 791.86545851051 455.509484960226  790.866454395201 455.539989222823  789.867403578106 455.568901654708  L 789.896331368015 456.568483158624  C 790.896443981618 456.539539998453  791.896509843537 456.509003315772  792.896525145318 456.476873226871  L 792.864412119097 455.477388983099  Z M 796.859940936467 455.340516468855  C 795.861132719369 455.376856660367  794.862267233198 455.411605366307  793.863348281743 455.444762454349  L 793.896522982529 456.444212022475  C 794.89650359024 456.411019694908  795.896430675892 456.376234057861  796.896300431559 456.339855243804  L 796.859940936467 455.340516468855  Z M 800.854852122387 455.186668387282  C 799.856207329023 455.227252137102  798.857498504961 455.266244659051  797.858729453392 455.303645804639  L 797.896150466129 456.302945393254  C 798.89598101464 456.265504497533  799.895751271682 456.226470534128  800.895457429927 456.185843651687  L 800.854852122387 455.186668387282  Z M 804.849073554092 455.015847515901  C 803.850610213655 455.060674091344  802.85207608205 455.103909725343  801.853474961803 455.145554253251  L 801.895141610906 456.14468582134  C 802.894804049616 456.102997033412  803.894399428538 456.059715448354  804.893923941006 456.014841230993  L 804.849073554092 455.015847515901  Z M 808.842533121271 454.828056938653  C 807.844269259678 454.877125530437  806.845927847724 454.924603495924  805.847512687203 454.970490654315  L 805.893424220436 455.969436163898  C 806.892900501782 455.923500236397  807.892302956227 455.875971811078  808.891627777845 455.82685106894  L 808.842533121271 454.828056938653  Z M 812.835158727365 454.623300045846  C 811.837112366931 454.676609768101  810.838981698345 454.728329207927  809.840770522597 454.77845816837  L 809.890926111088 455.777199584825  C 810.890198190865 455.727017347063  811.889389677964 455.675242939545  812.888496767261 455.621876559439  L 812.835158727365 454.623300045846  Z M 816.826878290874 454.40158053409  C 815.829067450091 454.459130424377  814.831165544576 454.515090404827  813.833176375069 454.569460262305  L 813.887575113327 455.567979554696  C 814.886624951017 455.513551912645  815.885587431708 455.457532457645  816.884458751145 455.39992140303  L 816.826878290874 454.40158053409  Z M 820.817619746653 454.162902406235  C 819.820062439451 454.224691425578  818.822407313202 454.284890936347  817.824658167085 454.343500709297  L 817.883299073014 455.341779850696  C 818.882108632112 455.283107786975  819.880824071466 455.222844295849  820.879441587762 455.160989606816  L 820.817619746653 454.162902406235  Z M 824.807311047217 453.907269971294  C 823.81002528326 453.973297004169  822.812634947395 454.037734958448  821.815143837794 454.100583588742  L 821.87802585271 455.098604556558  C 822.87657710105 455.035689130412  823.875027468599 454.971182691138  824.873373153053 454.905085484389  L 824.807311047217 453.907269971294  Z M 828.79588016404 453.634687844367  C 827.798883947984 453.704951698746  826.801776409048 453.773626933192  825.804561344328 453.840713286184  L 825.871683332981 454.838458062487  C 826.869958243059 454.77130040977  827.868125513119 454.702552186924  828.866181341939 454.632213655756  L 828.79588016404 453.634687844367  Z M 832.783255088854 453.34516094656  C 831.786566420129 453.419660353922  830.789759679563 453.492571628697  829.792838663104 453.563894493233  L 829.864199413697 454.561345065078  C 830.862179962893 454.489946398239  831.860046115101 454.416957632963  832.857794069624 454.342379047251  L 832.783255088854 453.34516094656  Z M 836.769363834953 453.038694504892  C 835.773000707539 453.117428120242  834.776512761144 453.194574119047  833.779903791122 453.270132207479  L 833.855502015332 454.267270567235  C 834.853170186654 454.191632175266  835.850717205461 454.114404185304  836.848139272892 454.03558689145  L 836.769363834953 453.038694504892  Z M 840.754134438488 452.715294052204  C 839.758114840282 452.79826045412  838.761963678519 452.879639784172  837.765684747269 452.959431732408  L 837.845519080271 453.956239878078  C 838.842856862054 453.876363126536  839.840066738294 453.794897306122  840.837144911411 453.711842727074  L 840.754134438488 452.715294052204  Z M 844.737494959768 452.374965427057  C 843.74183687257 452.462163117693  842.746040479611 452.547774309797  841.750109573614 452.631798677301  L 841.834178574107 453.628258612851  C 842.831167960754 453.544144943803  843.828022691139 453.458442763693  844.824738969034 453.371152398889  L 844.737494959768 452.374965427057  Z M 848.719373484562 452.017714773629  C 847.724094883539 452.109142178756  846.728671237361 452.198983687298  845.733106336709 452.287238957131  L 845.82140848694 453.283332692813  C 846.818031479145 453.19498362482  847.814513066799 453.105046632251  848.810849455096 453.013522057603  L 848.719373484562 452.017714773629  Z M 852.699698125393 451.643548541601  C 851.704816979068 451.73920401061  850.709784050503 451.833274213641  849.71460312889 451.925758792464  L 849.807136834681 452.921468345141  C 850.803375439753 452.828885473227  851.799465894537 452.73471529189  852.795404405718 452.638958159751  L 852.699698125393 451.643548541601  Z M 856.678397022835 451.252473486042  C 855.683931292455 451.352355292003  854.689307045487 451.450652491211  853.69452806957 451.547364709339  L 853.791291660349 452.54267210281  C 854.787127892433 452.445857098444  855.782809231477 452.347455428437  856.778331885104 452.247467467583  L 856.678397022835 451.252473486042  Z M 860.655398346817 450.844496667288  C 859.661365986126 450.948603006969  858.667168377363 451.051125427729  857.672809306542 451.152063539153  L 857.773801035373 452.146950804479  C 858.769216916186 452.045905415506  859.764471163386 451.943274033378  860.759559986839 451.839057048938  L 860.655398346817 450.844496667288  Z M 864.630630297912 450.419625450814  C 863.637049252934 450.527954444703  862.643296231075 450.634700236133  861.649375017272 450.739862418539  L 861.754593060885 451.734311594364  C 862.749570619426 451.629037645033  863.744379807006 451.522178403637  864.739016835189 451.413734277119  L 864.630630297912 450.419625450814  Z M 868.604021108637 449.9778675071  C 867.610909316838 450.090417199496  866.617618823378 450.201384434377  865.624153410199 450.310768789236  L 865.733595869023 451.304761922113  C 866.728117142204 451.195261313015  867.722463310424 451.084176141529  868.716630586396 450.971506830757  L 868.604021108637 449.9778675071  Z M 872.57549904475 449.519230811492  C 871.582874435739 449.635999170427  870.59006440259 449.751185845462  869.59707272603 449.864790397954  L 869.710737624228 450.85830954267  C 870.704784657506 450.74458425067  871.698649854369 450.629275154632  872.692329429977 450.512382693677  L 872.57549904475 449.519230811492  Z M 876.544992406543 449.043723644062  C 875.552872900723 449.164708561452  874.560561251944 449.284112597077  873.568061239034 449.401935296234  L 873.685946524538 450.394962516134  C 874.679501371726 450.277014594387  875.672867654329 450.157483655551  876.666041590021 450.036370154749  L 876.544992406543 449.043723644062  Z M 880.512429530135 448.551354589454  C 879.520833038895 448.676553881078  878.52903768934 448.800173121613  877.537047258337 448.922211840305  L 877.659150802887 449.914729207613  C 878.652195526377 449.792560785549  879.645044961439 449.66881016181  880.637695326485 449.543477807741  L 880.512429530135 448.551354589454  Z M 884.477328751797 448.040229669082  C 883.48625878665 448.169973321374  882.495004929596 448.298308394985  881.503570184028 448.425234501073  L 881.630556426556 449.417138979442  C 882.622930971691 449.290092557721  883.615124456524 449.161635832931  884.607133875456 449.0317691942  L 884.477328751797 448.040229669082  Z M 888.440615031346 447.513744330849  C 887.450043895117 447.647243076891  886.459283529972 447.779333951294  885.468336937809 447.910016553837  L 885.599081456585 448.901432647518  C 886.590967385585 448.770626168489  887.58266691072 448.638410082714  888.574177027885 448.504784790709  L 888.440615031346 447.513744330849  Z M 892.401877537682 446.972242437095  C 891.411819458101 447.109494359424  890.421566815314 447.245339137377  889.431122609681 447.37977635936  L 889.565623526802 448.370689828485  C 890.557006593051 448.236125170942  891.548197914547 448.100151623223  892.539194488728 447.962769597226  L 892.401877537682 446.972242437095  Z M 896.361059374556 446.4157317655  C 895.371528571987 446.556734892744  894.381797874716 446.696331623087  893.391870281521 446.834521533566  L 893.530125665128 447.824918145487  C 894.520991629027 447.686597242232  895.511660510656 447.54686818552  896.502129307805 447.4057313988  L 896.361059374556 446.4157317655  Z M 900.318103675608 445.844220309316  C 899.329114362839 445.988972616224  898.339919826745 446.132319293907  897.350523064477 446.274259908038  L 897.492530928785 447.264125437529  C 898.482865558778 447.122050275231  899.472997770584 446.978567716594  900.462924564848 446.833678196262  L 900.318103675608 445.844220309316  Z M 904.272953605177 445.257716277252  C 903.28451998722 445.406215684724  902.295875820261 445.553310250835  901.307024099784 445.698999529903  L 901.452782405112 446.688319759368  C 902.442571476659 446.542492378703  903.432152797625 446.395258378945  904.421523370324 446.246618206102  L 904.272953605177 445.257716277252  Z M 908.22555235912 444.656228093359  C 907.237688633006 444.808472468475  906.249609035237 444.959312810272  905.261316559585 445.108748661718  L 905.410823212384 446.097509381391  C 906.400052508986 445.947931876902  907.389068725597 445.796948550769  908.377868866242 445.644559860358  L 908.22555235912 444.656228093359  Z M 912.17584316563 444.03976439691  C 911.188563520204 444.195751552959  910.201062683568 444.350335503897  909.213343647746 444.503515781351  L 909.366596500628 445.491702789504  C 910.355251813622 445.338377309628  911.343688720888 445.183646825653  912.331904226981 445.027511806489  L 912.17584316563 444.03976439691  Z M 916.123769286048 443.40833404227  C 915.137087901764 443.568061738784  914.150180009896 443.726387078549  913.16304860067 443.883309581857  L 913.320045452439 444.870908685003  C 914.308112582019 444.713837431915  915.295955982046 444.555362012645  916.283572660097 444.395482907256  L 916.123769286048 443.40833404227  Z M 920.069274015679 442.761946098775  C 919.0832050644 442.925412041559  918.096904292416 443.087476496099  917.110374688111 443.248138971359  L 917.271113283796 444.235135984454  C 918.258578037789 444.074321214257  919.24581374284 443.91210313577  920.232817407146 443.74848224059  L 920.069274015679 442.761946098775  Z M 924.012300684608 442.100609850598  C 923.026858329401 442.267811691765  922.041178843695 442.433612933323  921.055265213995 442.598013072913  L 921.219743244882 443.58439381956  C 922.206591440581 443.419837841998  923.193205270016 443.25387943439  924.179581744492 443.086519099467  L 924.012300684608 442.100609850598  Z M 927.952792658512 441.424334796618  C 926.967991053442 441.59527013462  925.982947011488 441.764805781766  924.997663517227 441.932941224382  L 925.165878620892 442.918691537037  C 926.152096083834 442.750396715685  927.13807386717 442.580700362578  928.123808984129 442.409602991767  L 927.952792658512 441.424334796618  Z M 931.890693339474 440.733130650281  C 930.906546629405 440.907797029947  929.922152179547 441.081064647614  928.93751297251 441.252932978298  L 929.109462732853 442.238038698472  C 930.095035297635 442.066007450613  931.080362873521 441.89257558931  932.065442474489 441.717743640147  L 931.890693339474 440.733130650281  Z M 935.825946166798 440.027007339463  C 934.842468487185 440.205402252032  933.858737768439 440.382399351548  932.874756991157 440.557998101729  L 933.050438938435 441.54244508019  C 934.035352449324 441.366679876701  935.020015664936 441.189514998303  936.004425601261 441.010950981891  L 935.825946166798 440.027007339463  Z M 939.758494617816 439.305975006326  C 938.775700094508 439.488095889484  937.792647236355 439.668819928612  936.8093390219 439.848146576137  L 936.988750632766 440.831920673116  C 937.972990943293 440.65242403854  938.956975655755 440.471528687693  939.940701788199 440.289235168776  L 939.758494617816 439.305975006326  Z M 943.688282208708 438.570044007173  C 942.706184957536 438.755888245126  941.723824080128 438.940336628022  940.74120255171 439.123388597231  L 940.924341249246 440.106475682623  C 941.907894222813 439.923250195061  942.891186298589 439.738626970071  943.874214497939 439.552606566922  L 943.688282208708 438.570044007173  Z M 947.615252495304 437.819224912298  C 946.633866622694 438.008789835659  945.652211835024 438.196959913214  944.670291106602 438.383734574826  L 944.857154260357 439.366120528395  C 945.840005769628 439.17916881962  946.82259108635 438.990820372108  947.804907232808 438.801075756644  L 947.615252495304 437.819224912298  Z M 951.539349073902 437.053528505837  C 950.558688675455 437.246811391893  949.577754077594 437.438700461313  948.596548252447 437.629195132692  L 948.787133178476 438.610865844271  C 949.769269106802 438.420190599463  950.751133551033 438.228119634783  951.732723535639 438.034653532298  L 951.539349073902 437.053528505837  Z M 955.460515582077 436.272965785609  C 954.480594743173 436.469963858207  953.500394424442 436.665569163359  952.519917595787 436.8597811084  L 952.714221556688 437.840722478094  C 953.695627797696 437.646326435912  954.676757266354 437.450535712891  955.657606990577 437.253350902129  L 955.460515582077 436.272965785609  Z M 959.378695699485 435.477547962961  C 958.399528494681 435.678258392628  957.42007653426 435.877577123919  956.44034278464 436.075503553166  L 956.638362989595 437.055701491559  C 957.619025446784 436.857587444224  958.599405848561 436.658079774873  959.579501223894 436.457179088113  L 959.378695699485 435.477547962961  Z M 963.293833148679 434.667286462607  C 962.315433642317 434.871706366424  961.336744107419 435.074735661172  960.357767509312 435.276373731694  L 960.559501114124 436.255814160045  C 961.539405702488 436.053984953019  962.519022955213 435.850763203065  963.498349904795 435.646149525792  L 963.293833148679 434.667286462607  Z M 967.205871695913 433.842192922463  C 966.228253940698 434.050319364355  965.250340888805 434.257056306336  964.272135503205 434.462403122013  L 964.477579610343 435.441071972464  C 965.456712255153 435.235530504693  966.435552288831 435.028597592959  967.414096746229 434.820273864114  L 967.205871695913 433.842192922463  Z M 971.114755151953 433.002279193478  C 970.137933189566 433.214109184093  969.160810666597 433.42455080391  968.183390543625 433.633603415314  L 968.392542202262 434.611486631086  C 969.370888839876 434.402235854839  970.348937595677 434.19159475345  971.326685505698 433.979563965262  L 971.114755151953 433.002279193478  Z M 975.020427372879 432.147557339469  C 974.044415233569 432.363087836258  973.068097274094 432.577231111305  972.091476452591 432.789986515779  L 972.304332658649 433.76707005138  C 973.281879237323 433.554112972073  974.259122666566 433.339766706673  975.236059986065 433.124031904488  L 975.020427372879 432.147557339469  Z M 978.922832260898 431.278039636941  C 977.947643963082 431.497267544251  976.972144590514 431.715109398664  975.996337097639 431.931564540413  L 976.212894793829 432.907834361836  C 977.189627272703 432.691174038248  978.16605133949 432.47312568744  979.142164036358 432.253689969936  L 978.922832260898 431.278039636941  Z M 982.821913765142 430.393738574917  C 981.84756331601 430.616660743851  980.872896540795 430.838198048913  979.897916392632 431.058349818869  L 980.118172468502 432.033791903793  C 981.094076818611 431.813431447851  982.069667498405 431.591684143499  983.04494155258 431.368550662466  L 982.821913765142 430.393738574917  Z M 986.717615882481 429.494666854755  C 985.744117276582 429.721280083492  984.770297098418 429.946509657136  983.796158298561 430.170354893267  L 984.020109590537 431.144955231263  C 984.99517179461 430.920897808086  985.96991507525 430.695454735089  986.944336478513 430.468626695475  L 986.717615882481 429.494666854755  Z M 990.609882658322 428.580837389964  C 989.637249877971 428.81113842367  988.664290284397 429.040057030794  987.691006824355 429.267592518023  L 987.91865011579 430.24133711075  C 988.892856169052 430.013585938464  989.866738049743 429.784450334989  990.840292806523 429.553930994715  L 990.609882658322 428.580837389964  Z M 994.498658187416 427.652263306025  C 993.526905202893 427.886248836802  992.554820168281 428.118853189504  991.582406027682 428.350075659656  L 991.813738048897 429.322950521064  C 992.787073958874 429.09150887085  993.76008045119 428.858684028103  994.732754578368 428.624476698107  L 994.498658187416 427.652263306025  Z M 998.383886614656 426.708957940195  C 997.413027383608 426.946624607222  996.441830869766 427.182911364667  995.470300015751 427.417817496608  L 995.705317444089 428.38980865314  C 996.6777692304 428.154679849277  997.649886359296 427.918169111264  998.621665885996 427.680277155552  L 998.383886614656 426.708957940195  Z M 1002.26551213588 425.75093484132  C 1001.29556060272 425.992279231001  1000.3252665595 426.232244999268  999.35463294612 426.470831419051  L 999.593332405988 427.441924909843  C 1000.56488610095 427.203112329573  1001.53609990416 426.962919093237  1002.50697087235 426.721345928739  L 1002.26551213588 425.75093484132  Z M 1006.1434789987 424.778207769639  C 1005.17444909498 425.023226415506  1004.20507145887 425.266867747928  1003.23534902749 425.509131028699  L 1003.47772709041 426.47931290578  C 1004.44836873985 426.236819979107  1005.41866526686 425.99294769458  1006.38861373218 425.74769679095  L 1006.1434789987 424.778207769639  Z M 1010.01773150323 423.790790696587  C 1009.04963714709 424.039480079449  1008.08118984182 424.286793476465  1007.11239252053 424.532730138608  L 1007.35844570518 425.5019864671  C 1008.32816136741 425.255816677039  1009.2975266821 425.008268846999  1010.26653871282 424.759343726863  L 1010.01773150323 423.790790696587  Z M 1013.88821400298 422.788697804593  C 1012.92106909971 423.041054352382  1011.95356603445 423.292036261994  1010.98570773862 423.54164277298  L 1011.23543251091 424.509959631299  C 1012.20420825775 424.260116513626  1013.17262843698 424.008896693641  1014.14069011501 423.756300932353  L 1013.88821400298 422.788697804593  Z M 1017.75487090558 421.771943486877  C 1016.78868934624 422.027963575008  1015.82214441779 422.28261039222  1014.85523904873 422.535883166961  L 1015.10863182182 423.503246647018  C 1016.07645373839 423.249733790321  1017.04391487297 422.994845588598  1018.01101229371 422.738582814282  L 1017.75487090558 421.771943486877  Z M 1021.61764667362 420.740542347244  C 1020.65244233564 421.000222298459  1019.68686942663 421.258530365739  1018.72093087217 421.515465766438  L 1018.97798800653 422.481861973836  C 1019.94484219204 422.22468301931  1020.91133038579 421.966130096951  1021.87744965885 421.7062039903  L 1021.61764667362 420.740542347244  Z M 1025.47648582545 419.694509199875  C 1024.5122725722 419.957845284349  1023.54768555131 420.219810891576  1022.58272768537 420.480405227829  L 1022.84344548886 421.445820282064  C 1023.80931805643 421.184978923558  1024.77481942712 420.922764994309  1025.73994667617 420.659179288628  L 1025.47648582545 419.694509199875  Z M 1029.33133293592 418.633859069109  C 1028.36812461656 418.900847504504  1027.40453733831 419.166466889025  1026.44057402073 419.430716417873  L 1026.70494874861 420.395136452536  C 1027.66982582508 420.130636436609  1028.63432650545 419.864765266583  1029.59844786802 419.597523747849  L 1029.33133293592 418.633859069109  Z M 1033.18213263727 417.558607189236  C 1032.2199430865 417.829244140754  1031.25736939105 418.098513487435  1030.2944144674 418.366414413421  L 1030.56244232242 419.32982557639  C 1031.52631004908 419.061670702098  1032.48979618586 418.792146110047  1033.45289781412 418.521252616693  L 1033.18213263727 417.558607189236  Z M 1037.02882961983 416.468769004269  C 1036.06767265774 416.743050584709  1035.10612637069 417.01596602599  1034.14419367204 417.28751450121  L 1034.41587080446 418.249902954858  C 1035.37871533694 417.978097073809  1036.34117309182 417.704922930843  1037.30324115239 417.430381353812  L 1037.02882961983 416.468769004269  Z M 1040.87136863288 415.364360167729  C 1039.91125806473 415.64228243754  1038.95075299691 415.918840053494  1037.98985633965 416.194032177653  L 1038.26517884735 417.155384099041  C 1039.22698635655 416.879931115113  1040.1884019048 416.603111345103  1041.14942257974 416.324925627567  L 1040.87136863288 415.364360167729  Z M 1044.70969448541 414.245396542417  C 1043.75064410122 414.526955509815  1042.79119404893 414.807151328085  1041.83134723438 415.085983148612  L 1042.11031116284 416.046284729689  C 1043.07106783377 415.767188599371  1044.03142736722 415.486727178094  1044.99138685284 415.204901315793  L 1044.70969448541 414.245396542417  Z M 1048.54375204695 413.111894200185  C 1047.58577562191 413.397085821037  1046.62739436548 413.68091581724  1045.66861118027 413.963383329173  L 1045.9512125227 414.922620776972  C 1046.91090455605 414.639885508911  1047.87019428051 414.355786464794  1048.82907878895 414.070324505581  L 1048.54375204695 413.111894200185  Z M 1052.37348624831 411.963869421711  C 1051.41659754218 412.252689599703  1050.45929884661 412.540149697262  1049.50159306209 412.826248843415  L 1049.78782775943 413.784408380257  C 1050.746441371 413.498038035423  1051.70464750803 413.210305449026  1052.66244326669 412.921211493037  L 1052.37348624831 411.963869421711  Z M 1056.1988420824 410.801338696256  C 1055.24305483894 411.093783283078  1054.28685245444 411.38486935304  1053.3302378261 411.674596024184  L 1053.62010176712 412.631663887869  C 1054.57762318838 412.341662579387  1055.53473197472 412.050300583579  1056.49142522682 411.757578783056  L 1056.1988420824 410.801338696256  Z M 1059.35586853805 409.829967787173  C 1058.62232298895 410.056926745702  1057.88852986576 410.283084755759  1057.15449048087 410.508441412854  L 1057.4479795022 411.464403856863  C 1058.40439497993 411.170775750126  1059.36039266887 410.875788529668  1060.31596967307 410.57944308908  L 1059.35586853805 409.829967787173  Z M 332.914090428949 353.868220768171  C 332.015522725164 353.430466072874  331.117577614581 352.991434550322  330.22025781676 352.551127530187  L 329.77974218324 353.448872469813  C 330.677912567119 353.889596865129  331.576708856776 354.329044553925  332.476128329533 354.767214205007  L 332.914090428949 353.868220768171  Z M 1061.7877536892 417.478979460368  L 1070 407  L 1057.24527751997 403.18331892117  L 1061.7877536892 417.478979460368  Z " fill-rule="nonzero" fill="#1f8aee" stroke="none" />
  </g>
</svg>