<?xml version="1.0" encoding="utf-8"?>
<svg version="1.1" xmlns:xlink="http://www.w3.org/1999/xlink" width="252px" height="22px" viewBox="696 886  252 22" xmlns="http://www.w3.org/2000/svg">
  <g transform="matrix(-0.559192903470749 -0.829037572555044 0.829037572555041 -0.559192903470747 538.009864071084 2080.06491905351 )">
    <path d="M 1090.73013014957 673.146726107462  C 1091.65088869136 672.75850046249  1092.57251140711 672.372327581594  1093.49499142878 671.98821034258  L 1093.11058875008 671.065044820798  C 1092.1867369638 671.449733257475  1091.26374375841 671.836480392806  1090.34161601193 672.225283344805  L 1090.73013014957 673.146726107462  Z M 1087.05173420202 674.710564363293  C 1087.97016898079 674.316872858626  1088.88948011927 673.925228945379  1089.80966076667 673.535635542131  L 1089.41977785436 672.614771103306  C 1088.49822886167 673.004943847472  1087.57755067086 673.397170150836  1086.65775014298 673.791447090461  L 1087.05173420202 674.710564363293  Z M 1083.38269822308 676.296238296527  C 1084.29877679246 675.897094840455  1085.21574387621 675.499993730873  1086.13359264128 675.104937926903  L 1085.73824326914 674.186407103282  C 1084.81902962632 674.582050370997  1083.90069897604 674.979741985725  1082.98325816127 675.379478984044  L 1083.38269822308 676.296238296527  Z M 1079.72315183223 677.903691888565  C 1080.636841829 677.499110582026  1081.55143246356 677.096566304834  1082.46691692055 676.696062056672  L 1082.06611505544 675.779897298058  C 1081.14926923658 676.180997111999  1080.23331856927 676.584139988586  1079.31826987906 676.989322923651  L 1079.72315183223 677.903691888565  Z M 1076.07322431373 679.532868351378  C 1076.98449345905 679.122863487419  1077.8966753339 678.714890263636  1078.80976314059 678.308951720293  L 1078.40352294202 677.395185392904  C 1077.48907733733 677.80172758306  1076.57553901175 678.210307479255  1075.66291477284 678.620922036809  L 1076.07322431373 679.532868351378  Z M 1072.433044612 681.183710129513  C 1073.34186071266 680.768296192741  1074.2516016022 680.354908435263  1075.16226050111 679.943549937694  L 1074.75059632072 679.032214323014  C 1073.83858323569 679.444184527085  1072.92748952526 679.858187008602  1072.01732197879 680.274218682476  L 1072.433044612 681.183710129513  Z M 1068.8027413271 682.856158902126  C 1069.70907227655 682.435350568239  1070.61634004141 682.016562881249  1071.52453786089 681.59979896188  L 1071.10746424192 680.690926255523  C 1070.19791589609 681.108309919449  1069.28929898788 681.527720360432  1068.38162028819 681.949154453082  L 1068.8027413271 682.856158902126  Z M 1065.1824427102 684.55015558504  C 1066.08625648948 684.123967720398  1066.99101907803 683.699794898672  1067.89672373317 683.277640280982  L 1067.47425540998 682.37126259155  C 1066.56720393583 682.794044970025  1065.66109592941 683.218848553565  1064.75593814292 683.645670176592  L 1065.1824427102 684.55015558504  Z M 1061.57227665897 686.265640332839  C 1062.4735413384 685.834087993693  1063.37576678687 685.404545022561  1064.27894628118 684.977014620315  L 1063.85109817871 684.073163968268  C 1062.94657562049 684.501330125261  1062.04300852679 684.931511843922  1061.14040363087 685.363705918595  L 1061.57227665897 686.265640332839  Z M 1057.97237071318 688.002552540974  C 1058.87105445278 687.565650973247  1059.77071088768 687.130753027446  1060.67133331355 686.697861944481  L 1060.23812054678 685.796570261003  C 1059.33615885942 686.230105070283  1058.43516459961 686.665649726629  1057.53514448144 687.103200984422  L 1057.97237071318 688.002552540974  Z M 1054.38285205009 689.760830847909  C 1055.27892310126 689.318595486414  1056.17597873949 688.878357930037  1057.07401227982 688.440121459482  L 1056.63545015327 687.541420585355  C 1055.73608120123 687.98030873103  1054.83769160558 688.421200938164  1053.940288061 688.86409392129  L 1054.38285205009 689.760830847909  Z M 1050.80384748001 691.540413137289  C 1051.6972741864 691.09285960529  1052.59169733683 690.647297991026  1053.48711026595 690.203731614874  L 1053.04321427312 689.307653299351  C 1052.14646982924 689.751879276405  1051.25071663601 690.198103458513  1050.35596136846 690.646322520474  L 1050.80384748001 691.540413137289  Z M 1047.23548344182 693.341236540132  C 1048.12623424055 692.888380648751  1049.01799330495 692.437510717421  1049.91075398981 691.988630105938  L 1049.46153981263 691.095206005623  C 1048.56745155705 691.544754120465  1047.67436641136 691.996294513364  1046.78229103069 692.449823819503  L 1047.23548344182 693.341236540132  Z M 1043.67788599846 695.16323743705  C 1044.56592942105 694.705095184803  1045.4549928956 694.248932864621  1046.3450697967 693.79475387588  L 1045.89055330499 692.904015553609  C 1044.99915282402 693.35886992463  1044.10876727672 693.815710576327  1043.21940329812 694.274534104386  L 1043.67788599846 695.16323743705  Z M 1040.13118083255 697.0063514605  C 1041.01648550629 696.542939032586  1041.90282198211 696.081500438875  1042.79018365492 695.622039118064  L 1042.33038090581 694.734018041789  C 1041.44169969078 695.194162599919  1040.55404519737 695.656287371174  1039.66742404025 696.120388911861  L 1040.13118083255 697.0063514605  Z M 1036.59549324189 698.870513497055  C 1037.47802789079 698.401847264881  1038.36160605543 697.935148699319  1039.24622115128 697.47042127826  L 1038.78114838865 696.585148819939  C 1037.89521783485 697.050567309218  1037.01032575434 697.517959874112  1036.12647874119 697.987323031675  L 1036.59549324189 698.870513497055  Z M 1033.07094813504 700.755657689704  C 1033.95068158097 700.281754210285  1034.83147021943 699.80981216037  1035.71330748669 699.339835056928  L 1035.24298114061 698.457342491417  C 1034.35983254614 698.928018469566  1033.47773413994 699.400662316082  1032.59669249527 699.875270508886  L 1033.07094813504 700.755657689704  Z M 1029.55767002692 702.661717440179  C 1030.43457119071 702.182593455551  1031.31253918655 701.705424594026  1032.19156747172 701.230214411525  L 1031.71600415785 700.35053291547  C 1030.83566872249 700.826449754501  1029.95639515341 701.304328185054  1029.07819000256 701.784164646192  L 1029.55767002692 702.661717440179  Z M 1026.05578303444 704.588625411312  C 1026.92982093697 704.104297847938  1027.80493727338 703.621919032198  1028.68112552221 703.141492558836  L 1028.20034204122 702.264653209576  C 1027.3228508655 702.745794096275  1026.44643319629 703.228890228503  1025.57109556452 703.713938006291  L 1026.05578303444 704.588625411312  Z M 1022.56541087206 706.536313529406  C 1023.43655463541 706.046799497559  1024.30878839624 705.559227769105  1025.18210565483 705.073601977336  L 1024.69611899182 704.199635751801  C 1023.8215030757 704.685983688451  1022.94797226839 705.174280455561  1022.0755330796 705.664522414257  L 1022.56541087206 706.536313529406  Z M 1019.08667684744 708.504712986647  C 1019.95489569585 708.010029779874  1020.82421606696 707.517282363563  1021.69463148278 707.026474409573  L 1021.20345880666 706.155412183192  C 1020.33174904843 706.646949988171  1019.46113596325 707.140430139541  1018.59162603881 707.635848959957  L 1019.08667684744 708.504712986647  Z M 1015.6197038571 710.49375424353  C 1016.48496711818 709.993919337973  1017.35134338829 709.496013641557  1018.21882621134 709.00004086458  L 1017.72248487422 708.13191341019  C 1016.85371206964 708.628623718453  1015.98604746347 709.127269820497  1015.11949752143 709.627848000479  L 1015.6197038571 710.49375424353  Z M 1012.16461438207 712.50336703132  C 1013.02689148781 711.998398085143  1013.8902930497 711.495351698554  1014.75481263356 710.994231620316  L 1014.25332017016 710.129069607074  C 1013.38751501123 710.630934870841  1012.52282953678 711.134729307469  1011.65927019062 711.640449162593  L 1012.16461438207 712.50336703132  Z M 1008.72153048355 714.533480354529  C 1009.58079097152 714.023395207221  1010.4411873229 713.515225902105  1011.30271312591 713.00897622612  L 1010.79608725293 712.146810218422  C 1009.93328032672 712.653812707851  1009.07160453165 713.16273768099  1008.21106628909 713.67358134524  L 1008.72153048355 714.533480354529  Z M 1005.29057379861 716.58402249343  C 1006.14678731295 716.068839165223  1007.0041480577 715.55556489421  1007.86264964397 715.044203505212  L 1007.35090825947 714.185063961608  C 1006.49113004716 714.697185765344  1005.6324943727 715.211223295722  1004.77500763479 715.727172722043  L 1005.29057379861 716.58402249343  Z M 1001.8718655359 718.654921006586  C 1002.72500182825 718.134657697902  1003.57929667776 717.616296593809  1004.43474371811 717.099841557197  L 1003.91790490085 716.243758829321  C 1003.06118577661 716.760981855181  1002.20562055668 717.280113782855  1001.35121561662 717.801150743841  L 1001.8718655359 718.654921006586  Z M 998.465526471347 720.746102733414  C 999.315555402208 720.220777824057  1000.1667541759 719.69734819957  1001.01911644919 719.175817760612  L 1000.49719845802 718.322822092104  C 999.643568688017 718.845128067637  998.791104147888 719.369336052797  997.939811190086 719.895442141257  L 998.465526471347 720.746102733414  Z M 995.071676943904 722.857493796763  C 995.918568483544 722.327125845355  996.766641110236 721.79864619222  997.615888504304 721.272058775486  L 997.088909777517 720.42218030093  C 996.238399518727 720.949550774139  995.389065774217 721.478816297596  994.540914873106 722.009972927284  L 995.071676943904 722.857493796763  Z M 991.690436851293 724.989019605531  C 992.534161080733 724.453627348908  993.379077599849 723.920116337169  994.225180112486 723.388490545937  L 993.693159267156 722.541759289791  C 992.845798566406 723.074175629735  991.999625622641 723.608479993681  991.154646741691 724.144668399899  L 991.690436851293 724.989019605531  Z M 988.321925645773 727.140604857294  C 989.16245275797 726.600207209764  990.004183320348 726.061683687268  990.847111060493 725.525038302783  L 990.310066891822 724.681484178322  C 989.465885684534 725.218927575881  988.62290343524 725.758251904331  987.781126425729 726.299453144701  L 988.321925645773 727.140604857294  Z M 984.968726993583 729.314735838695  C 985.805217528275 728.76827505754  986.643072308266 728.223905436279  987.482283485698 727.681632073812  L 986.939558333577 726.841721715943  C 986.098947921108 727.384899222575  985.259696167611 727.93017648315  984.421810934069 728.477548390244  L 984.968726993583 729.314735838695  Z M 981.630074264359 731.511709898585  C 982.462904785733 730.959687143043  983.297113456943 730.409746410069  984.13269246428 729.861892850744  L 983.584382466217 729.025617689075  C 982.747410279838 729.574384696548  981.911810714359 730.125242357672  981.077591596554 730.678185512754  L 981.630074264359 731.511709898585  Z M 978.306135599132 733.730882901303  C 979.135269125177 733.17332268406  979.965794644526 732.617835259518  980.79770437771 732.064425830887  L 980.243833881494 731.231823000348  C 979.410537087086 731.786155140577  978.578626814554 732.342568741331  977.748110856115 732.901058590873  L 978.306135599132 733.730882901303  Z M 974.997058597915 735.972156304128  C 975.822458310872 735.409083383702  976.649263798658 734.848073934156  977.477467316651 734.289133210422  L 976.918060916989 733.46023968287  C 976.088476517225 734.020112340652  975.260292478745 734.582057173401  974.433516558863 735.146068917576  L 974.997058597915 735.972156304128  Z M 971.70299020079 738.235430582965  C 972.524619448654 737.666869962697  973.347668190452 737.100363399858  974.172128716748 736.535916200871  L 973.607211254167 735.710768783453  C 972.781376086872 736.276157097554  971.956955058085 736.843608209052  971.133955889873 737.41311680283  L 971.70299020079 738.235430582965  Z M 968.424076681374 740.520605236767  C 969.241898979615 739.946582163651  970.06115442773 739.374603643391  970.881835352074 738.804675033487  L 970.311431911823 737.983310367002  C 969.489382648335 738.554189231266  968.668761237785 739.127121423758  967.84957536665 739.702101578021  L 968.424076681374 740.520605236767  Z M 965.160463640334 742.827578791998  C 965.974442673381 742.248118755648  966.789868448736 741.670693676703  967.60673332862 741.095308963679  L 967.030869239552 740.277763520954  C 966.21264238314 740.854107585386  965.395857030564 741.432495417789  964.580520832623 742.012921600423  L 965.160463640334 742.827578791998  Z M 961.912295998914 745.156248807139  C 962.722395621861 744.571377538597  963.533955515429 743.988531541558  964.346968077799 743.407716275493  L 963.765668911248 742.594026359759  C 962.951300795319 743.175810031771  962.138387770366 743.759627820563  961.326937450667 744.345474257715  L 961.912295998914 745.156248807139  Z M 958.679717992503 747.506511877236  C 959.485902232834 746.916255347741  960.293560207004 746.328014314095  961.102684349996 745.741794286121  L 960.515975918642 744.931996029406  C 959.70550270538 745.519193474774  958.896498105496 746.108415295495  958.088969696658 746.699655972532  L 958.679717992503 747.506511877236  Z M 955.462873164232 749.87826363849  C 956.265106223168 749.282648058506  957.068826413846 748.689038109127  957.874026208133 748.097439350466  L 957.281934564857 747.291568711987  C 956.475392243451 747.884153856118  955.670331992611 748.478753544281  954.866761353058 749.075362207068  L 955.462873164232 749.87826363849  Z M 952.261904358595 752.271398772896  C 953.060150612811 751.670450590857  953.859897330761 751.071498085025  954.661137021279 750.474546865743  L 954.063688458001 749.672639630312  C 953.261112843089 750.270586159368  952.460032690118 750.870537311683  951.66045550253 751.47248746772  L 952.261904358595 752.271398772896  Z M 949.076953715111 754.685811012915  C 949.87117771844 754.079556913956  950.666915450618 753.475288448375  951.464159458278 752.873011276121  L 950.861380504795 752.075103052553  C 950.062807234871 752.678384414628  949.265742751859 753.283660390169  948.470194521585 753.890925309765  L 949.076953715111 754.685811012915  Z M 945.908162662009 757.121393146197  C 946.698329146769 756.509860051156  947.490022558399 755.9003024584  948.283235481416 755.292726077417  L 947.67515290422 754.498852296951  C 946.880617440056 755.107441703241  946.087604020774 755.718015624634  945.296120074258 756.330568342097  L 945.908162662009 757.121393146197  Z M 942.755671909947 759.578037020338  C 943.541745788673 758.961252084438  944.329359724488 758.346432432005  945.118506340117 757.733583821817  L 944.505147141211 756.943779736542  C 943.714684764317 757.557650162507  942.925757622569 758.173494917187  942.138373105819 758.791308231986  L 942.755671909947 759.578037020338  Z M 939.619621445769 762.055633547684  C 940.401567812728 761.433624159356  941.185067298607 760.813569748409  941.970112564671 760.195476122654  L 941.351503980365 759.409776803943  C 940.565149791265 760.028900990636  939.780343959645 760.649989231793  938.997093836512 761.273035709894  L 939.619621445769 762.055633547684  Z M 936.500150526284 764.554072710176  C 937.277934659026 763.926866489843  938.057284903552 763.301604853996  938.838193959993 762.678293659216  L 938.214363459697 761.89673399617  C 937.432152376613 762.521084451253  936.651502704466 763.14738859943  935.872421755333 763.775640574328  L 936.500150526284 764.554072710176  Z M 933.397397672083 767.073243564233  C 934.170985032942 766.440868363119  934.946151429028 765.810427267145  935.722889599417 765.181926181605  L 935.093864884423 764.404540879502  C 934.315831641558 765.034089878596  933.539372793754 765.665582122661  932.764495613833 766.299011696727  L 933.397397672083 767.073243564233  Z M 930.31150066139 769.613034245683  C 931.080856899139 768.975518144474  931.851805025319 768.339925583274  932.624337818518 767.706262515629  L 931.990146820765 766.933086094385  C 931.216325966847 767.567805682236  930.444092422082 768.204457980742  929.673453419954 768.843037026405  L 930.31150066139 769.613034245683  Z M 927.242596523941 772.173331974725  C 928.007687475197 771.530703282422  928.7743830974 770.889987479582  929.54267620897 770.25119056774  L 928.903347089808 769.482257360374  C 928.133772986393 770.122119352225  927.365799035977 770.763903434397  926.599432431908 771.407603595521  L 927.242596523941 772.173331974725  Z M 924.190821534903 774.75402306094  C 924.951613225722 774.106310313537  925.71402229863 773.460499720209  926.478041612436 772.816597330013  L 925.833602761374 772.051941481122  C 925.068309581599 772.696917463736  924.304629327376 773.343804831185  923.542569152073 773.992597524097  L 924.190821534903 774.75402306094  Z M 921.156311208818 777.354992908337  C 921.912769856088 776.702224867653  922.670858524887 776.05134816109  923.430570114492 775.402368885159  L 922.781050147938 774.642024349407  C 922.020071874686 775.292085682592  921.260719228155 775.944047610049  920.50299932094 776.597904025077  L 921.156311208818 777.354992908337  Z M 918.13920029359 779.976126020448  C 918.891292306608 779.318331672783  919.645026908331 778.662417755199  920.400397038584 778.008390411592  L 919.745824798573 777.252390952196  C 918.989195223282 777.907508769809  918.234203903458 778.564516306939  917.48085791108 779.223407409418  L 918.13920029359 779.976126020448  Z M 915.139622764499 782.617306005447  C 915.887314746541 781.954514560227  916.636661811406 781.29359255765  917.38765694002 780.634546188519  L 916.728061492934 779.882925375753  C 915.97581421378 780.543070587254  915.225217746326 781.205094559399  914.476279121152 781.868991091236  L 915.139622764499 782.617306005447  Z M 912.157711818252 785.278415581326  C 912.900970567939 784.61065646991  913.645896821074 783.944755730683  914.392483599992 783.280719601085  L 913.72789423527 782.533510810787  C 912.980062655949 783.198654102292  912.233894371141 783.865665112241  911.489396369946 784.534537592974  L 912.157711818252 785.278415581326  Z M 909.193599867068 787.959336581102  C 909.93239237988 787.286639455436  910.672864742719 786.615789548985  911.415010019638 785.946793145548  L 910.745456248474 785.204029557642  C 910.002073576564 785.874141393358  909.26036660812 786.546109822385  908.520342290455 787.219928550625  L 909.193599867068 787.959336581102  Z M 906.247418532801 790.659949958058  C 906.98171200254 789.982344689363  907.717697594292 789.306575404883  908.455368414137 788.632648434497  L 907.78087996817 787.894363031514  C 907.041979213694 788.569413655022  906.304766497228 789.246309664263  905.569248723987 789.925044718987  L 906.247418532801 790.659949958058  Z M 903.319298641089 793.380135791039  C 904.049060461378 792.697652468447  904.780526600413 792.016993813648  905.513690206834 791.338166202109  L 904.834297036829 790.604391767729  C 904.09991101079 791.2843512033  903.367225282346 791.966144735084  902.636246714311 792.649765976954  L 903.319298641089 793.380135791039  Z M 900.409370215553 796.119773289768  C 901.134567981167 795.432442219093  901.861482186694 794.746924418659  902.590106023409 794.063226309447  L 901.905838297924 793.333995427037  C 901.175999610849 794.018833480968  900.447873405451 794.705494260145  899.721466501839 795.393971332856  L 900.409370215553 796.119773289768  Z M 897.517762472018 798.878740800218  C 898.238363980438 798.186592502501  898.960693973717 797.496245996957  899.68474568607 796.807707749794  L 898.995633790122 796.083052800965  C 898.27037485061 796.772739062914  897.546840500816 797.464236598207  896.825037517838 798.157538929826  L 897.517762472018 798.878740800218  Z M 894.645156501211 801.656772011023  C 894.713010499154 801.590591032388  894.780880184129 801.524426140238  894.848765551402 801.458277339191  C 895.496999991208 800.827879424928  896.146659204576 800.198948254972  896.797738207797 799.571488654024  L 896.103812741506 798.851441817192  C 895.451528968433 799.480062482169  894.800667872556 800.110157708545  894.151234448682 800.741722660871  C 894.083117264194 800.808097239263  894.015015841737 800.874487993062  893.94693018855 800.940894915211  L 894.645156501211 801.656772011023  Z M 891.793352299165 804.45686305586  C 892.503968699277 803.754467062309  893.216339207922 803.053847925026  893.930457152381 802.355012206658  L 893.231039205955 801.640299301907  C 892.515730597088 802.340300204295  891.802172337668 803.042087499037  891.090371111349 803.745654612732  L 891.793352299165 804.45686305586  Z M 888.960270331841 807.275895448829  C 889.666190410641 806.568779728306  890.373876399435 805.863429135778  891.083321669381 805.15985027821  L 890.379156632057 804.449813940964  C 889.668528488554 805.154565890891  888.959662559587 805.861092529736  888.252565484859 806.569387239707  L 888.960270331841 807.275895448829  Z M 886.146036402685 810.113744010358  C 886.847228813719 809.401939962409  887.550198857681 808.691889235912  888.254939950124 807.983598481638  L 887.546059090459 807.27827024117  C 886.840142967874 807.987741944015  886.136000846663 808.698976553538  885.43363932228 809.411967407848  L 886.146036402685 810.113744010358  Z M 883.350775478192 812.97028272534  C 884.047209084865 812.253821957771  884.745431968575 811.539102627146  885.44543758934 810.826131427962  L 884.7318723853 810.125542604483  C 884.030699629948 810.839702556045  883.331312584031 811.555613553762  882.633717798468 812.273268891941  L 883.350775478192 812.97028272534  Z M 880.574611682359 815.845384748728  C 881.266255559392 815.124299076129  881.959700278226 814.404942878523  882.654939343419 813.687322894064  L 881.936721480977 812.99150459733  C 881.240323228543 813.710321085225  880.545722314313 814.430876680996  879.852925244373 815.153164635449  L 880.574611682359 815.845384748728  Z M 877.81766829117 818.73892241117  C 878.504491726046 818.013243853425  879.193127487412 817.289282732037  879.883569124869 816.567045828293  L 879.160730496602 815.876028956223  C 878.469137670758 816.599470061293  877.779353732076 817.324638258736  877.091385141522 818.051526756152  L 877.81766829117 818.73892241117  Z M 875.080067727127 821.650767224675  C 875.762040221379 820.920528005616  876.445836446227 820.191994108127  877.131449996817 819.465172356102  L 876.404022700486 818.778987593409  C 875.71726601152 819.507021191139  875.032329678348 820.236769789047  874.349220116533 820.968226551829  L 875.080067727127 821.650767224675  Z M 872.361931553808 824.580789888322  C 873.039022824306 823.846022434372  873.71794914863 823.112948111368  874.39870416754 822.381573785734  L 873.666720504667 821.700251602558  C 872.984830448117 822.432845364503  872.304772135161 823.167141958276  871.62655193567 823.903134505973  L 872.361931553808 824.580789888322  Z M 869.663380470474 827.528860293998  C 870.335560450875 826.78959723262  871.009586726845 826.052015036381  871.685452985042 825.316120613927  L 870.948945459477 824.639691264486  C 870.271952314776 825.376812659707  869.59680222013 826.11562464279  868.923501499437 826.856120293539  L 869.663380470474 827.528860293998  Z M 866.984534306705 830.494847532177  C 867.651773148752 829.751121690464  868.320869446127 829.009064373442  868.991816931665 828.268682531675  L 868.250818248138 827.597176052919  C 867.578752077273 828.338792349424  866.908540181083 829.082086914757  866.240188837211 829.827052786732  L 866.984534306705 830.494847532177  Z M 864.325512017081 833.478619897736  C 864.987780091895 832.730464300987  865.651916699419 831.983964814275  866.317915618736 831.239128430005  L 865.572458681409 830.572574640284  C 864.905349327582 831.318652906487  864.240105390712 832.066397047958  863.576733101907 832.815800060835  L 864.325512017081 833.478619897736  Z M 861.686431675902 836.480044895797  C 862.343699575401 835.72749276594  863.002847001915 834.976584258041  863.66386778126 834.227326405804  L 862.913985692264 833.565754903544  C 862.251862778605 834.316262009684  861.591616341246 835.068422523676  860.933252564691 835.822229400058  L 861.686431675902 836.480044895797  Z M 859.067410471941 839.498989247617  C 859.719649010075 838.742074001806  860.373777985966 837.986789817009  861.029791272643 837.233143767678  L 860.27551733061 836.576583930063  C 859.61841025872 837.331486549833  858.963190639355 838.088030036386  858.309864609729 838.846207303439  L 859.067410471941 839.498989247617  Z M 856.468564703241 842.535318896503  C 857.115744917189 841.774074145756  857.764826395895 841.014447822414  858.415803059463 840.256447041837  L 857.657170758044 839.604928023509  C 857.005108706901 840.364192635303  856.35494500059 841.125085500063  855.70668572897 841.887599490769  L 856.468564703241 842.535318896503  Z M 853.890009771954 845.588899013762  C 854.532102923611 844.823358561232  855.1761080825 844.059423830749  855.822019216274 843.29710197803  L 855.059062242654 842.650652709793  C 854.412074167174 843.414245598346  853.766995244538 844.179454053748  853.123831516978 844.946270908555  L 853.890009771954 845.588899013762  Z M 851.331860179213 848.659594004695  C 851.968837756366 847.889791844285  852.607737998222 847.121582629382  853.24855492045 846.354973555502  L 852.481307153853 845.713622743035  C 851.839421783641 846.481510000888  851.199456289511 847.25100006773  850.561416665797 848.022085736015  L 851.331860179213 848.659594004695  Z M 848.794229520047 851.747267514614  C 849.426063237543 850.973237829588  850.059830192034 850.200788242554  850.695524447074 849.429925988988  L 849.924019957256 848.793702111575  C 849.287265795333 849.565849640573  848.652442147475 850.33958714953  848.019554959856 851.114907391114  L 848.794229520047 851.747267514614  Z M 846.277230478343 854.851782434894  C 846.903892279571 854.073559596082  847.532497804046 853.296903937822  848.163041163862 852.521822734747  L 847.3873142096 851.890754044008  C 846.755719531134 852.66712755682  846.126065918991 853.445078149958  845.49835927092 854.224598536626  L 846.277230478343 854.851782434894  Z M 843.780974821834 857.973000909069  C 844.402436879747 857.190619473615  845.025853060944 856.409792231565  845.651217526128 855.630526496624  L 844.871302553698 855.004641015262  C 844.244895404748 855.785206036902  843.620439788187 856.567335169202  842.997941553076 857.35102108623  L 843.780974821834 857.973000909069  Z M 841.30557339714 861.110784338946  C 841.921808115587 860.324279048662  842.540007270679 859.539314895494  843.160165071791 858.755899232143  L 842.376096713439 858.135224752701  C 841.754904909712 858.919946622057  841.135675017782 859.706219562955  840.518412837762 860.494036210647  L 841.30557339714 861.110784338946  Z M 838.851136124847 864.264993390764  C 839.462116139862 863.474399170498  840.075070817554 862.68533296275  840.689994416423 861.897802158643  L 839.901807488827 861.282366242267  C 839.285858614442 862.071210113643  838.671881944143 862.861591948566  838.059883228837 863.653504343801  L 838.851136124847 864.264993390764  Z M 836.417771994625 867.435488001378  C 837.023470175576 866.640839957549  837.631153157457 865.847706733911  838.240815248338 865.056095759434  L 837.448544751059 864.445925734653  C 836.837866157322 865.238856579314  836.229169972383 866.033312211233  835.62246189769 866.829285189018  L 836.417771994625 867.435488001378  Z M 834.005589060386 870.622127384482  C 834.605978511088 869.823460803642  835.208362813027 869.026295783153  835.812736323716 868.230639789999  L 835.01641743765 867.625762751506  C 834.411036241839 868.422745359234  833.807647571509 869.221239510224  833.206257078394 870.021237725256  L 834.005589060386 870.622127384482  Z M 831.614694435489 873.824770036859  C 832.209748495617 873.02212038384  832.806807368521 872.220958964902  833.40586546178 871.421293284215  L 832.605533547592 870.82173609167  C 832.005476631753 871.622735072329  831.4074222696 872.425232285132  830.811376062902 873.229220213365  L 831.614694435489 873.824770036859  Z M 829.245194287981 877.043273744663  C 829.834886534007 876.23667666133  830.426593465506 875.431554419475  831.020309540006 874.627914560617  L 830.216000136558 874.03370383745  C 829.621294146342 874.838683622514  829.028600649002 875.6451482622  828.437925196276 876.453090202383  L 829.245194287981 877.043273744663  Z M 826.897193835886 880.277495589736  C 827.481498082493 879.466986893074  828.067826797628 878.657939580047  828.656174489375 877.850361228688  L 827.847923312152 877.261523360919  C 827.258594655541 878.070448205176  826.671288341721 878.880844460475  826.086009871973 879.692704535863  L 826.897193835886 880.277495589736  Z M 824.570797342529 883.527291955954  C 825.149687643567 882.71290763677  825.730612106379 881.89997117836  826.313565289672 881.088490195184  L 825.501408229194 880.50505133025  C 824.917483075417 881.317885313267  824.335590024548 882.132177198406  823.755734527157 882.947919358225  L 824.570797342529 883.527291955954  Z M 822.266108111908 886.792518535603  C 822.839558761662 885.97429475676  823.415053176112 885.157505251536  823.992585964824 884.342157670482  L 823.17655908505 883.764143716077  C 822.598063363396 884.580850743834  822.021609414528 885.399002100056  821.447202638069 886.218590121149  L 822.266108111908 886.792518535603  Z M 819.983228484107 890.073030335789  C 820.551214018384 889.251003430683  821.121252829611 888.430397148226  821.693339578278 887.611219174972  L 820.87347911501 887.038655797896  C 820.300438513641 887.859199604433  819.72944926436 888.681174101515  819.160516715427 889.50457158999  L 819.983228484107 890.073030335789  Z M 817.723047938648 893.368902911492  C 817.95264826196 893.03144991661  818.182555759901 892.694206023348  818.412770146777 892.357171650777  C 818.746435941566 891.869463695223  819.080822333982 891.382249128012  819.415928228429 890.895529545471  L 818.592270587697 890.328442170488  C 818.256535638264 890.816075414607  817.921521692575 891.304204676401  817.58722984872 891.792828355907  C 817.356602996475 892.13046617827  817.126283675854 892.46831396046  816.896272173365 892.806371282211  L 817.723047938648 893.368902911492  Z M 815.48442738098 896.680211540433  C 816.041620908675 895.850723254569  816.600662593697 895.022477929478  817.161548270002 894.195481737342  L 816.333937532328 893.634179263726  C 815.77221779667 894.462405232158  815.212344794366 895.29188219108  814.654322697689 896.122603959084  L 815.48442738098 896.680211540433  Z M 813.265527808447 900.004767379088  C 813.817781260081 899.171981951232  814.37189022419 898.340428477291  814.927850571486 897.5101131541  L 814.096918236293 896.953739669532  C 813.540131153774 897.785289704743  812.985198207595 898.618079731777  812.43212353304 899.452103544798  L 813.265527808447 900.004767379088  Z M 811.066427610207 903.342452977736  C 811.613721475802 902.506399828484  812.162878143466 901.671567582768  812.713893520819 900.837962461854  L 811.879668943236 900.286537621866  C 811.327834184057 901.121382346816  810.777860898527 901.957456021376  810.229753185142 902.794752414981  L 811.066427610207 903.342452977736  Z M 808.887204475947 906.69315042281  C 809.429519420764 905.853859088157  809.973704391352 905.015777563658  810.519755332549 904.178912094533  L 809.682267984015 903.632455379829  C 809.135405043307 904.470565301258  808.590410847964 905.309893086409  808.047289459211 906.150432480725  L 808.887204475947 906.69315042281  Z M 806.727935393137 910.056741341061  C 807.265252258249 909.214241471531  807.804446306938 908.372940275772  808.345513521067 907.532844023258  L 807.504792988287 906.99137473903  C 806.96292118562 907.832720248195  806.422925333932 908.675272492298  805.8848094572 909.519025192755  L 806.727935393137 910.056741341061  Z M 804.588696644314 913.433106903741  C 805.120996447449 912.587428263078  805.655180525566 911.742937117586  806.191244897862 910.899639760513  L 805.347320881764 910.363177035756  C 804.810459360354 911.207728409652  804.275480929264 912.053475347069  803.742389575081 912.900411545619  L 804.588696644314 913.433106903741  Z M 802.469563804381 916.822127830799  C 802.996827740482 915.97330029509  803.525982976402 915.125649034  804.057025568814 914.279180364328  L 803.209927883497 913.747743151169  C 802.678095609586 914.595470553487  802.148153498727 915.444382305808  801.620105500139 916.294472081892  L 802.469563804381 916.822127830799  Z M 800.370611737944 920.223684395097  C 800.892821179833 919.371737951716  801.416928879644 918.520956520716  801.942930931503 917.671346442487  L 801.092689503186 917.144953515508  C 800.565905265259 917.995826997872  800.041018196504 918.847873574614  799.518032208309 919.701086896398  L 800.370611737944 920.223684395097  Z M 798.291914596661 923.637656426638  C 798.809051095807 922.782621173012  799.328092743754 921.928739628637  799.849035672543 921.076018156739  L 798.995680538507 920.55468811232  C 798.473962946822 921.408677615031  797.954149463243 922.263828915317  797.436243961513 923.120135640441  L 798.291914596661 923.637656426638  Z M 796.233545816626 927.063923316811  C 796.745591103634 926.205829459623  797.259548363098 925.348877967662  797.775413764948 924.493075227035  L 796.918975072474 923.976826482694  C 796.402342558185 924.833901836148  795.887621023832 925.692127649064  795.37481430505 926.551497526062  L 796.233545816626 927.063923316811  Z M 794.195578115776 930.502364022656  C 794.702514101138 929.641241876595  795.211368815065 928.781250711383  795.722138465513 927.922396935777  L 794.862646470819 927.41124772952  C 794.351117285519 928.271378654964  793.84150588439 929.132648661247  793.333816064989 929.995051330303  L 794.195578115776 930.502364022656  Z M 792.178083491317 933.952857071135  C 792.679892266028 933.088737057876  793.183626457628 932.225736601131  793.689282312232 931.363862132083  L 792.826767379402 930.85783052176  C 792.320359594364 931.720986632537  791.815876329983 932.58527040529  791.313321345599 933.450675399492  L 792.178083491317 933.952857071135  Z M 790.181133217184 937.415280563424  C 790.677797053372 936.54819321055  791.176392926752 935.682213950304  791.676917121731 934.817349236067  L 790.811409721644 934.316453098734  C 790.310141227214 935.182603901314  789.810803921936 936.049870907167  789.313401526804 936.918247653537  L 790.181133217184 937.415280563424  Z M 788.204797841523 940.889512179225  C 788.696299193101 940.019488119103  789.189739133845 939.150560648712  789.685113986733 938.282736243132  L 788.816644695985 937.78699327442  C 788.320533200973 938.656108169432  787.826359495308 939.526327769716  787.334127261657 940.397645590245  L 788.204797841523 940.889512179225  Z M 786.249147184198 944.375429181081  C 786.735468687359 943.502499150006  787.223735263399 942.630654166619  787.713943273547 941.759900728283  L 786.842542773372 941.269328441771  C 786.351605804325 942.141376725263  785.862613156515 943.01451817673  785.375568473847 943.888746289641  L 786.249147184198 944.375429181081  Z M 784.314250334324 947.872908418713  C 784.795374808405 946.997103255373  785.278450770137 946.122371559752  785.763474619579 945.248719850451  L 784.889173694763 944.763335577049  C 784.403428595502 945.638286441305  783.919634280599 946.514318897753  783.437794355226 947.39142641832  L 784.314250334324 947.872908418713  Z M 782.400175647827 951.381826333374  C 782.87608609569 950.503176978164  783.353954377033 949.62558947278  783.833776930875 948.749070356833  L 782.956606468672 948.268891244169  C 782.476070399595 949.146713778928  781.997491509009 950.025606292024  781.520873363369 950.905562233796  L 782.400175647827 951.381826333374  Z M 780.506990745028 954.902058962212  C 780.97767035371 954.020596456052  781.450314072613 953.140184144175  781.924918379684 952.260828587245  L 781.044909368723 951.785871599059  C 780.569599306157 952.666534792702  780.096252747145 953.54825631289  779.624873219151 954.431029588881  L 780.506990745028 954.902058962212  Z M 778.634762508257 958.433481942648  C 779.100194649592 957.549237425841  779.56759710857 956.666031410537  780.036966402054 955.783870478492  L 779.154149931243 955.314152394038  C 778.684082666913 956.197625134546  778.215985161837 957.082144512418  777.749860904359 957.967703936063  L 778.634762508257 958.433481942648  Z M 776.783557079485 961.975970516773  C 777.243725310737 961.088975227813  777.705869997376 960.203006711024  778.169987695444 959.318071568751  L 777.284394952872 958.853608982201  C 776.81958709329 959.7398600583  776.356755179071 960.627146045607  775.89590265932 961.515460331912  L 776.783557079485 961.975970516773  Z M 774.953439857993 965.529399535752  C 775.408327922365 964.639684810357  775.865198510042 963.75098509153  776.324048216372 962.863307001966  L 775.43571048821 962.40411632183  C 774.976178454056 963.293114424137  774.518628481641 964.183135674796  774.063063980565 965.074173441492  L 774.953439857993 965.529399535752  Z M 773.144475498058 969.093643464245  C 773.594067325313 968.201240734162  774.045647673685 967.309841209321  774.499213178083 966.419451532261  L 773.608161847475 965.965548980801  C 773.153921873096 966.857262702796  772.701670006736 967.74998777428  772.251409618516 968.643717542789  L 773.144475498058 969.093643464245  Z M 771.356727906669 972.668576384847  C 771.80100761363 971.773517176874  772.247281769338 970.87944933724  772.695547048245 969.986379528366  L 771.801813594202 969.537781141024  C 771.352881726985 970.43217898025  770.905943943762 971.327576334512  770.461003575194 972.223966531152  L 771.356727906669 972.668576384847  Z M 769.590260241273 976.254072002531  C 770.029212132451 975.356387937269  770.470164329548 974.459683368418  770.913113546672 973.56396497805  L 770.01672954296 973.120686602886  C 769.57312164272 974.017736962152  769.131513732074 974.915774966551  768.691909101963 975.814793923748  L 769.590260241273 976.254072002531  Z M 767.845134907539 979.850003649111  C 768.278743475644 978.949726439938  768.71435813624 978.050416820506  769.151975643075 977.152081492578  L 768.252972757095 976.714138789705  C 767.814704495565 977.613809978114  767.37844205864 978.514456906723  766.94418869729 979.416072864032  L 767.845134907539 979.850003649111  Z M 766.121413557154 983.456244287719  C 766.54966348371 982.55340573953  766.97992521839 981.65152284037  767.412195554832 980.750602311175  L 766.510605546508 980.318010752207  C 766.077692406826 981.22027098618  765.646790855832 982.123495021087  765.217904104545 983.027676126225  L 766.121413557154 983.456244287719  Z M 764.419157085648 987.072666517291  C 764.842033241489 986.167298525468  765.266926849947 985.26287420834  765.693834744797 984.359400305501  L 764.789689465449 983.932175173008  C 764.362146741568 984.8369925775  763.936621299325 985.742761809752  763.513116309809 986.649476119814  L 764.419157085648 987.072666517291  Z M 762.979898378418 990.174630891648  C 763.317599159068 989.441927092711  763.656618221596 988.709831604756  763.99695391912 987.978347984147  L 763.090285310342 987.556504371114  C 762.668128106424 988.463846980881  762.247993805959 989.372129411326  761.82988553973 990.281344894053  L 762.979898378418 990.174630891648  Z M 1094.41775611555 671.604778776223  C 1095.34080589186 671.222032706159  1096.26470762584 670.841344500307  1097.18945443247 670.4627169956  L 1096.81054556753 669.5372830044  C 1095.8844236255 669.916473543316  1094.95914801288 670.297727847674  1094.03472562472 670.681043076417  L 1094.41775611555 671.604778776223  Z M 755.615502521988 986.901749285597  L 758 1000  L 769.321947284486 992.995465062739  L 755.615502521988 986.901749285597  Z " fill-rule="nonzero" fill="#1f8aee" stroke="none" />
  </g>
</svg>