<?xml version="1.0" encoding="utf-8"?>
<svg version="1.1" xmlns:xlink="http://www.w3.org/1999/xlink" width="150px" height="14px" viewBox="936 440  150 14" xmlns="http://www.w3.org/2000/svg">
  <g transform="matrix(0.809016994374949 0.587785252292473 -0.587785252292471 0.809016994374947 455.823826461661 -508.881486553292 )">
    <path d="M 882.119357245775 605.305301461462  C 881.741745316804 606.232631807651  881.367651657355 607.161390917187  880.997084338317 608.09155875254  L 881.926076655264 608.461657759637  C 882.295708237619 607.533838734121  882.668857255874 606.607424877151  883.045515659492 605.682436175724  L 882.119357245775 605.305301461462  Z M 883.648534060849 601.603685525697  C 883.2615631827 602.527149590687  882.878095944807 603.452077926856  882.498140620289 604.378450579321  L 883.423342550587 604.757925727616  C 883.802338432335 603.833892301596  884.184837359378 602.911299544731  884.570831079459 601.990167361576  L 883.648534060849 601.603685525697  Z M 885.215067788238 597.917723731454  C 884.818777539926 598.837227064213  884.425975944254 599.758230026219  884.036671475728 600.680712747276  L 884.957988390598 601.06952522441  C 885.346309808399 600.149371907151  885.738119522601 599.230694612305  886.133409080073 598.313513159953  L 885.215067788238 597.917723731454  Z M 886.818798204352 594.247793075419  C 886.413229118079 595.163241629993  886.011133339985 596.08022501857  885.612519545154 596.998723457536  L 886.529857213173 597.396833496136  C 886.927464449878 596.48065440005  887.328544877313 595.565986528669  887.733089842332 594.652849615571  L 886.818798204352 594.247793075419  Z M 888.45956128116 590.594268914632  C 888.044754838128 591.505569059854  887.633406003629 592.418439086715  887.225523652315 593.332859300485  L 888.138788249053 593.740226182232  C 888.545640637771 592.828115013251  888.955950756311 591.917550116699  889.369709752402 591.008551137636  L 888.45956128116 590.594268914632  Z M 890.137189202966 586.95752492809  C 889.713187829208 587.864583456997  889.292628010631 588.773246754752  888.875518820675 589.683495217242  L 889.784616938294 590.100077277037  C 890.200672866546 589.19212732503  890.62017071006 588.285758535024  891.043101418343 587.380990461552  L 890.137189202966 586.95752492809  Z M 891.851510383572 583.33793307853  C 891.418357445536 584.240657218056  890.988629657363 585.145020849435  890.56233629029 586.051004461318  L 891.467174947092 586.476759091542  C 891.892391861072 585.57306322077  892.321034523717 584.670983239854  892.75309368724 583.770538610795  L 891.851510383572 583.33793307853  Z M 893.602349483827 579.735863574385  C 893.160089283975 580.634160994781  892.721237478381 581.534132462281  892.285803535062 582.435758560433  L 893.186290185005 582.870642215304  C 893.620624593928 581.971292854927  894.058368234538 581.073593946988  894.499511662698 580.177564858969  L 893.602349483827 579.735863574385  Z M 895.389527429564 576.15168483192  C 894.938205201862 577.045463656152  894.490274264173 577.940950911587  894.04574428039 578.838127278519  L 894.941786822551 579.282095478548  C 895.385194303106 578.387184613169  895.831994149675 577.493958594004  896.282176722739 576.602436692032  L 895.389527429564 576.15168483192  Z M 897.212861429912 572.585763437547  C 896.752523335183 573.474932250739  896.295559079328 574.365843704565  895.8419785212 575.258478577904  L 896.733485309195 575.711485914444  C 897.185920510082 574.8211050747  897.641730864344 573.93244330262  898.100906538064 573.045519770714  L 897.212861429912 572.585763437547  Z M 899.072164995993 569.038464110336  C 898.602858117159 569.922931969188  898.136907281056 570.809176499733  897.674322540351 571.697178581673  L 898.561202391708 572.159178721561  C 899.022619038283 571.273418974763  899.487393280387 570.389412341255  899.955515090708 569.507177893114  L 899.072164995993 569.038464110336  Z M 900.967247959995 565.510149664709  C 900.489020297344 566.389826106639  900.014130537958 567.271313069741  899.542588927428 568.154591536223  L 900.424751132914 568.625537226522  C 900.895102031919 567.744489167339  901.368792625194 566.865228087766  901.845812693061 565.987772957496  L 900.967247959995 565.510149664709  Z M 902.897916494625 562.001180973332  C 902.410816960805 562.875976025911  901.92703684946 563.752615263826  901.446586597912 564.631079774009  L 902.323940930811 565.110922846839  C 902.8031779752 564.234676588033  903.28573647102 563.360250992387  903.771606007271 562.487664925269  L 902.897916494625 562.001180973332  Z M 904.86397313293 558.511916930207  C 904.368051548046 559.381741120177  903.875430565264 560.253442971163  903.386120812721 561.127003676482  L 904.258577538061 561.615695053947  C 904.746651711923 560.744340217158  905.23802875466 559.874839540862  905.732698065019 559.007211784175  L 904.86397313293 558.511916930207  Z M 906.865216788495 555.04271441396  C 906.360523874913 555.907478776572  905.859112405554 556.774154083697  905.360993198128 557.642721637234  L 906.228463081861 558.140211336441  C 906.725324465429 557.273837043019  907.225469797506 556.40935021778  907.728888287662 555.54676951167  L 906.865216788495 555.04271441396  Z M 908.901442776012 551.593928251347  C 908.388030153271 552.453544339273  907.877879481174 553.315104459896  907.371001766054 554.178590025338  L 908.233396084178 554.684827163511  C 908.738993858942 553.823522025399  909.247856325965 552.964137470114  909.759972506751 552.106692038519  L 908.901442776012 551.593928251347  Z M 910.97244283221 548.165911180954  C 910.450363011656 549.020291073498  909.931525314575 549.876647888019  909.415940934721 550.7349631489  L 910.273171482362 551.249895948585  C 910.787453936258 550.393748059257  911.304981492256 549.539553670964  911.825742984914 548.687331212594  L 910.97244283221 548.165911180954  Z M 913.080563045256 544.759748017033  C 912.668054826379 545.417586848263  912.25771651391 546.07678386312  911.849554797827 546.737328314342  C 911.731407073355 546.928849349514  911.613422614338 547.120471054129  911.495601549684 547.312193218823  L 912.347580650112 547.835769013178  C 912.465039405672 547.644636409307  912.582660963339 547.453603901373  912.700445194764 547.262671697836  C 913.107387222387 546.60410266911  913.516498990468 545.946876835281  913.927773831133 545.291004908089  L 913.080563045256 544.759748017033  Z M 915.227795924435 541.378238750406  C 914.68620001432 542.220564998265  914.148188053616 543.065190260112  913.61377463215 543.912091631372  L 914.459476111724 544.445747894753  C 914.992376824992 543.60124375866  915.528865891456 542.759009289285  916.068928762653 541.91906732627  L 915.227795924435 541.378238750406  Z M 917.413230962642 538.021292570991  C 916.862119414091 538.857423959465  916.314565517971 539.695894849569  915.770584122783 540.536682503752  L 916.610180547187 541.079893184914  C 917.152622151099 540.241485460461  917.698626143648 539.405387942249  918.248177718343 538.5716233035  L 917.413230962642 538.021292570991  Z M 919.636587203412 534.689341043082  C 919.076030866575 535.519170080259  918.519005427759 536.351378806043  917.965525992355 537.185944652634  L 918.798909424248 537.738639917176  C 919.350822183266 536.906436388893  919.906270908406 536.076583309348  920.465240537013 535.249103182488  L 919.636587203412 534.689341043082  Z M 921.897578815185 531.382812517695  C 921.327649754384 532.206232521939  920.761224383309 533.032072095774  920.198318062216 533.86030884418  L 921.025381362993 534.422417638371  C 921.586694323994 533.596525293168  922.151516374001 532.773023337058  922.719832196175 531.951934101762  L 921.897578815185 531.382812517695  Z M 924.19591512805 528.1021320775  C 923.616686612572 528.919037191081  923.040934128076 529.738401444209  922.468673287748 530.560202617464  L 923.289310131311 531.131652677387  C 923.859951132702 530.312177690803  924.434073894816 529.495132726429  925.011662848687 528.680539940756  L 924.19591512805 528.1021320775  Z M 926.531300671114 524.847721482175  C 925.942847165773 525.658006684905  925.357841585772 526.470790281029  924.776299795267 527.286050229516  L 925.590404681695 527.866768090353  C 926.170300362639 527.053815812987  926.753650028502 526.243332878418  927.340437860014 525.435341265316  L 926.531300671114 524.847721482175  Z M 928.903435210484 521.619999114183  C 928.305832366022 522.423560236954  927.711648898045 523.229658685712  927.120900919546 524.038272600776  L 927.928369188654 524.628183606253  C 928.517444998599 523.821858550077  929.109946573551 523.018041839926  929.705857846106 522.216755273633  L 928.903435210484 521.619999114183  Z M 931.312013787871 518.419379924986  C 930.705338431296 519.216113663075  930.102053462689 520.015423333643  929.50217524195 520.817287260982  L 930.302903086752 521.416315572967  C 930.901083294914 520.616721398031  931.50266060783 519.819674249786  932.107618711886 519.02519574261  L 931.312013787871 518.419379924986  Z M 933.756726759792 515.246275381698  C 933.141056884413 516.036079308164  932.528747972691 516.82849744235  931.919816629193 517.623508295493  L 932.713701109239 518.231576903746  C 933.320908814432 517.438816404726  933.93148452733 516.648641285711  934.545411690345 515.861072974664  L 933.756726759792 515.246275381698  Z M 936.237259837373 512.10109341419  C 935.612674592862 512.883865992928  934.99142045557 513.669290718608  934.373514272687 514.457346292055  L 935.160453327302 515.074377024127  C 935.776610467747 514.288552117211  936.396106085885 513.505350611212  937.018923382237 512.724793744983  L 936.237259837373 512.10109341419  Z M 938.75329412676 508.984238362646  C 938.119873808897 509.759878961541  937.489754313643 510.538209305553  936.862952728505 511.319208288013  L 937.642845189906 511.945121819301  C 938.267872553314 511.166333529026  938.896208435187 510.39020632335  939.527835796366 509.616761249225  L 938.75329412676 508.984238362646  Z M 941.304506170115 505.896110925581  C 940.66233221055 506.664519829335  940.023428364565 507.435655730681  939.387811957928 508.209497717992  L 940.160557564235 508.844213581928  C 940.794374797957 508.072562028235  941.431470165601 507.303608900688  942.07182639047 506.53737505169  L 941.304506170115 505.896110925581  Z M 943.890567987192 502.837108108328  C 943.239722942894 503.598186531389  942.592116882794 504.362028853881  941.947767368595 505.12861436202  L 942.713266776717 505.772050960423  C 943.355792398097 505.007635345755  944.001565347425 504.245955151871  944.650568112686 503.48703103395  L 943.890567987192 502.837108108328  Z M 946.511147117512 499.807623171999  C 945.851714660223 500.561273271173  945.195489641301 501.317723816352  944.542489856228 502.076954294141  L 945.300644654633 502.729028907706  C 945.951796061479 501.971947504261  946.606163572826 501.217638164579  947.263729443594 500.466121343955  L 946.511147117512 499.807623171999  Z M 949.165906663096 496.808045582931  C 948.49797156852 497.554170470028  947.833211954161 498.303131989652  947.171645846942 499.054909831497  L 947.922358568313 499.715538630423  C 948.582052049503 498.965888767535  949.244929998318 498.219047254987  949.910974438838 497.475034345619  L 949.165906663096 496.808045582931  Z M 951.854505331779 493.838760962612  C 951.178153468707 494.577264716872  950.504944719493 495.318640925479  949.834897340129 496.062869483883  L 950.578071473892 496.731967538661  C 951.246222220167 495.989845590255  951.917525387771 495.250567917757  952.591962772312 494.514154568892  L 951.854505331779 493.838760962612  Z M 954.577192914285 490.900028851982  C 954.496402489524 490.986088292395  954.415655201244 491.072188218329  954.334951080119 491.158328597075  C 953.73150727786 491.803701413758  953.130486672655 492.451335739809  952.531901951913 493.101217903814  L 953.267441956641 493.778699196134  C 953.864220413487 493.130778089018  954.463426949422 492.485097616279  955.065048920099 491.841671402949  C 955.145411780897 491.755895513784  955.225817565736 491.670159849987  955.306266244439 491.584464443735  L 954.577192914285 490.900028851982  Z M 957.335313097681 487.995207512958  C 956.641672380138 488.717497062015  955.951105913107 489.442732649512  955.26363242334 490.170894608542  L 955.99076272093 490.857394084381  C 956.676290251357 490.131293257287  957.364902004066 489.408110518368  958.056579305342 488.687865478831  L 957.335313097681 487.995207512958  Z M 960.126191396222 485.121844973973  C 959.424405812031 485.836223467164  958.72566087801 486.553582665849  958.029975542692 487.273903116714  L 958.749275441984 487.968602803543  C 959.442991573548 487.250321288477  960.139758643316 486.534992643499  960.839557756417 485.822636266829  L 960.126191396222 485.121844973973  Z M 962.949469018508 482.280310630487  C 962.23962878824 482.986686228313  961.532795216896 483.696076815494  960.828987472359 484.408463154808  L 961.540364501166 485.111273743009  C 962.242180050686 484.400903881243  962.947012862133 483.693521291835  963.654843821858 482.98914515758  L 962.949469018508 482.280310630487  Z M 965.804783007925 479.47096978617  C 965.086979387645 480.169251677975  964.372148048512 480.870582455393  963.660308375293 481.574943099766  L 964.36367107998 482.285774236996  C 965.073495823051 481.583407352666  965.786303763824 480.884061758978  966.502075572434 480.187756420727  L 965.804783007925 479.47096978617  Z M 968.691766289311 476.694183605942  C 967.966091558845 477.384282021585  967.243354349638 478.077462827139  966.523574260847 478.773707224954  L 967.218832218092 479.492467527758  C 967.936574900631 478.798193916175  968.657266333158 478.106975225079  969.380886972026 477.418830198879  L 968.691766289311 476.694183605942  Z M 971.610047716144 473.95030906954  C 970.876595167218 474.632135290938  970.146045002019 475.317077010274  969.418417031574 476.005115653329  L 970.10548085999 476.73171271889  C 970.831049210004 476.045621634895  971.559531483205 475.362618708496  972.290907924675 474.682722461307  L 971.610047716144 473.95030906954  Z M 974.559252118255 471.239698925628  C 973.818116042491 471.913165298165  973.079846839824 472.58977987612  972.344464530547 473.269524311139  L 973.023245902171 474.003864729158  C 973.756546641611 473.32604437566  974.492726102827 472.651345019856  975.231764322169 471.979784958186  L 974.559252118255 471.239698925628  Z M 977.539000350062 468.562701646445  C 976.790276026894 469.227721590211  976.044382697573 469.895922042198  975.301340589203 470.567284882174  L 975.971752240854 471.309274246876  C 976.712691097604 470.639811763508  977.456473104636 469.973502716703  978.203078092132 469.310365175371  L 977.539000350062 468.562701646445  Z M 980.54890933931 465.919661383007  C 979.792693023687 466.576149403972  979.039271458714 467.235849827077  978.288665075702 467.898744762543  L 978.950620820197 468.648287684816  C 979.699102540197 467.987269136737  980.450391473472 467.329436058687  981.204467246634 466.674806289727  L 980.54890933931 465.919661383007  Z M 983.58859213632 463.310917920865  C 982.824981046332 463.958789621866  982.064128104564 464.609905205893  981.306053943795 465.264247016024  L 981.959468681033 466.021247135681  C 982.715397040523 465.368757502509  983.47409631539 464.719484963312  984.235545931292 464.073447125008  L 983.58859213632 463.310917920865  Z M 986.657657963734 460.736806636419  C 985.886750268151 461.375978727979  985.118563763778 462.018425766423  984.353119282202 462.664130329953  L 984.9979090101 463.42849032812  C 985.76118682799 462.784613493006  986.527198907133 462.14398496223  987.295924474882 461.5066221083  L 986.657657963734 460.736806636419  Z M 989.755712266753 458.197658453809  C 988.977607072398 458.82804876485  988.202185762378 459.461744665638  987.429469364476 460.098728971684  L 988.06555118977 460.870350583311  C 988.836080340124 460.235169322167  989.609306746125 459.603267158101  990.385209439428 458.97466122703  L 989.755712266753 458.197658453809  Z M 992.882356763859 455.693799802362  C 992.097154102855 456.315327290783  991.314597674245 456.940190586874  990.534708699362 457.568372745619  L 991.162000848265 458.347156772115  C 991.939682272956 457.720752742937  992.720023600873 457.097658182069  993.503003670789 456.477889986537  L 992.882356763859 455.693799802362  Z M 996.037189498021 453.225552574637  C 995.24499031491 453.838137337743  994.455399372088 454.454087697571  993.668438081647 455.073386950807  L 994.28685991036 455.859233272788  C 995.071593631744 455.241687005208  995.85894956201 454.627480151686  996.648906349708 454.01662936823  L 996.037189498021 453.225552574637  Z M 999.219804888365 450.793234085036  C 998.420711027154 451.396797369797  997.624187078844 452.003755607633  996.830254643475 452.614092339123  L 997.439726648555 453.406899929288  C 998.231411782365 452.798290814188  999.025681093606 452.193050629583  999.82251304335 451.591195788325  L 999.219804888365 450.793234085036  Z M 1002.42979378232 448.397157029014  C 1001.62390797343 448.991621242157  1000.82055341957 449.589509328347  1000.01975190614 450.190805074034  L 1000.62019573472 450.990472010151  C 1001.41873050303 450.390878289465  1002.21981108509 449.794682582607  1003.02341575729 449.201901057161  L 1002.42979378232 448.397157029014  Z M 1005.66674350821 446.037629442877  C 1004.85416935516 446.62291816094  1004.04408747395 447.211659231783  1003.23651983235 447.803836689952  L 1003.82785829222 448.610260167962  C 1004.63314003651 448.019758924618  1005.44092890361 447.432684341591  1006.25120298795 446.849052339117  L 1005.66674350821 446.037629442877  Z M 1008.93076572953 443.715686207218  C 1008.28072581879 444.172785192405  1007.63206323253 444.631839739906  1006.98478678589 445.092843611306  C 1006.81646731531 445.212912732821  1006.64825328153 445.33312959275  1006.48014487894 445.453494052186  L 1007.06230194844 446.266570399416  C 1007.22983389957 446.146618675267  1007.39747105647 446.026813956229  1007.56521322573 445.907156380524  C 1008.2107548369 445.447389009832  1008.85767865422 444.989565434745  1009.50597588887 444.533691875039  L 1008.93076572953 443.715686207218  Z M 1012.21851816054 441.428542525674  C 1011.39369473316 441.996167977404  1010.57102699811 442.566919541046  1009.75053270419 443.140784902821  L 1010.32367283202 443.960242280518  C 1011.14209525787 443.387826012704  1011.96268563654 442.818515680252  1012.78542626415 442.252323565797  L 1012.21851816054 441.428542525674  Z M 1015.52923275656 439.174765444543  C 1014.69871101103 439.734020279188  1013.87031323273 440.296422866741  1013.04405729393 440.861961073637  L 1013.60888079048 441.687172814792  C 1014.43305031218 441.123062674588  1015.25935626496 440.56208023581  1016.0877808216 440.004237601423  L 1015.52923275656 439.174765444543  Z M 1018.8625709008 436.954585478015  C 1018.02643578216 437.505412495489  1017.19239268825 438.059408585006  1016.3604596133 438.616561794281  L 1016.91690870896 439.447443497017  C 1017.74674103124 438.891697181074  1018.57867804432 438.339100012724  1019.41270179951 437.789663914022  L 1018.8625709008 436.954585478015  Z M 1022.21819166261 434.768229703996  C 1021.37652868991 435.310572566263  1020.53692558564 435.85610549549  1019.69940046381 436.404816722069  L 1020.24741824548 437.241283404591  C 1021.08282849387 436.693957754117  1021.92031147754 436.149802375311  1022.75984912812 435.608829008098  L 1022.21819166261 434.768229703996  Z M 1025.59575183227 432.61592174089  C 1024.74864709005 433.149724977605  1023.90356984912 433.686738950007  1023.06053834175 434.226952072196  L 1023.60006875869 435.068918181482  C 1024.44097148823 434.530069176428  1025.2839147855 433.994411242863  1026.12888046436 433.461955937385  L 1025.59575183227 432.61592174089  Z M 1028.9949059561 430.49788172472  C 1028.14244608539 431.023090739021  1027.29198114161 431.55153082926  1026.4435294731 432.083190594599  L 1026.97451734267 432.930570015153  C 1027.82082654661 432.400252768485  1028.66914394205 431.873147066748  1029.51945122689 431.349264282029  L 1028.9949059561 430.49788172472  Z M 1032.41530637184 428.414326286617  C 1031.55757856146 428.930887360608  1030.70181289952 429.45069952036  1029.84802784875 429.973751551177  L 1030.37041886199 430.826457613831  C 1031.22204798063 430.304726365897  1032.07565270913 429.786226807861  1032.93121463133 429.270970126138  L 1032.41530637184 428.414326286617  Z M 1035.85660324418 426.365468530661  C 1034.99369522171 426.873328830964  1034.13271636852 427.384459894332  1033.2736852598 427.89885069336  L 1033.78742598706 428.756796184145  C 1034.64428791657 428.243704297123  1035.50309267226 427.733863914433  1036.36382172576 427.227286035671  L 1035.85660324418 426.365468530661  Z M 1039.31844460051 424.351518012088  C 1038.45044462339 424.850625595218  1037.58434063901 425.353023284226  1036.72015133326 425.858700240047  L 1037.22518922962 426.721797409109  C 1038.08719633099 426.217397361552  1038.95111327612 425.716268300201  1039.81692142635 425.218421036708  L 1039.31844460051 424.351518012088  Z M 1042.80047636698 422.372680715851  C 1041.92747321341 422.86298453357  1041.05633268217 423.356597463432  1040.18707356784 423.853508855898  L 1040.6833569785 424.721669426474  C 1041.55042108645 424.226012807942  1042.41936186041 423.733646322936  1043.29016055335 423.244580594059  L 1042.80047636698 422.372680715851  Z M 1046.30234240466 420.42915903556  C 1045.42442536456 420.91060894007  1044.54833738594 421.395386624495  1043.67409737 421.883481629992  L 1044.16157553557 422.756616807439  C 1045.0336079676 422.269754313223  1045.90748369595 421.786200763341  1046.78318386712 421.305966590261  L 1046.30234240466 420.42915903556  Z M 1049.82368454602 418.521151752775  C 1048.94094341192 418.993698501821  1048.05999759134 419.469591358233  1047.18086609026 419.948820054851  L 1047.65948915192 420.82684053573  C 1048.53640071738 420.348821961665  1049.41512202094 419.874130804307  1050.29563410456 419.40277730492  L 1049.82368454602 418.521151752775  Z M 1053.36414263151 416.648854016677  C 1052.47666768935 417.112449278624  1051.5909541291 417.579408633151  1050.70702105961 418.049722005833  L 1051.17674006426 418.932537987038  C 1052.05844107346 418.463412224413  1052.94191807745 417.997632010541  1053.82715201557 417.535207394438  L 1053.36414263151 416.648854016677  Z M 1056.92335454641 414.812457324108  C 1056.03123656631 415.26705368286  1055.1408458563 415.725031775364  1054.25220162626 416.186381720891  L 1054.71296853148 417.073902908838  C 1055.59936880488 416.613717939392  1056.4875111481 416.156896308566  1057.37737639984 415.7034478721  L 1056.92335454641 414.812457324108  Z M 1059.87996946144 413.321393395357  C 1059.19098740689 413.665251554276  1058.50300972438 414.01111848715  1057.8160451925 414.358989780707  L 1058.26781287149 415.251125400569  C 1059.1588217489 414.799928291585  1060.05153859299 414.352111967091  1060.94594414377 413.907686088538  L 1059.87996946144 413.321393395357  Z M 880.627693745773 609.02219294097  C 880.259479387782 609.953294721862  879.894797568704 610.885789612209  879.53365615643 611.819657493739  L 880.46634384357 612.180342506261  C 880.826573320964 611.248832777702  881.190334265102 610.318692573362  881.557618827991 609.389941960631  L 880.627693745773 609.02219294097  Z M 1063.21887505706 420.457152548004  L 1070 409  L 1056.85750064612 406.872863254713  L 1063.21887505706 420.457152548004  Z " fill-rule="nonzero" fill="#1f8aee" stroke="none" />
  </g>
</svg>