<?xml version="1.0" encoding="utf-8"?>
<svg version="1.1" xmlns:xlink="http://www.w3.org/1999/xlink" width="50px" height="50px" xmlns="http://www.w3.org/2000/svg">
  <g transform="matrix(1 0 0 1 -1020 -94 )">
    <path d="M 1045 94  C 1059 94  1070 105  1070 119  C 1070 133  1059 144  1045 144  C 1031 144  1020 133  1020 119  C 1020 105  1031 94  1045 94  Z " fill-rule="nonzero" fill="#ffffff" stroke="none" />
    <path d="M 1045 94.5  C 1058.72 94.5  1069.5 105.28  1069.5 119  C 1069.5 132.72  1058.72 143.5  1045 143.5  C 1031.28 143.5  1020.5 132.72  1020.5 119  C 1020.5 105.28  1031.28 94.5  1045 94.5  Z " stroke-width="1" stroke="#bbbbbb" fill="none" />
  </g>
</svg>