<?xml version="1.0" encoding="utf-8"?>
<svg version="1.1" xmlns:xlink="http://www.w3.org/1999/xlink" width="140px" height="14px" viewBox="738 368  140 14" xmlns="http://www.w3.org/2000/svg">
  <g transform="matrix(0.898794046299168 -0.438371146789077 0.438371146789076 0.898794046299166 -82.6147694556315 392.156119243387 )">
    <path d="M 755.967490924093 346.683860529064  C 755.151758529257 346.107786600762  754.338383484148 345.5283818436  753.527386159901 344.945660768883  L 752.9438711136 345.757763096635  C 753.757080704779 346.342073738328  754.572674502844 346.923059016094  755.390632081104 347.500704379054  L 755.967490924093 346.683860529064  Z M 759.242905606628 348.970330416919  C 758.420944585735 348.4031791223  757.601304481036 347.832671510259  756.784005820577 347.258821869268  L 756.209374295545 348.077234118956  C 757.028902411964 348.65264912713  757.850778359626 349.224712989802  758.674981554628 349.79341137962  L 759.242905606628 348.970330416919  Z M 762.543039817324 351.220974787322  C 761.714947763504 350.662813465432  760.889139916777 350.101270736057  760.065636959662 349.536360663145  L 759.499957183087 350.360985662993  C 760.325706520459 350.927436717421  761.153767034732 351.490511242705  761.984117987108 352.050195136631  L 762.543039817324 351.220974787322  Z M 765.867501724431 353.43552641662  C 765.033376958763 352.886421339104  764.20149941988 352.333910165525  763.371889942317 351.77800673363  L 762.815229078527 352.608746574209  C 763.647101593906 353.166166418973  764.481248357496 353.720184751897  765.317648477942 354.270787697493  L 765.867501724431 353.43552641662  Z M 769.215896607723 355.613722366525  C 768.375838167562 355.073738729764  767.537989707061 354.530324712771  766.702372210295 353.983493925457  L 766.154796352784 354.82024997131  C 766.992693276251 355.368572422815  767.832827249149 355.91346878361  768.675177230173 356.454925406665  L 769.215896607723 355.613722366525  Z M 772.58782690536 357.755304015333  C 771.74193453258 357.224505932699  770.898214629938 356.690253592962  770.056688328562 356.152560376577  L 769.518262492141 356.99523327793  C 770.362084338485 357.534393232735  771.208105769806 358.070102924701  772.056305597476 358.602348936967  L 772.58782690536 357.755304015333  Z M 775.982892261095 359.860017088634  C 775.131266390244 359.338467582879  774.281775222068 358.813440353282  773.434440032236 358.284948549252  L 772.905228145317 359.133438253812  C 773.754874725785 359.663371696312  774.606683165744 360.189831113588  775.4606321315 360.712803320369  L 775.982892261095 359.860017088634  Z M 779.400689571807 361.927611689498  C 778.543431318185 361.415372685271  777.688269746314 360.899632903381  776.835226273883 360.380405260629  L 776.315291170887 361.234611025461  C 777.170661605207 361.755255035579  778.028155916786 362.272401670523  778.887752629525 362.786037978263  L 779.400689571807 361.927611689498  Z M 782.840813035365 363.957842328148  C 781.978024183013 363.454974644645  781.117293742548 362.94858354531  780.258643271131 362.438681712807  L 779.748046685025 363.298502116297  C 780.6090394133 363.809794876894  781.472117784428 364.317567327619  782.337260182459 364.821806751217  L 782.840813035365 363.957842328148  Z M 786.302854198805 365.950467951108  C 785.434637188425 365.457031294848  784.568440075668 364.96004900293  783.704284554609 364.459533522372  L 783.203087109582 365.324866476268  C 784.069599904366 365.8267472805  784.938159859966 366.325085258132  785.808745223144 366.819867928202  L 786.302854198805 365.950467951108  Z M 789.786402006832 367.905251969824  C 788.912859923623 367.421304927558  788.041298983946 366.933790450791  787.171741016214 366.442720749416  L 786.680002220472 367.313463510949  C 787.551932198935 367.805872769484  788.425870613045 368.294717105302  789.301795574995 368.779984275288  L 789.786402006832 367.905251969824  Z M 793.29104285062 369.821962288752  C 792.412279412037 369.347562320513  791.53545812767 368.869573542497  790.660600957679 368.388007926024  L 790.178379196385 369.264057110108  C 791.055622832434 369.746936358152  791.934835940633 370.22622901071  792.81599650093 370.701923063813  L 793.29104285062 369.821962288752  Z M 796.816360616926 371.700371332918  C 795.932480160366 371.235574765194  795.050502638112 370.767168438524  794.170450139459 370.295164084233  L 793.697802667798 371.176415675739  C 794.580255804509 371.649707580055  795.464639215961 372.119391641921  796.350930752616 372.585456098016  L 796.816360616926 371.700371332918  Z M 800.36193673749 373.540256074937  C 799.473044207907 373.085118093985  798.586015166776 372.62634983351  797.700871829912 372.163962783453  L 797.237854766296 373.050312149561  C 798.125412628184 373.513960515223  799.014861338223 373.973980219838  799.906178620011 374.430359742131  L 800.36193673749 373.540256074937  Z M 803.92735023874 375.341398061496  C 803.033551176178 374.895972706786  802.141575934961 374.446896983011  801.251446854782 373.994182137357  L 800.798115174181 374.885524039975  C 801.690672379693 375.339473817068  802.58508078219 375.789774545319  803.481317981192 376.236414946938  L 803.92735023874 375.341398061496  Z M 807.512177791766 377.103583439285  C 806.613578318834 376.667923597091  805.716762783593 376.228593729703  804.821753646964 375.78560484022  L 804.378161174386 376.681833448485  C 805.275611748315 377.12603073859  806.174873648404 377.566559025389  807.075924352481 378.003407275773  L 807.512177791766 377.103583439285  Z M 811.117153325575 378.821936204236  C 810.213195538712 378.397893712956  809.31118510309 377.969712267358  808.411150414209 377.537405346695  L 807.978183085945 378.438814960941  C 808.880970778545 378.87244421126  809.785740261275 379.301935367624  810.692463051732 379.72727490953  L 811.117153325575 378.821936204236  Z M 814.743248624514 380.495975076564  C 813.834178139514 380.08300707763  812.92700429851 379.665876644162  812.02175565955 379.244596907525  L 811.599832360834 380.151228436869  C 812.507849951827 380.573796773492  813.41779863361 380.992203115154  814.32964976081 381.406434290336  L 814.743248624514 380.495975076564  Z M 818.389523594163 382.125592242883  C 817.475476079784 381.723760367221  816.563274219103 381.317743198006  815.652946728451 380.907553516755  L 815.242130426689 381.819271656427  C 816.155242404438 382.230716015677  817.07023448548 382.63797510011  817.987077865673 383.041036089124  L 818.389523594163 382.125592242883  Z M 822.055434068143 383.710544500779  C 821.136545935909 383.31990871737  820.219452191632 382.925065405999  819.304181705641 382.526026996427  L 818.90453371064 383.442695682535  C 819.82260380324 383.842954660875  820.742502731051 384.239005709146  821.66420153546 384.630836359578  L 822.055434068143 383.710544500779  Z M 825.740432949694 385.250595313585  C 824.816841333537 384.871213920518  823.894992571804 384.487603393006  822.974915684512 384.099775807199  L 822.586495639335 385.021258237039  C 823.509386834936 385.410272100224  824.434055324732 385.795056006076  825.360471999964 386.175597841517  L 825.740432949694 385.250595313585  Z M 829.443970293317 386.745514845679  C 828.515813029114 386.377444461447  827.5893468257 386.00512396744  826.66460084845 385.628565084395  L 826.28746672051 386.554723736864  C 827.215041287742 386.93243442885  828.144341342983 387.305893767542  829.075337631527 387.675089996305  L 829.443970293317 386.745514845679  Z M 833.165493386857 388.195079996785  C 832.232908991857 387.838375551841  831.301963611638 387.477400656072  830.372686552581 387.112166673054  L 830.006894624993 388.042863329173  C 830.939014133604 388.409214480814  831.87280706642 388.771293517624  832.808244027372 389.129089041253  L 833.165493386857 388.195079996785  Z M 836.90444683398 389.599074435271  C 835.967574486144 389.253789163828  835.03228886244 388.904213737816  834.098619405955 388.550359161979  L 833.744224269135 389.485454925523  C 834.680749610543 389.84039186294  835.618896062648 390.19103656157  836.558634092331 390.537377983017  L 836.90444683398 389.599074435271  Z M 840.660272637065 390.95728863043  C 839.719252154248 390.623474062503  838.779765868187 390.285350276547  837.841843354131 389.942927916781  L 837.49889789765 390.882283235007  C 838.439689305763 391.22575298777  839.382049269132 391.564911018361  840.325948121995 391.899746649986  L 840.660272637065 390.95728863043  Z M 844.432410280477 392.269519883754  C 843.487382099635 391.947225837494  842.543835359172 391.620604152838  841.601799762163 391.289665111911  L 841.270355166854 392.233139796384  C 842.215272238928 392.565091105421  843.161705076691 392.892711852363  844.10962388624 393.215991723639  L 844.432410280477 392.269519883754  Z M 848.220296814221 393.53557235918  C 847.2714019704 393.224846933425  846.323935589494 392.909776094756  845.37792749797 392.590369761677  L 845.058033228287 393.53782300919  C 846.00693494582 393.858206334412  846.957299413373 394.174240903942  847.909096713129 394.485916768897  L 848.220296814221 393.53557235918  Z M 852.023366937951 394.755257112321  C 851.070747043256 394.456146679418  850.119502420829 394.152673707589  849.169663016077 393.844847750234  L 848.861366812717 394.796138163827  C 849.814111562627 395.104905691568  850.768265828444 395.409306918975  851.723799573191 395.709332263434  L 852.023366937951 394.755257112321  Z M 855.841053085338 395.928392118661  C 854.884850307795 395.640941317548  853.929969406631 395.349111502557  852.976440441721 395.052911860561  L 852.679788314497 396.007897470617  C 853.636233910088 396.305003120711  854.594035577226 396.597725577488  855.553163164041 396.886055625962  L 855.841053085338 395.928392118661  Z M 859.672785508772 397.054802300722  C 858.713142551128 396.779054030268  857.754767876658 396.498910924495  856.797691655298 396.214381802394  L 856.512727876273 397.172920087829  C 857.472731578586 397.458319520534  858.434037705671 397.739319521072  859.396615995338 398.01591124348  L 859.672785508772 397.054802300722  Z M 863.517992364394 398.13431955419  C 862.555052442764 397.87031496678  861.593327021903 397.601900378511  860.632846377154 397.329084239138  L 860.359613474032 398.291032148669  C 861.3230320131 398.564682771268  862.287699135757 398.833918379403  863.25358447408 399.098730497481  L 863.517992364394 398.13431955419  Z M 867.376099797429 399.166782773005  C 866.410006620005 398.91456126842  865.445073979654 398.657915255569  864.481332252685 398.39685281373  L 864.219871002469 399.362066787228  C 865.186560598661 399.623927760371  866.154444750996 399.881358795669  867.123492990202 400.134351789118  L 867.376099797429 399.166782773005  Z M 871.246681627495 400.149411017006  C 870.404951063447 399.941493392996  869.564050940851 399.730228126594  868.724001220479 399.515620232685  C 868.596839443238 399.482999464146  868.469697325785 399.450302105105  868.342574937763 399.417528173471  L 868.092924360664 400.385864163381  C 868.220596017565 400.418779704223  868.34828751369 400.451618244762  868.475998779659 400.484379767157  C 869.318778218021 400.699686384129  870.162410989289 400.911638872808  871.006877060164 401.12023220007  L 871.246681627495 400.149411017006  Z M 875.129790024261 401.083457291028  C 874.157596960772 400.855877937516  873.186451576618 400.623846001865  872.216384443685 400.387368788494  L 871.979545979217 401.358917830874  C 872.952580329368 401.596118374863  873.926696228893 401.828860044033  874.901863012343 402.057135511612  L 875.129790024261 401.083457291028  Z M 879.024019080319 401.969997375858  C 878.049118426275 401.754311424565  877.075210980141 401.534160424813  876.102327400754 401.309551307008  L 875.877375161981 402.283921098345  C 876.853234573474 402.509217244937  877.83012098348 402.73004163709  878.808003639408 402.946387323209  L 879.024019080319 401.969997375858  Z M 882.928787624872 402.80889896515  C 881.951324873457 402.60513860483  880.974800710304 402.39690139609  879.999245876624 402.184193894287  L 879.786213435189 403.161239020622  C 880.764752271743 403.374597146844  881.744263402717 403.583471306379  882.724715992896 403.787854923824  L 882.928787624872 402.80889896515  Z M 886.843512914223 403.600036862084  C 885.863633941001 403.408232501728  884.884638796278 403.211940161104  883.90655829913 403.011166019557  L 883.70547744778 403.990740667667  C 884.686549673238 404.192128932167  885.668539343958 404.38902168692  886.651415546624 404.581412733685  L 886.843512914223 403.600036862084  Z M 890.76761071874 404.343292998041  C 889.785461759829 404.163473262331  888.80414173783 403.979155084304  887.823681544931 403.790344266338  L 887.634582292768 404.772302245496  C 888.618041492918 404.961690593295  889.602363152217 405.146572559186  890.587516283934 405.32694232303  L 890.76761071874 404.343292998041  Z M 894.700495410045 405.038556450228  C 893.716223040385 404.870748175286  892.732724592265 404.698431667304  891.750031026525 404.521612350859  L 891.57294159453 405.505807114651  C 892.558640998919 405.683167281625  893.545147747629 405.856010867056  894.532430785144 406.024332429778  L 894.700495410045 405.038556450228  Z M 898.641580048415 405.685723458235  C 897.655331159792 405.529951687592  896.669801061912 405.369662566005  895.685020779497 405.204861139411  L 895.519967596316 406.191145807609  C 896.507760100165 406.356451324707  897.496304713019 406.517230734677  898.485570315213 406.673478976137  L 898.641580048415 405.685723458235  Z M 902.590276470376 406.284697439512  C 901.602198249598 406.140985420394  900.61478358142 405.992747606579  899.628063549966 405.839988664639  L 899.475071247969 406.828216045118  C 900.464809434139 406.981442242314  901.455244381717 407.130133482264  902.446344911606 407.274285084135  L 902.590276470376 406.284697439512  Z M 906.545995376477 406.83538900379  C 905.556235283311 406.703758183629  904.567083405649 406.567593800455  903.578570882228 406.426900140754  L 903.437662293832 407.416922751464  C 904.429198454785 407.558046761433  905.421375925606 407.694627640836  906.41416347234 407.826661090077  L 906.545995376477 406.83538900379  Z M 910.50814641924 407.337715966419  C 909.516852164491 407.218185989666  908.526110697343 407.094115358164  907.535953206574 406.965507977684  L 907.407149360833 407.957178068652  C 908.400335520707 408.086178830189  909.394107443237 408.210628965857  910.388433844196 408.330524557929  L 910.50814641924 407.337715966419  Z M 914.476138291261 407.791603360631  C 913.483457814678 407.68419206582  912.491274615297 407.572233702165  911.49961992728 407.45573179414  L 911.382940046749 408.448901369529  C 912.377627983461 408.565759630693  913.372846048159 408.678060449809  914.368562911092 408.785800291617  L 914.476138291261 407.791603360631  Z M 918.449378813457 408.196983448733  C 917.455460261682 408.101706865817  916.461983402456 408.001877478559  915.468979510743 407.897498429617  L 915.36444100861 408.892019269807  C 916.360482275941 408.996717590789  917.356997957472 409.096852333694  918.353956682605 409.192420346253  L 918.449378813457 408.196983448733  Z M 922.427275023442 408.553795732211  C 921.432266727845 408.470668080169  920.437644474304 408.382982567749  919.443439573764 408.290741955311  L 919.351058051249 409.28646563902  C 920.348304001023 409.37898839475  921.345968580373 409.466942117434  922.344020382608 409.550324038271  L 922.427275023442 408.553795732211  Z M 926.409233264018 408.861986960762  C 925.413283718654 408.791020645482  924.417664507164 408.715492093993  923.422406971954 408.635403683957  L 923.342196215981 409.632181610392  C 924.340498020198 409.712514992865  925.339162606967 409.788274569208  926.338158538042 409.859457954489  L 926.409233264018 408.861986960762  Z M 930.394659271776 409.121511140239  C 929.39791711112 409.06271675266  928.401449526933 408.999356433911  927.405287888252 408.931432178588  L 927.337259869394 409.929115589621  C 928.336468542531 409.997247609967  929.335984096978 410.060801733684  930.335775067777 410.119775960073  L 930.394659271776 409.121511140239  Z M 934.382899364601 409.331546152862  C 933.830436322643 409.305834363465  933.278032173567 409.278872389247  932.725691160594 409.250660437315  C 932.280908252104 409.227610206901  931.83617291057 409.203651097844  931.391487921551 409.178783260212  L 931.33565279224 410.177223262583  C 931.78182187729 410.20217409438  932.228041496852 410.226212911523  932.674308854426 410.249339563358  C 933.228280450165 410.277635363085  933.782315383766 410.304677214504  934.336409397395 410.330464909793  L 934.382899364601 409.331546152862  Z M 938.37406484615 409.495509531485  C 937.376058631816 409.459955248959  936.378201864762 409.420323076766  935.380519536503 409.376614007501  L 935.336750912573 410.375655702106  C 936.337154753662 410.419484002502  937.33773350938 410.459224284724  938.338462120052 410.494875553468  L 938.37406484615 409.495509531485  Z M 942.366779976084 409.615974388719  C 941.368445600643 409.59129675479  940.370216229775 409.562539844863  939.372116864483 409.529704379165  L 939.339236659667 410.529163679052  C 940.34005867545 410.562088714486  941.341011051279 410.590924068517  942.342068718279 410.615669018963  L 942.366779976084 409.615974388719  Z M 946.360570691091 409.692926421523  C 945.362026688794 409.679128366215  944.36354323605 409.661250132925  943.365145340072 409.639292169415  L 943.343157458305 410.639050406718  C 944.34427881909 410.661068267931  945.34548596994 410.678995270092  946.346753835599 410.692830964219  L 946.360570691091 409.692926421523  Z M 950.354962800154 409.726356493222  C 949.356327730216 409.723439654809  948.357708747548 409.716442220873  947.359130862753 409.705364366665  L 947.348037914701 410.705302838024  C 948.349339755257 410.71641091079  949.350682805788 410.723427432572  950.352041987478 410.726352227639  L 950.354962800154 409.726356493222  Z M 954.349482040848 409.716260634595  C 953.350874473275 409.724225359399  952.352238528775 409.728109555637  951.353599218377 409.727913126029  L 951.35340252113 410.727913106684  C 952.354765954873 410.728110072119  953.356126013452 410.724215280435  954.357457617782 410.716228829176  L 954.349482040848 409.716260634595  Z M 958.343654135655 409.662640044345  C 957.345192637159 409.681485386698  956.346658300987 409.69625075193  955.348076135469 409.706935770245  L 955.358775712379 410.706878528133  C 956.36008184531 410.696164362852  957.361340018494 410.681358720137  958.362525155242 410.6624619708  L 958.343654135655 409.662640044345  Z M 962.337004848274 409.565501088955  C 961.338807968303 409.595224811309  960.340493798399 409.620869592416  959.342087341535 409.642434789997  L 959.363681922221 410.642201599851  C 960.364811867219 410.620577575967  961.365849273506 410.594862840128  962.36676906992 410.565058036362  L 962.337004848274 409.565501088955  Z M 966.32906003993 409.424855301933  C 965.331246296434 409.46545387513  964.333270824754 409.501975027252  963.335158619378 409.534417843621  L 963.36764563987 410.533890001062  C 964.36848053071 410.501358686042  965.369178314861 410.46473791024  966.369713929667 410.424028590832  L 966.32906003993 409.424855301933  Z M 970.319345725666 409.240719382445  C 969.322033591131 409.292187986132  968.324515309363 409.339581173038  967.326815863398 409.382897756192  L 967.370191466445 410.381956591827  C 968.370612471961 410.338521848178  969.370851819009 410.290999380478  970.370884456573 410.239390378928  L 970.319345725666 409.240719382445  Z M 974.307388130622 409.013115193328  C 973.310696017979 409.075447716532  972.313753363527 409.133707311131  971.316585135889 409.187892518001  L 971.370844171416 410.186419411512  C 972.370732509504 410.132086396335  973.37039465907 410.073667879172  974.3698055834 410.011165323126  L 974.307388130622 409.013115193328  Z M 978.292713746289 408.742069758498  C 977.296759994849 408.81525880035  976.300511336775 408.884377885359  975.303992723306 408.949425282425  L 975.369128749026 409.947301676651  C 976.36836570093 409.882076841013  977.36733196096 409.812769210545  978.366002509984 409.739380521057  L 978.292713746289 408.742069758498  Z M 982.274849386727 408.427615259739  C 981.279752248136 408.511652130352  980.284315873099 408.591622499121  979.288565192512 408.66752436317  L 979.364570474691 409.664631778187  C 980.363037398918 409.58852286637  981.361189160137 409.50833435163  982.359000759613 409.424068242293  L 982.274849386727 408.427615259739  Z M 986.253322244748 408.069789032882  C 985.259199868944 408.164663754386  984.26469396716 408.255475911866  983.26982944699 408.342223230915  L 983.356694961363 409.3384432781  C 984.354273307848 409.251459326673  985.351492057687 409.160399448607  986.348326235359 409.065265924511  L 986.253322244748 408.069789032882  Z M 989.010364624041 407.796151663801  C 988.422824456019 407.856708176478  987.835138792696 407.915844631028  987.247312783015 407.973560509335  L 987.34502821586 408.968774905424  C 988.341599540091 408.87092624217  989.337766876657 408.769005812508  990.33350527637 408.663016169052  L 989.010364624041 407.796151663801  Z M 752.717184666467 344.36183660105  C 751.90777775128 343.77690843751  751.100764339459 343.188675329151  750.296164642812 342.597152008385  L 749.703835357188 343.402847991615  C 750.510629869116 343.995984890448  751.319844680365 344.585822601666  752.131459524132 345.172346352771  L 752.717184666467 344.36183660105  Z M 990.064088670391 415.861583721331  L 1000 407  L 988.121232312487 400.987938936929  L 990.064088670391 415.861583721331  Z " fill-rule="nonzero" fill="#1f8aee" stroke="none" />
  </g>
</svg>