<?xml version="1.0" encoding="utf-8"?>
<svg version="1.1" xmlns:xlink="http://www.w3.org/1999/xlink" width="192px" height="18px" viewBox="210 224  192 18" xmlns="http://www.w3.org/2000/svg">
  <g transform="matrix(0.933580426497202 -0.3583679495453 0.3583679495453 0.933580426497202 -63.1753427521988 125.136353187014 )">
    <path d="M 225.002281375416 205.522265278977  C 224.012941148154 205.369019221768  223.023080803109 205.219150033756  222.032717633872 205.072660333269  L 221.886394532697 206.061897185627  C 222.874506988477 206.208053971532  223.862117762807 206.357582564693  224.849209601364 206.510480352728  L 225.002281375416 205.522265278977  Z M 228.956794515017 206.153247881165  C 227.968889900498 205.991004508605  226.980434457952 205.832133131979  225.991445456429 205.676636526888  L 225.836125693992 206.664500774341  C 226.822867105036 206.819643995635  227.809076169617 206.9781543189  228.794735658052 207.140028974863  L 228.956794515017 206.153247881165  Z M 232.905401524277 206.820193082789  C 231.91901434467 206.648965832517  230.932045672417 206.481105425632  229.944512750591 206.31661479478  L 229.780209191088 207.303024618502  C 230.765497831518 207.467141425601  231.750223504713 207.634620350535  232.734369006753 207.805458467317  L 232.905401524277 206.820193082789  Z M 236.847775363934 207.523045644806  C 235.86298731573 207.342848698541  234.877587158421 207.166013164261  233.891592107677 206.992542131414  L 233.71831835938 207.977415833038  C 234.702072623716 208.150492633143  235.685233346596 208.32692628847  236.667783351442 208.506713716586  L 236.847775363934 207.523045644806  Z M 240.783589510982 208.261747354187  C 239.800482158225 208.072595636552  238.816732130602 207.886799621096  237.832356614953 207.704362553811  L 237.65012702908 208.6876185622  C 238.632265438924 208.869641020409  239.613779782176 209.055014793186  240.594652911173 209.243736641936  L 240.783589510982 208.261747354187  Z M 244.712517985715 209.036237028731  C 243.731172753247 208.838146206021  242.74915433338 208.64340509775  241.766479882703 208.452017106188  L 241.575309552229 209.433573984187  C 242.555750762942 209.624527024671  243.535537433764 209.818825561526  244.514652447066 210.016466200209  L 244.712517985715 209.036237028731  Z M 248.634235378726 209.846450522139  C 247.654733545444 209.63943700102  246.674528067986 209.435766929162  245.693636071268 209.235443864834  L 245.493540829677 210.215220316017  C 246.47220363726 210.415088123294  247.450181485792 210.618295331646  248.427457289244 210.824838390886  L 248.634235378726 209.846450522139  Z M 252.548416877858 210.692320729321  C 251.57083956998 210.476401655472  250.592528219429 210.263819488791  249.613499918027 210.054577943245  L 249.404496337999 211.032492818648  C 250.381299685726 211.241258838875  251.357387711972 211.453357888297  252.332743363723 211.668786261381  L 252.548416877858 210.692320729321  Z M 256.454738295106 211.57377759196  C 255.479166479455 211.348970848653  254.502830283428 211.127494194044  253.525746764342 210.909351497494  L 253.30785215638 211.885323802337  C 254.282715141532 212.102970744685  255.256832502017 212.323944068296  256.230187219252 212.548239912593  L 256.454738295106 211.57377759196  Z M 260.352876093469 212.490748104309  C 259.379390570764 212.257072310929  258.40511039329 212.026719511965  257.430052582444 211.799693731851  L 257.203284993442 212.773642632245  C 258.176126874008 213.000152470334  259.148192888477 213.229981766247  260.119466054105 213.463126504688  L 260.352876093469 212.490748104309  Z M 264.242507413745 213.44315631924  C 263.27118881191 213.200630829741  262.29904534673 212.961420965153  261.326094002271 212.72553090465  L 261.090472214019 213.697375734292  C 262.061212415383 213.93272970768  263.031146573481 214.171395940523  264.000257742815 214.413370263138  L 264.242507413745 213.44315631924  Z M 268.123310101274 214.430923354536  C 267.154238868759 214.179568255838  266.184312632642 213.931521137934  265.213548338252 213.686786334391  L 264.969091865879 214.656446601245  C 265.937649987495 214.900625216985  266.905371955437 215.148108619476  267.872240862853 215.398892484994  L 268.123310101274 214.430923354536  Z M 271.994962732615 215.453967399421  C 271.028219131737 215.193803509749  270.060590457812 214.936939682773  269.092093616032 214.683380406094  L 268.838822706391 215.650775799059  C 269.805118528467 215.903758833318  270.770548155638 216.160038907889  271.735094721252 216.419611545404  L 271.994962732615 215.453967399421  Z M 275.857144642173 216.512203721338  C 274.892808742462 216.243252588495  273.927557773568 215.977593326926  272.96140859914 215.715230577894  L 272.699344229129 216.680280973454  C 273.66329771917 216.942047473162  274.626355044968 217.207102993711  275.588499381166 217.475442904375  L 275.857144642173 216.512203721338  Z M 279.709535948756 217.605544672966  C 278.747687620329 217.32782857255  277.784894302371 217.053395879339  276.821172815593 216.782251387876  L 276.550336690421 217.744876856738  C 277.511868010009 218.015405141364  278.472473270164 218.289214154929  279.432135688368 218.566299113776  L 279.709535948756 217.605544672966  Z M 283.551817582068 218.733899699481  C 282.59253648901 218.447441633037  281.632280564341 218.164258237786  280.671066584441 217.884354461152  L 280.391481135828 218.844475274864  C 281.350510647134 219.123742938186  282.308584280516 219.40628276682  283.265685297686 219.692089824578  L 283.551817582068 218.733899699481  Z M 287.383671309135 219.897175346051  C 286.427036902904 219.601999039172  285.46939790372 219.310088396251  284.510771042246 219.021448517184  L 284.222459426565 219.97898515474  C 285.178907698993 220.266969066711  286.134370354102 220.558216309333  287.088830699368 220.852721794338  L 287.383671309135 219.897175346051  Z M 291.204779760666 221.095275265585  C 290.250871273509 220.79140516594  289.295928515263 220.490791452543  288.339968169484 220.193439377341  L 288.042954265845 221.148312531767  C 288.996742082539 221.444988840413  289.949514624225 221.744919374788  290.90125524538 222.048098894921  L 291.204779760666 221.095275265585  Z M 295.014826457333 222.328100226705  C 294.063722895727 222.015561502018  293.111555470558 221.706269616164  292.158340816895 221.400229972701  L 291.852649225164 222.352360557624  C 292.803697589617 222.65770469103  293.753701105537 222.96629367574  294.70264317563 223.278122120466  L 295.014826457333 222.328100226705  Z M 298.813495835989 223.595548121968  C 297.865275974096 223.274366657933  296.915962744278 222.956422216399  295.965572731741 222.641720352092  L 295.651228770507 223.591029508287  C 296.599458913153 223.905016176651  297.546614720207 224.222238053119  298.492679644124 224.54268959558  L 298.813495835989 223.595548121968  Z M 302.6004732758 224.897513976321  C 301.655215648942 224.567716374459  300.708835240355 224.241145710663  299.761348584007 223.917807690365  L 299.43837828848 224.86421679229  C 300.383711673146 225.186819989994  301.32794132414 225.512648484649  302.27105074504 225.84169658378  L 302.6004732758 224.897513976321  Z M 306.375445124307 226.233889955801  C 305.433228022461 225.895503531254  304.489858818076 225.560333693071  303.545353992512 225.228386296916  L 303.21378411237 226.171816959224  C 304.156142442804 226.503009966994  305.097367732901 226.837418093431  306.037443538729 227.175035496165  L 306.375445124307 226.233889955801  Z M 310.138098723397 227.604565376459  C 309.199000184714 227.257618155731  308.258720318103 226.913876903252  307.317275550951 226.573347624439  L 306.977133548124 227.513721708468  C 307.916438774478 227.853477095588  308.854581747675 228.196437156801  309.791546077632 228.542595900329  L 310.138098723397 227.604565376459  Z M 313.887826485889 229.013738014159  C 313.122701570654 228.720936494609  312.356523969915 228.430893208301  311.589308608784 228.143613805268  C 311.41851228323 228.079829793241  311.247676331865 228.016151938468  311.07680085385 227.952580277911  L 310.728114900246 228.889819898157  C 310.898465862424 228.953196420459  311.068777450637 229.016678726393  311.239049566454 229.080266779271  C 312.003878618695 229.366653760275  312.767673318686 229.655795538097  313.530418793097 229.947686482295  L 313.887826485889 229.013738014159  Z M 317.62061055875 230.467410269926  C 316.689558394002 230.098514428033  315.756885642171 229.733721958805  314.822619453362 229.373043481352  L 314.462470415627 230.305938261388  C 315.393996804302 230.665559024292  316.323934428877 231.029281714411  317.25225621884 231.397095743766  L 317.62061055875 230.467410269926  Z M 321.336060441228 231.964832098464  C 320.40940602486 231.585024425688  319.481082929999 231.209300805044  318.551118180062 230.837672173817  L 318.180035062282 231.76627182905  C 319.107272626353 232.136810633646  320.032873349627 232.511432418825  320.95681028791 232.890126279364  L 321.336060441228 231.964832098464  Z M 325.033663393053 233.505796852262  C 324.111534605428 233.115129762904  323.187689278146 232.728526841522  322.262154304276 232.345999342095  L 321.880188316739 233.270175723727  C 322.803009095355 233.651581434833  323.724145182437 234.037050616459  324.643569763684 234.426572047587  L 325.033663393053 233.505796852262  Z M 328.712909136869 235.090091874788  C 327.795433233804 234.688619281773  326.876193166768 234.291190411696  325.955215694843 233.897816833714  L 325.562419549697 234.817442403367  C 326.480696191581 235.209662386164  327.397240523613 235.605925768622  328.31202586523 236.006221015531  L 328.712909136869 235.090091874788  Z M 332.373289928657 236.717498529838  C 331.460593523847 236.305275837268  330.546085574213 235.897075864557  329.629792701153 235.49291049444  L 329.226220605132 236.407858341758  C 330.139826386072 236.810838469021  331.05165247794 237.2178413671  331.961672337522 237.62885518816  L 332.373289928657 236.717498529838  Z M 336.014300627801 238.387792231708  C 335.106509675327 237.964876327207  334.196860047277 237.545961584389  333.285378223483 237.131060197832  L 332.871085870425 238.041204057998  C 333.77989471081 238.45488871758  334.686876728505 238.872574963983  335.592005521305 239.294250638382  L 336.014300627801 238.387792231708  Z M 339.635438766803 240.100742476186  C 338.732678543839 239.667191723091  337.828012770979 239.237620021303  336.921467782974 238.812039875623  L 336.496512346137 239.717254146778  C 337.400398828334 240.141586249279  338.302411606361 240.569898202395  339.202524422601 241.002177537954  L 339.635438766803 240.100742476186  Z M 343.236204620619 241.856112872365  C 342.338599710078 241.411987101641  341.439042638255 240.971817722713  340.537559591257 240.535617548913  L 340.101999715427 241.435777309493  C 341.000839101132 241.870698296158  341.897758159695 242.309576847972  342.792730781845 242.752400189202  L 343.236204620619 241.856112872365  Z M 346.816101275628 243.653661175261  C 345.923775548942 243.199021677231  345.02945131906 242.74831536553  344.133154619693 242.301555360184  L 343.687050413093 243.196536386158  C 344.580718660478 243.641986236929  345.472420222793 244.091370821245  346.362129142648 244.544677057542  L 346.816101275628 243.653661175261  Z M 350.374634698204 245.493139319247  C 349.487711298312 245.028048835177  348.59874332904 244.566867789144  347.707756668245 244.109609606128  L 347.251169694239 244.999288388143  C 348.139543475106 245.455205629952  349.025904484416 245.915034230718  349.910226920173 246.378760804818  L 350.374634698204 245.493139319247  Z M 353.911313802891 247.374293452288  C 353.029915127166 246.898816165682  352.146426098065 246.427224029328  351.260872433954 245.959530771275  L 350.793865702551 246.843784531699  C 351.676822419383 247.310106246973  352.557720555869 247.780315406806  353.436534469106 248.254398323431  L 353.911313802891 247.374293452288  Z M 357.425650520182 249.296863970967  C 356.549898203583 248.811065498739  355.672010038085 248.329127352819  354.792011579016 247.851063562427  L 354.314649538172 248.729770272292  C 355.192067340974 249.206432107596  356.067381038799 249.68695693662  356.940565151237 250.171330771271  L 357.425650520182 249.296863970967  Z M 360.917159863865 251.260585556315  C 360.047174762141 250.764532939725  359.175008610749 250.272315292765  358.300686798447 249.783946943892  L 357.813035325177 250.656985339736  C 358.684793128382 251.143921514698  359.55440159228 251.634695699403  360.42183540261 252.129293607436  L 360.917159863865 251.260585556315  Z M 364.385359997957 253.265187210429  C 363.521262170969 252.75894890583  362.654938394533 252.25651968495  361.786413887335 251.757914173503  L 361.288540278616 252.625163774104  C 362.154517777715 253.122307090453  363.018300999825 253.623262902932  363.879864800259 254.12801662874  L 364.385359997957 253.265187210429  Z M 367.829772303198 255.310392293861  C 366.971680998361 254.794038163262  366.111319151449 254.281466704788  365.248711807662 253.772692839434  L 364.74068477115 254.634033962435  C 365.600762459339 255.141315813298  366.458601235673 255.652384120546  367.314176128508 256.167224007002  L 367.829772303198 255.310392293861  Z M 371.249921443099 257.395918563804  C 370.397955078883 256.8695198652  369.543673893369 256.346876905149  368.687102754685 255.828004897789  L 368.16899239923 256.683318676217  C 369.023051583882 257.200669055575  369.874827530822 257.721779329051  370.724295444826 258.246634327111  L 371.249921443099 257.395918563804  Z M 374.645335429544 259.521478213037  C 373.799611579205 258.985107590621  372.951528947732 258.452465254847  372.101112222878 257.923566710974  L 371.572990048851 258.772735109645  C 372.420912867939 259.300082622017  373.266508438481 259.83116294733  374.109752145232 260.36596062586  L 374.645335429544 259.521478213037  Z M 378.015545687919 261.686777909645  C 377.176181063191 261.140509383732  376.334414023075 260.597941178077  375.49026907141 260.059089086843  L 374.952207960834 260.901994918645  C 375.79387739913 261.439266788907  376.633175899246 261.980243875814  377.470079029243 262.524910431549  L 378.015545687919 261.686777909645  Z M 381.360087121784 263.891518837499  C 380.527197556835 263.335427794348  379.691862273781 262.783008594421  378.85410558917 262.234277318601  L 378.306179795664 263.070804260673  C 379.14147970093 263.617926344123  379.974365305577 264.168725536594  380.804812364345 264.72318580435  L 381.360087121784 263.891518837499  Z M 384.67849817705 266.135396737492  C 383.852198612486 265.569559918899  383.023410364583 265.007365959754  382.192157559304 264.448831225481  L 381.634442697835 265.27886383526  C 382.463257796833 265.835760627837  383.289615565984 266.396305914386  384.113491949987 266.960483377416  L 384.67849817705 266.135396737492  Z M 387.97032090568 268.41810194953  C 387.150725372672 267.842597442231  386.328598534503 267.270706307857  385.503964323286 266.702445194161  L 384.936537359734 267.52586892532  C 385.758753274165 268.092463574047  386.578469168605 268.662677598174  387.395661181099 269.236494398752  L 387.97032090568 268.41810194953  Z M 391.233661072314 270.743661082746  C 390.770937688371 270.408643089286  390.307314764852 270.074869289524  389.842797324835 269.742343299698  C 389.49202685118 269.492499776992  389.140783394141 269.243320970294  388.789068844485 268.994808220951  L 388.212008085021 269.811509439198  C 388.562368283438 270.059065237655  388.912259635652 270.30728391787  389.261680261738 270.556164146192  C 389.724418104271 270.887418818292  390.186265469446 271.21991565731  390.647217360401 271.553651065868  L 391.233661072314 270.743661082746  Z M 394.463864065833 273.113445267208  C 393.660044508959 272.515932456741  392.853413993959 271.922210478945  392.043999383785 271.332299106346  L 391.4550141804 272.140442924112  C 392.261890196145 272.728504137713  393.065990848546 273.320364005166  393.867289358946 273.916002815987  L 394.463864065833 273.113445267208  Z M 397.664036421857 275.523628943199  C 396.867787892228 274.916063541143  396.068680995691 274.312253353665  395.266742344577 273.712218489211  L 394.667649543371 274.512898085268  C 395.467073047148 275.111051040066  396.263673677687 275.712967477222  397.0574249061 276.318627351342  L 397.664036421857 275.523628943199  Z M 400.833672903128 277.973831595403  C 400.045121110992 277.356309523061  399.253663994406 276.742506454316  398.459327910945 276.132442830402  L 397.850222095573 276.925531794945  C 398.642066875888 277.533682055665  399.431041718739 278.145560033077  400.217120349198 278.761145350041  L 400.833672903128 277.973831595403  Z M 403.972273093335 280.463666390386  C 403.191542533781 279.836285140992  402.407860150924 279.212586097066  401.621252043418 278.592590029402  L 401.002229378375 279.377963151022  C 401.786370420256 279.99601470404  402.567594913519 280.617757619535  403.345876841402 281.243171191887  L 403.972273093335 280.463666390386  Z M 407.07934147612 282.992740237661  C 406.306555409436 282.355598861001  405.530771486624 281.722102310339  404.752015543299 281.092271682751  L 404.12317375873 281.869804968199  C 404.899487263439 282.497660236678  405.672838068864 283.129169930657  406.443200420459 283.764313019259  L 407.07934147612 282.992740237661  Z M 410.154387513307 285.560653851755  C 409.38966794552 284.913852938524  408.621904962075 284.270658896382  407.85112413147 283.631093145358  L 407.212562507746 284.400663839126  C 407.980925912352 285.038223698445  408.746280934754 285.679400469333  409.508602086684 286.324172798974  L 410.154387513307 285.560653851755  Z M 413.19692572235 288.167001815245  C 412.440393385962 287.510643481168  411.680772554876 286.857853493825  410.918088526435 286.208653592815  L 410.269907878477 286.970140196514  C 411.030199875184 287.6173039899  411.787438281755 288.268046609917  412.541597880167 288.922346385133  L 413.19692572235 288.167001815245  Z M 416.206475752976 290.811372642763  C 415.458250087896 290.145560512464  414.706891336712 289.483277641206  413.952424521559 288.824546084674  L 413.294727182923 289.577828376216  C 414.046827738255 290.234493930661  414.795829977584 290.894699661757  415.541708957174 291.558423582926  L 416.206475752976 290.811372642763  Z M 419.182562463027 293.493348845963  C 418.442761597749 292.818188036639  417.69978354955 292.146516841419  416.953653061522 291.478357628695  L 416.286542868239 292.223316681273  C 417.030333241961 292.889380323642  417.770981062968 293.558944933765  418.50846166575 294.231988213389  L 419.182562463027 293.493348845963  Z M 422.124715993469 296.212506999432  C 421.393456726369 295.528104104207  420.658976681165 294.847150627241  419.921300317947 294.16966924605  L 419.244882592133 294.906187446915  C 419.980245356003 295.581544020318  420.712421826589 296.260361799853  421.441387620497 296.942618179111  L 422.124715993469 296.212506999432  Z M 425.032471842578 298.96841780754  C 424.309869623507 298.27488087867  423.584003539642 297.584752627626  422.854897764205 296.898056037467  L 422.169279297432 297.626017106496  C 422.896098353746 298.310559986894  423.619687879252 298.998523765353  424.340023776523 299.689885530877  L 425.032471842578 298.96841780754  Z M 427.905370939269 301.760646172216  C 427.191539851331 301.05808470403  426.474402327173 300.358890635054  425.753982249389 299.663087250317  L 425.059271285827 300.38237625837  C 425.777431885744 301.075997371408  426.492320227201 301.772998534349  427.203912502544 302.47335653523  L 427.905370939269 301.760646172216  Z M 430.742959715579 304.588751261641  C 430.03801245708 303.877276173218  429.329716713004 303.169126673805  428.618096071437 302.464326346615  L 427.914402290757 303.174829733682  C 428.623791052419 303.877419571749  429.329865344586 304.583348077926  430.032601653137 305.292591742946  L 430.742959715579 304.588751261641  Z M 433.544790178271 307.452286579845  C 432.848838044981 306.732010197558  432.149495905384 306.015017069015  431.446787049384 305.301331071946  L 430.734221549454 306.002936665074  C 431.434726475882 306.714384304593  432.131875245064 307.429128703326  432.825644640121 308.147146058414  L 433.544790178271 307.452286579845  Z M 436.310419979565 310.3508000372  C 435.623572847112 309.621836076943  434.933294722828 308.896112516812  434.239608594764 308.173653525281  L 433.518283874098 308.866250556285  C 434.209794370877 309.586443675226  434.897907552524 310.309891124  435.582600503066 311.036568809913  L 436.310419979565 310.3508000372  Z M 439.039412486973 313.283834021794  C 438.361778793514 312.546297571051  437.680673664352 311.811958155197  436.996119782107 311.080840229696  L 436.266149722109 311.764319352645  C 436.94855661485 312.493144248258  437.627525570932 313.225180530536  438.30303397891 313.960403820752  L 439.039412486973 313.283834021794  Z M 441.731336852236 316.250925471679  C 441.063023581299 315.504932971313  440.391198978905 314.762093635916  439.715885418555 314.022432203963  L 438.977385265541 314.696685512444  C 439.650580817112 315.434027119211  440.320298353274 316.174536662466  440.986515570677 316.918189481301  L 441.731336852236 316.250925471679  Z M 444.385768079342 319.251605947976  C 443.726880742992 318.497275173906  443.064442733767 317.746053197038  442.398476112569 316.997965035013  L 441.651562459569 317.662886079169  C 442.31544038711 318.40862798697  442.975800769593 319.157493880933  443.632621615287 319.909458821862  L 444.385768079342 319.251605947976  Z M 447.00228709163 322.285401708836  C 446.352929713774 321.5228517534  445.699982882197 320.76336573659  445.043468341723 320.00696895126  L 444.288259110074 320.662452754594  C 444.942714601773 321.416477227082  445.593613574108 322.173581242199  446.240934350439 322.933739586398  L 447.00228709163 322.285401708836  Z M 449.580480797944 325.351833784228  C 448.940755897917 324.581185037394  448.29740333002 323.813554886881  447.650444519563 323.048968896764  L 446.887058940295 323.694911972712  C 447.531988671944 324.457099965917  448.173323471396 325.222322571995  448.811041980574 325.990554307088  L 449.580480797944 325.351833784228  Z M 452.119942157861 328.450418051561  C 451.489950734238 327.671792181919  450.856294001328 326.896139089724  450.218993061542 326.123484606232  L 449.447551656549 326.759784974503  C 450.082853807834 327.530016155594  450.714523181675 328.303236540732  451.342538741879 329.079420379712  L 452.119942157861 328.450418051561  Z M 454.617483059846 331.583328861322  C 454.016086307952 330.819549042163  453.411672959818 330.05814930988  452.804257179818 329.299147507807  C 452.785744140254 329.276105990835  452.767227896835 329.253067048334  452.748708449995 329.230030680846  L 451.96933301301 329.856587883522  C 451.987592153041 329.879300454984  452.005848169068 329.902015537196  452.02410106109 329.924733130156  C 452.629666656135 330.681427100086  453.23223994607 331.440510901082  453.831806819039 332.20196675592  L 454.617483059846 331.583328861322  Z M 457.078260743844 334.743688666664  C 456.467360628126 333.950265717805  455.853232640045 333.159333323514  455.235892049975 332.37091115043  L 454.448539527387 332.987414195982  C 455.064206731718 333.773699243398  455.676670042262 334.562487707733  456.285914230023 335.35375997564  L 457.078260743844 334.743688666664  Z M 459.504581217738 337.930578979688  C 458.902331337951 337.130570223825  458.296826735984 336.333016830579  457.688082467787 335.537938631218  L 456.894082949139 336.145857017506  C 457.501177133097 336.938780049132  458.10504043239 337.734171565304  458.705657831863 338.532011788487  L 459.504581217738 337.930578979688  Z M 461.896158469465 341.143624133169  C 461.302629818181 340.33712387448  460.705819978562 339.533043497019  460.105743790363 338.731402994352  L 459.305190871469 339.330665060606  C 459.903640471441 340.130132607522  460.498832576722 340.932033415628  461.090752387769 341.736347545535  L 461.896158469465 341.143624133169  Z M 464.252710582452 344.382445376778  C 463.667973124194 343.569548684652  463.07992839823 342.759036107113  462.488591026369 341.950927797664  L 461.681579075552 342.541462903512  C 462.271313546938 343.347380725339  462.857764297598 344.155696298168  463.440916745345 344.96638952311  L 464.252710582452 344.382445376778  Z M 466.573959768857 347.646660921729  C 465.998082431866 346.827463619579  465.418872137611 346.010614384277  464.83634328832 345.196133527011  L 464.022967435286 345.777872060806  C 464.603917260816 346.590145156811  465.181557526669 347.404780210989  465.755873869728 348.221756967314  L 466.573959768857 347.646660921729  Z M 468.859632402304 350.935885985782  C 468.292683070357 350.110484639669  467.72237548456 349.287395036002  467.148723825687 348.466637641011  L 466.329079950313 349.039511028035  C 466.901176648244 349.858043648335  467.46993833767 350.678902155552  468.035350876246 351.502066138912  L 468.859632402304 350.935885985782  Z M 471.109459050148 354.249732838601  C 470.55150455464 353.418224745975  469.990166904521 352.588991798823  469.425460057525 351.762054616132  L 468.599644778554 352.325995326684  C 469.162820910738 353.150690983528  469.722636978719 353.977676181859  470.279079062584 354.806930358565  L 471.109459050148 354.249732838601  Z M 473.323174505226 357.58781084746  C 472.774280617237 356.750294025606  472.221979072678 355.915015484064  471.6662836046 355.081995992145  L 470.834394268255 355.636937549495  C 471.388583448091 356.46769902864  471.939387904107 357.300713433956  472.486793940463 358.13596005241  L 473.323174505226 357.58781084746  Z M 475.500517817127 360.949726523292  C 474.960749239682 360.106299697798  474.417548905399 359.265074023607  473.870930321026 358.426070417906  L 473.033064989533 358.971947406138  C 473.578201889779 359.808676778288  474.119929805617 360.647622195782  474.658235266813 361.488762797985  L 475.500517817127 360.949726523292  Z M 477.641232322949 364.335083567068  C 477.110652683404 363.485846160209  476.576617591244 362.63877251611  476.039140325405 361.793883697498  L 475.195397765433 362.330631769216  C 475.731418125949 363.173230401626  476.264005643272 364.018007937268  476.793147074449 364.864943370485  L 477.641232322949 364.335083567068  Z M 479.745065677552 367.74348291652  C 479.223737520041 366.88853503545  478.698930621546 366.035713273665  478.170658031458 365.18503883669  L 477.32113770248 365.712594720603  C 477.847978337771 366.560963288671  478.371362675705 367.411473360942  478.89127770225 368.264103789353  L 479.745065677552 367.74348291652  Z M 481.81176988331 371.174522793173  C 481.299754661452 370.313965218257  480.78423782027 369.45549586846  480.265232178157 368.599136089737  L 479.41003422072 369.117437598123  C 479.927633027361 369.971476097046  480.441752489948 370.827618448772  480.952379824819 371.68584336519  L 481.81176988331 371.174522793173  Z M 483.841101319339 374.627798749715  C 483.338459388942 373.761732922559  482.832293373648 372.8977171802  482.322615859339 372.035773006504  L 481.461841083265 372.544759042535  C 481.970137047262 373.404366799168  482.474931030648 374.266040509204  482.976210481642 375.129758746993  L 483.841101319339 374.627798749715  Z M 485.832820770218 378.102903717665  C 485.339611382176 377.231431729184  484.842855859078 376.361971443516  484.342566552814 375.494544479905  L 483.476316425313 375.994155044851  C 483.975249629283 376.859230729549  484.470658628893 377.726334224718  484.962531105722 378.595443969697  L 485.832820770218 378.102903717665  Z M 487.786693454188 381.599428055364  C 487.302974747496 380.722652633744  486.815688273604 379.847850295816  486.324846148954 378.975042793654  L 485.453222782666 379.465218993955  C 485.942734412894 380.335660632522  486.428700030444 381.208091699591  486.911107551708 382.082490502031  L 487.786693454188 381.599428055364  Z M 489.702489050823 385.11695959626  C 489.228318045726 384.234984094851  488.750558061849 383.354942825427  488.269220978758 382.47685767033  L 487.392327119714 382.957541724539  C 487.872359473092 383.833246710244  488.348824423476 384.710902507972  488.821710123491 385.590487294676  L 489.702489050823 385.11695959626  Z M 491.579981728187 388.655083697493  C 491.115414319467 387.768012082648  490.647237143418 386.882835620007  490.175461841399 385.999576319737  L 489.29340085691 386.470711565332  C 489.763897347738 387.351576671008  490.230805465776 388.234353742267  490.694113601281 389.11902082872  L 491.579981728187 388.655083697493  Z M 493.418950169449 392.213383288776  C 492.964041119793 391.321320127503  492.505501939845 390.431112815392  492.043344031242 389.542783487566  L 491.156219897714 390.004314387627  C 491.617125064368 390.890235777837  492.074421311429 391.778030061808  492.528097268157 392.667675164401  L 493.418950169449 392.213383288776  Z M 495.219177598975 395.791438921556  C 494.773980532587 394.894489369329  494.325133400824 393.999356144389  493.87264736433 393.106061504342  L 492.980564655007 393.5579336541  C 493.431824166479 394.448806897376  493.879454636972 395.34151374182  494.323444936084 396.236031990137  L 495.219177598975 395.791438921556  Z M 495.743926038517 396.852936940207  C 495.71701629752 396.79828140364  495.690093018582 396.743632533339  495.663156204341 396.68899033466  L 494.76622007698 397.13115046791  C 495.207780739281 398.026870549067  495.645692667003 398.924384722653  496.079944971399 399.82367067184  L 495.743926038517 396.852936940207  Z M 221.042189633903 204.927297536702  C 220.051495734973 204.783061487287  219.060312471579 204.64220690065  218.068657160427 204.504736237625  L 217.931342839573 205.495263762375  C 218.920744500753 205.632422007616  219.909675186897 205.772956486106  220.898117620776 205.916864742622  L 221.042189633903 204.927297536702  Z M 488.574557318075 400.16558272257  L 500 407  L 502.188329687568 393.867551135508  L 488.574557318075 400.16558272257  Z " fill-rule="nonzero" fill="#1f8aee" stroke="none" />
  </g>
</svg>