<?xml version="1.0" encoding="utf-8"?>
<svg version="1.1" xmlns:xlink="http://www.w3.org/1999/xlink" width="90px" height="10px" viewBox="354 154  90 10" xmlns="http://www.w3.org/2000/svg">
  <g transform="matrix(0.920504853452439 -0.390731128489273 0.390731128489278 0.920504853452439 -30.4076859573183 168.541448568282 )">
    <path d="M 365.948007528822 146.040917611547  C 364.973491190524 145.8065567428  363.997371474422 145.578913905415  363.01971790376 145.358005313048  L 362.799316434921 146.333414556665  C 363.772489070833 146.553310646222  364.744134882398 146.779910115354  365.714184665 147.013196824713  L 365.948007528822 146.040917611547  Z M 369.837225354833 147.014117993393  C 368.867179803986 146.761890438015  367.895407705544 146.516350318555  366.921978273095 146.277515123387  L 366.683691354232 147.248709925834  C 367.652659212662 147.486450454182  368.619977333249 147.730865175766  369.585576819612 147.981936682363  L 369.837225354833 147.014117993393  Z M 373.70790450936 148.058616516177  C 372.742657282656 147.788607439014  371.775560921536 147.525252944307  370.806684306561 147.268571789243  L 370.550592395453 148.235224225781  C 371.5150283036 148.490728919632  372.477692117423 148.75287636683  373.438515272079 149.021647896163  L 373.70790450936 148.058616516177  Z M 377.558738054346 149.174060504102  C 376.59861506832 148.886361073944  375.636520985416 148.605281125855  374.672524329917 148.3308406795  L 374.398713896212 149.292624359126  C 375.358292211477 149.565806947106  376.315976674306 149.845598605615  377.271699074506 150.131979406751  L 377.558738054346 149.174060504102  Z M 381.388425752623 150.360073326569  C 380.433751193603 150.05478068537  379.47698424079 149.756070190779  378.518193039043 149.463963118181  L 378.226756535062 150.420553293829  C 379.181153255024 150.711321535609  380.1335350039 151.008662933542  381.083833949176 151.312556309763  L 381.388425752623 150.360073326569  Z M 385.195674506933 151.616254525358  C 384.246770721585 151.293471755433  383.295653952023 150.977231574188  382.34239194068 150.667556505544  L 382.033427770203 151.618630183743  C 382.982320642012 151.926885901181  383.929078104439 152.241676640967  384.873632725557 152.56297998242  L 385.195674506933 151.616254525358  Z M 388.979198796549 152.942179949835  C 388.036386183035 152.602016039059  387.091240742086 152.268352949918  386.143829790869 151.941214447276  L 385.817442275907 152.886450497201  C 386.76051090509 153.212089607497  387.701324407619 153.544223399779  388.63981577492 153.882828218121  L 388.979198796549 152.942179949835  Z M 392.737721111328 154.337401900171  C 391.801318011103 153.979971705169  390.862463027941 153.628998369762  389.921223030939 153.284506891707  L 389.577522376509 154.223586153615  C 390.514448335154 154.566498704451  391.449000211319 154.915863403975  392.381111442407 155.271655369007  L 392.737721111328 154.337401900171  Z M 396.469972383064 155.801449278507  C 395.540294973426 155.426873485885  394.608047453209 155.058708410647  393.6732962209 154.696980275018  L 393.312398477817 155.62958566801  C 394.242865412089 155.989655874676  395.170840109666 156.356133518159  396.096256476405 156.728992496427  L 396.469972383064 155.801449278507  Z M 400.174692413993 157.333827748019  C 399.252054601296 156.942232833608  398.32672931818 156.557000329786  397.3987824701 156.17815767439  L 397.020809495788 157.103974303474  C 397.944503232749 157.481080587964  398.865587420305 157.864547433924  399.783996455084 158.25434752928  L 400.174692413993 157.333827748019  Z M 403.850630302294 158.934019899837  C 402.93534361597 158.525538085986  402.01725300681 158.123368227657  401.096423864989 157.727538969033  L 400.701503282339 158.646254231451  C 401.618111936026 159.040269263512  402.531994608714 159.440595834046  403.443086209953 159.847205430163  L 403.850630302294 158.934019899837  Z M 407.496544864465 160.601485427739  C 406.588918351827 160.176254638676  405.678372410687 159.757283218829  404.764971893856 159.344601009058  L 404.353237048133 160.255904699831  C 405.262451124866 160.666695439958  406.168823709438 161.083746564466  407.072290246296 161.507028369273  L 407.496544864465 160.601485427739  Z M 411.111205054401 162.335661310595  C 410.211545176302 161.893825125851  409.30885134978 161.458193610537  408.403187868387 161.028797792112  L 407.974777782207 161.932382208788  C 408.876290285093 162.359809953143  409.774846744086 162.793444813963  410.67038316033 163.233255906005  L 411.111205054401 162.335661310595  Z M 414.693390379064 164.135962002467  C 413.802000906415 163.6776696084  412.907463989838 163.225525088964  412.009843341915 162.779560647744  L 411.564902668302 163.675120694287  C 412.458409200889 164.119041121534  413.348846135963 164.569113301493  414.236150052974 165.025305178186  L 414.693390379064 164.135962002467  Z M 418.241891310581 166.00177963032  C 417.359073221783 165.52718576974  416.472995256289 165.058680913158  415.583720524201 164.596298429408  L 415.122399497745 165.48353171922  C 416.007598366805 165.943794939256  416.889615121184 166.410152471105  417.76838694005 166.88257109888  L 418.241891310581 166.00177963032  Z M 421.755509694644 167.93248419927  C 420.881561073964 167.441749119191  420.004241244519 166.95704211652  419.123612692622 166.478397714074  L 418.646067078755 167.357004672091  C 419.522659396143 167.833455276652  420.395958156142 168.315940694386  421.265901158819 168.804426560695  L 421.755509694644 167.93248419927  Z M 425.233059155064 169.927423805304  C 424.36827509199 169.42071320284  423.500009626359 168.919967715797  422.628324599626 168.425223009341  L 422.134715642023 169.294906973189  C 423.002405425615 169.787384088332  423.866691321167 170.28583448034  424.727511770676 170.790222647525  L 425.233059155064 169.927423805304  Z M 428.673365494356 171.985924855393  C 427.818037983939 171.463409821796  426.959120052705 170.94679492753  426.096672876304 170.436116968021  L 425.587167242443 171.296584288181  C 426.445661516058 171.804921628596  427.300642720306 172.319168692687  428.152049959903 172.83928885366  L 428.673365494356 171.985924855393  Z M 432.075267090204 174.107292294936  C 431.229684934501 173.569149257849  430.38040455201 173.036839391802  429.527486431958 172.510400610084  L 429.002256156842 173.361360749046  C 429.851265049176 173.885386674208  430.696652876989 174.415256774423  431.538359428313 174.950933310181  L 432.075267090204 174.107292294936  Z M 435.437615287688 176.290809842442  C 434.602063998221 175.73722050631  433.762707924705 175.189395403355  432.919606849519 174.647373551923  L 432.378829277591 175.488539182284  C 433.218066120069 176.028076754394  434.053575125563 176.573390979664  434.88529678568 177.124443018569  L 435.437615287688 176.290809842442  Z M 438.750379003816 178.555577884044  C 437.996955456974 178.027555652641  437.240199581097 177.50430428404  436.480156790378 176.985855179434  C 436.410760847388 176.939301653802  436.341338164686 176.892788000583  436.271888776689 176.846314242837  L 435.715746501949 177.677401344317  C 435.783804509439 177.722944025743  435.85183675304 177.768525196604  435.919843199916 177.814144834899  C 436.675326602721 178.329503581704  437.427547300672 178.849629061528  438.17646027892 179.374490148706  L 438.750379003816 178.555577884044  Z M 442.012227294045 180.886560512232  C 441.202139093913 180.296336640794  440.387993364244 179.711701975008  439.569848091834 179.13269815495  L 438.992173448052 179.948965271727  C 439.806568869098 180.525315310925  440.616983078724 181.107270387672  441.423358355925 181.694789052756  L 442.012227294045 180.886560512232  Z M 445.230694255701 183.277084450224  C 444.431587888934 182.672075256079  443.628321978772 182.0725797689  442.820953737104 181.478640687213  L 442.228378117469 182.28415551328  C 443.032045902744 182.87537236048  443.831630158954 183.47212014618  444.627073936447 184.074356367567  L 445.230694255701 183.277084450224  Z M 448.404693170722 185.726342535612  C 447.616838456252 185.10675230062  446.824723589004 184.492598412202  446.028404986642 183.883924612912  L 445.421128474807 184.678415165514  C 446.213797265211 185.284299195854  447.002281587712 185.895638198116  447.786525283239 186.512388630243  L 448.404693170722 185.726342535612  Z M 451.533152335717 188.233507774353  C 450.756815293349 187.599545703676  449.976118927261 186.970940783592  449.191118841847 186.347737785918  L 448.569346485235 187.130935804655  C 449.350748635489 187.751282440885  450.127866791889 188.377006240584  450.90064560491 189.008062637151  L 451.533152335717 188.233507774353  Z M 454.61501542383 190.797733620005  C 453.850458184416 190.149613771467  453.081443922271 189.506770068695  452.308027409741 188.869248297651  L 451.671969150308 189.640889335056  C 452.441840819315 190.275489116611  453.207330415029 190.91538643759  453.968383416127 191.560535721872  L 454.61501542383 190.797733620005  Z M 457.649241841411 193.418154259567  C 456.896722558338 192.756095471373  456.139650058455 192.099230042636  455.378078263536 191.447604757976  L 454.727948866886 192.207428268807  C 455.486030106844 192.856066922547  456.239632673648 193.509921702925  456.98870289265 194.168946039735  L 457.649241841411 193.418154259567  Z M 460.634807079371 196.093884905815  C 459.894579841414 195.418110722678  459.149704729936 194.74744535912  458.400234797993 194.081936582676  L 457.73625378086 194.829686011889  C 458.482288624994 195.492144524423  459.223749708371 196.159735989602  459.96058422108 196.832412858812  L 460.634807079371 196.093884905815  Z M 463.570703059108 198.824022096059  C 462.843017804609 198.134760693692  462.11059158925 197.450521846044  461.373476579428 196.771354287407  L 460.695868135559 197.50677715678  C 461.429604684588 198.182831848445  462.158673929564 198.863934585591  462.8830239432 199.550036857303  L 463.570703059108 198.824022096059  Z M 466.455938472888 201.60764399719  C 465.741040905381 200.905128105283  465.021310890467 200.207546807364  464.296799690265 199.514949788029  L 463.605792614719 200.237797781416  C 464.326983121879 200.927220381775  465.043414357621 201.621604415987  465.755035294792 202.320900427189  L 466.455938472888 201.60764399719  Z M 469.289539118559 204.443810716945  C 468.587670623806 203.728277540577  467.880879826779 203.017589331295  467.16921706801 202.311796707225  L 466.465044679903 203.021825754396  C 467.173445634616 203.724383479331  467.876996957519 204.431814351259  468.575648538819 205.144067984068  L 469.289539118559 204.443810716945  Z M 472.07054822849 207.331564621257  C 471.381945792977 206.603255760803  470.68833286234 205.879700604628  469.989758838531 205.160950687293  L 469.272658902259 205.857921046346  C 469.96803111235 206.573376676652  470.658464967721 207.29361552167  471.343911292859 208.018586283052  L 472.07054822849 207.331564621257  Z M 474.798026792629 210.269930657603  C 474.122922923545 209.52909202716  473.442722058284 208.792914233095  472.757472643538 208.061449709006  L 472.027687288496 208.745126047316  C 472.709795960955 209.473238008802  473.386879223225 210.206041637662  474.058888850675 210.943484740631  L 474.798026792629 210.269930657603  Z M 477.471053875556 213.257916684231  C 476.809676522286 212.504798428583  476.143117392793 211.756246567677  475.47142396215 211.012314416443  L 474.729199600972 211.682465890122  C 475.397814421232 212.42298833517  476.061318472679 213.168109316122  476.719664497825 213.917775762393  L 477.471053875556 213.257916684231  Z M 480.088726927439 216.29451380516  C 479.4412994046 215.529370215316  478.788607075124 214.768697036731  478.130696426431 214.012548447665  L 477.376283671795 214.668948779507  C 478.03117888151 215.421631670103  478.68087968942 216.178818412405  479.325339821182 216.940455076486  L 480.088726927439 216.29451380516  Z M 482.650162088781 219.37869671083  C 482.016903000819 218.601786138163  481.37829785347 217.829248483835  480.734392130809 217.061138771141  L 479.968045710813 217.703566327025  C 480.609000184063 218.468155519156  481.244678376422 219.237152358081  481.875035012295 220.010502072708  L 482.650162088781 219.37869671083  Z M 485.154494488857 222.509424024302  C 484.535617656232 221.721008793317  483.911315316573 220.936867511231  483.28163193525 220.157056027797  L 482.503610607404 220.785293891521  C 483.130407925367 221.561531220996  483.751848864917 222.342078504138  484.367889164447 223.126880147123  L 485.154494488857 222.509424024302  Z M 487.600878537736 225.685638652878  C 486.996592924729 224.885984972638  486.386804188967 224.090504828754  485.771555762103 223.29925487858  L 484.982122225959 223.913090925103  C 485.594550750013 224.700714294759  486.201544606668 225.492548469633  486.803060563348 226.288537052066  L 487.600878537736 225.685638652878  Z M 489.112910185223 227.710796004316  C 488.811141433754 227.301697041705  488.507943815775 226.89365400067  488.203322886503 226.486674357417  L 487.402743694956 227.085901324485  C 488.000596638084 227.884644792617  488.592938459885 228.687498495783  489.179726971337 229.494405251436  L 489.112910185223 227.710796004316  Z M 362.04156422898 145.139343972565  C 361.062906149488 144.922928922592  360.082768403366 144.713260231076  359.101220800038 144.51035283148  L 358.898779199962 145.48964716852  C 359.8758280208 145.691624571188  360.851473446322 145.900332276367  361.825645987042 146.115755419036  L 362.04156422898 145.139343972565  Z M 482.620688222939 232.10075108549  L 495 237  L 495.038452092127 223.686528573035  L 482.620688222939 232.10075108549  Z " fill-rule="nonzero" fill="#1f8aee" stroke="none" />
  </g>
</svg>