<?xml version="1.0" encoding="utf-8"?>
<svg version="1.1" xmlns:xlink="http://www.w3.org/1999/xlink" width="188px" height="8px" viewBox="508 368  188 8" xmlns="http://www.w3.org/2000/svg">
  <g transform="matrix(0.9135454576426 -0.406736643075801 0.406736643075803 0.913545457642602 -99.2603967250441 277.016548888584 )">
    <path d="M 356.523590407002 257.586569493178  C 355.622512107349 257.153027172781  354.721498165397 256.719351099013  353.820548614399 256.285541287879  L 353.386717337994 257.186535418611  C 354.287756046649 257.620388159414  355.18885916452 258.05410715534  356.09002663457 258.487692378935  L 356.523590407002 257.586569493178  Z M 360.128246731036 259.320025367827  C 359.226996890051 258.88683976118  358.325811353823 258.453520375701  357.424690155599 258.020067227375  L 356.991215559651 258.921233013825  C 357.892425944453 259.354729062266  358.79370064971 259.788091323121  359.695039690006 260.221319803403  L 360.128246731036 259.320025367827  Z M 363.733588937979 261.052054251707  C 362.832167696875 260.619225426685  361.930810707571 260.186262797388  361.029518003316 259.753166379787  L 360.596400155744 260.654503680754  C 361.497782051613 261.087642957427  362.399228250789 261.52064843827  363.300738696227 261.953520095883  L 363.733588937979 261.052054251707  Z M 367.339616462925 262.782655873437  C 366.438023962945 262.350183897859  365.536495661786 261.917578092578  364.635031592722 261.484838473562  L 364.20227056139 262.386347147819  C 365.103823850967 262.81912959633  366.00544135507 263.251778206381  366.907123088274 263.684292984964  L 367.339616462925 262.782655873437  Z M 370.946328740849 264.511829961847  C 370.044565111314 264.079714897752  369.142865663454 263.647465995726  368.241230358884 263.215083237372  L 367.808826211599 264.116763143664  C 368.710550729743 264.549188684738  369.612339445259 264.981480379123  370.514192301065 265.413638199451  L 370.946328740849 264.511829961847  Z M 374.553725206632 266.239576246001  C 373.651790612725 265.807818172541  372.74992011168 265.375926218603  371.848113736762 264.943900400113  L 371.416066541276 265.84575139716  C 372.317962170586 266.277819974497  373.219921908436 266.709754662573  374.121945769425 267.14155546838  L 374.553725206632 266.239576246001  Z M 378.161805295044 267.965894455187  C 377.259699866143 267.534493434291  376.357658477102 267.102958507555  375.455681161196 266.671289690897  L 375.023990985206 267.573311637389  C 375.926057572422 268.005023177562  376.828188215176 268.436600803108  377.730382928067 268.868044521014  L 378.161805295044 267.965894455187  Z M 381.77056844075 269.690784318915  C 380.868292318204 269.259740418178  379.966080182499 268.828562586256  379.063932066935 268.397250839066  L 378.632598978081 269.29944359367  C 379.534836381859 269.730798029034  380.437137788172 270.162018524433  381.339503211602 270.593105086835  L 381.77056844075 269.690784318915  Z M 385.380014078297 271.414245566913  C 384.477567391524 270.983558848168  383.575184674436 270.55273819004  382.672865888614 270.121783574189  L 382.241889954479 271.024146995543  C 383.144298021502 271.455144252804  384.046770073891 271.886007561896  384.949306054521 272.316736895544  L 385.380014078297 271.414245566913  Z M 388.990141642138 273.136277929139  C 388.087524544491 272.705948465578  387.184971363513 272.275485037327  386.282482060763 271.844887626054  L 385.851863348876 272.747421572769  C 386.754441961653 273.178061595812  387.657084470898 273.608567628258  388.559790891219 274.038939677072  L 388.990141642138 273.136277929139  Z M 392.600950566614 274.856881135774  C 391.69816321148 274.42690900052  390.795439684109 273.996802858198  389.892780017797 273.56656272467  L 389.46251859563 274.469267055331  C 390.365267600786 274.899549770973  391.268080449366 275.329698470733  392.170957155982 275.759713161576  L 392.600950566614 274.856881135774  Z M 396.212440285963 276.576054917225  C 395.309482802843 276.14644017195  394.406589094427 275.716691394347  393.503759194035 275.286808600275  L 393.073855129004 276.189683173441  C 393.976774385089 276.61960851426  394.879757431552 277.049399813941  395.782804282993 277.479057079433  L 396.212440285963 276.576054917225  Z M 399.824610234305 278.293799004118  C 398.921482764676 277.864541716135  398.018419016701 277.435150370592  397.115419023688 277.005624983331  L 396.685872383154 277.908669657534  C 397.588961736734 278.338237550479  398.492114863504 278.767671394107  399.395331706314 279.196971161243  L 399.824610234305 278.293799004118  Z M 403.437459845666 280.010113127305  C 402.53416253104 279.581213363873  401.630928884994 279.152179517668  400.727758940849 278.72301160452  L 400.298569792116 279.626226238264  C 401.201829113646 280.055436621721  402.105152155301 280.484512930629  403.008538859918 280.913455137833  L 403.437459845666 280.010113127305  Z M 407.050988553964 281.724997017864  C 406.147521535874 281.296454846187  405.244118133279 280.867778566544  404.340778379518 280.438968194753  L 403.911946789834 281.342352646517  C 404.815375937784 281.771205453234  405.718868752791 282.199924160191  406.622425177664 282.628508740253  L 407.050988553964 281.724997017864  Z M 410.665195792999 283.438450407095  C 409.761559213007 283.01026589432  408.857986195418 282.581947248405  407.954476773581 282.153494485161  L 407.526002810138 283.057048613396  C 408.429601642955 283.485543776178  409.333264089742 283.91390481401  410.236990093297 284.342131699777  L 410.665195792999 283.438450407095  Z M 414.280080996477 285.150473026521  C 413.376274996169 284.722646239737  412.472532505173 284.294685294669  411.568853556826 283.866590207103  L 411.14073728676 284.770313870235  C 412.044505674832 285.198451327613  412.94833758786 285.626454617859  413.852233040468 286.054323747901  L 414.280080996477 285.150473026521  Z M 417.895643597995 286.861064607894  C 416.991668318986 286.433595614136  416.08775649618 286.005992436968  415.183908162919 285.578255092158  L 414.75614965331 286.482148148585  C 415.660087443062 286.9099278278  416.564088704653 287.337573314747  417.468153452717 287.765084616351  L 417.895643597995 286.861064607894  Z M 421.511883031046 288.570224883189  C 420.607738614979 288.143113749437  419.703657601986 287.71586840716  418.799640025434 287.288488872127  L 418.372239343306 288.192551180222  C 419.276346381125 288.619973008585  420.180516873595 289.047260636553  421.08475076348 289.474414037074  L 421.511883031046 288.570224883189  Z M 425.128798729006 290.277953584595  C 424.224485317546 289.851200377771  423.320235256032 289.424312937338  422.416048577834 288.997291279047  L 421.989005790156 289.901522697154  C 422.893281958331 290.328586619017  423.797621492099 290.755516298409  424.702024406079 291.182311742235  L 425.128798729006 290.277953584595  Z M 428.746390125156 291.984250444541  C 427.841907859996 291.557855231511  426.93748889165 291.13132575981  426.033133253479 290.704662045168  L 425.606448427162 291.609062431607  C 426.510893572033 292.035768374394  427.415402029345 292.462340049634  428.319973813737 292.888777464235  L 428.746390125156 291.984250444541  Z M 432.364656652668 293.689115195672  C 431.460005675531 293.263078043247  430.555417942055 292.836906607104  429.650893485614 292.410600902964  L 429.224566687514 293.315170116027  C 430.129180667363 293.741518012878  431.033857906503 294.167731617135  431.938598419572 294.593810935692  L 432.364656652668 293.689115195672  Z M 435.983597744613 295.392547570858  C 435.078778197245 294.966868545794  434.174021840372 294.541055211982  433.269328707387 294.115107585142  L 432.843360004304 295.019845483096  C 433.748142677391 295.445835267208  434.652988556613 295.871690733699  435.557897656596 296.297411889451  L 435.983597744613 295.392547570858  Z M 439.603212833941 297.094547303192  C 438.698224858113 296.669226472184  437.793300019618 296.243771307431  436.888438351842 295.81818182463  L 436.462827810519 296.723088265714  C 437.367779023093 297.148719864703  438.27279342458 297.574217137967  439.177870957705 297.999580058577  L 439.603212833941 297.094547303192  Z M 443.223501353513 298.795114125994  C 442.318345091025 298.370151555685  441.413251912694 297.945054626653  440.508221851906 297.519823354574  L 440.082969539031 298.424898197001  C 440.988089173268 298.850171555452  441.893271907276 299.275310546278  442.798517755703 299.700315176365  L 443.223501353513 298.795114125994  Z M 446.84446273608 300.49424777281  C 445.939138328761 300.069643529788  445.033876952401 299.644904903077  444.128678640409 299.22003190835  L 443.703784622614 300.125275010308  C 444.609072524707 300.550190055946  445.514423473386 300.974970708999  446.419837483287 301.399616976335  L 446.84446273608 300.49424777281  Z M 450.46609641428 302.191947977409  C 449.560604003979 301.767702128203  448.65517457144 301.343321870366  447.749808150076 300.918807219562  L 447.325272493934 301.82421843921  C 448.230728510046 302.248775099836  449.13624755552 302.673197359798  450.041829573035 303.097485192228  L 450.46609641428 302.191947977409  Z M 454.088401820654 303.888214473779  C 453.18274154925 303.46432708486  452.277144202406 303.040305262399  451.371609813527 302.616149022034  L 450.947432585559 303.521728217507  C 451.853056597802 303.945926437844  452.758743550208 304.369990215723  453.664493457435 304.793919558005  L 454.088401820654 303.888214473779  Z M 457.711378387636 305.583046996142  C 456.805550385035 305.15951812832  455.899785289772 304.735854818891  454.994083063267 304.312057049811  L 454.570264329935 305.217804079216  C 455.476056184417 305.641643787176  456.38191092584 306.065349027773  457.287828568864 306.488919807865  L 457.711378387636 305.583046996142  Z M 461.335025547557 307.276445278943  C 460.429029967689 306.853275004194  459.523097241929 306.429970262944  458.617227331706 306.006531037171  L 458.193767159417 306.912445758591  C 459.099726702213 307.335926882153  460.005749114722 307.759273530297  460.911834339596 308.182485676224  L 461.335025547557 307.276445278943  Z M 464.959342732633 308.968409056841  C 464.053179729458 308.54559744707  463.147079491149 308.122651329123  462.241042051146 307.699570718609  L 461.817940506251 308.605652990098  C 462.724067607406 309.028775468523  463.63025752504 309.451763446654  464.536510201792 309.874616897716  L 464.959342732633 308.968409056841  Z M 468.584329374985 310.658938064734  C 467.677999078483 310.236485180585  466.771731493608 309.813897763429  465.865526653788 309.391175828854  L 465.442783802581 310.297425508442  C 466.349078332121 310.720189281033  467.255435588877 311.142818511675  468.161855587516 311.565313207212  L 468.584329374985 310.658938064734  Z M 472.209984906627 312.348032037737  C 471.303487446802 311.925937939811  470.397052681366 311.503709300841  469.490680571715 311.081346102847  L 469.068296480434 311.987763048537  C 469.974758272348 312.410168037851  470.881282774235 312.832438477181  471.787869928726 313.254574339801  L 472.209984906627 312.348032037737  Z M 475.83630875947 314.035690711192  C 474.929644302375 313.613955476809  474.023042450372 313.19208565981  473.116503236919 312.770081275766  L 472.694477971747 313.676665345533  C 473.601106908014 314.098711496576  474.507798464971 314.520623056057  475.414552657277 314.942400030799  L 475.83630875947 314.035690711192  Z M 479.463300365312 315.721913820665  C 478.556469040998 315.300537510313  477.649700268506 314.879026592579  476.742994081286 314.45738108301  L 476.321327708347 315.364132134806  C 477.228123634908 315.785819375853  478.134982128869 316.207372000558  479.041903204909 316.628790015746  L 479.463300365312 315.721913820665  Z M 483.090959155853 317.406701101948  C 482.18396110641 316.985683781651  481.277025555501 316.564531829221  480.370152536583 316.143245260195  L 479.948845121948 317.050163151943  C 480.855807896718 317.471491416923  481.762833185599 317.892685040806  482.669921003269 318.313744030408  L 483.090959155853 317.406701101948  Z M 486.719284562692 319.090052291057  C 485.812119930236 318.669394026784  484.905017743009 318.248601105646  483.99797803449 317.827673543173  L 483.577029644171 318.734758132772  C 484.48415912504 319.155727355667  485.391351066727 319.576561912732  486.298605483897 319.997261810774  L 486.719284562692 319.090052291057  Z M 490.348276017312 320.771967124233  C 489.440944931963 320.351667976327  488.533676274592 319.931234163555  487.626470006574 319.510665668017  L 487.205880706529 320.417916813339  C 488.113176751364 320.838526928188  489.020535203704 321.259002352496  489.927956078222 321.67934309306  L 490.348276017312 320.771967124233  Z M 493.977932951101 322.452445337942  C 493.070435579063 322.032505383393  492.163000545639 321.612430722588  491.255627884302 321.192221371024  L 490.835397740431 322.099638929914  C 491.742860195053 322.51988986525  492.65038503991 322.940006102043  493.557972217574 323.359987613704  L 493.977932951101 322.452445337942  Z M 497.608254795342 324.131486668876  C 496.700591266789 323.711905967916  495.792990023525 323.292190536034  494.885451099026 322.872340388716  L 494.465580177173 323.779924218994  C 495.37320891141 324.199815914538  496.280899982559 324.619572886853  497.18865333318 325.039195109374  L 497.608254795342 324.131486668876  Z M 501.239240981216 325.809090853953  C 500.331411438369 325.389869472325  499.423644127464 324.970513335129  498.515939082005 324.551022457841  L 498.096427447959 325.458772417302  C 499.004222331618 325.878304812818  499.912079462796 326.297702443778  500.819998856165 326.716965316962  L 501.239240981216 325.809090853953  Z M 504.870890939787 327.485257630313  C 503.962895524888 327.066395633703  503.054962288588 326.647398856902  502.147091264391 326.228267315373  L 501.727938983884 327.136183261783  C 502.635899862708 327.555356285976  503.543922935699 327.974394520983  504.452008217537 328.39329797358  L 504.870890939787 327.485257630313  Z M 508.503204102027 329.159986735325  C 507.595042957348 328.741484189362  506.686943937917 328.322846838609  505.778907077234 327.90407469851  L 505.360114215941 328.812156489612  C 506.268240947666 329.230970076804  507.17642982019 329.649648850199  508.084680848211 330.068192816573  L 508.503204102027 329.159986735325  Z M 512.136179898805 330.833277906578  C 511.227853166642 330.415134876837  510.319588506361 329.996857017726  509.411385951469 329.578444344674  L 508.99295257501 330.486691838183  C 509.901245017342 330.905145922751  510.809599547105 331.323465168934  511.718016178999 331.741649583503  L 512.136179898805 330.833277906578  Z M 515.769817760882 332.505130881895  C 514.861325583559 332.087347433894  513.952895424735 331.669429131958  513.04452731794 331.251375991513  L 512.626453491877 332.159789045119  C 513.534911502498 332.577883561496  514.44343154718 332.995843214926  515.352013640608 333.413668012166  L 515.769817760882 332.505130881895  Z M 519.404117118909 334.175545399313  C 518.495459638772 333.758121598512  517.586864123759 333.340562919241  516.678330607386 332.922869376904  L 516.260616397226 333.831447848271  C 517.169239833796 334.249182730948  518.077925251029 334.666782726131  518.986672663631 335.084247840576  L 519.404117118909 334.175545399313  Z M 523.039077403443 335.844521197103  C 522.130254762869 335.427457108906  521.221494034024 335.010258117724  520.312795250429 334.592924238944  L 519.895440721623 335.501667985709  C 520.80422944177 335.919043169233  521.713080089184 336.336283440738  522.62199267857 336.753388806976  L 523.039077403443 335.844521197103  Z M 526.674698044941 337.51205801376  C 525.76571037429 337.095353697998  524.856784598076 336.678514471313  523.947920677603 336.261540315959  L 523.530925895544 337.170449195735  C 524.439879756874 337.587464614707  525.348895492068 338.00434509716  526.257973115823 338.421090649836  L 526.674698044941 337.51205801376  Z M 530.31097847374 339.178155588003  C 529.401825939518 338.761811121006  528.492735210199 338.345331702047  527.583706319333 337.928717346497  L 527.167071349358 338.83779121687  C 528.076190197409 339.254446800432  528.985370902031 339.670967439547  529.894613405672 340.087353107848  L 530.31097847374 339.178155588003  Z M 533.947918120087 340.842813658775  C 533.03860084066 340.426829094748  532.129345348854 340.010709570843  531.220151605942 339.594455069339  L 530.803876513333 340.503693787868  C 531.713160229741 340.919989481773  532.622505713161 341.336150190216  533.53191297831 341.752175919931  L 533.947918120087 340.842813658775  Z M 537.585516414126 342.506031965248  C 536.676034556063 342.090407380392  535.766614396049 341.674647794689  534.857255967639 341.25875322348  L 534.441340817621 342.168156647701  C 535.350789247871 342.584092381202  536.260299391701 342.999893104803  537.16987126382 343.415558825229  L 537.585516414126 342.506031965248  Z M 541.223772785888 344.167810246815  C 540.314126479648 343.752545700742  539.404541818013 343.33714612941  538.495018834545 342.921611548147  L 538.079463692285 343.831179535569  C 538.98907669388 344.246755243494  539.898751355608 344.662195917102  540.808487692181 345.077501563111  L 541.223772785888 344.167810246815  Z M 544.862686665312 345.828148243101  C 543.952876053424 345.413243800878  543.043127032687 344.998204309006  542.133439636672 344.583029782798  L 541.718244567283 345.492762190903  C 542.628021997698 345.907977808137  543.53786103479 346.323058366657  544.447761693272 346.738003873175  L 544.862686665312 345.828148243101  Z M 548.502257482225 347.487045693951  C 547.592282707243 347.072501420587  546.682369469951 346.657822073205  545.772517803924 346.243007667104  L 545.357682872462 347.152904353349  C 546.267624589147 347.567759814834  547.177627859042 347.982480193229  548.087692696865 348.397065495241  L 548.502257482225 347.487045693951  Z M 552.142484666357 349.144502339442  C 551.232345870862 348.730318299891  550.322268559588 348.315999161975  549.41225276611 347.901544940977  L 548.997778037573 348.811605762793  C 549.907883897953 349.226101003527  550.818051258066 349.640461136814  551.728280132636 350.054686169361  L 552.142484666357 349.144502339442  Z M 555.783367647331 350.800517919868  C 554.873064961873 350.386694173546  553.962823743328 349.972735320977  553.05264395293 349.558641344537  L 552.638529492261 350.46886615933  C 553.548799341678 350.883001108881  554.45913067351 351.297000943106  555.369523430148 351.710865635801  L 555.783367647331 350.800517919868  Z M 559.424905854673 352.455092175754  C 558.514439446 352.041628798465  557.604034414573 351.628030274175  556.693690793982 351.214296618146  L 556.279936666067 352.124685283295  C 557.190370373948 352.538459882264  558.100865510758 352.95209934158  559.011422018872 353.365603635062  L 559.424905854673 352.455092175754  Z M 563.0670987178 354.108224847855  C 562.156468716512 353.6951218989  561.245900038968 353.281883778659  560.335392718766 352.868510502381  L 559.921998988436 353.779062875243  C 560.832596412127 354.192477058796  561.74325521125 354.605756078393  562.653975328168 355.018899907872  L 563.0670987178 354.108224847855  Z M 566.709945666028 355.759915677139  C 565.799152214808 355.347173221247  564.888420033821 354.934295569807  563.977749156673 354.521282738051  L 563.564715888699 355.431998675953  C 564.475476897585 355.845052384785  565.386299192207 356.257970888967  566.297182787296 356.670754195177  L 566.709945666028 355.759915677139  Z M 570.353446128575 357.410164404817  C 569.442489370132 356.997782506659  568.531593828402 356.585265388709  567.620759536997 356.172613066189  L 567.208086796097 357.083492426433  C 568.119011235414 357.49618559035  569.029996906943 357.908743525368  569.941043825418 358.321166238158  L 570.353446128575 357.410164404817  Z M 573.997599534549 359.05897077231  C 573.086479611618 358.6469494965  572.175420851871 358.234792976678  571.264423288923 357.822501228052  L 570.852111139758 358.733543867916  C 571.763198866776 359.145876422252  572.674347772472 359.558073723462  573.585557871584 359.970135778212  L 573.997599534549 359.05897077231  Z M 577.642405312964 360.706334521276  C 576.731122368305 360.294673932373  575.819900533291 359.882878075258  574.908739841543 359.470946965125  L 574.496788348717 360.382152741861  C 575.40803922068 360.794124622011  576.319351217778 361.205961224828  577.230724354753 361.617662556973  L 577.642405312964 360.706334521276  Z M 581.287862892724 362.352255393593  C 580.376417069123 361.940955556099  579.465032301619 361.529520426215  578.553708623837 361.117950019119  L 578.142117851895 362.029318789954  C 579.053531726023 362.440929931366  579.965006671735 362.852405771259  580.876542703772 363.263746316291  L 581.287862892724 362.352255393593  Z M 584.933971702637 363.996733131371  C 584.022363142906 363.585794109731  583.110815585713 363.174719771542  582.19932906469 362.763510131971  L 581.788099078125 363.675041754105  C 582.699675811611 364.086292092286  583.611313563119 364.497407104784  584.523012347392 364.908386798252  L 584.933971702637 363.996733131371  Z M 588.580731171406 365.639767476937  C 587.66896001838 365.229189335538  586.757249814329 364.818475853457  585.845600592882 364.407627045842  L 585.434731456127 365.31932137645  C 586.346470894066 365.730210841521  587.258271332676 366.140964973087  588.17013271426 366.551583745156  L 588.580731171406 365.639767476937  Z M 592.228140727633 367.281358172852  C 591.316207124177 366.871140976028  590.404334416114 366.460788414407  589.492522637087 366.050300503123  L 589.08201441452 366.962157399355  C 589.993916438203 367.372685937817  590.905879372752 367.783079102332  591.817903232921 368.193336899541  L 592.228140727633 367.281358172852  Z M 595.876199799817 368.921504961903  C 594.964103888818 368.51164877393  594.052068819622 368.101657197063  593.140094625884 367.691530246428  L 592.729947381827 368.603549565408  C 593.642011836296 369.013717107496  594.554137148043 369.423749251538  595.466323331819 369.833646004166  L 595.876199799817 368.921504961903  Z M 599.524907816353 370.560207587098  C 598.612649740724 370.150712472193  597.700452453303 369.741081944321  596.788315987747 369.331316018597  L 596.378529786464 370.243497617423  C 597.290756516729 370.653304093442  598.203044086917 371.062975163616  599.11539243929 371.472510802015  L 599.524907816353 370.560207587098  Z M 603.174264205544 372.197465791675  C 602.261844108223 371.788331814002  601.349484745503 371.379062399311  600.43718615105 370.969657562701  L 600.027761056748 371.882001298448  C 600.94014994404 372.291446655042  601.852599581397 372.700756565451  602.765109983581 373.1099310363  L 603.174264205544 372.197465791675  Z M 606.824268395578 373.833279319096  C 605.91168641953 373.42450654276  604.999165124467 373.015598305375  604.08670454406 372.606554622028  L 603.677640620892 373.519060351743  C 604.590191510169 373.928144519329  605.502803095892 374.337093216696  606.415475392825 374.745906450459  L 606.824268395578 373.833279319096  Z M 610.474919814552 375.467647913053  C 609.562176102766 375.059236402104  608.64949301834 374.650689406097  607.736870594951 374.242006940105  L 607.328167907011 375.154674520811  C 608.240880655288 375.563397435291  609.153654046383 375.971984855537  610.066488095062 376.380436788157  L 610.474919814552 375.467647913053  Z M 614.126217890456 377.100571317462  C 613.213312585946 376.692521135892  612.300467855162 376.284335445275  611.387683731786 375.876014260673  L 610.979342343113 376.788843549366  C 611.892216795289 377.197205141291  612.80515187292 377.605431231211  613.718147518223 378.013521793285  L 614.126217890456 377.100571317462  Z M 617.778162051182 378.732049276465  C 616.865095296988 378.32436048821  615.952089062878 377.916536166942  615.039143382536 377.508576327709  L 614.631163357111 378.421567181362  C 615.544199382241 378.82956739216  616.457295979183 379.237432076964  617.370453090146 379.64516120996  L 617.778162051182 378.732049276465  Z M 621.430751724516 380.362081534431  C 620.517523663705 379.95475420337  619.604356069322 379.547291315353  618.691248975061 379.13969288541  L 618.283630376809 380.05284516097  C 619.196827843927 380.460483932111  620.110085792919 380.867987137098  621.02340423856 381.275354782525  L 621.430751724516 380.362081534431  Z M 625.08398633815 381.990667835958  C 624.170597113811 381.583702025914  623.257268302239 381.176600634989  622.343999937131 380.769363678202  L 621.93674282992 381.682677232588  C 622.850101583847 382.089954494798  623.763520765982 382.497096166925  624.6770003911 382.904102255555  L 625.08398633815 381.990667835958  Z M 628.737865319668 383.617807925866  C 627.824315062816 383.21120369522  626.910825201364 382.80446387595  625.997395696404 382.397588450737  L 625.590500144046 383.311063140847  C 626.504020029573 383.717978824921  627.417600325926 384.124758911168  628.331240975293 384.531403373841  L 628.737865319668 383.617807925866  Z M 632.392388096559 385.243501549204  C 631.478676974539 384.837258972437  630.565026157929 384.430880767002  629.651435680441 384.024366947895  L 629.244901746692 384.938002630599  C 630.158582632777 385.344556678173  631.072323876015 385.750975104018  631.986125418571 386.15725788241  L 632.392388096559 385.243501549204  Z M 636.047554096206 386.867748451249  C 635.133682240082 386.461867586627  634.219870635676 386.055851069479  633.306119316707 385.649698914783  L 632.899947065265 386.563495446927  C 633.813788808748 386.969687794299  634.727690855695 387.375744496061  635.641653148262 387.781665526512  L 636.047554096206 386.867748451249  Z M 639.703362745892 388.4905483775  C 638.789330298856 388.085029288621  637.875358049835 387.679374523373  636.961446032558 387.273584096727  L 636.555635527065 388.187541335131  C 637.469637996864 388.593371924032  638.383700680112 388.999066827342  639.29782359159 389.404626051622  L 639.703362745892 388.4905483775  Z M 643.359813472804 390.111901073689  C 642.445620578071 389.706743824091  641.531487827646 389.301450874308  640.617415255258 388.896022239294  L 640.211966559298 389.810140040753  C 641.126129587991 390.215608796844  642.040352812742 390.620941859626  642.954636175687 391.026139203446  L 643.359813472804 390.111901073689  Z M 647.01690570402 391.731806285772  C 646.102552504834 391.327010938937  645.188259396236 390.92207986812  644.27402641196 390.517013088263  L 643.868939589062 391.431291309547  C 644.783263045518 391.836398174673  645.697646644312 392.241369322672  646.612090327575 392.646204727915  L 647.01690570402 391.731806285772  Z M 650.67463886653 393.35026375993  C 649.760125506156 392.945830379285  648.845672182641 392.541261250884  647.931278929726 392.136556389652  L 647.526554043361 393.050994887506  C 648.441037796429 393.455739803551  649.355581601772 393.860348962595  650.270185474185 394.264822371185  L 650.67463886653 393.35026375993  Z M 654.333012387209 394.967273242572  C 653.418338996823 394.563201886133  652.503725625906 394.158994774245  651.589172235509 393.754651889695  L 651.184809349093 394.669250520839  C 652.099453243375 395.07363341902  653.014157136191 395.477880536441  653.928921042336 395.88199187964  L 654.333012387209 394.967273242572  Z M 657.992025692843 396.582834480334  C 657.077192439996 396.17912522212  656.162419116522 395.775280168664  655.247705756172 395.371299334863  L 654.843704933063 396.28605795599  C 655.758508825247 396.690078772946  656.673372662213 397.093963785401  657.588296458759 397.497712999891  L 657.992025692843 396.582834480334  Z M 661.651678210111 398.196947220083  C 660.736685226029 397.793600117997  659.821752117561 397.390117196954  658.906878918466 396.986498471844  L 658.503240221966 397.901416939625  C 659.418203956596 398.305075606705  660.333227618603 398.708598461603  661.248311150075 399.11198547878  L 661.651678210111 398.196947220083  Z M 665.311969365598 399.809611208904  C 664.396816793647 399.406626326145  663.481724043543 399.003505600738  662.566691149052 398.600249047561  L 662.163414642405 399.515327218641  C 663.078538100355 399.918623683289  663.993721395556 400.321784296024  664.908964542811 400.724809063366  L 665.311969365598 399.809611208904  Z M 668.97289858578 401.420826194117  C 668.057586557227 401.018203588493  667.142334333122 400.615445132559  666.227141874484 400.212550809162  L 665.824227620878 401.127788540159  C 666.739510634521 401.530722728502  667.654853467999 401.93352105726  668.570256063388 402.336183500945  L 668.97289858578 401.420826194117  Z M 672.634465297044 403.030591923267  C 671.718993979557 402.628331668531  670.803582376356 402.225935523831  669.888230521217 401.823403504017  L 669.485678583784 402.738800651527  C 670.40112103395 403.141372511102  671.316623213798 403.543808471436  672.232185138136 403.946108539036  L 672.634465297044 403.030591923267  Z M 675.126238928269 404.125082803404  C 674.600791790635 403.894368918608  674.075364337354 403.663610285116  673.549956515611 403.432806879731  L 673.147766957425 404.348363300322  C 674.063368676429 404.750572757389  674.979030107696 405.152646307559  675.894751193276 405.554583925384  L 675.126238928269 404.125082803404  Z M 352.919620530673 255.851686899367  C 352.018713913537 255.417787933149  351.117871707051 254.98375523905  350.217093944442 254.54958883308  L 349.782906055558 255.45041116692  C 350.683772958822 255.884620537848  351.584704324231 256.318696189401  352.485700094774 256.75263809411  L 352.919620530673 255.851686899367  Z M 671.917322123441 411.468509586407  L 685 409  L 677.922947959016 397.723239188082  L 671.917322123441 411.468509586407  Z " fill-rule="nonzero" fill="#1f8aee" stroke="none" />
  </g>
</svg>