<?xml version="1.0" encoding="utf-8"?>
<svg version="1.1" xmlns:xlink="http://www.w3.org/1999/xlink" width="48px" height="8px" viewBox="406 338  48 8" xmlns="http://www.w3.org/2000/svg">
  <g transform="matrix(0.999847695156391 0.0174524064372837 -0.017452406437279 0.999847695156392 6.03421408430125 -7.45244651151813 )">
    <path d="M 375.644533599065 355.804990781827  C 374.780660902112 356.317826182753  373.923924265812 356.842588129226  373.07456962054 357.379125985804  L 373.608636145083 358.224568442369  C 374.450193380549 357.692956214405  375.299064837456 357.173011789062  376.155006843177 356.664884418881  L 375.644533599065 355.804990781827  Z M 379.137018592162 353.817877002432  C 378.254818993887 354.298501652021  377.379310719619 354.791307928487  376.51074508821 355.296154369423  L 377.013266170055 356.160719324936  C 377.873858027242 355.660507572953  378.741328791104 355.172225451988  379.615429449977 354.696013125777  L 379.137018592162 353.817877002432  Z M 382.700417134459 351.960926968633  C 381.801091118777 352.408686840108  380.908002584991 352.868866843221  380.021407898463 353.341334881088  L 380.491699714498 354.223845848595  C 381.370155112989 353.7557152532  382.255044742663 353.299759883566  383.146114591697 352.856110623875  L 382.700417134459 351.960926968633  Z M 386.329880206952 350.236667590037  C 385.414651563143 350.650953378516  384.505198071251 351.077880902265  383.601780794284 351.517327609683  L 384.039203378498 352.416583681567  C 384.934326929429 351.981171267816  385.835431280456 351.558163106702  386.742257765233 351.147680624755  L 386.329880206952 350.236667590037  Z M 390.02046889102 348.647445212805  C 389.090583048422 349.027693164434  388.166002169024 349.420787252283  387.246991658224 349.826614636799  L 387.65094977256 350.741392118956  C 388.561523405303 350.339290389495  389.477616268464 349.949805060031  390.398965393181 349.573047934199  L 390.02046889102 348.647445212805  Z M 393.767161089232 347.195422426784  C 392.823883422476 347.541115105886  391.885433311294 347.899840841325  390.952080142306 348.271496659154  L 391.322024086653 349.200550736181  C 392.246808706338 348.832306864982  393.176643476282 348.476874372929  394.111261482941 348.134355288628  L 393.767161089232 347.195422426784  Z M 397.564858359341 345.882575122688  C 396.609472466454 346.193242115876  395.658430152245 346.517111350336  394.712004417989 346.854089857844  L 395.047430778206 347.796156286962  C 395.985167951866 347.462271374732  396.927479323461 347.141375387264  397.87409439797 346.833560439301  L 397.564858359341 345.882575122688  Z M 401.408392852167 344.71068980333  C 400.442198807865 344.985908359646  399.479858454671 345.274480376755  398.521648037014 345.576323018671  L 398.822100369968 346.530119850089  C 399.771514039 346.23104824238  400.725019729135 345.945125429922  401.682343731978 345.672433488233  L 401.408392852167 344.71068980333  Z M 405.292534343928 343.681361152584  C 404.316846930497 343.920756758764  403.344518076559 344.173638874073  402.375826893789 344.439934907482  L 402.640896348477 345.404164228853  C 403.600694565074 345.1403128978  404.564097057586 344.889752339803  405.530827276694 344.652554479473  L 405.292534343928 343.681361152584  Z M 409.217436257902 342.803092434341  C 408.876651297976 342.870737996782  408.536191929616 342.940013613371  408.196069842434 343.010916905544  C 407.55250870861 343.150275174565  406.91022445067 343.295466142751  406.269296279844 343.446471904084  L 406.498622153748 344.419821606687  C 407.132412468049 344.270497558701  407.767541144983 344.126912186572  408.403930164802 343.989083128449  C 408.739671217621 343.919105669483  409.075743908685 343.850728906351  409.412136785158 343.783955169226  L 409.217436257902 342.803092434341  Z M 413.17251565094 342.093571755269  C 412.180570265138 342.25269603554  411.190873718198 342.42553558373  410.203710107275 342.612040785416  L 410.389356252561 343.594657449604  C 411.367457313153 343.409864439048  412.348068056412 343.238611625911  413.330906993308 343.080948169137  L 413.17251565094 342.093571755269  Z M 417.151072964821 341.530407214985  C 416.153933583052 341.652837759828  415.158535656091 341.789057183722  414.165164917702 341.939026384226  L 414.314443349261 342.927821585403  C 415.298694553446 342.779229161163  416.284954335814 342.644260285174  417.272939585751 342.522953700901  L 417.151072964821 341.530407214985  Z M 421.147694238744 341.114365159303  C 420.146717753244 341.199935367079  419.146972968749 341.299349301339  418.148746866818 341.412578424834  L 418.26145444881 342.406206625401  C 419.250516442391 342.294016989808  420.241083176428 342.195515714577  421.232870303976 342.110731074975  L 421.147694238744 341.114365159303  Z M 425.156940930743 340.84601173198  C 424.153489455217 340.89460516004  423.150758250822 340.957078323683  422.149035156373 341.033413289685  L 422.225018518021 342.030522375369  C 423.217545400352 341.954888194387  424.211071137783 341.892988558966  425.205310533972 341.844841237693  L 425.156940930743 340.84601173198  Z M 429.173357318377 340.725712104312  C 428.168796334465 340.737262627453  427.164443211666 340.762710007939  426.160586254384 340.802046940978  L 426.199741998675 341.80128006077  C 427.19438315414 341.762304256253  428.189515920122 341.737090492731  429.184854638976 341.725646007937  L 429.173357318377 340.725712104312  Z M 433.191477922787 340.753629978218  C 432.187174421925 340.728121878662  431.182566089313 340.716508847581  430.177941302607 340.718794218551  L 430.180216146994 341.71879163109  C 431.175618082904 341.716527240724  432.171003715779 341.728033659611  433.166087315375 341.753307584777  L 433.191477922787 340.753629978218  Z M 437.205834946044 340.929727363478  C 436.203155569294 340.867195352262  435.199659082737 340.818537712451  434.195633544868 340.783768411454  L 434.161024393777 341.783169335339  C 435.155832582192 341.817619440472  436.150116576193 341.865830384007  437.143590961777 341.927788326758  L 437.205834946044 340.929727363478  Z M 439.189192833728 341.071603454742  C 438.862307961408 341.045219391928  438.535305604371 341.02031168762  438.208195766147 340.996881103785  L 438.13674971519 341.994325569308  C 439.129610436122 342.065443290758  440.121439784593 342.150293154215  441.111953051197 342.248850803116  L 439.189192833728 341.071603454742  Z M 372.227714676085 357.919564272351  C 371.38334442539 358.463912565935  370.546545261359 359.019916094269  369.717557391216 359.587415253865  L 370.282442608784 360.412584746135  C 371.103820044127 359.850295452098  371.93293706261 359.299396254903  372.769555662199 358.760045292819  L 372.227714676085 357.919564272351  Z M 437.883507527459 348.517300985342  L 450 343  L 440.437813539191 333.736383530785  L 437.883507527459 348.517300985342  Z " fill-rule="nonzero" fill="#1f8aee" stroke="none" />
  </g>
</svg>